<?xml version="1.0" encoding="iso-8859-1"?>
<!-- Generator: Adobe Illustrator 19.0.0, SVG Export Plug-In . SVG Version: 6.00 Build 0)  -->
<svg version="1.1" id="Capa_1" xmlns="http://www.w3.org/2000/svg" xmlns:xlink="http://www.w3.org/1999/xlink" x="0px" y="0px"
	 viewBox="0 0 512 512" style="enable-background:new 0 0 512 512;" xml:space="preserve">
<path style="fill:#303C42;" d="M405.333,0H106.667C83.135,0,64,19.135,64,42.667v426.667C64,492.865,83.135,512,106.667,512h298.667
	C428.865,512,448,492.865,448,469.333V42.667C448,19.135,428.865,0,405.333,0z"/>
<path style="fill:#CFE8FC;" d="M106.667,21.333h298.667c11.76,0,21.333,9.573,21.333,21.333V384H85.333V42.667
	C85.333,30.906,94.906,21.333,106.667,21.333z"/>
<linearGradient id="SVGID_1_" gradientUnits="userSpaceOnUse" x1="-44.3013" y1="641.2784" x2="-24.9458" y2="632.2531" gradientTransform="matrix(21.3333 0 0 -21.3333 996.3334 13791.667)">
	<stop  offset="0" style="stop-color:#FFFFFF;stop-opacity:0.4"/>
	<stop  offset="1" style="stop-color:#FFFFFF;stop-opacity:0"/>
</linearGradient>
<path style="fill:url(#SVGID_1_);" d="M106.667,21.333h298.667c11.76,0,21.333,9.573,21.333,21.333V384H85.333V42.667
	C85.333,30.906,94.906,21.333,106.667,21.333z"/>
<path style="fill:#F2F2F2;" d="M405.333,490.667H106.667c-11.76,0-21.333-9.573-21.333-21.333v-64h341.333v64
	C426.667,481.094,417.094,490.667,405.333,490.667z"/>
<g>
	<circle style="fill:#303C42;" cx="256" cy="448" r="21.333"/>
	<circle style="fill:#303C42;" cx="394.667" cy="53.333" r="10.667"/>
	<path style="fill:#303C42;" d="M117.333,192h64c5.896,0,10.667-4.771,10.667-10.667v-64c0-5.896-4.771-10.667-10.667-10.667h-64
		c-5.896,0-10.667,4.771-10.667,10.667v64C106.667,187.229,111.438,192,117.333,192z"/>
</g>
<rect x="128" y="128" style="fill:#00B5EF;" width="42.667" height="42.667"/>
<path style="fill:#303C42;" d="M224,192h64c5.896,0,10.667-4.771,10.667-10.667v-64c0-5.896-4.771-10.667-10.667-10.667h-64
	c-5.896,0-10.667,4.771-10.667,10.667v64C213.333,187.229,218.104,192,224,192z"/>
<rect x="234.667" y="128" style="fill:#00B5EF;" width="42.667" height="42.667"/>
<path style="fill:#303C42;" d="M330.667,192h64c5.896,0,10.667-4.771,10.667-10.667v-64c0-5.896-4.771-10.667-10.667-10.667h-64
	c-5.896,0-10.667,4.771-10.667,10.667v64C320,187.229,324.771,192,330.667,192z"/>
<rect x="341.333" y="128" style="fill:#00B5EF;" width="42.667" height="42.667"/>
<path style="fill:#303C42;" d="M117.333,320h64c5.896,0,10.667-4.771,10.667-10.667v-64c0-5.896-4.771-10.667-10.667-10.667h-64
	c-5.896,0-10.667,4.771-10.667,10.667v64C106.667,315.229,111.438,320,117.333,320z"/>
<rect x="128" y="256" style="fill:#00B5EF;" width="42.667" height="42.667"/>
<path style="fill:#303C42;" d="M224,320h64c5.896,0,10.667-4.771,10.667-10.667v-64c0-5.896-4.771-10.667-10.667-10.667h-64
	c-5.896,0-10.667,4.771-10.667,10.667v64C213.333,315.229,218.104,320,224,320z"/>
<rect x="234.667" y="256" style="fill:#00B5EF;" width="42.667" height="42.667"/>
<path style="fill:#303C42;" d="M330.667,320h64c5.896,0,10.667-4.771,10.667-10.667v-64c0-5.896-4.771-10.667-10.667-10.667h-64
	c-5.896,0-10.667,4.771-10.667,10.667v64C320,315.229,324.771,320,330.667,320z"/>
<rect x="341.333" y="256" style="fill:#00B5EF;" width="42.667" height="42.667"/>
<linearGradient id="SVGID_2_" gradientUnits="userSpaceOnUse" x1="-46.0957" y1="639.7961" x2="-23.3106" y2="629.1726" gradientTransform="matrix(21.3333 0 0 -21.3333 996.3334 13791.667)">
	<stop  offset="0" style="stop-color:#FFFFFF;stop-opacity:0.2"/>
	<stop  offset="1" style="stop-color:#FFFFFF;stop-opacity:0"/>
</linearGradient>
<path style="fill:url(#SVGID_2_);" d="M405.333,0H106.667C83.135,0,64,19.135,64,42.667v426.667C64,492.865,83.135,512,106.667,512
	h298.667C428.865,512,448,492.865,448,469.333V42.667C448,19.135,428.865,0,405.333,0z"/>
<g>
</g>
<g>
</g>
<g>
</g>
<g>
</g>
<g>
</g>
<g>
</g>
<g>
</g>
<g>
</g>
<g>
</g>
<g>
</g>
<g>
</g>
<g>
</g>
<g>
</g>
<g>
</g>
<g>
</g>
</svg>
