<?xml version="1.0" encoding="iso-8859-1"?>
<!-- Generator: Adobe Illustrator 19.0.0, SVG Export Plug-In . SVG Version: 6.00 Build 0)  -->
<svg version="1.1" id="Capa_1" xmlns="http://www.w3.org/2000/svg" xmlns:xlink="http://www.w3.org/1999/xlink" x="0px" y="0px"
	 viewBox="0 0 512 512" style="enable-background:new 0 0 512 512;" xml:space="preserve">
<path style="fill:#303C42;" d="M479.823,237.553l-35.716-20.105C426.207,129.995,348.663,64,256,64
	c-23.643,0-46.204,4.501-67.139,12.354C136.869,47.925,88.67,21.769,52.552,2.447C38.271-5.17,21.344,6.082,21.334,21.222v469.44
	c0,11.763,9.573,21.339,21.333,21.339c3.375,0,6.698-0.865,9.875-2.564c109.677-58.669,321.323-175.122,427.271-235.095
	c6.698-3.792,10.854-10.836,10.854-18.4C490.667,248.378,486.511,241.334,479.823,237.553z"/>
<path style="fill:#F9C20A;" d="M426.667,256c0,8.305-0.745,16.625-1.939,24.846c-29.319,16.413-63.038,35.159-98.439,54.751
	c22.125-19.559,36.378-47.818,36.378-79.598c0-58.813-47.854-106.667-106.667-106.667S149.334,197.188,149.334,256
	S197.188,362.667,256,362.667c10.516,0,20.477-2.001,30.081-4.85c-32.921,18.16-66.388,36.551-98.647,54.212
	c-62.081-27.296-102.1-87.885-102.1-156.029c0-94.104,76.563-170.667,170.667-170.667S426.667,161.896,426.667,256z"/>
<path style="opacity:0.2;fill:#FFFFFF;enable-background:new    ;" d="M106.667,266.667C106.667,172.563,183.229,96,277.334,96
	c22.854,0,44.638,4.591,64.578,12.777C316.642,93.973,287.343,85.334,256,85.334c-94.104,0-170.667,76.563-170.667,170.667
	c0,68.143,40.02,128.733,102.1,156.029c0.188-0.103,0.384-0.211,0.572-0.314C137.948,381.049,106.667,326.848,106.667,266.667z"/>
<circle style="fill:#F68D39;" cx="256" cy="256" r="85.333"/>
<path style="opacity:0.2;fill:#FFFFFF;enable-background:new    ;" d="M186,273.334C186,226.282,224.281,188,271.334,188
	c21.542,0,41.016,8.286,56.048,21.503c-15.246-23.327-41.495-38.836-71.382-38.836c-47.052,0-85.333,38.281-85.333,85.333
	c0,25.51,11.482,48.18,29.285,63.831C191.194,306.433,186,290.499,186,273.334z"/>
<path style="fill:#EA6A20;" d="M42.667,490.662L42.479,21.263c32.73,17.507,75.54,40.715,121.926,66.039
	C104.646,119.881,64,183.283,64,256c0,71.311,39.053,135.154,100.689,168.473C118.146,449.907,75.366,473.128,42.667,490.662z"/>
<path style="opacity:0.2;fill:#FFFFFF;enable-background:new    ;" d="M61.334,95.667c-0.008-19.184,20.37-31.475,37.249-22.359
	c14.757,7.97,30.73,16.633,47.385,25.69c5.948-4.181,12.023-8.198,18.438-11.695C118.02,61.978,75.21,38.77,42.479,21.263
	l0.188,469.398c5.846-3.135,12.366-6.65,18.82-10.129L61.334,95.667z"/>
<path style="fill:#EA6A20;" d="M447.478,268.081C447.729,264.054,448,260.024,448,256c0-4.182-0.363-8.273-0.628-12.391
	l21.94,12.155C462.509,259.616,455.177,263.75,447.478,268.081z"/>
<path style="fill:#FFFFFF;" d="M288,192h-21.333c-5.896,0-10.667,4.771-10.667,10.667v54.41c-1.78-0.375-3.441-1.077-5.333-1.077
	C235.939,256,224,267.939,224,282.667c0,14.728,11.939,26.667,26.667,26.667c14.728,0,26.667-11.939,26.667-26.667v-69.333H288
	c5.896,0,10.667-4.771,10.667-10.667C298.667,196.771,293.896,192,288,192z"/>
<linearGradient id="SVGID_1_" gradientUnits="userSpaceOnUse" x1="-49.343" y1="637.8932" x2="-26.8955" y2="627.4255" gradientTransform="matrix(21.3333 0 0 -21.3333 996.3286 13791.6719)">
	<stop  offset="0" style="stop-color:#FFFFFF;stop-opacity:0.2"/>
	<stop  offset="1" style="stop-color:#FFFFFF;stop-opacity:0"/>
</linearGradient>
<path style="fill:url(#SVGID_1_);" d="M479.823,237.553l-35.716-20.105C426.207,129.995,348.663,64,256,64
	c-23.643,0-46.204,4.501-67.139,12.354C136.869,47.925,88.67,21.769,52.552,2.447C38.271-5.17,21.344,6.082,21.334,21.222v469.44
	c0,11.763,9.573,21.339,21.333,21.339c3.375,0,6.698-0.865,9.875-2.564c109.677-58.669,321.323-175.122,427.271-235.095
	c6.698-3.792,10.854-10.836,10.854-18.4C490.667,248.378,486.511,241.334,479.823,237.553z"/>
<g>
</g>
<g>
</g>
<g>
</g>
<g>
</g>
<g>
</g>
<g>
</g>
<g>
</g>
<g>
</g>
<g>
</g>
<g>
</g>
<g>
</g>
<g>
</g>
<g>
</g>
<g>
</g>
<g>
</g>
</svg>
