<?xml version="1.0" encoding="iso-8859-1"?>
<!-- Generator: Adobe Illustrator 19.0.0, SVG Export Plug-In . SVG Version: 6.00 Build 0)  -->
<svg version="1.1" id="Capa_1" xmlns="http://www.w3.org/2000/svg" xmlns:xlink="http://www.w3.org/1999/xlink" x="0px" y="0px"
	 viewBox="0 0 512 512" style="enable-background:new 0 0 512 512;" xml:space="preserve">
<path style="fill:#303C42;" d="M479.813,237.553L448,219.588V74.667C448,68.771,443.229,64,437.334,64H165.847
	C124.125,41.236,75.547,14.748,52.552,2.447C38.271-5.17,21.344,6.082,21.334,21.222v469.44c0,11.763,9.573,21.339,21.333,21.339
	c3.375,0,6.698-0.865,9.875-2.564c109.5-58.565,321.135-175.018,427.271-235.095c6.698-3.792,10.854-10.836,10.854-18.4
	C490.667,248.378,486.511,241.334,479.813,237.553z"/>
<path style="fill:#E40571;" d="M426.667,279.76c-43.022,24.091-95.583,53.245-149.387,82.908H128V85.334h298.667V279.76z"/>
<path style="opacity:0.1;enable-background:new    ;" d="M426.667,279.76c-43.022,24.091-95.583,53.245-149.387,82.908H128V224
	h298.667V279.76z"/>
<path style="fill:#B4015C;" d="M448,267.788v-23.707l13.542,7.641l7.771,4.043C462.654,259.534,455.513,263.562,448,267.788z"/>
<g>
	<path style="fill:#FFFFFF;" d="M170.667,138.667h10.667c5.896,0,10.667-4.771,10.667-10.667c0-5.896-4.771-10.667-10.667-10.667
		h-10.667c-5.896,0-10.667,4.771-10.667,10.667C160,133.896,164.771,138.667,170.667,138.667z"/>
	<path style="fill:#FFFFFF;" d="M170.667,202.667h10.667c5.896,0,10.667-4.771,10.667-10.667c0-5.896-4.771-10.667-10.667-10.667
		h-10.667c-5.896,0-10.667,4.771-10.667,10.667C160,197.896,164.771,202.667,170.667,202.667z"/>
	<path style="fill:#FFFFFF;" d="M170.667,266.667h10.667c5.896,0,10.667-4.771,10.667-10.667c0-5.896-4.771-10.667-10.667-10.667
		h-10.667c-5.896,0-10.667,4.771-10.667,10.667C160,261.896,164.771,266.667,170.667,266.667z"/>
	<path style="fill:#FFFFFF;" d="M373.334,138.667H384c5.896,0,10.667-4.771,10.667-10.667c0-5.896-4.771-10.667-10.667-10.667
		h-10.667c-5.896,0-10.667,4.771-10.667,10.667C362.667,133.896,367.438,138.667,373.334,138.667z"/>
	<path style="fill:#FFFFFF;" d="M373.334,202.667H384c5.896,0,10.667-4.771,10.667-10.667c0-5.896-4.771-10.667-10.667-10.667
		h-10.667c-5.896,0-10.667,4.771-10.667,10.667C362.667,197.896,367.438,202.667,373.334,202.667z"/>
	<path style="fill:#FFFFFF;" d="M373.334,266.667H384c5.896,0,10.667-4.771,10.667-10.667c0-5.896-4.771-10.667-10.667-10.667
		h-10.667c-5.896,0-10.667,4.771-10.667,10.667C362.667,261.896,367.438,266.667,373.334,266.667z"/>
	<path style="fill:#FFFFFF;" d="M170.667,330.667h10.667c5.896,0,10.667-4.771,10.667-10.667s-4.771-10.667-10.667-10.667h-10.667
		c-5.896,0-10.667,4.771-10.667,10.667S164.771,330.667,170.667,330.667z"/>
</g>
<path style="fill:#B4015C;" d="M42.667,490.662L42.479,21.263C64.054,32.796,88.21,45.987,121.196,64h-3.862
	c-5.896,0-10.667,4.771-10.667,10.667v298.667c0,5.896,4.771,10.667,10.667,10.667h121.193
	C164.584,424.646,92.104,464.157,42.667,490.662z"/>
<path style="opacity:0.2;fill:#FFFFFF;enable-background:new    ;" d="M42.854,490.562c5.948-3.189,12.245-6.577,18.82-10.12
	L61.521,95.737c-0.008-19.184,20.37-31.475,37.249-22.359c2.535,1.37,5.293,2.866,7.897,4.275v-2.986
	c0-5.896,4.771-10.667,10.667-10.667h3.862C88.302,46.038,64.197,32.872,42.667,21.364L42.854,490.562z"/>
<linearGradient id="SVGID_1_" gradientUnits="userSpaceOnUse" x1="-48.752" y1="639.1609" x2="-26.3047" y2="628.6927" gradientTransform="matrix(21.3333 0 0 -21.3333 996.3286 13791.6719)">
	<stop  offset="0" style="stop-color:#FFFFFF;stop-opacity:0.2"/>
	<stop  offset="1" style="stop-color:#FFFFFF;stop-opacity:0"/>
</linearGradient>
<path style="fill:url(#SVGID_1_);" d="M479.813,237.553L448,219.588V74.667C448,68.771,443.229,64,437.334,64H165.847
	C124.125,41.236,75.547,14.748,52.552,2.447C38.271-5.17,21.344,6.082,21.334,21.222v469.44c0,11.763,9.573,21.339,21.333,21.339
	c3.375,0,6.698-0.865,9.875-2.564c109.5-58.565,321.135-175.018,427.271-235.095c6.698-3.792,10.854-10.836,10.854-18.4
	C490.667,248.378,486.511,241.334,479.813,237.553z"/>
<g>
</g>
<g>
</g>
<g>
</g>
<g>
</g>
<g>
</g>
<g>
</g>
<g>
</g>
<g>
</g>
<g>
</g>
<g>
</g>
<g>
</g>
<g>
</g>
<g>
</g>
<g>
</g>
<g>
</g>
</svg>
