<?xml version="1.0" encoding="iso-8859-1"?>
<!-- Generator: Adobe Illustrator 19.0.0, SVG Export Plug-In . SVG Version: 6.00 Build 0)  -->
<svg version="1.1" id="Capa_1" xmlns="http://www.w3.org/2000/svg" xmlns:xlink="http://www.w3.org/1999/xlink" x="0px" y="0px"
	 viewBox="0 0 512 512" style="enable-background:new 0 0 512 512;" xml:space="preserve">
<path style="fill:#303C42;" d="M479.813,237.553l-31.909-18.02l-0.966-6.553c-2.635-25.302-24.635-67.156-40.802-83.688
	l-0.155,0.152c-19.417-26.603-50.602-44.111-85.98-44.111H204.939l-23.126-12.621c-44.51-24.286-103.26-56.357-129.26-70.266
	C38.271-5.17,21.344,6.082,21.334,21.222v469.44c0,11.763,9.573,21.339,21.333,21.339c3.375,0,6.698-0.865,9.875-2.564
	c109.5-58.565,321.135-175.018,427.271-235.095c6.698-3.792,10.854-10.836,10.854-18.4
	C490.667,248.378,486.511,241.334,479.813,237.553z"/>
<path style="fill:#69B342;" d="M327.646,312.407c-2-1.969-4.688-3.073-7.49-3.073H206.732l10.82-10.667H320
	c52.501,0,96.013-38.214,104.803-88.237c0.365,1.772,0.811,3.62,0.978,5.206l8.784,59.691
	c-27.31,15.316-58.732,32.819-92.341,51.447L327.646,312.407z"/>
<path style="opacity:0.2;enable-background:new    ;" d="M327.646,312.407c-2-1.969-4.688-3.073-7.49-3.073H206.732l10.82-10.667
	H320c52.501,0,96.013-38.214,104.803-88.237c0.365,1.772,0.811,3.62,0.978,5.206l8.784,59.691
	c-27.31,15.316-58.732,32.819-92.341,51.447L327.646,312.407z"/>
<path style="fill:#69B342;" d="M405.334,192c0,47.052-38.281,85.333-85.333,85.333H213.177c-2.802,0-5.49,1.104-7.49,3.073
	L130.021,355c-9.156,9.146-23.865,10.208-34.219,2.417c-7.49-5.604-11.427-14.875-10.302-23.948l22.104-150.281
	c4.552-43.625,40.833-76.521,84.396-76.521h128C367.052,106.667,405.334,144.948,405.334,192z"/>
<path style="opacity:0.2;fill:#FFFFFF;enable-background:new    ;" d="M99.5,347.469l22.104-150.281
	c4.552-43.625,40.833-76.521,84.396-76.521h128c19.956,0,38.092,7.171,52.642,18.691c-15.643-19.755-39.546-32.691-66.642-32.691
	H192c-43.563,0-79.844,32.896-84.396,76.521L85.5,333.469c-1.125,9.073,2.813,18.344,10.302,23.948
	c1.672,1.258,3.586,1.91,5.444,2.71C99.649,356.133,98.965,351.791,99.5,347.469z"/>
<g>
	<path style="fill:#00AB57;" d="M42.667,490.662L42.479,21.263c25.051,13.392,80.391,43.59,124.184,67.491
		c-42.628,10.488-75.495,46.393-80.215,91.777L64.365,330.594c-2.104,16.885,5.042,33.708,18.646,43.906
		c8.438,6.333,18.469,9.438,28.458,9.438c12.26,0,24.458-4.677,33.583-13.802l40.038-39.469h130.691l6.983,6.882
		C223.327,392.566,111.02,454.016,42.667,490.662z"/>
	<path style="fill:#00AB57;" d="M454.477,264.136l-2.637-17.887l9.702,5.473l7.771,4.043
		C464.666,258.395,459.548,261.278,454.477,264.136z"/>
</g>
<g>
	<path style="fill:#FFFFFF;" d="M192,160c0-5.896-4.771-10.667-10.667-10.667s-10.667,4.771-10.667,10.667v21.333h-21.333
		c-5.896,0-10.667,4.771-10.667,10.667s4.771,10.667,10.667,10.667h21.333V224c0,5.896,4.771,10.667,10.667,10.667
		S192,229.896,192,224v-21.333h21.333c5.896,0,10.667-4.771,10.667-10.667s-4.771-10.667-10.667-10.667H192V160z"/>
	<circle style="fill:#FFFFFF;" cx="298.667" cy="192" r="10.667"/>
	<circle style="fill:#FFFFFF;" cx="330.667" cy="160" r="10.667"/>
	<circle style="fill:#FFFFFF;" cx="362.667" cy="192" r="10.667"/>
	<circle style="fill:#FFFFFF;" cx="330.667" cy="224" r="10.667"/>
	<path style="opacity:0.2;fill:#FFFFFF;enable-background:new    ;" d="M42.854,490.562c5.836-3.129,12.38-6.659,18.82-10.129
		L61.521,95.737c-0.008-19.184,20.37-31.475,37.249-22.359c1.073,0.579,21.01,11.893,43.806,24.833
		c7.592-3.999,15.569-7.361,24.087-9.457c-26.06-14.223-56.102-30.616-81.523-44.43c-15.462-8.385-28.499-15.441-36.628-19.82
		c-1.98-1.065-4.13-2.224-5.845-3.141L42.854,490.562z"/>
</g>
<linearGradient id="SVGID_1_" gradientUnits="userSpaceOnUse" x1="-49.347" y1="637.8861" x2="-26.9002" y2="627.4166" gradientTransform="matrix(21.3333 0 0 -21.3333 996.3286 13791.6719)">
	<stop  offset="0" style="stop-color:#FFFFFF;stop-opacity:0.2"/>
	<stop  offset="1" style="stop-color:#FFFFFF;stop-opacity:0"/>
</linearGradient>
<path style="fill:url(#SVGID_1_);" d="M479.813,237.553l-31.909-18.02l-0.966-6.553c-2.635-25.302-24.635-67.156-40.802-83.688
	l-0.155,0.152c-19.417-26.603-50.602-44.111-85.98-44.111H204.939l-23.126-12.621c-44.51-24.286-103.26-56.357-129.26-70.266
	C38.271-5.17,21.344,6.082,21.334,21.222v469.44c0,11.763,9.573,21.339,21.333,21.339c3.375,0,6.698-0.865,9.875-2.564
	c109.5-58.565,321.135-175.018,427.271-235.095c6.698-3.792,10.854-10.836,10.854-18.4
	C490.667,248.378,486.511,241.334,479.813,237.553z"/>
<g>
</g>
<g>
</g>
<g>
</g>
<g>
</g>
<g>
</g>
<g>
</g>
<g>
</g>
<g>
</g>
<g>
</g>
<g>
</g>
<g>
</g>
<g>
</g>
<g>
</g>
<g>
</g>
<g>
</g>
</svg>
