<?xml version="1.0" encoding="iso-8859-1"?>
<!-- Generator: Adobe Illustrator 19.0.0, SVG Export Plug-In . SVG Version: 6.00 Build 0)  -->
<svg version="1.1" id="Capa_1" xmlns="http://www.w3.org/2000/svg" xmlns:xlink="http://www.w3.org/1999/xlink" x="0px" y="0px"
	 viewBox="0 0 512 512" style="enable-background:new 0 0 512 512;" xml:space="preserve">
<path style="fill:#303C42;" d="M479.813,237.553l-53.146-30.246V106.667C426.667,83.136,407.531,64,384,64H166.073
	C122.337,40.141,78.084,16.106,52.552,2.447C38.271-5.17,21.344,6.082,21.334,21.222v469.44c0,11.763,9.573,21.339,21.333,21.339
	c3.375,0,6.698-0.865,9.875-2.564c109.5-58.565,321.135-175.018,427.271-235.095c6.698-3.792,10.854-10.836,10.854-18.4
	C490.667,248.378,486.511,241.334,479.813,237.553z"/>
<path style="fill:#49C7ED;" d="M405.334,106.667v185.016C342.466,326.77,264.314,369.926,192,409.533V85.334h106.667v96
	c0,3.427,1.646,6.646,4.427,8.656c2.781,1.99,6.354,2.563,9.615,1.458l28.625-9.552l28.625,9.552
	c1.104,0.375,2.24,0.552,3.375,0.552c2.208,0,4.396-0.688,6.24-2.01c2.781-2.01,4.427-5.229,4.427-8.656v-96
	C395.761,85.334,405.334,94.907,405.334,106.667z"/>
<path style="fill:#00B5EF;" d="M170.667,85.334v335.875c-14.682,8.027-28.875,15.768-42.667,23.277V85.334H170.667z"/>
<g>
	<path style="opacity:0.2;fill:#FFFFFF;enable-background:new    ;" d="M138.667,123.895c0-13.465,10.915-24.38,24.38-24.38h7.62
		V85.334H128v359.152c3.448-1.878,7.167-3.911,10.667-5.819V123.895z"/>
	<path style="fill:#FFFFFF;" d="M320,85.334h42.667v81.188l-17.958-5.99c-2.188-0.729-4.563-0.729-6.75,0L320,166.521V85.334z"/>
</g>
<g>
	<path style="fill:#008BC0;" d="M42.667,490.662L42.479,21.263C64.403,32.984,87.753,45.74,121.189,64h-3.855
		c-5.896,0-10.667,4.771-10.667,10.667v381.421C82.926,468.981,61.115,480.771,42.667,490.662z"/>
	<path style="fill:#008BC0;" d="M426.667,279.76v-47.714l34.875,19.676l7.771,4.043C456.634,262.942,442.253,271.03,426.667,279.76z
		"/>
</g>
<path style="opacity:0.2;fill:#FFFFFF;enable-background:new    ;" d="M42.854,490.562c5.948-3.189,12.245-6.577,18.82-10.12
	L61.521,95.737c-0.008-19.184,20.37-31.475,37.249-22.359c2.535,1.37,5.293,2.866,7.897,4.275v-2.986
	c0-5.896,4.771-10.667,10.667-10.667h3.862C88.302,46.038,64.197,32.872,42.667,21.364L42.854,490.562z"/>
<linearGradient id="SVGID_1_" gradientUnits="userSpaceOnUse" x1="-48.9457" y1="638.7467" x2="-26.499" y2="628.277" gradientTransform="matrix(21.3333 0 0 -21.3333 996.3286 13791.6719)">
	<stop  offset="0" style="stop-color:#FFFFFF;stop-opacity:0.2"/>
	<stop  offset="1" style="stop-color:#FFFFFF;stop-opacity:0"/>
</linearGradient>
<path style="fill:url(#SVGID_1_);" d="M479.813,237.553l-53.146-30.246V106.667C426.667,83.136,407.531,64,384,64H166.073
	C122.337,40.141,78.084,16.106,52.552,2.447C38.271-5.17,21.344,6.082,21.334,21.222v469.44c0,11.763,9.573,21.339,21.333,21.339
	c3.375,0,6.698-0.865,9.875-2.564c109.5-58.565,321.135-175.018,427.271-235.095c6.698-3.792,10.854-10.836,10.854-18.4
	C490.667,248.378,486.511,241.334,479.813,237.553z"/>
<g>
</g>
<g>
</g>
<g>
</g>
<g>
</g>
<g>
</g>
<g>
</g>
<g>
</g>
<g>
</g>
<g>
</g>
<g>
</g>
<g>
</g>
<g>
</g>
<g>
</g>
<g>
</g>
<g>
</g>
</svg>
