<?xml version="1.0" encoding="iso-8859-1"?>
<!-- Generator: Adobe Illustrator 19.0.0, SVG Export Plug-In . SVG Version: 6.00 Build 0)  -->
<svg version="1.1" id="Capa_1" xmlns="http://www.w3.org/2000/svg" xmlns:xlink="http://www.w3.org/1999/xlink" x="0px" y="0px"
	 viewBox="0 0 512 512" style="enable-background:new 0 0 512 512;" xml:space="preserve">
<path style="fill:#303C42;" d="M469.333,0h-384C61.813,0,42.667,19.135,42.667,42.667V192C19.146,192,0,211.135,0,234.667v234.667
	C0,492.865,19.146,512,42.667,512h234.667C300.854,512,320,492.865,320,469.333h149.333c23.521,0,42.667-19.135,42.667-42.667v-384
	C512,19.135,492.854,0,469.333,0z"/>
<path style="fill:#5C6671;" d="M42.667,213.333h234.667c11.771,0,21.333,9.573,21.333,21.333v42.667H21.333v-42.667
	C21.333,222.906,30.896,213.333,42.667,213.333z"/>
<linearGradient id="SVGID_1_" gradientUnits="userSpaceOnUse" x1="-44.8878" y1="637.4542" x2="-33.3593" y2="632.0774" gradientTransform="matrix(21.3333 0 0 -21.3333 996.3334 13791.667)">
	<stop  offset="0" style="stop-color:#FFFFFF;stop-opacity:0.2"/>
	<stop  offset="1" style="stop-color:#FFFFFF;stop-opacity:0"/>
</linearGradient>
<path style="fill:url(#SVGID_1_);" d="M42.667,213.333h234.667c11.771,0,21.333,9.573,21.333,21.333v42.667H21.333v-42.667
	C21.333,222.906,30.896,213.333,42.667,213.333z"/>
<path style="fill:#FFFFFF;" d="M277.333,490.667H42.667c-11.771,0-21.333-9.573-21.333-21.333V298.667h277.333v170.667
	C298.667,481.094,289.104,490.667,277.333,490.667z"/>
<path style="fill:#00B5EF;" d="M490.667,426.667c0,11.76-9.563,21.333-21.333,21.333H320V234.667
	C320,211.135,300.854,192,277.333,192H64V42.667c0-11.76,9.563-21.333,21.333-21.333h384c11.771,0,21.333,9.573,21.333,21.333
	V426.667z"/>
<g>
	<circle style="fill:#303C42;" cx="53.333" cy="245.333" r="10.667"/>
	<circle style="fill:#303C42;" cx="96" cy="245.333" r="10.667"/>
	<circle style="fill:#303C42;" cx="138.667" cy="245.333" r="10.667"/>
	<path style="fill:#303C42;" d="M373.333,128h-32c-5.896,0-10.667,4.771-10.667,10.667s4.771,10.667,10.667,10.667h6.25
		l-24.458,24.458c-4.167,4.167-4.167,10.917,0,15.083c2.083,2.083,4.813,3.125,7.542,3.125c2.729,0,5.458-1.042,7.542-3.125
		l24.458-24.458v6.25c0,5.896,4.771,10.667,10.667,10.667S384,176.563,384,170.667v-32C384,132.771,379.229,128,373.333,128z"/>
</g>
<linearGradient id="SVGID_2_" gradientUnits="userSpaceOnUse" x1="-34.9964" y1="634.1912" x2="-25.2895" y2="624.4843" gradientTransform="matrix(21.3333 0 0 -21.3333 996.3334 13791.667)">
	<stop  offset="0" style="stop-color:#000000;stop-opacity:0.1"/>
	<stop  offset="1" style="stop-color:#000000;stop-opacity:0"/>
</linearGradient>
<path style="fill:url(#SVGID_2_);" d="M469.333,448c11.771,0,21.333-9.573,21.333-21.333v-38.978L307.488,204.51l0,0
	c7.725,7.725,12.512,18.392,12.512,30.156V448H469.333z"/>
<linearGradient id="SVGID_3_" gradientUnits="userSpaceOnUse" x1="-46.9171" y1="640.1777" x2="-21.612" y2="628.3822" gradientTransform="matrix(21.3333 0 0 -21.3333 996.3334 13791.667)">
	<stop  offset="0" style="stop-color:#FFFFFF;stop-opacity:0.2"/>
	<stop  offset="1" style="stop-color:#FFFFFF;stop-opacity:0"/>
</linearGradient>
<path style="fill:url(#SVGID_3_);" d="M469.333,0h-384C61.813,0,42.667,19.135,42.667,42.667V192C19.146,192,0,211.135,0,234.667
	v234.667C0,492.865,19.146,512,42.667,512h234.667C300.854,512,320,492.865,320,469.333h149.333
	c23.521,0,42.667-19.135,42.667-42.667v-384C512,19.135,492.854,0,469.333,0z"/>
<g>
</g>
<g>
</g>
<g>
</g>
<g>
</g>
<g>
</g>
<g>
</g>
<g>
</g>
<g>
</g>
<g>
</g>
<g>
</g>
<g>
</g>
<g>
</g>
<g>
</g>
<g>
</g>
<g>
</g>
</svg>
