<?xml version="1.0" encoding="iso-8859-1"?>
<!-- Generator: Adobe Illustrator 19.0.0, SVG Export Plug-In . SVG Version: 6.00 Build 0)  -->
<svg version="1.1" id="Capa_1" xmlns="http://www.w3.org/2000/svg" xmlns:xlink="http://www.w3.org/1999/xlink" x="0px" y="0px"
	 viewBox="0 0 512 512" style="enable-background:new 0 0 512 512;" xml:space="preserve">
<path style="fill:#303C42;" d="M508.875,18.208c4.167-4.167,4.167-10.917,0-15.083c-4.167-4.167-10.917-4.167-15.083,0
	l-35.544,35.544C430.753,14.665,394.908,0,355.625,0h-199.25C117.092,0,81.247,14.665,53.753,38.669L18.208,3.125
	c-4.167-4.167-10.917-4.167-15.083,0s-4.167,10.917,0,15.083l35.544,35.544C14.665,81.247,0,117.092,0,156.375v199.25
	c0,39.283,14.665,75.128,38.669,102.622L3.125,493.792c-4.167,4.167-4.167,10.917,0,15.083C5.208,510.958,7.938,512,10.667,512
	s5.458-1.042,7.542-3.125l35.544-35.544C81.247,497.335,117.092,512,156.375,512h199.25c39.283,0,75.128-14.665,102.622-38.669
	l35.544,35.544c2.083,2.083,4.813,3.125,7.542,3.125s5.458-1.042,7.542-3.125c4.167-4.167,4.167-10.917,0-15.083l-35.544-35.544
	C497.335,430.753,512,394.908,512,355.625v-199.25c0-39.283-14.665-75.128-38.669-102.622L508.875,18.208z"/>
<g>
	<path style="fill:#BBDEFB;" d="M398.878,98.039C383.82,84.406,366.854,72.93,348.374,64h84.543L398.878,98.039z"/>
	<path style="fill:#BBDEFB;" d="M383.801,113.116l-60.676,60.676c-18.392-15.048-41.565-24.458-67.125-24.458
		s-48.733,9.41-67.125,24.458l-60.676-60.676C162.185,82.685,206.896,64,256,64S349.815,82.685,383.801,113.116z"/>
	<path style="fill:#BBDEFB;" d="M240.917,256l-52.049,52.049c-11.234-14.452-18.201-32.37-18.201-52.049s6.966-37.598,18.201-52.049
		L240.917,256z"/>
	<path style="fill:#BBDEFB;" d="M203.949,188.866c14.451-11.233,32.368-18.199,52.051-18.199c19.682,0,37.6,6.966,52.051,18.199
		L256,240.917L203.949,188.866z"/>
	<path style="fill:#BBDEFB;" d="M256,271.083l52.051,52.051C293.6,334.367,275.682,341.333,256,341.333
		c-19.682,0-37.6-6.966-52.051-18.199L256,271.083z"/>
	<path style="fill:#BBDEFB;" d="M271.083,256l52.049-52.049c11.234,14.452,18.201,32.37,18.201,52.049s-6.966,37.598-18.201,52.049
		L271.083,256z"/>
	<path style="fill:#BBDEFB;" d="M113.122,98.039L79.083,64h84.544C145.147,72.93,128.18,84.406,113.122,98.039z"/>
	<path style="fill:#BBDEFB;" d="M98.04,113.124C84.408,128.181,72.93,145.146,64,163.628V79.083L98.04,113.124z"/>
	<path style="fill:#BBDEFB;" d="M113.116,128.199l60.676,60.676c-15.048,18.392-24.458,41.565-24.458,67.125
		s9.41,48.733,24.458,67.125l-60.676,60.676C82.685,349.814,64,305.102,64,256S82.685,162.186,113.116,128.199z"/>
	<path style="fill:#BBDEFB;" d="M98.04,398.876L64,432.917v-84.544C72.93,366.854,84.408,383.819,98.04,398.876z"/>
	<path style="fill:#BBDEFB;" d="M113.122,413.961c15.057,13.633,32.025,25.109,50.505,34.039H79.083L113.122,413.961z"/>
	<path style="fill:#BBDEFB;" d="M128.199,398.884l60.676-60.676c18.392,15.048,41.565,24.458,67.125,24.458
		s48.733-9.41,67.125-24.458l60.676,60.676C349.815,429.315,305.104,448,256,448S162.185,429.315,128.199,398.884z"/>
	<path style="fill:#BBDEFB;" d="M398.878,413.961L432.917,448h-84.543C366.854,439.07,383.82,427.594,398.878,413.961z"/>
	<path style="fill:#BBDEFB;" d="M413.96,398.876c13.633-15.056,25.111-32.022,34.04-50.503v84.543L413.96,398.876z"/>
	<path style="fill:#BBDEFB;" d="M398.884,383.801l-60.676-60.676c15.048-18.392,24.458-41.565,24.458-67.125
		s-9.41-48.733-24.458-67.125l60.676-60.676C429.315,162.186,448,206.898,448,256S429.315,349.814,398.884,383.801z"/>
	<path style="fill:#BBDEFB;" d="M413.96,113.124L448,79.083v84.543C439.07,145.146,427.592,128.18,413.96,113.124z"/>
	<path style="fill:#BBDEFB;" d="M355.625,21.333c26.711,0,51.569,7.897,72.552,21.333H83.823
		c20.983-13.436,45.841-21.333,72.552-21.333H355.625z"/>
	<path style="fill:#BBDEFB;" d="M21.333,156.375c0-26.711,7.897-51.569,21.333-72.552v344.354
		c-13.436-20.983-21.333-45.841-21.333-72.552V156.375z"/>
	<path style="fill:#BBDEFB;" d="M156.375,490.667c-26.711,0-51.569-7.897-72.552-21.333h344.354
		c-20.983,13.436-45.841,21.333-72.552,21.333H156.375z"/>
	<path style="fill:#BBDEFB;" d="M490.667,355.625c0,26.711-7.897,51.569-21.333,72.552V83.823
		c13.436,20.983,21.333,45.841,21.333,72.552V355.625z"/>
</g>
<linearGradient id="SVGID_1_" gradientUnits="userSpaceOnUse" x1="-49.0072" y1="641.1544" x2="-20.3991" y2="627.8143" gradientTransform="matrix(21.3333 0 0 -21.3333 996.3334 13791.667)">
	<stop  offset="0" style="stop-color:#FFFFFF;stop-opacity:0.2"/>
	<stop  offset="1" style="stop-color:#FFFFFF;stop-opacity:0"/>
</linearGradient>
<path style="fill:url(#SVGID_1_);" d="M508.875,18.208c4.167-4.167,4.167-10.917,0-15.083c-4.167-4.167-10.917-4.167-15.083,0
	l-35.544,35.544C430.753,14.665,394.908,0,355.625,0h-199.25C117.092,0,81.247,14.665,53.753,38.669L18.208,3.125
	c-4.167-4.167-10.917-4.167-15.083,0s-4.167,10.917,0,15.083l35.544,35.544C14.665,81.247,0,117.092,0,156.375v199.25
	c0,39.283,14.665,75.128,38.669,102.622L3.125,493.792c-4.167,4.167-4.167,10.917,0,15.083C5.208,510.958,7.938,512,10.667,512
	s5.458-1.042,7.542-3.125l35.544-35.544C81.247,497.335,117.092,512,156.375,512h199.25c39.283,0,75.128-14.665,102.622-38.669
	l35.544,35.544c2.083,2.083,4.813,3.125,7.542,3.125s5.458-1.042,7.542-3.125c4.167-4.167,4.167-10.917,0-15.083l-35.544-35.544
	C497.335,430.753,512,394.908,512,355.625v-199.25c0-39.283-14.665-75.128-38.669-102.622L508.875,18.208z"/>
<g>
</g>
<g>
</g>
<g>
</g>
<g>
</g>
<g>
</g>
<g>
</g>
<g>
</g>
<g>
</g>
<g>
</g>
<g>
</g>
<g>
</g>
<g>
</g>
<g>
</g>
<g>
</g>
<g>
</g>
</svg>
