<?xml version="1.0" encoding="iso-8859-1"?>
<!-- Generator: Adobe Illustrator 19.0.0, SVG Export Plug-In . SVG Version: 6.00 Build 0)  -->
<svg version="1.1" id="Capa_1" xmlns="http://www.w3.org/2000/svg" xmlns:xlink="http://www.w3.org/1999/xlink" x="0px" y="0px"
	 viewBox="0 0 512 512" style="enable-background:new 0 0 512 512;" xml:space="preserve">
<path style="fill:#303C42;" d="M309.333,21.874V10.667C309.333,4.771,304.563,0,298.667,0C172.871,0,70.174,99.57,64.54,224H32
	c-5.896,0-10.667,4.771-10.667,10.667C21.333,387.594,145.75,512,298.667,512c5.896,0,10.667-4.771,10.667-10.667V351.46
	c67.945-5.211,122.249-59.514,127.46-127.46H480c5.896,0,10.667-4.771,10.667-10.667C490.667,111.069,410.236,27.458,309.333,21.874
	z M298.667,288c-5.896,0-10.667,4.771-10.667,10.667v30.922c-47.868-5.385-85.333-45.637-85.333-94.922c0-52.938,43.063-96,96-96
	c41.167,0,74.667,33.5,74.667,74.667S339.833,288,298.667,288z"/>
<path style="fill:#42A5F5;" d="M288,21.594v96.219C231.836,122.896,187.505,167.866,182.352,224H85.857
	C91.29,114.87,178.849,26.991,288,21.594z"/>
<path style="opacity:0.2;fill:#FFFFFF;enable-background:new    ;" d="M91.818,183.536c25.75-60.905,78.82-107.516,143.932-123.99
	c21.1-5.339,41.583,10.993,41.583,32.758v27.448c3.553-0.663,7.005-1.608,10.667-1.94V21.594
	C192.729,26.305,113.936,93.866,91.818,183.536z"/>
<path style="fill:#FFCA28;" d="M288,490.448C155.313,484.979,48.354,378.021,42.896,245.333h138.917
	c5.083,56.208,49.979,101.104,106.188,106.188V490.448z"/>
<path style="opacity:0.2;fill:#FFFFFF;enable-background:new    ;" d="M75.655,270.305C74.909,262.629,81.264,256,88.975,256h94.772
	c-0.66-3.553-1.604-7.009-1.935-10.667H42.896c4.676,113.652,83.909,208.21,189.904,236.5
	C147.309,446.401,84.962,366.051,75.655,270.305z"/>
<path style="fill:#EEEEEE;" d="M309.333,330.188V308.74c44.396-4.93,79.346-40.361,84.328-84.74h21.32
	C409.828,280.134,365.497,325.104,309.333,330.188z"/>
<path style="fill:#E53935;" d="M394.083,202.667c-4.939-44.396-40.371-79.346-84.75-84.328V43.186
	c85.603,5.329,154.366,73.868,159.667,159.48H394.083z"/>
<path style="opacity:0.2;fill:#FFFFFF;enable-background:new    ;" d="M365.978,56.828c35.126,21.451,62.079,55.003,74.464,95.065
	c6.098,19.725-9.552,39.587-30.198,39.587h-18.402c0.87,3.686,1.815,7.346,2.242,11.186H469
	C464.939,137.078,423.57,81.63,365.978,56.828z"/>
<linearGradient id="SVGID_1_" gradientUnits="userSpaceOnUse" x1="-33.0838" y1="643.5793" x2="-30.4331" y2="640.9286" gradientTransform="matrix(21.3333 0 0 -21.3333 996.3334 13791.667)">
	<stop  offset="0" style="stop-color:#000000;stop-opacity:0.1"/>
	<stop  offset="1" style="stop-color:#000000;stop-opacity:0"/>
</linearGradient>
<path style="fill:url(#SVGID_1_);" d="M338.9,126.719l-29.566-83.533v75.152C319.802,119.514,329.71,122.478,338.9,126.719z"/>
<linearGradient id="SVGID_2_" gradientUnits="userSpaceOnUse" x1="-42.7351" y1="634.5494" x2="-37.4851" y2="637.7994" gradientTransform="matrix(21.3333 0 0 -21.3333 996.3334 13791.667)">
	<stop  offset="0" style="stop-color:#000000;stop-opacity:0.1"/>
	<stop  offset="1" style="stop-color:#000000;stop-opacity:0"/>
</linearGradient>
<path style="fill:url(#SVGID_2_);" d="M195.758,179.931L85.857,224h96.495C183.807,208.145,188.667,193.358,195.758,179.931z"/>
<path style="opacity:0.1;enable-background:new    ;" d="M309.333,308.74v21.448l16.669-24.879
	C320.626,306.917,315.069,308.103,309.333,308.74z"/>
<path style="opacity:0.1;enable-background:new    ;" d="M414.982,224h-21.32c-0.643,5.728-1.824,11.289-3.422,16.672L414.982,224z"
	/>
<linearGradient id="SVGID_3_" gradientUnits="userSpaceOnUse" x1="-44.0544" y1="639.1316" x2="-26.281" y2="630.8444" gradientTransform="matrix(21.3333 0 0 -21.3333 996.3334 13791.667)">
	<stop  offset="0" style="stop-color:#FFFFFF;stop-opacity:0.2"/>
	<stop  offset="1" style="stop-color:#FFFFFF;stop-opacity:0"/>
</linearGradient>
<path style="fill:url(#SVGID_3_);" d="M309.333,21.874V10.667C309.333,4.771,304.563,0,298.667,0C172.871,0,70.174,99.57,64.54,224
	H32c-5.896,0-10.667,4.771-10.667,10.667C21.333,387.594,145.75,512,298.667,512c5.896,0,10.667-4.771,10.667-10.667V351.46
	c67.945-5.211,122.249-59.514,127.46-127.46H480c5.896,0,10.667-4.771,10.667-10.667C490.667,111.069,410.236,27.458,309.333,21.874
	z M298.667,288c-5.896,0-10.667,4.771-10.667,10.667v30.922c-47.868-5.385-85.333-45.637-85.333-94.922c0-52.938,43.063-96,96-96
	c41.167,0,74.667,33.5,74.667,74.667S339.833,288,298.667,288z"/>
<g>
</g>
<g>
</g>
<g>
</g>
<g>
</g>
<g>
</g>
<g>
</g>
<g>
</g>
<g>
</g>
<g>
</g>
<g>
</g>
<g>
</g>
<g>
</g>
<g>
</g>
<g>
</g>
<g>
</g>
</svg>
