<?xml version="1.0" encoding="iso-8859-1"?>
<!-- Generator: Adobe Illustrator 19.0.0, SVG Export Plug-In . SVG Version: 6.00 Build 0)  -->
<svg version="1.1" id="Capa_1" xmlns="http://www.w3.org/2000/svg" xmlns:xlink="http://www.w3.org/1999/xlink" x="0px" y="0px"
	 viewBox="0 0 512 512" style="enable-background:new 0 0 512 512;" xml:space="preserve">
<path style="fill:#303C42;" d="M480,106.667h-10.667V85.333c0-23.531-19.135-42.667-42.667-42.667h-384
	C19.135,42.667,0,61.802,0,85.333v341.333c0,23.531,19.135,42.667,42.667,42.667h384c23.531,0,42.667-19.135,42.667-42.667V320H480
	c17.646,0,32-14.354,32-32V138.667C512,121.021,497.646,106.667,480,106.667z"/>
<path style="fill:#42A5F5;" d="M42.667,64h384C438.427,64,448,73.573,448,85.333v21.333H310.833
	c-10.469,0-20.531,3.833-28.344,10.781L270.617,128H21.333V85.333C21.333,73.573,30.906,64,42.667,64z"/>
<path style="opacity:0.2;fill:#FFFFFF;enable-background:new    ;" d="M32,96c0-11.76,9.573-21.333,21.333-21.333h384
	c3.12,0,6.034,0.749,8.708,1.958C442.693,69.219,435.307,64,426.667,64h-384c-11.76,0-21.333,9.573-21.333,21.333V128H32V96z"/>
<path style="fill:#EEEEEE;" d="M448,426.667c0,11.76-9.573,21.333-21.333,21.333h-384c-11.76,0-21.333-9.573-21.333-21.333V149.333
	h225.283l-24.001,21.333H53.333c-5.896,0-10.667,4.771-10.667,10.667v64c0,5.896,4.771,10.667,10.667,10.667h166.25l21.333,21.333
	H53.333c-5.896,0-10.667,4.771-10.667,10.667v128c0,5.896,4.771,10.667,10.667,10.667H288c5.896,0,10.667-4.771,10.667-10.667
	v-96.259c0.866,0.055,1.714,0.259,2.583,0.259H320v96c0,5.896,4.771,10.667,10.667,10.667H416c5.896,0,10.667-4.771,10.667-10.667
	v-96H448V426.667z"/>
<g>
	<circle style="fill:#303C42;" cx="53.333" cy="96" r="10.667"/>
	<circle style="fill:#303C42;" cx="96" cy="96" r="10.667"/>
</g>
<g>
	<path style="fill:#BDBDBD;" d="M199.62,192c-4.846,6.181-7.62,13.797-7.62,21.76c0,7.648,2.517,14.863,6.983,20.906H64V192H199.62z
		"/>
	<path style="fill:#BDBDBD;" d="M271.083,307.5c1.913,1.915,4.021,3.609,6.25,5.115v92.719H64V298.667h198.25L271.083,307.5z"/>
	<rect x="341.333" y="320" style="fill:#BDBDBD;" width="64" height="85.333"/>
</g>
<path style="fill:#E53935;" d="M490.667,288c0,5.885-4.781,10.667-10.667,10.667H301.25c-5.615,0-11.115-2.281-15.083-6.25
	l-68.719-68.719c-2.656-2.656-4.115-6.188-4.115-9.938c0-4.01,1.719-7.833,4.708-10.5l78.625-69.875
	c3.896-3.469,8.938-5.385,14.167-5.385H480c5.885,0,10.667,4.781,10.667,10.667V288z"/>
<path style="opacity:0.1;enable-background:new    ;" d="M480,277.333H301.25c-5.615,0-11.115-1.711-15.083-4.688l-68.719-51.539
	c-2.641-1.98-4.083-4.612-4.102-7.405c0,0.021-0.013,0.038-0.013,0.059c0,3.75,1.458,7.281,4.115,9.938l68.719,68.719
	c3.969,3.969,9.469,6.25,15.083,6.25H480c5.885,0,10.667-4.781,10.667-10.667v-18.667C490.667,273.747,485.885,277.333,480,277.333z
	"/>
<path style="opacity:0.2;fill:#FFFFFF;enable-background:new    ;" d="M480,128H310.833c-5.229,0-10.271,1.917-14.167,5.385
	l-78.625,69.875c-2.879,2.568-4.496,6.225-4.617,10.073c0.121-2.885,1.738-5.629,4.617-7.555l78.625-52.406
	c3.896-2.602,8.938-4.039,14.167-4.039H480c5.885,0,10.667,3.586,10.667,8v-18.667C490.667,132.781,485.885,128,480,128z"/>
<linearGradient id="SVGID_1_" gradientUnits="userSpaceOnUse" x1="-47.9725" y1="640.2055" x2="-23.4338" y2="628.7632" gradientTransform="matrix(21.3333 0 0 -21.3333 996.3334 13791.667)">
	<stop  offset="0" style="stop-color:#FFFFFF;stop-opacity:0.2"/>
	<stop  offset="1" style="stop-color:#FFFFFF;stop-opacity:0"/>
</linearGradient>
<path style="fill:url(#SVGID_1_);" d="M480,106.667h-10.667V85.333c0-23.531-19.135-42.667-42.667-42.667h-384
	C19.135,42.667,0,61.802,0,85.333v341.333c0,23.531,19.135,42.667,42.667,42.667h384c23.531,0,42.667-19.135,42.667-42.667V320H480
	c17.646,0,32-14.354,32-32V138.667C512,121.021,497.646,106.667,480,106.667z"/>
<g>
</g>
<g>
</g>
<g>
</g>
<g>
</g>
<g>
</g>
<g>
</g>
<g>
</g>
<g>
</g>
<g>
</g>
<g>
</g>
<g>
</g>
<g>
</g>
<g>
</g>
<g>
</g>
<g>
</g>
</svg>
