<?xml version="1.0" encoding="iso-8859-1"?>
<!-- Generator: Adobe Illustrator 19.0.0, SVG Export Plug-In . SVG Version: 6.00 Build 0)  -->
<svg version="1.1" id="Capa_1" xmlns="http://www.w3.org/2000/svg" xmlns:xlink="http://www.w3.org/1999/xlink" x="0px" y="0px"
	 viewBox="0 0 512 512" style="enable-background:new 0 0 512 512;" xml:space="preserve">
<path style="fill:#303C42;" d="M511.104,251.709c-1.708-3.875-5.542-6.375-9.771-6.375H394.667V128h-0.039
	c0-0.076,0.04-0.142,0.039-0.217c-0.063-2.906-1.313-5.667-3.458-7.635l-128-117.329c-3.104-2.865-7.646-3.635-11.5-1.896
	c-3.875,1.698-6.375,5.531-6.375,9.76v106.651H128v0.046c-0.078-0.004-0.151-0.043-0.229-0.046
	c-2.917,0.063-5.667,1.313-7.625,3.458l-117.333,128c-2.875,3.115-3.604,7.635-1.917,11.5c1.708,3.875,5.542,6.375,9.771,6.375
	h106.667V384h0.043c0,0.081-0.044,0.152-0.043,0.233c0.063,2.906,1.313,5.667,3.458,7.635l128,117.329
	c2,1.833,4.583,2.802,7.208,2.802c1.458,0,2.917-0.292,4.292-0.906c3.875-1.698,6.375-5.531,6.375-9.76V394.667H384
	c0.083,0,0.146,0,0.229,0c2.917-0.063,5.667-1.313,7.625-3.458l117.333-128C512.063,260.094,512.792,255.573,511.104,251.709z"/>
<path style="fill:#FFFFFF;" d="M272.563,267.792c-2.087,1.043-3.503,2.854-4.521,4.896l-0.25-0.125l-11.793,23.586l-11.79-23.579
	c-1.051-2.086-2.862-3.501-4.898-4.523l0.128-0.254L215.854,256l23.583-11.792c2.087-1.043,3.503-2.854,4.521-4.896l0.25,0.125
	l11.789-23.579l11.794,23.587c1.049,2.085,2.858,3.5,4.892,4.522l-0.121,0.241L296.146,256L272.563,267.792z"/>
<polygon style="fill:#E53935;" points="266.667,34.931 368.583,128.345 280.25,216.666 266.667,189.489 "/>
<polygon style="opacity:0.2;fill:#FFFFFF;enable-background:new    ;" points="280,193.304 280,60.444 362.08,134.848 
	368.583,128.345 266.667,34.931 266.667,189.489 280.25,216.666 287.927,208.99 "/>
<polygon style="fill:#F9A825;" points="245.334,189.479 231.744,216.66 153.75,138.667 245.334,138.667 "/>
<polygon style="fill:#FDD835;" points="128.333,143.417 216.667,231.74 189.479,245.334 34.917,245.334 "/>
<polygon style="opacity:0.2;fill:#FFFFFF;enable-background:new    ;" points="128.333,165.707 201.805,239.171 216.667,231.74 
	128.333,143.417 34.917,245.334 55.348,245.334 "/>
<polygon style="fill:#689F38;" points="189.479,266.667 216.664,280.259 138.667,358.256 138.667,266.667 "/>
<polygon style="fill:#9CCC65;" points="245.334,477.085 143.417,383.671 231.75,295.351 245.334,322.526 "/>
<polygon style="opacity:0.1;enable-background:new    ;" points="236.444,304.741 236.444,448.401 154.133,372.957 143.417,383.671 
	245.334,477.085 245.334,322.526 "/>
<polygon style="fill:#2979FF;" points="266.667,322.521 280.257,295.34 358.25,373.334 266.667,373.334 "/>
<polygon style="fill:#448AFF;" points="383.667,368.584 295.333,280.261 322.521,266.667 477.083,266.667 "/>
<polygon style="opacity:0.1;enable-background:new    ;" points="383.667,350.805 307.186,274.334 295.333,280.261 383.667,368.584 
	477.083,266.667 460.788,266.667 "/>
<polygon style="fill:#C62828;" points="295.347,231.746 373.333,153.761 373.333,245.334 322.521,245.334 "/>
<linearGradient id="SVGID_1_" gradientUnits="userSpaceOnUse" x1="-44.6022" y1="639.1005" x2="-24.8039" y2="629.8683" gradientTransform="matrix(21.3333 0 0 -21.3333 996.33 13791.6709)">
	<stop  offset="0" style="stop-color:#FFFFFF;stop-opacity:0.2"/>
	<stop  offset="1" style="stop-color:#FFFFFF;stop-opacity:0"/>
</linearGradient>
<path style="fill:url(#SVGID_1_);" d="M511.104,251.709c-1.708-3.875-5.542-6.375-9.771-6.375H394.667V128h-0.039
	c0-0.076,0.04-0.142,0.039-0.217c-0.063-2.906-1.313-5.667-3.458-7.635l-128-117.329c-3.104-2.865-7.646-3.635-11.5-1.896
	c-3.875,1.698-6.375,5.531-6.375,9.76v106.651H128v0.046c-0.078-0.004-0.151-0.043-0.229-0.046
	c-2.917,0.063-5.667,1.313-7.625,3.458l-117.333,128c-2.875,3.115-3.604,7.635-1.917,11.5c1.708,3.875,5.542,6.375,9.771,6.375
	h106.667V384h0.043c0,0.081-0.044,0.152-0.043,0.233c0.063,2.906,1.313,5.667,3.458,7.635l128,117.329
	c2,1.833,4.583,2.802,7.208,2.802c1.458,0,2.917-0.292,4.292-0.906c3.875-1.698,6.375-5.531,6.375-9.76V394.667H384
	c0.083,0,0.146,0,0.229,0c2.917-0.063,5.667-1.313,7.625-3.458l117.333-128C512.063,260.094,512.792,255.573,511.104,251.709z"/>
<g>
</g>
<g>
</g>
<g>
</g>
<g>
</g>
<g>
</g>
<g>
</g>
<g>
</g>
<g>
</g>
<g>
</g>
<g>
</g>
<g>
</g>
<g>
</g>
<g>
</g>
<g>
</g>
<g>
</g>
</svg>
