<?xml version="1.0" encoding="iso-8859-1"?>
<!-- Generator: Adobe Illustrator 19.0.0, SVG Export Plug-In . SVG Version: 6.00 Build 0)  -->
<svg version="1.1" id="Capa_1" xmlns="http://www.w3.org/2000/svg" xmlns:xlink="http://www.w3.org/1999/xlink" x="0px" y="0px"
	 viewBox="0 0 512 512" style="enable-background:new 0 0 512 512;" xml:space="preserve">
<path style="fill:#303C42;" d="M474.5,80.156c-28.345-28.345-68.9-41.535-108.971-35.632c-10.995-2.182-22.32-1.71-33.51,1.13
	c-4.77-1.938-9.711-2.988-14.789-2.988c-19.333,0-36.833,14.354-49.104,40l-15.148,28.341L218.5,80.156
	c-24.167-24.177-56.313-37.49-90.5-37.49s-66.333,13.313-90.5,37.49C13.312,104.333,0,136.479,0,170.667S13.312,237,37.417,261.094
	L230.25,458.5c6.729,6.885,16.125,10.833,25.75,10.833s19.021-3.948,25.75-10.833L474.5,261.177
	C498.688,237,512,204.854,512,170.667S498.688,104.333,474.5,80.156z"/>
<path style="fill:#C2185B;" d="M366.521,83.094c-3.37-7.04-7.13-13.146-11.169-18.426c17.807,1.449,34.819,11.527,48.003,29.374
	c15.042,20.333,23.313,47.552,23.313,76.635s-8.271,56.292-23.375,76.719l-89.818,124.383l53.047-113.539
	C377.792,234.677,384,203.573,384,170.677C384,137.771,377.792,106.667,366.521,83.094z"/>
<path style="fill:#FFB300;" d="M266.667,130.667l20.5-38.365C295.771,74.313,306.729,64,317.229,64
	c10.479,0,21.438,10.313,30.042,28.302c9.938,20.76,15.396,48.594,15.396,78.375s-5.458,57.604-15.438,78.448l-80.563,172.438
	V130.667z"/>
<path style="opacity:0.2;fill:#FFFFFF;enable-background:new    ;" d="M317.229,90.438c10.479,0,21.438,10.313,30.042,28.302
	c8.436,17.624,13.406,40.464,14.786,65.147c0.245-4.387,0.609-8.716,0.609-13.21c0-29.781-5.458-57.615-15.396-78.375
	C338.667,74.313,327.708,64,317.229,64c-10.5,0-21.458,10.313-30.063,28.302l-20.5,38.365v26.438l20.5-38.365
	C295.771,100.75,306.729,90.438,317.229,90.438z"/>
<path style="fill:#E64A19;" d="M52.583,246.094c-20.146-20.146-31.25-46.938-31.25-75.427s11.104-55.281,31.25-75.427
	S99.5,64,128,64s55.271,11.094,75.854,31.646l41.479,37.115v310.652L52.583,246.094z"/>
<path style="opacity:0.2;fill:#FFFFFF;enable-background:new    ;" d="M53.333,207.254c0-28.49,11.104-55.281,31.25-75.427
	s46.917-31.24,75.417-31.24s55.271,11.094,75.854,31.646l9.479,8.482v-7.954l-41.479-37.115C183.271,75.094,156.5,64,128,64
	S72.729,75.094,52.583,95.24s-31.25,46.938-31.25,75.427s11.104,55.281,31.25,75.427l17.139,17.547
	C59.201,246.859,53.333,227.547,53.333,207.254z"/>
<path style="fill:#880E4F;" d="M459.333,246.177l-110.63,113.254l71.818-99.452C438.229,236.01,448,204.292,448,170.677
	s-9.771-65.344-27.479-89.323c-3.973-5.376-8.376-10.016-12.951-14.31c19.44,4.324,37.536,13.892,51.846,28.195
	c20.146,20.146,31.25,46.938,31.25,75.427S479.563,225.948,459.333,246.177z"/>
<linearGradient id="SVGID_1_" gradientUnits="userSpaceOnUse" x1="-33.0949" y1="637.9124" x2="-28.1244" y2="632.9419" gradientTransform="matrix(21.3333 0 0 -21.3333 996.3334 13791.667)">
	<stop  offset="0" style="stop-color:#000000;stop-opacity:0.1"/>
	<stop  offset="1" style="stop-color:#000000;stop-opacity:0"/>
</linearGradient>
<path style="fill:url(#SVGID_1_);" d="M426.667,170.677c0-6.296-0.563-12.447-1.323-18.516L373.18,99.997
	c6.969,20.715,10.82,45.091,10.82,70.68c0,32.896-6.208,64-17.479,87.563l-53.047,113.539l89.818-124.383
	C418.396,226.969,426.667,199.76,426.667,170.677z"/>
<linearGradient id="SVGID_2_" gradientUnits="userSpaceOnUse" x1="-30.1477" y1="637.3033" x2="-26.4191" y2="633.5746" gradientTransform="matrix(21.3333 0 0 -21.3333 996.3334 13791.667)">
	<stop  offset="0" style="stop-color:#000000;stop-opacity:0.1"/>
	<stop  offset="1" style="stop-color:#000000;stop-opacity:0"/>
</linearGradient>
<path style="fill:url(#SVGID_2_);" d="M490.667,170.667c0-2.021-0.47-3.947-0.581-5.948l-52.879-52.879l-0.34,0.402
	c7.01,17.928,11.133,37.694,11.133,58.435c0,33.615-9.771,65.333-27.479,89.302l-71.818,99.452l110.63-113.254
	C479.563,225.948,490.667,199.156,490.667,170.667z"/>
<linearGradient id="SVGID_3_" gradientUnits="userSpaceOnUse" x1="-45.9849" y1="641.3623" x2="-25.2463" y2="631.6926" gradientTransform="matrix(21.3333 0 0 -21.3333 996.3334 13791.667)">
	<stop  offset="0" style="stop-color:#FFFFFF;stop-opacity:0.2"/>
	<stop  offset="1" style="stop-color:#FFFFFF;stop-opacity:0"/>
</linearGradient>
<path style="fill:url(#SVGID_3_);" d="M474.5,80.156c-28.345-28.345-68.9-41.535-108.971-35.632
	c-10.995-2.182-22.32-1.71-33.51,1.13c-4.77-1.938-9.711-2.988-14.789-2.988c-19.333,0-36.833,14.354-49.104,40l-15.148,28.341
	L218.5,80.156c-24.167-24.177-56.313-37.49-90.5-37.49s-66.333,13.313-90.5,37.49C13.312,104.333,0,136.479,0,170.667
	S13.312,237,37.417,261.094L230.25,458.5c6.729,6.885,16.125,10.833,25.75,10.833s19.021-3.948,25.75-10.833L474.5,261.177
	C498.688,237,512,204.854,512,170.667S498.688,104.333,474.5,80.156z"/>
<g>
</g>
<g>
</g>
<g>
</g>
<g>
</g>
<g>
</g>
<g>
</g>
<g>
</g>
<g>
</g>
<g>
</g>
<g>
</g>
<g>
</g>
<g>
</g>
<g>
</g>
<g>
</g>
<g>
</g>
</svg>
