<?xml version="1.0" encoding="iso-8859-1"?>
<!-- Generator: Adobe Illustrator 19.0.0, SVG Export Plug-In . SVG Version: 6.00 Build 0)  -->
<svg version="1.1" id="Capa_1" xmlns="http://www.w3.org/2000/svg" xmlns:xlink="http://www.w3.org/1999/xlink" x="0px" y="0px"
	 viewBox="0 0 512 512" style="enable-background:new 0 0 512 512;" xml:space="preserve">
<path style="fill:#303C42;" d="M469.333,0H256C114.833,0,0,114.844,0,256s114.833,256,256,256s256-114.844,256-256V42.667
	C512,19.135,492.854,0,469.333,0z"/>
<path style="fill:#448AFF;" d="M490.667,256c0,129.396-105.271,234.667-234.667,234.667S21.333,385.396,21.333,256
	S126.604,21.333,256,21.333h213.333c11.771,0,21.333,9.573,21.333,21.333V256z"/>
<path style="opacity:0.1;enable-background:new    ;" d="M469.333,21.333H464v181.333c0,129.396-105.271,234.667-234.667,234.667
	c-80.798,0-152.181-41.052-194.41-103.387c32.24,91.138,119.035,156.72,221.077,156.72c129.396,0,234.667-105.271,234.667-234.667
	V42.667C490.667,30.906,481.104,21.333,469.333,21.333z"/>
<path style="fill:#303C42;" d="M378.375,171.927c-3.479-1.854-7.667-1.646-10.958,0.531L320,204.073v-1.406
	c0-17.646-14.354-32-32-32H160c-31.104,0-32,76.604-32,85.333c0,8.729,0.896,85.333,32,85.333h128c17.646,0,32-14.354,32-32v-1.406
	l47.417,31.615c1.792,1.188,3.854,1.792,5.917,1.792c1.729,0,3.458-0.417,5.042-1.26c3.458-1.854,5.625-5.469,5.625-9.406V181.333
	C384,177.396,381.833,173.781,378.375,171.927z"/>
<path style="fill:#FFFFFF;" d="M362.667,310.74l-47.417-31.615c-3.313-2.177-7.479-2.375-10.958-0.531
	c-3.458,1.854-5.625,5.469-5.625,9.406v21.333c0,5.885-4.792,10.667-10.667,10.667H161.354c-4.375-4.479-12.021-26.906-12.021-64
	c0-38.688,8.333-61.417,10.667-64h128c5.875,0,10.667,4.781,10.667,10.667V224c0,3.938,2.167,7.552,5.625,9.406
	c3.479,1.865,7.646,1.635,10.958-0.531l47.417-31.615V310.74z"/>
<path style="opacity:0.1;enable-background:new    ;" d="M288,320c5.875,0,10.667-4.781,10.667-10.667V288
	c0-3.938,2.167-7.552,5.625-9.406c3.479-1.844,7.646-1.646,10.958,0.531l47.417,31.615V256H149.333c0,37.094,7.646,59.521,12.021,64
	H288z"/>
<linearGradient id="SVGID_1_" gradientUnits="userSpaceOnUse" x1="-44.8832" y1="641.0462" x2="-23.1328" y2="630.9041" gradientTransform="matrix(21.3333 0 0 -21.3333 996.3334 13791.667)">
	<stop  offset="0" style="stop-color:#FFFFFF;stop-opacity:0.2"/>
	<stop  offset="1" style="stop-color:#FFFFFF;stop-opacity:0"/>
</linearGradient>
<path style="fill:url(#SVGID_1_);" d="M469.333,0H256C114.833,0,0,114.844,0,256s114.833,256,256,256s256-114.844,256-256V42.667
	C512,19.135,492.854,0,469.333,0z"/>
<g>
</g>
<g>
</g>
<g>
</g>
<g>
</g>
<g>
</g>
<g>
</g>
<g>
</g>
<g>
</g>
<g>
</g>
<g>
</g>
<g>
</g>
<g>
</g>
<g>
</g>
<g>
</g>
<g>
</g>
</svg>
