<?xml version="1.0" encoding="iso-8859-1"?>
<!-- Generator: Adobe Illustrator 19.0.0, SVG Export Plug-In . SVG Version: 6.00 Build 0)  -->
<svg version="1.1" id="Capa_1" xmlns="http://www.w3.org/2000/svg" xmlns:xlink="http://www.w3.org/1999/xlink" x="0px" y="0px"
	 viewBox="0 0 512 512" style="enable-background:new 0 0 512 512;" xml:space="preserve">
<path style="fill:#303C42;" d="M469.333,64H42.667C19.135,64,0,83.135,0,106.667v298.667C0,428.865,19.135,448,42.667,448h426.667
	C492.865,448,512,428.865,512,405.333V106.667C512,83.135,492.865,64,469.333,64z"/>
<path style="fill:#42A5F5;" d="M21.333,320.54c56.193,5.095,101.031,49.934,106.126,106.126h-21.871
	c-4.986-44.32-39.935-79.27-84.255-84.255V320.54z"/>
<path style="opacity:0.1;enable-background:new    ;" d="M21.333,320.54c56.193,5.095,101.031,49.934,106.126,106.126h-21.871
	c-4.986-44.32-39.935-79.27-84.255-84.255V320.54z"/>
<path style="fill:#FFFFFF;" d="M21.333,299.207V256.54c91.466,5.361,164.766,78.66,170.126,170.126h-42.667
	C143.582,358.721,89.279,304.418,21.333,299.207z"/>
<path style="fill:#42A5F5;" d="M21.333,235.207v-21.333c114.983,5.454,207.339,97.81,212.793,212.793h-21.333
	C207.379,323.441,124.559,240.621,21.333,235.207z"/>
<g>
	<path style="fill:#FFFFFF;" d="M21.333,192.54v-42.667c150.271,5.544,271.249,126.522,276.793,276.793H255.46
		C249.97,299.913,148.087,198.03,21.333,192.54z"/>
	<path style="fill:#FFFFFF;" d="M21.333,405.333v-41.589c32.574,4.723,58.199,30.348,62.922,62.922H42.667
		C30.906,426.667,21.333,417.094,21.333,405.333z"/>
</g>
<path style="fill:#42A5F5;" d="M490.667,405.333c0,11.76-9.573,21.333-21.333,21.333H319.46
	c-5.568-162.03-136.096-292.559-298.126-298.126v-21.874c0-11.76,9.573-21.333,21.333-21.333h426.667
	c11.76,0,21.333,9.573,21.333,21.333V405.333z"/>
<path style="opacity:0.1;enable-background:new    ;" d="M212.793,426.667h21.333c-3.333-70.272-39.223-131.969-92.801-170.667
	h-41.186C163.949,287.589,208.858,351.656,212.793,426.667z"/>
<path style="opacity:0.1;enable-background:new    ;" d="M469.333,426.667c11.76,0,21.333-9.573,21.333-21.333V256h-230.26
	c35.146,48.288,56.865,106.958,59.053,170.667H469.333z"/>
<linearGradient id="SVGID_1_" gradientUnits="userSpaceOnUse" x1="-47.4108" y1="640.4102" x2="-21.9955" y2="628.5585" gradientTransform="matrix(21.3333 0 0 -21.3333 996.3334 13791.667)">
	<stop  offset="0" style="stop-color:#FFFFFF;stop-opacity:0.2"/>
	<stop  offset="1" style="stop-color:#FFFFFF;stop-opacity:0"/>
</linearGradient>
<path style="fill:url(#SVGID_1_);" d="M469.333,64H42.667C19.135,64,0,83.135,0,106.667v298.667C0,428.865,19.135,448,42.667,448
	h426.667C492.865,448,512,428.865,512,405.333V106.667C512,83.135,492.865,64,469.333,64z"/>
<g>
</g>
<g>
</g>
<g>
</g>
<g>
</g>
<g>
</g>
<g>
</g>
<g>
</g>
<g>
</g>
<g>
</g>
<g>
</g>
<g>
</g>
<g>
</g>
<g>
</g>
<g>
</g>
<g>
</g>
</svg>
