<?xml version="1.0" encoding="iso-8859-1"?>
<!-- Generator: Adobe Illustrator 19.0.0, SVG Export Plug-In . SVG Version: 6.00 Build 0)  -->
<svg version="1.1" id="Capa_1" xmlns="http://www.w3.org/2000/svg" xmlns:xlink="http://www.w3.org/1999/xlink" x="0px" y="0px"
	 viewBox="0 0 512 512" style="enable-background:new 0 0 512 512;" xml:space="preserve">
<path style="fill:#303C42;" d="M490.771,298.667l20.833-156.177c0.271-2.094,0.396-4.208,0.396-6.323
	c0-17.007-8.471-31.999-21.333-41.232V42.667C490.667,19.135,471.521,0,448,0H64C40.479,0,21.333,19.135,21.333,42.667v52.268
	C8.471,104.168,0,119.16,0,136.167c0,2.115,0.125,4.229,0.396,6.385l20.833,156.115L0.396,454.844
	C0.125,456.938,0,459.052,0,461.167C0,489.198,22.813,512,50.833,512h410.333C489.188,512,512,489.198,512,461.167
	c0-2.115-0.125-4.229-0.396-6.385L490.771,298.667z"/>
<path style="fill:#FAFAFA;" d="M42.667,42.667c0-11.76,9.563-21.333,21.333-21.333h384c11.771,0,21.333,9.573,21.333,21.333V86.16
	c-2.674-0.438-5.37-0.827-8.167-0.827H50.833c-2.797,0-5.492,0.389-8.167,0.827V42.667z"/>
<path style="fill:#03A9F4;" d="M490.438,457.531c0.146,1.198,0.229,2.417,0.229,3.635c0,16.271-13.229,29.5-29.5,29.5H50.833
	c-16.271,0-29.5-13.229-29.5-29.5c0-1.219,0.083-2.438,0.208-3.573l21.042-157.521c0.104-0.927,0.104-1.885,0-2.813L21.563,139.802
	c-0.146-1.198-0.229-2.417-0.229-3.635c0-16.271,13.229-29.5,29.5-29.5h410.333c16.271,0,29.5,13.229,29.5,29.5
	c0,1.219-0.083,2.438-0.208,3.573L469.417,297.26c-0.104,0.927-0.104,1.885,0,2.813L490.438,457.531z"/>
<path style="opacity:0.1;enable-background:new    ;" d="M461.167,106.667H50.833c-16.271,0-29.5,13.229-29.5,29.5
	c0,1.219,0.083,2.438,0.229,3.635l21.208,158.865l426.458-0.001l21.229-158.926c0.125-1.135,0.208-2.354,0.208-3.573
	C490.667,119.896,477.438,106.667,461.167,106.667z"/>
<g>
	<path style="fill:#FFFFFF;" d="M256,245.333c0-35.292-28.708-64-64-64s-64,28.708-64,64c0,5.896,4.771,10.667,10.667,10.667
		s10.667-4.771,10.667-10.667c0-23.531,19.146-42.667,42.667-42.667s42.667,19.135,42.667,42.667S215.521,288,192,288
		c-5.896,0-10.667,4.771-10.667,10.667c0,5.896,4.771,10.667,10.667,10.667c23.521,0,42.667,19.135,42.667,42.667
		S215.521,394.667,192,394.667S149.333,375.531,149.333,352c0-5.896-4.771-10.667-10.667-10.667S128,346.104,128,352
		c0,35.292,28.708,64,64,64s64-28.708,64-64c0-22.264-11.454-41.865-28.751-53.333C244.546,287.198,256,267.598,256,245.333z"/>
	<path style="fill:#FFFFFF;" d="M378.375,182.594c-3.479-1.854-7.667-1.646-10.958,0.531l-64,42.667
		c-4.896,3.271-6.229,9.885-2.958,14.792c3.271,4.896,9.917,6.188,14.792,2.958l47.417-31.615v193.406
		c0,5.896,4.771,10.667,10.667,10.667S384,411.229,384,405.333V192C384,188.063,381.833,184.448,378.375,182.594z"/>
</g>
<g>
	<circle style="fill:#E0E0E0;" cx="138.667" cy="53.333" r="10.667"/>
	<circle style="fill:#E0E0E0;" cx="373.333" cy="53.333" r="10.667"/>
</g>
<linearGradient id="SVGID_1_" gradientUnits="userSpaceOnUse" x1="-47.8012" y1="640.4267" x2="-21.023" y2="627.9436" gradientTransform="matrix(21.3333 0 0 -21.3333 996.3334 13791.667)">
	<stop  offset="0" style="stop-color:#FFFFFF;stop-opacity:0.2"/>
	<stop  offset="1" style="stop-color:#FFFFFF;stop-opacity:0"/>
</linearGradient>
<path style="fill:url(#SVGID_1_);" d="M490.771,298.667l20.833-156.177c0.271-2.094,0.396-4.208,0.396-6.323
	c0-17.007-8.471-31.999-21.333-41.232V42.667C490.667,19.135,471.521,0,448,0H64C40.479,0,21.333,19.135,21.333,42.667v52.268
	C8.471,104.168,0,119.16,0,136.167c0,2.115,0.125,4.229,0.396,6.385l20.833,156.115L0.396,454.844
	C0.125,456.938,0,459.052,0,461.167C0,489.198,22.813,512,50.833,512h410.333C489.188,512,512,489.198,512,461.167
	c0-2.115-0.125-4.229-0.396-6.385L490.771,298.667z"/>
<g>
</g>
<g>
</g>
<g>
</g>
<g>
</g>
<g>
</g>
<g>
</g>
<g>
</g>
<g>
</g>
<g>
</g>
<g>
</g>
<g>
</g>
<g>
</g>
<g>
</g>
<g>
</g>
<g>
</g>
</svg>
