<?xml version="1.0" encoding="iso-8859-1"?>
<!-- Generator: Adobe Illustrator 19.0.0, SVG Export Plug-In . SVG Version: 6.00 Build 0)  -->
<svg version="1.1" id="Capa_1" xmlns="http://www.w3.org/2000/svg" xmlns:xlink="http://www.w3.org/1999/xlink" x="0px" y="0px"
	 viewBox="0 0 512 512" style="enable-background:new 0 0 512 512;" xml:space="preserve">
<path style="fill:#303C42;" d="M256,0C114.833,0,0,114.844,0,256s114.833,256,256,256h213.333C492.854,512,512,492.865,512,469.333
	V256C512,114.844,397.167,0,256,0z"/>
<path style="fill:#FFB300;" d="M490.667,469.333c0,11.76-9.563,21.333-21.333,21.333H256C126.604,490.667,21.333,385.396,21.333,256
	S126.604,21.333,256,21.333S490.667,126.604,490.667,256V469.333z"/>
<path style="opacity:0.1;enable-background:new    ;" d="M398.475,69.966c37.581,43.439,60.191,100.5,60.191,161.491v149.6
	c0,51.768-25.962,77.609-57.99,77.609H231.466c-60.995,0-118.063-22.615-161.505-60.201
	c42.931,55.927,110.247,92.201,186.039,92.201h213.333c11.771,0,21.333-9.573,21.333-21.333V256
	C490.667,180.212,454.397,112.897,398.475,69.966z"/>
<path style="fill:#303C42;" d="M256,128c-70.583,0-128,57.417-128,128s57.417,128,128,128c30.604,0,59.583-10.677,82.646-30.25
	l27.146,27.125c2.042,2.042,4.771,3.125,7.542,3.125c1.375,0,2.771-0.26,4.083-0.813c3.979-1.646,6.583-5.542,6.583-9.854V256
	C384,185.417,326.583,128,256,128z"/>
<path style="fill:#FFFFFF;" d="M362.667,347.583L346.5,331.427c-4.167-4.167-10.917-4.167-15.083,0
	c-20.146,20.146-46.938,31.24-75.417,31.24c-58.813,0-106.667-47.854-106.667-106.667S197.188,149.333,256,149.333
	S362.667,197.188,362.667,256V347.583z"/>
<path style="opacity:0.1;enable-background:new    ;" d="M256,362.667c28.479,0,55.271-11.094,75.417-31.24
	c4.167-4.167,10.917-4.167,15.083,0l16.167,16.156V256H149.333C149.333,314.813,197.188,362.667,256,362.667z"/>
<linearGradient id="SVGID_1_" gradientUnits="userSpaceOnUse" x1="-45.5784" y1="639.5553" x2="-20.8464" y2="628.0233" gradientTransform="matrix(21.3333 0 0 -21.3333 996.3334 13791.667)">
	<stop  offset="0" style="stop-color:#FFFFFF;stop-opacity:0.2"/>
	<stop  offset="1" style="stop-color:#FFFFFF;stop-opacity:0"/>
</linearGradient>
<path style="fill:url(#SVGID_1_);" d="M256,0C114.833,0,0,114.844,0,256s114.833,256,256,256h213.333
	C492.854,512,512,492.865,512,469.333V256C512,114.844,397.167,0,256,0z"/>
<g>
</g>
<g>
</g>
<g>
</g>
<g>
</g>
<g>
</g>
<g>
</g>
<g>
</g>
<g>
</g>
<g>
</g>
<g>
</g>
<g>
</g>
<g>
</g>
<g>
</g>
<g>
</g>
<g>
</g>
</svg>
