<?xml version="1.0" encoding="iso-8859-1"?>
<!-- Generator: Adobe Illustrator 19.0.0, SVG Export Plug-In . SVG Version: 6.00 Build 0)  -->
<svg version="1.1" id="Capa_1" xmlns="http://www.w3.org/2000/svg" xmlns:xlink="http://www.w3.org/1999/xlink" x="0px" y="0px"
	 viewBox="0 0 512 512" style="enable-background:new 0 0 512 512;" xml:space="preserve">
<path style="fill:#303C42;" d="M426.667,42.667h-384C19.135,42.667,0,61.802,0,85.333v384C0,492.865,19.135,512,42.667,512h384
	c23.531,0,42.667-19.135,42.667-42.667v-384C469.333,61.802,450.198,42.667,426.667,42.667z"/>
<g>
	<path id="SVGCleanerId_0" style="fill:#5C6671;" d="M42.667,64h384C438.427,64,448,73.573,448,85.333V128H21.333V85.333
		C21.333,73.573,30.906,64,42.667,64z"/>
</g>
<g>
	
		<linearGradient id="SVGCleanerId_0_3_" gradientUnits="userSpaceOnUse" x1="-44.263" y1="645.7943" x2="-26.9841" y2="637.7372" gradientTransform="matrix(21.3333 0 0 -21.3333 996.3334 13791.667)">
		<stop  offset="0" style="stop-color:#FFFFFF;stop-opacity:0.2"/>
		<stop  offset="1" style="stop-color:#FFFFFF;stop-opacity:0"/>
	</linearGradient>
	<path id="SVGCleanerId_0_1_" style="fill:url(#SVGCleanerId_0_3_);" d="M42.667,64h384C438.427,64,448,73.573,448,85.333V128
		H21.333V85.333C21.333,73.573,30.906,64,42.667,64z"/>
</g>
<g>
	
		<linearGradient id="SVGCleanerId_0_4_" gradientUnits="userSpaceOnUse" x1="-41.3061" y1="647.2945" x2="-30.1002" y2="636.0877" gradientTransform="matrix(21.3333 0 0 -21.3333 996.3334 13791.667)">
		<stop  offset="0" style="stop-color:#FFFFFF;stop-opacity:0.2"/>
		<stop  offset="1" style="stop-color:#FFFFFF;stop-opacity:0"/>
	</linearGradient>
	<path id="SVGCleanerId_0_2_" style="fill:url(#SVGCleanerId_0_4_);" d="M42.667,64h384C438.427,64,448,73.573,448,85.333V128
		H21.333V85.333C21.333,73.573,30.906,64,42.667,64z"/>
</g>
<path style="fill:#FFFFFF;" d="M426.667,490.667h-384c-11.76,0-21.333-9.573-21.333-21.333v-320H448v320
	C448,481.094,438.427,490.667,426.667,490.667z"/>
<g>
	<circle style="fill:#303C42;" cx="53.333" cy="96" r="10.667"/>
	<circle style="fill:#303C42;" cx="96" cy="96" r="10.667"/>
	<circle style="fill:#303C42;" cx="138.667" cy="96" r="10.667"/>
	<path style="fill:#303C42;" d="M394.667,234.667c-3.031,0-5.917-1.292-7.938-3.542l-89.313-99.531
		c-12.969-14.583-20.083-33.844-20.083-54.26C277.333,34.688,308.698,0,347.26,0c19.188,0,35.417,13.5,47.406,28.198
		C406.656,13.5,422.885,0,442.073,0C480.635,0,512,34.688,512,77.333c0,20.417-7.115,39.677-20.052,54.219l-89.344,99.573
		C400.583,233.375,397.698,234.667,394.667,234.667z"/>
</g>
<path style="fill:#F04937;" d="M347.26,21.333c-26.792,0-48.594,25.125-48.594,56c0,15.188,5.208,29.406,14.656,40.052
	l81.344,90.646l81.375-90.688c9.417-10.604,14.625-24.823,14.625-40.01c0-30.875-21.802-56-48.594-56
	c-11.521,0-25.563,11.219-38.51,30.771c-3.958,5.979-13.833,5.979-17.792,0C372.823,32.552,358.781,21.333,347.26,21.333z"/>
<path style="opacity:0.1;enable-background:new    ;" d="M476.042,85.344l-66.516,74.128c-7.934,8.841-21.785,8.841-29.72,0
	l-66.483-74.086c-6-6.76-10.065-15.052-12.397-24.027c-1.328,5.096-2.259,10.388-2.259,15.975c0,15.188,5.208,29.406,14.656,40.052
	l81.344,90.646l81.375-90.688c9.417-10.604,14.625-24.823,14.625-40.01c0-5.587-0.931-10.878-2.259-15.974
	C486.078,70.329,482.021,78.611,476.042,85.344z"/>
<linearGradient id="SVGID_1_" gradientUnits="userSpaceOnUse" x1="-47.8883" y1="640.386" x2="-22.5837" y2="628.5862" gradientTransform="matrix(21.3333 0 0 -21.3333 996.3334 13791.667)">
	<stop  offset="0" style="stop-color:#FFFFFF;stop-opacity:0.2"/>
	<stop  offset="1" style="stop-color:#FFFFFF;stop-opacity:0"/>
</linearGradient>
<path style="fill:url(#SVGID_1_);" d="M512,77.333C512,34.688,480.635,0,442.073,0c-19.188,0-35.417,13.5-47.406,28.198
	C382.677,13.5,366.448,0,347.26,0c-27.237,0-50.626,17.477-62.167,42.667H42.667C19.135,42.667,0,61.802,0,85.333v384
	C0,492.865,19.135,512,42.667,512h384c23.531,0,42.667-19.135,42.667-42.667V156.757l22.615-25.204
	C504.885,117.01,512,97.75,512,77.333z"/>
<g>
</g>
<g>
</g>
<g>
</g>
<g>
</g>
<g>
</g>
<g>
</g>
<g>
</g>
<g>
</g>
<g>
</g>
<g>
</g>
<g>
</g>
<g>
</g>
<g>
</g>
<g>
</g>
<g>
</g>
</svg>
