<?xml version="1.0" encoding="iso-8859-1"?>
<!-- Generator: Adobe Illustrator 19.0.0, SVG Export Plug-In . SVG Version: 6.00 Build 0)  -->
<svg version="1.1" id="Capa_1" xmlns="http://www.w3.org/2000/svg" xmlns:xlink="http://www.w3.org/1999/xlink" x="0px" y="0px"
	 viewBox="0 0 469.333 469.333" style="enable-background:new 0 0 469.333 469.333;" xml:space="preserve">
<path style="fill:#303C42;" d="M458.667,0h-448C4.771,0,0,4.771,0,10.667v416c0,23.531,19.135,42.667,42.667,42.667h384
	c23.531,0,42.667-19.135,42.667-42.667v-416C469.333,4.771,464.563,0,458.667,0z M288,85.333H181.333
	c-5.885,0-10.667-4.781-10.667-10.667c0-5.885,4.781-10.667,10.667-10.667H288c5.885,0,10.667,4.781,10.667,10.667
	C298.667,80.552,293.885,85.333,288,85.333z"/>
<path style="fill:#689F38;" d="M64,426.667c0-31.079,8.487-60.156,23.063-85.283L148.695,448H65.484
	C64.604,440.924,64,433.799,64,426.667z"/>
<path style="opacity:0.2;fill:#FFFFFF;enable-background:new    ;" d="M75.305,437.283c0-29.173,7.698-56.449,20.669-80.483
	l-8.911-15.415C72.487,366.51,64,395.587,64,426.667c0,7.133,0.604,14.258,1.484,21.333h10.566
	C75.788,444.426,75.305,440.866,75.305,437.283z"/>
<path style="fill:#FDD835;" d="M403.849,448h-86.798c1.794-6.935,2.949-14.023,2.949-21.333c0-25.607-11.572-48.346-29.491-64
	h102.259c8.039,19.785,12.565,41.362,12.565,64C405.333,433.799,404.729,440.924,403.849,448z"/>
<path style="fill:#42A5F5;" d="M170.667,426.667c0-35.292,28.708-64,64-64s64,28.708,64,64c0,7.402-1.611,14.484-4.051,21.333
	H174.714C172.275,441.155,170.667,434.073,170.667,426.667z"/>
<path style="opacity:0.2;fill:#FFFFFF;enable-background:new    ;" d="M245.333,384c20.695,0,38.935,10.034,50.642,25.316
	c-7.62-26.828-32.07-46.65-61.309-46.65c-35.292,0-64,28.708-64,64c0,7.406,1.608,14.488,4.047,21.333h6.62
	C181.333,412.708,210.042,384,245.333,384z"/>
<path style="fill:#E53935;" d="M234.667,341.333c-41.167,0-75.617,29.302-83.592,68.146l-50.723-87.742
	C131.617,281.805,180.137,256,234.667,256c63.004,0,118.009,34.409,147.574,85.333H234.667z"/>
<path style="opacity:0.2;fill:#FFFFFF;enable-background:new    ;" d="M240.982,277.333c53.677,0,101.392,25.113,132.672,64h8.587
	C352.676,290.409,297.671,256,234.667,256c-54.53,0-103.049,25.805-134.315,65.737l9.94,17.194
	C141.613,301.445,188.426,277.333,240.982,277.333z"/>
<path style="fill:#EEEEEE;" d="M21.333,21.333v405.333c0,11.76,9.573,21.333,21.333,21.333h1.32
	c-0.784-7.089-1.32-14.211-1.32-21.333c0-105.865,86.135-192,192-192s192,86.135,192,192c0,7.122-0.536,14.245-1.32,21.333h1.32
	c11.76,0,21.333-9.573,21.333-21.333V21.333H21.333z M288,106.667H181.333c-17.646,0-32-14.354-32-32s14.354-32,32-32H288
	c17.646,0,32,14.354,32,32S305.646,106.667,288,106.667z"/>
<path style="opacity:0.1;enable-background:new    ;" d="M21.333,426.667c0,11.76,9.573,21.333,21.333,21.333h1.32
	c-0.784-7.089-1.32-14.211-1.32-21.333c0-105.865,86.135-192,192-192H21.333V426.667z"/>
<path style="opacity:0.1;enable-background:new    ;" d="M234.667,234.667c105.865,0,192,86.135,192,192
	c0,7.122-0.536,14.245-1.32,21.333h1.32c11.76,0,21.333-9.573,21.333-21.333v-192H234.667z"/>
<linearGradient id="SVGID_1_" gradientUnits="userSpaceOnUse" x1="-69.0319" y1="619.483" x2="-43.2798" y2="607.475" gradientTransform="matrix(21.3333 0 0 -21.3333 1430.1112 13315.2227)">
	<stop  offset="0" style="stop-color:#FFFFFF;stop-opacity:0.2"/>
	<stop  offset="1" style="stop-color:#FFFFFF;stop-opacity:0"/>
</linearGradient>
<path style="fill:url(#SVGID_1_);" d="M458.667,0h-448C4.771,0,0,4.771,0,10.667v416c0,23.531,19.135,42.667,42.667,42.667h384
	c23.531,0,42.667-19.135,42.667-42.667v-416C469.333,4.771,464.563,0,458.667,0z M288,85.333H181.333
	c-5.885,0-10.667-4.781-10.667-10.667c0-5.885,4.781-10.667,10.667-10.667H288c5.885,0,10.667,4.781,10.667,10.667
	C298.667,80.552,293.885,85.333,288,85.333z"/>
<g>
</g>
<g>
</g>
<g>
</g>
<g>
</g>
<g>
</g>
<g>
</g>
<g>
</g>
<g>
</g>
<g>
</g>
<g>
</g>
<g>
</g>
<g>
</g>
<g>
</g>
<g>
</g>
<g>
</g>
</svg>
