<?xml version="1.0" encoding="iso-8859-1"?>
<!-- Generator: Adobe Illustrator 19.0.0, SVG Export Plug-In . SVG Version: 6.00 Build 0)  -->
<svg version="1.1" id="Capa_1" xmlns="http://www.w3.org/2000/svg" xmlns:xlink="http://www.w3.org/1999/xlink" x="0px" y="0px"
	 viewBox="0 0 469.333 469.333" style="enable-background:new 0 0 469.333 469.333;" xml:space="preserve">
<path style="fill:#303C42;" d="M426.667,0h-384C19.135,0,0,19.135,0,42.667v384c0,23.531,19.135,42.667,42.667,42.667h384
	c23.531,0,42.667-19.135,42.667-42.667v-384C469.333,19.135,450.198,0,426.667,0z"/>
<g>
	<path id="SVGCleanerId_0" style="fill:#5C6671;" d="M42.667,21.333h384c11.76,0,21.333,9.573,21.333,21.333v42.667H21.333V42.667
		C21.333,30.906,30.906,21.333,42.667,21.333z"/>
</g>
<g>
	
		<linearGradient id="SVGCleanerId_0_3_" gradientUnits="userSpaceOnUse" x1="-64.5964" y1="625.4609" x2="-47.3174" y2="617.4039" gradientTransform="matrix(21.3333 0 0 -21.3333 1430.1112 13315.2227)">
		<stop  offset="0" style="stop-color:#FFFFFF;stop-opacity:0.2"/>
		<stop  offset="1" style="stop-color:#FFFFFF;stop-opacity:0"/>
	</linearGradient>
	<path id="SVGCleanerId_0_1_" style="fill:url(#SVGCleanerId_0_3_);" d="M42.667,21.333h384c11.76,0,21.333,9.573,21.333,21.333
		v42.667H21.333V42.667C21.333,30.906,30.906,21.333,42.667,21.333z"/>
</g>
<g>
	
		<linearGradient id="SVGCleanerId_0_4_" gradientUnits="userSpaceOnUse" x1="-61.6394" y1="626.9612" x2="-50.4335" y2="615.7543" gradientTransform="matrix(21.3333 0 0 -21.3333 1430.1112 13315.2227)">
		<stop  offset="0" style="stop-color:#FFFFFF;stop-opacity:0.2"/>
		<stop  offset="1" style="stop-color:#FFFFFF;stop-opacity:0"/>
	</linearGradient>
	<path id="SVGCleanerId_0_2_" style="fill:url(#SVGCleanerId_0_4_);" d="M42.667,21.333h384c11.76,0,21.333,9.573,21.333,21.333
		v42.667H21.333V42.667C21.333,30.906,30.906,21.333,42.667,21.333z"/>
</g>
<path style="fill:#FFFFFF;" d="M426.667,448h-384c-11.76,0-21.333-9.573-21.333-21.333v-320H448v320
	C448,438.427,438.427,448,426.667,448z"/>
<g>
	<circle style="fill:#303C42;" cx="53.333" cy="53.333" r="10.667"/>
	<circle style="fill:#303C42;" cx="96" cy="53.333" r="10.667"/>
	<circle style="fill:#303C42;" cx="138.667" cy="53.333" r="10.667"/>
	<path style="fill:#303C42;" d="M343.917,245.656l-20.438-5.115l10.833-18.063c2.521-4.198,1.854-9.573-1.604-13.031l-30.167-30.167
		c-3.479-3.49-8.854-4.104-13.042-1.604l-18.042,10.833l-5.104-20.438C265.167,163.333,260.896,160,256,160h-42.667
		c-4.896,0-9.167,3.333-10.354,8.073l-5.104,20.438l-18.042-10.833c-4.188-2.5-9.563-1.885-13.042,1.604l-30.188,30.167
		c-3.458,3.458-4.125,8.833-1.604,13.031l10.854,18.063l-20.438,5.115c-4.75,1.188-8.083,5.448-8.083,10.344v42.667
		c0,4.896,3.333,9.156,8.083,10.344l20.438,5.115L135,332.188c-2.521,4.198-1.854,9.573,1.604,13.031l30.188,30.167
		c3.479,3.469,8.854,4.104,13.042,1.604l18.042-10.833l5.104,20.438c1.188,4.74,5.458,8.073,10.354,8.073H256
		c4.896,0,9.167-3.333,10.354-8.073l5.104-20.438L289.5,376.99c4.188,2.5,9.563,1.865,13.042-1.604l30.167-30.167
		c3.458-3.458,4.125-8.833,1.604-13.031l-10.833-18.063l20.438-5.115c4.75-1.188,8.083-5.448,8.083-10.344V256
		C352,251.104,348.667,246.844,343.917,245.656z M234.667,309.333c-17.646,0-32-14.354-32-32s14.354-32,32-32s32,14.354,32,32
		S252.313,309.333,234.667,309.333z"/>
</g>
<path style="fill:#E0E0E0;" d="M312.354,259.74c-3.479-0.865-6.292-3.417-7.479-6.792c-0.958-2.74-2-5.417-3.271-8.01
	c-1.563-3.25-1.396-7.063,0.458-10.156l9.667-16.135l-18.375-18.385l-16.125,9.677c-3.104,1.833-6.938,2.01-10.167,0.448
	c-2.583-1.26-5.25-2.302-7.979-3.25c-3.396-1.188-5.958-4-6.833-7.479l-4.583-18.323h-26l-4.583,18.323
	c-0.875,3.479-3.438,6.292-6.833,7.479c-2.729,0.948-5.396,1.99-7.979,3.25c-3.25,1.573-7.063,1.406-10.167-0.448l-16.125-9.688
	l-18.396,18.396l9.688,16.135c1.854,3.094,2.021,6.906,0.458,10.156c-1.271,2.573-2.313,5.229-3.25,7.948
	c-1.188,3.406-4,5.979-7.5,6.854l-18.313,4.583v26.021l18.313,4.583c3.5,0.875,6.313,3.448,7.5,6.854
	c0.938,2.719,1.979,5.375,3.25,7.948c1.563,3.25,1.396,7.063-0.458,10.156l-9.688,16.135l18.396,18.396l16.125-9.688
	c3.104-1.865,6.896-2.042,10.167-0.448c2.583,1.26,5.25,2.302,7.979,3.25c3.396,1.188,5.958,4,6.833,7.479l4.583,18.323h26
	l4.583-18.323c0.875-3.479,3.438-6.292,6.833-7.479c2.729-0.948,5.396-1.99,7.979-3.25c3.25-1.583,7.083-1.417,10.167,0.448
	l16.125,9.677l18.375-18.385l-9.667-16.135c-1.854-3.094-2.021-6.906-0.458-10.156c1.271-2.594,2.313-5.271,3.271-8.01
	c1.188-3.375,4-5.927,7.479-6.792l18.313-4.583v-26.021L312.354,259.74z M234.667,330.667c-29.417,0-53.333-23.927-53.333-53.333
	S205.25,224,234.667,224S288,247.927,288,277.333S264.083,330.667,234.667,330.667z"/>
<linearGradient id="SVGID_1_" gradientUnits="userSpaceOnUse" x1="-68.6888" y1="619.0512" x2="-43.3842" y2="607.2509" gradientTransform="matrix(21.3333 0 0 -21.3333 1430.1112 13315.2227)">
	<stop  offset="0" style="stop-color:#FFFFFF;stop-opacity:0.2"/>
	<stop  offset="1" style="stop-color:#FFFFFF;stop-opacity:0"/>
</linearGradient>
<path style="fill:url(#SVGID_1_);" d="M426.667,0h-384C19.135,0,0,19.135,0,42.667v384c0,23.531,19.135,42.667,42.667,42.667h384
	c23.531,0,42.667-19.135,42.667-42.667v-384C469.333,19.135,450.198,0,426.667,0z"/>
<g>
</g>
<g>
</g>
<g>
</g>
<g>
</g>
<g>
</g>
<g>
</g>
<g>
</g>
<g>
</g>
<g>
</g>
<g>
</g>
<g>
</g>
<g>
</g>
<g>
</g>
<g>
</g>
<g>
</g>
</svg>
