<?xml version="1.0" encoding="iso-8859-1"?>
<!-- Generator: Adobe Illustrator 19.0.0, SVG Export Plug-In . SVG Version: 6.00 Build 0)  -->
<svg version="1.1" id="Capa_1" xmlns="http://www.w3.org/2000/svg" xmlns:xlink="http://www.w3.org/1999/xlink" x="0px" y="0px"
	 viewBox="0 0 469.333 469.333" style="enable-background:new 0 0 469.333 469.333;" xml:space="preserve">
<path style="fill:#303C42;" d="M426.667,0h-384C19.135,0,0,19.135,0,42.667v384c0,23.531,19.135,42.667,42.667,42.667h384
	c23.531,0,42.667-19.135,42.667-42.667v-384C469.333,19.135,450.198,0,426.667,0z"/>
<g>
	<path id="SVGCleanerId_0" style="fill:#5C6671;" d="M42.667,21.333h384c11.76,0,21.333,9.573,21.333,21.333v42.667H21.333V42.667
		C21.333,30.906,30.906,21.333,42.667,21.333z"/>
</g>
<g>
	
		<linearGradient id="SVGCleanerId_0_3_" gradientUnits="userSpaceOnUse" x1="-64.5964" y1="625.4609" x2="-47.3174" y2="617.4039" gradientTransform="matrix(21.3333 0 0 -21.3333 1430.1112 13315.2227)">
		<stop  offset="0" style="stop-color:#FFFFFF;stop-opacity:0.2"/>
		<stop  offset="1" style="stop-color:#FFFFFF;stop-opacity:0"/>
	</linearGradient>
	<path id="SVGCleanerId_0_1_" style="fill:url(#SVGCleanerId_0_3_);" d="M42.667,21.333h384c11.76,0,21.333,9.573,21.333,21.333
		v42.667H21.333V42.667C21.333,30.906,30.906,21.333,42.667,21.333z"/>
</g>
<g>
	
		<linearGradient id="SVGCleanerId_0_4_" gradientUnits="userSpaceOnUse" x1="-61.6394" y1="626.9612" x2="-50.4335" y2="615.7543" gradientTransform="matrix(21.3333 0 0 -21.3333 1430.1112 13315.2227)">
		<stop  offset="0" style="stop-color:#FFFFFF;stop-opacity:0.2"/>
		<stop  offset="1" style="stop-color:#FFFFFF;stop-opacity:0"/>
	</linearGradient>
	<path id="SVGCleanerId_0_2_" style="fill:url(#SVGCleanerId_0_4_);" d="M42.667,21.333h384c11.76,0,21.333,9.573,21.333,21.333
		v42.667H21.333V42.667C21.333,30.906,30.906,21.333,42.667,21.333z"/>
</g>
<path style="fill:#FFFFFF;" d="M426.667,448h-384c-11.76,0-21.333-9.573-21.333-21.333v-320H448v320
	C448,438.427,438.427,448,426.667,448z"/>
<g>
	<circle style="fill:#303C42;" cx="53.333" cy="53.333" r="10.667"/>
	<circle style="fill:#303C42;" cx="96" cy="53.333" r="10.667"/>
	<circle style="fill:#303C42;" cx="138.667" cy="53.333" r="10.667"/>
	<path style="fill:#303C42;" d="M309.333,245.333V192H320c5.896,0,10.667-4.771,10.667-10.667c0-5.896-4.771-10.667-10.667-10.667
		H149.333c-5.896,0-10.667,4.771-10.667,10.667c0,5.896,4.771,10.667,10.667,10.667H160v53.333
		c0,18.292,18.813,32.208,34.375,42.667C178.813,298.458,160,312.375,160,330.667V384h-10.667c-5.896,0-10.667,4.771-10.667,10.667
		c0,5.896,4.771,10.667,10.667,10.667H320c5.896,0,10.667-4.771,10.667-10.667c0-5.896-4.771-10.667-10.667-10.667h-10.667v-53.333
		c0-18.292-18.813-32.208-34.396-42.667C290.521,277.542,309.333,263.625,309.333,245.333z"/>
</g>
<polygon style="fill:#FFCE34;" points="211.931,384 234.667,349.896 257.402,384 "/>
<path style="fill:#BBDEFB;" d="M288,245.333c0,8.375-18.646,20.771-28.646,27.427c-3.688,2.438-7.042,4.677-9.729,6.688
	c-2.708,2.01-4.292,5.188-4.292,8.552c0,3.365,1.583,6.542,4.292,8.552c2.688,2.01,6.042,4.25,9.729,6.688
	c10,6.656,28.646,19.052,28.646,27.427V384h-4.958l-39.5-59.25c-3.958-5.938-13.792-5.938-17.75,0l-39.5,59.25h-4.958v-53.333
	c0-8.385,18.667-20.792,28.688-27.458c3.646-2.427,7-4.656,9.688-6.646c2.688-2.021,4.292-5.188,4.292-8.563
	s-1.604-6.542-4.292-8.563c-2.688-1.99-6.042-4.219-9.688-6.646c-10.021-6.667-28.688-19.073-28.688-27.458V192H288V245.333z"/>
<linearGradient id="SVGID_1_" gradientUnits="userSpaceOnUse" x1="-59.8135" y1="612.412" x2="-52.2594" y2="608.89" gradientTransform="matrix(21.3333 0 0 -21.3333 1430.1112 13315.2227)">
	<stop  offset="0" style="stop-color:#FFFFFF;stop-opacity:0.2"/>
	<stop  offset="1" style="stop-color:#FFFFFF;stop-opacity:0"/>
</linearGradient>
<path style="fill:url(#SVGID_1_);" d="M288,245.333c0,8.375-18.646,20.771-28.646,27.427c-3.688,2.438-7.042,4.677-9.729,6.688
	c-2.708,2.01-4.292,5.188-4.292,8.552c0,3.365,1.583,6.542,4.292,8.552c2.688,2.01,6.042,4.25,9.729,6.688
	c10,6.656,28.646,19.052,28.646,27.427V384h-4.958l-39.5-59.25c-3.958-5.938-13.792-5.938-17.75,0l-39.5,59.25h-4.958v-53.333
	c0-8.385,18.667-20.792,28.688-27.458c3.646-2.427,7-4.656,9.688-6.646c2.688-2.021,4.292-5.188,4.292-8.563
	s-1.604-6.542-4.292-8.563c-2.688-1.99-6.042-4.219-9.688-6.646c-10.021-6.667-28.688-19.073-28.688-27.458V192H288V245.333z"/>
<path style="fill:#FDB913;" d="M227.125,263.542c2.083,2.083,4.813,3.125,7.542,3.125s5.458-1.042,7.542-3.125l10.667-10.667
	c3.042-3.052,3.958-7.635,2.313-11.625c-1.646-3.99-5.542-6.583-9.854-6.583H224c-4.313,0-8.208,2.594-9.854,6.583
	c-1.646,3.99-0.729,8.573,2.313,11.625L227.125,263.542z"/>
<linearGradient id="SVGID_2_" gradientUnits="userSpaceOnUse" x1="-68.6888" y1="619.0512" x2="-43.3842" y2="607.2509" gradientTransform="matrix(21.3333 0 0 -21.3333 1430.1112 13315.2227)">
	<stop  offset="0" style="stop-color:#FFFFFF;stop-opacity:0.2"/>
	<stop  offset="1" style="stop-color:#FFFFFF;stop-opacity:0"/>
</linearGradient>
<path style="fill:url(#SVGID_2_);" d="M426.667,0h-384C19.135,0,0,19.135,0,42.667v384c0,23.531,19.135,42.667,42.667,42.667h384
	c23.531,0,42.667-19.135,42.667-42.667v-384C469.333,19.135,450.198,0,426.667,0z"/>
<g>
</g>
<g>
</g>
<g>
</g>
<g>
</g>
<g>
</g>
<g>
</g>
<g>
</g>
<g>
</g>
<g>
</g>
<g>
</g>
<g>
</g>
<g>
</g>
<g>
</g>
<g>
</g>
<g>
</g>
</svg>
