<?xml version="1.0" encoding="iso-8859-1"?>
<!-- Generator: Adobe Illustrator 19.0.0, SVG Export Plug-In . SVG Version: 6.00 Build 0)  -->
<svg version="1.1" id="Capa_1" xmlns="http://www.w3.org/2000/svg" xmlns:xlink="http://www.w3.org/1999/xlink" x="0px" y="0px"
	 viewBox="0 0 512 512" style="enable-background:new 0 0 512 512;" xml:space="preserve">
<path style="fill:#303C42;" d="M469.333,256c0-66.816-31.909-129.855-85.333-170.125V10.667C384,4.771,379.229,0,373.333,0H138.667
	C132.771,0,128,4.771,128,10.667v75.208C74.576,126.145,42.667,189.184,42.667,256S74.576,385.855,128,426.125v75.208
	c0,5.896,4.771,10.667,10.667,10.667h234.667c5.896,0,10.667-4.771,10.667-10.667v-75.208
	C437.424,385.855,469.333,322.816,469.333,256z"/>
<path style="fill:#42A5F5;" d="M384,398.762V384c0-5.896-4.771-10.667-10.667-10.667H138.667c-5.896,0-10.667,4.771-10.667,10.667
	v14.762C87.63,362.522,64,310.618,64,256s23.63-106.522,64-142.762V128c0,5.896,4.771,10.667,10.667,10.667h234.667
	c5.896,0,10.667-4.771,10.667-10.667v-14.762c40.37,36.24,64,88.143,64,142.762S424.37,362.522,384,398.762z"/>
<path style="opacity:0.1;enable-background:new    ;" d="M64,256c0,54.618,23.63,106.522,64,142.762V384
	c0-5.896,4.771-10.667,10.667-10.667h234.667c5.896,0,10.667,4.771,10.667,10.667v14.762c40.37-36.24,64-88.143,64-142.762H64z"/>
<path style="fill:#303C42;" d="M373.333,170.667H138.667c-5.896,0-10.667,4.771-10.667,10.667v149.333
	c0,5.896,4.771,10.667,10.667,10.667h234.667c5.896,0,10.667-4.771,10.667-10.667V181.333
	C384,175.438,379.229,170.667,373.333,170.667z"/>
<g>
	<rect x="149.333" y="192" style="fill:#FFFFFF;" width="213.333" height="128"/>
	<rect x="149.333" y="21.333" style="fill:#FFFFFF;" width="213.333" height="96"/>
	<rect x="149.333" y="394.667" style="fill:#FFFFFF;" width="213.333" height="96"/>
</g>
<linearGradient id="SVGID_1_" gradientUnits="userSpaceOnUse" x1="-44.0788" y1="638.8563" x2="-25.3274" y2="630.1125" gradientTransform="matrix(21.3333 0 0 -21.3333 996.3334 13791.667)">
	<stop  offset="0" style="stop-color:#FFFFFF;stop-opacity:0.2"/>
	<stop  offset="1" style="stop-color:#FFFFFF;stop-opacity:0"/>
</linearGradient>
<path style="fill:url(#SVGID_1_);" d="M469.333,256c0-66.816-31.909-129.855-85.333-170.125V10.667C384,4.771,379.229,0,373.333,0
	H138.667C132.771,0,128,4.771,128,10.667v75.208C74.576,126.145,42.667,189.184,42.667,256S74.576,385.855,128,426.125v75.208
	c0,5.896,4.771,10.667,10.667,10.667h234.667c5.896,0,10.667-4.771,10.667-10.667v-75.208
	C437.424,385.855,469.333,322.816,469.333,256z"/>
<g>
</g>
<g>
</g>
<g>
</g>
<g>
</g>
<g>
</g>
<g>
</g>
<g>
</g>
<g>
</g>
<g>
</g>
<g>
</g>
<g>
</g>
<g>
</g>
<g>
</g>
<g>
</g>
<g>
</g>
</svg>
