<?xml version="1.0" encoding="iso-8859-1"?>
<!-- Generator: Adobe Illustrator 19.0.0, SVG Export Plug-In . SVG Version: 6.00 Build 0)  -->
<svg version="1.1" id="Capa_1" xmlns="http://www.w3.org/2000/svg" xmlns:xlink="http://www.w3.org/1999/xlink" x="0px" y="0px"
	 viewBox="0 0 512 512" style="enable-background:new 0 0 512 512;" xml:space="preserve">
<path style="fill:#303C42;" d="M469.333,64h-5.935c-0.039-0.066-0.072-0.138-0.111-0.204l45.587-45.587
	c4.167-4.167,4.167-10.917,0-15.083c-4.167-4.167-10.917-4.167-15.083,0l-45.589,45.589c-0.066-0.039-0.137-0.072-0.203-0.111
	v-5.936C448,19.135,428.854,0,405.333,0H106.667C83.146,0,64,19.135,64,42.667v5.936c-0.066,0.039-0.137,0.072-0.203,0.111
	L18.208,3.125c-4.167-4.167-10.917-4.167-15.083,0s-4.167,10.917,0,15.083l45.587,45.587c-0.039,0.066-0.072,0.138-0.111,0.204
	h-5.935C19.146,64,0,83.135,0,106.667v298.667C0,428.865,19.146,448,42.667,448h5.935c0.039,0.066,0.072,0.138,0.111,0.204
	L3.125,493.792c-4.167,4.167-4.167,10.917,0,15.083C5.208,510.958,7.938,512,10.667,512s5.458-1.042,7.542-3.125l45.589-45.589
	c0.066,0.039,0.137,0.072,0.203,0.111v5.936C64,492.865,83.146,512,106.667,512h298.667C428.854,512,448,492.865,448,469.333v-5.936
	c0.066-0.039,0.137-0.072,0.203-0.111l45.589,45.589c2.083,2.083,4.813,3.125,7.542,3.125s5.458-1.042,7.542-3.125
	c4.167-4.167,4.167-10.917,0-15.083l-45.587-45.587c0.039-0.066,0.072-0.138,0.111-0.204h5.935C492.854,448,512,428.865,512,405.333
	V106.667C512,83.135,492.854,64,469.333,64z"/>
<g>
	<path style="fill:#BBDEFB;" d="M448,390.501c-5.797,8.249-12.177,16.03-18.961,23.454l-90.831-90.831
		c15.048-18.392,24.458-41.565,24.458-67.125s-9.41-48.733-24.458-67.125l90.831-90.831c6.784,7.424,13.164,15.206,18.961,23.454
		V390.501z"/>
	<path style="fill:#BBDEFB;" d="M469.333,158.81c13.568,29.658,21.333,62.501,21.333,97.19s-7.766,67.533-21.333,97.19V158.81z"/>
	<path style="fill:#BBDEFB;" d="M121.499,448c-8.249-5.797-16.03-12.177-23.454-18.961l90.831-90.831
		c18.392,15.048,41.565,24.458,67.125,24.458s48.733-9.41,67.125-24.458l90.831,90.831c-7.424,6.784-15.206,13.164-23.454,18.961
		H121.499z"/>
	<path style="fill:#BBDEFB;" d="M353.19,469.333c-29.658,13.568-62.501,21.333-97.19,21.333s-67.533-7.766-97.19-21.333H353.19z"/>
	<path style="fill:#BBDEFB;" d="M64,121.499c5.797-8.249,12.177-16.03,18.961-23.454l90.831,90.831
		c-15.048,18.392-24.458,41.565-24.458,67.125s9.41,48.733,24.458,67.125l-90.831,90.831C76.177,406.531,69.797,398.75,64,390.501
		V121.499z"/>
	<path style="fill:#BBDEFB;" d="M42.667,353.19C29.099,323.533,21.333,290.689,21.333,256s7.766-67.533,21.333-97.19V353.19z"/>
	<path style="fill:#BBDEFB;" d="M390.501,64c8.249,5.797,16.03,12.177,23.454,18.961l-90.831,90.831
		c-18.392-15.048-41.565-24.458-67.125-24.458s-48.733,9.41-67.125,24.458L98.044,82.961c7.424-6.784,15.206-13.164,23.454-18.961
		H390.501z"/>
	<path style="fill:#BBDEFB;" d="M158.81,42.667c29.658-13.568,62.501-21.333,97.19-21.333s67.533,7.766,97.19,21.333H158.81z"/>
	<path style="fill:#BBDEFB;" d="M431.865,65.052l-2.829,2.829c-1.415-1.303-2.826-2.609-4.271-3.882h1.902
		C428.509,64,430.158,64.611,431.865,65.052z"/>
	<path style="fill:#BBDEFB;" d="M240.917,256l-52.049,52.049c-11.234-14.452-18.201-32.37-18.201-52.049s6.966-37.598,18.201-52.049
		L240.917,256z"/>
	<path style="fill:#BBDEFB;" d="M203.949,188.866c14.451-11.233,32.368-18.199,52.051-18.199c19.682,0,37.6,6.966,52.051,18.199
		L256,240.917L203.949,188.866z"/>
	<path style="fill:#BBDEFB;" d="M256,271.083l52.051,52.051C293.6,334.367,275.682,341.333,256,341.333
		c-19.682,0-37.6-6.966-52.051-18.199L256,271.083z"/>
	<path style="fill:#BBDEFB;" d="M271.083,256l52.049-52.049c11.234,14.452,18.201,32.37,18.201,52.049s-6.966,37.598-18.201,52.049
		L271.083,256z"/>
	<path style="fill:#BBDEFB;" d="M82.965,67.882l-2.829-2.829C81.842,64.611,83.491,64,85.333,64h1.902
		C85.79,65.272,84.38,66.578,82.965,67.882z"/>
	<path style="fill:#BBDEFB;" d="M64,85.333c0-1.842,0.611-3.491,1.052-5.198l2.829,2.829C66.578,84.38,65.272,85.79,64,87.236
		V85.333z"/>
	<path style="fill:#BBDEFB;" d="M67.882,429.035l-2.829,2.829c-0.441-1.707-1.052-3.355-1.052-5.198v-1.902
		C65.272,426.21,66.578,427.62,67.882,429.035z"/>
	<path style="fill:#BBDEFB;" d="M80.135,446.948l2.829-2.829c1.415,1.303,2.826,2.609,4.271,3.882h-1.902
		C83.491,448,81.842,447.389,80.135,446.948z"/>
	<path style="fill:#BBDEFB;" d="M429.035,444.118l2.829,2.829c-1.707,0.441-3.355,1.052-5.198,1.052h-1.902
		C426.21,446.728,427.62,445.422,429.035,444.118z"/>
	<path style="fill:#BBDEFB;" d="M448,426.667c0,1.842-0.611,3.491-1.052,5.198l-2.829-2.829c1.303-1.415,2.609-2.826,3.882-4.271
		V426.667z"/>
	<path style="fill:#BBDEFB;" d="M444.118,82.965l2.829-2.829c0.441,1.707,1.052,3.355,1.052,5.198v1.902
		C446.728,85.79,445.422,84.38,444.118,82.965z"/>
	<path style="fill:#BBDEFB;" d="M405.333,21.333c11.771,0,21.333,9.573,21.333,21.333h-29.464
		c-12.355-8.204-25.466-15.342-39.195-21.333H405.333z"/>
	<path style="fill:#BBDEFB;" d="M106.667,21.333h47.326c-13.729,5.991-26.84,13.129-39.195,21.333H85.333
		C85.333,30.906,94.896,21.333,106.667,21.333z"/>
	<path style="fill:#BBDEFB;" d="M21.333,106.667c0-11.76,9.563-21.333,21.333-21.333v29.464
		c-8.206,12.357-15.342,25.467-21.333,39.197V106.667z"/>
	<path style="fill:#BBDEFB;" d="M21.333,405.333v-47.327c5.991,13.729,13.128,26.84,21.333,39.197v29.464
		C30.896,426.667,21.333,417.094,21.333,405.333z"/>
	<path style="fill:#BBDEFB;" d="M106.667,490.667c-11.771,0-21.333-9.573-21.333-21.333h29.464
		c12.355,8.204,25.466,15.342,39.195,21.333H106.667z"/>
	<path style="fill:#BBDEFB;" d="M405.333,490.667h-47.326c13.729-5.991,26.84-13.129,39.195-21.333h29.464
		C426.667,481.094,417.104,490.667,405.333,490.667z"/>
	<path style="fill:#BBDEFB;" d="M490.667,405.333c0,11.76-9.563,21.333-21.333,21.333v-29.464
		c8.206-12.357,15.342-25.467,21.333-39.197V405.333z"/>
	<path style="fill:#BBDEFB;" d="M469.333,114.797V85.333c11.771,0,21.333,9.573,21.333,21.333v47.327
		C484.676,140.264,477.539,127.154,469.333,114.797z"/>
</g>
<linearGradient id="SVGID_1_" gradientUnits="userSpaceOnUse" x1="-49.0072" y1="641.1544" x2="-20.3991" y2="627.8143" gradientTransform="matrix(21.3333 0 0 -21.3333 996.3334 13791.667)">
	<stop  offset="0" style="stop-color:#FFFFFF;stop-opacity:0.2"/>
	<stop  offset="1" style="stop-color:#FFFFFF;stop-opacity:0"/>
</linearGradient>
<path style="fill:url(#SVGID_1_);" d="M469.333,64h-5.935c-0.039-0.066-0.072-0.138-0.111-0.204l45.587-45.587
	c4.167-4.167,4.167-10.917,0-15.083c-4.167-4.167-10.917-4.167-15.083,0l-45.589,45.589c-0.066-0.039-0.137-0.072-0.203-0.111
	v-5.936C448,19.135,428.854,0,405.333,0H106.667C83.146,0,64,19.135,64,42.667v5.936c-0.066,0.039-0.137,0.072-0.203,0.111
	L18.208,3.125c-4.167-4.167-10.917-4.167-15.083,0s-4.167,10.917,0,15.083l45.587,45.587c-0.039,0.066-0.072,0.138-0.111,0.204
	h-5.935C19.146,64,0,83.135,0,106.667v298.667C0,428.865,19.146,448,42.667,448h5.935c0.039,0.066,0.072,0.138,0.111,0.204
	L3.125,493.792c-4.167,4.167-4.167,10.917,0,15.083C5.208,510.958,7.938,512,10.667,512s5.458-1.042,7.542-3.125l45.589-45.589
	c0.066,0.039,0.137,0.072,0.203,0.111v5.936C64,492.865,83.146,512,106.667,512h298.667C428.854,512,448,492.865,448,469.333v-5.936
	c0.066-0.039,0.137-0.072,0.203-0.111l45.589,45.589c2.083,2.083,4.813,3.125,7.542,3.125s5.458-1.042,7.542-3.125
	c4.167-4.167,4.167-10.917,0-15.083l-45.587-45.587c0.039-0.066,0.072-0.138,0.111-0.204h5.935C492.854,448,512,428.865,512,405.333
	V106.667C512,83.135,492.854,64,469.333,64z"/>
<g>
</g>
<g>
</g>
<g>
</g>
<g>
</g>
<g>
</g>
<g>
</g>
<g>
</g>
<g>
</g>
<g>
</g>
<g>
</g>
<g>
</g>
<g>
</g>
<g>
</g>
<g>
</g>
<g>
</g>
</svg>
