<?xml version="1.0" encoding="iso-8859-1"?>
<!-- Generator: Adobe Illustrator 19.0.0, SVG Export Plug-In . SVG Version: 6.00 Build 0)  -->
<svg version="1.1" id="Capa_1" xmlns="http://www.w3.org/2000/svg" xmlns:xlink="http://www.w3.org/1999/xlink" x="0px" y="0px"
	 viewBox="0 0 469.333 469.333" style="enable-background:new 0 0 469.333 469.333;" xml:space="preserve">
<path style="fill:#303C42;" d="M170.667,0h-128C19.135,0,0,19.135,0,42.667v128c0,23.531,19.135,42.667,42.667,42.667h128
	c23.531,0,42.667-19.135,42.667-42.667v-128C213.333,19.135,194.198,0,170.667,0z"/>
<path style="fill:#00B5EF;" d="M192,170.667c0,11.76-9.573,21.333-21.333,21.333h-128c-11.76,0-21.333-9.573-21.333-21.333v-128
	c0-11.76,9.573-21.333,21.333-21.333h128c11.76,0,21.333,9.573,21.333,21.333V170.667z"/>
<path style="opacity:0.2;fill:#FFFFFF;enable-background:new    ;" d="M96,42.667h96c0-11.76-9.573-21.333-21.333-21.333h-128
	c-11.76,0-21.333,9.573-21.333,21.333v128c0,11.76,9.573,21.333,21.333,21.333h10.667V85.333C53.333,61.768,72.436,42.667,96,42.667
	z"/>
<path style="fill:#303C42;" d="M426.667,0h-128C275.135,0,256,19.135,256,42.667v128c0,23.531,19.135,42.667,42.667,42.667h128
	c23.531,0,42.667-19.135,42.667-42.667v-128C469.333,19.135,450.198,0,426.667,0z"/>
<path style="fill:#00B5EF;" d="M448,170.667c0,11.76-9.573,21.333-21.333,21.333h-128c-11.76,0-21.333-9.573-21.333-21.333v-128
	c0-11.76,9.573-21.333,21.333-21.333h128c11.76,0,21.333,9.573,21.333,21.333V170.667z"/>
<path style="opacity:0.2;fill:#FFFFFF;enable-background:new    ;" d="M352,42.667h96c0-11.76-9.573-21.333-21.333-21.333h-128
	c-11.76,0-21.333,9.573-21.333,21.333v128c0,11.76,9.573,21.333,21.333,21.333h10.667V85.333
	C309.333,61.768,328.436,42.667,352,42.667z"/>
<path style="fill:#303C42;" d="M170.667,256h-128C19.135,256,0,275.135,0,298.667v128c0,23.531,19.135,42.667,42.667,42.667h128
	c23.531,0,42.667-19.135,42.667-42.667v-128C213.333,275.135,194.198,256,170.667,256z"/>
<path style="fill:#00B5EF;" d="M192,426.667c0,11.76-9.573,21.333-21.333,21.333h-128c-11.76,0-21.333-9.573-21.333-21.333v-128
	c0-11.76,9.573-21.333,21.333-21.333h128c11.76,0,21.333,9.573,21.333,21.333V426.667z"/>
<path style="fill:#69B342;" d="M416,352h-42.667v-42.667c0-5.896-4.771-10.667-10.667-10.667c-5.896,0-10.667,4.771-10.667,10.667
	V352h-42.667c-5.896,0-10.667,4.771-10.667,10.667c0,5.896,4.771,10.667,10.667,10.667H352V416c0,5.896,4.771,10.667,10.667,10.667
	c5.896,0,10.667-4.771,10.667-10.667v-42.667H416c5.896,0,10.667-4.771,10.667-10.667C426.667,356.771,421.896,352,416,352z"/>
<path style="opacity:0.2;fill:#FFFFFF;enable-background:new    ;" d="M96,298.667h96c0-11.76-9.573-21.333-21.333-21.333h-128
	c-11.76,0-21.333,9.573-21.333,21.333v128c0,11.76,9.573,21.333,21.333,21.333h10.667V341.333
	C53.333,317.768,72.436,298.667,96,298.667z"/>
<linearGradient id="SVGID_1_" gradientUnits="userSpaceOnUse" x1="-68.6887" y1="619.0513" x2="-46.3032" y2="608.6121" gradientTransform="matrix(21.3333 0 0 -21.3333 1430.1112 13315.2227)">
	<stop  offset="0" style="stop-color:#FFFFFF;stop-opacity:0.2"/>
	<stop  offset="1" style="stop-color:#FFFFFF;stop-opacity:0"/>
</linearGradient>
<path style="fill:url(#SVGID_1_);" d="M170.667,0h-128C19.135,0,0,19.135,0,42.667v128c0,23.531,19.135,42.667,42.667,42.667h128
	c23.531,0,42.667-19.135,42.667-42.667v-128C213.333,19.135,194.198,0,170.667,0z M426.667,0h-128C275.135,0,256,19.135,256,42.667
	v128c0,23.531,19.135,42.667,42.667,42.667h128c23.531,0,42.667-19.135,42.667-42.667v-128C469.333,19.135,450.198,0,426.667,0z
	 M170.667,256h-128C19.135,256,0,275.135,0,298.667v128c0,23.531,19.135,42.667,42.667,42.667h128
	c23.531,0,42.667-19.135,42.667-42.667v-128C213.333,275.135,194.198,256,170.667,256z M416,352h-42.667v-42.667
	c0-5.896-4.771-10.667-10.667-10.667c-5.896,0-10.667,4.771-10.667,10.667V352h-42.667c-5.896,0-10.667,4.771-10.667,10.667
	c0,5.896,4.771,10.667,10.667,10.667H352V416c0,5.896,4.771,10.667,10.667,10.667c5.896,0,10.667-4.771,10.667-10.667v-42.667H416
	c5.896,0,10.667-4.771,10.667-10.667C426.667,356.771,421.896,352,416,352z"/>
<g>
</g>
<g>
</g>
<g>
</g>
<g>
</g>
<g>
</g>
<g>
</g>
<g>
</g>
<g>
</g>
<g>
</g>
<g>
</g>
<g>
</g>
<g>
</g>
<g>
</g>
<g>
</g>
<g>
</g>
</svg>
