<?xml version="1.0" encoding="iso-8859-1"?>
<!-- Generator: Adobe Illustrator 19.0.0, SVG Export Plug-In . SVG Version: 6.00 Build 0)  -->
<svg xmlns="http://www.w3.org/2000/svg" xmlns:xlink="http://www.w3.org/1999/xlink" version="1.1" id="Capa_1" x="0px" y="0px" viewBox="0 0 497.778 497.778" style="enable-background:new 0 0 497.778 497.778;" xml:space="preserve">
<g transform="matrix(1.25 0 0 -1.25 0 45)">
	<g>
		<g>
			<path id="SVGCleanerId_0" style="fill:#8899A6;" d="M51.2-362.222c-12.561,0-22.756,10.194-22.756,22.756V13.244     C28.444,25.806,38.639,36,51.2,36s22.756-10.194,22.756-22.756v-352.711C73.956-352.028,63.761-362.222,51.2-362.222"/>
			<path id="SVGCleanerId_1" style="fill:#AAB8C2;" d="M51.2,36c-12.572,0-22.756-10.183-22.756-22.756v-352.711     c0-3.14,2.549-5.689,5.689-5.689s5.689,2.549,5.689,5.689V-2.844c0,8.886,7.202,16.088,16.088,16.088h18.045     C73.956,25.817,63.772,36,51.2,36"/>
			<g>
				<path id="SVGCleanerId_0_1_" style="fill:#8899A6;" d="M51.2-362.222c-12.561,0-22.756,10.194-22.756,22.756V13.244      C28.444,25.806,38.639,36,51.2,36s22.756-10.194,22.756-22.756v-352.711C73.956-352.028,63.761-362.222,51.2-362.222"/>
			</g>
			<g>
				<path id="SVGCleanerId_1_1_" style="fill:#AAB8C2;" d="M51.2,36c-12.572,0-22.756-10.183-22.756-22.756v-352.711      c0-3.14,2.549-5.689,5.689-5.689s5.689,2.549,5.689,5.689V-2.844c0,8.886,7.202,16.088,16.088,16.088h18.045      C73.956,25.817,63.772,36,51.2,36"/>
			</g>
			<path style="fill:#292F33;" d="M363.122,12.22c-19.934,9.091-41.131,13.505-64.831,13.505c-28.649,0-57.116-6.485-84.639-12.766     C186.14,6.691,160.154,0.774,134.064,0.774c-20.366,0-38.48,3.743-55.387,11.446c-3.516,1.616-7.623,1.308-10.877-0.774     c-3.254-2.094-5.222-5.7-5.222-9.58v-216.178c0-4.449,2.594-8.499,6.656-10.354c19.934-9.091,41.142-13.494,64.831-13.494     c28.649,0,57.116,6.485,84.639,12.766c27.511,6.269,53.498,12.186,79.588,12.186c20.366,0,38.491-3.743,55.387-11.457     c3.527-1.582,7.623-1.308,10.877,0.796c3.254,2.082,5.222,5.689,5.222,9.557V1.867C369.778,6.327,367.172,10.377,363.122,12.22"/>
		</g>
	</g>
</g>
<g>
</g>
<g>
</g>
<g>
</g>
<g>
</g>
<g>
</g>
<g>
</g>
<g>
</g>
<g>
</g>
<g>
</g>
<g>
</g>
<g>
</g>
<g>
</g>
<g>
</g>
<g>
</g>
<g>
</g>
</svg>
