<?xml version="1.0" encoding="iso-8859-1"?>
<!-- Generator: Adobe Illustrator 19.0.0, SVG Export Plug-In . SVG Version: 6.00 Build 0)  -->
<svg xmlns="http://www.w3.org/2000/svg" xmlns:xlink="http://www.w3.org/1999/xlink" version="1.1" id="Capa_1" x="0px" y="0px" viewBox="0 0 512 512" style="enable-background:new 0 0 512 512;" xml:space="preserve">
<g transform="matrix(1.25 0 0 -1.25 0 45)">
	<path style="fill:#319209;" d="M364.089-20.889H45.511C20.378-20.889,0-41.267,0-66.4v-204.8c0-25.133,20.378-45.511,45.511-45.511   h318.578c25.133,0,45.511,20.378,45.511,45.511v204.8C409.6-41.267,389.222-20.889,364.089-20.889z"/>
	<g>
		<path style="fill:#FFD200;" d="M409.6-282.578H0v227.556h409.6V-282.578z"/>
		<path style="fill:#DE200F;" d="M409.6-237.067H0v136.533h409.6V-237.067z"/>
		<g>
			<path style="fill:#141414;" d="M409.6-191.556H0v45.511h409.6V-191.556z"/>
			<path style="fill:#141414;" d="M20.869-309.453L204.8-168.8L20.869-28.147C8.317-36.25,0-50.35,0-66.4v-204.8     C0-287.25,8.317-301.35,20.869-309.453z"/>
		</g>
		<path style="fill:#EEEEEE;" d="M15.169-305.111L193.422-168.8L15.169-32.489C5.862-40.823,0-52.925,0-66.4v-204.8    C0-284.675,5.862-296.777,15.169-305.111z"/>
	</g>
	<g>
		<path style="fill:#DE200F;" d="M76.022-95.945l20.298-41.119l45.375-6.587l-32.837-32.006l7.749-45.204l-40.584,21.345    l-40.584-21.345l7.749,45.204l-32.825,32.005l45.363,6.587L76.022-95.945z"/>
		<g transform="translate(2.875 22.12)">
			<path style="fill:#FFD200;" d="M29.836-143.991c0,0,1.9,7.111,8.533,8.533c4.267,10.433,14.222,11.855,21.811,0     c7.578-11.855,11.845-18.011,22.278-26.545c10.433-8.533,45.033-32.711,45.033-32.711h-5.689l-9.387-40.596H44.639l-4.369,23.052     c0,0-7.589,3.311-0.955,16.589c6.644,13.278,10.433,17.533,9.489,32.711C47.847-147.78,40.736-140.669,29.836-143.991"/>
			<path style="fill:#F15A29;" d="M112.443-235.343H44.611l-0.005,0.027l-4.366,23.035c-0.2,0.095-2.166,1.082-3.134,3.75     c-1.188,3.274-0.454,7.606,2.179,12.877c1.001,1.999,1.916,3.755,2.801,5.453c4.827,9.258,7.486,14.358,6.684,27.241     c-0.397,6.295-1.83,11.221-4.262,14.636c-2.41,3.386-5.666,5.102-9.677,5.102c-1.563,0-3.239-0.269-4.985-0.801l-0.058-0.018     l0.016,0.059c0.005,0.018,0.491,1.805,1.784,3.744c1.191,1.786,3.33,4.069,6.758,4.81c2.181,5.32,5.848,8.371,10.064,8.371     c4.149,0,8.339-2.977,11.799-8.383c7.324-11.458,11.64-17.842,22.271-26.537c10.313-8.435,44.685-32.468,45.032-32.709     l0.087-0.061h-5.768L112.443-235.343z M44.667-235.276h67.723l9.387,40.596h5.609c-1.943,1.359-34.888,24.424-44.948,32.652     c-10.638,8.701-14.958,15.088-22.285,26.552c-3.448,5.385-7.618,8.351-11.743,8.351c-4.192,0-7.84-3.042-10.009-8.346     l-0.007-0.017l-0.018-0.003c-3.415-0.732-5.546-3.006-6.732-4.784c-1.155-1.733-1.664-3.344-1.759-3.667     c1.731,0.522,3.394,0.786,4.946,0.786c2.002,0,3.847-0.439,5.482-1.305c1.626-0.86,3.055-2.148,4.25-3.826     c2.439-3.426,3.877-8.362,4.273-14.671c0.803-12.901-1.859-18.008-6.692-27.277c-0.885-1.697-1.8-3.453-2.8-5.452     c-2.625-5.254-3.357-9.569-2.175-12.824c1.006-2.772,3.094-3.71,3.115-3.719l0.017-0.008l0.003-0.017L44.667-235.276z"/>
		</g>
		<g>
			<path style="fill:#FFAC33;" d="M124.684-172.595c0,0-34.486,4.153-43.144,5.575c-8.647,1.422-15.405,14.927-15.405,14.927     l-3.914-2.685c0,0,7.111-15.565,17.431-17.818c10.309-2.253,43.656-5.951,43.656-5.951L124.684-172.595z"/>
			<path style="fill:#FFAC33;" d="M121.577-187.956c0,0-34.828,5.62-44.066,6.167c-9.25,0.546-18.489-3.948-19.911-8.716     c0,0,14.575,1.217,22.039,0c7.475-1.206,40.664-2.981,40.664-2.981L121.577-187.956z"/>
			<path style="fill:#FFAC33;" d="M65.067-201.515c0,0,28.706,1.923,52.293-2.742l-2.06-8.932H66.841L65.067-201.515z"/>
		</g>
	</g>
</g>
<g>
</g>
<g>
</g>
<g>
</g>
<g>
</g>
<g>
</g>
<g>
</g>
<g>
</g>
<g>
</g>
<g>
</g>
<g>
</g>
<g>
</g>
<g>
</g>
<g>
</g>
<g>
</g>
<g>
</g>
</svg>
