<?xml version="1.0" encoding="iso-8859-1"?>
<!-- Generator: Adobe Illustrator 19.0.0, SVG Export Plug-In . SVG Version: 6.00 Build 0)  -->
<svg xmlns="http://www.w3.org/2000/svg" xmlns:xlink="http://www.w3.org/1999/xlink" version="1.1" id="Capa_1" x="0px" y="0px" viewBox="0 0 512 512" style="enable-background:new 0 0 512 512;" xml:space="preserve">
<g transform="matrix(1.25 0 0 -1.25 0 45)">
	<path style="fill:#1A8A00;" d="M364.089-20.889H45.511C20.378-20.889,0-41.267,0-66.4v-204.8c0-25.133,20.378-45.511,45.511-45.511   h318.578c25.133,0,45.511,20.378,45.511,45.511v204.8C409.6-41.267,389.222-20.889,364.089-20.889z"/>
	<g>
		<path style="fill:#EF7D00;" d="M352.711-316.711h11.378c25.133,0,45.511,20.378,45.511,45.511v136.533h-56.889V-316.711z"/>
		<path style="fill:#141414;" d="M295.822-134.667h56.889v-182.044h-56.889V-134.667z"/>
		<path style="fill:#DE200F;" d="M238.933-134.667h56.889v-182.044h-56.889V-134.667z"/>
	</g>
	<path style="fill:#EF7D00;" d="M399.173-57.928c-1.252,0.239-8.147-3.709-8.147-3.709s6.417,7.396,4.927,7.396   c-1.479,0-9.854-3.937-9.854-3.937s5.177,6.417,3.448,5.666c-1.741-0.74-11.105-4.927-18.25-7.919c1.001,1.695,0.751,4.221,0,4.221   c-0.728,0-4.927-2.708-11.343-4.187s-16.02-6.906-20.218-6.167c-4.187,0.74-12.584,0-12.584,0s-2.446,3.698-0.489,4.687   c1.957,0.99,3.459-1.479,3.459-1.479s3.458,1.479,3.458,3.572c0,2.093-5.928,2.344-5.928,2.344s-2.469,3.197-6.406,3.197   c-10.354,0-11.105-11.093-11.105-11.093s-4.198,1.479-8.135,2.469c-3.937,0.99-10.854,0.489-17.749,4.687   c-6.906,4.198-11.343,5.666-2.97-3.208c-12.333,4.187-18.728,12.572-20.468,8.932c-1.729-3.641,4.687-7.942,4.687-7.942   s-3.448,0.979-6.406,3.698c-2.958,2.719-7.156,4.437-3.197-1.479c-5.177,1.479-1.479-3.948-1.479-3.948s-4.198-1.229,0-4.187   c4.187-2.97,11.833-4.198,11.833-4.198s-3.459-2.458-1.24-3.448c2.219-0.99,5.916-0.25,5.916-0.25s-2.958-2.458,0-3.448   c2.958-0.99,6.656,0,6.656,0s-1.229-2.469,1.718-3.584c2.97-1.115,7.657,1.354,7.657,1.354s-2.219-1.467,0-2.708   c2.23-1.229,5.666,1.354,5.666,1.354s-1.969-3.322,0-3.823c1.969-0.489,5.177,1.979,5.177,1.979s-1.82-3.208,0.149-3.459   c1.969-0.25,6.566,2.219,6.566,2.219s-3.346-3.448,0-3.448c2.677,0,5.768,1.718,5.768,1.718s-0.814-2.708,1.405-3.686   c2.219-0.99,5.39,1.718,5.39,1.718s0.721-5.177,0.232-8.135c-0.489-2.958,3.188-0.74,3.188-0.74s-0.505-4.437-3.452-4.187   c-2.958,0.239-5.93-3.698-4.929-4.687c0.99-0.99,4.925,0.74,4.925,0.74s-0.251-5.427,1.228-4.972   c1.479,0.455,3.948,3.493,3.948,3.493s1.479-3.948,2.481-3.459c0.979,0.5,1.467,2.719,1.467,3.948c0,1.229,2.708,1.729,2.708,1.729   s0.74-4.927,1.729-3.971c1.001,0.955,1.229,4.221,2.708,5.199c1.479,0.979,0.99-5.666,2.469-5.177   c1.491,0.489,0.751,4.938,0.25,6.417c-0.489,1.479,2.958-1.24,2.719,0c-0.25,1.24-2.97,3.698-2.97,3.698s3.448-1.24,2.469,0   c-0.979,1.24-1.479,4.437,0,3.732c1.479-0.694,2.719,2.184,2.719,2.184s3.937-2.958,6.406-1.969   c2.458,0.967-3.208,4.437-3.208,4.437s8.635-2.97,10.536-2.469c1.912,0.5-2.901,3.698-2.901,3.698s5.439-1.229,6.428,0   c0.979,1.24-3.527,2.219-3.527,2.219s5.985-0.99,6.725,0c0.74,0.99-1.718,2.219-1.718,2.219s9.854,0.25,11.833,3.698   c9.864-0.239,20.708,7.646,21.697,9.375c0.979,1.718-1.718,1.718-1.718,1.718s5.916,4.687,5.177,5.427   c-0.751,0.74-3.948-0.979-3.948-0.979S400.401-58.179,399.173-57.928z M325.945-100.344c-3.186,0-1.001,1.718-1.502,3.448   c-0.5,1.729,1.729,0.25,1.479,1.729c-0.262,1.479,0,8.625,0,8.625c2.469-2.458,3.698-5.666,3.458-8.135   c-0.25-2.469,1.229-2.708,1.718-3.948C331.589-99.867,329.131-100.344,325.945-100.344z"/>
</g>
<g>
</g>
<g>
</g>
<g>
</g>
<g>
</g>
<g>
</g>
<g>
</g>
<g>
</g>
<g>
</g>
<g>
</g>
<g>
</g>
<g>
</g>
<g>
</g>
<g>
</g>
<g>
</g>
<g>
</g>
</svg>
