<?xml version="1.0" encoding="iso-8859-1"?>
<!-- Generator: Adobe Illustrator 19.0.0, SVG Export Plug-In . SVG Version: 6.00 Build 0)  -->
<svg xmlns="http://www.w3.org/2000/svg" xmlns:xlink="http://www.w3.org/1999/xlink" version="1.1" id="Capa_1" x="0px" y="0px" viewBox="0 0 512 512" style="enable-background:new 0 0 512 512;" xml:space="preserve">
<g transform="matrix(1.25 0 0 -1.25 0 45)">
	<path style="fill:#EEEEEE;" d="M364.089-20.889H45.511C20.378-20.889,0-41.267,0-66.4v-204.8c0-25.133,20.378-45.511,45.511-45.511   h318.578c25.133,0,45.511,20.378,45.511,45.511v204.8C409.6-41.267,389.222-20.889,364.089-20.889z"/>
	<g style="enable-background:new    ;">
		<path style="fill:#D42E11;" d="M99.858-89.155v32.578h6.489l7.711-23.067c0.711-2.148,1.23-3.755,1.555-4.822    c0.37,1.185,0.948,2.925,1.734,5.222l7.8,22.667h5.8v-32.578h-4.156v27.267l-9.466-27.267h-3.889l-9.422,27.733v-27.733H99.858z"/>
		<path style="fill:#D42E11;" d="M138.878-89.155l12.511,32.578h4.645l13.333-32.578h-4.911l-3.8,9.867h-13.622l-3.578-9.867    H138.878z M148.278-75.778h11.045l-3.4,9.022c-1.037,2.741-1.807,4.992-2.311,6.755c-0.415-2.089-1-4.163-1.756-6.222    L148.278-75.778z"/>
		<path style="fill:#D42E11;" d="M178.62-89.155v13.8l-12.556,18.778h5.245l6.422-9.822c1.185-1.837,2.289-3.674,3.311-5.511    c0.978,1.704,2.163,3.622,3.556,5.755l6.311,9.578h5.022l-13-18.778v-13.8H178.62z"/>
		<path style="fill:#D42E11;" d="M198.488-73.289c0,5.407,1.452,9.641,4.355,12.7C205.747-57.53,209.495-56,214.087-56    c3.007,0,5.719-0.719,8.134-2.155c2.414-1.437,4.255-3.441,5.522-6.011c1.266-2.571,1.9-5.486,1.9-8.745    c0-3.304-0.666-6.259-2-8.867c-1.334-2.607-3.222-4.582-5.666-5.922c-2.445-1.341-5.082-2.011-7.911-2.011    c-3.067,0-5.808,0.741-8.223,2.222s-4.245,3.504-5.489,6.066C199.11-78.859,198.488-76.148,198.488-73.289z M202.932-73.355    c0-3.926,1.055-7.019,3.166-9.278s4.759-3.389,7.945-3.389c3.245,0,5.915,1.141,8.011,3.422c2.096,2.281,3.145,5.518,3.145,9.711    c0,2.652-0.448,4.966-1.345,6.944c-0.896,1.978-2.207,3.511-3.933,4.6c-1.727,1.089-3.663,1.634-5.812,1.634    c-3.052,0-5.677-1.048-7.877-3.145C204.032-64.952,202.932-68.452,202.932-73.355z"/>
		<path style="fill:#D42E11;" d="M243.495-89.155v28.733h-10.734v3.845h25.823v-3.845h-10.778v-28.733H243.495z"/>
		<path style="fill:#D42E11;" d="M273.123-89.155v28.733H262.39v3.845h25.823v-3.845h-10.778v-28.733H273.123z"/>
		<path style="fill:#D42E11;" d="M295.465-89.155v32.578h23.555v-3.845h-19.245V-70.4h18.023v-3.822h-18.023v-11.089h20v-3.845    h-24.31V-89.155z"/>
	</g>
	<g>
		<path style="fill:#231F20;" d="M170.664-234.725h22.755c5.823,0,8.577-3.06,9.863-5.627c1.398-2.791,1.415-5.623,1.415-5.651    c0-0.055,0.045-0.1,0.1-0.1c0.055,0,0.1,0.045,0.1,0.1c0,0.113,0.129,11.278,11.278,11.278h22.755    c5.987,0,10.99,2.319,14.47,6.705c3.213,4.052,4.984,9.788,4.984,16.15v96.131c0,0.055-0.045,0.1-0.1,0.1H151.072    c-0.055,0-0.1-0.045-0.1-0.1v-96.131c0-6.338,1.814-12.074,5.108-16.151C159.624-232.406,164.667-234.725,170.664-234.725z     M151.172-115.839h107.013v-96.031c0-13.551-7.738-22.655-19.253-22.655h-22.755c-9.112,0-10.991-7.327-11.378-10.273    c-0.387,2.946-2.266,10.273-11.378,10.273h-22.755c-11.659,0-19.493,9.105-19.493,22.655L151.172-115.839L151.172-115.839z"/>
		<path style="fill:#171796;" d="M248.491-174.493c0.244-0.368,0.462-0.754,0.661-1.15c0.735,1.632,1.159,3.391,1.159,5.133    c0,3.504-1.775,7.214-4.392,9.25c2.617,2.025,4.392,5.734,4.392,9.239c0,3.504-1.775,6.497-4.392,8.533    c2.617,2.037,4.392,5.029,4.392,8.533c0,6.121-5.097,11.093-11.378,11.093c-3.345,0-6.281-1.468-8.363-3.698    c-2.082,2.549-5.131,4.267-8.704,4.267c-3.47,0-6.463-1.616-8.556-4.028c-2.082,2.423-5.063,4.028-8.511,4.028    c-3.459,0-6.451-1.616-8.533-4.05c-2.094,2.435-5.086,4.05-8.533,4.05c-3.459,0-6.451-1.616-8.533-4.05    c-2.094,2.435-5.086,4.05-8.533,4.05c-6.292,0-11.378-5.086-11.378-11.378c0-3.447,1.627-6.44,4.05-8.533    c-2.423-2.082-4.05-5.075-4.05-8.533c0-3.447,1.627-6.44,4.05-8.533c-2.423-2.082-4.05-5.074-4.05-8.533    c0-2.023,0.53-4.217,1.456-6.264c0.113,0.195,0.229,0.388,0.353,0.575L248.491-174.493L248.491-174.493z M204.8-157.422    c10.593,0,19.41,7.27,21.948,17.067c0.478-1.832,0.808-3.709,0.808-5.689c0-12.561-10.183-22.756-22.756-22.756    c-12.561,0-22.756,10.194-22.756,22.756c0,1.98,0.33,3.857,0.796,5.689C185.389-150.152,194.207-157.422,204.8-157.422z"/>
		<path style="fill:#D42E11;" d="M159.277-214.6c0-6.121,5.097-11.093,11.389-11.093c3.413,0,6.44,1.502,8.533,3.823    c2.082-2.321,5.109-3.823,8.533-3.823c3.413,0,6.44,1.502,8.533,3.823c2.082-2.321,5.109-3.823,8.533-3.823    c3.413,0,6.44,1.502,8.533,3.823c2.082-2.321,5.109-3.823,8.533-3.823c3.413,0,6.44,1.502,8.533,3.823    c2.082-2.321,5.109-3.823,8.533-3.823c6.281,0,11.378,4.972,11.378,11.093c0,3.459-1.65,6.497-4.198,8.533    c2.549,2.037,4.198,5.075,4.198,8.533s-1.65,6.497-4.198,8.533c2.549,2.037,4.198,5.074,4.198,8.533    c0,1.735-0.426,3.368-1.159,4.823c-0.2,0.396-0.418,0.782-0.661,1.15h-87.393c-0.124-0.187-0.24-0.38-0.353-0.575    c-0.923-1.593-1.467-3.431-1.467-5.398c0-3.459,1.661-6.497,4.198-8.533c-2.537-2.037-4.198-5.075-4.198-8.533    s1.661-6.497,4.198-8.533C160.939-208.103,159.277-211.141,159.277-214.6z M191.933-198.689c3.265-1.877,5.404-4.289,4.779-5.382    c-0.637-1.081-3.789-0.444-7.054,1.434c-1.138,0.671-2.071,1.388-2.867,2.105c0.216-1.047,0.375-2.207,0.375-3.538    c0-3.777-1.024-6.827-2.276-6.827c-1.263,0-2.276,3.049-2.276,6.827c0,1.331,0.159,2.492,0.375,3.538    c-0.796-0.705-1.729-1.434-2.879-2.094c-3.265-1.889-6.428-2.526-7.054-1.445s1.513,3.493,4.779,5.382    c1.149,0.66,2.241,1.115,3.254,1.445c-1.013,0.33-2.105,0.785-3.254,1.445c-3.265,1.889-5.404,4.289-4.779,5.382    c0.626,1.081,3.789,0.444,7.054-1.445c1.149-0.66,2.082-1.388,2.879-2.094c-0.216,1.047-0.375,2.207-0.375,3.538    c0,3.777,1.013,6.827,2.276,6.827c1.252,0,2.276-3.049,2.276-6.827c0-1.331-0.159-2.492-0.375-3.538    c0.796,0.717,1.718,1.434,2.867,2.094c3.265,1.889,6.417,2.526,7.054,1.445c0.626-1.092-1.513-3.504-4.779-5.382    c-1.149-0.66-2.23-1.115-3.243-1.445C189.703-197.574,190.784-198.029,191.933-198.689z M236.534-204.071    c-0.637-1.081-3.789-0.444-7.054,1.434c-1.138,0.671-2.071,1.388-2.867,2.094c0.216-1.047,0.375-2.207,0.375-3.527    c0-3.777-1.024-6.827-2.276-6.827s-2.276,3.049-2.276,6.827c0,1.331,0.159,2.492,0.375,3.538    c-0.796-0.705-1.729-1.434-2.879-2.094c-3.265-1.889-6.428-2.526-7.054-1.445s1.513,3.493,4.779,5.382    c1.149,0.66,2.23,1.115,3.254,1.445c-1.024,0.33-2.105,0.785-3.254,1.445c-3.265,1.889-5.404,4.289-4.779,5.382    c0.626,1.081,3.789,0.444,7.054-1.445c1.149-0.66,2.082-1.388,2.879-2.094c-0.216,1.047-0.375,2.207-0.375,3.538    c0,3.777,1.024,6.827,2.276,6.827s2.276-3.049,2.276-6.827c0-1.32-0.159-2.492-0.375-3.538c0.796,0.717,1.729,1.434,2.867,2.094    c3.265,1.889,6.417,2.526,7.054,1.445c0.626-1.092-1.513-3.504-4.779-5.382c-1.138-0.66-2.23-1.115-3.243-1.445    c1.013-0.33,2.105-0.785,3.243-1.445C235.021-200.567,237.171-202.979,236.534-204.071z"/>
		<path style="fill:#EEEEEE;" d="M182.044-146.044c0-12.561,10.194-22.756,22.756-22.756c12.572,0,22.756,10.194,22.756,22.756    c0,1.98-0.33,3.857-0.808,5.689c-2.537-9.796-11.355-17.067-21.948-17.067s-19.411,7.27-21.959,17.067    C182.374-142.187,182.044-144.065,182.044-146.044z"/>
		<g>
			<path style="fill:#FFAC33;" d="M196.712-190.418c-0.637,1.081-3.789,0.444-7.054-1.445c-1.149-0.66-2.071-1.377-2.867-2.094     c0.216,1.047,0.375,2.207,0.375,3.538c0,3.777-1.024,6.827-2.276,6.827c-1.263,0-2.276-3.049-2.276-6.827     c0-1.331,0.159-2.492,0.375-3.538c-0.796,0.705-1.729,1.434-2.879,2.094c-3.265,1.889-6.428,2.526-7.054,1.445     c-0.626-1.092,1.513-3.493,4.779-5.382c1.149-0.66,2.241-1.115,3.254-1.445c-1.013-0.33-2.105-0.785-3.254-1.445     c-3.265-1.889-5.404-4.301-4.779-5.382c0.626-1.081,3.789-0.444,7.054,1.445c1.149,0.66,2.082,1.388,2.879,2.094     c-0.216-1.047-0.375-2.207-0.375-3.538c0-3.777,1.013-6.827,2.276-6.827c1.252,0,2.276,3.049,2.276,6.827     c0,1.331-0.159,2.492-0.375,3.538c0.796-0.717,1.729-1.434,2.867-2.105c3.265-1.877,6.417-2.515,7.054-1.434     c0.626,1.092-1.513,3.504-4.779,5.382c-1.149,0.66-2.23,1.115-3.243,1.445c1.013,0.33,2.094,0.785,3.243,1.445     C195.198-193.922,197.337-191.51,196.712-190.418z"/>
			<path style="fill:#FFAC33;" d="M231.755-198.689c-1.138,0.66-2.23,1.115-3.243,1.445c1.013,0.33,2.105,0.785,3.243,1.445     c3.265,1.877,5.404,4.289,4.779,5.382c-0.637,1.081-3.789,0.444-7.054-1.445c-1.138-0.66-2.071-1.377-2.867-2.094     c0.216,1.047,0.375,2.219,0.375,3.538c0,3.777-1.024,6.827-2.276,6.827s-2.276-3.049-2.276-6.827     c0-1.331,0.159-2.492,0.375-3.538c-0.796,0.705-1.729,1.434-2.879,2.094c-3.265,1.889-6.428,2.526-7.054,1.445     c-0.626-1.092,1.513-3.493,4.779-5.382c1.149-0.66,2.23-1.115,3.254-1.445c-1.024-0.33-2.105-0.785-3.254-1.445     c-3.265-1.889-5.404-4.301-4.779-5.382c0.626-1.081,3.789-0.444,7.054,1.445c1.149,0.66,2.082,1.388,2.879,2.094     c-0.216-1.047-0.375-2.207-0.375-3.538c0-3.777,1.024-6.827,2.276-6.827s2.276,3.049,2.276,6.827c0,1.32-0.159,2.48-0.375,3.527     c0.796-0.705,1.729-1.422,2.867-2.094c3.265-1.877,6.417-2.515,7.054-1.434C237.171-202.979,235.021-200.567,231.755-198.689z"/>
		</g>
		<path style="fill:#CCD6DD;" d="M140.489-273.307c-8.761-1.991-36.033-16.759-36.033-16.759l6.497-13.778    c0,0,7.771,4.016,13.028,6.258c4.856,2.092,17.397,7.8,24.206,8.067c0.172-0.555,0.359-1.153,0.566-1.806    c1.752-5.507,6.519-5.257,12.015-2.503c5.507,2.765,13.517,4.506,21.038,4.506h24.769h0.25h24.781    c7.521,0,15.531-1.741,21.026-4.506c5.507-2.753,10.263-3.004,12.026,2.503c0.206,0.653,0.392,1.251,0.563,1.806    c6.813-0.263,19.343-5.975,24.211-8.067c5.257-2.241,13.028-6.258,13.028-6.258l6.497,13.778c0,0-27.273,14.768-36.056,16.759    c-6.365,1.457-13.392,1.983-15.216-0.145c0.269-0.51,1.406-2.363,4.334-3.695c2.981-1.354,5.928-3.755,5.131-5.416    c0-0.001-0.001-0.001-0.001-0.002c-3.32-0.096-7.228,2.593-11.628,4.967c-1.797,0.97-3.674,1.889-5.63,2.542    c-6.77,2.253-25.281,3.516-31.3,3.516h-11.765h-0.25h-11.765c-6.007,0-24.519-1.263-31.289-3.516    c-1.96-0.653-3.84-1.572-5.64-2.542c-4.406-2.374-8.314-5.062-11.617-4.967c0,0.001-0.001,0.001-0.001,0.002    c-0.796,1.661,2.15,4.062,5.131,5.416c2.931,1.334,4.059,3.189,4.324,3.697C153.893-271.324,146.869-271.851,140.489-273.307z     M206.825-276.889h33.553v-9.318h-33.553L206.825-276.889L206.825-276.889z M177.323-276.889h19.672v-9.318h-19.672V-276.889z"/>
		<g>
			<path style="fill:#66757F;" d="M151.393-277.147c-2.981-1.354-5.928-3.755-5.131-5.416c0-0.001,0.001-0.001,0.001-0.002     c3.304-0.095,7.212,2.592,11.617,4.967c-1.109,2.418-2.096,4.286-2.096,4.286s-0.023-0.052-0.068-0.137     C155.452-273.958,154.324-275.813,151.393-277.147z"/>
			<path style="fill:#66757F;" d="M267.148-282.565c0,0.001,0.001,0.001,0.001,0.002c0.796,1.661-2.15,4.062-5.131,5.416     c-2.928,1.333-4.065,3.185-4.334,3.695c-0.046,0.086-0.069,0.139-0.069,0.139s-0.987-1.867-2.095-4.285     C259.92-279.973,263.827-282.661,267.148-282.565z"/>
		</g>
		<g>
			<rect x="174.86" y="-275.722" style="fill:#99AAB5;" width="24.59" height="-11.648"/>
			<rect x="202.63" y="-275.722" style="fill:#99AAB5;" width="41.941" height="-11.648"/>
		</g>
		<g>
			<path style="fill:#CCD6DD;" d="M53.281-162.394c-2.173,1.707-3.322-13.995,8.533-26.317     c11.844-12.322,32.711-15.292,32.711-15.292l5.324,10.303c-2.13,1.713-4.294,3.161-6.397,4.28     c-11.288,5.994-19.069,17.942-25.791,27.152c1.426-2.487,2.447-4.632,2.447-4.632S58.253-166.308,53.281-162.394z"/>
			<path style="fill:#CCD6DD;" d="M93.339-255.559c7.553,0,14.08,3.775,18.516,9.682c-4.782-6.138-11.886-9.678-18.513-9.678     c-11.378,0-20.503,12.197-20.503,20.264c0,3.93,1.099,7.911,3.21,11.004c-1.814-2.217-3.577-5.429-3.577-9.574     C72.472-242.395,79.23-255.559,93.339-255.559z"/>
			<path style="fill:#CCD6DD;" d="M114.459-212.117c1.979-4.904,3.061-10.436,3.061-16.894c0-2.894-0.418-5.601-1.161-8.101     c1.049,3.232,1.624,6.728,1.624,10.361C117.983-221.768,116.645-216.788,114.459-212.117z"/>
			<path style="fill:#CCD6DD;" d="M69.992-156.003c6.042-6.394,19.194-17.419,28.797-27.022s23.825-27.375,23.825-43.725     c0-16.361-8.181-31.3-30.219-31.3c-14.939,0-23.984,15.428-22.403,24.895c1.462,8.789,7.265,11.542,9.268,12.24     c1.862,1.37,4.112,2.23,6.733,2.338c4.255,0.182,7.817-3.197,6.042-5.336c-2.731-3.277,0.694-8.203,4.267-1.069     c1.069,2.139-1.775,10.672-10.672,10.672c-7.464,0-19.194-7.942-19.194-20.981c0-13.028,9.603-26.305,27.375-26.305     c30.345,0,37.922,18.125,41.244,45.147c3.322,27.034-7.111,46.581-20.378,57.128c-11.23,8.92-12.88,3.971-26.203,11.139     c-9.239,4.984-4.619,19.684-4.619,19.684c-1.889-13.278,12.8-16.6,12.8-16.6c1.422-2.844,7.589,1.422,7.589,1.422     s11.969-9,19.081-9.478c7.111-0.478,7.942,6.633,0.353,9.011c-7.578,2.367-7.111,14.222-7.111,14.222l0.956,5.211     c0.944,5.211-8.42,9.956-8.067,7.828c0.819-4.892-5.689-4.631-7.817-1.422c-1.456,2.162-0.239,7.817,5.45,9.239     c5.689,1.422,10.9,0.944,4.745,4.267c-6.167,3.322-17.545-0.944-17.545-0.944l-9.478-7.589l-11.264,2.844     c0,0,2.492-2.605,3.914-6.394c1.422-3.789-3.561-6.406-5.45-2.617c-1.9,3.789-9.603,0.239-14.814-11.605     c-5.222-11.856,1.536-22.05,4.858-23.95c1.711-0.979,3.796-4.091,5.416-6.88C67.145-160.757,64.274-149.941,69.992-156.003z"/>
		</g>
		<path style="fill:#99AAB5;" d="M93.453-189.42c2.103-1.119,4.267-2.567,6.397-4.28c5.724-4.603,11.201-11.133,14.61-18.417    c2.186-4.671,3.524-9.651,3.524-14.633c0-3.633-0.575-7.129-1.624-10.361c-1.05-3.234-2.578-6.201-4.504-8.765    c-4.437-5.906-10.963-9.682-18.516-9.682c-14.108,0-20.867,13.164-20.867,21.697c0,4.144,1.764,7.356,3.577,9.574    c1.921,2.348,3.898,3.579,3.898,3.579s-0.258-0.057-0.688-0.207c-2.003-0.698-7.806-3.451-9.268-12.24    c-1.582-9.466,7.464-24.895,22.403-24.895c22.039,0,30.219,14.939,30.219,31.3c0,16.35-14.222,34.122-23.825,43.725    s-22.756,20.628-28.797,27.022c-5.717,6.062-2.847-4.753-2.522-5.932c0.018-0.067,0.03-0.109,0.03-0.109    c0.053-0.073,0.108-0.149,0.161-0.222C74.383-171.478,82.164-183.426,93.453-189.42z"/>
		<g>
			<path style="fill:#CCD6DD;" d="M355.664-162.394c-4.972-3.914-16.828-4.506-16.828-4.506s1.023,2.149,2.453,4.64     c-6.723-9.211-14.506-21.165-25.797-27.16c-2.103-1.119-4.267-2.567-6.397-4.28l5.324-10.303c0,0,20.855,2.97,32.711,15.292     S357.837-160.688,355.664-162.394z"/>
			<path style="fill:#CCD6DD;" d="M292.669-237.366c-0.791,2.569-1.233,5.363-1.233,8.355c0,6.524,1.105,12.103,3.122,17.044     c-2.228-4.715-3.596-9.748-3.596-14.784C290.962-230.479,291.566-234.064,292.669-237.366z"/>
			<path style="fill:#CCD6DD;" d="M292.805-237.779c0.011-0.031,0.021-0.063,0.032-0.094     C292.826-237.842,292.815-237.811,292.805-237.779z"/>
			<path style="fill:#CCD6DD;" d="M338.953-233.156c1.581-9.466-7.464-24.895-22.403-24.895c-22.039,0-30.219,14.939-30.219,31.3     c0,16.35,14.222,34.122,23.825,43.725c9.603,9.603,22.756,20.628,28.797,27.022c5.725,6.071,2.839-4.783,2.521-5.937     c1.622,2.79,3.711,5.905,5.429,6.885c3.311,1.9,10.069,12.095,4.847,23.95c-5.2,11.844-12.914,15.394-14.802,11.605     c-1.9-3.789-6.884-1.172-5.461,2.617c1.422,3.789,3.914,6.394,3.914,6.394l-11.253-2.844l-9.489,7.589     c0,0-11.378,4.267-17.533,0.944c-6.167-3.322-0.956-2.844,4.733-4.267c5.689-1.422,6.906-7.077,5.45-9.239     c-2.128-3.209-8.624-3.47-7.817,1.422c0.353,2.128-9.011-2.617-8.055-7.828l0.944-5.211c0,0,0.478-11.856-7.111-14.222     c-7.589-2.378-6.758-9.489,0.353-9.011s19.081,9.478,19.081,9.478s6.167-4.267,7.589-1.422c0,0,14.7,3.322,12.8,16.6     c0,0,4.619-14.7-4.619-19.684c-13.323-7.168-14.973-2.219-26.192-11.139c-13.278-10.547-23.711-30.094-20.389-57.128     c3.322-27.022,10.9-45.147,41.244-45.147c17.772,0,27.375,13.278,27.375,26.305c0,13.039-11.73,20.981-19.194,20.981     c-8.897,0-11.742-8.533-10.672-10.672c3.573-7.134,6.997-2.207,4.267,1.069c-1.775,2.139,1.786,5.518,6.042,5.336     c2.621-0.108,4.871-0.968,6.733-2.338C331.689-221.614,337.491-224.367,338.953-233.156z"/>
			<path style="fill:#CCD6DD;" d="M315.617-255.559c14.097,0,20.855,13.164,20.855,21.697c0,4.144-1.764,7.356-3.577,9.573     c2.111-3.093,3.21-7.074,3.21-11.003c0-8.067-9.114-20.264-20.491-20.264c-6.684,0-13.856,3.6-18.638,9.837     C301.416-251.715,307.992-255.559,315.617-255.559z"/>
		</g>
		<path style="fill:#99AAB5;" d="M341.289-162.26c0.052,0.071,0.104,0.144,0.156,0.215c0,0,0.012,0.041,0.029,0.105    c0.318,1.153,3.205,12.007-2.521,5.937c-6.042-6.394-19.194-17.419-28.797-27.022s-23.825-27.375-23.825-43.725    c0-16.361,8.181-31.3,30.219-31.3c14.939,0,23.984,15.428,22.403,24.895c-1.462,8.789-7.264,11.542-9.268,12.24    c-0.429,0.15-0.688,0.207-0.688,0.207s1.977-1.231,3.898-3.58c1.814-2.217,3.577-5.429,3.577-9.573    c0-8.533-6.758-21.697-20.855-21.697c-7.626,0-14.201,3.844-18.641,9.84c-1.722,2.325-3.125,4.97-4.139,7.846    c-0.011,0.031-0.021,0.062-0.032,0.094c-0.048,0.136-0.09,0.276-0.136,0.413c-1.103,3.302-1.708,6.887-1.708,10.615    c0,5.036,1.368,10.069,3.596,14.784c3.414,7.224,8.854,13.696,14.538,18.267c2.13,1.713,4.294,3.161,6.397,4.28    C326.783-183.424,334.566-171.471,341.289-162.26z"/>
	</g>
</g>
<g>
</g>
<g>
</g>
<g>
</g>
<g>
</g>
<g>
</g>
<g>
</g>
<g>
</g>
<g>
</g>
<g>
</g>
<g>
</g>
<g>
</g>
<g>
</g>
<g>
</g>
<g>
</g>
<g>
</g>
</svg>
