<?xml version="1.0" encoding="iso-8859-1"?>
<!-- Generator: Adobe Illustrator 19.0.0, SVG Export Plug-In . SVG Version: 6.00 Build 0)  -->
<svg xmlns="http://www.w3.org/2000/svg" xmlns:xlink="http://www.w3.org/1999/xlink" version="1.1" id="Capa_1" x="0px" y="0px" viewBox="0 0 512 512" style="enable-background:new 0 0 512 512;" xml:space="preserve">
<g transform="matrix(1.25 0 0 -1.25 0 45)">
	<g>
		<g>
			<path style="fill:#244AA5;" d="M409.6-271.2c0-25.134-20.378-45.511-45.511-45.511H45.511C20.378-316.711,0-296.334,0-271.2     v204.8c0,25.134,20.378,45.511,45.511,45.511h318.578c25.134,0,45.511-20.378,45.511-45.511V-271.2z"/>
			<path style="fill:#D0A650;" d="M193.536-119.83c0.592,0.011,1.786,0.046,2.378,0.057c1.399-1.456,2.844-2.879,4.278-4.301     c-0.023-1.104,0.432-1.9,1.547-2.23c-0.99-0.262-2.014-0.353-3.015-0.455c-0.421-0.569-0.922-1.013-1.547-1.343     c0.171-1.627,1.661-2.537,2.685-3.652c1.058-0.102,2.253-0.08,3.061-0.899c0.785-0.023,1.559-0.046,2.344-0.057     c0-1.013,0-2.037,0.011-3.038c0.978,0.091,2.196-0.08,2.48,1.126c1.695,0.011,3.413,0.023,5.12-0.011     c0.455-0.944,1.513-1.001,2.355-1.399c0.102-0.535,0.307-1.582,0.41-2.116c0.865,1.104,1.684,2.526,3.265,2.583     c0.489-0.671,0.99-1.354,1.502-2.025c0.887-0.057,1.832-0.148,2.23-1.115c0.375-0.011,1.172-0.046,1.57-0.057     c0-1.9-0.125-3.812,0.114-5.7c0.228-0.137,0.717-0.421,0.933-0.569c0.023-1.525,0.023-3.038,0-4.562     c0.956-0.819,2.56-1.547,3.402-0.137h1.354c0.58-0.842,1.286-1.582,2.162-2.139c0.023-1.49,0-2.981,0.023-4.46     c1.968-0.717,0.705-3.413,1.081-5.018c1.001-0.683,1.798-1.582,2.264-2.731c0.273,0.512,0.58,1.013,0.876,1.513     c1.126-0.023,2.264-0.034,3.413-0.068c0.512-0.592,1.024-1.195,1.582-1.798c0.228-0.239,0.717-0.751,0.933-1.013     c0.796-0.193,1.582-0.444,2.219-0.99c0.671-0.046,1.343-0.068,2.025-0.114c0.535-1.217,1.911-1.047,3.004-1.286     c-0.375-0.273-1.115-0.831-1.49-1.104c-0.046-2.492,0.182-4.995-0.114-7.487c-0.216-0.114-0.683-0.375-0.91-0.501     c-0.023-1.274-0.239-2.514-1.092-3.538c0.535,0,1.559,0.023,2.094,0.023c0.023-0.284,0.068-0.865,0.091-1.161h0.978     c0.023,0.296,0.068,0.876,0.114,1.161h1.82c0.023-0.284,0.046-0.831,0.068-1.115c1.081-0.193,2.662,0.398,3.265-0.853     c2.799-0.057,5.598-0.034,8.42-0.011c0.023-0.375,0.091-1.126,0.114-1.49c0.444-0.501,0.865-1.001,1.286-1.513     c0.933,0,1.889,0,2.844-0.023c-0.023-0.41-0.068-1.24-0.091-1.661c0.865-0.774,1.82-1.468,3.049-1.468     c0,0.535,0.023,1.559,0.023,2.082c0.466-0.011,1.377-0.011,1.843-0.023c0.023,0.284,0.091,0.853,0.125,1.138     c1.343-0.08,3.072,0.341,3.379-1.445c0.296,0.41,0.831,1.217,1.092,1.627c0.887-0.262,1.627-0.853,2.355-1.399     c0-0.375,0.023-1.138,0.023-1.513c1.536-0.319,0.933-1.98,1.069-3.083c-0.649-0.501-1.297-1.013-1.934-1.525     c0-1.57,0-3.152-0.023-4.722c-0.489-0.011-1.422-0.034-1.889-0.046v-5.393c-1.092-0.876-2.071-1.855-3.072-2.799v-3.3     c-0.728-0.614-1.422-1.217-2.128-1.82v-1.388c-0.785-0.694-1.65-1.24-2.685-1.365c-0.489-0.58-0.979-1.172-1.445-1.775     c-0.341-0.091-1.001-0.273-1.343-0.353c0.557-0.319,1.092-0.637,1.65-0.979c-0.023-2.162-0.046-4.335-0.023-6.497     c-1.308-1.104-3.026-1.035-4.619-1.024c-0.557-0.683-1.115-1.365-1.695-2.048c-1.195,0.011-2.037-0.785-2.776-1.604     c0.023-1.035,0.046-2.071,0.091-3.106c1.82-0.967,2.537-3.63,4.87-3.527c0.023-1.729,0.33-3.698-1.32-4.824     c-0.728,0.023-1.479,0.023-2.196,0.023c-1.138-1.638-3.618-0.523-5.313-0.808v1.889c-0.535,0.023-1.047,0.034-1.57,0.046     c-0.535-0.626-1.07-1.24-1.627-1.843c-0.933-0.114-1.707-0.58-2.423-1.138c-1.126-0.08-2.264-0.046-3.379-0.046     c-0.023-0.284-0.068-0.865-0.091-1.172c-0.842,0.023-1.684,0.046-2.526,0.057c-0.717-0.694-1.286-1.525-1.354-2.571     c-0.58-0.501-1.183-1.001-1.764-1.502c0.046-1.217,0.068-2.537-1.217-3.106c0.262-1.377-0.751-3.789,1.195-4.164     c-0.023-0.501-0.034-1.001-0.057-1.513c-2.651-0.08-5.291-0.034-7.942-0.046c-0.023,0.899-0.023,1.786-0.046,2.674     c-1.911,0.546-0.728,3.004-1.058,4.426c-0.296,0.023-0.853,0.046-1.138,0.057c0,0.455,0.023,1.343,0.023,1.786     c-0.865,0.091-1.866-0.046-2.219,0.933h-1.559c-0.046,0.705-0.091,1.445-0.137,2.15c-1.593,0-3.22,0-4.824,0.011     c-0.046-0.375-0.08-1.115-0.102-1.49c-0.466-0.501-0.91-1.001-1.365-1.513c-0.819,0-1.616,0-2.435,0     c-0.444-0.626-0.853-1.24-1.274-1.877c-1.195-0.011-2.401-0.034-3.595-0.068c-0.421-0.501-0.887-0.979-1.377-1.399     c-0.023-0.387-0.046-1.138-0.057-1.502c-0.922-0.091-1.923-0.102-2.185-1.195h-2.355c-0.489-0.626-0.978-1.274-1.468-1.923     c-1.456,0-2.913,0-4.369-0.011c-0.683-1.695-2.742-0.865-4.142-1.104c-0.58-0.842-1.297-1.547-2.162-2.105     c-0.023-0.922-0.034-1.855-0.034-2.799c-0.284-0.011-0.853-0.057-1.138-0.068c-0.011-0.899-0.023-1.798-0.023-2.708     c-0.66-0.501-1.297-1.024-1.946-1.547c0.068-2.423,0.057-4.836,0.011-7.27c0.649-0.512,1.286-1.024,1.946-1.547     c0.011-2.15,0-4.278,0.011-6.417c-0.455-0.432-0.899-0.876-1.343-1.331c-0.41,0-1.229-0.023-1.638-0.034     c-0.011-0.421-0.046-1.252-0.046-1.673c-0.319-0.319-0.967-0.956-1.286-1.274c-1.775,0-3.55,0-5.313-0.023     c-0.808-1.024-1.661-2.025-2.514-3.038c-1.183,0-2.367,0.011-3.55,0.023c-0.159,0.91-0.353,1.832-0.978,2.549     c-0.091,2.367-0.046,4.722-0.046,7.088c0.99,0.956,1.957,1.934,2.97,2.867c0,1.035,0.011,2.059,0,3.083     c-0.239,0.137-0.728,0.41-0.978,0.558c-0.216,3.197-0.011,6.428-0.068,9.648h-1.764c-0.159,0.99,0.023,2.298-1.308,2.401     c-0.011,2.423-0.023,4.836,0.034,7.259c-0.592,0.501-1.183,1.013-1.775,1.525c-0.159,0.933-0.159,2.002-1.229,2.355     c-0.011,0.694-0.034,1.388-0.046,2.082c-1.274,0.569-1.058,2.606,0.296,2.89c-1.126,0.99-2.173,2.059-3.254,3.083     c0,0.33-0.011,0.99-0.011,1.32c-1.252,0.25-2.367,0.853-3.584,1.183c-0.341,0.876-1.195,0.956-2.014,0.979     c-0.193,0.228-0.592,0.649-0.785,0.876c-0.762,0.08-1.411,0.398-1.934,0.933c-0.353,0.011-1.058,0.023-1.411,0.034     c-0.432,1.9-1.32,3.675-1.07,5.689c-0.489,0.432-0.944,0.91-1.377,1.399c-2.458,0.091-4.904-0.034-7.35,0.046     c-0.637-0.023-1.161,0.171-1.593,0.626c-0.546,0.558-1.115,1.092-1.695,1.604c-0.034,1.627,0.057,3.277-0.08,4.892     c-0.421,1.138-1.138,2.116-1.809,3.106c-0.011,0.375-0.046,1.126-0.057,1.49c-0.273,0.034-0.819,0.125-1.092,0.148     c0,0.387,0,1.161,0.011,1.536c-1.183,0.717-0.717,2.207-0.887,3.322c-0.978,0.023-1.968,0.046-2.935,0.068     c0,0.387-0.011,1.149-0.011,1.513c-0.501,0.478-0.978,0.933-1.468,1.388c-0.398,0.023-1.195,0.068-1.582,0.102     c-0.011,0.387-0.034,1.149-0.034,1.536c-0.91,0.569-1.149,1.502-1.115,2.514c0.501,0.023,1.49,0.068,1.991,0.08     c0,1.798,0.023,3.607-0.068,5.416c-0.592,1.115-1.092,2.332-2.037,3.209c-0.239,0.284-0.717,0.865-0.956,1.149     c-0.353,0.034-1.047,0.091-1.388,0.114c-0.444,0.432-0.876,0.865-1.308,1.297c0,0.751,0,1.479-0.011,2.23     c-1.502,0.307-0.944,1.957-1.126,3.061c-1.809,1.183-0.216,3.379,0.296,4.858c0.33,0.421,0.705,0.819,1.092,1.206     c0.671,0.671,1.274,1.399,1.832,2.173h2.606c0.512-0.671,1.035-1.32,1.559-1.98c0.432,0.023,1.297,0.08,1.729,0.114v-2.025     c3.265,0,6.531,0.023,9.796-0.023c0.091,0.956-0.08,2.128,1.138,2.332c0.023,1.866,0.023,3.732,0.091,5.598     c1.138,0.091,2.446-0.125,3.3,0.865c0.387,0.011,1.161,0.057,1.547,0.08c-0.011,1.024-0.011,2.025,0,3.026     c1.57,0,3.163-0.08,4.733,0.08c0.137,0.273,0.41,0.842,0.535,1.115c1.058,0.057,1.707-0.489,1.98-1.479     c0.58,0.694,1.172,1.388,1.775,2.048c1.001,0.228,1.923,0.649,2.583,1.456c1.035,0.865,2.344,1.297,3.527,1.946     c-0.296,0.284-0.865,0.853-1.161,1.138c-0.034,1.399-0.978,2.378-2.082,3.095c-0.023,1.377-0.023,2.753,0,4.13     c0.842,0.762,1.65,1.536,2.423,2.355h2.128c1.263,1.718,2.822,3.174,4.483,4.483v1.57c0.41-0.023,1.229-0.023,1.638-0.034     c0.159-1.013,1.013-1.104,1.843-1.126c0.398,0.546,0.853,1.047,1.365,1.502c0.023,0.319,0.068,0.944,0.102,1.252     c1.547,1.035,0.489,3.334,0.831,4.904c0.762,0.762,1.843,1.343,2.185,2.423c-0.307,1.07-1.399,1.627-2.128,2.401     c0.535,2.514-1.798,3.641-3.095,5.336c-0.592,0.068-1.172,0.125-1.752,0.182c-0.193,0.842-0.114,1.877-0.967,2.412     c-0.034,1.195-0.034,2.378-0.023,3.584c2.537,0.046,5.086-0.171,7.612,0.102c0.125,0.228,0.375,0.66,0.501,0.876     c1.07,0.66,2.264,1.138,3.22,1.968c1.058,0.034,2.116,0.046,3.186,0.046c0.501,0.66,1.024,1.297,1.536,1.934     c0.432-0.011,1.297-0.046,1.729-0.057C193.434-120.638,193.513-120.103,193.536-119.83"/>
			<g>
				<path style="fill:#EDEDED;" d="M318.805-68.812l-4.38-13.437l-13.904,0.148l11.412-8.306l-4.437-13.198l11.423,8.306      l11.173-8.306l-4.335,13.437l11.332,8.067h-14.131L318.805-68.812z"/>
				<path style="fill:#EDEDED;" d="M273.18-56.524l-4.38-13.437l-13.926,0.148l11.435-8.294l-4.437-13.21l11.423,8.306l11.173-8.306      L280.11-77.88l11.355,8.067h-14.131L273.18-56.524z"/>
				<path style="fill:#EDEDED;" d="M227.556-50.528l-4.38-13.426l-13.915,0.137l11.423-8.294l-4.437-13.21l11.423,8.306      l11.173-8.306l-4.358,13.449l11.355,8.055l-14.131,0.011L227.556-50.528z"/>
				<path style="fill:#EDEDED;" d="M90.783-68.812l4.369-13.437l13.915,0.148l-11.412-8.306l4.426-13.198L90.658-95.3l-11.173-8.306      l4.358,13.437l-11.344,8.067h14.12L90.783-68.812z"/>
				<path style="fill:#EDEDED;" d="M136.385-56.524l4.369-13.437l13.915,0.148l-11.412-8.294l4.426-13.21l-11.423,8.306      l-11.184-8.306l4.369,13.437l-11.344,8.067h14.12L136.385-56.524z"/>
				<path style="fill:#EDEDED;" d="M181.999-50.528l4.369-13.426l13.915,0.137l-11.423-8.294l4.437-13.21l-11.423,8.306      l-11.184-8.306l4.369,13.449l-11.344,8.055l14.12,0.011L181.999-50.528z"/>
			</g>
		</g>
	</g>
</g>
<g>
</g>
<g>
</g>
<g>
</g>
<g>
</g>
<g>
</g>
<g>
</g>
<g>
</g>
<g>
</g>
<g>
</g>
<g>
</g>
<g>
</g>
<g>
</g>
<g>
</g>
<g>
</g>
<g>
</g>
</svg>
