<?xml version="1.0" encoding="iso-8859-1"?>
<!-- Generator: Adobe Illustrator 19.0.0, SVG Export Plug-In . SVG Version: 6.00 Build 0)  -->
<svg xmlns="http://www.w3.org/2000/svg" xmlns:xlink="http://www.w3.org/1999/xlink" version="1.1" id="Capa_1" x="0px" y="0px" viewBox="0 0 512 512" style="enable-background:new 0 0 512 512;" xml:space="preserve">
<g transform="matrix(1.25 0 0 -1.25 0 45)">
	<g>
		<g>
			<path style="fill:#CE1126;" d="M364.089-20.889H216.178V-168.8H0v-102.4c0-25.134,20.378-45.511,45.511-45.511h318.578     c25.134,0,45.511,20.378,45.511,45.511v204.8C409.6-41.266,389.222-20.889,364.089-20.889"/>
			<path style="fill:#002B7F;" d="M162.884-87.221l-9.523,6.918l-9.523-6.918l3.641,11.196l-9.523,6.918h11.765l3.641,11.196     l3.641-11.196h11.765l-9.523-6.918L162.884-87.221z M136.09-115.438l-6.349,4.619l-6.349-4.619l2.423,7.464l-6.349,4.608h7.851     l2.423,7.464l2.423-7.464h7.839l-6.337-4.608L136.09-115.438z M119.831-162.69l-12.686,9.227l-12.698-9.227l4.847,14.928     l-12.698,9.227h15.69l4.858,14.928l4.847-14.928h15.69l-12.698-9.227C114.984-147.762,119.831-162.69,119.831-162.69z      M72.101-95.334l-10.16,7.373l-10.149-7.373l3.88,11.935l-10.16,7.384h12.55l3.88,11.935l3.88-11.935h12.561l-10.16-7.384     C68.221-83.398,72.101-95.334,72.101-95.334z M103.265-39.036l3.88,11.935l3.88-11.935h12.55l-10.16-7.384l3.88-11.935     l-10.149,7.373l-10.16-7.373l3.88,11.935l-10.16,7.384C90.704-39.036,103.265-39.036,103.265-39.036z M216.178-20.934H45.511     C20.378-20.934,0-41.312,0-66.446v-102.4h216.178V-20.934z"/>
			<g>
				<path style="fill:#FFFFFF;" d="M96.984-58.31l10.16,7.384l10.149-7.384l-3.88,11.935l10.16,7.384h-12.55l-3.88,11.935      l-3.88-11.935H90.704l10.16-7.384L96.984-58.31z"/>
				<path style="fill:#FFFFFF;" d="M65.82-75.957l-3.88,11.935l-3.88-11.935h-12.55l10.149-7.384l-3.88-11.935l10.16,7.384      l10.16-7.384l-3.88,11.935l10.149,7.384H65.82z"/>
				<path style="fill:#FFFFFF;" d="M157.002-69.062l-3.641,11.196l-3.63-11.196h-11.776l9.523-6.918l-3.641-11.196l9.523,6.918      l9.523-6.918l-3.63,11.196l9.512,6.918H157.002z"/>
				<path style="fill:#FFFFFF;" d="M132.164-103.31l-2.423,7.464l-2.423-7.464h-7.851l6.349-4.608l-2.423-7.464l6.349,4.608      l6.349-4.608l-2.423,7.464l6.349,4.608H132.164z"/>
				<path style="fill:#FFFFFF;" d="M111.991-138.49l-4.847,14.928l-4.847-14.928H86.596l12.698-9.227l-4.847-14.928l12.698,9.227      l12.698-9.227l-4.858,14.928l12.698,9.227H111.991z"/>
			</g>
		</g>
	</g>
</g>
<g>
</g>
<g>
</g>
<g>
</g>
<g>
</g>
<g>
</g>
<g>
</g>
<g>
</g>
<g>
</g>
<g>
</g>
<g>
</g>
<g>
</g>
<g>
</g>
<g>
</g>
<g>
</g>
<g>
</g>
</svg>
