<?xml version="1.0" encoding="iso-8859-1"?>
<!-- Generator: Adobe Illustrator 19.0.0, SVG Export Plug-In . SVG Version: 6.00 Build 0)  -->
<svg xmlns="http://www.w3.org/2000/svg" xmlns:xlink="http://www.w3.org/1999/xlink" version="1.1" id="Capa_1" x="0px" y="0px" viewBox="0 0 512 512" style="enable-background:new 0 0 512 512;" xml:space="preserve">
<g transform="matrix(1.25 0 0 -1.25 0 45)">
	<path style="fill:#D21034;" d="M364.089-20.889H45.511C20.378-20.889,0-41.267,0-66.4v-204.8c0-25.133,20.378-45.511,45.511-45.511   h318.578c25.133,0,45.511,20.378,45.511,45.511v204.8C409.6-41.267,389.222-20.889,364.089-20.889z"/>
	<g>
		<path style="fill:#009543;" d="M0-271.2c0-25.133,20.378-45.511,45.511-45.511h318.578c25.133,0,45.511,20.378,45.511,45.511    v102.4H0V-271.2z"/>
		<path style="fill:#141414;" d="M19.715-28.914C7.809-37.123,0-50.846,0-66.4v-204.8c0-15.685,7.937-29.519,20.012-37.703    l173.41,105.97H409.6v68.267H193.422L19.715-28.914z"/>
		<path style="fill:#FDCE12;" d="M6.4-43.131C2.339-49.941,0-57.896,0-66.4v-204.8c0-8.504,2.339-16.459,6.4-23.269l187.022,114.291    H409.6v22.756H193.422L6.4-43.131z"/>
	</g>
	<g>
		<polygon style="fill:#141414;" points="0,-66.4 0,-271.2 170.667,-168.8   "/>
		<g>
			<path style="fill:#FDCE12;" d="M49.778-209.822c0,0,36.978,5.689,36.978,42.212c0,22.449-19.433,34.839-34.611,34.839     c-15.167,0-31.289-11.366-31.289-31.289s18.489-26.078,27.5-26.078s22.756,7.111,20.856,22.756     c-5.279-21.766-27.443-21.14-36.022-8.056c-9.489,14.461,5.211,35.078,24.178,29.389c17.965-5.382,18.899-23.666,12.8-35.089     c-7.589-14.222-20.15-13.505-20.15-13.505L49.778-209.822z"/>
			<path style="fill:#FDCE12;" d="M38.878-177.101c0,0-0.364,5.075,1.9,8.056c7.339,9.716,20.378,16.6,22.039,15.644     c1.661-0.945-4.506-2.833-10.9-10.422c-3.072-3.629-4.927-7.134-7.35-9.489C41.939-175.872,38.878-177.101,38.878-177.101"/>
			<path style="fill:#FDCE12;" d="M63.067-177.101c0,0,0.364,5.075-1.9,8.056c-7.339,9.716-20.378,16.6-22.039,15.644     c-1.661-0.945,4.506-2.833,10.9-10.422c3.072-3.629,4.927-7.134,7.35-9.489C60.006-175.872,63.067-177.101,63.067-177.101"/>
		</g>
	</g>
</g>
<g>
</g>
<g>
</g>
<g>
</g>
<g>
</g>
<g>
</g>
<g>
</g>
<g>
</g>
<g>
</g>
<g>
</g>
<g>
</g>
<g>
</g>
<g>
</g>
<g>
</g>
<g>
</g>
<g>
</g>
</svg>
