<?xml version="1.0" encoding="iso-8859-1"?>
<!-- Generator: Adobe Illustrator 19.0.0, SVG Export Plug-In . SVG Version: 6.00 Build 0)  -->
<svg xmlns="http://www.w3.org/2000/svg" xmlns:xlink="http://www.w3.org/1999/xlink" version="1.1" id="Capa_1" x="0px" y="0px" viewBox="0 0 512 512" style="enable-background:new 0 0 512 512;" xml:space="preserve">
<g transform="matrix(1.25 0 0 -1.25 0 45)">
	<g>
		<g>
			<path style="fill:#EEEEEE;" d="M409.6-271.2c0-25.134-20.378-45.511-45.511-45.511H45.511C20.378-316.711,0-296.334,0-271.2     v204.8c0,25.134,20.378,45.511,45.511,45.511h318.578c25.134,0,45.511-20.378,45.511-45.511V-271.2z"/>
			<path style="fill:#379543;" d="M147.911-246.305c0,0-2.128-1.434-4.267-0.956c-2.128,0.478-5.211-0.102-5.211-0.102     l-18.352,31.607c0,0-9.853-9.216-18.864-1.161c4.733-1.422,10.422,8.067,17.306,4.039c-6.406,5.916-18.728-4.506-24.895,9.956     c8.533-5.222,13.517,3.083,21.333-2.139c-7.589,8.533-18.728-0.785-23.222,10.741c6.872-2.446,12.561,5.063,18.716,0     c-5.211,10.593-21.094-4.107-24.178,13.676c6.884-3.561,14.461,0.944,18.728-2.617c-8.055,15.417-15.406-2.355-22.278,20.15     c4.745-6.633,11.378-0.228,18.25-10.661c-4.972,18.967-18.489,3.083-22.756,25.361c8.533,2.844,12.083-9.728,18.967-12.322     c-4.267,14.7-13.278,10.422-7.828,27.728c12.334-6.155,6.872-16.589,10.911-28.683c3.072,4.267-0.956,9.728,1.183,13.517     c2.128,3.789,3.311,5.689,2.606,7.589c11.139-12.8-2.378-23.711-1.183-28.217c1.183-4.494,3.072-6.155,3.072-6.155     s-1.183,6.872,1.195,10.9c2.367,4.028,6.155,5.45,5.916,9.011c2.617-3.083,1.661-10.194-1.422-13.756     c-3.072-3.55-3.55-12.322-1.65-15.406c-0.728,9.614,7.828,9.011,6.406,18.728c4.733-0.944,6.406-11.856,1.183-15.883     c-5.222-4.028-1.183-15.167-1.183-15.167s0.228,7.1,3.072,10.422s4.506,6.884,3.789,10.194c3.8-3.072,4.267-11.844,1.661-16.111     c-2.606-4.267-6.633-6.645-2.606-13.517c-0.478,12.561,8.055,10.206,7.828,18.25c4.972-3.789,2.128-11.856-0.717-14.461     c-2.844-2.594-2.367-8.533-2.367-8.533s3.083,4.278,5.45,5.939c2.367,1.65,4.028,6.394,4.028,6.394s2.935-14.78-6.394-15.406     C129.9-220.239,143.167-240.617,147.911-246.305"/>
			<g>
				<path style="fill:#0081C7;" d="M272.361-264.76l-9.478-4.54l9.011,29.15l5.689,3.789l14.689,60.211h-5.45l14.928,27.261v-32.233      l-4.733,4.255l-14.382-60.279l3.47-6.554l-7.35-29.4L272.361-264.76z"/>
				<path style="fill:#0081C7;" d="M264.943-255.544l-10.251-3.083l15.144,26.499l6.372,2.458l33.576,63.078l-5.325,1.183      l20.503,23.37l-7.02-31.471l-3.686,5.188l-33.28-63.215l1.957-6.44l-13.562-27.09L264.943-255.544z"/>
				<path style="fill:#0081C7;" d="M255.09-259.253l-10.513,0.068l20.867,22.244l6.781,0.922l43.85,51.94l-4.892,2.389      l25.361,17.988l-14.131-28.968l-2.378,5.882l-43.611-52.156l0.228-7.418l-19.456-23.211L255.09-259.253z"/>
			</g>
			<g>
				<path style="fill:#F4C63D;" d="M165.934-160.972c-3.55-7.111-11.139-5.678-13.505-3.322c-2.606-5.211-11.389-0.705-11.389,3.322      c-4.016-2.844-8.294-0.478-8.761,2.605c-6.167-0.944-11.378,5.45-9.478,9.25c-5.689,1.183-7.361,7.817-3.322,10.183      c-12.095-0.228-21.572,3.55-18.022,9.011c-11.139,1.183-15.167,6.406-13.028,9.717c-11.617,1.422-16.839,6.406-15.178,11.139      c-15.406,2.617-18.955,10.445-17.306,13.756c-12.8,2.844-16.35,9.239-13.505,12.322c-7.111,0.478-8.533,7.589-6.167,10.194      c-8.294,3.789-6.633,13.039-1.058,12.322c5.564-0.705,23.575-10.422,56.525-16.828c1.9,1.422,5.45,0.717,11.139-1.9      c5.689-2.606,32.961-10.183,40.539-13.028c7.589-2.844,11.594-8.715,10.672-13.756c-1.661-9-8.306-10.422-5.928-13.028      c2.367-2.617,9.478,3.55,14.222,0.705C167.117-121.15,165.934-160.972,165.934-160.972"/>
				<path style="fill:#F4C63D;" d="M244.713-160.972c3.55-7.111,11.15-5.678,13.505-3.322c2.617-5.211,11.389-0.705,11.389,3.322      c4.028-2.844,8.306-0.478,8.772,2.605c6.155-0.944,11.378,5.45,9.478,9.25c5.689,1.183,7.361,7.817,3.322,10.183      c12.083-0.228,21.572,3.55,18.011,9.011c11.139,1.183,15.167,6.406,13.028,9.717c11.628,1.422,16.85,6.406,15.178,11.139      c15.405,2.617,18.967,10.445,17.306,13.756c12.8,2.844,16.361,9.239,13.517,12.322c7.111,0.478,8.533,7.589,6.155,10.194      c8.294,3.789,6.633,13.039,1.07,12.322c-5.575-0.705-23.575-10.422-56.536-16.828c-1.889,1.422-5.45,0.717-11.139-1.9      c-5.689-2.606-32.95-10.183-40.528-13.028c-7.6-2.844-11.594-8.715-10.672-13.756c1.65-9,8.294-10.422,5.916-13.028      c-2.355-2.617-9.466,3.55-14.222,0.705C243.53-121.15,244.713-160.972,244.713-160.972"/>
				<path style="fill:#F4C63D;" d="M164.978-165.489c-1.422-4.972-4.983-10.433-10.9-14.939c-5.928-4.494-9-11.844-8.772-16.589      c0.239-4.745-1.661-8.283-4.506-9.478l2.606-0.956c0,0-4.255-5.678-6.633-6.155c-2.378-0.478-13.756,0.944-15.883-1.183      c-2.128-2.139-6.394-10.661-3.55-12.334c2.833-1.661,4.028-4.506,5.678-6.155c1.661-1.661,10.661,0.956,12.572,2.606      c1.889,1.661,1.661,9.956,3.311,10.9c1.661,0.944,17.306,8.055,17.306,8.055l0.239-3.561c0,0,2.605,3.095,4.745,4.039      c2.128,0.944,2.606,5.45,3.789,7.589c1.183,2.128,10.194,10.194,22.039,11.617C198.872-190.611,164.978-165.489,164.978-165.489      "/>
				<path style="fill:#F4C63D;" d="M245.464-165.489c1.422-4.972,4.983-10.433,10.9-14.939c5.928-4.494,9-11.844,8.772-16.589      c-0.239-4.745,1.661-8.283,4.506-9.478l-2.617-0.956c0,0,4.267-5.678,6.645-6.155c2.378-0.478,13.756,0.944,15.883-1.183      c2.128-2.139,6.394-10.661,3.55-12.333c-2.833-1.661-4.028-4.506-5.678-6.155c-1.661-1.661-10.661,0.956-12.572,2.606      c-1.889,1.661-1.673,9.956-3.311,10.9c-1.673,0.944-17.317,8.055-17.317,8.055l-0.228-3.561c0,0-2.617,3.095-4.745,4.039      c-2.139,0.944-2.606,5.45-3.789,7.589c-1.195,2.128-10.194,10.194-22.039,11.617      C211.558-190.611,245.464-165.489,245.464-165.489"/>
				<path style="fill:#F4C63D;" d="M183.41-194.878c-4.164,0.922-5.928-4.506-5.689-6.633c-4.506-0.478-14.939-14.939-16.589-19.911      c-1.661-4.983-0.239-7.122,1.889-6.884c-0.228-3.55,2.617-6.519,5.689-5.507c0.239-3.732,2.378-6.11,4.983-5.871      c0.478-4.016,2.844-6.394,5.689-5.678c0.478-4.028,3.55-6.178,7.578-4.983c0.239-5.45,4.267-10.661,9.956-4.733      c0.956-10.911,14.461-14.484,15.883-0.728c4.983-4.494,11.378-2.128,11.378,5.461c2.844-2.128,6.872,0.717,7.111,4.983      c2.844-1.183,5.222,1.65,5.222,6.394c3.072-1.661,5.222,1.764,4.983,5.393c3.311-1.126,6.394,2.185,5.689,5.985      c3.072-1.183,5.2,3.686,1.422,9.717c-5.939,9.489-15.178,16.361-15.178,16.361s1.422,5.643-6.155,6.736      C219.682-193.695,183.41-194.878,183.41-194.878"/>
				<path style="fill:#F4C63D;" d="M178.017-116.417c3.55,3.083,5.45,8.294,5.45,8.294s-3.322-0.478-5.45,2.139      c3.55,0.466,8.545,4.028,10.194,6.633c-3.083-0.239-5.097,1.9-5.097,1.9s6.997,1.889,7.942,5.928      c0.944,4.028,1.422,6.155,3.083,7.817c1.65,1.661-1.422,6.872-5.689,6.406c-4.267-0.478-9.478-0.956-10.433-3.561      c-1.661,4.506,0.956,9.478,4.972,10.194c4.039,0.705,6.554,0.944,6.554,0.944s0.558,3.322,3.402,3.083      c3.8,4.972,6.281,5.45,12.618,5.211c6.349-0.239,9.432-4.028,12.038-9c2.617-4.983,2.139-16.361,7.589-21.333      c-1.422-1.9-5.689,0-5.689,0s4.255-7.35,10.9-11.15c-0.944-1.65-4.972-2.367-4.972-2.367s5.211-4.506,6.394-9.717      C233.017-120.206,178.017-116.417,178.017-116.417"/>
			</g>
			<path style="fill:#A70033;" d="M231.219-112.651c-12.959,0-24.826,6.19-24.826,6.19s-11.878-6.19-24.826-6.19     c-12.959,0-23.461,5.951-23.461,5.951v-32.95c0-41.244,32.791-64,48.287-73.239c15.485,9.239,48.299,31.994,48.299,73.239v32.95     C254.692-106.7,244.178-112.651,231.219-112.651"/>
		</g>
	</g>
	<g>
		<g>
			<path style="fill:#FFFFFF;" d="M173.272-217.156h6.884v76.789h-6.884V-217.156z"/>
			<path style="fill:#FFFFFF;" d="M158.106-217.156h6.884v76.789h-6.884V-217.156z"/>
			<path style="fill:#FFFFFF;" d="M187.79-217.156h6.884v76.789h-6.884V-217.156z"/>
			<path style="fill:#FFFFFF;" d="M202.945-217.156h6.884v76.789h-6.884V-217.156z"/>
			<path style="fill:#FFFFFF;" d="M217.463-217.156h6.884v76.789h-6.884V-217.156z"/>
			<path style="fill:#FFFFFF;" d="M232.664-217.156h6.884v76.789h-6.884V-217.156z"/>
			<path style="fill:#FFFFFF;" d="M247.797-217.156h6.884v76.789h-6.884V-217.156z"/>
		</g>
	</g>
	<g>
		<g>
			<path style="fill:#172668;" d="M206.393-106.461c0,0-11.867-6.19-24.826-6.19s-23.461,5.951-23.461,5.951v-32.95     c0-1.126,0.114-2.196,0.159-3.311h96.256c0.057,1.115,0.171,2.185,0.171,3.311v32.95c0,0-10.513-5.951-23.472-5.951     C218.26-112.651,206.393-106.461,206.393-106.461"/>
			<g>
				<path style="fill:#0081C7;" d="M41.483-135.372H19.672c0,0,4.745-0.944,6.884-5.928c2.128-4.972,15.485-44.169,16.589-48.879      c1.661-7.054-3.561-8.476-3.561-8.476h21.572c0,0-6.167,1.07-4.267,8.476c1.9,7.396,14.461,44.134,15.883,48.64      c1.422,4.506,5.45,6.167,5.45,6.167H56.65c0,0,7.35-1.65,5.222-7.578c-2.139-5.928-11.617-37.695-11.617-37.695      s-10.672,31.778-12.561,37.695C35.794-137.033,41.483-135.372,41.483-135.372"/>
				<path style="fill:#0081C7;" d="M385.07-135.372h-19.911c0,0,3.868-2.662,3.868-7.817c0-5.245-0.137-44.749-0.137-48.538      c0-4.983-4.551-6.929-4.551-6.929h21.549c0,0-5.791,3.015-5.791,7.282v49.334C380.097-137.5,385.07-135.372,385.07-135.372"/>
			</g>
		</g>
	</g>
</g>
<g>
</g>
<g>
</g>
<g>
</g>
<g>
</g>
<g>
</g>
<g>
</g>
<g>
</g>
<g>
</g>
<g>
</g>
<g>
</g>
<g>
</g>
<g>
</g>
<g>
</g>
<g>
</g>
<g>
</g>
</svg>
