<?xml version="1.0" encoding="iso-8859-1"?>
<!-- Generator: Adobe Illustrator 19.0.0, SVG Export Plug-In . SVG Version: 6.00 Build 0)  -->
<svg xmlns="http://www.w3.org/2000/svg" xmlns:xlink="http://www.w3.org/1999/xlink" version="1.1" id="Capa_1" x="0px" y="0px" viewBox="0 0 512 512" style="enable-background:new 0 0 512 512;" xml:space="preserve">
<path style="fill:#00247D;" d="M455.112,71.113H56.894c-31.417,0-56.888,25.472-56.888,56.888v255.997  c0,31.417,25.472,56.888,56.888,56.888h398.218c31.417,0,56.888-25.472,56.888-56.888V128.001  C512,96.585,486.528,71.113,455.112,71.113z"/>
<path style="fill:#EEEEEE;" d="M270.225,256v-28.857l-100.977-70.698H94.881L237.059,256H270.225z"/>
<path style="fill:#CF1B2B;" d="M270.225,235.833l-113.364-79.388h-24.789l138.153,96.738L270.225,235.833L270.225,235.833z"/>
<path style="fill:#EEEEEE;" d="M115.199,156.446L0,238.45V256h47.388l142.192-99.554L115.199,156.446L115.199,156.446z"/>
<path style="fill:#CF1B2B;" d="M152.379,156.446L10.443,256h3.783h20.778l142.178-99.554L152.379,156.446L152.379,156.446z"/>
<path style="fill:#EEEEEE;" d="M237.072,71.113L94.894,170.668h74.367L270.223,99.97V71.113H237.072z"/>
<path style="fill:#CF1B2B;" d="M249.447,71.113l-142.164,99.554h24.789l138.153-96.738v-2.816H249.447z"/>
<path style="fill:#EEEEEE;" d="M9.432,96.649l132.795,92.949v-18.93h47.331L48.315,71.758C32.088,74.214,18.117,83.528,9.432,96.649  z"/>
<path style="fill:#CF1B2B;" d="M13.785,90.906l128.441,90.031v-10.268h10.155L24.589,81.185  C20.584,83.954,16.955,87.226,13.785,90.906z"/>
<path style="fill:#EEEEEE;" d="M270.225,128.001h-99.554V71.113H99.56v56.888H0.006v71.11H99.56V256h71.11v-56.888h99.554V128.001z"/>
<g>
	<path style="fill:#CF1B2B;" d="M156.449,256h-42.666V71.113h42.666V256z"/>
	<path style="fill:#CF1B2B;" d="M270.225,184.89H0.006v-42.666h270.219V184.89z"/>
</g>
<path style="fill:#FFFFFF;" d="M382.821,165.633h-71.708v131.255c0,21.646,71.708,52.735,71.708,52.735s71.708-31.089,71.708-52.735  V165.633H382.821z"/>
<path style="fill:#006129;" d="M382.821,341.86c-31.715-14.151-64.597-35.128-64.597-44.97V172.746h129.193V296.89  C447.418,306.746,414.536,327.724,382.821,341.86"/>
<path style="fill:#FFC6B5;" d="M356.669,254.445c-2.901,1.124-3.783-6.67,0-12.217c3.783-5.561,14.891-16.896,17.337-27.335  c2.446-10.453,6.741-8.889,8.818-11.776c2.062-2.901,2.375-6.229,0-6.898c-2.375-0.668-5.717-1.55-3.484-10.211  c2.219-8.675,11.776-7.779,11.776-1.778c0,5.987-2.219,11.321,0,15.986c2.219,4.679,7.339,3.556,10.439,12.444  c3.115,8.889,4.224,17.564,2.233,21.347c-2.005,3.769-3.115,18.218-5.788,21.987c-2.66,3.783-6.215,2.233-5.547-4.665  c0.668-6.883,5.106-16.213,6.443-21.106c1.337-4.892-2.005-14.891-6.898-16c-4.878-1.109-13.767,10.226-17.778,14.89  c-3.996,4.665-12.658,8.22-13.113,12.003C360.666,244.888,359.556,253.335,356.669,254.445"/>
<path style="fill:#FFFFFF;" d="M409.112,311.106c-5.106,1.109-16.441,5.333-22.67,3.783c-6.215-1.564-17.337,2.432-18.887,0.327  s1.55-13.667,2.005-19.001c0.441-5.333,1.109-10.667,0.213-10.667c-0.882,0-4.636,0-2.645-9.557  c1.977-9.557,5.319-27.107,5.319-27.107s-3.342-1.337-1.337-6.67c2.005-5.333,4.452-17.991,3.783-20.878  c-0.668-2.901-5.561-2.005-3.783-6.457c1.778-4.437,3.115-5.333,4.452-8.661c1.323-3.328,4.068-5.959,6.002-5.106  c1.92,0.839,4.11,3.328,6.272,1.991c2.162-1.323,2.389-3.328,5.276-3.1c2.887,0.213,9.074,6.016,7.779,7.324  c-1.294,1.308-3.641,5.831-4.039,11.477c-0.412,5.632-3.968,19.413-5.077,23.865c-1.109,4.437,3.783,15.104,6.443,25.102  C400.891,277.77,409.112,311.106,409.112,311.106"/>
<path style="fill:#9C5100;" d="M379.473,179.606c1.294-3.428,7.637-6.272,12.971-2.048c5.333,4.224,7.552,12.003,3.783,16.668  c-3.783,4.665-5.973,3.556-7.438,0c-1.451-3.556,0.1-6.741-1.906-7.808c-1.991-1.081-0.213-4.195-1.991-4.864  C383.114,180.886,377.61,184.541,379.473,179.606"/>
<path style="fill:#FF0000;" d="M328.735,177.558c-0.91-0.996-3.172,3.129-2.276,6.016c0.882,2.901,0.654,5.618,2.404,5.191  c1.749-0.441,1.323-2.972,2.475-4.992c0.882-1.55-2.674-1.109-1.564-2.887L328.735,177.558z"/>
<path style="fill:#F8C600;" d="M325.113,187.778h11.776c0,0,1.55-5.333,3.996-5.561c2.446-0.213,3.115,5.333,3.115,5.333  s5.561,1.337,8.007-0.213c2.446-1.564,8.434,0.213,3.769,2.887c-4.665,2.66-1.991-2.887-4.665,0  c-2.66,2.887-5.106,3.996-4.665,5.106c0.441,1.109-1.394,1.991-5.134,1.991c-3.755,0-6.201-0.882-5.76-2.66  c0.455-1.778-2.446-2.446-5.774-3.1C326.45,190.893,325.113,187.778,325.113,187.778"/>
<path style="fill:#FF0000;" d="M328.735,200.141c-0.91-0.996-3.172,3.129-2.276,6.016c0.882,2.901,0.654,5.618,2.404,5.191  c1.749-0.441,1.323-2.972,2.475-4.992c0.882-1.55-2.674-1.109-1.564-2.887L328.735,200.141z"/>
<path style="fill:#F8C600;" d="M325.113,210.362h11.776c0,0,1.55-5.333,3.996-5.561c2.446-0.213,3.115,5.333,3.115,5.333  s5.561,1.337,8.007-0.213c2.446-1.564,8.434,0.213,3.769,2.887c-4.665,2.66-1.991-2.887-4.665,0  c-2.66,2.887-5.106,3.996-4.665,5.106c0.441,1.109-1.394,1.991-5.134,1.991c-3.755,0-6.201-0.882-5.76-2.66  c0.455-1.778-2.446-2.446-5.774-3.1C326.45,213.477,325.113,210.362,325.113,210.362"/>
<path style="fill:#FF0000;" d="M328.735,225.249c-0.91-0.996-3.172,3.129-2.276,6.016c0.882,2.901,0.654,5.618,2.404,5.191  c1.749-0.441,1.323-2.972,2.475-4.992c0.882-1.55-2.674-1.109-1.564-2.887L328.735,225.249z"/>
<path style="fill:#F8C600;" d="M325.113,235.472h11.776c0,0,1.55-5.333,3.996-5.561c2.446-0.213,3.115,5.333,3.115,5.333  s5.561,1.337,8.007-0.213c2.446-1.564,8.434,0.213,3.769,2.887c-4.665,2.66-1.991-2.887-4.665,0  c-2.66,2.887-5.106,3.996-4.665,5.106c0.441,1.109-1.394,1.991-5.134,1.991c-3.755,0-6.201-0.882-5.76-2.66  c0.455-1.778-2.446-2.446-5.774-3.1C326.45,238.586,325.113,235.472,325.113,235.472"/>
<path style="fill:#FF0000;" d="M342.957,249.694c-0.91-0.996-3.172,3.129-2.276,6.016c0.882,2.901,0.654,5.618,2.404,5.191  c1.749-0.441,1.323-2.972,2.475-4.992c0.882-1.55-2.674-1.109-1.564-2.887L342.957,249.694z"/>
<path style="fill:#F8C600;" d="M339.335,259.918h11.776c0,0,1.55-5.333,3.996-5.561c2.446-0.213,3.115,5.333,3.115,5.333  s5.561,1.337,8.007-0.213c2.446-1.564,8.434,0.213,3.769,2.887c-4.665,2.66-1.991-2.887-4.665,0  c-2.66,2.887-5.106,3.996-4.665,5.106s-1.394,1.991-5.134,1.991c-3.755,0-6.201-0.882-5.76-2.66c0.455-1.778-2.446-2.446-5.774-3.1  C340.672,263.032,339.335,259.918,339.335,259.918"/>
<path style="fill:#FF0000;" d="M327.909,269.608c-0.896-0.996-3.172,3.129-2.276,6.03c0.882,2.887,0.654,5.603,2.404,5.163  c1.749-0.427,1.323-2.958,2.475-4.978c0.882-1.55-2.674-1.109-1.564-2.887L327.909,269.608z"/>
<path style="fill:#F8C600;" d="M324.281,279.834h11.776c0,0,1.55-5.333,3.996-5.561c2.446-0.213,3.115,5.333,3.115,5.333  s5.561,1.337,8.007-0.213c2.446-1.564,8.434,0.213,3.769,2.887c-4.665,2.66-1.991-2.887-4.665,0  c-2.66,2.887-5.106,3.996-4.665,5.106s-1.394,1.991-5.134,1.991c-3.755,0-6.201-0.882-5.76-2.66c0.455-1.778-2.446-2.446-5.774-3.1  C325.617,282.948,324.281,279.834,324.281,279.834"/>
<path style="fill:#FF0000;" d="M327.909,293.389c-0.896-0.996-3.172,3.129-2.276,6.03c0.882,2.887,0.654,5.603,2.404,5.163  c1.749-0.427,1.323-2.958,2.475-4.978c0.882-1.55-2.674-1.109-1.564-2.887L327.909,293.389z"/>
<path style="fill:#F8C600;" d="M324.281,303.611h11.776c0,0,1.55-5.333,3.996-5.561c2.446-0.213,3.115,5.333,3.115,5.333  s5.561,1.337,8.007-0.213c2.446-1.564,8.434,0.213,3.769,2.887c-4.665,2.66-1.991-2.887-4.665,0  c-2.66,2.887-5.106,3.996-4.665,5.106s-1.394,1.991-5.134,1.991c-3.755,0-6.201-0.882-5.76-2.66c0.455-1.778-2.446-2.446-5.774-3.1  C325.617,306.726,324.281,303.611,324.281,303.611"/>
<path style="fill:#FF0000;" d="M412.737,293.389c-0.91-0.996-3.172,3.129-2.276,6.03c0.882,2.887,0.654,5.603,2.404,5.163  c1.749-0.427,1.323-2.958,2.475-4.978c0.882-1.55-2.674-1.109-1.564-2.887L412.737,293.389z"/>
<path style="fill:#F8C600;" d="M409.112,303.611h11.776c0,0,1.55-5.333,3.996-5.561c2.446-0.213,3.115,5.333,3.115,5.333  s5.561,1.337,8.007-0.213c2.446-1.564,8.434,0.213,3.769,2.887c-4.665,2.66-1.991-2.887-4.665,0  c-2.66,2.887-5.106,3.996-4.665,5.106s-1.394,1.991-5.134,1.991c-3.755,0-6.201-0.882-5.76-2.66c0.455-1.778-2.446-2.446-5.774-3.1  C410.449,306.726,409.112,303.611,409.112,303.611"/>
<path style="fill:#FF0000;" d="M412.737,271.055c-0.91-0.996-3.172,3.129-2.276,6.03c0.882,2.887,0.654,5.603,2.404,5.163  c1.749-0.427,1.323-2.958,2.475-4.978c0.882-1.55-2.674-1.109-1.564-2.887L412.737,271.055z"/>
<path style="fill:#F8C600;" d="M409.112,281.278h11.776c0,0,1.55-5.333,3.996-5.561c2.446-0.213,3.115,5.333,3.115,5.333  s5.561,1.337,8.007-0.213c2.446-1.564,8.434,0.213,3.769,2.887c-4.665,2.659-1.991-2.887-4.665,0  c-2.66,2.887-5.106,3.996-4.665,5.106s-1.394,1.991-5.134,1.991c-3.755,0-6.201-0.882-5.76-2.66c0.455-1.778-2.446-2.446-5.774-3.1  C410.449,284.392,409.112,281.278,409.112,281.278"/>
<path style="fill:#FF0000;" d="M412.737,248.202c-0.91-0.996-3.172,3.129-2.276,6.03c0.882,2.887,0.654,5.603,2.404,5.163  c1.749-0.427,1.323-2.958,2.475-4.978c0.882-1.55-2.674-1.109-1.564-2.887L412.737,248.202z"/>
<path style="fill:#F8C600;" d="M409.112,258.424h11.776c0,0,1.55-5.333,3.996-5.561c2.446-0.213,3.115,5.333,3.115,5.333  s5.561,1.337,8.007-0.213c2.446-1.564,8.434,0.213,3.769,2.887c-4.665,2.66-1.991-2.887-4.665,0  c-2.66,2.887-5.106,3.996-4.665,5.106s-1.394,1.991-5.134,1.991c-3.755,0-6.201-0.882-5.76-2.659c0.455-1.778-2.446-2.446-5.774-3.1  C410.449,261.539,409.112,258.424,409.112,258.424"/>
<path style="fill:#FF0000;" d="M412.737,225.249c-0.91-0.996-3.172,3.129-2.276,6.03c0.882,2.887,0.654,5.603,2.404,5.163  c1.749-0.427,1.323-2.958,2.475-4.978c0.882-1.55-2.674-1.109-1.564-2.887L412.737,225.249z"/>
<path style="fill:#F8C600;" d="M409.112,235.472h11.776c0,0,1.55-5.333,3.996-5.561c2.446-0.213,3.115,5.333,3.115,5.333  s5.561,1.337,8.007-0.213c2.446-1.564,8.434,0.213,3.769,2.887c-4.665,2.66-1.991-2.887-4.665,0  c-2.66,2.887-5.106,3.996-4.665,5.106s-1.394,1.991-5.134,1.991c-3.755,0-6.201-0.882-5.76-2.66c0.455-1.778-2.446-2.446-5.774-3.1  C410.449,238.586,409.112,235.472,409.112,235.472"/>
<path style="fill:#FF0000;" d="M412.737,201.584c-0.91-0.996-3.172,3.129-2.276,6.03c0.882,2.887,0.654,5.603,2.404,5.163  c1.749-0.427,1.323-2.958,2.475-4.978c0.882-1.55-2.674-1.109-1.564-2.887L412.737,201.584z"/>
<path style="fill:#F8C600;" d="M409.112,211.809h11.776c0,0,1.55-5.333,3.996-5.561c2.446-0.213,3.115,5.333,3.115,5.333  s5.561,1.337,8.007-0.213c2.446-1.564,8.434,0.213,3.769,2.887c-4.665,2.66-1.991-2.887-4.665,0  c-2.66,2.887-5.106,3.996-4.665,5.106s-1.394,1.991-5.134,1.991c-3.755,0-6.201-0.882-5.76-2.66c0.455-1.778-2.446-2.446-5.774-3.1  C410.449,214.923,409.112,211.809,409.112,211.809"/>
<path style="fill:#FF0000;" d="M412.737,177.558c-0.91-0.996-3.172,3.129-2.276,6.03c0.882,2.887,0.654,5.603,2.404,5.163  c1.749-0.427,1.323-2.958,2.475-4.978c0.882-1.55-2.674-1.109-1.564-2.887L412.737,177.558z"/>
<path style="fill:#FFFFFF;" d="M382.821,376.444c-25.657,0-49.706-9.5-73.329-29.013c-2.489,2.034-5.66,3.726-9.358,3.726  c-2.745,0-5.362-0.967-7.58-2.816c-5.404-4.494-8.661-11.065-8.334-16.739c0.242-4.039,2.19-7.438,5.461-9.557  c3.996-2.617,9.87-8.206,10.894-9.87c4.011-6.656,8.604-8.05,11.762-8.05c2.304,0,5.717,0.768,8.846,4.409  c0.27,0.299,29.397,31.246,61.638,31.246s61.368-30.947,61.638-31.246c3.129-3.641,6.542-4.409,8.846-4.409  c3.157,0,7.751,1.394,11.762,8.05c1.01,1.664,6.898,7.253,10.894,9.87c3.271,2.119,5.219,5.518,5.461,9.557  c0.327,5.675-2.93,12.245-8.334,16.739c-2.219,1.849-4.836,2.816-7.595,2.816c-3.684,0-6.855-1.692-9.344-3.726  C432.527,366.944,408.478,376.444,382.821,376.444"/>
<g>
	<path style="fill:#F8C600;" d="M409.112,187.778h11.776c0,0,1.55-5.333,3.996-5.561c2.446-0.213,3.115,5.333,3.115,5.333   s5.561,1.337,8.007-0.213c2.446-1.564,8.434,0.213,3.769,2.887c-4.665,2.66-1.991-2.887-4.665,0   c-2.66,2.887-5.106,3.996-4.665,5.106c0.441,1.109-1.394,1.991-5.134,1.991c-3.755,0-6.201-0.882-5.76-2.66   c0.455-1.778-2.446-2.446-5.774-3.1C410.449,190.893,409.112,187.778,409.112,187.778"/>
	<path style="fill:#F8C600;" d="M472.081,328c-4.437-2.887-11.335-9.187-13.113-12.16c-1.778-2.944-5.333-7.097-9.102-2.688   c-3.783,4.409-33.863,33.735-67.043,33.735s-63.274-29.326-67.043-33.735c-3.783-4.409-7.339-0.256-9.116,2.688   c-1.778,2.972-8.661,9.273-13.113,12.16c-4.437,2.887-1.778,10.439,3.556,14.891c5.333,4.437,11.776-5.333,11.776-5.333   c18.446,16.441,42.453,31.772,73.94,31.772s55.48-15.331,73.926-31.772c0,0,6.443,9.771,11.776,5.333   C473.859,338.439,476.518,330.887,472.081,328"/>
</g>
<g>
</g>
<g>
</g>
<g>
</g>
<g>
</g>
<g>
</g>
<g>
</g>
<g>
</g>
<g>
</g>
<g>
</g>
<g>
</g>
<g>
</g>
<g>
</g>
<g>
</g>
<g>
</g>
<g>
</g>
</svg>
