<?xml version="1.0" encoding="iso-8859-1"?>
<!-- Generator: Adobe Illustrator 19.0.0, SVG Export Plug-In . SVG Version: 6.00 Build 0)  -->
<svg xmlns="http://www.w3.org/2000/svg" xmlns:xlink="http://www.w3.org/1999/xlink" version="1.1" id="Capa_1" x="0px" y="0px" viewBox="0 0 512 512" style="enable-background:new 0 0 512 512;" xml:space="preserve">
<path style="fill:#009E60;" d="M455.111,71.111H56.889C25.472,71.111,0,96.583,0,128v256c0,31.417,25.472,56.889,56.889,56.889  h398.222C486.528,440.889,512,415.417,512,384V128C512,96.583,486.528,71.111,455.111,71.111z"/>
<path style="fill:#FCD116;" d="M56.889,71.111C25.472,71.111,0,96.583,0,128v256c0,31.417,25.472,56.889,56.889,56.889H384V71.111  H56.889z"/>
<path style="fill:#0072C6;" d="M56.889,71.111C25.472,71.111,0,96.583,0,128v256c0,31.417,25.472,56.889,56.889,56.889H128V71.111  H56.889z"/>
<g>
	<path style="fill:#009E60;" d="M225.185,333.038l30.82,61.625l30.805-61.625l-30.805-61.625L225.185,333.038z"/>
	<path style="fill:#009E60;" d="M186.662,256l30.82,61.625L248.287,256l-30.805-61.625L186.662,256z"/>
	<path style="fill:#009E60;" d="M263.704,256l30.82,61.625L325.329,256l-30.805-61.625L263.704,256z"/>
</g>
<g>
</g>
<g>
</g>
<g>
</g>
<g>
</g>
<g>
</g>
<g>
</g>
<g>
</g>
<g>
</g>
<g>
</g>
<g>
</g>
<g>
</g>
<g>
</g>
<g>
</g>
<g>
</g>
<g>
</g>
</svg>
