<?xml version="1.0" encoding="iso-8859-1"?>
<!-- Generator: Adobe Illustrator 19.0.0, SVG Export Plug-In . SVG Version: 6.00 Build 0)  -->
<svg xmlns="http://www.w3.org/2000/svg" xmlns:xlink="http://www.w3.org/1999/xlink" version="1.1" id="Capa_1" x="0px" y="0px" viewBox="0 0 512 512" style="enable-background:new 0 0 512 512;" xml:space="preserve">
<g transform="matrix(1.25 0 0 -1.25 0 45)">
	<path style="fill:#EEEEEE;" d="M364.089-20.889H45.511C20.378-20.889,0-41.267,0-66.4v-204.8c0-25.133,20.378-45.511,45.511-45.511   h318.578c25.133,0,45.511,20.378,45.511,45.511v204.8C409.6-41.267,389.222-20.889,364.089-20.889z"/>
	<path style="fill:#FFE000;" d="M45.511-20.889C20.378-20.889,0-41.267,0-66.4v-204.8c0-25.133,20.378-45.511,45.511-45.511H204.8   v295.822H45.511z"/>
	<g>
		<g>
			<path style="fill:#A3A3A3;" d="M356.536-125.955l3.732,6.94l-7.646-3.47L356.536-125.955z"/>
			<path style="fill:#A3A3A3;" d="M356.867-119.671c0-1.559,1.252-2.822,2.81-2.822s2.81,1.263,2.81,2.822     c0,1.548-1.252,2.81-2.81,2.81S356.867-118.125,356.867-119.671"/>
			<path style="fill:#A3A3A3;" d="M350.322-121.32c-1.32-1.308-0.648-4.119,1.491-6.246c2.127-2.139,4.927-2.81,6.246-1.491     c1.32,1.32,0.648,4.119-1.491,6.246C354.44-120.671,351.63-120,350.322-121.32"/>
		</g>
		<g>
			<path style="fill:#CE9D0A;" d="M285.355-186.578c4.312-4.084,7.976,1.195,14.86,7.293c6.28,5.563,47.639,44.032,52.088,47.946     c4.437,3.903,0.319,9.83-4.836,5.029c-5.154-4.801-54.625-46.228-58.334-49.607C285.424-179.284,280.577-182.049,285.355-186.578     "/>
			<path style="fill:#CE9D0A;" d="M351.2-129.639l4.972-5.553l-2.48-2.139l2.48-2.127l2.491,2.127l3.561-3.914v-3.903l-6.94-5.871     l-4.084,2.662v3.208h-3.379v-3.027l1.775-0.182l1.605-1.775l0.182-4.096l-6.144-4.972l-12.618,11.958L351.2-129.639z"/>
			<path style="fill:#CE9D0A;" d="M263.208-199.088c-3.038,0.045-5.484,2.503-5.484,5.53c0,3.072,2.491,5.563,5.563,5.563     c3.06,0,5.553-2.491,5.553-5.563c0-0.023-0.012-0.057-0.012-0.079c0.159,0.012,0.296,0.102,0.467,0.102     c0.012,3.06,2.503,5.541,5.553,5.541c3.072,0,5.563-2.491,5.563-5.563c0-3.027-2.446-5.484-5.484-5.53     c3.038-0.057,5.484-2.515,5.484-5.541c0-3.072-2.491-5.563-5.563-5.563c-3.06,0-5.541,2.491-5.553,5.553     c-0.171,0-0.307,0.091-0.478,0.091c0-0.023,0.023-0.045,0.023-0.079c0-3.072-2.491-5.563-5.553-5.563     c-3.072,0-5.563,2.491-5.563,5.563C257.724-201.603,260.17-199.145,263.208-199.088 M252.354-199.077     c0-9.352,7.589-16.941,16.941-16.941s16.941,7.589,16.941,16.941s-7.589,16.941-16.941,16.941S252.354-189.725,252.354-199.077"/>
		</g>
		<g>
			<path style="fill:#A3A3A3;" d="M280.367-182.989c-1.32-1.308-0.648-4.119,1.491-6.246c2.127-2.139,4.927-2.81,6.246-1.491     c1.32,1.32,0.648,4.119-1.491,6.246C284.485-182.34,281.675-181.669,280.367-182.989"/>
			<path style="fill:#A3A3A3;" d="M253.122-185.123c0-1.605,1.297-2.901,2.913-2.901c1.593,0,2.901,1.297,2.901,2.901     c0,1.615-1.308,2.913-2.901,2.913C254.42-182.21,253.122-183.507,253.122-185.123"/>
			<path style="fill:#A3A3A3;" d="M278.423-213.126c0-1.605,1.297-2.901,2.913-2.901c1.593,0,2.901,1.297,2.901,2.901     c0,1.615-1.308,2.913-2.901,2.913C279.719-210.213,278.423-211.51,278.423-213.126"/>
			<path style="fill:#A3A3A3;" d="M252.356-212.189c0-1.605,1.297-2.901,2.913-2.901c1.593,0,2.901,1.297,2.901,2.901     c0,1.615-1.308,2.913-2.901,2.913C253.653-209.276,252.356-210.573,252.356-212.189"/>
		</g>
		<g>
			<path style="fill:#B5B5B5;" d="M333.246-158.361c1.581,1.036,2.788,2.446,3.596,4.21c3.402,7.418-0.819,19.342-3.402,23.962     c-3.151,5.644-1.217,9.341,0.307,11.105c-0.421,0.148-0.933,0.273-1.491,0.273c-1.24,0-2.446-0.603-3.561-1.798     c-3.311-3.539-1.752-8.261,2.879-18.989C335.055-147.631,336.408-153.445,333.246-158.361"/>
			<path style="fill:#B5B5B5;" d="M326.889-123.778c1.638,2.367,4.13,3.686,7.202,3.686c2.491,0,5.063-0.933,7.225-2.572     l3.186,4.801c-1.411,1.172-4.813,3.607-8.659,3.607c-1.012,0-1.991-0.171-2.936-0.512     C328.55-116.314,327.094-120.331,326.889-123.778"/>
		</g>
		<g>
			<path style="fill:#CE9D0A;" d="M258.311-125.955l-3.732,6.94l7.646-3.47L258.311-125.955z"/>
			<path style="fill:#CE9D0A;" d="M257.978-119.671c0-1.559-1.252-2.822-2.81-2.822s-2.81,1.263-2.81,2.822     c0,1.548,1.252,2.81,2.81,2.81S257.978-118.125,257.978-119.671"/>
			<path style="fill:#CE9D0A;" d="M264.522-121.32c1.32-1.308,0.648-4.119-1.491-6.246c-2.128-2.139-4.927-2.81-6.246-1.491     c-1.32,1.32-0.648,4.119,1.491,6.246C260.404-120.671,263.214-120,264.522-121.32"/>
		</g>
		<g>
			<path style="fill:#A3A3A3;" d="M329.489-186.578c-4.312-4.084-7.976,1.195-14.86,7.293c-6.28,5.563-47.639,44.032-52.088,47.946     c-4.437,3.903-0.319,9.83,4.836,5.029c5.154-4.801,54.625-46.228,58.334-49.607C329.421-179.284,334.267-182.049,329.489-186.578     "/>
			<path style="fill:#A3A3A3;" d="M263.643-129.639l-4.972-5.553l2.481-2.139l-2.481-2.127l-2.491,2.127l-3.561-3.914v-3.903     l6.94-5.871l4.084,2.662v3.208h3.379v-3.027l-1.775-0.182l-1.605-1.775l-0.182-4.096l6.144-4.972l12.618,11.958L263.643-129.639z     "/>
			<path style="fill:#A3A3A3;" d="M357.111-204.632c0-3.072-2.491-5.553-5.553-5.553c-3.072,0-5.563,2.481-5.563,5.553     c0,0.034,0.023,0.057,0.023,0.091c-0.159-0.012-0.307-0.102-0.478-0.102c-0.012-3.06-2.481-5.541-5.553-5.541     c-3.06,0-5.553,2.481-5.553,5.553c0,3.038,2.446,5.484,5.473,5.541c-3.027,0.045-5.473,2.503-5.473,5.541     c0,3.06,2.491,5.553,5.553,5.553s5.541-2.481,5.553-5.53c0.171,0,0.319-0.091,0.467-0.102c0,0.023-0.012,0.057-0.012,0.079     c0,3.06,2.491,5.553,5.563,5.553c3.06,0,5.553-2.491,5.553-5.553c0-3.038-2.446-5.496-5.473-5.541     C354.665-199.149,357.111-201.595,357.111-204.632 M345.54-182.139c-9.352,0-16.941-7.578-16.941-16.941     c0-9.352,7.589-16.941,16.941-16.941c9.364,0,16.953,7.589,16.953,16.941C362.493-189.717,354.904-182.139,345.54-182.139"/>
		</g>
		<g>
			<path style="fill:#CE9D0A;" d="M334.479-182.989c1.32-1.308,0.648-4.119-1.491-6.246c-2.127-2.139-4.927-2.81-6.246-1.491     c-1.32,1.32-0.648,4.119,1.491,6.246C330.36-182.34,333.171-181.669,334.479-182.989"/>
			<path style="fill:#CE9D0A;" d="M361.722-185.123c0-1.605-1.297-2.901-2.913-2.901c-1.593,0-2.901,1.297-2.901,2.901     c0,1.615,1.308,2.913,2.901,2.913C360.425-182.21,361.722-183.507,361.722-185.123"/>
			<path style="fill:#CE9D0A;" d="M336.422-213.126c0-1.605-1.297-2.901-2.913-2.901c-1.593,0-2.901,1.297-2.901,2.901     c0,1.615,1.308,2.913,2.901,2.913C335.125-210.213,336.422-211.51,336.422-213.126"/>
			<path style="fill:#CE9D0A;" d="M362.488-212.189c0-1.605-1.297-2.901-2.913-2.901c-1.593,0-2.901,1.297-2.901,2.901     c0,1.615,1.308,2.913,2.901,2.913C361.192-209.276,362.488-210.573,362.488-212.189"/>
		</g>
		<path d="M323.556-120.09c0-16.691-7.27-16.236-16.248-16.236c-8.966,0-16.225-0.455-16.225,16.236s7.259,34.725,16.225,34.725    C316.285-85.365,323.556-103.399,323.556-120.09"/>
		<path style="fill:#FFFFFF;" d="M306.588-135.189c-4.824,0-8.192,0.148-10.502,1.934c-2.639,2.06-3.88,6.246-3.88,13.164    c0,16.953,7.475,33.587,15.098,33.587s15.121-16.634,15.121-33.587c0-15.098-6.075-15.098-13.745-15.098H306.588z"/>
		<g>
			<path style="fill:#CE9D0A;" d="M315.8-123.761c-5.689,1.661-4.767,7.111-8.488,7.111c-3.721,0-2.799-5.45-8.488-7.111     c-5.677-1.65-8.488,0.945-8.488,0.945l2.651-10.9c0,0,4.767,4.027,14.324,4.027s14.324-4.027,14.324-4.027l2.651,10.9     C324.288-122.816,321.478-125.41,315.8-123.761"/>
			<path style="fill:#CE9D0A;" d="M316.734-109.34c-6.315,1.741-5.291,7.487-9.421,7.487s-3.117-5.746-9.421-7.487     c-6.303-1.741-9.409,0.99-9.409,0.99l2.924-11.469c0,0,5.302,4.232,15.906,4.232s15.895-4.232,15.895-4.232l2.936,11.469     C326.143-108.351,323.037-111.081,316.734-109.34"/>
			<path style="fill:#CE9D0A;" d="M315.244-94.222c-5.313,1.467-4.46,6.303-7.93,6.303c-3.482,0-2.629-4.836-7.942-6.303     c-5.291-1.467-7.919,0.831-7.919,0.831l2.481-9.649c0,0,4.46,2.686,13.381,2.686c8.92,0,13.381-2.686,13.381-2.686l2.469,9.649     C323.163-93.391,320.546-95.689,315.244-94.222"/>
			<path style="fill:#CE9D0A;" d="M305.288-83.444c0-1.684,0.91-3.06,2.025-3.06c1.103,0,2.014,1.377,2.014,3.06     c0,1.695-0.91,3.06-2.014,3.06C306.199-80.383,305.288-81.748,305.288-83.444"/>
			<path style="fill:#CE9D0A;" d="M302.2-80.123c0-1.16,2.287-2.117,5.108-2.117c2.821,0,5.108,0.955,5.108,2.117     c0,1.172-2.287,2.117-5.108,2.117C304.487-78.006,302.2-78.951,302.2-80.123"/>
			<path style="fill:#CE9D0A;" d="M305.288-77.043c0-1.172,0.91-2.117,2.025-2.117c1.103,0,2.014,0.945,2.014,2.117     s-0.91,2.117-2.014,2.117C306.199-74.927,305.288-75.871,305.288-77.043"/>
		</g>
		<g>
			<path style="fill:#B5B5B5;" d="M281.377-158.361c-1.581,1.036-2.788,2.446-3.596,4.21c-3.402,7.418,0.819,19.342,3.391,23.962     c3.163,5.644,1.229,9.341-0.296,11.105c0.421,0.148,0.933,0.273,1.491,0.273c1.24,0,2.446-0.603,3.55-1.798     c3.322-3.539,1.764-8.261-2.879-18.989C279.569-147.631,278.214-153.445,281.377-158.361"/>
			<path style="fill:#B5B5B5;" d="M287.734-123.778c-1.638,2.367-4.13,3.686-7.202,3.686c-2.491,0-5.063-0.933-7.225-2.572     l-3.186,4.801c1.41,1.172,4.813,3.607,8.659,3.607c1.012,0,1.991-0.171,2.936-0.512     C286.061-116.314,287.529-120.331,287.734-123.778"/>
		</g>
		<g>
			<path style="fill:#FA0204;" d="M307.311-157.422c2.276-1.752,2.799-8.533,2.799-16.532v-62.395c0,0,3.493-0.899,2.424-10.138     c-0.307-2.651-5.507-2.139-6.406,0c-0.888,2.127-0.455,9,1.183,9.956v62.043c0,9.25-1.548,12.823-2.025,14.575     S306.208-156.569,307.311-157.422"/>
			<path style="fill:#FA0204;" d="M328.756-200.644c-2.23,1.559-5.359,5.484-8.044,9.239c-3.561,4.984-4.449,8.385-7.976,12.652     c-3.539,4.267-12.766,13.107-14.962,12.8c-0.865-0.125-1.775-2.139-0.945-2.844c0.842-0.717,3.436-3.561,9.307-7.999     c5.86-4.449,6.747-9.421,11.65-16.532c4.529-6.577,8.42-11.048,11.935-11.662C329.211-203.625,328.904-202.158,328.756-200.644"/>
			<path style="fill:#FA0204;" d="M317.212-163.689c-2.082-1.991-8.522-8.294-12.026-12.39c-3.493-4.096-7.942-13.881-11.855-18.318     c-2.503-2.844-5.234-5.279-7.293-6.781c-0.193-1.548-0.524-3.038-1.103-4.426c2.822,0.945,6.861,3.539,11.901,10.854     c6.986,10.126,10.366,17.59,13.745,20.435c3.379,2.844,4.733,3.698,6.633,5.666C319.112-166.67,319.305-161.686,317.212-163.689"/>
			<path style="fill:#FA0204;" d="M303.145-172v-65.775c-3.766-3.027-2.696-8.044-1.991-10.513c0.717-2.469,6.861-2.458,7.816-1.217     c0.955,1.229,1.217,9.592-2.31,12.436v60.985C306.661-174.492,303.145-169.554,303.145-172"/>
			<path style="fill:#FA0204;" d="M280.056-202.731c-3.379-2.355-6.28-6.417,1.274-9.444c7.555-3.027,17.556-7.111,25.976-7.111     c8.431,0,24.155,5.711,27.853,8.271c3.686,2.572,5.279,5.644-0.591,7.373c-3.084,0.91-3.55-1.422-1.946-1.957     c1.604-0.535,3.47-2.196-0.581-3.675c-4.039-1.479-13.289-5.814-25.372-5.814c-12.095,0-23.473,5.154-25.338,5.814     c-1.866,0.648-2.378,2.788-1.047,3.675C281.603-204.711,281.569-201.673,280.056-202.731"/>
		</g>
		<g>
			<path style="fill:#CE9D0A;" d="M311.478-234.323c0-1.331-1.081-2.401-2.412-2.401c-1.32,0-2.401,1.069-2.401,2.401     c0,1.331,1.081,2.412,2.401,2.412C310.397-231.911,311.478-232.992,311.478-234.323"/>
			<path style="fill:#CE9D0A;" d="M307.423-235.922c0-1.331-1.081-2.401-2.412-2.401c-1.32,0-2.401,1.069-2.401,2.401     c0,1.332,1.081,2.412,2.401,2.412C306.342-233.51,307.423-234.591,307.423-235.922"/>
		</g>
	</g>
</g>
<g>
</g>
<g>
</g>
<g>
</g>
<g>
</g>
<g>
</g>
<g>
</g>
<g>
</g>
<g>
</g>
<g>
</g>
<g>
</g>
<g>
</g>
<g>
</g>
<g>
</g>
<g>
</g>
<g>
</g>
</svg>
