<?xml version="1.0" encoding="iso-8859-1"?>
<!-- Generator: Adobe Illustrator 19.0.0, SVG Export Plug-In . SVG Version: 6.00 Build 0)  -->
<svg xmlns="http://www.w3.org/2000/svg" xmlns:xlink="http://www.w3.org/1999/xlink" version="1.1" id="Capa_1" x="0px" y="0px" viewBox="0 0 395.636 395.636" style="enable-background:new 0 0 395.636 395.636;" xml:space="preserve">
<path style="fill:#D90000;" d="M351.677,54.949H43.96C19.684,54.949,0,74.633,0,98.909v197.818c0,24.276,19.684,43.96,43.96,43.96  h307.717c24.276,0,43.96-19.684,43.96-43.96V98.909C395.636,74.633,375.953,54.949,351.677,54.949z"/>
<rect y="102.141" style="fill:#FCDC02;" width="395.636" height="71.111"/>
<rect y="157.091" style="fill:#D90000;" width="395.636" height="43.96"/>
<g>
	<rect y="190.714" style="fill:#141414;" width="395.636" height="68.525"/>
	<path style="fill:#141414;" d="M351.677,54.949H43.96C19.684,54.949,0,74.633,0,98.909v10.99h395.636v-10.99   C395.636,74.633,375.953,54.949,351.677,54.949z"/>
</g>
<path style="fill:#D90000;" d="M351.677,340.687H43.96c-24.276,0-43.96-19.684-43.96-43.96v-10.99h395.636v10.99  C395.636,321.003,375.953,340.687,351.677,340.687z"/>
<rect y="245.663" style="fill:#FCDC02;" width="395.636" height="43.96"/>
<path style="fill:#FFFFFF;" d="M241.778,197.818c0,24.276-19.683,43.96-43.96,43.96s-43.96-19.683-43.96-43.96  s19.683-43.96,43.96-43.96S241.778,173.542,241.778,197.818"/>
<path style="fill:#D90000;" d="M190.607,165.192l-2.934-7.726c0,0,6.363-2.231,12.55,0c4.714,1.704,5.154,7.726,5.154,7.726  l-7.375,2.231L190.607,165.192z"/>
<path style="fill:#FCDC02;" d="M193.354,163.99v-7.517c0,0,1.22-0.483,4.649,0c3.418,0.473,4.968,2.879,4.968,2.879l-4.814,5.836  L193.354,163.99z"/>
<path style="fill:#141414;" d="M203.027,215.452h-2.516l0.913-4.583C201.422,210.869,204.631,215.452,203.027,215.452   M195.014,185.691c-0.913-1.604,0-10.99,2.626-11.682c2.626-0.681,7.671-8.924,0-11.671c-7.671-2.747-9.276,5.264-9.276,5.264  s-7.572,2.231-6.627,4.121c0.913,1.825,7.32-0.693,8.693,0.913c1.374,1.604-0.693,3.89-6.187,10.309  c-5.495,6.406-1.825,15.11,0.693,17.342c2.516,2.242,5.495,3.945,7.792,6.01c2.286,2.054,4.912,3.198,4.912,3.198v6.638  c0,0-7.66,0.693-11.331,0.231c-3.67-0.461-6.187,2.066-7.1,5.034c-0.913,2.979,1.374,4.583,1.374,2.297s0.913-0.923,1.132,0.913  c0.208,1.835,1.846,1.143,1.846-1.143c0-2.297,0.923-1.374,1.143-0.231c0.231,1.143,1.835-0.461,2.066-1.835  c0.231-1.374,2.286-2.054,4.121-2.516c1.835-0.451,6.747,0.461,6.747,0.461v12.133c0,0-10.187,0.693-11.101,2.066  c-0.923,1.374,6.187,1.143,6.187,1.143s-2.066,3.89-1.154,4.121c0.923,0.242,7.33-3.89,9.847-4.352c2.517-0.462,6.407,1.143,6.869,0  c0.451-1.154-6.187-2.747-6.869-3.89c-0.693-1.132-2.066-11.661-2.066-11.661s2.989-0.253,6.65-0.022  c3.66,0.242,2.747-2.979,0.451-6.176c-2.286-3.198-0.231-4.121,3.67-3.429c3.89,0.693,6.869,0,6.869-6.187  C216.995,196.902,195.927,187.285,195.014,185.691"/>
<path style="fill:#D90000;" d="M192.039,173.778c0.318-2.736-4.133-2.516-4.352,0C187.456,176.295,191.577,177.668,192.039,173.778"/>
<path style="fill:#9CA69C;" d="M195.073,187.344c1.263-0.451,15.451,6.01,19.232,7.726c3.78,1.715,3.33,8.242,2.693,12.187  c-0.638,3.956-2.869,5.154-2.869,5.154s-2.461-6.374-10.297-9.44C193.303,198.85,190.27,189.059,195.073,187.344"/>
<path style="fill:#D90000;" d="M211.037,194.9c4.627,1.21,14.418,3.429,15.287,13.396c0.857,9.958-9.33,15.792-9.33,15.792  l1.704-3.088l-3.022,1.033l1.319-2.231l-4.759,1.022c0,0,7.968-6.353,5.187-12.012c0.221,4.714-2.956,6.001-2.956,6.001  s2.736-6.539-9.1-13.737c1.374-0.341,3.099-0.791,3.099-0.791l-3.099-2.461l6.528,2.461l-3.088-3.836l6.176,2.397L211.037,194.9z"/>
<path style="fill:#9CA69C;" d="M193.354,168.54c0,0.615-0.506,1.121-1.121,1.121c-0.614,0-1.109-0.506-1.109-1.121  s0.495-1.109,1.109-1.109C192.849,167.429,193.354,167.925,193.354,168.54"/>
<g>
</g>
<g>
</g>
<g>
</g>
<g>
</g>
<g>
</g>
<g>
</g>
<g>
</g>
<g>
</g>
<g>
</g>
<g>
</g>
<g>
</g>
<g>
</g>
<g>
</g>
<g>
</g>
<g>
</g>
</svg>
