<?xml version="1.0" encoding="iso-8859-1"?>
<!-- Generator: Adobe Illustrator 19.0.0, SVG Export Plug-In . SVG Version: 6.00 Build 0)  -->
<svg xmlns="http://www.w3.org/2000/svg" xmlns:xlink="http://www.w3.org/1999/xlink" version="1.1" id="Capa_1" x="0px" y="0px" viewBox="0 0 512 512" style="enable-background:new 0 0 512 512;" xml:space="preserve">
<path style="fill:#FBD035;" d="M455.111,71.111h-36.009h-42.837l0.206,0.002c0-0.001,0-0.001,0-0.002H56.889  C25.472,71.111,0,96.583,0,128v222.251v28.6v0.001v5.205c0,31.39,25.491,56.832,56.889,56.832h35.086h0.002h42.836h320.299  C486.528,440.889,512,415.417,512,384V161.138v-28.614v-0.001V128C512,96.583,486.528,71.111,455.111,71.111z"/>
<path style="fill:#1EB53A;" d="M56.889,71.111C25.472,71.111,0,96.583,0,128v222.251l376.263-279.14H56.889z"/>
<path style="fill:#00A3DD;" d="M455.111,440.889C486.528,440.889,512,415.417,512,384V161.138L134.812,440.889H455.111z"/>
<path style="fill:#141414;" d="M512,128c0-31.417-25.472-56.889-56.889-56.889h-36.009L0,378.852v5.205  c0,31.39,25.491,56.832,56.889,56.832h35.088L512,132.523V128z"/>
<g>
</g>
<g>
</g>
<g>
</g>
<g>
</g>
<g>
</g>
<g>
</g>
<g>
</g>
<g>
</g>
<g>
</g>
<g>
</g>
<g>
</g>
<g>
</g>
<g>
</g>
<g>
</g>
<g>
</g>
</svg>
