<?xml version="1.0" encoding="iso-8859-1"?>
<!-- Generator: Adobe Illustrator 19.0.0, SVG Export Plug-In . SVG Version: 6.00 Build 0)  -->
<svg xmlns="http://www.w3.org/2000/svg" xmlns:xlink="http://www.w3.org/1999/xlink" version="1.1" id="Capa_1" x="0px" y="0px" viewBox="0 0 512 512" style="enable-background:new 0 0 512 512;" xml:space="preserve">
<g transform="matrix(1.25 0 0 -1.25 0 45)">
	<g>
		<g>
			<path style="fill:#FE0000;" d="M364.089-20.889H193.422V-168.8H0v-102.4c0-25.134,20.378-45.511,45.511-45.511h318.578     c25.134,0,45.511,20.378,45.511,45.511v204.8C409.6-41.266,389.222-20.889,364.089-20.889"/>
			<path style="fill:#000095;" d="M131.88-101.023c0.387,2.002,0.592,4.062,0.592,6.167c0,2.116-0.205,4.176-0.592,6.178     l23.142-6.178L131.88-101.023z M124.439-116.348c2.697,3.106,4.813,6.724,6.201,10.684l16.953-16.919     C147.593-122.583,124.439-116.348,124.439-116.348z M110.376-125.929c3.959,1.388,7.578,3.504,10.684,6.19l6.235-23.142     L110.376-125.929z M99.556-150.322l-6.167,23.154c2.002-0.387,4.062-0.592,6.167-0.592c2.116,0,4.176,0.205,6.178,0.592     L99.556-150.322z M71.828-142.881l6.235,23.142c3.106-2.685,6.724-4.801,10.684-6.19L71.828-142.881z M68.483-105.665     c1.377-3.959,3.504-7.578,6.19-10.684l-23.154-6.235C51.519-122.583,68.483-105.665,68.483-105.665z M67.231-88.678     c-0.375-2.002-0.58-4.062-0.58-6.178c0-2.105,0.205-4.164,0.58-6.167l-23.142,6.167C44.089-94.856,67.231-88.678,67.231-88.678z      M74.672-73.352c-2.685-3.106-4.813-6.724-6.19-10.684L51.519-67.117C51.519-67.117,74.672-73.352,74.672-73.352z M88.747-63.772     c-3.959-1.388-7.578-3.504-10.684-6.19l-6.235,23.142C71.828-46.819,88.747-63.772,88.747-63.772z M99.556-39.389l6.178-23.142     c-2.002,0.387-4.062,0.592-6.178,0.592c-2.105,0-4.164-0.205-6.167-0.592L99.556-39.389z M127.295-46.819l-6.235-23.142     c-3.106,2.685-6.724,4.801-10.684,6.19L127.295-46.819z M127.295-94.856c0-15.314-12.425-27.728-27.739-27.728     S71.828-110.17,71.828-94.856c0,15.326,12.413,27.739,27.728,27.739S127.295-79.53,127.295-94.856 M124.439-73.352l23.154,6.235     L130.64-84.036C129.252-80.076,127.135-76.458,124.439-73.352 M193.422-20.9H45.511C20.378-20.9,0-41.278,0-66.411v-102.4     h193.422V-20.9z"/>
			<g>
				<path style="fill:#FFFFFF;" d="M105.734-62.52l-6.167,23.142L93.389-62.52c2.002,0.387,4.062,0.592,6.178,0.592      C101.672-61.929,103.731-62.133,105.734-62.52"/>
				<path style="fill:#FFFFFF;" d="M66.64-94.844c0,2.105,0.205,4.176,0.592,6.167l-23.142-6.167l23.142-6.167      C66.844-99.02,66.64-96.949,66.64-94.844"/>
				<path style="fill:#FFFFFF;" d="M93.377-127.169l6.167-23.142l6.178,23.142c-2.002-0.387-4.062-0.592-6.178-0.592      C97.439-127.76,95.38-127.556,93.377-127.169"/>
				<path style="fill:#FFFFFF;" d="M132.471-94.844c0-2.105-0.205-4.176-0.592-6.167l23.142,6.167l-23.142,6.167      C132.267-90.669,132.471-92.74,132.471-94.844"/>
				<path style="fill:#FFFFFF;" d="M127.295-46.807l-16.919-16.964c3.959-1.377,7.578-3.493,10.684-6.19L127.295-46.807z"/>
				<path style="fill:#FFFFFF;" d="M124.439-116.348l23.154-6.235l-16.964,16.919C129.252-109.624,127.135-113.242,124.439-116.348"/>
				<path style="fill:#FFFFFF;" d="M71.828-142.881l16.919,16.964c-3.959,1.377-7.578,3.493-10.684,6.19L71.828-142.881z"/>
				<path style="fill:#FFFFFF;" d="M74.672-73.34l-23.154,6.235l16.964-16.919C69.86-80.065,71.976-76.447,74.672-73.34"/>
				<path style="fill:#FFFFFF;" d="M110.364-125.917l16.919-16.964l-6.235,23.154C117.942-122.413,114.324-124.54,110.364-125.917"/>
				<path style="fill:#FFFFFF;" d="M68.494-105.653L51.53-122.572l23.154,6.235C71.999-113.231,69.871-109.613,68.494-105.653"/>
				<path style="fill:#FFFFFF;" d="M88.747-63.783L71.828-46.819l6.235-23.154C81.169-67.287,84.787-65.171,88.747-63.783"/>
				<path style="fill:#FFFFFF;" d="M147.593-67.105l-23.154-6.235c2.697-3.106,4.813-6.724,6.19-10.684L147.593-67.105z"/>
				<path style="fill:#FFFFFF;" d="M99.556-67.105c-15.314,0-27.739-12.413-27.739-27.739c0-15.314,12.425-27.728,27.739-27.728      s27.739,12.413,27.739,27.728C127.295-79.519,114.87-67.105,99.556-67.105"/>
			</g>
		</g>
	</g>
</g>
<g>
</g>
<g>
</g>
<g>
</g>
<g>
</g>
<g>
</g>
<g>
</g>
<g>
</g>
<g>
</g>
<g>
</g>
<g>
</g>
<g>
</g>
<g>
</g>
<g>
</g>
<g>
</g>
<g>
</g>
</svg>
