<?xml version="1.0" encoding="iso-8859-1"?>
<!-- Generator: Adobe Illustrator 19.0.0, SVG Export Plug-In . SVG Version: 6.00 Build 0)  -->
<svg xmlns="http://www.w3.org/2000/svg" xmlns:xlink="http://www.w3.org/1999/xlink" version="1.1" id="Capa_1" x="0px" y="0px" viewBox="0 0 511.999 511.999" style="enable-background:new 0 0 511.999 511.999;" xml:space="preserve">
<g transform="matrix(1.25 0 0 -1.25 0 45)">
	<path style="fill:#5B97B1;" d="M409.599-271.199v204.798c0,25.133-20.378,45.511-45.511,45.511H239.642h-0.705H45.515   c-23.24,0-42.164-17.427-44.841-39.922v-79.878H0.006l0.271-135.626c2.468-22.805,21.778-40.393,45.238-40.393h318.574   C389.223-316.709,409.599-296.331,409.599-271.199z"/>
	<path style="fill:#00247D;" d="M216.179-20.89H45.515c-25.133,0-45.511-20.378-45.511-45.511V-168.8h216.175V-20.89z"/>
	<g>
		<g>
			<g>
				<path style="fill:#EEEEEE;" d="M216.179-168.8v23.085l-80.781,56.559H75.905L189.647-168.8H216.179z"/>
				<path style="fill:#CF1B2B;" d="M216.179-152.666l-90.691,63.51h-19.831l110.522-77.391V-152.666z"/>
				<path style="fill:#EEEEEE;" d="M92.159-89.156L0-154.759v-14.04h37.91l113.754,79.644L92.159-89.156L92.159-89.156z"/>
				<path style="fill:#CF1B2B;" d="M121.904-89.156L8.355-168.8h3.026h16.623l113.742,79.644H121.904z"/>
				<path style="fill:#EEEEEE;" d="M189.658-20.89L75.916-100.534h59.493l80.77,56.559v23.085H189.658z"/>
				<path style="fill:#CF1B2B;" d="M199.558-20.89L85.827-100.534h19.831L216.18-23.143v2.253H199.558z"/>
			</g>
			<path style="fill:#EEEEEE;" d="M7.545-41.318l106.235-74.36v15.144h37.865L38.651-21.406C25.67-23.37,14.494-30.822,7.545-41.318     z"/>
			<path style="fill:#CF1B2B;" d="M11.028-36.724l102.753-72.024v8.215h8.123L19.671-28.947     C16.467-31.163,13.564-33.78,11.028-36.724z"/>
		</g>
		<g>
			<path style="fill:#EEEEEE;" d="M216.179-66.401h-79.644v45.511H79.648v-45.511H0.004v-56.888h79.644V-168.8h56.888v45.511h79.644     V-66.401z"/>
			<g>
				<path style="fill:#CF1B2B;" d="M125.158-168.8H91.025V-20.89h34.133V-168.8z"/>
				<path style="fill:#CF1B2B;" d="M216.179-111.912H0.004v34.133h216.175V-111.912z"/>
			</g>
		</g>
	</g>
	<g>
		<path style="fill:#FFCE00;" d="M154.722-279.986l-5.541,17.066l-5.541-17.066h-17.942l14.506-10.547l-5.541-17.055l14.518,10.536    l14.507-10.536l-5.541,17.055l14.518,10.547H154.722z"/>
		<path style="fill:#FFCE00;" d="M228.495-266.718l5.541,17.066l-14.507-10.547l-14.518,10.547l5.541-17.066l-14.507-10.547h17.932    l5.552-17.055l5.541,17.055h17.943L228.495-266.718z"/>
		<path style="fill:#FFCE00;" d="M234.042-189.515l-14.518-10.547l-14.507,10.547l5.541-17.066l-14.518-10.536h17.942l5.541-17.066    l5.552,17.066h17.932L228.5-206.582L234.042-189.515z"/>
		<path style="fill:#FFCE00;" d="M284.931-251.517l5.541,17.066l-14.507-10.547l-14.518,10.547l5.541-17.066l-14.507-10.547h17.931    l5.552-17.055l5.541,17.055h17.942L284.931-251.517z"/>
		<path style="fill:#FFCE00;" d="M270.419-131.205l5.541-17.066l5.541,17.066h17.942l-14.507,10.547l5.541,17.055l-14.518-10.536    l-14.507,10.536l5.541-17.055l-14.518-10.547H270.419z"/>
		<path style="fill:#FFCE00;" d="M322.139-205.565l-5.541,17.066l-5.541-17.066h-17.942l14.507-10.547l-5.541-17.055l14.518,10.536    l14.507-10.536l-5.541,17.055l14.518,10.547H322.139z"/>
		<path style="fill:#FFCE00;" d="M322.63-113.36l5.541-17.066l5.541,17.066h17.942l-14.507,10.547l5.541,17.055L328.17-96.294    l-14.507,10.536l5.541-17.055l-14.518-10.547H322.63z"/>
		<path style="fill:#FFCE00;" d="M374.594-171.796l-5.541,17.066l-5.541-17.066H345.57l14.507-10.547l-5.541-17.055l14.518,10.536    l14.507-10.536l-5.541,17.055l14.518,10.547H374.594z"/>
		<path style="fill:#FFCE00;" d="M360.081-66.937l-5.541-17.066l14.507,10.547l14.518-10.547l-5.541,17.066l14.507,10.547h-17.932    l-5.552,17.055l-5.541-17.055h-17.942L360.081-66.937z"/>
	</g>
</g>
<g>
</g>
<g>
</g>
<g>
</g>
<g>
</g>
<g>
</g>
<g>
</g>
<g>
</g>
<g>
</g>
<g>
</g>
<g>
</g>
<g>
</g>
<g>
</g>
<g>
</g>
<g>
</g>
<g>
</g>
</svg>
