<?xml version="1.0" encoding="iso-8859-1"?>
<!-- Generator: Adobe Illustrator 19.0.0, SVG Export Plug-In . SVG Version: 6.00 Build 0)  -->
<svg xmlns="http://www.w3.org/2000/svg" xmlns:xlink="http://www.w3.org/1999/xlink" version="1.1" id="Capa_1" x="0px" y="0px" viewBox="0 0 512 512" style="enable-background:new 0 0 512 512;" xml:space="preserve">
<g transform="matrix(1.25 0 0 -1.25 0 45)">
	<path style="fill:#CE1126;" d="M364.089-20.889H125.273h-20.878l0.001-0.001c-0.001,0-0.002,0.001-0.003,0.001H45.511   c-7.227,0-14.055-1.692-20.078-4.69c0-0.001,0-0.001,0-0.002l-0.023,0.001c-4.597-2.271-8.767-5.294-12.325-8.911   C5.003-42.704,0-53.967,0-66.4v-204.8c0-25.133,20.378-45.511,45.511-45.511h238.82h20.878h-0.001c0.001,0,0.001,0,0.002,0h58.879   c7.227,0,14.055,1.692,20.078,4.691c0,0.001,0,0.002,0,0.003l0.025-0.002c4.597,2.271,8.767,5.294,12.325,8.911   c8.08,8.214,13.083,19.477,13.083,31.908v204.8C409.6-41.267,389.222-20.889,364.089-20.889z"/>
	<g>
		<path style="fill:#EEEEEE;" d="M13.073-34.49l271.258-282.222h20.878L25.387-25.579C20.789-27.85,16.631-30.873,13.073-34.49z"/>
		<path style="fill:#EEEEEE;" d="M396.529-303.108L125.273-20.889h-20.878l279.821-291.131    C388.813-309.748,392.971-306.725,396.529-303.108z"/>
	</g>
	<path style="fill:#141414;" d="M104.392-20.889H45.511c-7.227,0-14.055-1.692-20.124-4.69L305.21-316.711h58.879   c7.227,0,14.057,1.692,20.125,4.691L104.392-20.889z"/>
</g>
<g>
</g>
<g>
</g>
<g>
</g>
<g>
</g>
<g>
</g>
<g>
</g>
<g>
</g>
<g>
</g>
<g>
</g>
<g>
</g>
<g>
</g>
<g>
</g>
<g>
</g>
<g>
</g>
<g>
</g>
</svg>
