<?xml version="1.0" encoding="iso-8859-1"?>
<!-- Generator: Adobe Illustrator 19.0.0, SVG Export Plug-In . SVG Version: 6.00 Build 0)  -->
<svg xmlns="http://www.w3.org/2000/svg" xmlns:xlink="http://www.w3.org/1999/xlink" version="1.1" id="Capa_1" x="0px" y="0px" viewBox="0 0 512 512" style="enable-background:new 0 0 512 512;" xml:space="preserve">
<g transform="matrix(1.25 0 0 -1.25 0 45)">
	<g>
		<g>
			<path style="fill:#C10000;" d="M364.089-20.889H170.667V-168.8H0v-102.4c0-25.134,20.378-45.511,45.511-45.511h318.578     c25.134,0,45.511,20.378,45.511,45.511v204.8C409.6-41.266,389.222-20.889,364.089-20.889"/>
			<path style="fill:#EEEDED;" d="M136.533-111.911H102.4v-34.133H68.267v34.133H34.133v34.133h34.133v34.133H102.4v-34.133h34.133     V-111.911z M170.667-20.889H45.511C20.378-20.889,0-41.266,0-66.4v-102.4h170.667V-20.889z"/>
			<path style="fill:#C10000;" d="M102.4-43.644H68.267v-34.133H34.133v-34.133h34.133v-34.133H102.4v34.133h34.133v34.133H102.4     V-43.644z"/>
		</g>
	</g>
</g>
<g>
</g>
<g>
</g>
<g>
</g>
<g>
</g>
<g>
</g>
<g>
</g>
<g>
</g>
<g>
</g>
<g>
</g>
<g>
</g>
<g>
</g>
<g>
</g>
<g>
</g>
<g>
</g>
<g>
</g>
</svg>
