<?xml version="1.0" encoding="iso-8859-1"?>
<!-- Generator: Adobe Illustrator 19.0.0, SVG Export Plug-In . SVG Version: 6.00 Build 0)  -->
<svg xmlns="http://www.w3.org/2000/svg" xmlns:xlink="http://www.w3.org/1999/xlink" version="1.1" id="Capa_1" x="0px" y="0px" viewBox="0 0 512 512" style="enable-background:new 0 0 512 512;" xml:space="preserve">
<path style="fill:#29AE66;" d="M455.111,71.111H56.889C25.472,71.111,0,96.583,0,128v256c0,31.417,25.472,56.889,56.889,56.889  h398.222C486.528,440.889,512,415.417,512,384V128C512,96.583,486.528,71.111,455.111,71.111z"/>
<path style="fill:#CA3745;" d="M156.444,440.889H56.889V71.111h99.556V440.889z"/>
<g>
	<path style="fill:#FAAE29;" d="M56.889,118.223l11.449,11.449l-3.115,3.1l4.551,4.565l3.001-3.001l9.444,9.444l-9.33,9.33   l-3.883-3.883l-4.124,4.11l3.456,3.442l-11.449,10.112v-5.333l6.272-5.945l-3.385-2.716l8.647-8.647l4.992,4.338l4.665-4.665   l-4.992-5.006l-3.499,3.499l-9.116-9.102l3.413-3.428l-6.997-6.329V118.223z"/>
	<path style="fill:#FAAE29;" d="M56.889,183.998l11.449,11.449l-3.115,3.1l4.551,4.565l3.001-3.001l9.444,9.444l-9.33,9.33   l-3.883-3.883l-4.124,4.11l3.456,3.442l-11.449,10.112v-5.333l6.272-5.945l-3.385-2.716l8.647-8.647l4.992,4.338l4.665-4.665   l-4.992-5.006l-3.499,3.499l-9.116-9.102l3.413-3.428l-6.997-6.329V183.998z"/>
	<path style="fill:#FAAE29;" d="M56.889,251.112l11.449,11.449l-3.115,3.1l4.551,4.565l3.001-3.001l9.444,9.444l-9.33,9.33   l-3.883-3.883l-4.124,4.11l3.456,3.442L56.889,299.78v-5.333l6.272-5.945l-3.385-2.716l8.647-8.647l4.992,4.338l4.665-4.665   l-4.992-5.006l-3.499,3.499l-9.116-9.102l3.413-3.428l-6.997-6.329V251.112z"/>
	<path style="fill:#FAAE29;" d="M56.889,317.334l11.449,11.449l-3.115,3.1l4.551,4.565l3.001-3.001l9.444,9.444l-9.33,9.33   l-3.883-3.883l-4.124,4.11l3.456,3.442l-11.449,10.112v-5.333l6.272-5.945l-3.385-2.716l8.647-8.647l4.992,4.338l4.665-4.665   l-4.992-5.006l-3.499,3.499l-9.116-9.102l3.413-3.428l-6.997-6.329V317.334z"/>
	<path style="fill:#FAAE29;" d="M156.444,118.223l-11.449,11.449l3.115,3.1l-4.551,4.565l-3.001-3.001l-9.444,9.444l9.33,9.33   l3.883-3.883l4.124,4.11l-3.456,3.442l11.449,10.112v-5.333l-6.272-5.945l3.385-2.716l-8.647-8.647l-4.992,4.338l-4.665-4.665   l4.992-5.006l3.499,3.499l9.116-9.102l-3.413-3.428l6.997-6.329V118.223z"/>
	<path style="fill:#FAAE29;" d="M64.889,80.887l4.11-4.11l3.883,3.883l9.344-9.33l-0.228-0.213h-4.281l0.37,0.356l-4.665,4.665   l-5.006-4.338l-8.633,8.647l3.385,2.716l-6.272,5.945v5.333l11.435-10.112L64.889,80.887z"/>
	<path style="fill:#FAAE29;" d="M153.556,80.444l-8.633-8.633l-5.006,4.324l-4.665-4.665l0.356-0.356h-4.281l-0.213,0.213   l9.33,9.344l3.897-3.897l4.11,4.11l-3.456,3.442l11.449,10.112v-5.333l-6.272-5.945L153.556,80.444z"/>
	<path style="fill:#FAAE29;" d="M156.444,183.998l-11.449,11.449l3.115,3.1l-4.551,4.565l-3.001-3.001l-9.444,9.444l9.33,9.33   l3.883-3.883l4.124,4.11l-3.456,3.442l11.449,10.112v-5.333l-6.272-5.945l3.385-2.716l-8.647-8.647l-4.992,4.338l-4.665-4.665   l4.992-5.006l3.499,3.499l9.116-9.102l-3.413-3.428l6.997-6.329V183.998z"/>
	<path style="fill:#FAAE29;" d="M156.444,251.112l-11.449,11.449l3.115,3.1l-4.551,4.565l-3.001-3.001l-9.444,9.444l9.33,9.33   l3.883-3.883l4.124,4.11l-3.456,3.442l11.449,10.112v-5.333l-6.272-5.945l3.385-2.716l-8.647-8.647l-4.992,4.338l-4.665-4.665   l4.992-5.006l3.499,3.499l9.116-9.102l-3.413-3.428l6.997-6.329L156.444,251.112L156.444,251.112z"/>
	<path style="fill:#FAAE29;" d="M156.444,317.334l-11.449,11.449l3.115,3.1l-4.551,4.565l-3.001-3.001l-9.444,9.444l9.33,9.33   l3.883-3.883l4.124,4.11l-3.456,3.442l11.449,10.112v-5.333l-6.272-5.945l3.385-2.716l-8.647-8.647l-4.992,4.338l-4.665-4.665   l4.992-5.006l3.499,3.499l9.116-9.102l-3.413-3.428l6.997-6.329V317.334z"/>
</g>
<path style="fill:#29AE66;" d="M142.52,98.665v-5.632l-8.292-5.035h-6.229l-10.069-5.22h-11.264H95.402l-10.069,5.22h-6.215  l-8.306,5.035v5.632l-7.694,4.736v6.528v6.514l7.694,4.75v5.618l8.306,5.049h6.215l10.069,5.22h11.264h11.264l10.069-5.22h6.229  l8.292-5.049v-5.618l7.708-4.75v-6.514v-6.528L142.52,98.665z"/>
<path style="fill:#FAAE29;" d="M70.09,109.908v-5.561l6.571-4.053v-4.793l7.083-4.309h5.305l8.604-4.452h9.6v23.168H70.09z"/>
<g>
	<path style="fill:#FFFFFF;" d="M69.5,109.93v5.561l6.571,4.053v4.793l7.083,4.309h5.305l8.604,4.452h9.6V109.93   C106.662,109.93,69.5,109.93,69.5,109.93z"/>
	<path style="fill:#FFFFFF;" d="M143.834,109.93v-5.561l-6.571-4.053v-4.793l-7.083-4.309h-5.319l-8.59-4.452h-9.6v23.168   C106.671,109.93,143.834,109.93,143.834,109.93z"/>
</g>
<g>
	<path style="fill:#FAAE29;" d="M143.834,109.93v5.561l-6.571,4.053v4.793l-7.083,4.309h-5.319l-8.59,4.452h-9.6V109.93   C106.671,109.93,143.834,109.93,143.834,109.93z"/>
	<path style="fill:#FAAE29;" d="M79.701,174.82h-9.614v-10.382h9.614V174.82z"/>
	<path style="fill:#FAAE29;" d="M89.33,173.34h-9.614v-10.382h9.614V173.34z"/>
	<path style="fill:#FAAE29;" d="M98.958,169.628h-9.614V159.26h9.614V169.628z"/>
	<path style="fill:#FAAE29;" d="M133.916,174.82h9.614v-10.382h-9.614V174.82z"/>
	<path style="fill:#FAAE29;" d="M124.288,173.34h9.614v-10.382h-9.614V173.34z"/>
	<path style="fill:#FAAE29;" d="M114.674,169.628h9.614V159.26h-9.614V169.628z"/>
	<path style="fill:#FAAE29;" d="M114.674,166.884H98.958v-12.814h15.716V166.884L114.674,166.884z"/>
	<path style="fill:#FAAE29;" d="M79.701,177.55h-9.614v10.368h9.614V177.55z"/>
	<path style="fill:#FAAE29;" d="M89.33,179.029h-9.614v10.368h9.614V179.029z"/>
	<path style="fill:#FAAE29;" d="M98.958,182.741h-9.614v10.368h9.614V182.741z"/>
	<path style="fill:#FAAE29;" d="M133.916,177.55h9.614v10.368h-9.614V177.55z"/>
	<path style="fill:#FAAE29;" d="M124.288,179.029h9.614v10.368h-9.614V179.029z"/>
	<path style="fill:#FAAE29;" d="M114.674,182.741h9.614v10.368h-9.614V182.741z"/>
	<path style="fill:#FAAE29;" d="M114.674,185.486H98.958V198.3h15.716V185.486z"/>
</g>
<path style="fill:#FFFFFF;" d="M121.59,349.986H92.306l-20.693,13.255v18.716l20.693,13.241h29.284l20.708-13.241v-18.716  L121.59,349.986z"/>
<g>
	<path style="fill:#29AE66;" d="M129.694,250.055l-13.326,9.387h-18.83l-13.326-9.387v-13.284l13.326-9.387h18.83l13.326,9.387   V250.055z M119.227,222.521H94.679l-17.365,12.231v17.323l17.365,12.231h24.548l17.365-12.231v-17.323L119.227,222.521z"/>
	<path style="fill:#29AE66;" d="M137.277,380.625l-17.778,11.364H94.397l-17.778-11.364v-16.071l17.778-11.364h25.102l17.778,11.364   V380.625z M122.202,349.038H91.695l-21.575,13.81v19.499l21.575,13.796h30.507l21.575-13.796v-19.499   C143.777,362.847,122.202,349.038,122.202,349.038z"/>
	<path style="fill:#29AE66;" d="M129.095,324.437H84.75v-29.639h44.345V324.437z M138.724,304.882v-6.3h-6.272v-7.012H81.337v7.012   h-7.026v6.3h-6.158v9.202h6.158v6.798h7.026v7.424h51.115v-7.424h6.272v-6.798h7.353v-9.202H138.724z"/>
	<path style="fill:#29AE66;" d="M106.667,288l-26.965,16v10.368l26.965,17.493l27.25-16.896V304L106.667,288z"/>
</g>
<path style="fill:#CA3745;" d="M94.597,366.444l12.075-6.969l12.06,6.969v13.938l-12.06,6.955l-12.075-6.955V366.444z"/>
<g>
	<path style="fill:#FAAE29;" d="M118.729,427.861l-3.47,2.361c0,0-2.958-5.632-10.965-6.215c-7.993-0.583-12.444,2.66-19.257,3.1   c-6.812,0.455-27.804-15.445-16.896-39.78c9.785,7.04,4.708,15.63,9.173,19.783c4.466,4.153,9.159,6.969,10.98,11.861   c1.82,4.892,10.325,0.839,16,1.778C113.182,422.229,118.729,427.861,118.729,427.861"/>
	<path style="fill:#FAAE29;" d="M94.597,427.861l3.47,2.361c0,0,2.958-5.632,10.965-6.215c7.993-0.583,12.444,2.66,19.257,3.1   c6.812,0.455,27.804-15.445,16.896-39.78c-9.785,7.04-4.708,15.63-9.173,19.783c-4.466,4.153-9.159,6.969-10.98,11.861   c-1.82,4.892-10.325,0.839-16,1.778C100.144,422.229,94.597,427.861,94.597,427.861"/>
</g>
<g>
	<path style="fill:#FFFFFF;" d="M258.556,117.882c9.244,8.021,15.218,19.726,15.218,32.939c0,24.178-19.598,43.776-43.776,43.776   c-8.32,0-16-2.446-22.628-6.471c8.121,8.846,19.684,14.478,32.626,14.478c24.548,0,44.444-19.897,44.444-44.444   C284.44,140.254,273.802,124.922,258.556,117.882"/>
	<path style="fill:#FFFFFF;" d="M225.368,111.887l-3.499,6.869l5.447,5.461l-7.609-1.209l-3.513,6.869l-1.209-7.623l-7.623-1.195   l6.884-3.513l-1.209-7.623l5.461,5.461L225.368,111.887z"/>
	<path style="fill:#FFFFFF;" d="M247.145,125.087l-3.499,6.869l5.447,5.461l-7.609-1.209l-3.513,6.869l-1.195-7.623l-7.637-1.195   l6.884-3.513l-1.209-7.623l5.461,5.461L247.145,125.087z"/>
	<path style="fill:#FFFFFF;" d="M225.368,134.542l-3.499,6.869l5.447,5.461l-7.609-1.209l-3.513,6.869l-1.209-7.609l-7.623-1.209   l6.884-3.513l-1.209-7.623l5.461,5.461L225.368,134.542z"/>
	<path style="fill:#FFFFFF;" d="M202.7,146.055l-3.499,6.869l5.447,5.461l-7.609-1.209l-3.513,6.869l-1.195-7.623l-7.637-1.195   l6.884-3.513l-1.209-7.623l5.461,5.461L202.7,146.055z"/>
	<path style="fill:#FFFFFF;" d="M225.368,158.875l-3.499,6.869l5.447,5.461l-7.609-1.209l-3.513,6.869l-1.209-7.609l-7.623-1.209   l6.884-3.513l-1.209-7.623l5.461,5.461L225.368,158.875z"/>
</g>
<g>
	<path style="fill:#CA3745;" d="M100.437,295.396h13.013v8.747h-13.013C100.437,304.142,100.437,295.396,100.437,295.396z"/>
	<path style="fill:#CA3745;" d="M100.437,315.335h13.013v8.747h-13.013C100.437,324.082,100.437,315.335,100.437,315.335z"/>
</g>
<g>
	<path style="fill:#FAAE29;" d="M79.701,305.55h17.82v8.747h-17.82V305.55z"/>
	<path style="fill:#FAAE29;" d="M116.452,305.55h17.465v8.747h-17.465L116.452,305.55L116.452,305.55z"/>
</g>
<g>
</g>
<g>
</g>
<g>
</g>
<g>
</g>
<g>
</g>
<g>
</g>
<g>
</g>
<g>
</g>
<g>
</g>
<g>
</g>
<g>
</g>
<g>
</g>
<g>
</g>
<g>
</g>
<g>
</g>
</svg>
