<?xml version="1.0" encoding="iso-8859-1"?>
<!-- Generator: Adobe Illustrator 19.0.0, SVG Export Plug-In . SVG Version: 6.00 Build 0)  -->
<svg xmlns="http://www.w3.org/2000/svg" xmlns:xlink="http://www.w3.org/1999/xlink" version="1.1" id="Capa_1" x="0px" y="0px" viewBox="0 0 512 512" style="enable-background:new 0 0 512 512;" xml:space="preserve">
<path style="fill:#DC241F;" d="M455.111,71.111H56.889c-13.191,0-25.323,4.503-34.973,12.038c-1.199,0.936-2.365,1.911-3.484,2.938  C7.105,96.486,0,111.413,0,128v256c0,16.587,7.105,31.514,18.432,41.913c1.119,1.027,2.285,2.002,3.484,2.938  c9.65,7.535,21.783,12.038,34.973,12.038h398.222C486.528,440.889,512,415.417,512,384V128  C512,96.583,486.528,71.111,455.111,71.111z"/>
<path style="fill:#FFC726;" d="M21.916,428.851L336.597,256L21.916,83.149c-1.199,0.936-2.365,1.911-3.484,2.938L227.556,256  L18.432,425.913C19.551,426.939,20.718,427.915,21.916,428.851z"/>
<path style="fill:#141414;" d="M18.432,425.913L227.556,256L18.432,86.087C7.105,96.486,0,111.413,0,128v256  C0,400.587,7.105,415.514,18.432,425.913z"/>
<path style="fill:#FFFFFF;" d="M96.377,275.131l46.379,7.708l-32.996-33.493l21.66-41.728l-42.041,21.02l-32.996-33.493  l6.997,46.492l-42.041,21.02l46.379,7.708l6.997,46.492L96.377,275.131z"/>
<g>
</g>
<g>
</g>
<g>
</g>
<g>
</g>
<g>
</g>
<g>
</g>
<g>
</g>
<g>
</g>
<g>
</g>
<g>
</g>
<g>
</g>
<g>
</g>
<g>
</g>
<g>
</g>
<g>
</g>
</svg>
