<?xml version="1.0" encoding="iso-8859-1"?>
<!-- Generator: Adobe Illustrator 19.0.0, SVG Export Plug-In . SVG Version: 6.00 Build 0)  -->
<svg xmlns="http://www.w3.org/2000/svg" xmlns:xlink="http://www.w3.org/1999/xlink" version="1.1" id="Capa_1" x="0px" y="0px" viewBox="0 0 512 512" style="enable-background:new 0 0 512 512;" xml:space="preserve">
<g transform="matrix(1.25 0 0 -1.25 0 45)">
	<g>
		<g>
			<path style="fill:#00247D;" d="M409.6-271.2c0-25.134-20.378-45.511-45.511-45.511H45.511C20.378-316.711,0-296.334,0-271.2     v204.8c0,25.134,20.378,45.511,45.511,45.511h318.578c25.134,0,45.511-20.378,45.511-45.511V-271.2z"/>
			<g>
				<path style="fill:#FFFFFF;" d="M38.161-90.817l3.891-12.538l13.13,0.091l-10.729-7.566l4.142-12.459l-10.513,7.851      l-10.559-7.782l4.221,12.425l-10.672,7.634l13.119-0.171L38.161-90.817z"/>
				<path style="fill:#FFFFFF;" d="M92.171-168.8l5.006-16.122l16.885,0.114l-13.801-9.751l5.336-16.009l-13.528,10.092      l-13.585-10.001l5.416,15.974l-13.722,9.83l16.885-0.216L92.171-168.8z"/>
				<path style="fill:#FFFFFF;" d="M94.288-38.172l3.891-12.538l13.13,0.091l-10.729-7.566l4.142-12.459l-10.513,7.851      l-10.559-7.782l4.221,12.425l-10.672,7.646l13.119-0.182L94.288-38.172z"/>
				<path style="fill:#FFFFFF;" d="M148.594-88.245l2.753-8.875l9.296,0.068l-7.589-5.359l2.924-8.818l-7.441,5.552l-7.475-5.507      l2.992,8.795l-7.566,5.404l9.296-0.114L148.594-88.245z"/>
			</g>
			<g>
				<path style="fill:#FED100;" d="M364.089-293.956h-307.2c0,0-3.026,1.957-3.026,5.689c0,3.732,3.026,5.689,3.026,5.689h307.2      l16.885-5.689L364.089-293.956z"/>
				<path style="fill:#FED100;" d="M56.889-271.2c0,0,56.889,22.756,125.156,91.022S295.822-66.4,318.578-55.022      c-19.945-19.945-42.894-159.289,13.995-204.8c0,0,31.516-5.928,31.516-11.378H56.889z"/>
			</g>
		</g>
	</g>
</g>
<g>
</g>
<g>
</g>
<g>
</g>
<g>
</g>
<g>
</g>
<g>
</g>
<g>
</g>
<g>
</g>
<g>
</g>
<g>
</g>
<g>
</g>
<g>
</g>
<g>
</g>
<g>
</g>
<g>
</g>
</svg>
