<?xml version="1.0" encoding="iso-8859-1"?>
<!-- Generator: Adobe Illustrator 19.0.0, SVG Export Plug-In . SVG Version: 6.00 Build 0)  -->
<svg xmlns="http://www.w3.org/2000/svg" xmlns:xlink="http://www.w3.org/1999/xlink" version="1.1" id="Capa_1" x="0px" y="0px" viewBox="0 0 512 512" style="enable-background:new 0 0 512 512;" xml:space="preserve">
<path style="fill:#EEEEEE;" d="M455.111,71.111H56.889C25.472,71.111,0,96.583,0,128v56.889v142.222V384  c0,31.417,25.472,56.889,56.889,56.889h398.222C486.528,440.889,512,415.417,512,384v-56.889V184.889V128  C512,96.583,486.528,71.111,455.111,71.111z"/>
<path style="fill:#CC0000;" d="M455.111,71.111H56.889C25.472,71.111,0,96.583,0,128v56.889h512V128  C512,96.583,486.528,71.111,455.111,71.111z"/>
<path style="fill:#006600;" d="M0,384c0,31.417,25.472,56.889,56.889,56.889h398.222C486.528,440.889,512,415.417,512,384v-56.889H0  V384z"/>
<g>
	<path style="fill:#FFAC33;" d="M228.145,305.487c-5.803,1.65-9.188-3.854-9.188-3.854l4.594-2.076l2.219-7.111l4.608,6.613h5.177   C235.554,299.058,234.36,303.709,228.145,305.487"/>
	<path style="fill:#FFAC33;" d="M301.335,311.706c-8.889-2.66-29.611-6.215-45.34-6.215c-15.701,0-36.437,3.556-45.326,6.215   c-8.889,2.66-6.812,11.25,0,8.59c6.812-2.674,23.41-5.333,45.326-5.333c21.945,0,38.528,2.66,45.34,5.333   C308.162,322.956,310.224,314.365,301.335,311.706"/>
	<path style="fill:#FFAC33;" d="M259.556,295.708L256,289.778l-3.556,5.931l-6.215,2.66c0,0,4.437,5.035,9.771,5.035   c5.333,0,9.771-5.035,9.771-5.035L259.556,295.708z"/>
	<path style="fill:#FFAC33;" d="M283.861,305.487c5.803,1.65,9.188-3.854,9.188-3.854l-4.608-2.076l-2.219-7.111l-4.58,6.613h-5.191   C276.452,299.058,277.646,303.709,283.861,305.487"/>
	<path style="fill:#FFAC33;" d="M246.223,243.556c2.944-6.258,9.771-5.333,9.771-5.333s6.841-0.924,9.785,5.333   c-5.035,0.597-9.785,4.437-9.785,4.437S251.257,244.153,246.223,243.556 M317.931,287.644c-1.493-3.797-5.148,6.372-15.104,4.807   c-11.264-1.778-13.639-13.056-13.639-13.056s-8.889,8.903-18.076,4.75c-9.173-4.139-11.563-10.069-11.563-16.597   c0-6.514-0.825-11.321,0-13.924c1.337-4.139,6.229-7.111,11.278-2.361c4.139-5.931-2.972-18.375-14.834-18.375   c-11.847,0-18.958,12.444-14.805,18.375c5.049-4.75,9.927-1.778,11.25,2.361c0.839,2.603,0,7.41,0,13.924   c0,6.528-2.361,12.459-11.548,16.597c-9.188,4.153-18.076-4.75-18.076-4.75s-2.361,11.278-13.625,13.056   c-9.956,1.564-13.639-8.604-15.118-4.807c-1.465,3.783,6.528,15.175,17.778,11.477c11.278-3.684,12.743-13.198,12.743-13.198   s5.788,10.667,19.257,6.528c10.155-3.129,12.146-12.743,12.146-12.743s2.005,9.614,12.16,12.743   c13.483,4.139,19.257-6.528,19.257-6.528s1.479,9.515,12.743,13.198C311.417,302.82,319.41,291.428,317.931,287.644"/>
	<path style="fill:#FFAC33;" d="M188.444,257.694l2.816,8.661h9.102l-7.367,5.362l2.816,8.661l-7.367-5.362l-7.367,5.362   l2.816-8.661l-7.367-5.362h9.102L188.444,257.694z"/>
	<path style="fill:#FFAC33;" d="M197.333,225.993l2.816,8.661h9.102l-7.367,5.362l2.816,8.661l-7.367-5.362l-7.367,5.362   l2.816-8.661l-7.367-5.362h9.102L197.333,225.993z"/>
	<path style="fill:#FFAC33;" d="M221.181,200.507l2.816,8.661h9.102l-7.367,5.362l2.816,8.661l-7.367-5.362l-7.367,5.362   l2.816-8.661l-7.367-5.362h9.102L221.181,200.507z"/>
	<path style="fill:#FFAC33;" d="M256,191.91l2.816,8.661h9.102l-7.367,5.362l2.816,8.661L256,209.233l-7.367,5.362l2.816-8.661   l-7.367-5.362h9.102L256,191.91z"/>
	<path style="fill:#FFAC33;" d="M321.028,257.694l-2.802,8.661h-9.116l7.367,5.362l-2.816,8.661l7.367-5.362l7.381,5.362   l-2.83-8.661l7.381-5.362h-9.116L321.028,257.694z"/>
	<path style="fill:#FFAC33;" d="M312.139,225.993l-2.802,8.661h-9.116l7.367,5.362l-2.816,8.661l7.367-5.362l7.381,5.362   l-2.83-8.661l7.381-5.362h-9.116L312.139,225.993z"/>
	<path style="fill:#FFAC33;" d="M288.305,200.507l-2.816,8.661h-9.116l7.381,5.362l-2.83,8.661l7.381-5.362l7.367,5.362   l-2.816-8.661l7.367-5.362h-9.116L288.305,200.507z"/>
</g>
<g>
</g>
<g>
</g>
<g>
</g>
<g>
</g>
<g>
</g>
<g>
</g>
<g>
</g>
<g>
</g>
<g>
</g>
<g>
</g>
<g>
</g>
<g>
</g>
<g>
</g>
<g>
</g>
<g>
</g>
</svg>
