<?xml version="1.0" encoding="iso-8859-1"?>
<!-- Generator: Adobe Illustrator 19.0.0, SVG Export Plug-In . SVG Version: 6.00 Build 0)  -->
<svg xmlns="http://www.w3.org/2000/svg" xmlns:xlink="http://www.w3.org/1999/xlink" version="1.1" id="Capa_1" x="0px" y="0px" viewBox="0 0 512 512" style="enable-background:new 0 0 512 512;" xml:space="preserve">
<g transform="matrix(1.25 0 0 -1.25 0 45)">
	<path style="fill:#006A4E;" d="M364.089-20.889H176.69h-0.335H45.511c-0.76,0-1.514-0.021-2.266-0.058   c-0.247-0.012-0.491-0.036-0.737-0.052c-0.503-0.033-1.006-0.065-1.503-0.115c-0.283-0.028-0.561-0.067-0.842-0.1   c-0.46-0.054-0.92-0.107-1.375-0.175c-0.281-0.042-0.56-0.093-0.839-0.139c-0.454-0.076-0.909-0.153-1.358-0.243   c-0.264-0.052-0.524-0.111-0.786-0.168c-0.468-0.102-0.936-0.207-1.399-0.323c-0.229-0.057-0.456-0.119-0.684-0.18   c-0.502-0.134-1.001-0.274-1.496-0.425c-0.179-0.054-0.356-0.111-0.535-0.167c-0.556-0.177-1.108-0.362-1.654-0.56   c-0.108-0.038-0.216-0.078-0.324-0.118c-0.643-0.238-1.279-0.487-1.907-0.752c-0.006-0.003-0.012-0.005-0.018-0.008   C11.46-31.38,0-47.552,0-66.4v-13.278v-58.778v-58.789v-0.335v-59.968V-271.2c0-25.133,20.378-45.511,45.511-45.511h318.578   c25.133,0,45.511,20.378,45.511,45.511v13.653v59.164v59.164v59.164V-66.4C409.6-41.267,389.222-20.889,364.089-20.889z"/>
	<g>
		<path style="fill:#FFCE00;" d="M176.356-139.218H409.6v59.164H176.356V-139.218L176.356-139.218z"/>
		<path style="fill:#FFCE00;" d="M0-197.244v-60.302h409.6v59.164l-233.244,1.138L0-197.244L0-197.244z"/>
	</g>
	<path style="fill:#D21034;" d="M0-61.277v-18.401v-58.778v-59.123h176.69v59.123v58.778v58.789H45.511   C22.111-20.889,2.677-38.556,0-61.277z"/>
	<path style="fill:#FFFFFF;" d="M140.386-93.86h-39.299l-0.148,0.455L88.47-55.027l-0.25-0.762L75.851-93.86H35.415h-0.398   l32.518-23.631l0.524-0.376l-12.152-37.364l-0.467-1.467l33.03,24.007l33.041-24.007l-12.618,38.833l33.03,24.007L140.386-93.86   L140.386-93.86z"/>
</g>
<g>
</g>
<g>
</g>
<g>
</g>
<g>
</g>
<g>
</g>
<g>
</g>
<g>
</g>
<g>
</g>
<g>
</g>
<g>
</g>
<g>
</g>
<g>
</g>
<g>
</g>
<g>
</g>
<g>
</g>
</svg>
