<?xml version="1.0" encoding="iso-8859-1"?>
<!-- Generator: Adobe Illustrator 19.0.0, SVG Export Plug-In . SVG Version: 6.00 Build 0)  -->
<svg xmlns="http://www.w3.org/2000/svg" xmlns:xlink="http://www.w3.org/1999/xlink" version="1.1" id="Capa_1" x="0px" y="0px" viewBox="0 0 512 512" style="enable-background:new 0 0 512 512;" xml:space="preserve">
<g transform="matrix(1.25 0 0 -1.25 0 45)">
	<g>
		<g>
			<path style="fill:#002395;" d="M409.6-271.2c0-25.134-20.378-45.511-45.511-45.511H45.511C20.378-316.711,0-296.334,0-271.2     v204.8c0,25.134,20.378,45.511,45.511,45.511h318.578c25.134,0,45.511-20.378,45.511-45.511V-271.2z"/>
			<path style="fill:#EEEEEE;" d="M68.267-20.889v-136.533H0V-168.8h216.178v147.911H68.267z"/>
			<path style="fill:#ED2939;" d="M204.8-157.422h-68.267v136.533H204.8V-157.422z"/>
			<path style="fill:#EEEEEE;" d="M136.533-157.422H68.267v136.533h68.267V-157.422z"/>
			<g>
				<path style="fill:#FFFFFF;" d="M340.924-192.625L321.57-222.56v54.192h25.805l9.535,10.934h-44.146h-44.134l9.523-10.934h25.816      v-54.192l-19.354,29.935l-28.16-43.998h14.074l14.086,23.154l28.149-49.562l28.16,49.562l14.086-23.154h14.086L340.924-192.625z      "/>
				<path style="fill:#FFFFFF;" d="M307.314-180.235h35.487l-7.817-10.706h-25.816L307.314-180.235z"/>
				<path style="fill:#FFFFFF;" d="M298.689-232.982h-28.171v7.02h28.171V-232.982z"/>
				<path style="fill:#FFFFFF;" d="M355.009-232.982h-28.16v7.02h28.16V-232.982z"/>
				<path style="fill:#FFFFFF;" d="M312.764-273.544l3.402-11.685h11.765l-9.284-7.509l3.391-11.548l-9.273,7.054l-9.284-6.872      l3.402,11.378l-9.284,7.498h11.457L312.764-273.544z"/>
				<path style="fill:#FFFFFF;" d="M252.018-168.8l3.402-11.674h11.765l-9.273-7.191l3.391-11.378l-9.284,7.134l-9.273-6.827      l3.391,11.071l-9.273,7.191h11.446L252.018-168.8z"/>
				<path style="fill:#FFFFFF;" d="M373.476-168.8l3.413-11.674h11.753l-9.273-7.191l3.391-11.378l-9.284,7.134l-9.262-6.827      l3.379,11.071l-9.273,7.191h11.457L373.476-168.8z"/>
				<path style="fill:#FFFFFF;" d="M279.45-250.151l3.391-11.674h11.765l-9.273-7.305l3.379-11.435l-9.262,7.111l-9.284-6.827      l3.402,11.162l-9.284,7.293h11.446L279.45-250.151z"/>
				<path style="fill:#FFFFFF;" d="M346.089-250.151l3.413-11.674h11.753l-9.284-7.305l3.402-11.435l-9.284,7.111l-9.262-6.827      l3.379,11.162l-9.273,7.293h11.457L346.089-250.151z"/>
			</g>
		</g>
	</g>
</g>
<g>
</g>
<g>
</g>
<g>
</g>
<g>
</g>
<g>
</g>
<g>
</g>
<g>
</g>
<g>
</g>
<g>
</g>
<g>
</g>
<g>
</g>
<g>
</g>
<g>
</g>
<g>
</g>
<g>
</g>
</svg>
