<?xml version="1.0" encoding="iso-8859-1"?>
<!-- Generator: Adobe Illustrator 19.0.0, SVG Export Plug-In . SVG Version: 6.00 Build 0)  -->
<svg xmlns="http://www.w3.org/2000/svg" xmlns:xlink="http://www.w3.org/1999/xlink" version="1.1" id="Capa_1" x="0px" y="0px" viewBox="0 0 512 512" style="enable-background:new 0 0 512 512;" xml:space="preserve">
<path style="fill:#00247D;" d="M455.112,71.113H56.894c-31.417,0-56.888,25.472-56.888,56.888v255.997  c0,31.417,25.472,56.888,56.888,56.888h398.218c31.417,0,56.888-25.472,56.888-56.888V128.001  C512,96.585,486.528,71.113,455.112,71.113z"/>
<path style="fill:#EEEEEE;" d="M270.225,256v-28.857l-100.977-70.698H94.881L237.059,256H270.225z"/>
<path style="fill:#CF1B2B;" d="M270.225,235.833l-113.364-79.388h-24.789l138.153,96.738L270.225,235.833L270.225,235.833z"/>
<path style="fill:#EEEEEE;" d="M115.199,156.446L0,238.45V256h47.388l142.192-99.554L115.199,156.446L115.199,156.446z"/>
<path style="fill:#CF1B2B;" d="M152.379,156.446L10.443,256h3.783h20.778l142.178-99.554L152.379,156.446L152.379,156.446z"/>
<path style="fill:#EEEEEE;" d="M237.072,71.113L94.894,170.668h74.367L270.223,99.97V71.113H237.072z"/>
<path style="fill:#CF1B2B;" d="M249.447,71.113l-142.164,99.554h24.789l138.153-96.738v-2.816H249.447z"/>
<path style="fill:#EEEEEE;" d="M9.432,96.649l132.795,92.949v-18.93h47.331L48.315,71.758C32.088,74.214,18.117,83.528,9.432,96.649  z"/>
<path style="fill:#CF1B2B;" d="M13.785,90.906l128.441,90.031v-10.268h10.155L24.589,81.185  C20.584,83.954,16.955,87.226,13.785,90.906z"/>
<path style="fill:#EEEEEE;" d="M270.225,128.001h-99.554V71.113H99.56v56.888H0.006v71.11H99.56V256h71.11v-56.888h99.554V128.001z"/>
<g>
	<path style="fill:#CF1B2B;" d="M156.449,256h-42.666V71.113h42.666V256z"/>
	<path style="fill:#CF1B2B;" d="M270.225,184.89H0.006v-42.666h270.219V184.89z"/>
</g>
<path style="fill:#FFFFFF;" d="M400.45,170.668h-73.329v52.991c0,73.67,41.045,100.578,73.329,118.114  c32.284-17.536,68.294-44.444,68.294-118.114v-52.991H400.45z"/>
<path style="fill:#FEC400;" d="M400.45,333.222c-31.317-17.493-67.398-42.78-67.398-109.567V180.15h130.786v43.505  C463.837,290.442,431.767,315.728,400.45,333.222"/>
<path style="fill:#00A728;" d="M426,298.449c-0.882-7.779-7.339-32.227-14.891-39.552c-7.552-7.339-10.667-1.678-10.667-1.678  s-3.115-5.66-10.667,1.678c-7.552,7.324-13.995,31.772-14.891,39.552c-0.882,7.779,0.896,9.557,4.892,9.557  c1.778,3.769,8.661,4.437,8.661,4.437s7.779,5.12,12.003,0c4.224,5.12,12.003,0,12.003,0s6.883-0.668,8.661-4.437  C425.118,308.006,426.882,306.228,426,298.449"/>
<path style="fill:#F0082D;" d="M411.778,249.973c0,6.77,1.792,12.245-11.107,12.245c-12.899,0-11.107-5.475-11.107-12.245  c0-6.77,4.964-12.259,11.107-12.259C406.8,237.714,411.778,243.203,411.778,249.973"/>
<path style="fill:#FF9F3E;" d="M376.668,241.114c-3.556,6.002-9.116,1.778-11.548-5.333c-2.446-7.111-12.231-9.116-15.786-11.107  c-3.556-2.005-4.437-5.333,0-7.779c4.452-2.446,1.778-5.561,4.892-6.443c-3.996-0.896-7.58,1.323-7.907,0  c-0.313-1.337,2.802-5.049,7.907-5.632c-4.224-5.262-1.778-16.37,0-16.597c1.778-0.213,5.419,3.115,7.267,6.443  c1.849,3.342,7.182,2.674,6.727,7.339c1.109,1.109,4.892,0.441,8.448,6.215C380.223,214.006,376.668,241.114,376.668,241.114"/>
<path style="fill:#FF927F;" d="M378.252,240.223c-5.049,0.384-6.912-3.996-7.808-10.439c-0.882-6.443-9.998-4.039-5.774-13.696  c4.224-9.643,5.803-3.797,6.229-11.278c0.441-7.481,2.887-13.696,5.106-13.696c2.219,0,5.106,6.883,6.215,9.771  c1.109,2.887,5.39,2.233,7.253,12.231s-0.356,17.337-2.802,19.555s-3.556,2.546-3.996,5.049  C382.22,240.223,381.551,239.967,378.252,240.223"/>
<path style="fill:#FE9DE0;" d="M378.252,197.777c1.522,1.109,1.579,2.66,0,5.333c-1.579,2.66,1.024,5.333,1.166,9.771  c0.142,4.452-2.162,6.002-1.678,8.235c0.484,2.219,4.039,6.443,3.598,11.548c-0.441,5.12-1.508,6.67-3.086,7.552  c-1.579,0.896-0.91-2.66-0.583-5.988c0.327-3.342-1.892-7.111-3.001-10.453c-1.109-3.328,1.508-5.774,2.19-9.116  c0.697-3.328-1.081-6.371-1.294-9.842C375.336,201.332,378.252,197.777,378.252,197.777"/>
<g>
	<path style="fill:#BA5B1F;" d="M429.781,206.223c0.668-4.892,0.441-12.444-1.109-15.104c-1.55-2.674-3.996-4.224-2.446-4.679   c1.55-0.441,8.889,7.339,4.892,23.111C427.121,225.337,429.781,206.223,429.781,206.223"/>
	<path style="fill:#BA5B1F;" d="M428.998,204.863c-3.001-1.749-6.883-6.201-6.499-8.633c0.384-2.446,3.271-6.898,3.726-6.002   c0.441,0.882-1.337,3.641,0,7.253c1.323,3.627,1.977,3.84,3.783,6.258C431.814,206.157,428.998,204.863,428.998,204.863"/>
	<path style="fill:#BA5B1F;" d="M427.363,208.222c-1.792-2.162-21.589-14.891-19.584-15.772c2.005-0.896,19.029,9.771,21.731,15.772   C432.227,214.224,427.363,208.222,427.363,208.222"/>
	<path style="fill:#BA5B1F;" d="M426.224,211.999c-7.239-7.182-25.116-8.448-24.22-9.557c0.882-1.109,23.808,0.996,27.008,7.609   C432.226,216.663,426.224,211.999,426.224,211.999"/>
	<path style="fill:#BA5B1F;" d="M425.723,215.799c-8.163-4.238-22.442-5.134-23.751-4.907c-1.308,0.228,13.781-4.238,24.576,2.432   C437.328,220.009,425.723,215.799,425.723,215.799"/>
	<path style="fill:#BA5B1F;" d="M426.224,221.779c-8.448-3.783-20.892-2.66-23.111-1.337c-2.219,1.337,6.443-5.02,12.444-4.395   c6.002,0.626,11.804,1.877,13.454,3.029C430.662,220.229,429.168,223.102,426.224,221.779"/>
	<path style="fill:#BA5B1F;" d="M431.137,204.814c-1.024-5.461-1.038-10.069-8.363-9.515s-8.633,14.265-6.812,33.365   c1.82,19.114-0.412,25.372-0.74,26.467c-0.341,1.095,4.082-3.797,3.769-12.245c-0.327-8.434-2.19-27.008-1.593-33.834   c0.597-6.827,3.925-11.947,8.32-10.61c4.409,1.351,3.413,4.779,3.3,8.946C428.89,211.555,431.137,204.814,431.137,204.814"/>
	<path style="fill:#BA5B1F;" d="M436.001,240.362c0,0,2.219-1.252,5.106-16.355c2.887-15.118-3.328-21.561-8.889-21.561   c-5.547,0-11.776,6.443-8.889,21.561c2.901,15.104,5.12,16.355,5.12,16.355s-6.812,6.471-5.845,9.614   c0.953,3.129,9.614,3.2,9.614,3.2s8.675-0.071,9.628-3.2C442.814,246.833,436.001,240.362,436.001,240.362"/>
	<path style="fill:#BA5B1F;" d="M434.737,206.223c-0.668-4.892-0.441-12.444,1.109-15.104c1.55-2.674,3.996-4.224,2.446-4.679   c-1.55-0.441-8.889,7.339-4.892,23.111C437.396,225.337,434.737,206.223,434.737,206.223"/>
	<path style="fill:#BA5B1F;" d="M435.515,204.863c3.001-1.749,6.883-6.201,6.499-8.633c-0.384-2.446-3.271-6.898-3.726-6.002   c-0.441,0.882,1.337,3.641,0,7.253c-1.323,3.627-1.977,3.84-3.783,6.258C432.699,206.157,435.515,204.863,435.515,204.863"/>
	<path style="fill:#BA5B1F;" d="M437.153,208.222c1.792-2.162,21.589-14.891,19.584-15.772c-2.005-0.896-19.029,9.771-21.731,15.772   C432.29,214.224,437.153,208.222,437.153,208.222"/>
	<path style="fill:#BA5B1F;" d="M438.292,211.999c7.239-7.182,25.116-8.448,24.22-9.557c-0.882-1.109-23.808,0.996-27.008,7.609   C432.29,216.663,438.292,211.999,438.292,211.999"/>
	<path style="fill:#BA5B1F;" d="M438.792,215.799c8.163-4.238,22.442-5.134,23.751-4.907c1.308,0.228-13.781-4.238-24.576,2.432   C427.186,220.009,438.792,215.799,438.792,215.799"/>
	<path style="fill:#BA5B1F;" d="M438.292,221.779c8.448-3.783,20.892-2.66,23.111-1.337c2.219,1.337-6.443-5.02-12.444-4.395   c-6.002,0.626-11.804,1.877-13.454,3.029C433.855,220.229,435.348,223.102,438.292,221.779"/>
	<path style="fill:#BA5B1F;" d="M433.376,204.814c1.024-5.461,1.038-10.069,8.363-9.515s8.633,14.265,6.812,33.365   c-1.82,19.114,0.412,25.372,0.74,26.467c0.341,1.095-4.082-3.797-3.755-12.245c0.313-8.434,2.176-27.008,1.579-33.834   c-0.597-6.827-3.925-11.947-8.32-10.61c-4.409,1.351-3.413,4.779-3.3,8.946C435.623,211.555,433.376,204.814,433.376,204.814"/>
</g>
<g>
</g>
<g>
</g>
<g>
</g>
<g>
</g>
<g>
</g>
<g>
</g>
<g>
</g>
<g>
</g>
<g>
</g>
<g>
</g>
<g>
</g>
<g>
</g>
<g>
</g>
<g>
</g>
<g>
</g>
</svg>
