<?xml version="1.0" encoding="iso-8859-1"?>
<!-- Generator: Adobe Illustrator 19.0.0, SVG Export Plug-In . SVG Version: 6.00 Build 0)  -->
<svg xmlns="http://www.w3.org/2000/svg" xmlns:xlink="http://www.w3.org/1999/xlink" version="1.1" id="Capa_1" x="0px" y="0px" viewBox="0 0 512 512" style="enable-background:new 0 0 512 512;" xml:space="preserve">
<path style="fill:#00247D;" d="M455.112,71.113H56.894c-31.417,0-56.888,25.472-56.888,56.888v255.997  c0,31.417,25.472,56.888,56.888,56.888h398.218c31.417,0,56.888-25.472,56.888-56.888V128.001  C512,96.585,486.528,71.113,455.112,71.113z"/>
<path style="fill:#EEEEEE;" d="M270.225,256v-28.857l-100.977-70.698H94.881L237.059,256H270.225z"/>
<path style="fill:#CF1B2B;" d="M270.225,235.833l-113.364-79.388h-24.789l138.153,96.738L270.225,235.833L270.225,235.833z"/>
<path style="fill:#EEEEEE;" d="M115.199,156.446L0,238.45V256h47.388l142.192-99.554L115.199,156.446L115.199,156.446z"/>
<path style="fill:#CF1B2B;" d="M152.379,156.446L10.443,256h3.783h20.778l142.178-99.554L152.379,156.446L152.379,156.446z"/>
<path style="fill:#EEEEEE;" d="M237.072,71.113L94.894,170.668h74.367L270.223,99.97V71.113H237.072z"/>
<path style="fill:#CF1B2B;" d="M249.447,71.113l-142.164,99.554h24.789l138.153-96.738v-2.816H249.447z"/>
<path style="fill:#EEEEEE;" d="M9.432,96.649l132.795,92.949v-18.93h47.331L48.315,71.758C32.088,74.214,18.117,83.528,9.432,96.649  z"/>
<path style="fill:#CF1B2B;" d="M13.785,90.906l128.441,90.031v-10.268h10.155L24.589,81.185  C20.584,83.954,16.955,87.226,13.785,90.906z"/>
<path style="fill:#EEEEEE;" d="M270.225,128.001h-99.554V71.113H99.56v56.888H0.006v71.11H99.56V256h71.11v-56.888h99.554V128.001z"/>
<g>
	<path style="fill:#CF1B2B;" d="M156.449,256h-42.666V71.113h42.666V256z"/>
	<path style="fill:#CF1B2B;" d="M270.225,184.89H0.006v-42.666h270.219V184.89z"/>
</g>
<path style="fill:#C0E6E9;" d="M378.89,186.376c-2.005-5.703-15.104-10.595-20.892-8.377c6.67-12.444,17.721-16.213,23.31-22.002  c5.575-5.774,5.803-10.88,5.803-10.88s5.106,8.661,10.226,16.668c5.106,7.993,12.032,12.444,12.032,12.444  S391.334,179.634,378.89,186.376"/>
<path style="fill:#AE7521;" d="M381.529,185.167c0,0.668-0.54,1.209-1.209,1.209c-0.668,0-1.209-0.54-1.209-1.209v-35.072  c0-0.668,0.54-1.209,1.209-1.209c0.668,0,1.209,0.54,1.209,1.209V185.167z"/>
<path style="fill:#C7E9EB;" d="M389.862,192.001c-9.571,0-24.746-0.441-26.083-3.115c-1.337-2.66-1.778-9.557-1.778-9.557  s11.335,5.561,26.666,5.561c15.331,0,25.116-5.561,25.116-5.561s0.114,9.372-4.423,11.122  C406.189,191.674,400.756,192.001,389.862,192.001"/>
<path style="fill:#9FC2FF;" d="M321.557,232.001c-1.778,4.437-2.005,10.226,1.337,12.672c3.328,2.432,8.661-2.446,8.661-2.446  S321.998,241.33,321.557,232.001"/>
<path style="fill:#00A3D6;" d="M343.334,239.56c-4.224-3.783-13.056-0.882-13.056-0.882s1.052-5.12,3.726-6.67  c-7.339-0.668-11.221,1.337-13.724,7.552c-2.944-3.328,1.28-11.548,1.28-11.548s9.557-5.788,18.659,0  c7.552-10.453,8.747-28.458-0.398-26.894c2.404-6.002,19.598-2.233,16.327,8.107c-3.257,10.339-8.59,14.336-8.59,14.336  s8.917-8.419,15.018-4.651c6.087,3.769,8.761,21.404-4.579,15.587c-13.326-5.831-15.772-2.19-16,0  C341.784,236.673,343.334,239.56,343.334,239.56"/>
<path style="fill:#9FC2FF;" d="M374.224,236.445c-5.689,16.739-16.882,16.739-16.882,16.739s0.654-5.788,2.887-8.377  c-9.557,3.641-22.898-2.148-20.01-16.81c2.233,9.33,11.563,12.444,20.224,8.22C369.118,232.007,375.092,233.913,374.224,236.445"/>
<path style="fill:#00A3D6;" d="M311.78,211.779c-1.621-2.645,2.247-7.339,7.452-5.561c-3.456,3.783-1.863,7.566,0,10.226  C321.11,219.117,313.558,214.666,311.78,211.779"/>
<path style="fill:#9FC2FF;" d="M347.114,200.223c-4.224-1.337-7.296,0.882-7.296,0.882s-2.261-5.106-9.145-3.1  c-6.898,1.991-11.107-0.469-11.107-0.469s2.219,7.196,12.658,7.282c-6.443,8.291-17.337,9.856-20.437,6.955  c1.778,4.011,7.993,8.889,10.211,9.116c2.233,0.228,13.938-6.684,16.455-14.663c0.441-1.408,1.778,0.213,0,2.987  c-1.778,2.788-3.342,5.902-2.233,10.795c1.621-2.716,5.12-2.901,6.898-7.111c1.778-4.224,0.213-8.675,3.996-10.012  C350.897,201.56,347.114,200.223,347.114,200.223"/>
<path style="fill:#8DA8C3;" d="M401.183,262.812c-6.898,0-7.41-11.847-7.41-11.847s-2.062,0.967-7.993,5.959  c-5.931,5.006-14.819,5.959-14.819,5.959s-6.812-7.481,1.195-16.37c-0.313-8.889-10.382-18.076-10.382-18.076l-8.291-1.778  c0,0,19.84-19.257,34.375-20.437c14.521-1.18,15.388,5.333,14.208,18.659c-1.18,13.34,2.972,21.632,2.972,21.632  S417.468,262.812,401.183,262.812"/>
<g>
	<path style="fill:#CC1530;" d="M364.668,220.896c-1.55,1.778-1.493,2.432,2.915,2.219c4.423-0.228,6.727,0.043,6.727,0.043   s-9.202,4.807-14.976,2.162C360.231,222.446,364.668,220.896,364.668,220.896"/>
	<path style="fill:#CC1530;" d="M396.903,249.557c0,0,5.987-3.783,8.206,2.66c2.219,6.457-0.27,7.111-3.243,7.339   C398.894,259.782,396.903,249.557,396.903,249.557"/>
</g>
<g>
	<path style="fill:#9FC2FF;" d="M417.556,230.891c-1.963,4.338-2.005,13.781,7.779,17.337   C427.114,241.116,425.777,236.892,417.556,230.891"/>
	<path style="fill:#9FC2FF;" d="M438.669,235.556c2.219-2.219,0.668-10.894-6.002-7.552c-6.67,3.328-9.671,2.446-11.392,1.337   c1.166-2.005,5.845-3.556,5.845-3.556s-8.533,0.654-10.61-6.457c5.049,1.337,7.495,0,7.495,0s-2.788-1.991-2.731-3.556   c3.84-1.323,9.173,2.901,9.173,2.901s-1.892-3.115-2.276-10.453c-0.398-7.339,5.603-9.884,10.055-6.386   c-4.224,5.049,0.668,14.834,2.66,23.282c8.22-6.002,18.218-4.665,18.674,4.665c0.441,9.33-2.446,7.111-2.446,7.111   s3.556-8.889-9.33-7.552c5.547,2.66,2.887,5.148,2.887,5.148S444.67,232.897,438.669,235.556"/>
</g>
<g>
	<path style="fill:#00A3D6;" d="M409.584,211.553c-5.803-0.654-3.584,6.471-12.032,9.344c2.005,0.882,6.016,0,6.016,0   s-3.982,7.324,0,14.891c3.541-2.887,4.651-7.779,4.651-7.779s0,8.505,4.452,12.587c3.883-5.02,1.991-11.25,1.991-11.25   s2.731,7.623,11.363,11.25c8.647,3.627,14.421-4.366,15.09-8.59c0.668-4.224-1.337-5.49-1.337-5.49s-7.282,6.827-13.753,2.83   c2.859-2.674,1.636-4.139-4.75-4.636c-6.386-0.484-7.936-9.372-8.604-10.482C412.002,213.117,409.584,211.553,409.584,211.553"/>
	<path style="fill:#00A3D6;" d="M428.859,203.869c2.475-6.542,10.923-7.609,14.023-5.632c5.788-3.129,11.861,3.1,16.711,1.095   c-2.034,4.665-8.035,6.955-11.15,5.475c3.783,5.419,13.824,9.031,17.55,5.774c3.74-3.271,1.195,4.224-6.4,6.713   c-7.595,2.489-12.928-6.713-12.928-6.713s1.55,5.703,0,8.121c-5.774-2.034-8.775-8.092-8.619-12.487   C438.217,201.836,434.604,198.622,428.859,203.869"/>
</g>
<path style="fill:#9FC2FF;" d="M459.601,217.293c5.959-1.294,10.411-6.201,10.624-8.078c0.228-1.877-3.029-7.595-10.624-4.395  C466.228,207.337,464.977,215.472,459.601,217.293"/>
<path style="fill:#00A3D6;" d="M458.263,225.315c4.622,6.243,3.285,12.914,2.404,14.236c-0.896,1.337-7.765,3.74-10.439-0.882  C456.002,238.229,461.449,233.18,458.263,225.315"/>
<path style="fill:#D9A323;" d="M390.084,212.225c-10.155,0-25.401,5.063-25.401,5.063s-0.526-6.03-3.797-11.065  c-3.257-5.035-4.736-12.146-4.736-12.146s8.291,1.493,9.187,6.528c0.882,5.035-0.299,9.472-0.299,9.472l10.069-2.66  c0,0-2.66-4.352-5.035-1.195s-5.035-8.59-1.479-10.368s12.928-3.854,12.928-3.854s0.711,8.59,1.294,10.667s-4.75,2.148-4.75,2.148  l0.896,1.408h8.889c0,0-2.958-3.328-2.958-8.59c0-5.76,6.215-11.25,6.215-11.25s5.561,7.438,5.561,11.847  c0,4.395-3.314,7.993-3.314,7.993l7.822,1.493c0,0,2.958-5.931,0-4.451c-2.958,1.479-2.972-1.778-1.778-5.632  c1.195-3.854,0.313-7.41,0.313-7.41l12.131,5.632c0,0,0.896,1.294,0,5.987c-0.882,4.679-6.215,4.238-6.215,4.238v2.816l7.993,2.076  c0,0-2.375-5.532,0-9.131c2.375-3.612,10.382-5.987,10.382-5.987s-6.528,11.762-10.382,21.433  C408.715,214.956,400.239,212.225,390.084,212.225"/>
<path style="fill:#FFFFFF;" d="M390.209,256h-0.27H352.35v45.781c0,39.068,26.282,45.226,37.589,48.369v0.071  c0.043-0.014,0.1-0.028,0.142-0.043c0.028,0.014,0.085,0.028,0.128,0.043v-0.071c11.321-3.143,37.603-9.301,37.603-48.369V256  L390.209,256L390.209,256z"/>
<g>
	<path style="fill:#179AF9;" d="M389.946,256h-37.603v44.671h75.462V256h-37.589H389.946z"/>
	<path style="fill:#179AF9;" d="M390.084,326.893c0,0-2.745-13.995-14.976-26.225h28.444   C403.553,300.667,392.616,311.789,390.084,326.893"/>
</g>
<g>
	<path style="fill:#FFFFFF;" d="M390.084,274.445c0,0-2.745,13.994-14.976,26.225h28.444   C403.553,300.671,392.616,289.549,390.084,274.445"/>
	<path style="fill:#FFFFFF;" d="M386.67,274.445c-0.839,2.46-5.774,7.111-9.33,8.22c-3.556,1.109-9.059,5.333-9.756,7.339   c-0.697-2.233,1.749-5.561,1.749-5.561s-3.996,0.441-4.437,5.561c-0.441,5.106-8.732,5.333-8.732,5.333s1.621-7.111,5.845-11.335   s6.827-1.778,9.415-3.342c2.574-1.55-0.981-5.106,1.92-9.102c2.887-3.996,10.667-2.887,13.326-6.002   c0.882,2.446-6.67,6.883-7.779,7.339c-1.109,0.441-1.55,3.1-0.213,2.887C380,275.555,384.665,274.886,386.67,274.445"/>
	<path style="fill:#FFFFFF;" d="M393.488,274.445c0.839,2.46,5.774,7.111,9.33,8.22s9.059,5.333,9.756,7.339   c0.697-2.233-1.749-5.561-1.749-5.561s3.996,0.441,4.437,5.561c0.441,5.106,8.732,5.333,8.732,5.333s-1.621-7.111-5.845-11.335   c-4.224-4.224-6.827-1.778-9.415-3.342c-2.574-1.55,0.981-5.106-1.92-9.102c-2.887-3.996-10.667-2.887-13.326-6.002   c-0.882,2.446,6.67,6.883,7.779,7.339c1.109,0.441,1.55,3.1,0.213,2.887C400.158,275.555,395.493,274.886,393.488,274.445"/>
</g>
<g>
	<path style="fill:#179AF9;" d="M386.67,326.666c-0.839-2.46-5.774-7.111-9.33-8.22c-3.556-1.109-9.059-5.333-9.756-7.339   c-0.697,2.233,1.749,5.561,1.749,5.561s-3.996-0.441-4.437-5.561c-0.441-5.106-8.732-5.333-8.732-5.333s1.621,7.111,5.845,11.335   s6.827,1.778,9.415,3.342c2.574,1.55-0.981,5.106,1.92,9.102c2.887,3.996,10.667,2.887,13.326,6.002   c0.882-2.446-6.67-6.883-7.779-7.339c-1.109-0.441-1.55-3.1-0.213-2.887C380,325.557,384.665,326.225,386.67,326.666"/>
	<path style="fill:#179AF9;" d="M393.488,326.666c0.839-2.46,5.774-7.111,9.33-8.22c3.556-1.109,9.059-5.333,9.756-7.339   c0.697,2.233-1.749,5.561-1.749,5.561s3.996-0.441,4.437-5.561c0.441-5.106,8.732-5.333,8.732-5.333s-1.621,7.111-5.845,11.335   c-4.224,4.224-6.827,1.778-9.415,3.342c-2.574,1.55,0.981,5.106-1.92,9.102c-2.887,3.996-10.667,2.887-13.326,6.002   c-0.882-2.446,6.67-6.883,7.779-7.339c1.109-0.441,1.55-3.1,0.213-2.887C400.158,325.557,395.493,326.225,393.488,326.666"/>
</g>
<path d="M364.891,228.002c6.443,2.66,12.003-0.882,17.778-5.561c5.774-4.665,12.032-2.204,13.81-1.55  c1.778,0.668-2.034,0.626-8.59,4.423s-9.671,4.992-9.884,9.173c-0.228,4.181-2.005,1.82-2.887,0c-0.896-1.82-1.109,3.072,0,7.964  c1.109,4.878-0.811,10.738-0.811,10.738S372.642,237.843,364.891,228.002"/>
<g>
	<path style="fill:#D8AB6D;" d="M302.002,264.445c0,0,1.109-3.328,5.561-5.774c4.437-2.446,1.323-4.452-1.564-4.224   c-2.887,0.228-5.106,0.441-8.22,8.448c-3.115,7.993-14.891,42.666,4.224,61.326c-5.561-2.66-10.667-13.554-10.667-13.554   s0.668,7.339,4.452,14.663c-11.335-17.778-10.012-36.664-8.235-50.887c1.778-14.222,6.002-23.324,12.444-23.779   c5.333-7.993,15.118-3.854,22.442,2.517c7.339,6.371,10.894,12.373,10.894,12.373s0.967-11.776,6.485-10.667   c5.518,1.109,13.511,5.12,14.635,8.007c1.109,2.887-6.898,0.668-8.448-1.109c-1.564-1.778-4.594-3.783-6.187-2.005   c-1.593,1.778-2.702,9.771-2.702,9.771s3.94-7.324,6.3-6.656c2.361,0.668,13.113,10.211,12.743,13.554   c-0.384,3.328-3.271-1.778-6.158-4.011c-2.887-2.219-5.163-6.215-6.585-5.547c-1.408,0.668-6.528,12.444-6.969,13.554   c-0.441,1.109,1.195,0.882,3.371-2.105c2.19-3.001,4.622-6.343,5.959-6.343c1.337,0,10.553,12.672,10.396,15.559   c-0.171,2.887-1.55,5.561-2.688,6.229c-1.138,0.654,0.512-3.314-2.148-7.993c-2.674-4.679-5.12-9.571-6.229-8.903   c-1.109,0.668-6.215,8.661-7.111,10.667c-0.882,2.005,5.788-4.665,8.22-3.556c2.446,1.109,6.03,13.753,6.13,17.778   s-2.318,6.67-3.556,7.779c-1.237,1.109-0.768-3.996,0-6.443c0.768-2.446-1.01-5.561-1.678-9.33   c-0.668-3.783-1.337-7.339-2.005-6.229s-10.88,9.998-11.776,10.667c-0.882,0.668,3.2,0,6.485-1.778   c3.3-1.778,5.077-1.55,5.518,1.778c0.441,3.328,1.109,13.781-3.996,16.668c-5.12,2.887,0.441-3.556,1.109-6.67   c0.668-3.115,0.213-9.771-1.109-9.102c-1.337,0.654-10.667,7.552-13.568,8.661c-2.887,1.109-1.323,8.661,1.564,12.885   c2.887,4.224,9.187,8.448,10.482,4.665c1.294-3.769,6.215-7.779,8.974-5.774s1.436,5.774,1.436,5.774s3.627,0,3.257,3.996   c-0.37,4.011-5.49,8.007-17.934,6.229c-12.444-1.778-27.989-6.67-27.107-28.444c-4.665-19.114-1.109-27.335-0.441-32.668   c0.668-5.333,2.66-13.184,1.991-13.81C309.341,260.008,304.221,261.558,302.002,264.445"/>
	<path style="fill:#D8AB6D;" d="M478.861,264.445c0,0-1.109-3.328-5.561-5.774c-4.437-2.446-1.323-4.452,1.564-4.224   c2.887,0.228,5.106,0.441,8.22,8.448c3.115,7.993,14.891,42.666-4.224,61.326c5.561-2.66,10.667-13.554,10.667-13.554   s-0.668,7.339-4.451,14.663c11.335-17.778,10.012-36.664,8.235-50.887c-1.778-14.222-6.002-23.324-12.444-23.779   c-5.333-7.993-15.118-3.854-22.442,2.517c-7.339,6.371-10.894,12.373-10.894,12.373s-0.967-11.776-6.485-10.667   c-5.518,1.109-13.511,5.12-14.635,8.007c-1.109,2.887,6.898,0.668,8.448-1.109c1.564-1.778,4.594-3.783,6.187-2.005   c1.593,1.778,2.702,9.771,2.702,9.771s-3.94-7.324-6.3-6.656c-2.361,0.668-13.113,10.211-12.743,13.554   c0.384,3.328,3.271-1.778,6.158-4.011c2.887-2.219,5.163-6.215,6.585-5.547c1.408,0.668,6.528,12.444,6.969,13.554   c0.441,1.109-1.195,0.882-3.371-2.105c-2.19-3.001-4.622-6.343-5.959-6.343c-1.337,0-10.553,12.672-10.396,15.559   c0.171,2.887,1.55,5.561,2.688,6.229c1.138,0.654-0.512-3.314,2.148-7.993c2.674-4.679,5.12-9.571,6.229-8.903   c1.109,0.668,6.215,8.661,7.111,10.667c0.882,2.005-5.788-4.665-8.22-3.556c-2.446,1.109-6.03,13.753-6.13,17.778   s2.318,6.67,3.556,7.779c1.237,1.109,0.768-3.996,0-6.443c-0.768-2.446,1.01-5.561,1.678-9.33c0.668-3.783,1.337-7.339,2.005-6.229   s10.88,9.998,11.776,10.667c0.882,0.668-3.2,0-6.485-1.778c-3.3-1.778-5.077-1.55-5.518,1.778   c-0.441,3.328-1.109,13.781,3.996,16.668c5.12,2.887-0.441-3.556-1.109-6.67c-0.668-3.115-0.213-9.771,1.109-9.102   c1.337,0.654,10.667,7.552,13.568,8.661c2.887,1.109,1.323,8.661-1.564,12.885c-2.887,4.224-9.187,8.448-10.482,4.665   c-1.294-3.769-6.215-7.779-8.974-5.774c-2.759,2.005-1.436,5.774-1.436,5.774s-3.627,0-3.257,3.996   c0.37,4.011,5.49,8.007,17.934,6.229c12.444-1.778,27.989-6.67,27.107-28.444c4.665-19.114,1.109-27.335,0.441-32.668   c-0.668-5.333-2.66-13.184-1.991-13.81C471.522,260.008,476.642,261.558,478.861,264.445"/>
</g>
<g>
	<path style="fill:#CC1530;" d="M338.447,352.667c1.82-6.371,17.337-12.217,22.215-11.335c4.892,0.896,13.781,4.452,8.675,8.889   c-5.12,4.452-16,8.22-23.338,9.785C338.674,361.555,337.11,357.331,338.447,352.667"/>
	<path style="fill:#CC1530;" d="M442.015,352.667c-1.82-6.371-17.337-12.217-22.215-11.335c-4.892,0.896-13.781,4.452-8.675,8.889   c5.12,4.452,16,8.22,23.338,9.785C441.787,361.555,443.352,357.331,442.015,352.667"/>
</g>
<g>
	<path style="fill:#FBFAE7;" d="M446.611,344.221c0,0-6.883-7.495-13.554-2.972c-6.67,4.523-25.941,20.522-42.979,20.522   c-17.024,0-36.295-16-42.965-20.522s-13.554,2.972-13.554,2.972s3.328,1.55,2.66,4.892c-0.668,3.328,0,9.102,3.598,10.297   c-4.181-10.354,10.411-5.191,16.355,0.924c5.945,6.101,21.603,13.44,33.905,13.44c12.316,0,27.975-7.339,33.92-13.44   c5.945-6.115,20.537-11.278,16.355-0.924c3.598-1.195,4.252-6.969,3.598-10.297C443.283,345.771,446.611,344.221,446.611,344.221"/>
	<path style="fill:#FBFAE7;" d="M359.338,341.289c7.822-1.65,18.005,6.926,19.783,8.931c1.778,1.991-0.896,8.22-4.011,5.774   c-3.1-2.446-5.148-2.916-8.917-3.541c-3.755-0.626-8.661-5.604-3.299-7.566c-2.29,2.66,0,6.243,3.556,4.011   C370.004,346.665,367.117,342.796,359.338,341.289"/>
	<path style="fill:#FBFAE7;" d="M422.209,341.289c-7.822-1.65-18.005,6.926-19.783,8.931c-1.778,1.991,0.896,8.22,4.011,5.774   c3.1-2.446,5.148-2.916,8.917-3.541c3.755-0.626,8.661-5.604,3.299-7.566c2.29,2.66,0,6.243-3.556,4.011   C411.542,346.665,414.429,342.796,422.209,341.289"/>
</g>
<g>
</g>
<g>
</g>
<g>
</g>
<g>
</g>
<g>
</g>
<g>
</g>
<g>
</g>
<g>
</g>
<g>
</g>
<g>
</g>
<g>
</g>
<g>
</g>
<g>
</g>
<g>
</g>
<g>
</g>
</svg>
