<?xml version="1.0" encoding="iso-8859-1"?>
<!-- Generator: Adobe Illustrator 19.0.0, SVG Export Plug-In . SVG Version: 6.00 Build 0)  -->
<svg xmlns="http://www.w3.org/2000/svg" xmlns:xlink="http://www.w3.org/1999/xlink" version="1.1" id="Capa_1" x="0px" y="0px" viewBox="0 0 512 512" style="enable-background:new 0 0 512 512;" xml:space="preserve">
<g transform="matrix(1.25 0 0 -1.25 0 45)">
	<g>
		<g>
			<path style="fill:#3E5EB9;" d="M409.6-271.2c0-25.134-20.378-45.511-45.511-45.511H45.511C20.378-316.711,0-296.334,0-271.2     v204.8c0,25.134,20.378,45.511,45.511,45.511h318.578c25.134,0,45.511-20.378,45.511-45.511V-271.2z"/>
			<path style="fill:#FFD900;" d="M409.6-259.822H0v182.044h409.6V-259.822z"/>
			<path style="fill:#B10D0D;" d="M409.6-248.444H0v159.289h409.6V-248.444z"/>
			<path id="SVGCleanerId_0" style="fill:#FFFFFF;" d="M313.037-154.908l17.772-6.758l17.431,6.758l-17.431,5.689L313.037-154.908z"/>
			<path id="SVGCleanerId_1" style="fill:#FFD900;" d="M324.619-155.147c0-1.764-1.434-3.197-3.197-3.197H65.775     c-1.764,0-3.197,1.434-3.197,3.197c0,1.764,1.434,3.197,3.197,3.197h255.647C323.186-151.95,324.619-153.383,324.619-155.147"/>
			<g transform="translate(1 1)">
				<path id="SVGCleanerId_0_1_" style="fill:#FFFFFF;" d="M324.415-143.53l17.772-6.758l17.431,6.758l-17.431,5.689L324.415-143.53      z"/>
			</g>
			<g transform="translate(1 1)">
				<path id="SVGCleanerId_1_1_" style="fill:#FFD900;" d="M335.997-143.769c0-1.764-1.434-3.197-3.197-3.197H77.153      c-1.764,0-3.197,1.434-3.197,3.197c0,1.764,1.434,3.197,3.197,3.197H332.8C334.564-140.572,335.997-142.005,335.997-143.769"/>
			</g>
			<path style="fill:#FFD900;" d="M383.738-168.686c0-2.651-2.15-4.801-4.801-4.801H35.829c-2.651,0-4.801,2.15-4.801,4.801     c0,2.651,2.15,4.801,4.801,4.801h343.108C381.588-163.885,383.738-166.035,383.738-168.686"/>
			<path style="fill:#FFFFFF;" d="M309.817-169.153c0,0-46.171-62.464-103.117-62.464c-56.934,0-103.105,62.464-103.105,62.464     s46.171,62.464,103.105,62.464C263.646-106.689,309.817-169.153,309.817-169.153"/>
			<path d="M215.95-218.339c-4.972,2.367-13.505,5.211-13.278,7.339c0.239,2.139,6.633,2.844,12.572,3.561     c5.916,0.705,5.678,3.55,4.028,4.972c-1.661,1.422-8.545,3.322-12.561,5.689c-4.039,2.367-0.25,4.517,3.368,7.361     c3.618,2.844,3.743,6.155,3.743,8.533c0,2.378,2.833,7.35,7.578,10.422c4.745,3.083,0.239,3.561-3.55,5.45     c-3.789,1.9-3.561,8.306-2.856,13.039c0.717,4.745,0.478,7.35-1.172,7.589c-1.661,0.228-2.617,1.661-3.561,2.97     c-0.944,1.297,0,3.664-3.55,4.142c-3.561,0.466-3.334,1.661-4.267,3.789c-0.956,2.139-4.039,5.45-5.461,9.489     c-1.206,3.391,1.695,9.819,9.421,17.283c-56.809-0.228-102.81-62.441-102.81-62.441s46.171-62.464,103.117-62.464     c7.282,0,14.393,1.047,21.254,2.833C226.35-222.094,219.955-220.25,215.95-218.339"/>
			<g>
				<path style="fill:#FFFFFF;" d="M146.967-163.35h-4.972v16.828h4.972V-163.35z"/>
				<path style="fill:#FFFFFF;" d="M146.967-191.317h-4.972v16.828h4.972V-191.317z"/>
				<path style="fill:#FFFFFF;" d="M156.683-163.35h-4.972v16.828h4.972V-163.35z"/>
				<path style="fill:#FFFFFF;" d="M156.683-191.317h-4.972v16.828h4.972V-191.317z"/>
				<path style="fill:#FFFFFF;" d="M166.4-163.35h-4.972v16.828h4.972V-163.35z"/>
				<path style="fill:#FFFFFF;" d="M166.4-191.317h-4.972v16.828h4.972V-191.317z"/>
				<path style="fill:#FFFFFF;" d="M176.117-163.35h-4.972v16.828h4.972V-163.35z"/>
				<path style="fill:#FFFFFF;" d="M176.117-191.317h-4.972v16.828h4.972V-191.317z"/>
				<path style="fill:#FFFFFF;" d="M185.833-163.35h-4.972v16.828h4.972V-163.35z"/>
				<path style="fill:#FFFFFF;" d="M185.833-191.317h-4.972v16.828h4.972V-191.317z"/>
				<path style="fill:#FFFFFF;" d="M195.55-163.35h-4.972v16.828h4.972V-163.35z"/>
				<path style="fill:#FFFFFF;" d="M195.55-191.317h-4.972v16.828h4.972V-191.317z"/>
			</g>
			<path d="M223.767-163.35h-4.972v16.828h4.972V-163.35z"/>
			<path d="M223.767-191.317h-4.972v16.828h4.972V-191.317z"/>
			<path d="M233.483-163.35h-4.972v16.828h4.972V-163.35z"/>
			<path d="M233.483-191.317h-4.972v16.828h4.972V-191.317z"/>
			<path d="M243.2-163.35h-4.972v16.828h4.972V-163.35z"/>
			<path d="M243.2-191.317h-4.972v16.828h4.972V-191.317z"/>
			<path d="M252.917-163.35h-4.972v16.828h4.972V-163.35z"/>
			<path d="M252.917-191.317h-4.972v16.828h4.972V-191.317z"/>
			<path d="M262.633-163.35h-4.972v16.828h4.972V-163.35z"/>
			<path d="M262.633-191.317h-4.972v16.828h4.972V-191.317z"/>
			<path d="M272.35-163.35h-4.972v16.828h4.972V-163.35z"/>
			<path d="M272.35-191.317h-4.972v16.828h4.972V-191.317z"/>
			<g>
				<path style="fill:#3D5DA7;" d="M172.487-118.67c-4.551-3.015-13.87-12.265-14.404-19.024c1.957,1.775,4.267,2.139,4.267,2.139      s-2.662-3.732-2.31-8.363c1.604,1.775,3.209,2.492,3.209,2.492s0.944-4.267,4.437-8.715c1.775,1.07,2.31,2.844,2.31,2.844      s1.07-3.732,4.801-6.576c1.365,0.353,1.365,1.957,1.365,1.957s2.196-4.619,11.253-6.576c-1.593,3.026,3.561,7.225,1.604,11.969      c1.593-0.944,3.197-3.254,3.197-3.254s1.593,2.31-1.604,6.576c1.968-1.786,3.026-3.322,3.026-3.322s1.24,7.407-3.026,12.026      c2.674-1.058,4.983-2.31,4.983-2.31s-0.444,8.954-7.111,12.982C179.951-118.67,172.487-122.401,172.487-118.67"/>
				<path style="fill:#3D5DA7;" d="M47.286-167.776c0,0,4.085-3.732-1.604-4.267c-5.689-0.535-10.308-7.293-10.126-14.04      l3.015,1.422c0,0-0.887-4.631,0.535-7.646c1.252,3.015,3.026,2.844,3.026,2.844s0.353-4.449,1.07-7.828      c1.422,1.775,1.24,3.732,1.24,3.732s2.139-0.705,3.197-3.732c1.07-3.015,1.604-5.336,4.096-6.758      c1.058,0.535,1.593,1.957,1.593,1.957s2.139-1.775,5.518-3.197c-0.717,4.801,3.903,4.267,5.86,7.646      c0.717-0.887,0.887-2.662,0.887-2.662s1.422,2.662,1.422,5.325c0,2.674,1.604,4.801,1.604,4.801s0.182-1.24,0-3.197      c1.604,0.887,1.957,11.025,1.24,14.222c1.07-0.887,1.957-2.844,1.957-2.844s1.252,5.154,0,8.442      c-1.24,3.288-4.801,5.962-9.239,4.358c-4.449-1.604-11.025,2.662-11.025,2.662s1.07-2.662-0.353-3.55      S51.018-168.663,47.286-167.776"/>
				<path style="fill:#3D5DA7;" d="M358.935-165.956c0,0-3.55-1.24-9.239-6.576c-5.689-5.336-7.475-14.404-7.475-14.404      s3.209,2.674,4.449,3.026c-3.026-6.94,2.844-10.138,1.957-15.644c2.31,0.353,4.437,4.437,4.437,4.437s4.267-7.634,10.32-11.901      c1.422,4.085,5.507,7.464,5.507,7.464l0.887-2.31l2.492,6.224l1.775-3.026c0,0,1.604,3.493,0,7.35      c0.239-0.694,2.662-2.549,2.662-2.549v8.533c0,0,1.422-2.662,2.492-3.379c0,3.732-2.128,6.406-1.24,7.999      c0.705-1.24,1.24-2.196,1.24-2.196s1.069,5.928-5.154,10.559c-6.224,4.619-12.026,4.267-13.301,3.641      C359.47-169.335,358.935-165.956,358.935-165.956"/>
			</g>
			<g>
				<path style="fill:#A70000;" d="M169.062-129.865c3.3,1.001,2.128-9.603-1.775-13.87      C169.415-136.442,164.978-131.105,169.062-129.865"/>
				<path style="fill:#A70000;" d="M176.799-126.839c0.785,2.731,6.474-4.449,13.767-4.801      C184.172-132.71,175.821-130.218,176.799-126.839"/>
				<path style="fill:#A70000;" d="M174.581-137.864c1.934,0.899,2.492-9.774,0-12.8      C174.933-145.328,171.918-139.104,174.581-137.864"/>
				<path style="fill:#A70000;" d="M181.692-135.201c-2.469-0.671,4.79-6.576,8.886-6.224      C186.732-140.697,185.606-134.132,181.692-135.201"/>
				<path style="fill:#A70000;" d="M180.27-146.522c-2.571,0,0-6.815,4.619-8.408C183.296-152.45,184.422-146.522,180.27-146.522"/>
				<path style="fill:#A70000;" d="M48.174-175.729c2.344,0-0.705-7.999-5.689-11.196C45.147-183.022,44.794-175.729,48.174-175.729      "/>
				<path style="fill:#A70000;" d="M55.819-174.489c-1.9-1.456,3.379-7.953,9.421-8.42      C61.326-180.166,58.129-172.714,55.819-174.489"/>
				<path style="fill:#A70000;" d="M50.13-184.797c1.411,0.239,1.684-7.43-2.31-9.421C49.948-189.246,48.003-185.15,50.13-184.797"/>
				<path style="fill:#A70000;" d="M56.889-184.797c2.355,1.445,3.527-4.574,6.929-6.519      C58.129-189.951,54.579-186.219,56.889-184.797"/>
				<path style="fill:#A70000;" d="M53.965-190.532c2.355,1.035,3.63-7.498,0-9.956C55.296-194.98,51.928-191.419,53.965-190.532"/>
				<path style="fill:#A70000;" d="M354.532-182.908c2.458,0.068-1.957-7.225-5.689-9.182      C352.404-186.754,351.869-182.977,354.532-182.908"/>
				<path style="fill:#A70000;" d="M363.383-179.154c-1.832-1.263,3.379-4.801,5.871-4.801      C366.171-182.999,365.693-177.55,363.383-179.154"/>
				<path style="fill:#A70000;" d="M356.978-191.328c1.877,1.434,2.662-3.254,0-6.633      C358.605-194.514,354.486-193.228,356.978-191.328"/>
				<path style="fill:#A70000;" d="M364.658-186.492c-1.946-0.785,1.775-6.315,4.619-6.667      C366.171-191.248,367.502-185.332,364.658-186.492"/>
				<path style="fill:#A70000;" d="M361.961-192.09c1.616,1.217,4.915-6.758,1.035-10.843      C364.84-197.017,358.901-194.4,361.961-192.09"/>
			</g>
		</g>
	</g>
</g>
<g>
</g>
<g>
</g>
<g>
</g>
<g>
</g>
<g>
</g>
<g>
</g>
<g>
</g>
<g>
</g>
<g>
</g>
<g>
</g>
<g>
</g>
<g>
</g>
<g>
</g>
<g>
</g>
<g>
</g>
</svg>
