<?xml version="1.0" encoding="iso-8859-1"?>
<!-- Generator: Adobe Illustrator 19.0.0, SVG Export Plug-In . SVG Version: 6.00 Build 0)  -->
<svg xmlns="http://www.w3.org/2000/svg" xmlns:xlink="http://www.w3.org/1999/xlink" version="1.1" id="Capa_1" x="0px" y="0px" viewBox="0 0 512 512" style="enable-background:new 0 0 512 512;" xml:space="preserve">
<g transform="matrix(1.25 0 0 -1.25 0 45)">
	<g>
		<g>
			<path style="fill:#032A87;" d="M409.6-271.2c0-25.134-20.378-45.511-45.511-45.511H45.511C20.378-316.711,0-296.334,0-271.2     v204.8c0,25.134,20.378,45.511,45.511,45.511h318.578c25.134,0,45.511-20.378,45.511-45.511V-271.2z"/>
			<path style="fill:#DC181E;" d="M364.089-20.889H45.511C20.378-20.889,0-41.266,0-66.4v-102.4h409.6v102.4     C409.6-41.266,389.222-20.889,364.089-20.889"/>
			<path style="fill:#EEEEEE;" d="M14.939-304.764l178.836,135.179L15.132-32.79C5.905-41.119,0-53.043,0-66.457v-204.8     C0-284.58,5.825-296.447,14.939-304.764"/>
			<path style="fill:#FADA10;" d="M98.133-131.697c0-10.411-10.945-18.853-24.439-18.853c-13.505,0-24.451,8.442-24.451,18.853     c0,10.411,10.945,18.842,24.451,18.842C87.188-112.855,98.133-121.286,98.133-131.697"/>
			<path style="fill:#BD725F;" d="M43.85-123.755c5.234,5.234,24.11,4.972,29.833,1.661c-6.372,8.579,2.401,4.506,9.284,4.506     c6.872,0.011,8.761-2.116,4.267-2.594c-4.506-0.489-8.306,0.228-7.111-1.195c1.183-1.422,8.055-0.228,14.211,1.195     c6.167,1.399,13.278-3.8,13.756-4.756c0.466-0.944-10.911,1.422-14.939,0c-4.028-1.422-10.433-1.183-9.956-2.606     s-6.702-2.367-9.512-1.661c-2.81,0.717-14.427,0.478-12.527,1.661c1.889,1.183,4.267,2.606,5.211,3.083     C67.322-123.983,52.144-123.516,43.85-123.755"/>
			<path style="fill:#DC181E;" d="M115.553-129.683c0,0-10.684-5.427-21.515-2.844c-11.913,2.844-20.617,1.582-20.617-1.604     c0,3.186-8.715,4.449-20.628,1.604c-10.82-2.583-21.504,2.844-21.504,2.844s7.896-12.618,3.197-37.865     c-4.801-25.782-3.379-37.513,16.953-38.275c17.18-0.649,21.982-5.814,21.982-5.814s4.79,5.166,21.982,5.814     c20.332,0.762,21.754,12.493,16.953,38.275C107.657-142.301,115.553-129.683,115.553-129.683"/>
			<path style="fill:#63B0E2;" d="M107.736-175.376c-6.042,20.799,0.353,37.865,0.353,37.865s-9.421-2.844-19.911,0.182     c-10.49,3.015-14.757-2.139-14.757-2.139s-4.267,5.154-14.746,2.139c-10.49-3.026-19.911-0.182-19.911-0.182     s6.394-17.067,0.353-37.865s8.704-23.825,18.66-23.643c9.956,0.171,15.644-5.518,15.644-5.518s5.689,5.689,15.644,5.518     C99.021-199.201,113.778-196.175,107.736-175.376"/>
			<g>
				<path style="fill:#FFFFFF;" d="M97.246-190.304v10.308h2.31v4.096h-2.492v11.014h2.31l-19.012,12.629v5.154h2.844l-9.785,6.576      l-9.774-6.576h2.844v-5.154l-19.024-12.629h2.31V-175.9h-2.492v-4.096h2.321v-10.308h-2.844v-5.154h26.658h26.67v5.154H97.246z"/>
				<path style="fill:#FFFFFF;" d="M99.112-147.376c0-4.073-0.831-5.598-1.866-5.598s-1.866,1.525-1.866,5.598      s1.866,7.373,1.866,7.373S99.112-143.302,99.112-147.376"/>
				<path style="fill:#FFFFFF;" d="M104.448-153.508H90.044c0,1.957,3.231,3.55,7.202,3.55      C101.228-149.958,104.448-151.551,104.448-153.508"/>
			</g>
			<path style="fill:#018830;" d="M55.467-148.172c0,0-2.662-4.801-3.197-7.646c-0.535-2.844-2.139,1.775-2.139,1.775     s-2.844-2.844-3.55-3.903c-0.717-1.07-0.887,8.169,0,9.421c0.887,1.24-2.139,0.887-3.197,1.422     c-1.07,0.535,2.31,3.903,2.31,3.903s-4.631,2.139-3.026,2.674s7.464,0.171,9.421-1.422c1.957-1.604,6.576,1.07,8.351,1.422     c1.786,0.353,0-1.775-1.422-3.026c-1.422-1.24-0.705-4.437-0.705-6.042C58.311-151.199,55.467-148.172,55.467-148.172"/>
			<g>
				<path style="fill:#B6B6B6;" d="M84.446-177.151H63.465v6.042h20.981V-177.151z"/>
				<path style="fill:#B6B6B6;" d="M59.733-174.489h-6.394v8.351h6.394V-174.489z"/>
				<path style="fill:#B6B6B6;" d="M59.733-188.529h-6.394v8.351h6.394V-188.529z"/>
				<path style="fill:#B6B6B6;" d="M94.049-174.489h-6.394v8.351h6.394V-174.489z"/>
				<path style="fill:#B6B6B6;" d="M94.049-188.529h-6.394v8.351h6.394V-188.529z"/>
				<path style="fill:#B6B6B6;" d="M78.404-152.974h-9.603v4.449h9.603V-152.974z"/>
			</g>
			<path style="fill:#FADA10;" d="M130.844-177.515l-1.775,10.138l-9.421-3.026l2.844-13.687l2.128-0.535     c0,0,0.182-11.025-8.181-19.558c-8.351-8.533-23.108-8.533-23.108-8.533s-7.646-5.507-19.911-5.507s-19.911,5.507-19.911,5.507     s-14.757,0-23.108,8.533c-8.363,8.533-8.181,19.558-8.181,19.558l2.139,0.535l2.844,13.687l-9.432,3.026l-1.775-10.138     l-3.379-0.353c0,0,0.182-19.911,7.111-30.401c6.94-10.49,22.403-13.687,22.403-13.687s0.182-1.252,0.535-2.492     c10.138-5.871,30.754-6.224,30.754-6.224s20.628,0.353,30.754,6.224c0.353,1.24,0.535,2.492,0.535,2.492     s15.474,3.197,22.403,13.687s7.111,30.401,7.111,30.401L130.844-177.515z"/>
		</g>
	</g>
</g>
<g>
</g>
<g>
</g>
<g>
</g>
<g>
</g>
<g>
</g>
<g>
</g>
<g>
</g>
<g>
</g>
<g>
</g>
<g>
</g>
<g>
</g>
<g>
</g>
<g>
</g>
<g>
</g>
<g>
</g>
</svg>
