<?xml version="1.0" encoding="iso-8859-1"?>
<!-- Generator: Adobe Illustrator 19.0.0, SVG Export Plug-In . SVG Version: 6.00 Build 0)  -->
<svg xmlns="http://www.w3.org/2000/svg" xmlns:xlink="http://www.w3.org/1999/xlink" version="1.1" id="Capa_1" x="0px" y="0px" viewBox="0 0 512 512" style="enable-background:new 0 0 512 512;" xml:space="preserve">
<g transform="matrix(1.25 0 0 -1.25 0 45)">
	<g>
		<g>
			<path style="fill:#0F47AF;" d="M409.6-271.2c0-25.134-20.378-45.511-45.511-45.511H45.511C20.378-316.711,0-296.334,0-271.2     v204.8c0,25.134,20.378,45.511,45.511,45.511h318.578c25.134,0,45.511-20.378,45.511-45.511V-271.2z"/>
		</g>
	</g>
	<g>
		<g>
			<path style="fill:#EEEEEE;" d="M409.6-225.689H0v113.778h409.6V-225.689z"/>
		</g>
	</g>
	<g>
		<g>
			<g>
				<path style="fill:#1F601A;" d="M198.679-206.313c2.799,8.693-6.929,10.308-6.929,10.308s0.705-4.972-5.154-5.154      c1.946-3.914,0.171-7.111-2.321-7.282C188.37-212.183,196.904-211.819,198.679-206.313"/>
				<path style="fill:#1F601A;" d="M184.229-201.045c5.382,6.576-2.514,11.287-2.514,11.287s-1.07-4.551-6.224-2.719      c0.375-4.039-2.253-6.224-4.471-5.53C173.295-202.649,180.816-205.232,184.229-201.045"/>
				<path style="fill:#1F601A;" d="M174.046-191.999c6.406,3.436,1.729,9.739,1.729,9.739s-2.355-3.231-5.814-0.102      c-1.035-3.311-3.823-4.176-5.359-2.901C164.887-189.678,169.973-194.172,174.046-191.999"/>
				<path style="fill:#1F601A;" d="M170.109-180.519c6.758,1.377,4.221,8.374,4.221,8.374s-3.026-2.298-5.313,1.479      c-1.843-2.719-4.608-2.742-5.655-1.183C162.429-175.934,165.82-181.395,170.109-180.519"/>
				<path style="fill:#1F601A;" d="M168.528-170.677c6.201,0.046,5.177,6.667,5.177,6.667s-3.061-1.513-4.426,2.219      c-2.105-2.082-4.54-1.616-5.2-0.057C162.543-165.296,164.591-170.7,168.528-170.677"/>
				<path style="fill:#1F601A;" d="M169.984-161.291c4.836-1.661,5.598,4.494,5.598,4.494s-2.742-0.489-2.924,3.197      c-2.128-1.274-3.914-0.193-4.05,1.365C166.593-154.862,166.912-160.233,169.984-161.291"/>
				<path style="fill:#1F601A;" d="M173.705-153.52c2.412-1.411,5.12,3.277,5.12,3.277s-2.094,0.751-1.57,4.198      c-1.855-0.842-3.14-0.33-2.958,1.138C172.271-147.034,171.429-152.188,173.705-153.52"/>
				<path style="fill:#1F601A;" d="M209.158-206.313c-2.799,8.693,6.929,10.308,6.929,10.308s-0.705-4.972,5.154-5.154      c-1.946-3.914-0.171-7.111,2.321-7.282C219.466-212.183,210.933-211.819,209.158-206.313"/>
				<path style="fill:#1F601A;" d="M223.596-201.045c-5.382,6.576,2.514,11.287,2.514,11.287s1.081-4.551,6.224-2.719      c-0.375-4.039,2.264-6.224,4.483-5.53C234.53-202.649,227.021-205.232,223.596-201.045"/>
				<path style="fill:#1F601A;" d="M233.791-191.999c-6.406,3.436-1.718,9.739-1.718,9.739s2.355-3.231,5.791-0.102      c1.047-3.311,3.834-4.176,5.359-2.901C242.95-189.678,237.864-194.172,233.791-191.999"/>
				<path style="fill:#1F601A;" d="M237.727-180.519c-6.758,1.377-4.21,8.374-4.21,8.374s3.015-2.298,5.313,1.479      c1.843-2.719,4.597-2.742,5.643-1.183C245.407-175.934,242.017-181.395,237.727-180.519"/>
				<path style="fill:#1F601A;" d="M239.275-170.677c-6.201,0.046-5.177,6.667-5.177,6.667s3.061-1.513,4.437,2.219      c2.094-2.082,4.54-1.616,5.188-0.057C245.248-165.296,243.211-170.7,239.275-170.677"/>
				<path style="fill:#1F601A;" d="M237.841-161.291c-4.836-1.661-5.598,4.494-5.598,4.494s2.753-0.489,2.935,3.197      c2.128-1.274,3.903-0.193,4.05,1.365C241.243-154.862,240.924-160.233,237.841-161.291"/>
				<path style="fill:#1F601A;" d="M234.132-153.52c-2.423-1.411-5.12,3.277-5.12,3.277s2.094,0.751,1.57,4.198      c1.855-0.842,3.129-0.33,2.947,1.138C235.554-147.034,236.396-152.188,234.132-153.52"/>
			</g>
			<g>
				<path style="fill:#06209F;" d="M208.282-206.369c0-2.514-2.037-4.54-4.551-4.54c-2.514,0-4.551,2.025-4.551,4.54      c0,2.526,2.037,4.551,4.551,4.551C206.245-201.818,208.282-203.844,208.282-206.369"/>
				<path style="fill:#06209F;" d="M202.763-166.229l-21.151,22.676c0,0-3.561-26.135,6.747-33.064      C198.679-183.557,202.763-166.229,202.763-166.229"/>
			</g>
			<path style="fill:#FFFFFF;" d="M191.772-154.453l-4.71,5.052c0,0-2.423-20.287,7.885-27.227     C189.975-166.49,191.772-154.453,191.772-154.453"/>
			<path style="fill:#06209F;" d="M202.763-175.649l-29.002,16.441c0,0-1.422-16.885,3.652-25.065     c5.086-8.181,23.723-8.704,26.317-0.705C206.313-176.981,202.763-175.649,202.763-175.649"/>
			<path style="fill:#FFFFFF;" d="M184.252-165.148l-5.439,3.083c0,0-3.231-33.94,22.505-26.146     C184.286-187.414,184.252-165.148,184.252-165.148"/>
			<path style="fill:#06209F;" d="M204.675-166.229l21.151,22.676c0,0,3.561-26.135-6.747-33.064     C208.759-183.557,204.675-166.229,204.675-166.229"/>
			<path style="fill:#FFFFFF;" d="M215.677-154.453l4.71,5.052c0,0,2.423-20.287-7.885-27.227     C217.475-166.49,215.677-154.453,215.677-154.453"/>
			<path style="fill:#06209F;" d="M204.675-175.649l29.002,16.441c0,0,1.422-16.885-3.664-25.065     c-5.074-8.181-23.711-8.704-26.305-0.705C201.125-176.981,204.675-175.649,204.675-175.649"/>
			<path style="fill:#FFFFFF;" d="M223.186-165.148l5.45,3.083c0,0,3.22-33.94-22.517-26.146     C223.164-187.414,223.186-165.148,223.186-165.148"/>
			<path style="fill:#FFCC01;" d="M202.763-138.046l-28.149-48.538h28.149h28.16L202.763-138.046z"/>
			<path style="fill:#FFFFFF;" d="M178.563-184.297l24.201,41.722l24.201-41.722H178.563z"/>
			<path style="fill:#017E93;" d="M185.492-172.35l-6.929-11.947h48.401l-6.929,11.947H185.492z"/>
			<path style="fill:#FFCC01;" d="M183.182-178.244c0,0,7.817,11.059,10.843,11.059s4.449-3.47,4.449-3.47s1.183,1.866,2.81,1.866     c1.627,0,2.423-1.866,2.423-1.866s1.161,1.832,1.877,1.49c0.705-0.33,3.038-3.174,3.038-3.174s0.694,1.229,2.298,1.684     c1.593,0.444,2.662-1.684,2.662-1.684s1.57,3.368,1.934,1.684c0.375-1.684,6.178-7.589,6.178-7.589H183.182z"/>
			<path style="fill:#E60000;" d="M205.596-160.096c0-1.183-0.967-2.15-2.15-2.15s-2.15,0.967-2.15,2.15s0.967,2.139,2.15,2.139     S205.596-158.913,205.596-160.096"/>
			<g>
				<path style="fill:#FFCC01;" d="M159.289-148.775c-2.901-5.734-4.699-12.049-5.222-18.785l5.678-0.148      c0.501,5.905,2.094,11.457,4.665,16.498L159.289-148.775z"/>
				<path style="fill:#FFCC01;" d="M213.402-127.635c7.202-1.513,13.642-4.881,19.115-9.398l3.925,4.119      c-6.224,5.2-13.562,9.079-21.788,10.82L213.402-127.635z"/>
				<path style="fill:#FFCC01;" d="M241.095-146.17c4.938-7.202,7.851-15.906,7.851-25.304c0-1.707-0.307-3.334-0.501-4.995      l5.586-1.024c0.239,2.002,0.603,3.959,0.603,6.019c0,10.559-3.254,20.332-8.784,28.444L241.095-146.17z"/>
				<path style="fill:#FFCC01;" d="M184.582-211.569c-13.471,6.599-23.006,19.684-24.701,35.248l-5.621-0.626      c1.911-17.601,12.72-32.381,27.978-39.799L184.582-211.569z"/>
				<path style="fill:#FFCC01;" d="M169.381-143.541c8.215,10.229,20.673,16.919,34.816,16.919c0.284,0,0.558-0.08,0.865-0.091      c0.114,2.014,0.239,3.88,0.353,5.655c-0.421,0.011-0.808,0.125-1.217,0.125c-16.077,0-30.231-7.646-39.469-19.354      C166.15-141.289,167.72-142.381,169.381-143.541"/>
				<path style="fill:#FFCC01;" d="M246.739-184.786c-3.755-12.004-12.299-21.8-23.529-27.102l2.31-5.188      c12.663,5.951,22.323,16.964,26.59,30.481L246.739-184.786z"/>
			</g>
		</g>
	</g>
</g>
<g>
</g>
<g>
</g>
<g>
</g>
<g>
</g>
<g>
</g>
<g>
</g>
<g>
</g>
<g>
</g>
<g>
</g>
<g>
</g>
<g>
</g>
<g>
</g>
<g>
</g>
<g>
</g>
<g>
</g>
</svg>
