<?xml version="1.0" encoding="iso-8859-1"?>
<!-- Generator: Adobe Illustrator 19.0.0, SVG Export Plug-In . SVG Version: 6.00 Build 0)  -->
<svg xmlns="http://www.w3.org/2000/svg" xmlns:xlink="http://www.w3.org/1999/xlink" version="1.1" id="Capa_1" x="0px" y="0px" viewBox="0 0 512 512" style="enable-background:new 0 0 512 512;" xml:space="preserve">
<g>
	<path style="fill:#12AD2B;" d="M0,384c0,31.417,25.472,56.889,56.889,56.889h398.222C486.528,440.889,512,415.417,512,384v-63.582   H0V384z"/>
	<path style="fill:#12AD2B;" d="M455.111,71.111H56.889C25.472,71.111,0,96.583,0,128v64.418h512V128   C512,96.583,486.528,71.111,455.111,71.111z"/>
</g>
<path style="fill:#FFCE00;" d="M0,320h512V192H0V320z"/>
<path style="fill:#D21034;" d="M15.951,87.7c-0.743,0.771-1.471,1.555-2.17,2.367l-0.001,0.001c0,0-0.001,0.001-0.001,0.002  c-1.102,1.279-2.147,2.606-3.132,3.981c-0.124,0.172-0.247,0.344-0.368,0.518c-0.288,0.412-0.575,0.823-0.852,1.242c0,0,0,0,0,0.001  C3.474,104.8,0,115.575,0,127.163v14.222v42.667v14.222v39.334v0.004v17.55V256v127.163c0,15.751,6.404,30.006,16.749,40.307  L177.778,256L15.951,87.7z"/>
<path d="M256.055,289.559l23.111-16.782l23.097,16.782l-8.818-27.164l23.097-16.782h-28.558l-8.818-27.164l-8.832,27.164h-28.558  l23.111,16.782L256.055,289.559z"/>
<path d="M391.17,289.559l23.111-16.782l23.097,16.782l-8.818-27.164l23.097-16.782h-28.558l-8.818-27.164l-8.832,27.164h-28.558  l23.111,16.782L391.17,289.559z"/>
<g>
</g>
<g>
</g>
<g>
</g>
<g>
</g>
<g>
</g>
<g>
</g>
<g>
</g>
<g>
</g>
<g>
</g>
<g>
</g>
<g>
</g>
<g>
</g>
<g>
</g>
<g>
</g>
<g>
</g>
</svg>
