<?xml version="1.0" encoding="iso-8859-1"?>
<!-- Generator: Adobe Illustrator 19.0.0, SVG Export Plug-In . SVG Version: 6.00 Build 0)  -->
<svg xmlns="http://www.w3.org/2000/svg" xmlns:xlink="http://www.w3.org/1999/xlink" version="1.1" id="Capa_1" x="0px" y="0px" viewBox="0 0 512 512" style="enable-background:new 0 0 512 512;" xml:space="preserve">
<path style="fill:#DA121A;" d="M455.111,71.111H56.889C25.472,71.111,0,96.583,0,128v42.667v28.444v113.778v28.444V384  c0,31.417,25.472,56.889,56.889,56.889h398.222C486.528,440.889,512,415.417,512,384v-42.667v-28.444V199.111v-28.444V128  C512,96.583,486.528,71.111,455.111,71.111z"/>
<path style="fill:#141414;" d="M455.111,71.111H56.889C25.472,71.111,0,96.583,0,128v42.667h512V128  C512,96.583,486.528,71.111,455.111,71.111z"/>
<rect y="170.667" style="fill:#EEEEEE;" width="512" height="28.444"/>
<path style="fill:#078930;" d="M0,384c0,31.417,25.472,56.889,56.889,56.889h398.222C486.528,440.889,512,415.417,512,384v-42.667H0  V384z"/>
<rect y="312.889" style="fill:#EEEEEE;" width="512" height="28.444"/>
<path style="fill:#0F47AF;" d="M19.954,427.248L270.464,256L19.954,84.752C7.748,95.186,0,110.684,0,128v256  C0,401.316,7.748,416.814,19.954,427.248z"/>
<path style="fill:#FCDD09;" d="M117.319,256l25.259-34.773l-40.875,13.284L76.43,199.737v42.98L35.556,256l40.875,13.284v42.98  l25.273-34.773l40.875,13.284L117.319,256z"/>
<g>
</g>
<g>
</g>
<g>
</g>
<g>
</g>
<g>
</g>
<g>
</g>
<g>
</g>
<g>
</g>
<g>
</g>
<g>
</g>
<g>
</g>
<g>
</g>
<g>
</g>
<g>
</g>
<g>
</g>
</svg>
