<?xml version="1.0" encoding="iso-8859-1"?>
<!-- Generator: Adobe Illustrator 19.0.0, SVG Export Plug-In . SVG Version: 6.00 Build 0)  -->
<svg xmlns="http://www.w3.org/2000/svg" xmlns:xlink="http://www.w3.org/1999/xlink" version="1.1" id="Capa_1" x="0px" y="0px" viewBox="0 0 512.014 512.014" style="enable-background:new 0 0 512.014 512.014;" xml:space="preserve">
<g transform="matrix(1.25 0 0 -1.25 0 45)">
	<g>
		<g>
			<path style="fill:#377E3F;" d="M0.011-271.206c0-25.134,20.378-45.511,45.511-45.511H364.1c25.133,0,45.511,20.378,45.511,45.511     v11.378H0.011V-271.206z"/>
			<path style="fill:#EEEEEE;" d="M0.011-259.828h409.6v34.133H0.011V-259.828z"/>
			<path style="fill:#377E3F;" d="M364.1-20.895H45.522c-25.134,0-45.511-20.378-45.511-45.511v-11.378h409.6v11.378     C409.611-41.272,389.234-20.895,364.1-20.895"/>
			<path style="fill:#EEEEEE;" d="M0.011-111.917h409.6v34.133H0.011V-111.917z"/>
			<path style="fill:#B40A2D;" d="M191.522-156.176l13.278,40.88l13.289-40.88h42.985l-34.782-25.27l13.289-40.88l-34.782,25.27     l-34.77-25.27l13.289,40.88l-34.782,25.27H191.522z M0-225.695h409.6v113.778H0V-225.695z"/>
			<path style="fill:#ECC81D;" d="M170.041-222.315l34.77,25.27l34.782-25.27l-13.289,40.88l34.782,25.27h-42.985l-13.289,40.88     l-13.278-40.88h-42.985l34.77-25.27L170.041-222.315z"/>
		</g>
	</g>
</g>
<g>
</g>
<g>
</g>
<g>
</g>
<g>
</g>
<g>
</g>
<g>
</g>
<g>
</g>
<g>
</g>
<g>
</g>
<g>
</g>
<g>
</g>
<g>
</g>
<g>
</g>
<g>
</g>
<g>
</g>
</svg>
