<?xml version="1.0" encoding="iso-8859-1"?>
<!-- Generator: Adobe Illustrator 19.0.0, SVG Export Plug-In . SVG Version: 6.00 Build 0)  -->
<svg xmlns="http://www.w3.org/2000/svg" xmlns:xlink="http://www.w3.org/1999/xlink" version="1.1" id="Capa_1" x="0px" y="0px" viewBox="0 0 512 512" style="enable-background:new 0 0 512 512;" xml:space="preserve">
<path style="fill:#4189DD;" d="M455.111,71.111H56.889C25.491,71.111,0,96.553,0,127.943v256.113  c0,31.353,25.43,56.833,56.776,56.833h398.448c31.365,0,56.776-25.51,56.776-56.889V128C512,96.583,486.528,71.111,455.111,71.111z   M308.325,328.019l-52.324-38.016l-52.324,38.016l19.982-61.56l-52.324-38.066h64.683l19.982-61.511l19.982,61.511h64.683  l-52.324,38.065L308.325,328.019z"/>
<path style="fill:#FFFFFF;" d="M275.986,228.491l-19.982-61.511l-19.996,61.511h-64.668l52.324,38.016l-19.982,61.511l52.324-38.016  l52.324,38.016l-19.982-61.511l52.324-38.016L275.986,228.491L275.986,228.491z"/>
<g>
</g>
<g>
</g>
<g>
</g>
<g>
</g>
<g>
</g>
<g>
</g>
<g>
</g>
<g>
</g>
<g>
</g>
<g>
</g>
<g>
</g>
<g>
</g>
<g>
</g>
<g>
</g>
<g>
</g>
</svg>
