<?xml version="1.0" encoding="iso-8859-1"?>
<!-- Generator: Adobe Illustrator 19.0.0, SVG Export Plug-In . SVG Version: 6.00 Build 0)  -->
<svg xmlns="http://www.w3.org/2000/svg" xmlns:xlink="http://www.w3.org/1999/xlink" version="1.1" id="Capa_1" x="0px" y="0px" viewBox="0 0 512 512" style="enable-background:new 0 0 512 512;" xml:space="preserve">
<g transform="matrix(1.25 0 0 -1.25 0 45)">
	<path style="fill:#EEEEEE;" d="M364.089-20.889H45.511C20.378-20.889,0-41.267,0-66.4v-204.8c0-25.133,20.378-45.511,45.511-45.511   h318.578c25.133,0,45.511,20.378,45.511,45.511v204.8C409.6-41.267,389.222-20.889,364.089-20.889z"/>
	<path style="fill:#5EB6E4;" d="M0-271.2c0-25.133,20.378-45.511,45.511-45.511h318.578c25.133,0,45.511,20.378,45.511,45.511   v103.069H0V-271.2z"/>
	<g>
		<path style="fill:#F4900C;" d="M204.8-125.779c-27.682,0-30.22,11.195,0,11.195S232.482-125.779,204.8-125.779"/>
		<g>
			<path style="fill:#FFAC33;" d="M226.133-122.58c-6.929,0-12.447-4.267-17.42-6.929c-1.422,1.775-3.914,1.593-3.914,1.593     s-2.491,0.182-3.914-1.593c-4.972,2.662-10.49,6.929-17.42,6.929c-6.929,0-23.29-6.758-23.29-41.062     c0-45.158,44.623-59.563,44.623-59.563s44.623,14.405,44.623,59.563C249.423-129.338,233.062-122.58,226.133-122.58"/>
			<path style="fill:#FFAC33;" d="M189.868-91.289c2.901,0.512,6.451,1.775,9.364,3.55c-0.057-0.524-0.182-1.001-0.182-1.548     c0-2.639,0.626-5.029,1.65-6.77c-0.614-0.808-1.183-1.752-1.593-2.879c-1.058,2.674-4.437,3.732-4.437,3.732     s-1.684-1.093-2.674-4.62c-2.31,2.139-5.154,2.491-5.154,2.491s-1.422-2.139-1.24-4.801     C174.041-94.486,183.826-92.358,189.868-91.289 M219.734-91.289c6.042-1.069,15.827-3.197,4.267-10.843     c0.182,2.662-1.24,4.801-1.24,4.801s-2.844-0.353-5.154-2.491c-0.99,3.527-2.674,4.62-2.674,4.62s-3.379-1.058-4.449-3.732     c-0.41,1.16-0.99,2.117-1.627,2.924c1.001,1.741,1.627,4.108,1.627,6.725c0,0.569-0.125,1.047-0.182,1.581     C213.225-89.491,216.809-90.777,219.734-91.289 M172.801-107.468c4.449-0.888,10.285-9.068,10.285-12.709     c4.119,4.529,21.709,4.892,21.709,4.892s17.601-0.364,21.72-4.892c0,3.641,5.837,11.821,10.285,12.709     c-0.888,1.775-3.379,1.252-3.379,1.252s5.507,9.421,3.379,13.858c-2.127,4.449-10.49,4.267-17.249,4.984     c-6.747,0.705-7.999,3.732-7.999,3.732l1.786,2.127c0,0-3.379,0.717-2.674,3.027c0.717,2.31-2.127,2.127-2.127,2.127     s2.127,2.139,1.24,4.096c-0.888,1.957-2.844,2.491-2.844,2.491s-1.24,2.844,0,3.732c1.24,0.888,4.084-2.491,4.084,0.888     s-3.197,0.535-4.084,1.775c-0.888,1.252,1.605,4.449-2.139,4.449c-3.732,0-1.24-3.197-2.127-4.449     c-0.888-1.24-4.084,1.605-4.084-1.775c0-3.38,2.844,0,4.084-0.888c1.24-0.888,0-3.732,0-3.732s-1.957-0.535-2.844-2.491     c-0.888-1.957,1.24-4.096,1.24-4.096s-2.844,0.182-2.127-2.127c0.705-2.31-2.674-3.027-2.674-3.027l1.786-2.127     c0,0-1.252-3.027-7.999-3.732c-6.758-0.717-15.11-0.535-17.249-4.984c-2.127-4.437,3.379-13.858,3.379-13.858     S173.688-105.693,172.801-107.468"/>
		</g>
		<path style="fill:#A0CFEB;" d="M237.644-168.091c0,26.488-7.646,29.514-7.646,29.514s-3.686-4.449-8.954-2.674    c-5.268,1.786-12.731,7.646-12.731,7.646s-1.308-1.661-3.71-1.752c-2.401,0.091-3.709,1.752-3.709,1.752s-7.475-5.86-12.731-7.646    c-5.268-1.775-8.966,2.674-8.966,2.674s-7.646-3.027-7.646-29.514c0-25.054,29.684-48.652,32.893-51.131v-0.25    c0,0,0.114,0.091,0.159,0.125c0.057-0.034,0.159-0.125,0.159-0.125v0.25C207.982-216.742,237.644-193.145,237.644-168.091"/>
		<g>
			<path style="fill:#CCD6DD;" d="M196.979-193.333c1.775,5.154,2.844,8.533,2.844,11.56v12.971c0,0-2.844,1.422-2.844,3.027v4.801     l2.844,1.069v-3.208l2.844,1.069v2.844h2.127v-3.027l2.491-0.524v2.662l3.197-0.888v-4.449c0,0-2.481-2.662-2.481-3.379v-12.971     c0-1.252,3.732-11.56,3.732-11.56h-14.757V-193.333z"/>
			<path style="fill:#CCD6DD;" d="M204.355-156.714c0,0-0.796,3.379-2.753,6.223c-1.957,2.844-1.308,8.169,2.993,8.18     c8.033,0.012,2.696-7.202,2.696-7.202s-1.775,3.641-2.491,2.572c-0.705-1.058,1.866-5.154,0.717-7.464L204.355-156.714z"/>
			<path style="fill:#CCD6DD;" d="M186.4-159.912c0,0-0.796,3.379-2.753,6.223c-1.957,2.844-1.308,8.169,2.993,8.18     c8.033,0.012,2.696-7.202,2.696-7.202s-1.775,3.641-2.491,2.572c-0.705-1.058,1.866-5.154,0.717-7.464L186.4-159.912z"/>
			<path style="fill:#CCD6DD;" d="M222.023-159.912c0,0-0.796,3.379-2.753,6.223c-1.957,2.844-1.308,8.169,2.993,8.18     c8.033,0.012,2.696-7.202,2.696-7.202s-1.775,3.641-2.491,2.572c-0.705-1.058,1.866-5.154,0.717-7.464L222.023-159.912z"/>
			<path style="fill:#CCD6DD;" d="M180.361-192.511c0.955,3.049,1.502,5.382,1.502,7.532v12.982c0,0-2.844,1.422-2.844,3.015v4.801     l2.844,1.069v-3.197l2.844,1.058v2.844h2.139v-3.015l2.481-0.535v2.662l3.208-0.888v-4.437c0,0-2.491-2.674-2.491-3.379v-12.982     c0-1.24,3.732-11.56,3.732-11.56S179.975-193.729,180.361-192.511"/>
			<path style="fill:#CCD6DD;" d="M214.644-196.533c1.775,5.154,2.844,8.533,2.844,11.56v12.971c0,0-2.844,1.422-2.844,3.027v4.801     l2.844,1.069v-3.208l2.844,1.069v2.844h2.127v-3.027l2.491-0.524v2.662l3.197-0.888v-4.449c0,0-2.481-2.662-2.481-3.379v-12.971     c0-0.785,1.491-5.199,2.583-8.351C228.889-195.145,214.644-196.533,214.644-196.533"/>
		</g>
		<g>
			<path style="fill:#99AAB5;" d="M186.4-162.4h-1.684v-2.844l-2.844-1.069v3.208l-2.844-1.069v-4.801     c0-1.605,2.844-3.027,2.844-3.027v-12.971c0-2.162-0.546-4.494-1.513-7.532c-0.182-0.581,2.833-1.513,6.042-2.344V-162.4z"/>
			<path style="fill:#99AAB5;" d="M204.239-159.2h-1.684v-2.844l-2.844-1.069v3.208l-2.844-1.069v-4.801     c0-1.605,2.844-3.027,2.844-3.027v-12.971c0-2.162-0.546-4.494-1.513-7.532c-0.182-0.581,2.833-1.513,6.042-2.344V-159.2z"/>
			<path style="fill:#99AAB5;" d="M222.456-162.933l-2.23,0.535v-2.844l-2.844-1.069v3.197l-2.856-1.058v-4.801     c0-1.605,2.856-3.027,2.856-3.027v-12.971c0-2.162-0.557-4.494-1.513-7.544c-0.182-0.569,2.822-1.502,6.587-2.867     L222.456-162.933L222.456-162.933z"/>
		</g>
		<path style="fill:#8BB273;" d="M216-191.465c0,0-3.732,4.801-11.195,4.801c-7.475,0-10.673-4.984-10.673-4.984    s-6.587,2.605-14.234-1.047c9.034-14.21,22.449-24.906,24.542-26.522v-0.25c0,0,0.114,0.091,0.159,0.125    c0.057-0.034,0.171-0.125,0.171-0.125v0.25c2.105,1.615,15.599,12.39,24.633,26.669C221.245-189.087,216-191.465,216-191.465"/>
		<g>
			<path style="fill:#658D5C;" d="M214.528-242.756c-5.029,8.226-9.546,17.601-21.811,23.29     c-12.276,5.689-14.222,7.293-17.784,13.153c-3.55,5.871-10.49,9.773-10.49,9.773s0.182,5.518-2.127,9.068     c-2.31,3.561-2.139,7.999-2.139,7.999s-2.844-1.502-2.127,4.051c0.705,5.553-2.844,9.285-2.844,9.285s4.437,5.871,0.705,13.426     c4.267,7.384,2.31,15.736,2.31,15.736s3.732,6.929,0,14.405c-11.912-4.984-12.618-20.81-12.618-20.81l-6.758,9.785     c0,0-5.689-3.732-4.267-10.673c1.422-6.929,1.069-8.442,1.069-8.442l-6.406,5.427c0,0-4.62-7.646,1.786-13.699     c6.394-6.042,7.464-7.816,7.464-7.816s-3.197,1.775-3.197-1.069s0.705-4.084,0.705-4.084l-8.374,6.929     c0,0-2.469-9.421,3.402-14.757c5.86-5.325,9.421-7.282,9.421-7.282s-11.207,3.197-11.025,2.401     c0.182-0.808,2.31-6.668,7.999-9.876c5.689-3.197,9.956-4.437,9.956-4.437l-11.548-2.093c0,0,2.844-8.215,9.592-8.215     c6.758,0,13.164,2.127,13.164,2.127s-4.801-3.914-6.223-6.929c-1.422-3.027-5.518-3.379-5.518-3.379s3.732-3.914,10.673-2.674     c6.929,1.252,7.816,10.673,16.35,7.646c8.533-3.015,23.825-8.533,28.808-16.179c4.972-7.635,6.747-9.421,7.816-12.083     C211.558-245.418,215.995-245.157,214.528-242.756"/>
			<path style="fill:#658D5C;" d="M193.735-242.756c5.018,8.226,9.546,17.601,21.811,23.29c12.265,5.689,14.222,7.293,17.784,13.153     c3.55,5.871,10.479,9.773,10.479,9.773s-0.171,5.518,2.139,9.068c2.31,3.561,2.127,7.999,2.127,7.999s2.844-1.502,2.139,4.051     c-0.717,5.553,2.844,9.285,2.844,9.285s-4.449,5.871-0.717,13.426c-4.267,7.384-2.31,15.736-2.31,15.736s-3.732,6.929,0,14.405     c11.912-4.984,12.629-20.81,12.629-20.81l6.747,9.785c0,0,5.689-3.732,4.267-10.673c-1.422-6.929-1.058-8.442-1.058-8.442     l6.394,5.427c0,0,4.62-7.646-1.775-13.699c-6.406-6.042-7.464-7.816-7.464-7.816s3.197,1.775,3.197-1.069     s-0.717-4.084-0.717-4.084l8.374,6.929c0,0,2.481-9.421-3.391-14.757c-5.871-5.325-9.421-7.282-9.421-7.282     s11.195,3.197,11.025,2.401c-0.182-0.808-2.321-6.668-8.01-9.876c-5.689-3.197-9.956-4.437-9.956-4.437l11.56-2.093     c0,0-2.844-8.215-9.603-8.215c-6.747,0-13.153,2.127-13.153,2.127s4.801-3.914,6.223-6.929c1.422-3.027,5.507-3.379,5.507-3.379     s-3.732-3.914-10.661-2.674c-6.94,1.252-7.828,10.673-16.361,7.646c-8.533-3.015-23.814-8.533-28.797-16.179     c-4.972-7.635-6.758-9.421-7.816-12.083C196.705-245.418,192.268-245.157,193.735-242.756"/>
		</g>
		<g>
			<path style="fill:#E1E8ED;" d="M177.778-226.855c-8.351-0.967-10.49-6.474-22.221-1.32c-0.535-2.674,3.732-6.758,3.732-6.758     s-6.406-0.182-9.421,0.888c1.593-6.577,9.068-9.068,15.291-8.533c6.223,0.535,10.126,5.154,17.329,3.561     c7.202-1.605,12.379-3.812,10.945,9.057C188.621-224.795,177.778-226.855,177.778-226.855"/>
			<path style="fill:#E1E8ED;" d="M231.822-226.855c8.351-0.967,10.49-6.474,22.221-1.32c0.535-2.674-3.732-6.758-3.732-6.758     s6.406-0.182,9.421,0.888c-1.593-6.577-9.068-9.068-15.291-8.533c-6.223,0.535-10.126,5.154-17.329,3.561     c-7.202-1.605-12.379-3.812-10.945,9.057C220.979-224.795,231.822-226.855,231.822-226.855"/>
		</g>
		<path style="fill:#F5F8FA;" d="M232.356-218.578c-4.801,2.127-15.291-3.197-27.557-3.197s-22.756,5.325-27.557,3.197    s-3.903-2.844-3.55-4.62c0.353-1.775,0.888-6.577,1.24-9.25c0.353-2.662,3.197-4.437,6.577-2.127    c3.379,2.31,7.646,3.379,13.517,1.593c5.86-1.775,9.489-1.661,9.489-1.661s4.198-0.114,10.069,1.661    c5.86,1.786,10.126,0.717,13.505-1.593s6.223-0.535,6.577,2.127c0.353,2.674,0.888,7.475,1.24,9.25    C236.27-221.422,237.157-220.705,232.356-218.578"/>
		<path style="fill:#99AAB5;" d="M225.712-223.2c0-1.093-2.173-5.461-22.209-5.461c-20.025,0-21.527,4.369-21.527,5.461    s3.265-2.412,23.302-2.412S225.712-222.108,225.712-223.2"/>
	</g>
</g>
<g>
</g>
<g>
</g>
<g>
</g>
<g>
</g>
<g>
</g>
<g>
</g>
<g>
</g>
<g>
</g>
<g>
</g>
<g>
</g>
<g>
</g>
<g>
</g>
<g>
</g>
<g>
</g>
<g>
</g>
</svg>
