<?xml version="1.0" encoding="iso-8859-1"?>
<!-- Generator: Adobe Illustrator 19.0.0, SVG Export Plug-In . SVG Version: 6.00 Build 0)  -->
<svg xmlns="http://www.w3.org/2000/svg" xmlns:xlink="http://www.w3.org/1999/xlink" version="1.1" id="Capa_1" x="0px" y="0px" viewBox="0 0 512 512" style="enable-background:new 0 0 512 512;" xml:space="preserve">
<path style="fill:#00247D;" d="M455.112,71.113H56.894c-31.417,0-56.888,25.472-56.888,56.888v255.997  c0,31.417,25.472,56.888,56.888,56.888h398.218c31.417,0,56.888-25.472,56.888-56.888V128.001  C512,96.585,486.528,71.113,455.112,71.113z"/>
<g transform="matrix(1.25 0 0 -1.25 0 45)">
	<g>
		<g>
			<path style="fill:#EEEEEE;" d="M216.179-168.801v23.085l-80.781,56.559H75.905l113.742-79.644H216.179z"/>
			<path style="fill:#CF1B2B;" d="M216.179-152.667l-90.691,63.51h-19.831l110.522-77.391V-152.667z"/>
			<path style="fill:#EEEEEE;" d="M92.159-89.157L0-154.76v-14.04h37.91l113.754,79.644L92.159-89.157L92.159-89.157z"/>
			<path style="fill:#CF1B2B;" d="M121.904-89.157L8.355-168.801h3.026h16.623l113.742,79.644H121.904z"/>
			<path style="fill:#EEEEEE;" d="M189.658-20.891L75.916-100.535h59.493l80.77,56.559v23.085H189.658z"/>
			<path style="fill:#CF1B2B;" d="M199.558-20.891L85.827-100.535h19.831L216.18-23.144v2.253H199.558z"/>
		</g>
		<path style="fill:#EEEEEE;" d="M113.781-100.535h37.865L38.651-21.406l0,0C25.67-23.371,14.494-30.822,7.545-41.319l106.235-74.36    V-100.535z"/>
		<path style="fill:#CF1B2B;" d="M11.028-36.724l102.753-72.024v8.214h8.123L19.671-28.947    C16.467-31.164,13.564-33.78,11.028-36.724z"/>
		<path style="fill:#EEEEEE;" d="M216.179-66.402h-79.644v45.511H79.648v-45.511H0.004v-56.888h79.644v-45.511h56.888v45.511h79.644    V-66.402z"/>
		<g>
			<path style="fill:#CF1B2B;" d="M125.158-168.801H91.025v147.909h34.133V-168.801z"/>
			<path style="fill:#CF1B2B;" d="M216.179-111.912H0.004v34.133h216.175V-111.912z"/>
		</g>
	</g>
	<g>
		<path style="fill:#EEEEEE;" d="M312.546-231.522c-52.36,20.445-50.358,67.936-48.23,118.202l0.114,2.844l2.355,1.593    c4.312,2.958,25.099,8.704,47.831,8.704c22.744,0,43.52-5.746,47.831-8.704l2.344-1.605l0.125-2.833    c2.117-50.267,4.13-97.757-48.241-118.202l-2.06-0.808L312.546-231.522z"/>
		<path style="fill:#FFFF00;" d="M359.222-113.567c-3.106,2.127-22.539,7.702-44.612,7.702c-22.061,0-41.494-5.575-44.612-7.702    c-2.15-50.972-3.174-93.991,44.612-112.65C362.408-207.558,361.373-164.539,359.222-113.567"/>
		<path style="fill:#8FC5FF;" d="M269.29-146.045c0.535-36.306,8.112-65.649,45.317-80.178    c37.217,14.529,44.805,43.873,45.328,80.178H269.29z"/>
		<g>
			<g>
				<g>
					<path style="fill:#366CC9;" d="M273.068-192.022h81.771c0,0-9.592-36.977-40.232-36.977       C283.979-228.999,273.068-192.022,273.068-192.022"/>
					<path style="fill:#5D3100;" d="M279.469-167.504c1.912,5.108,6.156,12.333,7.816,12.561       c1.672,0.239,19.877-35.419,18.454-37.079c-1.422-1.672-21.766-2.742-25.793-2.025       C275.919-193.342,279.469-167.504,279.469-167.504"/>
					<path style="fill:#CF6200;" d="M267.857-162.634c1.422,3.322,6.167,11.138,7.589,11.138s23.927-41.961,25.35-46.466       c1.422-4.494-19.899-6.587-23.927-5.894C272.829-203.172,267.857-162.634,267.857-162.634"/>
					<g>
						<path style="fill:#FFFF00;" d="M309.818-149.117h-1.491v-43.144h1.491V-149.117z"/>
						<path style="fill:#FFFF00;" d="M324.973-147.933h-1.491v-44.328h1.491V-147.933z"/>
						<path style="fill:#FFFF00;" d="M338.968-149.117h-1.491v-43.144h1.491V-149.117z"/>
					</g>
					<path d="M288.002-181.29c2.253-0.626,11.821-5.928,17.737-7.702c7.111-2.127,17.59-1.855,20.435-1.855       c2.844,0,8.271,8.306,10.65,8.306h14.234c2.139,0,1.41-14.222-4.039-14.222h-38.4c-3.55,0-15.644,11.128-17.999,12.322       C288.241-183.258,285.988-180.732,288.002-181.29"/>
					<g>
						<path style="fill:#EEEEEE;" d="M314.612-153.745c0-1.24-1.012-2.253-2.253-2.253h-7.885c-1.24,0-2.253,1.012-2.253,2.253        c0,1.24,1.012,2.253,2.253,2.253h7.885C313.6-151.493,314.612-152.505,314.612-153.745"/>
						<path style="fill:#EEEEEE;" d="M329.679-151.49c0-1.24-1.012-2.253-2.253-2.253h-7.885c-1.24,0-2.253,1.012-2.253,2.253        c0,1.241,1.012,2.253,2.253,2.253h7.885C328.667-149.237,329.679-150.249,329.679-151.49"/>
						<path style="fill:#EEEEEE;" d="M345.167-156.005c0-1.24-1.012-2.253-2.253-2.253h-7.885c-1.24,0-2.253,1.012-2.253,2.253        c0,1.24,1.012,2.253,2.253,2.253h7.885C344.155-153.752,345.167-154.764,345.167-156.005"/>
						<path style="fill:#EEEEEE;" d="M345.167-168.447c0-1.24-1.012-2.253-2.253-2.253h-7.885c-1.24,0-2.253,1.012-2.253,2.253        c0,1.24,1.012,2.253,2.253,2.253h7.885C344.155-166.194,345.167-167.206,345.167-168.447"/>
						<path style="fill:#EEEEEE;" d="M345.167-176.7c0-1.24-1.012-2.253-2.253-2.253h-7.885c-1.24,0-2.253,1.012-2.253,2.253        c0,1.24,1.012,2.253,2.253,2.253h7.885C344.155-174.447,345.167-175.46,345.167-176.7"/>
						<path style="fill:#EEEEEE;" d="M329.679-159.79c0-1.24-1.012-2.253-2.253-2.253h-7.885c-1.24,0-2.253,1.012-2.253,2.253        c0,1.241,1.012,2.253,2.253,2.253h7.885C328.667-157.537,329.679-158.549,329.679-159.79"/>
						<path style="fill:#EEEEEE;" d="M329.679-168.447c0-1.24-1.012-2.253-2.253-2.253h-7.885c-1.24,0-2.253,1.012-2.253,2.253        c0,1.24,1.012,2.253,2.253,2.253h7.885C328.667-166.194,329.679-167.206,329.679-168.447"/>
						<path style="fill:#EEEEEE;" d="M329.679-176.7c0-1.24-1.012-2.253-2.253-2.253h-7.885c-1.24,0-2.253,1.012-2.253,2.253        c0,1.24,1.012,2.253,2.253,2.253h7.885C328.667-174.447,329.679-175.46,329.679-176.7"/>
						<path style="fill:#EEEEEE;" d="M314.612-162.045c0-1.24-1.012-2.253-2.253-2.253h-7.885c-1.24,0-2.253,1.012-2.253,2.253        c0,1.24,1.012,2.253,2.253,2.253h7.885C313.6-159.792,314.612-160.805,314.612-162.045"/>
						<path style="fill:#EEEEEE;" d="M314.612-170.7c0-1.24-1.012-2.253-2.253-2.253h-7.885c-1.24,0-2.253,1.012-2.253,2.253        c0,1.24,1.012,2.253,2.253,2.253h7.885C313.6-168.447,314.612-169.461,314.612-170.7"/>
						<path style="fill:#EEEEEE;" d="M314.612-178.953c0-1.24-1.012-2.253-2.253-2.253h-7.885c-1.24,0-2.253,1.012-2.253,2.253        c0,1.24,1.012,2.253,2.253,2.253h7.885C313.6-176.701,314.612-177.714,314.612-178.953"/>
					</g>
					<g>
						<path style="fill:#00D860;" d="M312.179-202.589c0-1.115,0.898-2.014,2.014-2.014h34.372c1.115,0,2.014,0.898,2.014,2.014        c0,1.115-0.898,2.014-2.014,2.014h-34.372C313.078-200.575,312.179-201.474,312.179-202.589"/>
						<path style="fill:#00D860;" d="M310.522-210.889c0-1.115,0.898-2.014,2.014-2.014h34.372c1.115,0,2.014,0.898,2.014,2.014        s-0.898,2.014-2.014,2.014h-34.372C311.42-208.874,310.522-209.773,310.522-210.889"/>
						<path style="fill:#00D860;" d="M305.301-219.188c0-1.115,0.898-2.014,2.014-2.014h34.372c1.115,0,2.014,0.898,2.014,2.014        s-0.898,2.014-2.014,2.014h-34.372C306.2-217.175,305.301-218.074,305.301-219.188"/>
					</g>
					<path style="fill:#AC5F1A;" d="M294.312-114.656c0.262,1.877,5.075,0.364,6.963,2.025c1.889,1.65,7.02,5.666,11.207,0.478       c2.332-2.901,1.741-4.892,4.346-7.27c2.594-2.378,16.452-8.374,20.947-6.952c-0.228-2.844-4.267-4.267-4.267-4.267       s3.812-2.833,4.289-6.156c0.478-3.322-5.711,5.154-14.472,2.833c-3.504-0.933-7.418-4.596-14.529-2.833       c-7.111,1.752-7.293,12.424-7.487,16.918C301.242-118.24,294.131-115.896,294.312-114.656"/>
					<path style="fill:#EEEEEE;" d="M297.868-113.69c0.341,1.524,4.141-0.045,5.803,1.183c1.638,1.206,6.11,4.13,9.147-0.387       c1.695-2.503,1.081-4.096,3.049-6.213c1.946-2.093,12.812-7.93,16.577-7.088c-0.376-2.287-3.766-3.174-3.766-3.174       s2.901-2.572,3.06-5.313c0.171-2.719-4.278,4.608-11.583,3.3c-2.913-0.524-6.349-3.231-12.003-1.308       c-5.677,1.9-5.108,10.616-4.949,14.279C303.261-117.081,297.629-114.68,297.868-113.69"/>
					<path d="M311.467-142.178c0-0.467-0.376-0.842-0.842-0.842c-0.467,0-0.853,0.376-0.853,0.842v5.347       c0,0.467,0.387,0.842,0.853,0.842c0.467,0,0.842-0.376,0.842-0.842V-142.178z"/>
					<path d="M317.768-142.178c0-0.467-0.376-0.842-0.842-0.842c-0.467,0-0.853,0.376-0.853,0.842v5.347       c0,0.467,0.387,0.842,0.853,0.842s0.842-0.376,0.842-0.842V-142.178z"/>
					<path d="M310.268-114.934c0-0.888-0.717-1.605-1.605-1.605c-0.888,0-1.593,0.717-1.593,1.605s0.705,1.605,1.593,1.605       C309.551-113.329,310.268-114.046,310.268-114.934"/>
				</g>
			</g>
		</g>
	</g>
</g>
<g>
</g>
<g>
</g>
<g>
</g>
<g>
</g>
<g>
</g>
<g>
</g>
<g>
</g>
<g>
</g>
<g>
</g>
<g>
</g>
<g>
</g>
<g>
</g>
<g>
</g>
<g>
</g>
<g>
</g>
</svg>
