<?xml version="1.0" encoding="iso-8859-1"?>
<!-- Generator: Adobe Illustrator 19.0.0, SVG Export Plug-In . SVG Version: 6.00 Build 0)  -->
<svg xmlns="http://www.w3.org/2000/svg" xmlns:xlink="http://www.w3.org/1999/xlink" version="1.1" id="Capa_1" x="0px" y="0px" viewBox="0 0 512 512" style="enable-background:new 0 0 512 512;" xml:space="preserve">
<path style="fill:#EEEEEE;" d="M455.111,71.111H56.889C25.472,71.111,0,96.583,0,128v256c0,31.417,25.472,56.889,56.889,56.889  h398.222C486.528,440.889,512,415.417,512,384V128C512,96.583,486.528,71.111,455.111,71.111z"/>
<path style="fill:#ED2939;" d="M455.111,71.111H56.889C25.472,71.111,0,96.583,0,128v128h512V128  C512,96.583,486.528,71.111,455.111,71.111z"/>
<path style="fill:#FFFFFF;" d="M85.333,163.556c0-36.764,23.097-67.527,54.187-75.89c-5.988-1.465-12.203-2.332-18.631-2.332  c-43.207,0-78.222,35.015-78.222,78.222s35.015,78.222,78.222,78.222c6.428,0,12.644-0.868,18.631-2.332  C108.43,231.083,85.333,200.32,85.333,163.556"/>
<g>
	<path style="fill:#EEEEEE;" d="M170.667,99.556l3.2,9.828h10.325l-8.363,6.073l3.2,9.828l-8.363-6.073l-8.363,6.073l3.2-9.828   l-8.363-6.073h10.325L170.667,99.556z"/>
	<path style="fill:#EEEEEE;" d="M142.222,199.111l3.2,9.828h10.325l-8.363,6.073l3.2,9.828l-8.363-6.073l-8.363,6.073l3.2-9.828   l-8.363-6.073h10.325L142.222,199.111z"/>
	<path style="fill:#EEEEEE;" d="M199.111,199.111l3.2,9.828h10.325l-8.363,6.073l3.2,9.828l-8.363-6.073l-8.363,6.073l3.2-9.828   l-8.363-6.073h10.325L199.111,199.111z"/>
	<path style="fill:#EEEEEE;" d="M128,142.222l3.2,9.828h10.325l-8.363,6.073l3.2,9.828L128,161.877l-8.363,6.073l3.2-9.828   l-8.363-6.073H124.8L128,142.222z"/>
	<path style="fill:#EEEEEE;" d="M213.333,142.222l3.2,9.828h10.325l-8.363,6.073l3.2,9.828l-8.363-6.073l-8.363,6.073l3.2-9.828   l-8.363-6.073h10.325L213.333,142.222z"/>
</g>
<g>
</g>
<g>
</g>
<g>
</g>
<g>
</g>
<g>
</g>
<g>
</g>
<g>
</g>
<g>
</g>
<g>
</g>
<g>
</g>
<g>
</g>
<g>
</g>
<g>
</g>
<g>
</g>
<g>
</g>
</svg>
