<?xml version="1.0" encoding="iso-8859-1"?>
<!-- Generator: Adobe Illustrator 19.0.0, SVG Export Plug-In . SVG Version: 6.00 Build 0)  -->
<svg xmlns="http://www.w3.org/2000/svg" xmlns:xlink="http://www.w3.org/1999/xlink" version="1.1" id="Capa_1" x="0px" y="0px" viewBox="0 0 512 512" style="enable-background:new 0 0 512 512;" xml:space="preserve">
<path style="fill:#141414;" d="M0,384c0,31.417,25.472,56.889,56.889,56.889h398.222C486.528,440.889,512,415.417,512,384v-63.582H0  V384z"/>
<rect y="192.418" style="fill:#EEEEEE;" width="512" height="128"/>
<path style="fill:#D21034;" d="M455.111,71.111H56.889C25.472,71.111,0,96.583,0,128v64.418h512V128  C512,96.583,486.528,71.111,455.111,71.111z"/>
<path style="fill:#007229;" d="M19.219,426.612L248.889,256L19.219,85.388C7.437,95.812,0,111.034,0,128v128v128  C0,400.966,7.437,416.189,19.219,426.612z"/>
<g>
</g>
<g>
</g>
<g>
</g>
<g>
</g>
<g>
</g>
<g>
</g>
<g>
</g>
<g>
</g>
<g>
</g>
<g>
</g>
<g>
</g>
<g>
</g>
<g>
</g>
<g>
</g>
<g>
</g>
</svg>
