<?xml version="1.0" encoding="iso-8859-1"?>
<!-- Generator: Adobe Illustrator 19.0.0, SVG Export Plug-In . SVG Version: 6.00 Build 0)  -->
<svg xmlns="http://www.w3.org/2000/svg" xmlns:xlink="http://www.w3.org/1999/xlink" version="1.1" id="Capa_1" x="0px" y="0px" viewBox="0 0 512 512" style="enable-background:new 0 0 512 512;" xml:space="preserve">
<path style="fill:#007A3D;" d="M455.111,71.111H343.708h-0.006H170.667H56.889C25.472,71.111,0,96.583,0,128v256  c0,12.48,4.03,24.013,10.844,33.393c1.594,2.194,3.34,4.268,5.224,6.209c2.172,2.239,4.52,4.303,7.033,6.162l188.353-90.686  L23.107,429.767c2.002,1.481,4.106,2.831,6.297,4.042c8.148,4.507,17.515,7.079,27.485,7.079h398.222  C486.528,440.889,512,415.417,512,384v-66.371v-0.004V194.368v-0.003v-66.589C512,96.463,486.453,71.111,455.111,71.111z"/>
<path style="fill:#D62828;" d="M512,127.776c0-31.313-25.547-56.665-56.889-56.665H343.708L16.069,423.602  c2.172,2.239,4.52,4.303,7.033,6.162l229.128-110.318L512,194.368V127.776z"/>
<path style="fill:#FCD856;" d="M343.703,71.111H170.667L10.844,417.393c1.594,2.194,3.34,4.268,5.224,6.209L343.708,71.111H343.703z  "/>
<path style="fill:#003F87;" d="M56.889,71.111C25.472,71.111,0,96.583,0,128v256c0,12.48,4.03,24.013,10.844,33.393L170.667,71.111  H56.889z"/>
<path style="fill:#EEEEEE;" d="M252.226,319.446L23.107,429.767c2.002,1.481,4.106,2.831,6.297,4.042L512,317.625v-123.26  l-0.006,0.003L252.226,319.446z"/>
<g>
</g>
<g>
</g>
<g>
</g>
<g>
</g>
<g>
</g>
<g>
</g>
<g>
</g>
<g>
</g>
<g>
</g>
<g>
</g>
<g>
</g>
<g>
</g>
<g>
</g>
<g>
</g>
<g>
</g>
</svg>
