<?xml version="1.0" encoding="iso-8859-1"?>
<!-- Generator: Adobe Illustrator 19.0.0, SVG Export Plug-In . SVG Version: 6.00 Build 0)  -->
<svg xmlns="http://www.w3.org/2000/svg" xmlns:xlink="http://www.w3.org/1999/xlink" version="1.1" id="Capa_1" x="0px" y="0px" viewBox="0 0 512 512" style="enable-background:new 0 0 512 512;" xml:space="preserve">
<path style="fill:#215B33;" d="M502.797,96.941V96.94c-5.856-9.447-15.243-16.954-25.756-21.385  c-0.003,0.002-0.178,0.003-0.178,0.003v-0.003c-6.693-2.86-13.924-4.442-21.752-4.442H56.889C25.472,71.111,0,96.583,0,128v256  c0,11.461,3.402,22.124,9.234,31.055l0.008-0.006c-0.002,0.003-0.004,0.005-0.006,0.008c6.172,9.45,15.067,16.959,25.584,21.39  c6.786,2.86,14.242,4.442,22.069,4.442h398.222C486.528,440.889,512,415.417,512,384V128  C512,116.537,508.654,105.874,502.797,96.941z"/>
<path style="fill:#0051BA;" d="M455.111,71.111H56.889C25.472,71.111,0,96.583,0,128v256c0,11.461,3.402,22.124,9.234,31.055  L477.182,75.553C470.396,72.694,462.938,71.111,455.111,71.111z"/>
<path style="fill:#FCD116;" d="M502.762,96.94c-6.171-9.447-15.063-16.954-25.577-21.385L9.236,415.057  c6.172,9.45,15.067,16.959,25.584,21.39l378.439-274.569L502.762,96.94z"/>
<g>
	<path style="fill:#FFFFFF;" d="M119.282,157.545l-7.111-21.874l-7.097,21.874H82.076l18.603,13.511l-7.111,21.874l18.603-13.511   l18.603,13.511l-7.097-21.874l18.603-13.511H119.282z"/>
	<path style="fill:#FFFFFF;" d="M49.694,82.126L42.583,104H19.586l18.617,13.511l-7.111,21.874l18.603-13.511l18.603,13.511   l-7.111-21.874L79.788,104H56.805L49.694,82.126z"/>
	<path style="fill:#FFFFFF;" d="M181.764,211.101l-7.111-21.874l-7.097,21.874h-22.997l18.603,13.511l-7.111,21.874l18.603-13.511   l18.603,13.511l-7.097-21.874l18.603-13.511H181.764z"/>
	<path style="fill:#FFFFFF;" d="M56.799,211.101l-7.111-21.874l-7.097,21.874H19.594l18.603,13.511l-7.111,21.874l18.603-13.511   l18.603,13.511l-7.097-21.874l18.603-13.511H56.799z"/>
	<path style="fill:#FFFFFF;" d="M156.054,139.378l18.603-13.511l18.603,13.511l-7.097-21.874l18.603-13.511h-22.997l-7.111-21.874   l-7.111,21.874h-22.983l18.603,13.511L156.054,139.378z"/>
</g>
<g>
</g>
<g>
</g>
<g>
</g>
<g>
</g>
<g>
</g>
<g>
</g>
<g>
</g>
<g>
</g>
<g>
</g>
<g>
</g>
<g>
</g>
<g>
</g>
<g>
</g>
<g>
</g>
<g>
</g>
</svg>
