<?xml version="1.0" encoding="iso-8859-1"?>
<!-- Generator: Adobe Illustrator 19.0.0, SVG Export Plug-In . SVG Version: 6.00 Build 0)  -->
<svg xmlns="http://www.w3.org/2000/svg" xmlns:xlink="http://www.w3.org/1999/xlink" version="1.1" id="Capa_1" x="0px" y="0px" viewBox="0 0 512 512" style="enable-background:new 0 0 512 512;" xml:space="preserve">
<g transform="matrix(1.25 0 0 -1.25 0 45)">
	<g>
		<g>
			<path style="fill:#20603D;" d="M409.6-271.2c0-25.134-20.378-45.511-45.511-45.511H45.511C20.378-316.711,0-296.334,0-271.2     v204.8c0,25.134,20.378,45.511,45.511,45.511h318.578c25.134,0,45.511-20.378,45.511-45.511V-271.2z"/>
			<path style="fill:#FAD201;" d="M409.6-259.822H0v79.644h409.6V-259.822z"/>
			<path style="fill:#00A1DE;" d="M364.089-20.889H45.511C20.378-20.889,0-41.266,0-66.4v-136.533h409.6V-66.4     C409.6-41.266,389.222-20.889,364.089-20.889"/>
			<path style="fill:#FAD201;" d="M295.822-20.889l5.951-45.898l17.601,42.803l-6.133-45.875l28.092,36.773l-17.795-42.724     l36.636,28.262l-28.251-36.659L374.659-66.4l-36.796-28.092l45.887,6.144l-42.803-17.613l45.898-5.951l-45.898-5.939     l42.803-17.613l-45.887,6.133l36.796-28.092l-42.735,17.806l28.251-36.659l-36.636,28.262l17.795-42.735l-28.092,36.796     l6.133-45.875l-17.601,42.792l-5.951-45.898l-5.939,45.898l-17.624-42.792l6.144,45.875l-28.092-36.796l17.795,42.735     l-36.636-28.262l28.24,36.659l-42.724-17.806l36.784,28.092l-45.864-6.133l42.78,17.613l-45.887,5.939l45.887,5.951     l-42.78,17.613l45.864-6.144L216.986-66.4l42.724-17.806l-28.24,36.659l36.636-28.262l-17.795,42.724l28.092-36.773     l-6.144,45.875l17.624-42.803L295.822-20.889z"/>
			<path style="fill:#00A1DE;" d="M341.333-111.911c0-25.134-20.378-45.511-45.511-45.511c-25.145,0-45.511,20.378-45.511,45.511     c0,25.145,20.366,45.511,45.511,45.511C320.956-66.4,341.333-86.766,341.333-111.911"/>
			<path style="fill:#FAD201;" d="M329.956-111.911c0-18.853-15.28-34.133-34.133-34.133c-18.853,0-34.133,15.28-34.133,34.133     s15.28,34.133,34.133,34.133C314.675-77.778,329.956-93.058,329.956-111.911"/>
		</g>
	</g>
</g>
<g>
</g>
<g>
</g>
<g>
</g>
<g>
</g>
<g>
</g>
<g>
</g>
<g>
</g>
<g>
</g>
<g>
</g>
<g>
</g>
<g>
</g>
<g>
</g>
<g>
</g>
<g>
</g>
<g>
</g>
</svg>
