<?xml version="1.0" encoding="iso-8859-1"?>
<!-- Generator: Adobe Illustrator 19.0.0, SVG Export Plug-In . SVG Version: 6.00 Build 0)  -->
<svg xmlns="http://www.w3.org/2000/svg" xmlns:xlink="http://www.w3.org/1999/xlink" version="1.1" id="Capa_1" x="0px" y="0px" viewBox="0 0 512 512" style="enable-background:new 0 0 512 512;" xml:space="preserve">
<path style="fill:#3366FF;" d="M506.252,103.068c-5.93-12.139-16.054-21.849-28.485-27.254c-6.944-3.019-14.602-4.703-22.656-4.703  H277.333h-42.667H56.889c-8.054,0-15.712,1.684-22.656,4.703C21.802,81.22,11.678,90.929,5.748,103.068  C2.07,110.598,0,119.057,0,128v107.11v42.311V384c0,17.085,7.544,32.4,19.469,42.828c10.004,8.748,23.089,14.061,37.42,14.061  h398.222c14.332,0,27.416-5.312,37.42-14.061C504.456,416.4,512,401.085,512,384V277.421V235.11V128  C512,119.057,509.93,110.598,506.252,103.068z"/>
<g>
	<path style="fill:#FF0000;" d="M256,256.266l-0.416,0.034L19.469,426.828c10.004,8.748,23.089,14.061,37.42,14.061h398.222   c14.332,0,27.416-5.312,37.42-14.061L256.416,256.3L256,256.266z"/>
	<polygon style="fill:#FF0000;" points="256,256.266 256.33,256.238 256,256 255.67,256.238  "/>
</g>
<g>
	<polygon style="fill:#FFFF00;" points="256,256.266 255.67,256.238 0,235.11 0,277.421 255.584,256.3  "/>
	<polygon style="fill:#FFFF00;" points="256,256.266 256.416,256.3 512,277.421 512,235.11 256.33,256.238  "/>
	<path style="fill:#FFFF00;" d="M34.233,75.814C21.802,81.22,11.678,90.929,5.748,103.068L256,256L34.233,75.814z"/>
	<path style="fill:#FFFF00;" d="M506.252,103.068c-5.93-12.139-16.054-21.849-28.485-27.254L256,256L506.252,103.068z"/>
	<polygon style="fill:#FFFF00;" points="277.333,71.111 234.667,71.111 256,256  "/>
</g>
<g>
</g>
<g>
</g>
<g>
</g>
<g>
</g>
<g>
</g>
<g>
</g>
<g>
</g>
<g>
</g>
<g>
</g>
<g>
</g>
<g>
</g>
<g>
</g>
<g>
</g>
<g>
</g>
<g>
</g>
</svg>
