<?xml version="1.0" encoding="iso-8859-1"?>
<!-- Generator: Adobe Illustrator 19.0.0, SVG Export Plug-In . SVG Version: 6.00 Build 0)  -->
<svg xmlns="http://www.w3.org/2000/svg" xmlns:xlink="http://www.w3.org/1999/xlink" version="1.1" id="Capa_1" x="0px" y="0px" viewBox="0 0 512 512" style="enable-background:new 0 0 512 512;" xml:space="preserve">
<path style="fill:#EEEEEE;" d="M455.111,71.111H156.444l75.307,20.915l-74.53,20.293l-0.774-0.215l75.304-20.078h-0.003  l-75.304-20.915H56.832C25.442,71.111,0,96.602,0,128v256c0,31.417,25.472,56.889,56.889,56.889h99.556h0.005h298.662  C486.528,440.889,512,415.417,512,384V128C512,96.583,486.528,71.111,455.111,71.111z M156.511,235.468l-0.043-0.012l14.681-4.006  l53.045-14.43L156.511,235.468z M156.593,235.41l-0.148,0.041l0,0L156.593,235.41z M231.735,420.348l-0.008-0.002l0.019-0.005  l0.004,0.003L231.735,420.348z M231.728,420.328l0.013,0.008l-67.739-18.426l-7.445-1.984l-0.11-0.03l0.422-0.117l7.133,2.014  l67.749,18.512L231.728,420.328z M156.447,358.902l0.774-0.215l74.53,20.293L156.447,358.902z M156.447,317.909l0.773-0.215  l74.531,20.293L156.447,317.909z M156.447,276.915l0.773-0.215l74.531,20.293L156.447,276.915z M157.221,194.307l-0.774-0.215  l75.304-20.078L157.221,194.307z M157.221,153.313l-0.774-0.215l75.304-20.078L157.221,153.313z"/>
<path style="fill:#8D1B3D;" d="M455.111,71.111H156.444l75.307,20.915h-0.003h0.003l-75.304,20.503l75.304,20.49h-0.003h0.003  l-75.304,20.504l75.304,20.489h-0.003h0.003l-75.304,20.503l75.304,20.49h-0.003h0.003l-7.558,2.015l-67.725,18.459l67.725,18.47  l7.558,2.05h-0.003h0.003l-75.304,20.49l75.304,20.503h-0.003h0.003l-75.304,20.49l75.304,20.503h-0.003h0.003l-75.304,20.489  l75.304,20.504h-0.003h0.003l-75.304,20.679l7.555,2.133l67.749,18.512l-0.023,0.024l0.023,0.015l-67.749,18.481l-7.553,2.065  h298.662C486.528,440.889,512,415.417,512,384V128C512,96.583,486.528,71.111,455.111,71.111z"/>
<g>
</g>
<g>
</g>
<g>
</g>
<g>
</g>
<g>
</g>
<g>
</g>
<g>
</g>
<g>
</g>
<g>
</g>
<g>
</g>
<g>
</g>
<g>
</g>
<g>
</g>
<g>
</g>
<g>
</g>
</svg>
