<?xml version="1.0" encoding="iso-8859-1"?>
<!-- Generator: Adobe Illustrator 19.0.0, SVG Export Plug-In . SVG Version: 6.00 Build 0)  -->
<svg xmlns="http://www.w3.org/2000/svg" xmlns:xlink="http://www.w3.org/1999/xlink" version="1.1" id="Capa_1" x="0px" y="0px" viewBox="0 0 512 512" style="enable-background:new 0 0 512 512;" xml:space="preserve">
<g transform="matrix(1.25 0 0 -1.25 0 45)">
	<g>
		<g>
			<path style="fill:#EA0B19;" d="M364.089-20.889H45.511c-11.469,0-21.914-4.267-29.912-11.264l63.169-45.625H409.6V-66.4     C409.6-41.266,389.222-20.889,364.089-20.889"/>
			<path style="fill:#EEEEEE;" d="M157.537-134.667H409.6v56.889H78.768L157.537-134.667z"/>
			<path style="fill:#EA0B19;" d="M204.8-168.8l-47.263-34.133H409.6v68.267H157.537L204.8-168.8z"/>
			<path style="fill:#EEEEEE;" d="M78.768-259.822H409.6v56.889H157.537L78.768-259.822z"/>
			<path style="fill:#EA0B19;" d="M15.599-305.447c7.999-6.997,18.443-11.264,29.912-11.264h318.578     c25.134,0,45.511,20.378,45.511,45.511v11.378H78.768L15.599-305.447z"/>
			<path style="fill:#0F55EC;" d="M157.537-202.933L204.8-168.8l-47.263,34.133L78.768-77.778L15.599-32.153     C6.053-40.504,0-52.735,0-66.4v-204.8c0-13.665,6.053-25.896,15.599-34.247l63.169,45.625L157.537-202.933z"/>
			<path style="fill:#FFFFFF;" d="M93.15-178.357l26.317,19.058H86.938l-10.103,31.016L66.708-159.3H34.133l26.34-19.081     l-10.126-30.982l26.453,19.16l26.453-19.16L93.15-178.357z"/>
		</g>
	</g>
</g>
<g>
</g>
<g>
</g>
<g>
</g>
<g>
</g>
<g>
</g>
<g>
</g>
<g>
</g>
<g>
</g>
<g>
</g>
<g>
</g>
<g>
</g>
<g>
</g>
<g>
</g>
<g>
</g>
<g>
</g>
</svg>
