<?xml version="1.0" encoding="iso-8859-1"?>
<!-- Generator: Adobe Illustrator 19.0.0, SVG Export Plug-In . SVG Version: 6.00 Build 0)  -->
<svg xmlns="http://www.w3.org/2000/svg" xmlns:xlink="http://www.w3.org/1999/xlink" version="1.1" id="Capa_1" x="0px" y="0px" viewBox="0 0 512 512" style="enable-background:new 0 0 512 512;" xml:space="preserve">
<path style="fill:#00247D;" d="M455.112,71.113H56.894c-31.417,0-56.888,25.472-56.888,56.888v255.997  c0,31.417,25.472,56.888,56.888,56.888h398.218c31.417,0,56.888-25.472,56.888-56.888V128.001  C512,96.585,486.528,71.113,455.112,71.113z"/>
<path style="fill:#EEEEEE;" d="M270.225,256v-28.857l-100.977-70.698H94.881L237.059,256H270.225z"/>
<path style="fill:#CF1B2B;" d="M270.225,235.833l-113.364-79.388h-24.789l138.153,96.738L270.225,235.833L270.225,235.833z"/>
<path style="fill:#EEEEEE;" d="M115.199,156.446L0,238.45V256h47.388l142.192-99.554L115.199,156.446L115.199,156.446z"/>
<path style="fill:#CF1B2B;" d="M152.379,156.446L10.443,256h3.783h20.778l142.178-99.554L152.379,156.446L152.379,156.446z"/>
<path style="fill:#EEEEEE;" d="M237.072,71.113L94.894,170.668h74.367L270.223,99.97V71.113H237.072z"/>
<path style="fill:#CF1B2B;" d="M249.447,71.113l-142.164,99.554h24.789l138.153-96.738v-2.816H249.447z"/>
<path style="fill:#EEEEEE;" d="M9.432,96.649l132.795,92.949v-18.93h47.331L48.315,71.758C32.088,74.214,18.117,83.528,9.432,96.649  z"/>
<path style="fill:#CF1B2B;" d="M13.785,90.906l128.441,90.031v-10.268h10.155L24.589,81.185  C20.584,83.954,16.955,87.226,13.785,90.906z"/>
<path style="fill:#EEEEEE;" d="M270.225,128.001h-99.554V71.113H99.56v56.888H0.006v71.11H99.56V256h71.11v-56.888h99.554V128.001z"/>
<g>
	<path style="fill:#CF1B2B;" d="M156.449,256h-42.666V71.113h42.666V256z"/>
	<path style="fill:#CF1B2B;" d="M270.225,184.89H0.006v-42.666h270.219V184.89z"/>
</g>
<path style="fill:#DD2E44;" d="M433.266,286.623c0,6.969-7.979,12.629-17.82,12.629c-9.828,0-17.806-5.661-17.806-12.629  c0-6.983,7.979-12.643,17.806-12.643C425.287,273.98,433.266,279.641,433.266,286.623"/>
<path style="fill:#009A67;" d="M351.918,266.958c0,5.988,18.019,13.028,32.512-4.637c14.507-17.65,10.283,6.372,4.338,10.098  c-5.945,3.726-12.302,12.714-25.13,11.335c-12.814-1.394-16.086-6.456-19.043-13.852  C341.635,262.521,351.918,266.958,351.918,266.958"/>
<g>
	<path style="fill:#FFF100;" d="M354.505,229.284c1.493,3.641-0.256,7.779-3.883,9.273l-13.17,5.376   c-3.641,1.493-7.794-0.242-9.287-3.883c-1.479-3.641,0.256-7.779,3.896-9.273l13.17-5.376   C348.872,223.908,353.025,225.643,354.505,229.284"/>
	<path style="fill:#FFF100;" d="M467.886,269.348c-2.133,3.299-5.959,4.608-8.548,2.944l-18.616-12.089   c-2.575-1.664-2.93-5.674-0.797-8.975c2.148-3.299,5.959-4.622,8.548-2.958l18.616,12.089   C469.664,262.037,470.019,266.049,467.886,269.348"/>
	<path style="fill:#FFF100;" d="M470.31,264.966c1.052,3.783-1.152,7.708-4.935,8.761c-3.784,1.052-7.708-1.152-8.761-4.949   l-7.637-27.392c-1.052-3.783,1.152-7.708,4.935-8.761c3.784-1.052,7.708,1.152,8.761,4.935L470.31,264.966z"/>
	<path style="fill:#FFF100;" d="M476.139,268.119c0,3.939-3.185,7.096-7.111,7.096c-3.926,0-7.111-3.157-7.111-7.096   c0-3.926,3.185-7.111,7.111-7.111C472.954,261.008,476.139,264.194,476.139,268.119"/>
</g>
<g>
	<path style="fill:#009A67;" d="M355.557,264.882c0,2.958-3.185,5.333-7.111,5.333c-3.926,0-7.111-2.375-7.111-5.333v-31.985   c0-2.958,3.185-5.333,7.111-5.333c3.926,0,7.111,2.375,7.111,5.333V264.882z"/>
	<path style="fill:#009A67;" d="M365.781,250.126c2.361,3.143,2.375,7.096,0.043,8.846l-16.853,12.643   c-2.318,1.75-6.115,0.612-8.477-2.532c-2.361-3.157-2.375-7.111-0.043-8.861l16.839-12.643   C359.609,245.845,363.421,246.968,365.781,250.126"/>
	<path style="fill:#009A67;" d="M348.947,264.75c0,3.868-3.399,7.012-7.609,7.012s-7.623-3.143-7.623-7.012s3.413-7.012,7.623-7.012   S348.947,260.881,348.947,264.75"/>
	<path style="fill:#009A67;" d="M481.363,241.792c-1.55,3.669-9.344,3.855-17.422,0.412c-8.05-3.428-13.312-9.188-11.748-12.856   c1.564-3.669,9.344-3.855,17.422-0.412C477.666,232.364,482.928,238.124,481.363,241.792"/>
</g>
<g>
	<path style="fill:#D4D5D6;" d="M395.446,245.403c-8.249,5.348-19.299,15.303-19.299,15.303l6.144,0.782   c0,0,7.523,7.879,8.832,15.345c1.308,7.452-1.678,2.403-2.304,8.178c-0.625,5.775,2.631,9.671,2.631,9.671   s8.932-3.015,14.791-7.509c5.859-4.508,9.77-11.25,13.127-7.779c3.342,3.456,2.958,5.049,2.958,5.049h4.338   c0,0-7.197-7.025-7.083-11.05c0.114-4.025-6.301-24.021-6.301-24.021L395.446,245.403z"/>
	<path style="fill:#D4D5D6;" d="M385.765,227.472c0,0,6.755-5.135,6.044-4.495c-0.711,0.625,7.637,3.555,12.701,1.465   c5.077-2.077,14.961-12.061,17.394-10.595c2.432,1.479-12.274,10.098-6.13,11.449c6.158,1.366,8.092-3.797,11.875-5.689   c3.797-1.877,9.742-2.105,4.01,1.692c-5.745,3.797-13.639,20.224-13.639,20.224l-23.182-1.821l-6.073-4.452L385.765,227.472z"/>
</g>
<g>
	<path style="fill:#009A67;" d="M425.319,244.659c0,3.271-8.561,5.93-19.114,5.93c-10.539,0-19.1-2.659-19.1-5.93   c0-3.271,8.561-5.93,19.1-5.93C416.758,238.729,425.319,241.389,425.319,244.659"/>
	<path style="fill:#009A67;" d="M362.182,314.972c-0.981,3.129-8.107,3.627-15.929,1.152c-7.807-2.474-13.34-6.983-12.359-10.098   c0.996-3.129,8.121-3.641,15.943-1.166C357.645,307.334,363.163,311.857,362.182,314.972"/>
	<path style="fill:#009A67;" d="M470.349,338.042c-0.427,2.418-7.481,3.2-15.758,1.735c-8.277-1.45-14.663-4.579-14.222-6.983   c0.412-2.403,7.467-3.185,15.744-1.721C464.389,332.51,470.761,335.652,470.349,338.042"/>
	<path style="fill:#009A67;" d="M456.276,339.207c-2.233,10.766-6.016,19.058-8.419,18.56c-2.403-0.498-2.532-9.615-0.284-20.366   c2.233-10.752,6.002-19.058,8.406-18.56C458.38,319.354,458.509,328.47,456.276,339.207"/>
	<path style="fill:#009A67;" d="M420.543,246.577c3.883,10.169,14.919,30.278,25.429,30.421c10.51,0.142,11.904-4.394,11.904-4.394   s0.384,7.979-9.173,9.472c-9.543,1.479-14.976-3.243-13.227-1.621c1.75,1.636,5.603,5.319,14.507,7.652   c8.903,2.347,24.135,5.092,23.665,13.597c-0.455,8.519-6.4,11.833-5.803,8.078c0.597-3.754-6.101-10.581-17.863-13.227   c-11.761-2.631-25.059-9.059-30.89-28.117c-5.816-19.072-1.081-1.75-1.081-1.75s-11.505,3.513-11.434-2.233   c0.056-5.76,8.917-2.745,7.111-10.041c-1.821-7.31-6.144-12.302-1.849-10.752C416.119,245.211,420.543,246.577,420.543,246.577"/>
	<path style="fill:#009A67;" d="M391.558,272.598c-5.775,8.874-22.542,21.361-27.946,27.221s-9.315,16.952-10.468,24.292   c-1.152,7.353,1.052,18.687,5.148,5.959c4.096-12.714,11.349-17.65,18.687-25.856c7.324-8.206,12.317-13.639,14.99-19.114   C394.658,279.623,391.558,272.598,391.558,272.598"/>
</g>
<g>
	<path style="fill:#FFF100;" d="M426.029,278.598c1.806,5.959,1.621,11.278-0.412,11.89c-2.034,0.612-5.148-3.712-6.941-9.671   c-1.806-5.959-1.607-11.292,0.441-11.904C421.136,268.3,424.237,272.638,426.029,278.598"/>
	<path style="fill:#FFF100;" d="M375.696,278.515c0,1.806-4.381,3.271-9.785,3.271c-5.404,0-9.785-1.465-9.785-3.271   s4.381-3.256,9.785-3.256C371.315,275.258,375.696,276.708,375.696,278.515"/>
	<path style="fill:#FFF100;" d="M360.042,337.457c2.105,10.994,1.806,20.266-0.683,20.736c-2.474,0.47-6.187-8.021-8.292-19.015   c-2.105-10.979-1.806-20.281,0.683-20.75C354.226,317.959,357.952,326.477,360.042,337.457"/>
	<path style="fill:#FFF100;" d="M367.241,335.431c0,2.219-6.286,3.997-14.023,3.997c-7.751,0-14.052-1.778-14.052-3.997   c0-2.204,6.301-3.997,14.052-3.997C360.955,331.434,367.241,333.226,367.241,335.431"/>
	<path style="fill:#FFF100;" d="M370.432,366.621c2.688,5.433,3.413,10.581,1.579,11.477c-1.806,0.896-5.447-2.802-8.163-8.221   c-2.674-5.433-3.399-10.61-1.579-11.477C364.089,357.477,367.743,361.188,370.432,366.621"/>
	<path style="fill:#FFF100;" d="M447.672,370.096c-3.939,5.632-9.244,8.732-11.861,6.912c-2.631-1.834-1.536-7.879,2.403-13.526   c3.939-5.646,9.244-8.747,11.875-6.912C452.691,358.392,451.611,364.436,447.672,370.096"/>
	<path style="fill:#FFF100;" d="M480.08,304.694c1.763,2.887-3.598,9.387-12.003,14.521c-8.391,5.148-16.625,6.954-18.389,4.068   c-1.778-2.901,3.584-9.401,11.975-14.549C470.067,303.599,478.302,301.793,480.08,304.694"/>
	<path style="fill:#FFF100;" d="M336.252,301.708c3.997-9.415,16.398-14.45,24.604-16.612c8.192-2.162,10.027-4.622,16.64-9.841   c6.628-5.219,5.049-8.761,8.263-6.4c3.228,2.361,5.93,3.47,2.83,7.865c-3.114,4.409-13.994,13.739-21.034,16.455   c-7.04,2.73-20.892,8.548-21.774,10.126C344.884,304.894,334.915,304.851,336.252,301.708"/>
</g>
<path style="fill:#4D8FCC;" d="M368.071,287.18h67.91v51.654c0,22.001-33.948,44.856-33.948,44.856s-33.962-22.428-33.962-45.923  V287.18z"/>
<path style="fill:#009A67;" d="M431.709,352.97l-29.283-57.998l-31.53,54.47c7.922,18.717,31.132,34.247,31.132,34.247  S422.678,369.638,431.709,352.97"/>
<g>
	<path style="fill:#FFF100;" d="M370.807,345.777l2.219,5.49l29.411-53.205l28.515,52.749l2.318-5.859l-30.222-57.77   L370.807,345.777z"/>
	<path style="fill:#FFF100;" d="M434.378,292.639c4.736,7.807,13.397,5.49,17.123,18.659c3.726,13.184,1.75,27.463-2.148,16.17   c-3.911-11.292-5.049-17.635-16.086-20.551C422.218,304.002,434.378,292.639,434.378,292.639"/>
	<path style="fill:#FFF100;" d="M363.612,360.86l-2.759,16.469l14.847-7.552L363.612,360.86z"/>
	<path style="fill:#FFF100;" d="M442.32,363.471l-13.98,6.499l15.345,9.216L442.32,363.471z"/>
	<path style="fill:#FFF100;" d="M416.015,338.681c0,1.45-1.194,2.646-2.659,2.646h-20.708c-1.45,0-2.646-1.194-2.646-2.646   c0-1.465,1.194-2.659,2.646-2.659h20.708C414.821,336.021,416.015,337.216,416.015,338.681"/>
	<path style="fill:#FFF100;" d="M404.306,366.052c0,2.062-0.541,3.726-1.194,3.726h-2.19c-0.655,0-1.194-1.664-1.194-3.726v-35.228   c0-2.048,0.541-3.712,1.194-3.712h2.19c0.655,0,1.194,1.664,1.194,3.712V366.052z"/>
	<path style="fill:#FFF100;" d="M384.695,353.14l8.305,8.661l-1.45,1.792l9.372,6.187l12.814-6.172l-2.717-1.721l9.273-6.997   l-1.336,11.833l-3.399-0.981l-13.397,11.321l-14.108-11.961l-2.688,0.284L384.695,353.14z"/>
</g>
<g>
</g>
<g>
</g>
<g>
</g>
<g>
</g>
<g>
</g>
<g>
</g>
<g>
</g>
<g>
</g>
<g>
</g>
<g>
</g>
<g>
</g>
<g>
</g>
<g>
</g>
<g>
</g>
<g>
</g>
</svg>
