<?xml version="1.0" encoding="iso-8859-1"?>
<!-- Generator: Adobe Illustrator 19.0.0, SVG Export Plug-In . SVG Version: 6.00 Build 0)  -->
<svg xmlns="http://www.w3.org/2000/svg" xmlns:xlink="http://www.w3.org/1999/xlink" version="1.1" id="Capa_1" x="0px" y="0px" viewBox="0 0 512 512" style="enable-background:new 0 0 512 512;" xml:space="preserve">
<g transform="matrix(1.25 0 0 -1.25 0 45)">
	<g>
		<g>
			<path style="fill:#004600;" d="M314.14-135.213l-13.801-23.006l-2.367,26.726l-26.146,6.007l24.69,10.513l-2.355,26.726     l17.613-20.241l24.69,10.513l-13.79-23.017l17.613-20.241L314.14-135.213z M256-253.815c-47.127,0-85.333,38.207-85.333,85.333     c0,42.325,30.845,77.346,71.259,84.07c-25.27-11.765-42.815-37.308-42.815-67.004c0-40.846,33.109-73.956,73.956-73.956     c29.696,0,55.239,17.545,67.004,42.815C333.346-222.97,298.325-253.815,256-253.815 M364.089-20.889H102.4v-295.822h261.689     c25.134,0,45.511,20.378,45.511,45.511v204.8C409.6-41.266,389.222-20.889,364.089-20.889"/>
			<path style="fill:#EEEEEE;" d="M45.511-20.889C20.378-20.889,0-41.266,0-66.4v-204.8c0-25.134,20.378-45.511,45.511-45.511H102.4     v295.822H45.511z"/>
			<g>
				<path style="fill:#FFFFFF;" d="M336.464-98.03l-24.69-10.513l-17.613,20.241l2.355-26.726l-24.69-10.502l26.146-6.007      l2.367-26.738l13.801,23.006l26.146-6.019l-17.613,20.241L336.464-98.03z"/>
				<path style="fill:#FFFFFF;" d="M273.067-225.348c-40.846,0-73.956,33.109-73.956,73.956c0,29.707,17.556,55.25,42.815,67.015      c-40.414-6.724-71.259-41.756-71.259-84.082c0-47.127,38.207-85.333,85.333-85.333c42.325,0,77.358,30.845,84.082,71.259      C328.317-207.792,302.774-225.348,273.067-225.348"/>
			</g>
		</g>
	</g>
</g>
<g>
</g>
<g>
</g>
<g>
</g>
<g>
</g>
<g>
</g>
<g>
</g>
<g>
</g>
<g>
</g>
<g>
</g>
<g>
</g>
<g>
</g>
<g>
</g>
<g>
</g>
<g>
</g>
<g>
</g>
</svg>
