<?xml version="1.0" encoding="iso-8859-1"?>
<!-- Generator: Adobe Illustrator 19.0.0, SVG Export Plug-In . SVG Version: 6.00 Build 0)  -->
<svg xmlns="http://www.w3.org/2000/svg" xmlns:xlink="http://www.w3.org/1999/xlink" version="1.1" id="Capa_1" x="0px" y="0px" viewBox="0 0 512 512" style="enable-background:new 0 0 512 512;" xml:space="preserve">
<g transform="matrix(1.25 0 0 -1.25 0 45)">
	<g>
		<g>
			<path style="fill:#CE1126;" d="M409.6-271.2c0-25.134-20.378-45.511-45.511-45.511H45.511C20.378-316.711,0-296.334,0-271.2     v204.8c0,25.134,20.378,45.511,45.511,45.511h318.578c25.134,0,45.511-20.378,45.511-45.511V-271.2z"/>
			<path style="fill:#0038A8;" d="M364.089-20.889H45.511C20.378-20.889,0-41.266,0-66.4v-102.4h409.6v102.4     C409.6-41.266,389.222-20.889,364.089-20.889"/>
			<path style="fill:#EEEEEE;" d="M14.939-304.764l201.591,135.179L15.132-32.79C5.905-41.119,0-53.043,0-66.457v-204.8     C0-284.58,5.825-296.447,14.939-304.764"/>
			<g>
				<path style="fill:#FCD116;" d="M182.841-151.961l0.489-13.119l12.686-3.345l-12.334-4.506l0.751-13.107l-8.101,10.331      l-12.231-4.745l7.316,10.889l-8.306,10.16l12.629-3.595L182.841-151.961z"/>
				<path style="fill:#FCD116;" d="M18.239-54.795l9.853-8.681l11.15,6.906l-5.211-12.049l10.012-8.476l-13.062,1.229L26.01-87.995      l-2.856,12.8l-13.096,0.967l11.298,6.679L18.239-54.795z"/>
				<path style="fill:#FCD116;" d="M23.142-250.663l6.531-11.378l12.789,2.935l-8.806-9.728l6.758-11.253l-11.981,5.382l-8.602-9.91      l1.399,13.05l-12.072,5.12l12.834,2.719L23.142-250.663z"/>
				<path style="fill:#FCD116;" d="M113.778-168.8c0-18.853-15.28-34.145-34.133-34.145S45.511-187.653,45.511-168.8      s15.28,34.133,34.133,34.133S113.778-149.947,113.778-168.8"/>
				<path style="fill:#FCD116;" d="M86.414-107.326l-1.798-30.128l-2.765,0.41l0.967,34.975l-3.174,2.071l-3.186-2.071l0.967-34.975      l-2.765-0.41l-1.786,30.128l-4.016-2.492l3.743-30.674h7.043h7.043l3.743,30.674L86.414-107.326z"/>
				<path style="fill:#FCD116;" d="M72.875-230.274l1.798,30.128l2.765-0.41l-0.978-34.975l3.186-2.071l3.186,2.071l-0.967,34.975      l2.765,0.41l1.786-30.128l4.016,2.492l-3.743,30.686h-7.043h-7.043l-3.743-30.686L72.875-230.274z"/>
				<path style="fill:#FCD116;" d="M31.38-207.473l22.574,20.025l1.673-2.23l-25.418-24.053l0.785-3.721l3.709-0.774l24.041,25.418      l2.253-1.661L40.96-217.065l4.597-1.07l19.058,24.337l-4.983,4.995l-4.995,4.972l-24.337-19.058L31.38-207.473z"/>
				<path style="fill:#FCD116;" d="M127.909-130.116l-22.574-20.036l-1.673,2.241l25.418,24.041l-0.785,3.721l-3.709,0.785      l-24.041-25.418l-2.253,1.661l20.036,22.585l-4.597,1.07l-19.058-24.337l4.983-4.983l4.995-4.983l24.337,19.058L127.909-130.116      z"/>
				<path style="fill:#FCD116;" d="M18.17-162.03l30.14-1.798l-0.421-2.765l-34.975,0.978l-2.071-3.186l2.071-3.174l34.975,0.956      l0.421-2.765l-30.14-1.786l2.492-4.016l30.686,3.743v7.043v7.043l-30.686,3.743L18.17-162.03z"/>
				<path style="fill:#FCD116;" d="M141.119-175.57l-30.14,1.798l0.421,2.765l34.975-0.967l2.071,3.174l-2.071,3.186l-34.975-0.967      l-0.421,2.765l30.14,1.786l-2.492,4.016l-30.686-3.732v-7.054v-7.043l30.686-3.743L141.119-175.57z"/>
				<path style="fill:#FCD116;" d="M40.96-120.558l20.036-22.574l-2.253-1.661l-24.03,25.407l-3.721-0.774l-0.774-3.721      l25.407-24.041l-1.661-2.253L31.38-130.138l-1.081-4.597l24.348-19.058l4.983,4.983l4.983,4.995l-19.058,24.337L40.96-120.558z"/>
				<path style="fill:#FCD116;" d="M118.329-217.065L98.293-194.48l2.253,1.673l24.03-25.418l3.721,0.774l0.774,3.721      l-25.407,24.041l1.661,2.241l22.585-20.025l1.07,4.585l-24.337,19.058l-4.983-4.983l-4.983-4.983l19.058-24.337L118.329-217.065      z"/>
			</g>
		</g>
	</g>
</g>
<g>
</g>
<g>
</g>
<g>
</g>
<g>
</g>
<g>
</g>
<g>
</g>
<g>
</g>
<g>
</g>
<g>
</g>
<g>
</g>
<g>
</g>
<g>
</g>
<g>
</g>
<g>
</g>
<g>
</g>
</svg>
