<?xml version="1.0" encoding="iso-8859-1"?>
<!-- Generator: Adobe Illustrator 19.0.0, SVG Export Plug-In . SVG Version: 6.00 Build 0)  -->
<svg xmlns="http://www.w3.org/2000/svg" xmlns:xlink="http://www.w3.org/1999/xlink" version="1.1" id="Capa_1" x="0px" y="0px" viewBox="0 0 512 512" style="enable-background:new 0 0 512 512;" xml:space="preserve">
<g transform="matrix(1.25 0 0 -1.25 0 45)">
	<g>
		<g>
			<path style="fill:#141414;" d="M409.6-271.2c0-25.134-20.378-45.511-45.511-45.511H45.511C20.378-316.711,0-296.334,0-271.2     v204.8c0,25.134,20.378,45.511,45.511,45.511h318.578c25.134,0,45.511-20.378,45.511-45.511V-271.2z"/>
			<path style="fill:#CE1126;" d="M393.876-305.356c9.557,8.34,15.724,20.48,15.724,34.156v204.8     c0,25.134-20.378,45.511-45.511,45.511H45.511c-11.457,0-21.788-4.369-29.787-11.355L393.876-305.356z"/>
			<g>
				<path style="fill:#FFFFFF;" d="M87.848-118.01l4.358-14.973h15.064l-11.89-9.148l4.358-14.541l-11.89,9.148l-11.89-8.738      l4.358,14.131l-11.89,9.148h14.666L87.848-118.01z"/>
				<path style="fill:#FFFFFF;" d="M42.177-176.412l4.358-14.962h15.064l-11.89-9.148l4.358-14.552l-11.89,9.148l-11.89-8.738      l4.358,14.143l-11.89,9.148h14.666L42.177-176.412z"/>
				<path style="fill:#FFFFFF;" d="M87.848-255.294l4.358-14.962h15.064l-11.89-9.148l4.358-14.552l-11.89,9.136l-11.89-8.715      l4.358,14.131l-11.89,9.148h14.666L87.848-255.294z"/>
				<path style="fill:#FFFFFF;" d="M108.237-223.504l2.173-7.475h7.543l-5.951-4.597l2.173-7.259l-5.939,4.574l-5.939-4.369      l2.173,7.054l-5.951,4.597h7.339L108.237-223.504z"/>
				<path style="fill:#FFFFFF;" d="M133.302-172.259l4.358-14.962h15.064l-11.89-9.148l4.358-14.552l-11.89,9.136l-11.89-8.715      l4.358,14.131l-11.878,9.148h14.655L133.302-172.259z"/>
			</g>
			<path style="fill:#FCD116;" d="M319.374-138.137c4.972-4.972,38.582-27.386,38.582-54.773c0-27.398-24.496-26.556-31.539-25.725     c7.885-6.645,37.763-5.404,37.763,25.725c0,27.386-38.582,54.773-43.565,57.264C315.642-133.165,314.379-133.165,319.374-138.137      M258.571-108.885c-3.504-4.551-11.822,4.562-21.777,4.767c-9.956,0.205-17.021-9.546-19.911-12.868     c-2.913-3.322-12.254-20.742-12.038-22.608c0.216-1.866,5.814,5.188,7.885,6.428c0.205-2.48-2.287-5.393-1.673-6.212     c0.626-0.842,7.27,4.972,9.557,5.177c0.626-1.661-1.24-3.311-0.614-5.803c0.819-0.842,4.551,4.142,7.043,5.177     c0.421-1.866-2.287-5.393-0.831-7.669c1.024-0.216,7.27,7.043,9.341,7.885c2.059,0.831-1.047-6.849,0-7.475     c1.866,1.24,7.669,7.885,9.535,8.715c1.866,0.831-0.205-8.499,0.614-8.499c2.298,1.65,8.09,9.535,8.715,10.775     c0.626,1.252-0.626-12.015,5.825-19.081c6.44-7.054,16.179-15.144,17.215-15.144c1.252,2.287-0.421,7.054,0.626,6.849     c2.913-3.118,8.294-7.68,9.535-7.68s-0.819,4.983,0.842,4.983c3.311-3.118,12.846-15.36,31.539-20.958     c-1.252,3.527-3.959,6.645-4.164,8.294c1.252-0.193,5.609-2.276,6.428-2.071c0.842,0.205-9.114,12.447-8.511,14.108     c2.287,0.205,3.334-1.24,4.153-0.205c-1.024,1.661-9.751,11.412-9.751,13.687c0,2.287,2.708-0.41,3.527,0     c0.842,0.421-3.311,9.125-2.492,10.172c0.831,1.024,9.956-5.598,12.254-5.598c2.287,0,0.614,8.09,1.661,8.499     c1.024,0.41,8.715-4.358,10.354-4.358c1.673,0,1.468,3.527,2.094,3.118c0.626-0.421,18.671-18.466,12.447-39.629     c-6.224-15.144-18.671-23.233-36.932-16.6c1.035-1.65,10.798-9.739,21.367-6.838c10.581,2.89,23.45,11.196,22.005,31.937     c-1.468,20.753-8.306,23.654-9.33,26.761c-1.07,3.118,1.638-0.831,3.903-1.65c2.321-0.831-0.398,4.358-1.013,6.633     c-0.626,2.276,6.838-4.767,8.704-5.382c1.866-0.626-4.358,17.01-6.224,18.25c-1.866,1.24,1.866-0.421,3.117-0.831     c1.24-0.41-11.423,19.297-14.108,19.297c-2.697,0,2.287,1.024,3.732,1.024s-14.518,12.868-17.226,12.868     c-2.685,0,5.825,3.322,6.645,3.527c1.445-0.205-18.466,10.581-36.306-0.205c-1.024,0.831,8.397,7.361,8.704,10.16     c0.114,0.728-3.106,2.287-3.311,3.118c-0.193,0.831,4.983,3.322,5.177,5.188c-1.24,1.661-3.504,1.035-4.756,1.445     c-0.307,1.559,4.358,5.393,3.937,7.054c-0.307,0.933-3.732,1.252-4.551,0.626c-0.853-0.626,2.173,4.358,1.638,5.803     c-0.398,0.626-2.059,0.205-3.732-0.205c-1.024,0.205,5.404,9.136,4.153,10.377c-1.24,1.24-18.66-9.125-25.088-20.742     c-6.44-11.628-1.468-20.958-2.287-24.906c-0.819-3.925-1.866-7.885-4.551-7.885c-2.719,0-8.943,4.153-11.002,6.235     c-2.094,2.071-2.492,3.516-5.404,4.346c-2.913,0.842-9.557-1.65-12.038-1.866c-2.492-0.205-12.231,1.866-12.846,1.252     c-0.626-0.626,9.535-4.358,11.822-5.609c2.264-1.24,2.492-2.89,4.13-3.937C248.001-97.894,263.578-102.456,258.571-108.885"/>
		</g>
	</g>
</g>
<g>
</g>
<g>
</g>
<g>
</g>
<g>
</g>
<g>
</g>
<g>
</g>
<g>
</g>
<g>
</g>
<g>
</g>
<g>
</g>
<g>
</g>
<g>
</g>
<g>
</g>
<g>
</g>
<g>
</g>
</svg>
