<?xml version="1.0" encoding="iso-8859-1"?>
<!-- Generator: Adobe Illustrator 19.0.0, SVG Export Plug-In . SVG Version: 6.00 Build 0)  -->
<svg xmlns="http://www.w3.org/2000/svg" xmlns:xlink="http://www.w3.org/1999/xlink" version="1.1" id="Capa_1" x="0px" y="0px" viewBox="0 0 512 512" style="enable-background:new 0 0 512 512;" xml:space="preserve">
<g transform="matrix(1.25 0 0 -1.25 0 45)">
	<g>
		<g>
			<path style="fill:#CE1126;" d="M409.6-271.2c0-25.134-20.378-45.511-45.511-45.511H45.511C20.378-316.711,0-296.334,0-271.2     v204.8c0,25.134,20.378,45.511,45.511,45.511h318.578c25.134,0,45.511-20.378,45.511-45.511V-271.2z"/>
		</g>
	</g>
	<g>
		<g>
			<path style="fill:#EEEEEE;" d="M409.6-237.067H0v136.533h409.6V-237.067z"/>
		</g>
	</g>
	<g>
		<g>
			<g>
				<path style="fill:#FF9D11;" d="M214.05-126.133c0,0,6.633-0.239,5.211-0.478c-0.489-0.08-0.614-4.699-0.569-10.661      l10.354,19.752c-3.766,1.786-7.68,3.243-11.844,4.164L214.05-126.133z"/>
				<path style="fill:#FF9D11;" d="M240.071-136.635v-13.79l15.144,7.464c-2.276,4.449-5.063,8.556-8.385,12.22L240.071-136.635z"/>
				<path style="fill:#FF9D11;" d="M229.035-146.249l-9.956-8.681c0.08-2.196,0.148-4.153,0.205-5.746l9.751,4.813V-146.249z"/>
				<path style="fill:#FF9D11;" d="M229.035-136.988c0,2.492,4.824,3.573,8.09,2.867l6.656,6.576      c-3.311,3.129-7.043,5.734-11.025,7.999l-13.983-24.189c0.046-2.788,0.125-5.609,0.216-8.272l10.047,9.91V-136.988z"/>
				<path style="fill:#FF9D11;" d="M189.872-139.047l-0.694,24.701c-3.55-1.024-6.918-2.355-10.149-4.005L189.872-139.047z"/>
			</g>
			<g>
				<path style="fill:#083E9D;" d="M170.234-188.893c-1.479,3.982-1.877,7.464-1.877,7.464s-0.899,1.252-3.63,0      c-2.731-1.24-5.621-3.55-9.705-4.437c-1.911-0.421-3.538,0.546-4.779,1.673c0.455-1.627,1.149-3.129,1.741-4.699H170.234z"/>
				<path style="fill:#083E9D;" d="M210.864-188.893c-1.126,2.298-2.514,4.085-6.064,4.085c-3.436,0-4.972-2.002-6.098-4.085      H210.864z"/>
				<path style="fill:#083E9D;" d="M257.627-188.893c0.671,1.729,1.411,3.436,1.9,5.245c-3.766-3.834-9.557-2.367-11.344-0.091      c-1.957,2.492-6.406,2.867-6.406,2.867s-0.523-3.573-1.707-7.839c-0.011-0.057-0.057-0.125-0.08-0.182H257.627z"/>
				<path style="fill:#083E9D;" d="M253.577-197.426c0.899,1.536,1.832,3.049,2.594,4.676c-1.104,0.558-2.446,1.07-4.085,1.104      c-3.914,0.091-4.289-2.708-9.774-2.753c-2.606-0.023-3.982,0.626-4.733,1.468c-1.32-1.604-3.106-3.174-5.063-4.494H253.577z"/>
				<path style="fill:#083E9D;" d="M192.432-197.426h23.518c-0.489,0.478-0.944,0.979-1.343,1.525l0.046-0.137      c0,0-4.87,4.654-9.853,4.654c-6.406,0-10.809-4.654-10.809-4.654l0.148,0.273C193.627-196.323,193.058-196.892,192.432-197.426"/>
				<path style="fill:#083E9D;" d="M176.06-197.426c-1.604,1.331-2.947,2.924-3.959,4.665c-1.684-1.149-3.584-2.139-5.518-2.003      c-4.801,0.364-7.851,5.473-10.672,4.096c-0.956-0.478-1.877-0.944-2.753-1.354c0.842-1.889,1.866-3.652,2.89-5.404H176.06z"/>
				<path style="fill:#083E9D;" d="M163.612-207.553h82.398c1.354,1.468,2.662,2.981,3.857,4.574      c-1.911,1.638-4.801,3.607-8.09,3.607c-5.507,0-7.862-4.983-12.732-4.983s-5.404,4.449-11.446,4.449s-8.704-5.154-13.426-5.154      c-4.71,0-8.078,5.154-12.527,5.154c-4.449,0-7.828-5.154-12.618-5.154c-4.801,0-7.475,5.689-11.742,5.689      c-2.685,0-5.848-1.718-7.953-3.015C160.666-204.196,162.099-205.903,163.612-207.553"/>
				<path style="fill:#083E9D;" d="M235.93-215.915c1.308,0.887,2.685,1.673,3.925,2.662c-2.856,1.365-7.589,3.379-10.809,3.379      c-4.87,0-6.121-2.662-11.446-2.662c-5.336,0-7.691,3.015-13.005,3.015c-5.313,0-7.111-3.903-12.163-3.903      c-5.063,0-7.191,4.267-13.414,4.267c-3.652,0-7.942-1.525-10.889-2.788c1.684-1.479,3.584-2.708,5.45-3.971H235.93z"/>
				<path style="fill:#083E9D;" d="M217.771-218.93c-6.042,0-8.886-5.154-12.982-5.154c-4.085,0-7.657,5.336-12.356,5.336      c-2.833,0-6.133-1.57-8.42-2.844c6.417-2.594,13.403-4.096,20.776-4.096c7.418,0,14.393,1.582,20.844,4.198      C223.562-220.205,220.774-218.93,217.771-218.93"/>
			</g>
			<path style="fill:#FF9D11;" d="M168.129-165.102l-19.763,0.796c-0.125-1.502-0.455-2.947-0.455-4.494     c0-2.514,0.421-4.915,0.74-7.35h19.479V-165.102z"/>
			<path style="fill:#EEEEEE;" d="M144.6-161.746l36.261-3.482l-1.832-2.571l-36.09,0.956L144.6-161.746z"/>
			<g>
				<path style="fill:#FF9D11;" d="M168.129-153.747l-15.918,6.531c-1.673-4.039-2.719-8.363-3.413-12.811l19.331-1.388V-153.747z"/>
				<path style="fill:#FF9D11;" d="M179.735-158.514v-3.732l10.798-0.774v0.068L179.735-158.514z"/>
				<path style="fill:#FF9D11;" d="M179.735-156.398l10.763-5.313l-0.137,5.222l-10.627,9.273V-156.398z"/>
				<path style="fill:#FF9D11;" d="M168.129-137.136l-6.167,5.382c-3.152-3.63-5.837-7.623-7.987-11.981l14.154-6.975V-137.136z"/>
				<path style="fill:#FF9D11;" d="M179.735-134.849v-8.385l10.536-10.399l-0.216,7.805l-14.723,25.463      c-3.823-2.332-7.441-4.949-10.593-8.078l5.404-5.336C173.466-132.402,179.735-132.494,179.735-134.849"/>
				<path style="fill:#FF9D11;" d="M261.234-164.226l-21.163-0.853v-11.071h20.878c0.319,2.423,0.74,4.824,0.74,7.35      C261.689-167.23,261.359-165.762,261.234-164.226"/>
			</g>
			<path style="fill:#EEEEEE;" d="M238.933-167.776l26.544,0.956v3.982l-26.544-1.365V-167.776z"/>
			<g>
				<path style="fill:#FF9D11;" d="M240.071-161.382l20.719,1.49c-0.728,4.654-1.855,9.17-3.652,13.392l-17.067-7.009V-161.382z"/>
				<path style="fill:#FF9D11;" d="M229.035-158.037l-9.705-3.982c0.011-0.296,0.023-0.592,0.034-0.842l9.671,0.694V-158.037z"/>
			</g>
			<g>
				<path style="fill:#EEEEEE;" d="M151.939-139.047l40.494-21.39v-2.423l-40.494,16.612V-139.047z"/>
				<path style="fill:#EEEEEE;" d="M217.543-162.861l41.95,20.139l-2.332,5.45l-39.617-20.764V-162.861z"/>
				<path style="fill:#EEEEEE;" d="M166.161-125.314l24.542-26.692v-3.516l-27.625,26.544L166.161-125.314z"/>
				<path style="fill:#EEEEEE;" d="M217.543-153.941l30.071,25.668l-3.857,4.506l-26.214-27.193V-153.941z"/>
				<path style="fill:#EEEEEE;" d="M181.589-115.461l10.524-23.586l-2.253-2.185l-11.56,24.11L181.589-115.461z"/>
				<path style="fill:#EEEEEE;" d="M227.556-114.357l-9.978-21.197v-5.678l13.71,24.576L227.556-114.357z"/>
				<path style="fill:#EEEEEE;" d="M265.478-178.403H146.25v3.026h119.228V-178.403z"/>
			</g>
			<g>
				<path style="fill:#CE1126;" d="M171.236-138.046v-40.71c0-5.507,3.026-18.671,11.73-18.671c11.913,0,15.77,14.757,15.77,14.757      s-8.59-7.555-14.689-5.154c-6.087,2.401-6.508,6.042-6.508,14.04v34.736C177.539-135.918,171.236-135.201,171.236-138.046"/>
				<path style="fill:#CE1126;" d="M237.818-138.046v-40.71c0-5.507-3.026-18.671-11.73-18.671c-11.913,0-15.77,14.757-15.77,14.757      s8.59-7.555,14.677-5.154c6.098,2.401,6.519,6.042,6.519,14.04v34.736C231.515-135.918,237.818-135.201,237.818-138.046"/>
				<path style="fill:#CE1126;" d="M214.05-160.767l-20.446,6.269v32.631c0,9.603,7.361,14.336,20.446,9.774      c-11.378-1.07-14.996-10.65,0-17.772V-160.767z"/>
			</g>
			<g>
				<path style="fill:#630810;" d="M227.556-176.89c0-0.831-0.683-1.513-1.513-1.513h-43.907c-0.831,0-1.513,0.683-1.513,1.513      c0,0.831,0.683,1.513,1.513,1.513h43.907C226.873-175.376,227.556-176.059,227.556-176.89"/>
				<path style="fill:#630810;" d="M193.65-184.877h-10.16l4.358,5.769h10.16L193.65-184.877z"/>
				<path style="fill:#630810;" d="M214.687-184.877h10.16l-4.358,5.769h-10.172L214.687-184.877z"/>
			</g>
			<g transform="translate(16.344 17.848)">
				<path id="SVGCleanerId_0" style="fill:#630810;" d="M185.958-170.529c0-0.421-0.341-0.751-0.751-0.751      c-0.421,0-0.762,0.33-0.762,0.751v5.461c0,0.421,0.341,0.762,0.762,0.762c0.41,0,0.751-0.341,0.751-0.762V-170.529z"/>
			</g>
			<g>
				<path style="fill:#630810;" d="M182.955-173.829c-0.489-0.523-1.445-0.671-2.15-0.33c-0.694,0.353-0.887,1.058-0.41,1.57      l6.485,7.054c0.478,0.512,1.445,0.66,2.139,0.319c0.717-0.341,0.887-1.058,0.41-1.57L182.955-173.829z"/>
				<path style="fill:#630810;" d="M186.926-173.829c0.489-0.523,1.445-0.671,2.15-0.33c0.694,0.353,0.887,1.058,0.41,1.57      L183-165.535c-0.478,0.512-1.445,0.66-2.139,0.319c-0.717-0.341-0.887-1.058-0.41-1.57L186.926-173.829z"/>
			</g>
			<g transform="translate(17.231 17.848)">
				<path id="SVGCleanerId_0_1_" style="fill:#630810;" d="M196.051-170.529c0-0.421-0.341-0.751-0.751-0.751      c-0.421,0-0.762,0.33-0.762,0.751v5.461c0,0.421,0.341,0.762,0.762,0.762c0.41,0,0.751-0.341,0.751-0.762V-170.529z"/>
			</g>
			<g transform="translate(16.971 17.558)">
				<path id="SVGCleanerId_1" style="fill:#630810;" d="M193.092-173.829c-0.489-0.523-1.445-0.671-2.15-0.33      c-0.694,0.353-0.887,1.058-0.41,1.57l6.485,7.054c0.478,0.512,1.445,0.66,2.139,0.319c0.717-0.341,0.887-1.058,0.41-1.57      L193.092-173.829z"/>
			</g>
			<path style="fill:#630810;" d="M197.018-173.829c0.489-0.523,1.445-0.671,2.139-0.33c0.705,0.353,0.899,1.058,0.421,1.57     l-6.485,7.054c-0.478,0.512-1.445,0.66-2.139,0.319c-0.717-0.341-0.887-1.058-0.41-1.57L197.018-173.829z"/>
			<g transform="translate(18.07 17.848)">
				<path id="SVGCleanerId_0_2_" style="fill:#630810;" d="M205.596-170.529c0-0.421-0.341-0.751-0.751-0.751      c-0.421,0-0.762,0.33-0.762,0.751v5.461c0,0.421,0.341,0.762,0.762,0.762c0.41,0,0.751-0.341,0.751-0.762V-170.529z"/>
			</g>
			<g transform="translate(17.81 17.558)">
				<path id="SVGCleanerId_1_1_" style="fill:#630810;" d="M202.638-173.829c-0.489-0.523-1.445-0.671-2.15-0.33      c-0.694,0.353-0.887,1.058-0.41,1.57l6.485,7.054c0.478,0.512,1.445,0.66,2.139,0.319c0.717-0.341,0.887-1.058,0.41-1.57      L202.638-173.829z"/>
			</g>
			<g transform="translate(18.16 17.558)">
				<path id="SVGCleanerId_2" style="fill:#630810;" d="M206.62-173.829c0.489-0.523,1.445-0.671,2.139-0.33      c0.705,0.353,0.899,1.058,0.421,1.57l-6.485,7.054c-0.478,0.512-1.445,0.66-2.139,0.319c-0.717-0.341-0.887-1.058-0.41-1.57      L206.62-173.829z"/>
			</g>
			<g transform="translate(18.9 17.848)">
				<path id="SVGCleanerId_0_3_" style="fill:#630810;" d="M215.04-170.529c0-0.421-0.341-0.751-0.751-0.751      c-0.421,0-0.762,0.33-0.762,0.751v5.461c0,0.421,0.341,0.762,0.762,0.762c0.41,0,0.751-0.341,0.751-0.762V-170.529z"/>
			</g>
			<path style="fill:#630810;" d="M212.082-173.829c-0.489-0.523-1.445-0.671-2.139-0.33c-0.705,0.353-0.899,1.058-0.421,1.57     l6.485,7.054c0.478,0.512,1.445,0.66,2.139,0.319c0.717-0.341,0.887-1.058,0.41-1.57L212.082-173.829z"/>
			<g transform="translate(18.985 17.558)">
				<path id="SVGCleanerId_2_1_" style="fill:#630810;" d="M216.007-173.829c0.489-0.523,1.445-0.671,2.139-0.33      c0.705,0.353,0.899,1.058,0.421,1.57l-6.485,7.054c-0.478,0.512-1.445,0.66-2.139,0.319c-0.717-0.341-0.887-1.058-0.41-1.57      L216.007-173.829z"/>
			</g>
			<path style="fill:#630810;" d="M224.381-170.529c0-0.421-0.33-0.751-0.751-0.751c-0.432,0-0.762,0.33-0.762,0.751v5.461     c0,0.421,0.33,0.762,0.762,0.762c0.421,0,0.751-0.341,0.751-0.762V-170.529z"/>
			<g transform="translate(19.46 17.558)">
				<path id="SVGCleanerId_1_2_" style="fill:#630810;" d="M221.412-173.829c-0.489-0.523-1.445-0.671-2.15-0.33      c-0.694,0.353-0.887,1.058-0.41,1.57l6.485,7.054c0.478,0.512,1.445,0.66,2.139,0.319c0.717-0.341,0.887-1.058,0.41-1.57      L221.412-173.829z"/>
			</g>
			<g transform="translate(19.806 17.558)">
				<path id="SVGCleanerId_2_2_" style="fill:#630810;" d="M225.348-173.829c0.489-0.523,1.445-0.671,2.139-0.33      c0.705,0.353,0.899,1.058,0.421,1.57l-6.485,7.054c-0.478,0.512-1.445,0.66-2.139,0.319c-0.717-0.341-0.887-1.058-0.41-1.57      L225.348-173.829z"/>
			</g>
		</g>
	</g>
</g>
<g>
</g>
<g>
</g>
<g>
</g>
<g>
</g>
<g>
</g>
<g>
</g>
<g>
</g>
<g>
</g>
<g>
</g>
<g>
</g>
<g>
</g>
<g>
</g>
<g>
</g>
<g>
</g>
<g>
</g>
</svg>
