<?xml version="1.0" encoding="iso-8859-1"?>
<!-- Generator: Adobe Illustrator 19.0.0, SVG Export Plug-In . SVG Version: 6.00 Build 0)  -->
<svg xmlns="http://www.w3.org/2000/svg" xmlns:xlink="http://www.w3.org/1999/xlink" version="1.1" id="Capa_1" x="0px" y="0px" viewBox="0 0 512 512" style="enable-background:new 0 0 512 512;" xml:space="preserve">
<g transform="matrix(1.25 0 0 -1.25 0 45)">
	<g>
		<g>
			<path style="fill:#008000;" d="M0-271.2c0-25.134,20.378-45.511,45.511-45.511h318.578c25.134,0,45.511,20.378,45.511,45.511     v45.511H0V-271.2z"/>
			<path style="fill:#EEEEEE;" d="M364.089-20.889H45.511C20.378-20.889,0-41.266,0-66.4v-45.511h409.6V-66.4     C409.6-41.266,389.222-20.889,364.089-20.889"/>
			<path style="fill:#DB161B;" d="M409.6-111.911H102.4v91.022H45.511C20.378-20.889,0-41.266,0-66.4v-45.511v-113.778V-271.2     c0-25.134,20.378-45.511,45.511-45.511H102.4v91.022h307.2V-111.911z"/>
			<g>
				<path style="fill:#EEEEEE;" d="M41.244-60.176c3.55-6.451,3.561-8.977,2.526-9.535c-1.024-0.58-2.708,1.024-6.258,7.464      c-3.561,6.451-7.646,15.314-6.622,15.872C31.926-45.795,37.695-53.737,41.244-60.176"/>
				<path style="fill:#EEEEEE;" d="M62.76-56.217c-3.55-6.451-5.609-12.14-4.574-12.709c1.024-0.569,4.756,4.198,8.306,10.638      c3.561,6.451,5.609,12.14,4.574,12.709C70.042-45.01,66.31-49.777,62.76-56.217"/>
				<path style="fill:#EEEEEE;" d="M56.354-66.582l-3.379,16.179l-0.319,0.057c1.172,0.558,2.094,1.445,2.094,2.697      c0,1.82-1.673,3.288-3.732,3.288c-2.059,0-3.732-1.468-3.732-3.288c0-1.229,0.853-2.196,1.991-2.765l-3.231-16.35L56.354-66.582      z"/>
				<path style="fill:#EEEEEE;" d="M76.265-97.916c-3.083,2.571-15.349,13.187-21.174,19.524c0.535,1.82,0.842,3.777,0.717,5.86      h0.193v-0.08h10.126v-1.957h12.447v6.042H66.128v-1.957H56.001v-0.091h-0.353v3.061h-9.25v-3.061h-3.732v-0.171h-7.293v2.48      h-11.73v-6.576h11.73v2.492h7.293v-0.182h3.14l-0.41-4.267c0,0-11.822-0.523-14.996-1.024c-7.828-1.252-5.336-3.561,1.058-5.689      c2.958-0.99,5.894-1.365,8.67-1.513c-4.528-4.824-13.744-11.981-15.952-13.244c-2.492-1.422-2.492-3.197,2.31-2.139      c4.654,1.035,15.417,10.547,19.16,15.337c1.138,0.046,2.241,0.091,3.243,0.137c1.707,0.057,3.049,1.126,4.198,2.549      c4.858-5.757,14.37-14.268,18.204-16.6c4.085-2.48,5.996-2.435,7.441-2.196C80.179-100.943,79.462-100.579,76.265-97.916"/>
			</g>
		</g>
	</g>
</g>
<g>
</g>
<g>
</g>
<g>
</g>
<g>
</g>
<g>
</g>
<g>
</g>
<g>
</g>
<g>
</g>
<g>
</g>
<g>
</g>
<g>
</g>
<g>
</g>
<g>
</g>
<g>
</g>
<g>
</g>
</svg>
