<?xml version="1.0" encoding="iso-8859-1"?>
<!-- Generator: Adobe Illustrator 19.0.0, SVG Export Plug-In . SVG Version: 6.00 Build 0)  -->
<svg xmlns="http://www.w3.org/2000/svg" xmlns:xlink="http://www.w3.org/1999/xlink" version="1.1" id="Capa_1" x="0px" y="0px" viewBox="0 0 511.999 511.999" style="enable-background:new 0 0 511.999 511.999;" xml:space="preserve">
<g transform="matrix(1.25 0 0 -1.25 0 45)">
	<g>
		<path style="fill:#FFE150;" d="M364.089-20.89H45.515c-25.133,0-45.511-20.378-45.511-45.511v-204.798    c0-25.133,20.378-45.511,45.511-45.511h318.574c25.133,0,45.511,20.378,45.511,45.511v204.798    C409.599-41.267,389.223-20.89,364.089-20.89z"/>
		<path style="fill:#00247D;" d="M216.179-20.89H45.515c-25.133,0-45.511-20.378-45.511-45.511V-168.8h216.175V-20.89z"/>
		<path style="fill:#EEEEEE;" d="M216.179-168.8v23.085l-80.781,56.559H75.905L189.647-168.8H216.179z"/>
		<path style="fill:#CF1B2B;" d="M216.179-152.66l-90.691,63.499h-19.831l110.522-77.38V-152.66z"/>
		<path style="fill:#EEEEEE;" d="M92.159-89.156L0-154.759v-14.04h37.91l113.754,79.644L92.159-89.156L92.159-89.156z"/>
		<path style="fill:#CF1B2B;" d="M121.904-89.156L8.355-168.8h3.026h16.623l113.742,79.644H121.904z"/>
		<path style="fill:#EEEEEE;" d="M189.658-20.89L75.916-100.534h59.493l80.77,56.547v23.097H189.658z"/>
		<path style="fill:#CF1B2B;" d="M199.564-20.89L85.822-100.534h19.842l110.511,77.391v2.253H199.564z"/>
	</g>
	<g>
		<path style="fill:#EEEEEE;" d="M7.545-41.318l106.235-74.36v15.144h37.876L38.651-21.406C25.67-23.37,14.494-30.822,7.545-41.318z    "/>
		<path style="fill:#CF1B2B;" d="M11.028-36.724l102.753-72.024v8.214h8.123L19.671-28.947    C16.467-31.163,13.564-33.78,11.028-36.724z"/>
	</g>
	<g>
		<path style="fill:#EEEEEE;" d="M216.179-66.401h-79.644v45.511H79.648v-45.511H0.004v-56.888h79.644V-168.8h56.888v45.511h79.644    V-66.401z"/>
		<g>
			<path style="fill:#CF1B2B;" d="M125.158-168.8H91.025V-20.89h34.133V-168.8z"/>
			<path style="fill:#CF1B2B;" d="M216.179-111.911H0.004v34.133h216.175V-111.911z"/>
		</g>
		<path style="fill:#004A77;" d="M136.536-94.845c0-15.713-12.731-28.444-28.444-28.444s-28.444,12.731-28.444,28.444    s12.731,28.444,28.444,28.444S136.536-79.132,136.536-94.845"/>
		<g>
			<path style="fill:#FFE150;" d="M108.092-66.015l6.815-18.216l20.752-0.421L119.116-98.59l6.018-19.866L108.091-106.6     l-17.044-11.855l6.018,19.866L80.523-84.652l20.752,0.421L108.092-66.015z"/>
			<path style="fill:#FFE150;" d="M43.514-83.301l2.799-8.044l8.511-0.182l-6.792-5.143l2.469-8.147l-6.986,4.87l-6.986-4.87     l2.469,8.147l-6.792,5.143l8.511,0.182L43.514-83.301z"/>
			<path style="fill:#FFE150;" d="M172.67-83.301l2.799-8.044l8.511-0.182l-6.781-5.143l2.458-8.147l-6.986,4.87l-6.986-4.87     l2.469,8.147l-6.792,5.143l8.511,0.182L172.67-83.301z"/>
			<path style="fill:#FFE150;" d="M108.092-30.233l2.799-8.044l8.511-0.182l-6.781-5.143l2.458-8.147l-6.986,4.87l-6.986-4.87     l2.469,8.147l-6.792,5.143l8.511,0.182L108.092-30.233z"/>
			<path style="fill:#FFE150;" d="M108.092-137.945l2.799-8.044l8.511-0.171l-6.781-5.143l2.458-8.158l-6.986,4.87l-6.986-4.87     l2.469,8.158l-6.792,5.143l8.511,0.171L108.092-137.945z"/>
		</g>
	</g>
</g>
<g>
</g>
<g>
</g>
<g>
</g>
<g>
</g>
<g>
</g>
<g>
</g>
<g>
</g>
<g>
</g>
<g>
</g>
<g>
</g>
<g>
</g>
<g>
</g>
<g>
</g>
<g>
</g>
<g>
</g>
</svg>
