<?xml version="1.0" encoding="iso-8859-1"?>
<!-- Generator: Adobe Illustrator 19.0.0, SVG Export Plug-In . SVG Version: 6.00 Build 0)  -->
<svg xmlns="http://www.w3.org/2000/svg" xmlns:xlink="http://www.w3.org/1999/xlink" version="1.1" id="Capa_1" x="0px" y="0px" viewBox="0 0 512 512" style="enable-background:new 0 0 512 512;" xml:space="preserve">
<g transform="matrix(1.25 0 0 -1.25 0 45)">
	<g>
		<g>
			<path style="fill:#002B7F;" d="M409.6-271.2c0-25.134-20.378-45.511-45.511-45.511H45.511C20.378-316.711,0-296.334,0-271.2     v204.8c0,25.134,20.378,45.511,45.511,45.511h318.578c25.134,0,45.511-20.378,45.511-45.511V-271.2z"/>
			<path style="fill:#FFC61E;" d="M409.6-180.178H0v22.756h409.6V-180.178z"/>
			<path style="fill:#FFFFFF;" d="M113.539-185.628l5.598-22.369l16.031,16.566l-6.326-22.164l22.175,6.337L134.44-223.3     l22.369-5.598l-22.369-5.598l16.577-16.031l-22.175,6.326l6.326-22.175l-16.031,16.577l-5.598-22.357l-5.598,22.357     L91.91-266.376l6.326,22.175l-22.164-6.326l16.566,16.031l-22.369,5.598l22.369,5.598l-16.566,16.043l22.164-6.337L91.91-191.43     l16.031-16.566L113.539-185.628z"/>
		</g>
	</g>
</g>
<g>
</g>
<g>
</g>
<g>
</g>
<g>
</g>
<g>
</g>
<g>
</g>
<g>
</g>
<g>
</g>
<g>
</g>
<g>
</g>
<g>
</g>
<g>
</g>
<g>
</g>
<g>
</g>
<g>
</g>
</svg>
