<?xml version="1.0" encoding="iso-8859-1"?>
<!-- Generator: Adobe Illustrator 19.0.0, SVG Export Plug-In . SVG Version: 6.00 Build 0)  -->
<svg xmlns="http://www.w3.org/2000/svg" xmlns:xlink="http://www.w3.org/1999/xlink" version="1.1" id="Capa_1" x="0px" y="0px" viewBox="0 0 512 512" style="enable-background:new 0 0 512 512;" xml:space="preserve">
<g transform="matrix(1.25 0 0 -1.25 0 45)">
	<path style="fill:#EEEEEE;" d="M364.089-20.889H45.511C20.378-20.889,0-41.267,0-66.4v-204.8c0-25.133,20.378-45.511,45.511-45.511   h318.578c25.133,0,45.511,20.378,45.511,45.511v204.8C409.6-41.267,389.222-20.889,364.089-20.889z"/>
	<path style="fill:#003893;" d="M216.178-180.178L15.433-32.261C5.974-40.6,0-52.799,0-66.4v-22.756v-91.022V-271.2   c0-25.133,20.378-45.511,45.511-45.511h170.667L86.471-180.178H216.178z"/>
	<path style="fill:#DD2E44;" d="M51.2-305.333h133.163L60.833-168.8h123.533L17.788-50.432c-4.049-6.234-6.41-13.668-6.41-21.657   v-42.056v-54.659v-96.708C11.378-287.505,29.207-305.333,51.2-305.333z"/>
	<g>
		<polygon style="fill:#FFFFFF;" points="36.409,-246.954 29.741,-256.25 41.119,-255.123 39.993,-266.501 49.288,-259.834     53.999,-270.255 58.709,-259.834 68.005,-266.501 66.867,-255.123 78.245,-256.25 71.578,-246.954 81.999,-242.244     71.578,-237.533 78.245,-228.249 66.867,-229.364 68.005,-217.986 58.709,-224.653 53.999,-214.232 49.288,-224.653     39.993,-217.986 41.119,-229.364 29.741,-228.249 36.409,-237.533 25.987,-242.244   "/>
		<path style="fill:#FFFFFF;" d="M67.741-143.436l-1.991,2.776l6.952,3.151l-6.952,3.141l4.449,6.201l-7.601-0.74l0.762,7.601    l-6.223-4.449l-3.141,6.963l-3.151-6.963l-6.213,4.449l0.762-7.601l-7.601,0.74l4.449-6.201l-6.963-3.141l6.963-3.151    l-1.912-2.651c-7.623,3.231-13.903,9.011-17.806,16.282c1.411-16.259,14.848-29.07,31.46-29.184l0.012-0.023l0.012,0.023    c0.069,0,0.125-0.023,0.193-0.023c16.714,0,30.265,12.869,31.687,29.207C81.917-134.401,75.512-140.227,67.741-143.436z"/>
	</g>
</g>
<g>
</g>
<g>
</g>
<g>
</g>
<g>
</g>
<g>
</g>
<g>
</g>
<g>
</g>
<g>
</g>
<g>
</g>
<g>
</g>
<g>
</g>
<g>
</g>
<g>
</g>
<g>
</g>
<g>
</g>
</svg>
