<?xml version="1.0" encoding="iso-8859-1"?>
<!-- Generator: Adobe Illustrator 19.0.0, SVG Export Plug-In . SVG Version: 6.00 Build 0)  -->
<svg xmlns="http://www.w3.org/2000/svg" xmlns:xlink="http://www.w3.org/1999/xlink" version="1.1" id="Capa_1" x="0px" y="0px" viewBox="0 0 512 512" style="enable-background:new 0 0 512 512;" xml:space="preserve">
<g transform="matrix(1.25 0 0 -1.25 0 45)">
	<g>
		<g>
			<path style="fill:#265FB5;" d="M409.6-271.2c0-25.134-20.378-45.511-45.511-45.511H45.511C20.378-316.711,0-296.334,0-271.2     v204.8c0,25.134,20.378,45.511,45.511,45.511h318.578c25.134,0,45.511-20.378,45.511-45.511V-271.2z"/>
			<path style="fill:#EEEEEE;" d="M409.6-225.689H0v113.778h409.6V-225.689z"/>
			<path style="fill:#A9BF4C;" d="M256.649-168.8c0-28.638-23.211-51.849-51.849-51.849c-28.626,0-51.849,23.211-51.849,51.849     s23.222,51.849,51.849,51.849C233.438-116.951,256.649-140.162,256.649-168.8"/>
			<path style="fill:#EEEEEE;" d="M250.311-168.8c0-25.134-20.378-45.511-45.511-45.511s-45.511,20.378-45.511,45.511     s20.378,45.511,45.511,45.511S250.311-143.666,250.311-168.8"/>
			<path style="fill:#265FB5;" d="M167.913-193.319l36.727,63.613l36.727-63.613H167.913z"/>
			<path style="fill:#55ACEE;" d="M172.032-190.873l32.654,56.548l32.643-56.548H172.032z"/>
			<path style="fill:#BBDDF5;" d="M172.032-190.873l7.873,13.642l49.186,0.626l8.238-14.268H172.032z"/>
			<path style="fill:#5C913B;" d="M178.313-181.953l12.265,9.956l5.336-6.042l4.619,4.972l3.914-3.914l3.732,4.096l4.449-4.096     l4.085,4.267l3.732-4.267l3.561,3.914l5.86-7.282l1.07-2.139c0,0-6.224-1.24-14.757-0.535c-8.533,0.717-13.505-1.24-20.264-2.128     c-6.758-0.887-18.842,0.887-18.842,0.887L178.313-181.953z"/>
			<g>
				<path style="fill:#E2F09F;" d="M190.396-174.136l8.181-8.886l-4.096-0.353l-4.619,6.747L190.396-174.136z"/>
				<path style="fill:#E2F09F;" d="M200.181-174.842l6.576-5.871l-3.026-0.523l-3.197,4.437L200.181-174.842z"/>
				<path style="fill:#E2F09F;" d="M208.532-174.489l5.689-5.336l-1.422-0.887l-4.619,4.983L208.532-174.489z"/>
				<path style="fill:#E2F09F;" d="M215.996-174.489l-2.31-2.128l1.07-1.252L215.996-174.489z"/>
				<path style="fill:#E2F09F;" d="M223.107-174.671l-2.662-3.379l0.887-1.593l1.957,3.732L223.107-174.671z"/>
			</g>
			<path style="fill:#BBDDF5;" d="M205.141-150.937l0.751-10.581l6.053,8.693l-4.54-9.444l9.444,4.528l-8.681-6.042l10.57-0.751     l-10.57-0.762l8.681-6.042l-9.444,4.528l4.54-9.444l-6.053,8.693l-0.751-10.581l-0.751,10.581l-6.053-8.693l4.54,9.444     l-9.444-4.528l8.681,6.042l-10.57,0.762l10.57,0.751l-8.681,6.042l9.444-4.528l-4.54,9.444l6.053-8.693L205.141-150.937z"/>
			<path style="fill:#DD2E44;" d="M204.8-159.732l-2.128-2.128c0,0,0.523-3.209,0.353-3.743c-0.182-0.523,1.775-3.197,1.775-3.197     l2.662,3.197l-0.705,4.267L204.8-159.732z"/>
			<path style="fill:#226699;" d="M205.824-156.057c8.715,0,13.687-4.267,13.687-4.267l-3.197,5.689c0,0-5.154,3.914-11.196,3.914     c-6.053,0-12.8-4.801-12.8-4.801l-3.026-6.042C189.292-161.564,197.109-156.057,205.824-156.057"/>
			<path style="fill:#FFCC4D;" d="M205.824-156.057c8.715,0,13.687-4.267,13.687-4.267l-2.31,4.085c0,0-6.224,3.732-12.265,3.732     s-13.517-4.79-13.517-4.79l-2.128-4.267C189.292-161.564,197.109-156.057,205.824-156.057"/>
			<path style="fill:#DD2E44;" d="M205.824-156.057c8.715,0,13.687-4.267,13.687-4.267l-1.604,2.662c0,0-4.79,3.379-12.971,3.026     c-6.042,0-14.404-4.449-14.404-4.449l-1.24-2.48C189.292-161.564,197.109-156.057,205.824-156.057"/>
			<g>
				<path style="fill:#EEEEEE;" d="M211.433-222.298h-11.332v10.866h11.332V-222.298z"/>
				<path style="fill:#EEEEEE;" d="M198.292-127.18h-8.146l-4.085,9.967l8.158,0.91L198.292-127.18z"/>
				<path style="fill:#EEEEEE;" d="M216.86-131.708l-5.427,1.809l2.708,13.141l10.422-0.91L216.86-131.708z"/>
				<path style="fill:#EEEEEE;" d="M167.947-187.425l-15.849-3.618l-0.455,10.866l15.849,2.264L167.947-187.425z"/>
				<path style="fill:#EEEEEE;" d="M172.032-198.746l-13.141-5.45l-3.163,8.613l12.231,4.085L172.032-198.746z"/>
				<path style="fill:#EEEEEE;" d="M259.447-188.791l-14.484,4.073v7.703l16.293,2.264L259.447-188.791z"/>
				<path style="fill:#EEEEEE;" d="M252.245-203.73l-13.585,6.349l4.517,8.146l14.962-4.528L252.245-203.73z"/>
			</g>
		</g>
	</g>
</g>
<g>
</g>
<g>
</g>
<g>
</g>
<g>
</g>
<g>
</g>
<g>
</g>
<g>
</g>
<g>
</g>
<g>
</g>
<g>
</g>
<g>
</g>
<g>
</g>
<g>
</g>
<g>
</g>
<g>
</g>
</svg>
