<?xml version="1.0" encoding="iso-8859-1"?>
<!-- Generator: Adobe Illustrator 19.0.0, SVG Export Plug-In . SVG Version: 6.00 Build 0)  -->
<svg xmlns="http://www.w3.org/2000/svg" xmlns:xlink="http://www.w3.org/1999/xlink" version="1.1" id="Capa_1" x="0px" y="0px" viewBox="0 0 512 512" style="enable-background:new 0 0 512 512;" xml:space="preserve">
<g transform="matrix(1.25 0 0 -1.25 0 45)">
	<g>
		<g>
			<g>
				<path style="fill:#007934;" d="M45.511-20.889C20.378-20.889,0-41.266,0-66.4v-204.8c0-25.134,20.378-45.511,45.511-45.511      h91.022v295.822H45.511z"/>
				<path style="fill:#007934;" d="M364.089-20.889h-91.022v-295.822h91.022c25.134,0,45.511,20.378,45.511,45.511v204.8      C409.6-41.266,389.222-20.889,364.089-20.889"/>
			</g>
			<path style="fill:#EEEEEE;" d="M136.533-316.711h136.533v295.822H136.533V-316.711z"/>
			<path style="fill:#007934;" d="M221.73-197.825c-1.934-0.08-1.957,0.603-0.853,0.933c0.774,0.228,2.173,0.466,2.731,0.08     C224.142-197.199,223.687-197.745,221.73-197.825 M211.012-195.413c-3.049-1.331-2.082,0.66-0.637,1.32     c0.865,0.387,4.972,1.786,7.384,2.719c2.412,0.933,4.21,0.933,6.007,1.161c1.775,0.228,1.775-0.08,0.523-1.559     c-1.24-1.468-2.64-1.013-4.654-0.933C217.611-192.625,214.039-194.093,211.012-195.413 M210.375-202.091     c0.785,0,1.57,0,2.492,0.296c0.944,0.319,0.853-0.296,0.159-0.694c-0.694-0.375-1.707-1.092-2.719-0.785     C209.294-202.956,209.533-202.091,210.375-202.091 M214.972-207.94c-1.161,0-2.879-1.24-4.426-0.922     c-1.559,0.307-1.399,1.775,0.148,1.388c1.252-0.296,2.173,0.239,3.891,0.637C216.292-206.46,216.132-207.94,214.972-207.94      M213.959-214.072c-1.013,0.319-1.707,0.387-2.719,0.148c-1.013-0.228-1.707,0.637-1.707,1.707     c1.013-0.762,3.493,0.478,5.746-0.762C216.223-213.515,214.972-214.379,213.959-214.072 M210.375-186.868     c1.104-0.057,3.436,0.432,4.255,0.66c1.456,0.444,1.308-0.148,0.375-0.66c-0.922-0.501-3.265-1.479-5.018-1.274     C208.247-187.96,208.828-186.788,210.375-186.868 M211.399-173.192c2.162-0.307,2.412-1.081-0.466-1.559     c-1.399-0.228-1.9-0.307-2.014,0.944C208.828-173.044,209.215-172.885,211.399-173.192 M208.43-165.728     c0.046,0.899,0.125,1.126,0.944,1.126c2.173,0,5.825,1.707,7.27,1.752c1.445,0.034,2.173-0.785,0.432-1.013     c-1.764-0.239-5.495-1.172-6.269-1.673C210.034-166.035,208.395-166.615,208.43-165.728 M210.227-159.857     c1.673-0.08,4.858,0,5.905,0.626c1.07,0.614,2.446,0.58,3.026,0.501c0.592-0.08,0.375-0.466-0.66-1.092     c-1.001-0.614-4.54-0.66-5.712-1.399c-1.161-0.728-2.867-0.887-3.618-0.922c-0.74-0.046-0.842,0-0.842,0.842     C208.327-159.971,208.555-159.777,210.227-159.857 M210.034-152.814c0.808-0.023,3.413,0.455,4.631,0.922     c1.195,0.466,1.274,0.125,0.535-0.353c-0.74-0.466-3.197-1.286-4.267-1.627c-1.593-0.501-2.378-0.694-2.412,0.319     C208.475-152.666,208.68-152.78,210.034-152.814 M211.627-170.507c-0.853-0.546-2.708-0.819-2.685,0     c0.046,0.819,0,0.74,0.478,0.774c2.287,0.193,4.267,1.502,5.473,1.593c1.866,0.159,2.901,0.319,1.832-0.501     C215.632-169.46,212.48-169.961,211.627-170.507 M216.986-177.458c-0.614-0.637-2.241-1.24-4.506-1.786     c-2.253-0.546-3.334-0.466-3.334,0.853c0,1.308,0.694,0.933,2.332,0.774C213.106-177.777,216.212-177.857,216.986-177.458      M218.169-189.36c-1.877-0.228-3.584-1.229-6.542-2.241c-2.947-1.024-2.503,0.58-1.32,1.308c1.24,0.774,5.291,1.707,7.543,1.877     C220.092-188.267,220.023-189.121,218.169-189.36 M222.913-179.871c-1.104-1.161-6.872-2.219-10.354-3.812     c-2.879-1.32-3.413-0.933-3.413,0.853c0,1.957,2.014,0.785,3.026,1.479c1.013,0.705,7.145,1.331,9.023,2.332     C223.05-178.016,223.983-178.699,222.913-179.871 M207.508-143.371c0.068,1.786,0.239,1.855,1.354,1.627     c1.274-0.262,5.177-0.114,6.736,0.034c1.559,0.159,2.833-0.421,0.193-0.922c-2.651-0.512-4.631-1.058-5.757-1.525     C208.919-144.622,207.428-145.168,207.508-143.371 M204.049-139.377c-0.08-1.24-0.66-1.354-1.445-0.66     c-0.774,0.705-2.56,1.206-4.426,1.752c-1.855,0.546-1.126,1.707,0.319,1.013c1.445-0.705,3.379-1.047,5.04-0.819     C204.402-137.978,204.095-138.672,204.049-139.377 M203.696-157.991c-0.068-0.705-0.694-0.239-1.32-0.239     c-1.126,0-3.959,2.139-7.782,2.765c-1.877,0.307-4.119,1.911-6.178,2.56c-2.048,0.66-0.455,1.593,0.671,0.944     c0.717-0.421,1.707-0.671,3.766-1.058c2.059-0.387,6.531-2.059,7.976-3.026C201.5-156.512,203.878-156.364,203.696-157.991      M192.592-149.207c2.708,0,6.053-1.559,8.351-2.651c1.593-0.751,2.492-1.047,2.446-2.059c-0.034-0.842-1.013-0.455-1.786,0.091     c-0.774,0.535-6.258,2.173-8.897,3.254C190.054-149.481,189.861-149.207,192.592-149.207 M198.963-145.976     c-2.685,0.967-3.777,1.786-3.584,2.207c0.193,0.432,2.697-0.205,4.426-0.774c3.083-1.013,3.709-1.092,3.618-2.446     C203.355-148.081,201.637-146.955,198.963-145.976 M193.058-132.846c2.241-0.853,6.793-0.501,9.705-2.332     c1.252-0.785-0.466-0.933-2.253-0.228c-1.775,0.694-3.891,0.307-7.543,1.559C189.986-132.835,191.26-132.164,193.058-132.846      M201.091-167.048c-1.388,1.047-6.098,2.526-7.851,2.879c-1.741,0.341-2.719,0.933-1.047,1.172     c1.673,0.228,3.959-0.284,6.019-1.331c1.138-0.58,3.083-1.434,3.891-1.434c0.819,0,1.434,0.114,1.434-1.593     C203.537-169.187,202.502-168.106,201.091-167.048 M198.804-173.419c-2.253,0.307-4.278,2.014-10.422,3.413     c-2.549,0.592-1.946,0.933-0.148,0.933c1.775,0,6.986-2.332,12.516-3.186c1.229-0.193,2.719-0.455,2.64-2.173     C203.31-176.139,201-173.727,198.804-173.419 M201.057-209.18c-1.399,0-4.437,1.161-7.077,2.264     c-2.64,1.081-0.239,1.718,1.32,1.081c1.559-0.626,4.198-0.774,5.837-0.774C203.002-206.608,203.15-209.18,201.057-209.18      M202.297-213.685c-0.182-1.559-2.788-0.466-4.733,0.614c-1.946,1.104,0.148,1.559,1.001,1.331s1.65-0.25,2.731,0     C202.297-211.512,202.536-211.74,202.297-213.685 M197.097-196.892c1.32-0.853,5.439-0.774,5.439-2.492     c0-0.774-0.853-0.307-1.877-0.307c-1.001,0-3.174,0.865-4.574,2.094C194.685-196.346,195.766-196.038,197.097-196.892      M181.43-212.604c-0.66,0.978,0.193,0.353,1.559-0.034c0.796-0.228,1.593-0.774,1.547-1.434     C184.468-215.199,182.09-213.572,181.43-212.604 M202.536-125.109c-1.263,0.535-0.853,1.126-0.239,1.354     c0.626,0.239,1.934,0.159,1.866-1.206C204.129-125.769,203.071-125.337,202.536-125.109 M209.169-125.803     c0.592-0.205,1.877-0.364,2.697-0.171c0.819,0.205,1.798-0.421,0.501-0.762c-2.298-0.626-4.654-1.138-4.699,0.307     C207.644-125.542,208.6-125.61,209.169-125.803 M209.215-129.467c-0.694-0.193-1.434-0.501-1.434,0.319     c0,0.853,0.853,0.501,1.434,0.421C209.806-128.807,210.603-129.08,209.215-129.467 M227.726-210.409     c5.985,0.455,15.292-2.105,22.153-1.49c6.827,0.626,5.757,1.092,3.493,2.879s-4.198,0.466-5.348-0.694     c-1.183-1.161-3.197-1.092-2.276,0.08c0.933,1.161,0.08,1.695-2.173,1.559c-2.253-0.171-3.891-0.944-5.359-1.343     c-1.479-0.387-3.106,0.637-1.957,1.172c1.183,0.558,1.013,1.013,0.08,1.092c-0.933,0.068-1.001,0.694,1.559,1.092     c2.56,0.387,4.346-0.319,5.837-0.853c1.479-0.558,3.186-0.091,4.289,0.694c1.07,0.774,1.707,1.627,3.004,1.547     c1.331-0.068,2.116,0.626,0.398,1.809c-1.695,1.149-4.187,1.229-5.678,0.523c-1.479-0.694-2.173-0.228-2.731,0.478     c-0.523,0.694-2.628,0.626-4.722-0.319c-2.105-0.944-3.527-2.128-4.745-0.466c-0.626,0.853-4.904-0.148-7.532-0.933     c-2.651-0.774-3.129,0-0.956,1.013c2.89,1.331,4.654,0.398,8.943,2.025c2.89,1.081,6.986-0.694,13.767,3.186     c1.627,0.933,3.186,1.866-1.308,2.025c-2.264,0.08-3.345-0.159-4.119-1.172c-0.785-1.024-1.718-0.774-1.638,0     c0.08,0.785-2.037,1.308-3.812,0.159c-1.786-1.183-3.106-2.185-3.971-2.412c-0.853-0.239-1.035-0.034-0.853,0.626     c0.193,0.649-0.432,0.569-1.195,0.068c-0.785-0.501-2.105-1.161-2.958-1.092c-0.853,0.08-1.786,0.785,0.626,2.025     c2.412,1.24,4.688,2.788,8.351,2.492c4.824-0.398,5.905,1.604,8.238,1.525c2.332-0.091,3.561,1.695,0.432,1.741     c-3.152,0.034-4.085-0.66-4.779-1.172c-0.705-0.489-2.116-0.853-1.877,0.193c0.239,1.058-0.319,1.058-1.422,0.546     c-1.149-0.501-3.903-0.853-5.222-0.455c-1.308,0.375-2.571,1.081,0.592,1.24c3.14,0.148,5.325,1.661,8.01,0.978     c2.412-0.626,3.675,0.603,4.562,0.501c0.91-0.114,2.003,0.66,0.398,1.934c-1.582,1.286-5.598,1.365-6.997,1.138     c-1.388-0.239-2.128,0-1.855,0.535c0.25,0.546-0.125,0.774-1.331,0.728c-1.206-0.034-4.562-0.808-5.985-1.434     c-1.866-0.808-3.265,0.444-1.741,1.434c1.001,0.671,3.675,1.479,5.154,1.297c1.49-0.193,2.15-0.375,1.707,0.66     c-0.182,0.455-0.262,1.047,1.343,0.66c1.582-0.387,4.824-0.466,6.599,0.546c1.786,1.013,0.478,2.173-2.412,2.105     c-2.867-0.08-9.091-0.933-11.583-2.56c-2.492-1.638-2.844,0.102-1.82,0.649c1.013,0.535,1.161,0.933,0.614,1.286     c-0.535,0.341-0.512,0.66,0.99,1.206c2.867,1.035,5.894,0.728,9.466,2.367c2.674,1.206,5.439,2.64,6.292,4.733     c0.865,2.105-0.466,1.399-2.025,0.774c-1.536-0.614-2.48-1.081-2.48-2.173s-1.308-1.092-1.229,0.239     c0.057,1.32-0.717,1.934-2.81,1.081c-2.094-0.853-7.396-2.788-9.25-2.56c-1.866,0.228-2.64,1.399-0.705,1.479     c1.957,0.08,4.597,0.853,6.155,1.399c1.547,0.535,2.48,1.399,1.308,2.014c-1.161,0.626-0.307,1.399,1.024,1.399     c1.308,0,2.867,1.172,4.574,0.933s3.641,0.33,1.399,1.638c-0.922,0.535-1.775,1.24-0.626,1.866     c1.183,0.626,0.478,2.332-1.308,2.56c-1.798,0.239-3.436-0.148-4.369-0.466c-0.922-0.307-1.707-0.228-1.934,0.546     c-0.228,0.785-3.265,0.694-4.517,0.387c-1.24-0.307-3.641-0.159-1.855,0.705c1.786,0.853,5.598,1.399,7.452,1.399     c1.866,0,3.823,0.466,4.824,0.853c1.013,0.387,1.252,2.412-1.001,2.412c-2.264,0-5.2-0.159-4.676,0.694     c0.558,0.865-1.399,1.399-3.573,0.933c-2.173-0.466-5.143-0.933-3.402,0.228c1.707,1.172,5.2,2.412,6.827,2.344     c1.638-0.08,2.788,0.228,1.718,1.547c-1.092,1.32-0.398,1.786,0.694,1.946c1.081,0.159,1.32,1.479-0.228,1.786     c-1.559,0.319-5.564,1.229-7.464,0.148c-2.651-1.468-4.665-1.399-3.812-0.535c0.853,0.853,0.262,0.831-1.104,0.466     c-3.095-0.853-9.785-2.799-11.651-2.64c-0.933,0.08-2.014-0.114-1.991,1.024c0.011,1.035,0.751,1.104,3.47,1.536     c5.45,0.853,11.423,2.56,13.995,2.264c2.549-0.319,3.664,0.068,2.947,1.161c-0.694,1.092-2.731,0.239-1.855,1.627     c0.865,1.399-0.694,1.252-1.877,1.32c-1.149,0.08-2.378,0.546-3.038,1.172c-0.944,0.899-4.164,0.387-5.791-0.239     c-1.627-0.614-5.234-1.456-6.633-1.354c-1.707,0.114-1.809,0.114-1.889,1.354c-0.046,0.649,0.182,0.899,0.956,1.206     c1.775,0.717,9.034,0.978,11.275,0.546c4.426-0.853,4.608,0.796,3.675,1.593c-1.195,1.058-5.04,0.592-7.464,0.159     c-2.401-0.432-4.961-0.899-5.632-0.307c-0.649,0.58,0.08,1.104,1.752,1.434c2.025,0.387,6.77,0.114,7.509,0.466     c0.751,0.341,1.479,1.445-0.159,1.866c-1.627,0.432-5.473,0-7.259-0.614c-1.798-0.626-3.789-0.444-4.21,0.193     c-0.432,0.614-0.262,2.162,2.731,1.934c2.981-0.239,8.465-0.159,9.432,0c0.99,0.159,1.104,0.853,0.592,1.513     c-0.501,0.66-1.126,1.365-0.558,1.866c0.592,0.512,0.364,0.933,0.057,1.365c-0.319,0.432,0,0.774,0.307,1.047     c0.307,0.273,0.728,0.944-0.398,0.74c-1.9-0.353-4.858,0.614-6.36,0.034c-1.525-0.58-4.961-0.978-6.064-0.819     c-0.501,0.091-0.785,1.104,0.148,1.206c1.627,0.205,4.858,0.671,6.064,1.297c1.195,0.614,2.446,1.081,3.971,1.047     c1.502-0.046,2.492,0.535,1.013,1.24c-1.49,0.694-3.891,0.501-5.302-0.159c-1.388-0.66-3.914-1.946-5.279-1.752     c-1.354,0.193-1.49,0.99-0.967,2.685c0.273,0.899,2.059,0.978,3.3,0.74c1.252-0.228,4.904,0.705,6.292,0.387     c1.399-0.307,2.651,0.239,1.104,1.399c-1.559,1.172-2.97,0.785-4.528,0.159c-1.547-0.626-4.961-1.479-5.894-0.626     c-0.933,0.865-1.161,3.038,0.58,2.264c1.9-0.865,6.645,0.694,7.919,0.034c1.286-0.66,1.957,0.58,0.694,1.161     c-1.229,0.592-4.892,0.046-6.121-0.228c-2.105-0.478-2.958-0.626-2.958,0.58c0,0.819,2.389,0.694,3.061,0.512     c1.718-0.466,4.244,1.661,5.803,1.274c1.547-0.387,1.286,0.466,0.478,1.092c-0.831,0.614-3.903,0.307-4.995-0.387     c-1.081-0.705-2.958-1.138-3.652-1.092s-1.001,0.239-1.001,1.479s0.671,1.604,1.593,2.059c1.513,0.74,1.764,1.866,0.614,1.593     c-1.786-0.432-2.401-1.013-2.401,1.399c0,1.092,0.148,2.059,1.582,2.367c1.445,0.319,1.718,1.286,1.263,1.513     c-0.478,0.239-1.058-0.341-1.764-0.614c-0.694-0.273-1.172-0.546-1.24,1.399c-0.046,1.126,0.626,1.479,1.274,1.513     c0.671,0.034,1.331,0.501,1.638,0.933c0.319,0.432,0,1.013-1.013,0.58c-1.013-0.421-1.968-0.546-1.98,0.592     c-0.034,2.526-0.353,8.317-0.432,9.671c-0.068,1.365-1.047,1.718-1.047,0.159c0-1.559-0.091-7.157-0.307-9.796     c-0.08-0.933-0.626-1.013-1.399-0.546c-0.785,0.466-3.027,0.159-1.479-0.546c1.559-0.694,2.56-0.933,2.64-2.173     c0.08-1.24-0.614-1.399-1.946-0.774c-1.308,0.614-3.026,0.387-0.614-1.092s2.56-1.559,2.48-3.106     c-0.068-1.559-0.853-1.411-2.401-0.705c-1.877,0.865-3.413,0.159-1.24-0.853c2.173-1.013,3.641-2.332,3.573-3.732     c-0.08-1.399-1.092-2.094-2.719-0.08c-1.638,2.025-4.278,3.038-6.224,2.799c-1.946-0.228-0.933-1.161,1.32-2.014     c2.264-0.865,5.905-2.571,6.77-3.504c0.853-0.933,0.387-1.707-1.638-0.853c-2.014,0.853-6.531,2.571-8.01,2.025     s-2.094-1.399,0.398-1.479c2.48-0.08,6.804-0.785,8.624-1.479c2.253-0.853,2.56-2.64,0.387-2.014     c-2.173,0.614-8.238,1.866-10.035,0.774c-1.775-1.092-2.321-2.185,0.705-1.707c3.038,0.466,6.849,0.466,8.556-0.239     c0.933-0.387,1.707-0.466,1.627-1.786c-0.08-1.331-1.092-1.331-2.947-0.546c-1.877,0.774-7.475,2.253-9.182,0.853     c-1.707-1.399-1.32-1.638,1.092-1.24c2.412,0.387,6.076,0.034,7.851-0.307c3.618-0.705,3.345-1.331,1.013-1.331     s-9.25-0.307-10.877,0.319c-1.638,0.614-4.05,1.013-4.983,0.614c-0.922-0.387-0.159-0.774,0.614-0.774     c0.785,0,1.411-0.626,0.865-1.172c-0.546-0.535-0.865-1.547,1.32-1.161c2.185,0.387,5.291,0.387,6.929-0.239     c1.627-0.614,4.096-1.331,6.133-1.547c2.173-0.239,2.253-0.307,2.173-1.946c-0.057-1.206-2.56-0.466-4.972,1.092     c-2.412,1.547-7.066,2.401-9.25,0.933c-2.173-1.479-0.933-1.786,1.092-1.399c2.025,0.387,7.623-0.626,9.717-1.32     c2.094-0.705,3.379-0.239,3.265-2.185c-0.08-1.161-1.252-0.558-3.038,0.159c-5.439,2.173-11.992,2.367-14.143,2.094     c-1.525-0.193-1.752-0.341-1.252-0.774c0.364-0.307,0.091-0.899-0.819-1.126c-0.933-0.228-2.128-0.626-2.708-1.092     c-0.592-0.466-0.558-0.922,1.126-0.774c1.673,0.159,3.334-0.114,2.355-0.774c-0.967-0.66-2.196-1.547-0.262-1.718     c4.972-0.432,12.208-3.527,14.689-4.927c2.492-1.399,3.152-1.525,3.106-2.81c-0.034-1.274-1.388-1.07-2.833-0.296     c-4.551,2.401-9.057,1.855-11.389,3.493c-2.332,1.627-5.746,3.413-7.919,2.014c-2.185-1.399-1.798-2.253,0.148-2.014     c1.946,0.228,4.039-0.08,3.265-1.092c-0.774-1.013-1.308-1.65,1.866-2.105c4.437-0.614,11.662-3.413,14.074-4.426     c2.401-1.013,3.345-1.707,1.32-2.014c-2.025-0.319-2.105,1.115-5.291,1.24c-2.014,0.08-4.585,1.161-5.985,2.253     c-1.399,1.081-2.332,1.638-4.654,1.399c-2.344-0.228-5.689-0.626-6.929-1.331c-1.24-0.694-1.718-1.695,0.307-1.775     c2.025-0.08,2.958-1.32,1.411-1.866c-1.559-0.546-3.197-0.865-3.743-1.479c-0.546-0.626,0.228-1.172,2.332-1.172     s5.37-0.694,8.249-2.094c2.879-1.399,11.196-5.598,13.449-5.757c2.253-0.148,2.48-0.455,2.412-1.627     c-0.091-1.172-0.865-0.933-2.731-0.387c-1.866,0.546-7.157,2.173-8.863,3.652s-3.459,2.879-5.006,2.947     c-1.559,0.091-1.126-0.421-0.592-1.013c0.546-0.569,0.489-2.014-0.535-1.047c-1.673,1.559-2.879,3.231-5.097,3.265     c-2.207,0.034-4.312,0-5.439-0.626c-1.138-0.614-0.99-1.525,1.126-1.82c2.492-0.341,5.177-1.126,6.417-1.866     c1.24-0.74,0.694-1.479-0.467-1.399c-1.172,0.08-0.899-0.58,0.387-1.354c1.286-0.774,2.059-1.82,1.081-2.071     c-1.388-0.341-3.846,2.469-4.972,2.298c-0.774-0.114-0.148-0.66,0.501-1.092c0.671-0.421,0.683-1.855-0.387-1.047     c-1.468,1.138-3.459,2.606-5.712,1.786c-2.253-0.819-3.334-1.786-1.434-2.606c1.9-0.808,3.277-1.559,2.378-2.719     c-0.444-0.535-0.853-1.365,1.855-1.547c1.673-0.125,3.538-0.785,4.358-1.673s-0.239-1.252-1.24-0.819     c-1.024,0.432-3.265,0.66-4.358-0.353c-1.092-1.013,0.011-1.707,2.219-1.98c6.224-0.74,12.823-2.753,16.475-3.072     c3.652-0.296,6.69-1.183,8.238-1.786c2.059-0.808,0.978-3.106-0.535-2.321c-2.139,1.092-3.618,1.741-4.437,1.9     c-0.819,0.148-0.819-0.159-0.671-0.899c0.171-0.728-0.774-1.115-1.661-0.262c-0.899,0.853-3.618,2.48-5.291,2.742     c-1.673,0.284-1.434-0.034-1.161-0.569c0.273-0.546,0.159-1.479-0.933-0.398c-1.092,1.092-4.506,2.651-6.531,2.526     c-1.32-0.08-1.047-0.489-0.785-1.047c0.284-0.546-0.421-1.707-1.229-0.592c-0.819,1.149-2.56,2.708-4.631,1.479     c-0.853-0.501-1.707-1.206-2.947-1.434c-1.252-0.228-0.99-0.956,0.728-1.308c4.471-0.978,6.212,0.273,9.182-0.899     c2.241-0.899,4.233-1.172,5.074-1.24c0.865-0.08,1.49-0.592,0.523-0.899c-0.978-0.319-0.91-1.035,0.148-1.98     c1.058-0.933,0.205-2.378-0.705-1.286c-1.673,2.025-4.119,1.32-5.006,2.298c-0.899,0.967-1.286,0.853-1.286,0.068     c0-0.774-0.432-0.978-1.286-0.307c-2.992,2.321-6.724,1.866-8.317,0.774c-1.593-1.081-1.24-1.456,1.638-1.911     c8.112-1.274,18.227-2.981,26.931-6.633c4.71-1.968,4.426-2.412,4.198-2.992c-0.239-0.58-1.149-0.728-3.038,0.546     c-2.128,1.445-7.839,2.298-10.365,3.846s-3.265,0.74-2.571-0.239c0.694-0.967,0.432-1.98-1.013-0.705     c-1.445,1.297-4.426,2.924-6.133,2.958c-1.718,0.034-0.432-0.694,0.421-1.274c0.853-0.58,1.047-2.367-0.421-1.434     c-1.49,0.922-5.882,3.379-9.296,2.526c-3.425-0.865-2.913-1.377-1.172-2.492c1.764-1.126,3.391-1.946,7.122-1.832     c3.732,0.114,7.305-0.58,8.977-1.673c1.673-1.081,0.114-1.354-1.013-0.683c-1.126,0.649-4.153,1.149-5.404,1.001     c-1.24-0.148-0.66-0.74-0.148-1.331c0.501-0.569-0.091-2.412-1.092-1.274c-1.024,1.126-3.766,2.446-5.439,2.833     c-3.652,0.853-5.279-0.831-3.686-1.399c0.967-0.341,1.456-0.853,0.887-1.638c-0.592-0.774-0.899-1.65,1.081-1.354     c4.631,0.705,13.153,0.558,17.84-0.933c4.039-1.286,3.152-2.139,2.094-2.059c-1.035,0.068-2.173,0.626-1.627-0.387     c0.546-1.001,0.501-1.911-0.853-0.967c-2.799,1.934-6.679,2.674-8.476,2.606c-0.967-0.034-0.535-0.558-0.114-1.104     c0.421-0.535-0.193-1.479-1.24-0.649c-1.047,0.808-2.992,1.98-4.278,2.014c-1.286,0.034-1.24-0.387-0.66-0.956     c0.58-0.592,0.455-1.604-0.74-0.751c-1.786,1.274-4.619,2.64-6.679,2.492c-2.071-0.159-1.149-1.161,0.74-1.946     c3.527-1.479,7.259-2.401,9.91-2.651c2.628-0.228,4.972-0.967,6.064-1.035c1.081-0.08,1.536-0.694,0.068-0.865     c-2.014-0.228-5.279,1.217-6.918,0.466c-0.853-0.398,0.216-0.956,0.353-1.24c0.273-0.558,0.159-1.98-0.887-1.115     c-3.197,2.594-5.177,2.241-6.303,3.061c-1.138,0.808-2.287,0.341-1.559-0.58c0.74-0.944-0.819-0.66-2.014,0.068     c-1.206,0.751-3.231,1.24-4.506,0.853c-1.297-0.398-1.877-0.853,0.774-2.253c2.64-1.399,4.779-2.446,7.464-2.958     c2.674-0.501,3.026-2.082,1.547-1.9c-1.468,0.205-1.729-0.649-0.728-1.399c0.466-0.341,0.762-1.32,0.683-1.911     c-0.068-0.569-0.967-0.466-2.128,0.831c-2.799,3.106-8.977,3.345-12.049,2.435c-3.072-0.887-1.786-2.367,0.432-4.46     c2.207-2.105,4.278-4.312,10.024-3.618c5.746,0.705,15.929,2.867,20.594,1.627c4.665-1.229,4.142-3.356,2.719-3.573     c-2.56-0.387-2.48,2.105-5.12,2.264c-2.651,0.137-3.504-1.172-4.358-2.105c-0.853-0.933-1.49-1.752-4.198-0.466     c-3.425,1.638-6.064-0.694-7.543-0.387c1.411-0.774,3.732-2.571,3.118-3.265c-0.626-0.705-1.638,0.694-3.732,1.479     c-2.094,0.774-5.211,0.933-7.543-0.466c-2.332-1.399,0.08-2.799,2.64-3.425c2.571-0.626,8.169-0.626,12.754,0.626     c4.585,1.24,10.263,2.116,12.356,2.173c1.547,0.046,2.253-0.808,1.206-1.786c1.593-0.466,3.47-0.011,4.471,0.626     c2.571,1.627,2.219,0,1.661-1.013c1.684-0.114,4.597,1.98,5.769,1.195c0.341-7.031-0.125-21.254-0.125-26.158     c0-0.853,0.626-0.694,4.892-0.694c5.177,0,5.45-0.387,5.291,2.105c-0.148,2.423-1.638,16.942-1.172,22.221     c0.478,5.291,1.946,4.904,3.812,4.517c1.866-0.387,6.303-1.786,8.488-1.707c-1.399,1.468-1.559,2.48-0.25,2.173     c1.331-0.307,3.038,0.228,4.198,1.24c-1.001,0.08-1.707,1.399,0.091,1.718c1.786,0.307,2.389-0.626,5.507-1.638     c3.106-1.013,14.802-3.322,21.458,0.933c1.946,1.252,0.398,1.786-2.014,1.786c-2.412,0-3.652-0.535-4.824-1.001     c-1.172-0.466-2.219-0.819-1.98,0.102c0.239,0.933-1.855,1.297-3.732,0.432c-1.866-0.853-3.459-1.24-2.992-0.228     c0.455,1.013-0.273,1.24-2.765,1.092c-2.162-0.137-8.624,0.569-8.351,1.616c0.148,0.637,1.388,0.933,3.527,0.466     c5.097-1.07,16.441-1.399,19.877-1.161c5.586,0.387,3.948,2.105,1.82,2.719c-2.139,0.637-4.551,0.171-5.086-0.501     c-0.558-0.671-2.401-1.092-1.957-0.034c0.626,1.479-2.446,1.82-5.166,0.341c-1.855-1.013-2.219-0.501-1.547,0.319     c0.66,0.819-0.444,1.377-2.526,1.195c-3.004-0.216-8.442-0.296-10.536,0.592C223.209-211.046,223.767-210.738,227.726-210.409"/>
			<g>
				<path style="fill:#EEEEEE;" d="M203.423-143.53c0-1.9-1.547-3.459-3.459-3.459h-7.191c-1.911,0-3.459,1.559-3.459,3.459      c0,1.911,1.547,3.459,3.459,3.459h7.191C201.876-140.071,203.423-141.618,203.423-143.53"/>
				<path style="fill:#EEEEEE;" d="M220.877-191.874c0-2.765-2.241-5.006-5.006-5.006h-0.478c-2.765,0-5.006,2.241-5.006,5.006      c0,2.765,2.241,5.006,5.006,5.006h0.478C218.635-186.868,220.877-189.109,220.877-191.874"/>
				<path style="fill:#EEEEEE;" d="M213.97-212.24c0-1.001-0.819-1.82-1.832-1.82c-1.001,0-1.82,0.819-1.82,1.82v7.157      c0,1.001,0.819,1.82,1.82,1.82c1.013,0,1.832-0.819,1.832-1.82V-212.24z"/>
				<path style="fill:#EEEEEE;" d="M202.297-210.283c0-1.877-1.513-3.391-3.379-3.391h-1.559c-1.866,0-3.379,1.513-3.379,3.391      c0,1.866,1.513,3.379,3.379,3.379h1.559C200.784-206.904,202.297-208.417,202.297-210.283"/>
				<path style="fill:#EEEEEE;" d="M203.548-160.961c0-2.731-1.547-4.961-3.459-4.961s-3.459,2.23-3.459,4.961v5.439      c0,2.731,1.547,4.961,3.459,4.961s3.459-2.23,3.459-4.961V-160.961z"/>
				<path style="fill:#EEEEEE;" d="M211.706-144.224c0-1.138-0.922-2.071-2.071-2.071c-1.138,0-2.071,0.933-2.071,2.071v3.163      c0,1.149,0.933,2.071,2.071,2.071c1.149,0,2.071-0.922,2.071-2.071V-144.224z"/>
				<path style="fill:#EEEEEE;" d="M241.209-214.197c0-2.116-1.468-3.812-3.288-3.812h-6.849c-1.82,0-3.3,1.695-3.3,3.812      c0,2.105,1.479,3.8,3.3,3.8h6.849C239.741-210.397,241.209-212.092,241.209-214.197"/>
				<path style="fill:#EEEEEE;" d="M188.462-220.205c0-1.809-1.468-3.277-3.277-3.277h-8.067c-1.809,0-3.277,1.468-3.277,3.277      s1.468,3.277,3.277,3.277h8.067C186.994-216.928,188.462-218.396,188.462-220.205"/>
			</g>
		</g>
	</g>
</g>
<g>
</g>
<g>
</g>
<g>
</g>
<g>
</g>
<g>
</g>
<g>
</g>
<g>
</g>
<g>
</g>
<g>
</g>
<g>
</g>
<g>
</g>
<g>
</g>
<g>
</g>
<g>
</g>
<g>
</g>
</svg>
