<?xml version="1.0" encoding="iso-8859-1"?>
<!-- Generator: Adobe Illustrator 19.0.0, SVG Export Plug-In . SVG Version: 6.00 Build 0)  -->
<svg xmlns="http://www.w3.org/2000/svg" xmlns:xlink="http://www.w3.org/1999/xlink" version="1.1" id="Capa_1" x="0px" y="0px" viewBox="0 0 512 512" style="enable-background:new 0 0 512 512;" xml:space="preserve">
<g transform="matrix(1.25 0 0 -1.25 0 45)">
	<path style="fill:#009543;" d="M409.577-65.459c-0.008,0.417-0.012,0.834-0.032,1.247c-0.033,0.673-0.082,1.341-0.145,2.006   c-0.003,0.033-0.004,0.066-0.008,0.099c-0.059,0.617-0.132,1.231-0.217,1.84c-2.997,22.232-22.035,39.378-45.087,39.378H45.511   C20.378-20.889,0-41.267,0-66.4v-204.8c0-22.642,16.54-41.416,38.193-44.917c0.014-0.003,0.028-0.005,0.041-0.008   c0.653-0.107,1.313-0.191,1.976-0.269c0.161-0.019,0.321-0.044,0.484-0.061c0.514-0.055,1.034-0.089,1.553-0.126   c0.295-0.021,0.587-0.052,0.884-0.067c0.356-0.018,0.716-0.018,1.074-0.028c0.434-0.013,0.867-0.034,1.304-0.034h318.578   c18.065,0,33.673,10.526,41.024,25.78c1.756,3.643,3.034,7.56,3.768,11.663c-0.066-0.368-0.146-0.73-0.22-1.095   c0.606,2.961,0.941,6.021,0.941,9.161v0.003v204.797v0.003C409.6-66.085,409.583-65.773,409.577-65.459z M12.139-301.933   L398.016-36.331l0,0L12.139-301.933z M408.938-278.977c0.036,0.208,0.057,0.422,0.09,0.631   C408.995-278.555,408.974-278.768,408.938-278.977z"/>
	<g>
		<path style="fill:#003580;" d="M409.6-66.403v-204.8c0-7.068-1.612-13.761-4.488-19.73c2.877,5.969,4.488,12.663,4.488,19.732    v204.8c0,0.315-0.017,0.627-0.023,0.941C409.583-65.773,409.6-66.085,409.6-66.403z"/>
		<path style="fill:#003580;" d="M12.139-301.933L398.016-36.331c6.23-7.027,10.423-15.908,11.376-25.776    c-2.165,23.119-21.619,41.218-45.304,41.218H45.511C20.378-20.889,0-41.267,0-66.4v-204.8c0-22.642,16.54-41.416,38.193-44.917    C27.942-314.431,18.89-309.266,12.139-301.933z"/>
		<path style="fill:#003580;" d="M40.211-316.394c-0.663,0.078-1.324,0.162-1.976,0.269    C38.889-316.23,39.548-316.317,40.211-316.394z"/>
		<path style="fill:#003580;" d="M42.248-316.581c-0.519,0.038-1.039,0.071-1.553,0.126    C41.208-316.51,41.728-316.545,42.248-316.581z"/>
		<path style="fill:#003580;" d="M44.206-316.678c-0.358,0.01-0.719,0.011-1.074,0.029    C43.487-316.668,43.848-316.668,44.206-316.678z"/>
		<path style="fill:#003580;" d="M409.4-62.205c0.063-0.664,0.112-1.333,0.145-2.006C409.513-63.538,409.461-62.87,409.4-62.205z"/>
	</g>
	<g>
		<path style="fill:#EEEEEE;" d="M409.6-66.4c0,25.133-20.378,45.511-45.511,45.511h-7.552L0-270.537v-0.663    c0-25.133,20.378-45.511,45.511-45.511h7.557L409.6-67.068V-66.4z"/>
		<path style="fill:#D20F34;" d="M375.452-22.319L1.82-283.937c4.549-15.629,17.249-27.778,33.196-31.543L407.969-54.328    C403.668-38.664,391.217-26.372,375.452-22.319z"/>
	</g>
	<g>
		<g>
			<path style="fill:#FFCE00;" d="M62.578-161.177l18.685,14.487c-5.911,1.656-11.21,4.774-15.48,8.947L62.578-161.177z"/>
			<path style="fill:#FFCE00;" d="M56.012-102.976l-21.879-8.935l21.879-8.935c-0.728,2.858-1.117,5.851-1.117,8.935     C54.895-108.827,55.284-105.834,56.012-102.976z"/>
			<path style="fill:#FFCE00;" d="M41.756-83.467l14.486-18.684c1.656,5.911,4.775,11.209,8.947,15.479L41.756-83.467z"/>
			<path style="fill:#FFCE00;" d="M62.578-62.645l3.206-23.433c4.27,4.172,9.568,7.291,15.48,8.947L62.578-62.645z"/>
			<path style="fill:#FFCE00;" d="M119.467-62.645l-18.685-14.487c5.913-1.656,11.211-4.774,15.48-8.947L119.467-62.645z"/>
			<path style="fill:#FFCE00;" d="M140.288-83.467l-23.433-3.206c4.172-4.27,7.29-9.57,8.946-15.482L140.288-83.467z"/>
			<path style="fill:#FFCE00;" d="M82.086-146.92l8.936-21.88l8.936,21.88c-2.859-0.728-5.853-1.116-8.938-1.116     C87.937-148.036,84.944-147.647,82.086-146.92z"/>
			<path style="fill:#FFCE00;" d="M99.958-76.903l-8.936,21.88l-8.936-21.88c2.858,0.728,5.85,1.116,8.933,1.116     C94.105-75.787,97.099-76.176,99.958-76.903z"/>
			<path style="fill:#FFCE00;" d="M119.467-161.177l-3.206,23.433c-4.269-4.172-9.567-7.291-15.48-8.947L119.467-161.177z"/>
			<path style="fill:#FFCE00;" d="M126.028-120.848l21.883,8.937l-21.883,8.937c0.728-2.859,1.116-5.852,1.116-8.937     C127.144-114.996,126.756-117.989,126.028-120.848z"/>
			<path style="fill:#FFCE00;" d="M140.288-140.356L125.8-121.668c-1.656-5.912-4.773-11.211-8.946-15.482L140.288-140.356z"/>
			<path style="fill:#FFCE00;" d="M41.756-140.356l23.433,3.206c-4.172,4.269-7.291,9.567-8.947,15.479L41.756-140.356z"/>
		</g>
		<path style="fill:#004A77;" d="M127.144-111.911c0,3.085-0.389,6.078-1.116,8.937c-0.07,0.276-0.151,0.547-0.228,0.821    c-1.656,5.912-4.773,11.211-8.946,15.482c-0.196,0.2-0.393,0.397-0.593,0.593c-4.269,4.172-9.567,7.291-15.48,8.947    c-0.274,0.077-0.546,0.158-0.823,0.229c-2.859,0.728-5.853,1.116-8.938,1.116c-3.084,0-6.076-0.389-8.933-1.116    c-0.277-0.07-0.549-0.152-0.823-0.229c-5.911-1.656-11.21-4.774-15.48-8.947c-0.2-0.196-0.398-0.393-0.594-0.593    c-4.172-4.269-7.291-9.567-8.947-15.479c-0.077-0.275-0.159-0.548-0.23-0.826c-0.728-2.858-1.117-5.851-1.117-8.935    c0-3.084,0.389-6.077,1.117-8.935c0.07-0.278,0.152-0.55,0.23-0.826c1.656-5.911,4.775-11.209,8.947-15.479    c0.196-0.2,0.393-0.398,0.594-0.593c4.27-4.172,9.568-7.291,15.48-8.947c0.274-0.077,0.546-0.158,0.823-0.229    c2.858-0.728,5.85-1.116,8.933-1.116c3.085,0,6.08,0.389,8.938,1.116c0.277,0.07,0.549,0.152,0.823,0.229    c5.913,1.656,11.211,4.774,15.48,8.947c0.2,0.196,0.397,0.393,0.593,0.593c4.172,4.27,7.29,9.57,8.946,15.482    c0.076,0.274,0.158,0.545,0.228,0.821C126.756-117.989,127.144-114.996,127.144-111.911z M91.02-139.98    c-15.496,0-28.069,12.572-28.069,28.069S75.523-83.842,91.02-83.842c15.508,0,28.069-12.572,28.069-28.069    S106.528-139.98,91.02-139.98z"/>
		<path style="fill:#FFCE00;" d="M91.02-83.842c-15.496,0-28.069-12.572-28.069-28.069S75.523-139.98,91.02-139.98    c15.508,0,28.069,12.572,28.069,28.069S106.528-83.842,91.02-83.842z"/>
	</g>
</g>
<g>
</g>
<g>
</g>
<g>
</g>
<g>
</g>
<g>
</g>
<g>
</g>
<g>
</g>
<g>
</g>
<g>
</g>
<g>
</g>
<g>
</g>
<g>
</g>
<g>
</g>
<g>
</g>
<g>
</g>
</svg>
