<?xml version="1.0" encoding="iso-8859-1"?>
<!-- Generator: Adobe Illustrator 19.0.0, SVG Export Plug-In . SVG Version: 6.00 Build 0)  -->
<svg xmlns="http://www.w3.org/2000/svg" xmlns:xlink="http://www.w3.org/1999/xlink" version="1.1" id="Capa_1" x="0px" y="0px" viewBox="0 0 512 512" style="enable-background:new 0 0 512 512;" xml:space="preserve">
<g transform="matrix(1.25 0 0 -1.25 0 45)">
	<g>
		<g>
			<path style="fill:#FCE100;" d="M409.6-271.2c0-25.134-20.378-45.511-45.511-45.511H45.511C20.378-316.711,0-296.334,0-271.2     v204.8c0,25.134,20.378,45.511,45.511,45.511h318.578c25.134,0,45.511-20.378,45.511-45.511V-271.2z"/>
			<path style="fill:#141414;" d="M409.6-225.689H0v113.778h409.6V-225.689z"/>
			<path style="fill:#007168;" d="M364.089-20.889H45.511C20.378-20.889,0-41.266,0-66.4v-45.511h409.6V-66.4     C409.6-41.266,389.222-20.889,364.089-20.889"/>
			<g>
				<path style="fill:#EEEEEE;" d="M409.6-123.289H0v11.378h409.6V-123.289z"/>
				<path style="fill:#EEEEEE;" d="M409.6-225.689H0v11.378h409.6V-225.689z"/>
			</g>
			<path style="fill:#DD2E44;" d="M14.939-304.764l178.847,135.179L15.132-32.79C5.905-41.119,0-53.043,0-66.457v-204.8     C0-284.58,5.825-296.447,14.939-304.764"/>
			<path style="fill:#FCE100;" d="M107.839-226.394l-37.217,27.25l-37.16-27.25l14.416,43.816l-37.41,26.908l46.126-0.159     l14.04,43.884l14.108-43.918l46.08,0.205L93.4-182.624L107.839-226.394z"/>
			<path style="fill:#141414;" d="M38.332-199.543h26.806c2.162-2.423,6.975-3.413,11.56,0.023     c8.397,4.597,24.656-0.023,24.656-0.023l3.197,3.402l-7.794,25.6l-2.799,3.004c0,0-6.019,3.607-17.419,2.401     c-11.401-1.206-15.394,0.41-15.394,0.41s-10.012-1.206-12.811-2.605c-0.307-0.25-3.197-3.209-3.197-3.209L38.332-199.543z"/>
			<path style="fill:#FFFFFF;" d="M38.332-195.834h26.806c2.162-2.423,6.975-3.413,11.56,0.023     c8.397,4.597,24.656-0.023,24.656-0.023l3.197,3.402l-7.794,25.6l-2.799,3.004c0,0-6.019,3.607-17.419,2.401     c-11.401-1.195-15.394,0.41-15.394,0.41s-10.012-1.206-12.811-2.606c-0.307-0.25-3.197-3.209-3.197-3.209L38.332-195.834z"/>
			<path style="fill:#141414;" d="M25.179-157.559l14.359,21.06l8.795-1.411l5.086,5.245l17.522-21.493l14.074,10.001l8.613,7.179     l5.166-3.174l18.284,11.787l-16.532-15.497l-13.71-9.739l-10.923-4.915L112.799-202l-4.813-3.425l-35.169,42.667l-11.401-9.159     l14.973-4.79l-0.478-7.179l-21.038,5.803l0.933-14.894l-4.858-2.105l-4.301,8.59l-18.603-21.811l-6.69,11.492l21.06,17.715     l0.478,6.224l11.48,10.524l3.356,0.489l9.569,3.823l-14.359,15.314l-19.183-26.761l-8.226,9.899"/>
		</g>
	</g>
</g>
<g>
</g>
<g>
</g>
<g>
</g>
<g>
</g>
<g>
</g>
<g>
</g>
<g>
</g>
<g>
</g>
<g>
</g>
<g>
</g>
<g>
</g>
<g>
</g>
<g>
</g>
<g>
</g>
<g>
</g>
</svg>
