<?xml version="1.0" encoding="iso-8859-1"?>
<!-- Generator: Adobe Illustrator 19.0.0, SVG Export Plug-In . SVG Version: 6.00 Build 0)  -->
<svg xmlns="http://www.w3.org/2000/svg" xmlns:xlink="http://www.w3.org/1999/xlink" version="1.1" id="Capa_1" x="0px" y="0px" viewBox="0 0 512 512" style="enable-background:new 0 0 512 512;" xml:space="preserve">
<g transform="matrix(1.25 0 0 -1.25 0 45)">
	<g>
		<g>
			<path style="fill:#DD2E44;" d="M409.6-271.2c0-25.134-20.378-45.511-45.511-45.511H45.511C20.378-316.711,0-296.334,0-271.2     v204.8c0,25.134,20.378,45.511,45.511,45.511h318.578c25.134,0,45.511-20.378,45.511-45.511V-271.2z"/>
			<g>
				<path style="fill:#EEEEEE;" d="M6.315-293.956h396.982c3.903,6.724,6.303,14.427,6.303,22.756H0      C0-279.529,2.412-287.231,6.315-293.956"/>
				<path style="fill:#EEEEEE;" d="M409.6-248.444H0v22.756h409.6V-248.444z"/>
				<path style="fill:#EEEEEE;" d="M409.6-202.933H0v22.756h409.6V-202.933z"/>
				<path style="fill:#EEEEEE;" d="M409.6-157.422H0v22.756h409.6V-157.422z"/>
				<path style="fill:#EEEEEE;" d="M409.6-111.911H0v22.756h409.6V-111.911z"/>
				<path style="fill:#EEEEEE;" d="M6.315-43.644C2.412-50.357,0-58.071,0-66.4h409.6c0,8.329-2.401,16.043-6.303,22.756H6.315z"/>
			</g>
			<path style="fill:#010066;" d="M204.8-20.889H45.511C20.378-20.889,0-41.266,0-66.4v-113.778h204.8V-20.889z"/>
			<g>
				<path style="fill:#FFCC4D;" d="M108.476-160.073c-32.882,0-59.54,26.658-59.54,59.54c0,32.893,26.658,59.551,59.54,59.551      c8.135,0,15.895-1.661,22.96-4.608c-11.321,8.34-25.27,13.323-40.414,13.323c-37.695,0-68.267-30.561-68.267-68.267      c0-37.695,30.572-68.267,68.267-68.267c15.144,0,29.093,4.995,40.414,13.335C124.37-158.423,116.611-160.073,108.476-160.073"/>
				<path style="fill:#FFCC4D;" d="M147.024-64.466l3.8-18.432l11.412,14.962l-4.574-18.261l16.782,8.522l-12.038-14.461      l18.807,0.41l-17.124-7.805l17.124-7.817l-18.807,0.41l12.038-14.461l-16.782,8.522l4.574-18.261l-11.412,14.962l-3.8-18.432      l-3.8,18.432l-11.412-14.962l4.574,18.261l-16.782-8.522l12.038,14.461l-18.807-0.41l17.124,7.817l-17.124,7.805l18.807-0.41      l-12.038,14.461l16.782-8.522l-4.574,18.261l11.412-14.962L147.024-64.466z"/>
			</g>
		</g>
	</g>
</g>
<g>
</g>
<g>
</g>
<g>
</g>
<g>
</g>
<g>
</g>
<g>
</g>
<g>
</g>
<g>
</g>
<g>
</g>
<g>
</g>
<g>
</g>
<g>
</g>
<g>
</g>
<g>
</g>
<g>
</g>
</svg>
