<?xml version="1.0" encoding="iso-8859-1"?>
<!-- Generator: Adobe Illustrator 19.0.0, SVG Export Plug-In . SVG Version: 6.00 Build 0)  -->
<svg xmlns="http://www.w3.org/2000/svg" xmlns:xlink="http://www.w3.org/1999/xlink" version="1.1" id="Capa_1" x="0px" y="0px" viewBox="0 0 512 512" style="enable-background:new 0 0 512 512;" xml:space="preserve">
<g transform="matrix(1.25 0 0 -1.25 0 45)">
	<g>
		<g>
			<path style="fill:#77B255;" d="M409.6-271.2c0-25.134-20.378-45.511-45.511-45.511H45.511C20.378-316.711,0-296.334,0-271.2     v204.8c0,25.134,20.378,45.511,45.511,45.511h318.578c25.134,0,45.511-20.378,45.511-45.511V-271.2z"/>
			<path style="fill:#DD2E44;" d="M409.6-225.689H0v113.778h409.6V-225.689z"/>
			<path style="fill:#141414;" d="M364.089-20.889H45.511C20.378-20.889,0-41.266,0-66.4v-45.511h409.6V-66.4     C409.6-41.266,389.222-20.889,364.089-20.889"/>
			<g>
				<path style="fill:#DD2E44;" d="M263.851-100.533C252.041-80.144,230.036-66.4,204.777-66.4s-47.252-13.744-59.062-34.133      H263.851z"/>
				<path style="fill:#DD2E44;" d="M201.364-32.267h6.861l-3.436-24.61L201.364-32.267z"/>
				<path style="fill:#DD2E44;" d="M184.138-34.315l6.77,1.161l0.762-24.838L184.138-34.315z"/>
				<path style="fill:#DD2E44;" d="M167.492-39.241l6.474,2.287l4.949-24.348L167.492-39.241z"/>
				<path style="fill:#DD2E44;" d="M151.927-46.898l5.996,3.334l8.988-23.165L151.927-46.898z"/>
				<path style="fill:#DD2E44;" d="M137.899-57.082l5.359,4.301l12.754-21.311L137.899-57.082z"/>
				<path style="fill:#DD2E44;" d="M125.724-69.483l4.551,5.154l16.179-18.864L125.724-69.483z"/>
				<path style="fill:#DD2E44;" d="M115.883-83.762l3.618,5.837l19.126-15.849L115.883-83.762z"/>
				<path style="fill:#DD2E44;" d="M123.995-100.533l-12.846,7.396l-2.583-6.36l4.153-1.035H123.995z"/>
				<path style="fill:#DD2E44;" d="M298.667-100.533l2.48,0.614l-2.514,6.337l-12.22-6.952H298.667z"/>
				<path style="fill:#DD2E44;" d="M290.395-78.335l3.538-5.825l-22.756-9.921L290.395-78.335z"/>
				<path style="fill:#DD2E44;" d="M279.654-64.693l4.483-5.143l-20.776-13.619L279.654-64.693z"/>
				<path style="fill:#DD2E44;" d="M266.775-53.088l5.279-4.312l-18.17-16.93L266.775-53.088z"/>
				<path style="fill:#DD2E44;" d="M252.132-43.781l5.928-3.368l-15.053-19.752L252.132-43.781z"/>
				<path style="fill:#DD2E44;" d="M236.1-37.091l6.406-2.321l-11.492-22.005L236.1-37.091z"/>
				<path style="fill:#DD2E44;" d="M219.182-33.211l6.724-1.206l-7.634-23.632L219.182-33.211z"/>
			</g>
		</g>
	</g>
</g>
<g>
</g>
<g>
</g>
<g>
</g>
<g>
</g>
<g>
</g>
<g>
</g>
<g>
</g>
<g>
</g>
<g>
</g>
<g>
</g>
<g>
</g>
<g>
</g>
<g>
</g>
<g>
</g>
<g>
</g>
</svg>
