<?xml version="1.0" encoding="iso-8859-1"?>
<!-- Generator: Adobe Illustrator 19.0.0, SVG Export Plug-In . SVG Version: 6.00 Build 0)  -->
<svg xmlns="http://www.w3.org/2000/svg" xmlns:xlink="http://www.w3.org/1999/xlink" version="1.1" id="Capa_1" x="0px" y="0px" viewBox="0 0 512 512" style="enable-background:new 0 0 512 512;" xml:space="preserve">
<path style="fill:#D21034;" d="M455.111,71.111H56.889C25.472,71.111,0,96.583,0,128v256c0,31.417,25.472,56.889,56.889,56.889  h398.222C486.528,440.889,512,415.417,512,384V128C512,96.583,486.528,71.111,455.111,71.111z M426.667,355.556H85.333V156.444  h341.333V355.556z"/>
<path style="fill:#007E3A;" d="M85.333,355.556h341.333V156.444H85.333V355.556z"/>
<path style="fill:#FFFFFF;" d="M279.319,317.778c3.968,0,7.836-0.384,11.577-1.095c-28.572-5.433-50.19-30.521-50.19-60.686  c0-30.151,21.618-55.253,50.19-60.672c-3.74-0.711-7.609-1.109-11.577-1.109c-34.119,0-61.781,27.662-61.781,61.781  S245.2,317.778,279.319,317.778"/>
<g>
</g>
<g>
</g>
<g>
</g>
<g>
</g>
<g>
</g>
<g>
</g>
<g>
</g>
<g>
</g>
<g>
</g>
<g>
</g>
<g>
</g>
<g>
</g>
<g>
</g>
<g>
</g>
<g>
</g>
</svg>
