<?xml version="1.0" encoding="iso-8859-1"?>
<!-- Generator: Adobe Illustrator 19.0.0, SVG Export Plug-In . SVG Version: 6.00 Build 0)  -->
<svg xmlns="http://www.w3.org/2000/svg" xmlns:xlink="http://www.w3.org/1999/xlink" version="1.1" id="Capa_1" x="0px" y="0px" viewBox="0 0 512 512" style="enable-background:new 0 0 512 512;" xml:space="preserve">
<path style="fill:#00A551;" d="M455.111,71.111H56.889C25.472,71.111,0,96.583,0,128v35.974V256v92.863V384  c0,31.417,25.472,56.889,56.889,56.889h398.222C486.528,440.889,512,415.417,512,384v-35.137V256v-92.026V128  C512,96.583,486.528,71.111,455.111,71.111z"/>
<path style="fill:#EA2839;" d="M455.111,71.111H56.889C25.472,71.111,0,96.583,0,128v35.974h512V128  C512,96.583,486.528,71.111,455.111,71.111z"/>
<rect y="163.974" style="fill:#1A206D;" width="512" height="92.026"/>
<rect y="256" style="fill:#FFD500;" width="512" height="92.863"/>
<g>
</g>
<g>
</g>
<g>
</g>
<g>
</g>
<g>
</g>
<g>
</g>
<g>
</g>
<g>
</g>
<g>
</g>
<g>
</g>
<g>
</g>
<g>
</g>
<g>
</g>
<g>
</g>
<g>
</g>
</svg>
