<?xml version="1.0" encoding="iso-8859-1"?>
<!-- Generator: Adobe Illustrator 19.0.0, SVG Export Plug-In . SVG Version: 6.00 Build 0)  -->
<svg xmlns="http://www.w3.org/2000/svg" xmlns:xlink="http://www.w3.org/1999/xlink" version="1.1" id="Capa_1" x="0px" y="0px" viewBox="0 0 512 512" style="enable-background:new 0 0 512 512;" xml:space="preserve">
<g>
	<g>
		<g transform="matrix(1.25 0 0 -1.25 0 45)">
			<path style="fill:#CF142B;" d="M364.089-20.889H204.8v-295.822h159.289c25.134,0,45.511,20.378,45.511,45.511v204.8     C409.6-41.266,389.222-20.889,364.089-20.889"/>
			<path style="fill:#EEEEEE;" d="M45.511-20.889C20.378-20.889,0-41.266,0-66.4v-204.8c0-25.134,20.378-45.511,45.511-45.511H204.8     v295.822H45.511z"/>
			<g>
				<path style="fill:#CF142B;" d="M117.714-104.447H18.83v30.583h98.884V-104.447z"/>
				<path style="fill:#CF142B;" d="M83.558-138.603H52.975v98.884h30.583V-138.603z"/>
				<path style="fill:#CF142B;" d="M64.046-103.617c0-5.791-4.688-10.49-10.479-10.49c-5.78,0-10.479,4.699-10.479,10.49      c0,5.78,4.699,10.479,10.479,10.479C59.358-93.138,64.046-97.837,64.046-103.617"/>
				<path style="fill:#CF142B;" d="M94.162-103.264c0-5.791-4.699-10.49-10.479-10.49c-5.791,0-10.479,4.699-10.479,10.49      c0,5.78,4.688,10.479,10.479,10.479C89.463-92.785,94.162-97.484,94.162-103.264"/>
				<path style="fill:#CF142B;" d="M64.068-75.73c0-5.791-4.688-10.479-10.49-10.479c-5.78,0-10.468,4.688-10.468,10.479      c0,5.78,4.688,10.479,10.468,10.479C59.381-65.251,64.068-69.95,64.068-75.73"/>
				<path style="fill:#CF142B;" d="M94.162-75.73c0-5.791-4.699-10.479-10.479-10.479c-5.791,0-10.479,4.688-10.479,10.479      c0,5.78,4.688,10.479,10.479,10.479C89.463-65.251,94.162-69.95,94.162-75.73"/>
			</g>
			<path id="SVGCleanerId_0" style="fill:#99AAB5;" d="M61.633-103.617c0-4.449-3.607-8.055-8.055-8.055     c-4.46,0-8.067,3.607-8.067,8.055c0,4.449,3.607,8.055,8.067,8.055C58.027-95.561,61.633-99.168,61.633-103.617"/>
			<g>
				<path style="fill:#99AAB5;" d="M91.705-103.264c0-4.449-3.607-8.055-8.055-8.055c-4.46,0-8.067,3.607-8.067,8.055      c0,4.449,3.607,8.067,8.067,8.067C88.098-95.197,91.705-98.815,91.705-103.264"/>
				<path style="fill:#99AAB5;" d="M61.645-75.73c0-4.449-3.607-8.055-8.067-8.055c-4.449,0-8.055,3.607-8.055,8.055      c0,4.449,3.607,8.055,8.055,8.055C58.038-67.674,61.645-71.281,61.645-75.73"/>
			</g>
			<g transform="translate(2.647 2.447)">
				<path id="SVGCleanerId_0_1_" style="fill:#99AAB5;" d="M91.75-75.775c0-4.449-3.607-8.055-8.055-8.055      c-4.46,0-8.067,3.607-8.067,8.055c0,4.449,3.607,8.055,8.067,8.055C88.144-67.72,91.75-71.327,91.75-75.775"/>
			</g>
			<g>
				<path style="fill:#CCD6DD;" d="M89.304-89.52c0-11.412-9.25-20.673-20.673-20.673c-11.412,0-20.673,9.262-20.673,20.673      s9.262,20.673,20.673,20.673C80.054-68.846,89.304-78.108,89.304-89.52"/>
				<path style="fill:#CCD6DD;" d="M79.644-134.667H56.889v91.022h22.756V-134.667z"/>
				<path style="fill:#CCD6DD;" d="M113.778-100.533H22.756v22.756h91.022V-100.533z"/>
			</g>
			<g>
				<g style="opacity:0.5;">
					<path style="fill:#99AAB5;" d="M81.761-89.52c0-7.248-5.882-13.13-13.13-13.13c-7.259,0-13.141,5.882-13.141,13.13       c0,7.248,5.882,13.13,13.141,13.13C75.878-76.39,81.761-82.272,81.761-89.52"/>
				</g>
				<path style="fill:#99AAB5;" d="M75.628-89.417c0.171,0.193,0.364,0.364,0.546,0.535c0.034,0.034,0.068,0.057,0.102,0.091      c0.489-0.239,0.944-0.546,1.399-0.831c0.91-0.558,3.8,0.751,2.48,1.559c-1.115,0.694-2.241,1.502-3.641,1.263      c-1.035-0.182-1.923-0.717-2.708-1.399c-0.091,0.705-0.171,1.411-0.319,2.105c0.205,0.228,0.341,0.478,0.284,0.785      c-0.125,0.66,0.228,1.377,0.455,1.991c0.114,0.296-0.034,0.501-0.273,0.626c0.091,0.148,0.182,0.284,0.273,0.421      c0.398-0.137,0.808-0.273,1.229-0.353c0.717-0.148,1.661,0.148,2.23,0.592c0.523,0.421,0.341,0.831-0.262,0.956      c-1.07,0.205-2.059,0.762-3.049,1.195c-0.66,0.284-1.627-0.011-2.219-0.33c-0.375-0.216-0.956-0.762-0.353-1.058      c-0.068-0.068-0.148-2.492-0.182-2.571c-0.501-1.092-1.354,6.064-1.923-5.313h-0.216c-0.182,0-1.604,3.925-1.525,4.71      c0.842,0.171,0.307,3.004,0.307,3.584v0.33c0,0.159,1.286,0.284,1.195,0.375c0.341,0.216,1.32,0.512,1.024,0.762      c-0.478,0.398-1.138,0.137-1.661-0.068c-0.159,0.08-0.159,0.137-0.319,0.159c-0.114,0.011-0.159,0-0.273,0      c0.614,0.25,1.138,0.66,0.99,1.115c-0.091,0.296-0.159,0.523,0,0.808c0.762,1.308-2.389,1.013-2.924,0.091      c-0.33-0.58-0.387-1.092-0.182-1.741c0.137-0.432,0.683-0.569,1.286-0.512c-0.319-0.171-0.603-0.421-0.774-0.751      c-0.011-0.034-0.011-0.068-0.034-0.102c-0.478,0-1.024-0.148-1.354-0.284c-1.832-0.785-3.755-1.354-5.484-2.378      c-0.273-0.171-1.058-0.717-0.341-0.944c0.432-0.137,0.99-0.068,1.49,0.08c0.023-0.068,0.023-0.148,0.068-0.216      c0.444-0.58,1.104-1.115,1.752-1.434c0.694-0.341,1.616-0.148,2.241,0.262c0.41,0.262,0.853,0.91,0.341,1.274      c0.193,0.273,0.489,0.489,0.774,0.694c0.034-0.728,0.125-1.456,0.307-2.094c0.046-0.182,0.148-0.319,0.262-0.432      c-0.375-0.08-0.74-0.228-1.024-0.398c-0.375-0.228-0.819-0.74-0.466-1.092c-0.808-0.148-1.593-0.353-2.332-0.705      c-0.284-0.125-0.91-0.489-0.978-0.876c-0.364-0.046-0.728-0.08-1.092-0.148c-0.58-0.091-1.525-0.364-1.741-1.024      c-0.273-0.011-0.592-0.068-0.819-0.125c-0.671-0.091-1.934-0.387-1.991-0.978c-0.091-1.047,0.444-1.889,0.899-2.788      c-0.421-0.41-0.717-0.876-0.853-1.502c-0.273-1.354,2.924-0.865,3.163,0.33c0.034,0.182,0.057,0.364,0.216,0.489      c0.387,0.284,0.796,0.831,0.432,1.229c0.137,0.102,0.228,0.205,0.182,0.284c-0.398,0.774-0.819,1.525-0.876,2.389      c0.171-0.057,0.364-0.102,0.546-0.114c0.216-1.161,1.092-2.185,1.946-2.958c0.205-0.171,0.58-0.193,0.99-0.137      c-0.159-0.137-0.307-0.296-0.387-0.478c-0.387-0.978-0.546-1.968-0.671-3.004c-0.046-0.421,0.273-0.831,0.683-0.922      c1.32-0.307,2.378-0.944,3.447-1.752c1.104-0.842,3.857,0.705,2.423,1.798c-1.013,0.774-2.082,1.411-3.277,1.82      c0.08,0.58,0.171,1.161,0.398,1.695c0.08,0.205,0.102,0.387,0.08,0.546c0.262,0.102,0.512,0.205,0.74,0.353      c2.025,1.217,4.506,1.49,6.679,2.48c-0.102-0.33,0.102-0.626,0.558-0.74c0.922-0.216,2.628-0.193,2.935-1.274      c0.307-1.081-0.057-2.378,0.637-3.334c0.637-0.887,3.675,0.182,2.913,1.24c-0.273,0.364-0.216,1.081-0.239,1.513      c-0.046,0.671-0.068,1.365-0.387,1.991c-0.649,1.217-2.765,1.32-3.948,1.604c-0.398,0.091-0.865,0.614-1.297,0.489      c0,0.08-0.08,0.808-0.273,0.808h-0.068c0.011,0,0.011-0.546,0.023-0.535C74.513-89.656,75.184-89.952,75.628-89.417"/>
			</g>
		</g>
	</g>
</g>
<g>
</g>
<g>
</g>
<g>
</g>
<g>
</g>
<g>
</g>
<g>
</g>
<g>
</g>
<g>
</g>
<g>
</g>
<g>
</g>
<g>
</g>
<g>
</g>
<g>
</g>
<g>
</g>
<g>
</g>
</svg>
