<?xml version="1.0" encoding="iso-8859-1"?>
<!-- Generator: Adobe Illustrator 19.0.0, SVG Export Plug-In . SVG Version: 6.00 Build 0)  -->
<svg xmlns="http://www.w3.org/2000/svg" xmlns:xlink="http://www.w3.org/1999/xlink" version="1.1" id="Capa_1" x="0px" y="0px" viewBox="0 0 511.999 511.999" style="enable-background:new 0 0 511.999 511.999;" xml:space="preserve">
<g transform="matrix(1.25 0 0 -1.25 0 45)">
	<g>
		<path style="fill:#00247D;" d="M364.089-20.89H45.515c-25.133,0-45.511-20.378-45.511-45.511v-204.798    c0-25.133,20.378-45.511,45.511-45.511h318.574c25.133,0,45.511,20.378,45.511,45.511v204.798    C409.599-41.267,389.223-20.89,364.089-20.89z"/>
		<g>
			<g>
				<g>
					<path style="fill:#EEEEEE;" d="M216.179-168.8v23.085l-80.781,56.559H75.905L189.647-168.8H216.179z"/>
					<path style="fill:#CF1B2B;" d="M216.179-152.666l-90.691,63.51h-19.831l110.522-77.391V-152.666z"/>
					<path style="fill:#EEEEEE;" d="M92.159-89.156L0-154.759v-14.04h37.91l113.754,79.644L92.159-89.156L92.159-89.156z"/>
					<path style="fill:#CF1B2B;" d="M121.904-89.156L8.355-168.8h3.026h16.623l113.742,79.644H121.904z"/>
					<path style="fill:#EEEEEE;" d="M189.658-20.89L75.916-100.534h59.493l80.77,56.559v23.085H189.658z"/>
					<path style="fill:#CF1B2B;" d="M199.558-20.89L85.827-100.534h19.831L216.18-23.143v2.253H199.558z"/>
				</g>
				<path style="fill:#EEEEEE;" d="M7.545-41.318l106.235-74.36v15.144h37.865L38.651-21.406      C25.67-23.37,14.494-30.822,7.545-41.318z"/>
				<path style="fill:#CF1B2B;" d="M11.028-36.724l102.753-72.024v8.214h8.123L19.671-28.947      C16.467-31.163,13.564-33.78,11.028-36.724z"/>
			</g>
			<g>
				<path style="fill:#EEEEEE;" d="M216.179-66.401h-79.644v45.511H79.648v-45.511H0.004v-56.888h79.644V-168.8h56.888v45.511      h79.644V-66.401z"/>
				<g>
					<path style="fill:#CF1B2B;" d="M125.158-168.8H91.025V-20.89h34.133V-168.8z"/>
					<path style="fill:#CF1B2B;" d="M216.179-111.911H0.004v34.133h216.175V-111.911z"/>
				</g>
			</g>
		</g>
	</g>
	<g>
		<g transform="translate(32.948 15.732)">
			<path style="fill:#55ACEE;" d="M341.93-210.331c0.307,2.639,0.443,5.382,0.443,8.271v80.133H228.745v-80.133     c0-2.89,0.136-5.632,0.443-8.271H341.93z"/>
			<path style="fill:#9F1D22;" d="M341.93-210.331c-1.605-13.938-7.395-24.246-16.805-32.642     c-16.27-14.541-39.56-17.737-39.56-21.197c0,3.458-23.302,6.656-39.582,21.197c-9.398,8.397-15.189,18.705-16.794,32.642H341.93z     "/>
		</g>
		<path style="fill:#9F1D22;" d="M374.934-194.91h-112.89l-0.353,3.151h113.776L374.934-194.91z"/>
		<path d="M322.468-131.861h21.549v7.145h-21.549v9.602h-7.544v-9.602H293v-7.145h21.925v-90.497h7.544V-131.861z"/>
		<path style="fill:#77B253;" d="M322.468-142.511c1.297,1.126,1.991,1.798,2.776,1.684c0.808-0.136,1.889-0.069,2.685,0.171    c0.808,0.25,4.79,0.74,6.428,0.193c0.546-0.069,1.286-0.364,2.424-1.331c1.149-0.955,2.822-2.629,2.253-7.247    c-0.569-4.62-0.376-6.599-0.614-9.171c-0.421-4.563-1.457-8.328-3.265-8.021c2.469-4.312,2.708-8.01,4.301-10.968    c1.605-2.958,2.617-9,1.979-15.53c-0.626-6.53-2.344-21.197,2.833-31.073c-0.865-0.603-2.958,0-4.813,1.979    c-1.832,1.979-2.651,1.9-4.187,0.74c-4.665-3.561-9.057-7.896-15.53-3.561c-1.479,0.979-1.934,2.162-0.865,5.165    c2.719,7.521,4.027,17.829,3.596,22.676L322.468-142.511L322.468-142.511z"/>
		<path style="fill:#FAAA34;" d="M296.077-198.311c3.948-4.062,16.27-17.101,17.851-18.58c1.605-1.479,2.355-1.365,2.981,0.114    c4.46,10.729,3.334,24.393-7.714,37.853c-1.786-6.611-6.383-10.911-13.608-12.459c-3.675-0.785-4.312-3.151-3.641-4.062    c1.001,1.775,3.208,1.843,4.267-0.193c0.842-1.672-0.273-3.766-2.117-4.324c-1.843-0.535-4.563-0.478-5.666,1.434    c-1.115,1.9-2.025,6.349,3.084,8.545c5.12,2.241,10.604,4.517,11.639,9.08c1.058,4.563,2.469,6.781,5.552,7.077    c17.066-15.713,19.228-33.28,12.14-48.981c-1.729-3.812-4.437-4.813-6.292-2.48c-1.843,2.355-14.757,17.624-21.413,25.145    C294.667-200.041,295.679-199.187,296.077-198.311"/>
		<g>
			<path style="fill:#F6DDCD;" d="M326.922-137.877c0.341-1.058,0.524-2.412-0.034-3.629c-0.569-1.24-0.671-2.719,0.25-4.517     c1.479,2.105,3.572,1.672,4.79,2.901c1.252,1.24,1.491,2.412,2.424,2.651c-0.933,0.796-2.355,1.661-2.036,4.005     c0.307,2.344,3.572,4.255,0.603,7.828c-1.9,2.31-4.677,1.661-5.871,0.774c-0.569-0.421-1.047-1.024-1.252-1.422     c-0.159-0.398,0.057-1.297-0.398-1.843c-0.296-0.376-0.66-0.74-1.093-1.047c-0.284-0.205-0.455-0.489-0.159-0.831     c0.114-0.148,0.33-0.171,0.569-0.25c-0.125-0.284-0.296-0.557-0.443-0.762c-0.148-0.182-0.091-0.364,0.091-0.512     c-0.239-0.74,0.228-0.831-0.091-1.377c-0.262-0.478-0.626-1.047,0.364-1.605C324.909-137.673,326.229-137.968,326.922-137.877"/>
			<path style="fill:#F6DDCD;" d="M314.923-150.15c-1.707-0.433-4.472,0.307-6.599,0.057c-0.91-0.102-1.65,0.376-1.536,1.297     c0.125,0.933,0.262,2.355,0.069,3.641c-0.273,2.014,0.683,4.801,2.036,7.885c1.365,3.084,2.036,4.813,2.036,6.258     c0,0.967,0.079,2.036,0.945,2.594c0.648,0.41,0.774,0.796,1.001,1.138c0.512,0.774,1.012,0.955,1.058,0.5     c0.057-0.284-0.045-0.535-0.284-0.91c0.557,0.467,1.479,1.012,1.718,1.172c0.205,0.148,1.286,0.91,1.343,0.193     c0.443,0.216,0.751,0.193,0.831-0.023c0.125-0.262,0.045-0.376-0.148-0.557c0.296,0.079,0.66-0.467,0.057-0.955     c0.307,0.114,0.626-0.421,0.069-0.91c-0.591-0.512-1.286-0.865-1.502-1.274c-0.205-0.398-1.684-1.513-2.253-1.764     s-0.603-0.581-0.603-1.445c0-9.5-1.16-8.726-1.16-11.002c0-0.626-0.125-1.183,0.489-0.979c0.637,0.171,1.524,0.455,2.434,0.455     L314.923-150.15L314.923-150.15z"/>
			<path style="fill:#F6DDCD;" d="M315.312-170.611c2.788,1.41,5.962,1.9,7.635,2.355c1.661,0.421,4.324,1.707,5.609,2.389     s2.332,1.605,3.084,1.855c0.74,0.239,1.57,0.751,2.025,1.672c2.412,4.677,3.698,8.431,3.698,11.696     c0,2.15-0.557,4.551-2.651,2.844c-1.957-1.627-4.096-4.756-4.677-7.032c-0.876-3.458-1.593-4.187-1.786-4.881     c-0.182-0.671-0.876-0.671-1.741-0.853c-3.618-0.808-4.482-1.354-7.191-3.391c-2.731-2.036-5.666-3.823-7.657-4.927     c-1.968-1.103-2.321-1.229-2.765-2.127c-0.443-0.898-0.831-1.57-1.206-1.979c-0.376-0.387-0.489-0.865-0.398-1.354     c0.069-0.398-0.114-2.241-0.159-2.867c-0.023-0.603,0.125-0.774,0.376-0.796c0.239-0.023,0.581,0.091,0.717,0.831     c-0.136-0.74,0.899-0.489,0.955,0.057c-0.034-0.796,1.047-0.33,1.115,0.41c0-0.512,0.808-0.159,0.876,0.091     c0.182,0.626,0.353,1.286,0.591,1.786c0.353,0.717,0.751,1.65,1.445,2.162C314.016-172.078,313.651-171.441,315.312-170.611"/>
			<path style="fill:#F6DDCD;" d="M335.267-221.088c0.205-0.671,0.524-1.445,0.66-1.889c0.125-0.467-0.102-0.614-0.228-0.888     c-0.648-1.331-1.331-3.493-1.434-4.665c-0.079-0.694-0.535-1.343-0.751-1.729c-0.239-0.433-0.159-0.796,0.398-1.217     c0.262-0.193,1.115,0.069,1.195,0.489c0.33-0.296,0.888-0.171,1.115,0.296c0.273-0.296,0.74-0.091,1.047,0.376     c0.284-0.193,0.683,0.159,0.842,0.433c0.421-0.228,0.888,0.034,0.898,0.888c0,0.148,0.114,0.467,0.25,0.637     c0.091,0.205,0.148,0.603,0.136,0.945c-0.012,0.353,0.205,1.012,0.5,1.502c0.296,0.467,0.808,1.308,0.569,2.117     c-0.182,0.751-0.524,0.683-0.785,1.764c-0.683,0.717-1.605,1.695-2.56,1.741C336.155-220.223,335.598-220.849,335.267-221.088"/>
			<path style="fill:#F6DDCD;" d="M317.746-226.376c0.853-0.865,2.788-0.899,4.165,0.557c-0.5,0.216-1.581,0.705-2.071,1.103     C319.157-225.386,318.383-226.16,317.746-226.376"/>
		</g>
		<g transform="translate(28.693 21.551)">
			<path style="fill:#955C0F;" d="M297.774-149.945c0.33,2.196,1.877,2.127,2.867,1.912c0.398-0.091,1.377-0.182,2.298,0.069     c1.82,0.478,3.208-0.159,3.038-1.923c0.489-0.353,1.001-1.229,0.91-1.957c-0.079-0.74,0.069-1.058,0.728-1.149     c0.683-0.091,2.139-0.922,1.183-2.093c0.933-0.557,1.627-1.968,1.138-2.936c-0.489-0.945-1.979-1.093-2.572-0.239     c-0.694-0.307-1.786-0.364-2.48,0.341c-0.467-0.546-1.65-0.489-1.866,0c-0.205,0.489-0.557,0.751-1.001,0.888     c-0.489,0.159-0.535,1.513,0.228,1.672c-0.114,0.398-0.069,0.865,0.114,1.069c0.171,0.228,0.034,0.626-0.41,0.955     c-0.421,0.341-0.796,1.638-0.376,2.344c-0.728-0.239-2.367,0.467-2.708,0.955C298.548-149.547,298.081-149.513,297.774-149.945"/>
			<path d="M308.527-158.83c-0.49,0-0.914,0.205-1.163,0.561c-0.315-0.139-0.686-0.216-1.044-0.216c-0.404,0-0.98,0.096-1.435,0.555     c-0.209-0.242-0.581-0.386-0.996-0.386c-0.427,0-0.77,0.154-0.875,0.392c-0.187,0.446-0.514,0.735-0.998,0.884     c-0.262,0.085-0.378,0.484-0.36,0.832c0.019,0.354,0.182,0.762,0.582,0.848c-0.115,0.407-0.064,0.865,0.116,1.068     c0.059,0.078,0.081,0.178,0.064,0.29c-0.032,0.218-0.204,0.458-0.474,0.658c-0.438,0.355-0.788,1.639-0.383,2.339     c-0.095-0.029-0.208-0.044-0.337-0.044c-0.825,0-2.071,0.586-2.363,1.006c-0.165,0.252-0.372,0.391-0.586,0.391     c-0.184,0-0.361-0.106-0.498-0.3l-0.009,0.003c0.202,1.339,0.883,2.017,2.027,2.017c0.256,0,0.533-0.033,0.847-0.101     c0.096-0.022,0.453-0.094,0.992-0.094c0.468,0,0.907,0.054,1.303,0.162c0.388,0.102,0.758,0.154,1.1,0.154     c0.668,0,1.2-0.197,1.539-0.571c0.33-0.364,0.467-0.871,0.405-1.508c0.512-0.371,1-1.246,0.91-1.96     c-0.085-0.778,0.091-1.057,0.724-1.144c0.461-0.061,1.217-0.443,1.438-1.001c0.139-0.352,0.056-0.72-0.248-1.095     c0.93-0.56,1.628-1.963,1.134-2.939C309.688-158.514,309.134-158.83,308.527-158.83z M307.368-158.256l0.002-0.003     c0.247-0.356,0.668-0.561,1.157-0.561c0.602,0,1.155,0.314,1.405,0.799c0.492,0.973-0.207,2.373-1.136,2.929l-0.005,0.003     l0.004,0.004c0.305,0.373,0.389,0.74,0.25,1.09c-0.219,0.555-0.972,0.934-1.43,0.996c-0.632,0.087-0.817,0.378-0.733,1.155     c0.089,0.712-0.398,1.584-0.908,1.953l-0.003,0.002v0.003c0.061,0.636-0.074,1.141-0.402,1.503     c-0.338,0.371-0.868,0.568-1.532,0.568c-0.341,0-0.709-0.052-1.098-0.153c-0.397-0.108-0.836-0.162-1.306-0.162     c-0.54,0-0.898,0.072-0.995,0.094c-0.312,0.069-0.588,0.101-0.844,0.101c-1.132,0-1.81-0.669-2.014-1.989     c0.138,0.185,0.312,0.287,0.494,0.287c0.218,0,0.428-0.141,0.594-0.395c0.292-0.418,1.534-1.001,2.356-1.001     c0.133,0,0.25,0.017,0.347,0.048l0.013,0.004l-0.007-0.012c-0.414-0.694-0.064-1.983,0.374-2.337     c0.271-0.202,0.445-0.444,0.477-0.665c0.017-0.115-0.007-0.218-0.067-0.298c-0.18-0.203-0.228-0.66-0.113-1.065l0.002-0.005     l-0.005-0.001c-0.399-0.084-0.561-0.489-0.58-0.84c-0.019-0.346,0.096-0.74,0.352-0.822c0.488-0.15,0.817-0.442,1.005-0.89     c0.104-0.234,0.443-0.386,0.866-0.386c0.414,0,0.785,0.145,0.991,0.387l0.004,0.004l0.003-0.004     c0.453-0.46,1.029-0.556,1.431-0.556c0.357,0,0.728,0.077,1.044,0.217L307.368-158.256z"/>
		</g>
		<path d="M326.923-137.882l-0.002,0.01c0.587,0.078,0.986,0.292,1.338,0.481c0.35,0.188,0.656,0.352,1.066,0.352    c0.033,0,0.066-0.001,0.1-0.003v-0.01c-0.034,0.002-0.067,0.003-0.1,0.003c-0.407,0-0.713-0.164-1.062-0.351    C327.912-137.59,327.512-137.804,326.923-137.882z"/>
		<path d="M325.182-160.875l-0.007,0.008c0.878,0.804,1.306,2.082,1.308,3.908c0.002,1.559-0.312,3.259-0.564,4.623l-0.029,0.157    c-0.423,2.406-0.006,4.478,1.242,6.16l0.008-0.006c-1.246-1.679-1.663-3.749-1.239-6.151l0.028-0.157    c0.253-1.365,0.566-3.064,0.565-4.625C326.49-158.788,326.062-160.068,325.182-160.875z"/>
		<path d="M328.28-167.388c-0.665,0-1.332,0.137-1.887,0.417l0.004,0.009c1.271-0.642,3.118-0.531,4.206,0.249    c1.074,0.772,3.113,0.79,4.555,0.479l-0.003-0.01c-1.436,0.31-3.474,0.294-4.547-0.477    C329.994-167.161,329.138-167.388,328.28-167.388z"/>
	</g>
</g>
<g>
</g>
<g>
</g>
<g>
</g>
<g>
</g>
<g>
</g>
<g>
</g>
<g>
</g>
<g>
</g>
<g>
</g>
<g>
</g>
<g>
</g>
<g>
</g>
<g>
</g>
<g>
</g>
<g>
</g>
</svg>
