<?xml version="1.0" encoding="iso-8859-1"?>
<!-- Generator: Adobe Illustrator 19.0.0, SVG Export Plug-In . SVG Version: 6.00 Build 0)  -->
<svg xmlns="http://www.w3.org/2000/svg" xmlns:xlink="http://www.w3.org/1999/xlink" version="1.1" id="Capa_1" x="0px" y="0px" viewBox="0 0 512 512" style="enable-background:new 0 0 512 512;" xml:space="preserve">
<path style="fill:#006233;" d="M455.111,71.111H56.889C25.472,71.111,0,96.583,0,128v256c0,31.417,25.472,56.889,56.889,56.889  h398.222C486.528,440.889,512,415.417,512,384V128C512,96.583,486.528,71.111,455.111,71.111z"/>
<g>
	<path style="fill:#FFC400;" d="M255.993,305.779c-58.724,0-106.354-47.46-106.652-106.112c-2.318,8.903-3.57,18.247-3.57,27.89   c0,60.871,49.351,110.222,110.222,110.222c60.885,0,110.222-49.351,110.222-110.222c0-9.643-1.237-18.987-3.556-27.89   C362.361,258.32,314.731,305.779,255.993,305.779z"/>
	<polygon style="fill:#FFC400;" points="230.923,233.63 255.997,215.411 281.085,233.63 271.499,204.147 296.573,185.929    265.583,185.929 255.997,156.446 246.426,185.929 215.421,185.929 240.495,204.147  "/>
</g>
<g>
</g>
<g>
</g>
<g>
</g>
<g>
</g>
<g>
</g>
<g>
</g>
<g>
</g>
<g>
</g>
<g>
</g>
<g>
</g>
<g>
</g>
<g>
</g>
<g>
</g>
<g>
</g>
<g>
</g>
</svg>
