<?xml version="1.0" encoding="iso-8859-1"?>
<!-- Generator: Adobe Illustrator 19.0.0, SVG Export Plug-In . SVG Version: 6.00 Build 0)  -->
<svg xmlns="http://www.w3.org/2000/svg" xmlns:xlink="http://www.w3.org/1999/xlink" version="1.1" id="Capa_1" x="0px" y="0px" viewBox="0 0 512 512" style="enable-background:new 0 0 512 512;" xml:space="preserve">
<g transform="matrix(1.25 0 0 -1.25 0 45)">
	<g>
		<g>
			<path style="fill:#21428E;" d="M409.6-271.2c0-25.134-20.378-45.511-45.511-45.511H45.511C20.378-316.711,0-296.334,0-271.2     v204.8c0,25.134,20.378,45.511,45.511,45.511h318.578c25.134,0,45.511-20.378,45.511-45.511V-271.2z"/>
			<g>
				<path style="fill:#EEEEEE;" d="M227.556-316.711h-45.511v295.822h45.511V-316.711z"/>
				<path style="fill:#EEEEEE;" d="M409.6-191.556H0v45.511h409.6V-191.556z"/>
			</g>
			<g>
				<path style="fill:#FFFFFF;" d="M75.719-118.999c3.072,3.538,45.522,5.154,43.213-0.66      C115.962-127.135,71.999-123.278,75.719-118.999 M76.971-43.292c-1.422-1.422-2.662-0.887-1.24,0.887      C77.153-40.629,78.393-41.87,76.971-43.292 M130.128-114.756c-4.267,7.589-41.95,10.661-55.694,3.789      c12.322,10.661,49.3,2.844,50.483,20.389c0.944,13.961-25.361,12.8-35.556,15.406c-10.183,2.606-1.183,5.45,6.633,8.772      c7.828,3.322,16.361,6.394,14.461,17.692c-1.889,11.287-21.094,10.513-29.867,10.98c-8.772,0.478-19.911-2.844-17.306-8.294      c-6.872-2.844-14.928-2.367-19.672,0c-0.057-1.889,2.958-2.606,2.958-2.606l-5.086-1.183c5.928-2.844,18.25-1.422,23.461,1.183      c0.956-1.183,4.267-1.9,17.067-1.183c12.8,0.705,14.222,3.083,17.306,0.239c5.177-4.779-5.689-6.645-19.433-11.617      c-13.756-4.983-7.828-17.067-0.478-20.855c7.35-3.789,14.7-3.47,27.022-5.461c12.334-2.002,3.561-4.494-3.55-4.972      c-2.617-0.182-23.472-0.944-34.611-6.872c-13.016-6.929-10.433-15.644-11.617-17.067c-1.183-1.422-12.561-0.956-21.333,1.661      c3.083-8.533,17.783-8.533,22.994-8.772c5.211-0.239,9.956-12.561,41.483-12.095      C131.322-135.145,134.394-122.345,130.128-114.756"/>
				<path style="fill:#FFFFFF;" d="M312.752-118.999c3.072,3.538,45.522,5.154,43.213-0.66      C352.996-127.135,309.032-123.278,312.752-118.999 M314.004-43.292c-1.422-1.422-2.662-0.887-1.24,0.887      C314.186-40.629,315.426-41.87,314.004-43.292 M367.161-114.756c-4.267,7.589-41.95,10.661-55.694,3.789      c12.334,10.661,49.3,2.844,50.483,20.389c0.944,13.961-25.361,12.8-35.556,15.406c-10.183,2.606-1.183,5.45,6.633,8.772      c7.828,3.322,16.361,6.394,14.461,17.692c-1.889,11.287-21.094,10.513-29.867,10.98c-8.772,0.478-19.911-2.844-17.306-8.294      c-6.872-2.844-14.928-2.367-19.672,0c-0.057-1.889,2.97-2.606,2.97-2.606l-5.109-1.183c5.939-2.844,18.261-1.422,23.472,1.183      c0.956-1.183,4.267-1.9,17.067-1.183c12.8,0.705,14.222,3.083,17.306,0.239c5.177-4.779-5.689-6.645-19.445-11.617      c-13.744-4.983-7.817-17.067-0.466-20.855c7.361-3.789,14.689-3.47,27.022-5.461c12.333-2.002,3.561-4.494-3.55-4.972      c-2.617-0.182-23.472-0.944-34.611-6.872c-13.016-6.929-10.433-15.644-11.617-17.067c-1.172-1.422-12.561-0.956-21.333,1.661      c3.095-8.533,17.783-8.533,22.994-8.772c5.211-0.239,9.956-12.561,41.472-12.095      C368.356-135.145,371.428-122.345,367.161-114.756"/>
				<path style="fill:#FFFFFF;" d="M75.719-284.444c3.072,3.539,45.522,5.154,43.213-0.671      C115.962-292.579,71.999-288.733,75.719-284.444 M76.971-208.747c-1.422-1.422-2.662-0.887-1.24,0.887      C77.153-206.074,78.393-207.325,76.971-208.747 M130.128-280.211c-4.267,7.589-41.95,10.672-55.694,3.789      c12.322,10.672,49.3,2.844,50.483,20.389c0.944,13.972-25.361,12.8-35.556,15.417c-10.183,2.594-1.183,5.439,6.633,8.761      c7.828,3.322,16.361,6.406,14.461,17.704c-1.889,11.287-21.094,10.513-29.867,10.98s-19.911-2.844-17.306-8.294      c-6.872-2.844-14.928-2.378-19.672,0c-0.057-1.9,2.958-2.606,2.958-2.606l-5.086-1.195c5.928-2.844,18.25-1.422,23.461,1.195      c0.956-1.195,4.267-1.9,17.067-1.195c12.8,0.717,14.222,3.095,17.306,0.25c5.177-4.779-5.689-6.645-19.433-11.628      c-13.756-4.972-7.828-17.067-0.478-20.855c7.35-3.789,14.7-3.459,27.022-5.45c12.334-2.002,3.561-4.506-3.55-4.983      c-2.617-0.182-23.472-0.944-34.611-6.861c-13.016-6.94-10.433-15.644-11.617-17.067c-1.183-1.422-12.561-0.956-21.333,1.65      c3.083-8.533,17.783-8.533,22.994-8.761c5.211-0.25,9.956-12.572,41.483-12.095C131.322-300.6,134.394-287.8,130.128-280.211"/>
				<path style="fill:#FFFFFF;" d="M312.752-284.444c3.072,3.539,45.522,5.154,43.213-0.671      C352.996-292.579,309.032-288.733,312.752-284.444 M314.004-208.747c-1.422-1.422-2.662-0.887-1.24,0.887      C314.186-206.074,315.426-207.325,314.004-208.747 M367.161-280.211c-4.267,7.589-41.95,10.672-55.694,3.789      c12.334,10.672,49.3,2.844,50.483,20.389c0.944,13.972-25.361,12.8-35.556,15.417c-10.183,2.594-1.183,5.439,6.633,8.761      c7.828,3.322,16.361,6.406,14.461,17.704c-1.889,11.287-21.094,10.513-29.867,10.98c-8.772,0.466-19.911-2.844-17.306-8.294      c-6.872-2.844-14.928-2.378-19.672,0c-0.057-1.9,2.97-2.606,2.97-2.606l-5.109-1.195c5.939-2.844,18.261-1.422,23.472,1.195      c0.956-1.195,4.267-1.9,17.067-1.195c12.8,0.717,14.222,3.095,17.306,0.25c5.177-4.779-5.689-6.645-19.445-11.628      c-13.744-4.972-7.817-17.067-0.466-20.855c7.361-3.789,14.689-3.459,27.022-5.45c12.333-2.002,3.561-4.506-3.55-4.983      c-2.617-0.182-23.472-0.944-34.611-6.861c-13.016-6.94-10.433-15.644-11.617-17.067c-1.172-1.422-12.561-0.956-21.333,1.65      c3.095-8.533,17.783-8.533,22.994-8.761c5.211-0.25,9.956-12.572,41.472-12.095C368.356-300.6,371.428-287.8,367.161-280.211"/>
			</g>
		</g>
	</g>
</g>
<g>
</g>
<g>
</g>
<g>
</g>
<g>
</g>
<g>
</g>
<g>
</g>
<g>
</g>
<g>
</g>
<g>
</g>
<g>
</g>
<g>
</g>
<g>
</g>
<g>
</g>
<g>
</g>
<g>
</g>
</svg>
