<?xml version="1.0" encoding="iso-8859-1"?>
<!-- Generator: Adobe Illustrator 19.0.0, SVG Export Plug-In . SVG Version: 6.00 Build 0)  -->
<svg xmlns="http://www.w3.org/2000/svg" xmlns:xlink="http://www.w3.org/1999/xlink" version="1.1" id="Capa_1" x="0px" y="0px" viewBox="0 0 512 512" style="enable-background:new 0 0 512 512;" xml:space="preserve">
<g transform="matrix(1.25 0 0 -1.25 0 45)">
	<g>
		<g>
			<path style="fill:#265FB5;" d="M409.6-271.2c0-25.134-20.378-45.511-45.511-45.511H45.511C20.378-316.711,0-296.334,0-271.2     v204.8c0,25.134,20.378,45.511,45.511,45.511h318.578c25.134,0,45.511-20.378,45.511-45.511V-271.2z"/>
			<path style="fill:#FFFFFF;" d="M270.188-179.836c0.193-0.58-1.559-0.205-3.88-3.516c-2.344-3.288-0.774-7.76-0.774-7.76     s-2.719-2.139-4.483-4.107c-1.741-1.923-1.741-5.632-1.741-5.632s-2.332-0.182-5.643-2.901c-3.3-2.719-3.3-7.578-3.3-7.578     s-2.332,0.58-5.837-2.355c-3.504-2.901-3.504-6.793-3.504-6.793s-2.526,1.957-7.782-0.58s-9.91-6.815-9.91-6.815     s-39.469,0.398-42.394,4.676c-2.924,4.255-10.695,2.321-10.695,2.321s0.774,2.549-3.118,5.063     c-3.88,2.514-7.578,1.354-7.578,1.354s2.139,1.161,1.161,3.129c-0.967,1.934-3.686,1.741-3.686,1.741s1.547,0.58,0.569,4.085     c-0.956,3.493-6.599,3.118-6.599,3.118s2.526,1.536,0.774,4.847c-1.752,3.322-5.837,2.731-5.837,2.731s0.785,2.913,0,5.814     c-0.774,2.935-3.88,3.516-3.88,3.516s2.526,0.387,1.934,3.903c-0.58,3.493-4.471,5.245-4.471,5.245s0.785,2.321,0.785,6.224     c0,3.88-2.344,4.858-2.344,4.858s2.924,1.365,3.311,4.665c0.387,3.3-1.752,6.804-1.752,6.804s1.946,1.559,2.731,4.085     c0.774,2.537-0.398,3.891-0.398,3.891s2.537,1.559,3.504,4.278c0.979,2.719,0.58,5.632,0.58,5.632s2.139,0.592,4.085,2.924     s0.979,4.471,0.979,4.471s4.471-0.193,6.599,2.139c2.15,2.332,2.344,5.257,2.344,5.257s2.719-0.398,6.224,2.139     c3.504,2.514,3.106,4.858,3.106,4.858s3.3-0.978,6.03,0.774c2.719,1.752,4.085,4.858,4.085,4.858s0.967-1.354,5.052,0     c4.085,1.377,5.643,2.719,5.643,2.719s1.559-2.321,5.45-1.547c3.88,0.774,6.986,3.3,6.986,3.3s0.603-2.719,4.87-1.946     c4.278,0.785,6.019,2.15,6.019,2.15s-0.375-2.924,2.731-3.709c3.106-0.774,6.03,0.41,6.03,0.41s0.387-2.15,2.526-2.537     c2.139-0.387,3.686,1.161,3.686,1.161s0.387-3.106,3.709-4.858c3.3-1.752,8.738-0.774,8.738-0.774s-0.193-1.559,2.139-2.719     c2.344-1.183,4.676-1.57,4.676-1.57s-0.785-3.3,2.924-4.46c3.686-1.172,5.825-1.172,5.825-1.172s0.387-2.731,1.741-5.439     c1.377-2.731,4.87-3.903,4.87-3.903s-1.172-1.741-0.58-4.847c0.58-3.118,5.052-4.471,5.052-4.471s-1.161-2.15-0.387-5.063     c0.774-2.924,2.913-5.052,2.913-5.052s-1.365-2.924-1.547-5.45c-0.193-2.526,2.924-9.33,2.924-9.33s-3.117-1.752-2.924-5.257     C268.629-176.332,269.995-179.256,270.188-179.836 M295.083-172.452c-0.193,3.698-2.514,6.61-2.514,6.61s3.493,3.3,3.3,8.181     c-0.205,4.858-4.87,8.351-4.87,8.351s1.57,1.752,1.752,5.45c0.205,3.686-2.913,5.052-2.913,5.052s1.161,3.106-0.58,5.063     c-1.764,1.946-4.483,1.752-4.483,1.752s2.537,2.526,0.785,6.019c-1.752,3.504-4.858,4.278-4.858,4.278s0.774,4.278-2.332,7.396     c-3.118,3.106-8.556,2.719-8.556,2.719s0.956,6.417-1.752,9.136c-2.731,2.719-8.75,0.967-8.75,0.967     c0.967,2.344-0.785,6.622-3.698,8.567c-2.924,1.934-11.082,1.161-11.082,1.161c0.58,2.139-1.752,4.858-5.257,6.03     c-3.493,1.161-6.997-0.58-6.997-0.58s-3.3,3.891-6.224,4.085c-2.913,0.193-5.052-1.172-5.052-1.172s-1.57,3.504-5.074,3.504     c-3.482,0-10.49-4.676-10.49-4.676s-7.976,3.698-11.856,3.504c-3.891-0.193-6.042-2.719-6.042-2.719s-4.073,2.332-8.75,0.193     c-4.654-2.139-5.052-5.257-5.052-5.257s-2.913,1.559-7.578,0.592c-4.665-0.978-5.257-5.837-5.257-5.837s-3.686,1.559-7.384-0.967     c-3.698-2.537-2.719-5.063-2.719-5.063s-2.731,2.139-7.202-0.193c-4.471-2.332-4.471-6.417-4.471-6.417s-2.913,0.774-6.417-3.891     c-3.504-4.665-2.913-6.61-2.913-6.61s-3.698-0.193-5.837-5.632c-2.139-5.45,0-8.169,0-8.169s-3.118-1.365-5.45-6.03     s-0.774-9.341-0.774-9.341s-4.278-1.946-3.891-7.578c0.387-5.643,4.085-6.997,4.085-6.997s-3.3-1.752-3.698-6.224     c-0.387-4.471,2.537-6.224,2.537-6.224s-2.924-1.752-3.118-5.45c-0.193-3.675,6.224-5.837,6.224-5.837s-2.332-1.354-2.332-4.858     c0-3.493,4.665-5.04,4.665-5.04s-1.946-1.764-0.774-6.246c1.161-4.449,5.245-4.449,5.245-4.449     c-1.161-3.311,2.731-4.483,2.731-4.483s-1.752-1.161,1.354-4.881c3.118-3.664,6.224-2.31,6.224-2.31     c-1.354-4.085,2.526-5.439,2.526-5.439c0.398-7.202,8.363-5.461,8.363-5.461c1.365-6.61,6.417-5.052,6.417-5.052     s-2.139-2.913,1.172-6.417c3.311-3.516,8.556-2.332,8.556-2.332c2.913-4.676,9.33-6.406,16.532-5.245     c7.179,1.161,14.973,1.547,18.66,2.514c3.698,0.967,28.206-0.182,28.206-0.182s9.33-2.139,14.382,0.569     c5.052,2.742,4.665,5.257,4.665,5.257s2.719-1.741,7.976,0.774c5.245,2.537,4.278,7.999,4.278,7.999s4.858,0,7.589,2.514     c2.719,2.503,1.752,4.085,1.752,4.085s4.267,2.128,5.814,4.062c1.57,1.957,0.216,3.903,0.216,3.903s1.934-0.967,5.427,2.128     c3.516,3.129,3.118,8.181,3.118,8.181s2.526-0.387,4.676,3.106c2.139,3.504,0.762,6.61,0.762,6.61s2.924,2.15,4.676,6.61     c1.752,4.471,0.205,9.159,0.205,9.159S295.276-176.139,295.083-172.452"/>
			<path style="fill:#FFB636;" d="M203.947-239.604c-41.381,0-75.093,31.278-76.493,72.34c-0.034-0.876-0.057-1.764-0.057-2.651     c0-42.28,34.281-76.561,76.55-76.561c42.291,0,76.561,34.281,76.561,76.561c0,0.887-0.023,1.775-0.046,2.651     C279.063-208.326,245.339-239.604,203.947-239.604"/>
			<path style="fill:#B58FE5;" d="M226.042-86.88c0,0-2.458,3.755-7.509,3.106c-5.063-0.649-11.674,1.946-15.69,4.016     c-4.016,2.082-10.24-1.024-10.24-6.087c0-5.052,3.243-7.521,7.908-7.521s11.025,2.082,15.417,5.052     C219.591-85.833,226.042-86.88,226.042-86.88"/>
			<path style="fill:none;stroke:#6B26B5;stroke-width:0.008;stroke-miterlimit:10;" d="M226.042-86.88c0,0-2.458,3.755-7.509,3.106     c-5.063-0.649-11.674,1.946-15.69,4.016c-4.016,2.082-10.24-1.024-10.24-6.087c0-5.052,3.243-7.521,7.908-7.521     s11.025,2.082,15.417,5.052C219.591-85.833,226.042-86.88,226.042-86.88z"/>
			<path style="fill:#B58FE5;" d="M275.797-118.908c6.872,0,6.986-6.087,7.134-8.545c0.125-2.469,1.172-7.657,2.844-9.728     c1.684-2.071,3.641-6.997,3.903-9.068c0.25-2.082,0-4.164-1.82-1.434c-1.832,2.719-6.11,8.169-10.24,10.502     c-4.153,2.332-9.205,5.712-9.205,10.9C268.413-121.104,272.691-118.908,275.797-118.908"/>
			<path style="fill:none;stroke:#6B26B5;stroke-width:0.008;stroke-miterlimit:10;" d="M275.797-118.908     c6.872,0,6.986-6.087,7.134-8.545c0.125-2.469,1.172-7.657,2.844-9.728c1.684-2.071,3.641-6.997,3.903-9.068     c0.25-2.082,0-4.164-1.82-1.434c-1.832,2.719-6.11,8.169-10.24,10.502c-4.153,2.332-9.205,5.712-9.205,10.9     C268.413-121.104,272.691-118.908,275.797-118.908z"/>
			<path style="fill:#B58FE5;" d="M287.289-162.724c4.79,0,6.747-3.63,6.747-7.646s-2.344-7.396-3.379-11.401     c-1.035-4.028-0.649-9.728-1.434-11.674c-0.774-1.957-1.809-2.992-1.809-2.992s-1.161,1.684-1.422,4.415     c-0.273,2.719,0,6.997-1.934,10.388c-1.957,3.356-4.676,7.623-4.676,11.526C279.381-166.229,284.183-162.724,287.289-162.724"/>
			<path style="fill:none;stroke:#6B26B5;stroke-width:0.008;stroke-miterlimit:10;" d="M287.289-162.724     c4.79,0,6.747-3.63,6.747-7.646s-2.344-7.396-3.379-11.401c-1.035-4.028-0.649-9.728-1.434-11.674     c-0.774-1.957-1.809-2.992-1.809-2.992s-1.161,1.684-1.422,4.415c-0.273,2.719,0,6.997-1.934,10.388     c-1.957,3.356-4.676,7.623-4.676,11.526C279.381-166.229,284.183-162.724,287.289-162.724z"/>
			<path style="fill:#B58FE5;" d="M117.669-141.596c0,0,1.946-2.071,2.981-4.54c1.035-2.458,1.559-6.736,3.755-9.455     c2.207-2.731,6.884-10.627,6.884-14.006c0-3.368-2.469-6.736-6.884-6.736c-4.403,0-9.353,3.755-9.58,7.908     c-0.398,7.122,3.766,6.201,3.243,11.275c-0.398,3.755-0.137,4.278-0.262,6.224C117.635-148.388,117.669-141.596,117.669-141.596"/>
			<g>
				<path style="fill:none;stroke:#6B26B5;stroke-width:0.008;stroke-miterlimit:10;" d="M117.669-141.596      c0,0,1.946-2.071,2.981-4.54c1.035-2.458,1.559-6.736,3.755-9.455c2.207-2.731,6.884-10.627,6.884-14.006      c0-3.368-2.469-6.736-6.884-6.736c-4.403,0-9.353,3.755-9.58,7.908c-0.398,7.122,3.766,6.201,3.243,11.275      c-0.398,3.755-0.137,4.278-0.262,6.224C117.635-148.388,117.669-141.596,117.669-141.596z"/>
				<path style="fill:#B58FE5;stroke:#6B26B5;stroke-width:0.008;stroke-miterlimit:10;" d="M162.27-93.627      c0,0-4.528-4.016-6.872-10.24c-2.332-6.224-4.79-15.94-11.913-15.94c-5.973,0-7.532,5.052-7.532,8.169      c0,3.106,4.016,6.474,8.044,7.771c4.016,1.297,6.542,3.186,8.556,5.712c3.106,3.88,9.205,4.654,9.205,4.654"/>
			</g>
			<g>
				<path style="fill:#8C8A8C;" d="M191.442-112.173c9.978,0,17.374-0.25,22.551-0.25c5.2,0,10.377-1.684,10.377-6.485      s-2.583-6.485-2.583-6.485s1.024-3.618-0.649-7.521c-1.707-3.88-4.676-5.962-10.001-5.962c-5.302,0-14.768-0.125-17.362-0.125      c-2.583,0-5.029,0.626-6.747,6.485C181.976-115.154,186.129-112.173,191.442-112.173"/>
				<path style="fill:#8C8A8C;" d="M194.446-139.127h19.57c2.207,0,4.164,0,4.403-6.224c0.273-6.224,11.162-92.831,11.81-99.305      c0.637-6.485-4.801-7.259-4.801-7.259s-1.547-2.981-8.681-5.052c-7.134-2.071-9.728-1.297-12.186-0.649      c-2.469,0.649-5.188,1.422-8.693,0c-3.504-1.422-6.61-1.035-9.591,0.512c-2.981,1.547-3.243,3.903-3.243,3.903      s-1.946,0.523-4.278,2.321s-2.207,6.224-1.559,9.216c0.649,2.97,10.502,87.108,11.287,93.082      C189.258-142.631,190.168-139.127,194.446-139.127"/>
			</g>
			<path style="fill:#FFFFFF;" d="M204.288-115.359l11.674-36.511l38.696-0.08l-31.471-22.517l12.242-36.705l-31.141,22.983     l-31.13-22.983l12.242,36.705l-31.494,22.517l38.719,0.08L204.288-115.359z"/>
			<g>
				<path style="fill:#FFB636;" d="M137.785-160.642c0,0-2.298,7.361-7.521,6.349c-4.028-0.785-2.856-2.856-1.559-4.016      c1.297-1.161,1.297-1.946,2.458-1.161c1.172,0.774,2.992,0.637,3.891-0.262C135.964-160.642,137.785-160.642,137.785-160.642"/>
				<path style="fill:#FFB636;" d="M121.435-140.026c0,0,0.774-0.785,1.684-2.344c0.91-1.547,4.415-2.332,5.837-1.809      c1.422,0.512,1.809-3.766,0.512-4.927c-1.286-1.161-2.788-1.741-5.313,0.523C120.525-145.35,121.435-140.026,121.435-140.026"/>
				<path style="fill:#FFB636;" d="M133.621-140.686c1.946,0.66,3.766-1.035,3.504-3.63s-2.981-7.782-2.981-7.782      s-0.523,1.035-0.91,2.344c-0.387,1.286,1.422,1.934,0.262,4.016C132.324-143.666,133.621-140.686,133.621-140.686"/>
				<path style="fill:#FFB636;" d="M128.046-122.037c0,0,2.719-2.594,4.278-3.118c1.547-0.523,4.665,0.785,5.564-1.297      c0.91-2.071,1.172-6.485-2.458-5.313c-3.63,1.172-5.052,3.368-5.962,5.313C128.558-124.506,128.046-122.037,128.046-122.037"/>
				<path style="fill:#FFB636;" d="M147.365-116.178c1.559,1.684,5.45,1.82,5.7-1.422c0.262-3.243-2.458-9.205-2.458-9.205      s-0.785,2.082-0.91,2.981c-0.125,0.91-0.91,3.766-2.594,4.403C145.419-118.761,147.365-116.178,147.365-116.178"/>
				<path style="fill:#FFB636;" d="M154.362-108.145c2.207,1.559,4.665,0.262,5.325-1.684c0.637-1.957-0.796-9.079-1.957-10.627      c0,0-0.512,1.684-0.774,2.583c-0.25,0.91,0.125,4.403-2.856,5.188C151.12-111.911,154.362-108.145,154.362-108.145"/>
				<path style="fill:#FFB636;" d="M166.673-88.132c0,0-7.259-6.61-2.981-11.674c4.278-5.052,4.927,0,4.403,1.559      c-0.512,1.559-0.125,1.684-1.035,3.118c-0.899,1.422-0.899,2.97-0.387,4.142C167.196-89.815,166.673-88.132,166.673-88.132"/>
				<path style="fill:#FFB636;" d="M161.621-104.516c-0.262-1.946,0.387-2.856,1.559-3.755c1.161-0.91,0.512-4.54,0.512-4.54      s2.332,0.512,2.856,4.801c0.523,4.278-1.161,6.474-2.332,6.474C163.055-101.535,161.621-104.516,161.621-104.516"/>
				<path style="fill:#FFB636;" d="M171.463-98.258c-1.172-1.434-1.434-4.79,0.512-6.224c1.946-1.422,1.172-5.837,1.172-5.837      s2.844,1.684,3.106,5.712c0.262,4.016-2.207,6.872-2.207,6.872L171.463-98.258z"/>
				<path style="fill:#FFB636;" d="M180.679-84.161c0,0-6.36-5.586-3.118-10.24c3.243-4.676,6.36,1.035,5.188,2.196      c-1.172,1.172-3.106,2.207-2.332,4.278C181.191-85.845,180.679-84.161,180.679-84.161"/>
				<path style="fill:#FFB636;" d="M181.202-96.221c2.071,0.649,3.368-0.785,3.766-2.981c0.387-2.207-2.856-8.681-2.856-8.681      s-1.422,1.297-0.785,3.231c0.649,1.946-0.637,3.243-1.809,4.403C178.347-99.066,179.132-96.87,181.202-96.221"/>
				<path style="fill:#FFB636;" d="M196.107-92.205c-2.423-0.569-3.755-2.856-1.684-4.54c2.071-1.684,1.946-2.583,1.434-3.88      c-0.523-1.308,0.125-2.856,0.125-2.856s2.719,1.422,3.493,5.45C200.26-94.025,198.315-91.681,196.107-92.205"/>
				<path style="fill:#FFB636;" d="M228.011-84.422c0,0-2.321-5.188,0.387-8.556c2.731-3.368,5.325-0.774,5.188,1.172      c-0.125,1.934-1.946,2.321-3.106,3.106c-1.161,0.774-1.809,0.774-1.559,1.934C229.194-85.594,228.011-84.422,228.011-84.422"/>
				<path style="fill:#FFB636;" d="M228.124-95.174c-1.183-0.523-1.684-4.278-1.047-5.45c0.66-1.161-0.899-2.594-1.297-4.016      l-0.387-1.434c0,0,3.243,1.047,5.325,4.153c2.071,3.118,2.196,5.712,0.899,6.61C230.32-94.401,228.124-95.174,228.124-95.174"/>
				<path style="fill:#FFB636;" d="M239.275-86.652c0,0-5.712-4.79-5.188-9.341c0.523-4.528,4.801-3.493,5.575-1.297      c0.774,2.207-0.649,4.028-0.899,5.325c-0.262,1.297,0.25,2.071,0.637,3.106C239.787-87.824,239.4-86.652,239.275-86.652"/>
				<path style="fill:#FFB636;" d="M237.727-99.282c-1.183-1.434-0.523-4.278-0.523-5.962c0-1.684-1.934-3.368-1.809-4.938      c0,0,5.837,1.434,6.61,7.532C242.779-96.551,237.727-99.282,237.727-99.282"/>
				<path style="fill:#FFB636;" d="M246.272-96.346c2.446,1.946,6.747,1.684,9.99,0.512c0,0-0.922-2.071-2.719-1.934      c-1.82,0.125-0.922-3.63-5.45-4.278C243.553-102.706,244.326-97.905,246.272-96.346"/>
				<path style="fill:#FFB636;" d="M249.128-106.199c-2.287-0.91-3.504-4.028-1.297-5.188c2.196-1.161,1.934-1.82,1.809-3.493      c-0.137-1.695,0.922-2.981,0.922-2.981s1.661,2.458,2.059,6.349C253.019-107.622,251.722-105.164,249.128-106.199"/>
				<path style="fill:#FFB636;" d="M256.66-109.18c0.25,2.469,3.504,4.801,6.599,4.801c3.118,0,5.063-1.172,5.063-1.172      s-0.125-1.161-2.458-1.286c-2.332-0.137-2.469-4.665-6.36-4.938C255.613-112.025,256.66-109.18,256.66-109.18"/>
				<path style="fill:#FFB636;" d="M279.848-153.906c0,0,1.434,1.434,3.641,1.547c2.196,0.137,4.267-2.059,5.586-3.755      c1.274-1.684,1.923-4.016,1.923-4.016s-1.809,0-2.458,1.035c-0.649,1.035-5.712,0.262-8.169,2.082c0,0-1.035-1.172-2.321-1.946      c-1.308-0.785-3.641-0.137-4.551-1.82c-0.899-1.684-2.446-2.844-2.446-2.844s-0.523,5.177,1.798,7.771      c2.344,2.594,3.379,2.856,4.927,2.594C279.336-153.52,279.848-153.906,279.848-153.906"/>
			</g>
			<path style="fill:#207900;" d="M145.033-118.647c0,0,2.332-1.559,1.172-6.349c-1.172-4.801-2.606-10.752-1.684-14.78     c0,0-3.243,3.891-2.856,7.782c0.387,3.891,3.243,6.61,2.332,9.591C143.087-119.42,145.033-118.647,145.033-118.647"/>
			<path style="fill:none;stroke:#103800;stroke-width:0.034;stroke-miterlimit:10;" d="M145.033-118.647     c0,0,2.332-1.559,1.172-6.349c-1.172-4.801-2.606-10.752-1.684-14.78c0,0-3.243,3.891-2.856,7.782     c0.387,3.891,3.243,6.61,2.332,9.591C143.087-119.42,145.033-118.647,145.033-118.647z"/>
			<path style="fill:#207900;" d="M139.196-127.851c0.774-3.63,1.684-9.853,1.297-13.096c-0.387-3.243-3.63-5.825-3.63-5.825     s1.946,4.142,1.422,9.068C137.842-133.449,139.196-127.851,139.196-127.851"/>
			<path style="fill:none;stroke:#103800;stroke-width:0.034;stroke-miterlimit:10;" d="M139.196-127.851     c0.774-3.63,1.684-9.853,1.297-13.096c-0.387-3.243-3.63-5.825-3.63-5.825s1.946,4.142,1.422,9.068     C137.842-133.449,139.196-127.851,139.196-127.851z"/>
			<path style="fill:#DE200F;" d="M126.748-156.398c0,0-1.718-2.571-1.684-4.415c0.023-1.843,1.809-2.981,2.856-2.981     c4.267,0,3.63,4.927,2.196,7.009c0,0,1.434,1.161,1.946,3.493c0.523,2.332-1.547,4.153-1.547,4.153s2.458,0,3.231,2.594     c0.785,2.594-0.523,5.177-0.523,5.177s2.344,0.387,3.379,3.118c1.035,2.719-0.137,4.801-0.137,4.801s2.082,0.125,3.504,2.458     c1.434,2.332,0.774,4.54,0.774,4.54s1.559-0.262,3.368,2.071c1.82,2.344,1.308,4.54,1.308,4.54s1.809,0.125,3.493,1.684     c1.695,1.547,1.82,4.403,1.82,4.403s1.684-0.125,3.63,1.559c1.946,1.684,1.809,3.368,1.809,3.368s2.082-0.649,4.415,0.91     c2.332,1.559,2.332,4.028,2.332,4.028s1.559-0.91,4.403,0.637c2.856,1.559,2.731,3.641,2.731,3.641s1.684-1.172,4.528,0.375     c2.856,1.57,2.981,2.992,2.981,2.992s1.308-1.047,3.891-0.137c2.594,0.91,3.504,2.992,3.504,2.992s0.91-1.957,4.016-1.183     c3.118,0.785,4.016,3.254,4.016,3.254s1.297-2.207,3.766-2.207c2.458,0,4.54,1.82,4.54,1.82s1.035-1.559,3.493-1.559     c2.469,0,4.278,1.559,4.278,1.559s0.785-1.047,3.891-1.308c3.118-0.25,4.289,0.649,4.289,0.649s1.149-1.934,3.106-2.458     c1.934-0.523,4.403,0.387,4.403,0.387s0.637-1.946,2.981-2.856c2.332-0.899,4.676,0,4.676,0s-0.137-2.196,2.583-3.106     c2.719-0.91,4.665,0,4.665,0s0.774-2.344,3.231-3.493c2.469-1.172,4.289-0.91,4.289-0.91s0.137-1.946,2.196-3.368     c2.071-1.434,4.289-1.308,4.289-1.308s0-2.332,1.946-3.88c1.946-1.559,4.016-1.946,4.016-1.946s-0.91-2.207,0.523-3.891     c1.422-1.684,4.13-2.844,4.13-2.844s-0.387-2.219,0.796-4.028c1.161-1.82,3.493-2.719,3.493-2.719s0.137-1.559,0.774-3.504     c0.649-1.946,3.766-3.106,3.766-3.106s-1.172-2.082-0.649-4.028c0.523-1.946,3.117-3.618,3.117-3.618s-0.922-1.047-0.66-3.129     c0.262-2.059,2.469-4.267,2.469-4.267s-0.512-1.172-0.66-4.278c-0.125-3.118,1.82-4.278,1.82-4.278s-1.286-1.434-1.422-3.766     c-0.114-2.332,1.946-4.528,3.891-4.403c1.957,0.125,2.844,1.422,2.605,3.755c-0.273,2.344-2.23,4.676-2.23,4.676     s1.707,1.809,1.582,4.016c-0.159,2.207-2.992,4.927-2.992,4.927s1.172,0.649,1.035,3.618c-0.137,2.992-2.719,4.028-2.719,4.028     s0.899,0.774,0.25,3.891c-0.637,3.106-2.97,3.88-2.97,3.88s0.637,1.684-0.398,4.289c-1.024,2.583-3.766,3.243-3.766,3.243     s0,2.071-0.899,4.403c-0.91,2.332-3.63,2.207-3.63,2.207s0.387,3.118-1.559,4.927c-1.946,1.809-4.278,1.946-4.278,1.946     s0.774,2.071-1.559,4.278c-2.332,2.196-4.403,1.286-4.403,1.286s0,2.992-2.605,4.801c-2.571,1.82-4.142,1.035-4.142,1.035     s-0.125,1.82-2.594,3.118c-2.458,1.297-4.654,0.91-4.654,0.91s-0.125,2.196-2.856,3.243c-2.731,1.024-4.927,0.25-4.927,0.25     s0,1.946-2.981,2.981c-2.992,1.047-4.813,0.262-4.813,0.262s-0.762,1.422-3.095,2.332c-2.332,0.91-5.063-0.523-5.063-0.523     s-1.809,1.946-4.403,2.207c-2.594,0.262-4.142-1.035-4.142-1.035s-0.785,1.297-3.766,1.559c-2.981,0.25-4.278-1.434-4.278-1.434     s-0.523,0.91-3.243,1.172c-2.719,0.262-4.915-2.594-4.915-2.594s-2.344,1.809-4.801,1.422c-2.469-0.375-3.891-2.458-3.891-2.458     s-1.434,1.035-4.153,0.387c-2.731-0.649-3.88-2.719-3.88-2.719s-1.172,0.649-3.766-0.387c-2.594-1.035-3.243-3.766-3.243-3.766     s-1.684,1.172-4.801-0.637c-3.106-1.82-2.97-3.379-2.97-3.379s-1.308,0.523-3.891-0.91c-2.606-1.422-2.207-4.403-2.207-4.403     s-2.071,0.899-4.665-1.035c-2.594-1.946-1.82-4.278-1.82-4.278s-3.106,0.125-4.54-2.082c-1.422-2.196-1.161-4.665-1.161-4.665     s-2.719-0.262-4.016-2.332c-1.297-2.071-0.523-4.54-0.523-4.54s-2.458,0-3.755-2.458c-1.308-2.469-0.523-4.665-0.523-4.665     s-2.458-0.649-3.379-3.379c-0.899-2.719,0.137-4.528,0.137-4.528s-2.844-0.785-3.493-3.379c-0.649-2.583,0.512-4.79,0.512-4.79     s-1.684-1.035-2.207-3.63C125.065-154.714,126.748-156.398,126.748-156.398"/>
			<g>
				<path style="fill:#FFE301;" d="M126.748-159.356c0,0,1.331-1.092,2.844,0c0,0,1.035-3.698-1.673-3.243      C125.554-162.19,126.748-159.356,126.748-159.356"/>
				<path style="fill:#FFE301;" d="M127.534-152.291c0,0,0.58-0.546,1.456-0.614c0.876-0.068,1.616,0.262,1.616,0.262      s0.068-0.978-0.319-1.877c-0.387-0.91-1.001-1.911-2.173-1.525c-1.161,0.387-1.07,1.911-0.933,2.56      C127.306-152.837,127.534-152.291,127.534-152.291"/>
				<path style="fill:#FFE301;" d="M129.57-143.883c0,0,0.774-0.649,1.525-0.717c0.74-0.057,1.65,0.137,1.65,0.137      s-0.091-1.081-0.558-2.025c-0.444-0.933-1.286-1.547-2.219-1.32c-0.944,0.228-0.944,1.49-0.91,2.241      C129.092-144.827,129.57-143.883,129.57-143.883"/>
				<path style="fill:#FFE301;" d="M132.528-136.021c0,0,0.512-0.671,1.195-0.876c0.683-0.193,1.718-0.228,1.718-0.228      s-0.262-1.229-0.683-1.843c-0.421-0.614-1.331-1.422-2.207-1.035c-0.876,0.387-0.967,1.456-0.774,2.389      C131.971-136.669,132.528-136.021,132.528-136.021"/>
				<path style="fill:#FFE301;" d="M136.374-128.466c0,0,0.478-0.785,1.297-1.001c0.808-0.228,1.684-0.228,1.684-0.228      s-0.364-0.944-0.876-1.695c-0.523-0.74-1.468-1.161-2.435-0.808c-0.785,0.296-0.842,1.525-0.58,2.264      C135.726-129.171,136.374-128.466,136.374-128.466"/>
				<path style="fill:#FFE301;" d="M141.016-121.241c0,0,0.353-0.785,0.967-1.195c0.785-0.523,1.684-0.58,1.684-0.58      s-1.058-1.365-1.547-1.752c-0.489-0.398-1.911-1.07-2.628,0.125c-0.558,0.922,0,1.877,0.353,2.332      C140.208-121.855,141.016-121.241,141.016-121.241"/>
				<path style="fill:#FFE301;" d="M146.034-114.437c0,0,0.25-0.944,0.933-1.354c0.683-0.432,1.661-0.58,1.661-0.58      s-1.058-2.628-2.958-2.344c-1.911,0.296-1.422,2.048-1.035,2.731C145.033-115.313,146.034-114.437,146.034-114.437"/>
				<path style="fill:#FFE301;" d="M151.996-108.725c0,0,0.455-0.99,0.876-1.331c0.558-0.455,1.468-0.808,1.468-0.808      s-1.161-1.616-2.503-1.855c-1.297-0.228-2.173,0.683-2.105,1.684C149.811-109.738,151.996-108.725,151.996-108.725"/>
				<path style="fill:#FFE301;" d="M158.572-103.344c0,0,0.239-0.978,0.751-1.434c0.523-0.444,1.513-0.967,1.513-0.967      s-1.229-1.718-2.685-1.718c-1.445,0-1.911,0.614-1.911,1.422c0,0.819,0.558,1.593,0.978,1.889S158.572-103.344,158.572-103.344"/>
				<path style="fill:#FFE301;" d="M165.74-98.599c0,0,0.091-1.092,0.614-1.786c0.353-0.466,1.388-0.933,1.388-0.933      s-1.195-1.49-2.685-1.49c-1.49,0-1.946,0.751-1.946,1.627s0.683,1.547,1.172,1.911C164.762-98.918,165.74-98.599,165.74-98.599"/>
				<path style="fill:#FFE301;" d="M173.284-94.913c0,0-0.057-1.172,0.296-1.718c0.353-0.558,1.331-1.195,1.331-1.195      s-1.206-0.853-2.185-0.978c-0.956-0.137-1.809,0.034-2.094,1.138c-0.296,1.092,0.478,1.843,0.933,2.139      C172.021-95.243,173.284-94.913,173.284-94.913"/>
				<path style="fill:#FFE301;" d="M180.941-91.511c0,0-0.034-1.07,0.478-2.002c0.341-0.614,0.978-1.206,0.978-1.206      s-0.933-0.876-2.56-0.785c-1.582,0.102-1.866,1.388-1.616,2.276C178.608-91.841,180.941-91.511,180.941-91.511"/>
				<path style="fill:#FFE301;" d="M189.429-89.44c0,0-0.353-1.331-0.034-2.105c0.33-0.774,0.978-1.263,0.978-1.263      s-1.172-0.649-2.469-0.649c-1.286,0-2.207,0.899-1.946,2.207C186.357-89.383,189.429-89.44,189.429-89.44"/>
				<path style="fill:#FFE301;" d="M197.689-88.7c0,0-0.262-0.944-0.228-1.49c0.057-1.172,0.705-1.786,0.705-1.786      s-1.126-0.58-2.458-0.262c-1.32,0.33-1.786,0.74-1.752,1.855c0.034,1.092,1.138,1.593,1.911,1.741      C196.642-88.473,197.689-88.7,197.689-88.7"/>
				<path style="fill:#FFE301;" d="M202.65-90.123c-0.057,0.683,1.001,1.775,3.14,1.752c-0.034-0.068-0.159-1.206,0.034-1.786      C206.017-90.737,202.65-90.123,202.65-90.123"/>
				<path style="fill:#FFE301;" d="M210.887-89.929c0.546,1.195,3.015,1.263,3.891,0.774c0,0-0.694-1.388-0.353-2.139      C214.744-92.034,210.887-89.929,210.887-89.929"/>
				<path style="fill:#FFE301;" d="M223.198-90.737c0,0-0.91-0.649-1.035-1.388c-0.137-0.751,0.262-1.855,0.262-1.855      s-1.297,0.102-2.253,0.455c-0.933,0.364-1.547,1.331-1.32,2.389c0.193,0.887,1.206,1.172,2.116,1.206      C221.867-89.895,223.198-90.737,223.198-90.737"/>
				<path style="fill:#FFE301;" d="M231.083-93.491c0,0-0.523-0.193-0.831-1.161c-0.341-0.978-0.08-1.923-0.08-1.923      c-0.978,0.205-1.707,0.455-2.537,1.138c-0.774,0.66-0.865,1.399-0.478,2.241c0.387,0.831,1.354,0.808,2.219,0.671      C230.207-92.649,231.083-93.491,231.083-93.491"/>
				<path style="fill:#FFE301;" d="M234.803-96.05c0.512,0.91,2.617,0.478,3.243,0c0.614-0.489,0.785-0.91,0.785-0.91      s-0.717-0.159-1.047-0.91c-0.33-0.74-0.091-1.82-0.091-1.82s-0.967,0.273-1.82,0.819      C235.031-98.326,234.098-97.359,234.803-96.05"/>
				<path style="fill:#FFE301;" d="M242.187-100.078c0.546,1.172,2.048,0.944,2.788,0.455c0.751-0.489,1.229-1.195,1.229-1.195      s-0.774-0.228-1.126-0.91c-0.353-0.683-0.387-1.889-0.387-1.889s-1.138,0.364-1.911,1.081      C241.994-101.83,241.801-100.92,242.187-100.078"/>
				<path style="fill:#FFE301;" d="M249.253-104.288c0.683,0.842,1.684,0.649,2.435,0.068c0.74-0.58,1.217-1.695,1.217-1.695      s-0.762-0.193-1.183-0.705c-0.421-0.523-0.421-1.547-0.421-1.547s-0.967,0.284-1.764,1.195      C248.775-106.074,248.741-104.925,249.253-104.288"/>
				<path style="fill:#FFE301;" d="M255.465-109.636c0.762,0.865,1.934,0.478,2.514-0.091c0.569-0.592,1.161-1.98,1.161-1.98      s-1.058-0.068-1.456-0.523c-0.387-0.455-0.637-1.559-0.637-1.559s-0.66,0.387-1.308,1.365      C255.09-111.445,254.862-110.352,255.465-109.636"/>
				<path style="fill:#FFE301;" d="M261.461-115.563c0.853,0.808,2.253,0.034,2.628-0.444c0.546-0.717,0.717-1.764,0.717-1.764      s-0.74-0.125-1.206-0.444c-0.444-0.33-0.899-1.399-0.899-1.399s-0.751,0.387-1.24,1.263      C260.983-117.475,260.699-116.303,261.461-115.563"/>
				<path style="fill:#FFE301;" d="M267.787-122.606c1.786,0.068,2.731-2.139,2.731-2.139s-1.809,0.034-2.446-1.422      c-0.603-1.456-0.762,1.968-0.762,2.401C267.31-123.346,267.787-122.606,267.787-122.606"/>
				<path style="fill:#FFE301;" d="M270.768-129.308c1.07,0.853,2.185,0.228,2.605-0.455c0.421-0.683,0.808-2.116,0.808-2.116      s-1.104-0.091-1.775-0.478c-0.683-0.387-1.24-1.195-1.24-1.195s-0.558,0.705-0.978,1.934      C269.779-130.377,270.29-129.695,270.768-129.308"/>
				<path style="fill:#FFE301;" d="M274.546-136.692c1.058,0.637,1.946-0.262,2.401-0.785c0.455-0.512,0.751-1.911,0.751-1.911      s-1.172-0.023-1.695-0.353c-0.512-0.319-1.195-1.354-1.195-1.354s-0.614,1.07-0.887,1.946      C273.67-138.285,273.806-137.147,274.546-136.692"/>
				<path style="fill:#FFE301;" d="M277.618-144.11c1.138,0.478,2.025-0.614,2.173-1.434c0.125-0.808,0.216-2.002,0.216-2.002      s-0.546,0.262-1.525,0c-1.013-0.273-1.422-0.751-1.422-0.751s-0.523,0.91-0.66,1.911      C276.287-145.373,276.48-144.588,277.618-144.11"/>
				<path style="fill:#FFE301;" d="M279.45-152.45c1.582,0.398,2.105-0.876,2.128-1.934c0.023-1.115-0.023-1.627-0.023-1.627      s-0.717,0.228-1.536,0c-0.808-0.216-1.286-0.91-1.286-0.91s-0.466,1.047-0.626,2.048      C277.948-153.872,278.244-152.746,279.45-152.45"/>
				<path style="fill:#FFE301;" d="M280.007-160.528c1.149,0.296,2.253-0.842,2.31-1.752c0.068-0.899,0.034-1.934,0.034-1.934      s-0.774,0.284-1.491,0.159c-0.705-0.125-1.616-0.876-1.616-0.876s-0.307,0.944-0.421,1.843      C278.699-162.19,278.767-160.847,280.007-160.528"/>
			</g>
			<path style="fill:#FFB636;" d="M260.278-118.385c3.015,0.865,3.106-2.332,3.766-3.755c0.637-1.422-0.785-5.837-2.219-7.384     c0,0-0.899,0.512-0.637,2.071c0.25,1.547-2.992,4.79-3.106,6.224C257.934-119.807,259.368-118.635,260.278-118.385"/>
			<path style="fill:#207900;" d="M216.974-104.254c0,0,3.63,1.024,3.63,6.736c0,5.712-8.158,9.341-12.447,7.134l1.434-3.118     c0,0-0.137,0.262,2.332,0.262s5.268-1.866,5.837-4.54C218.533-101.398,216.974-104.254,216.974-104.254"/>
			<path style="fill:none;stroke:#103800;stroke-width:0.034;stroke-miterlimit:10;" d="M216.974-104.254c0,0,3.63,1.024,3.63,6.736     c0,5.712-8.158,9.341-12.447,7.134l1.434-3.118c0,0-0.137,0.262,2.332,0.262s5.268-1.866,5.837-4.54     C218.533-101.398,216.974-104.254,216.974-104.254z"/>
			<path style="fill:#207900;" d="M200.511-91.545c0,0,2.856,2.594,6.36,2.594c3.493,0,5.962-4.016,5.962-6.747     c0-2.719-0.91-8.818-6.872-8.818c0,0,3.368,2.332,3.368,6.884c0,4.528-2.719,6.599-4.403,6.599     C203.23-91.033,200.511-91.545,200.511-91.545"/>
			<path style="fill:none;stroke:#103800;stroke-width:0.034;stroke-miterlimit:10;" d="M200.511-91.545c0,0,2.856,2.594,6.36,2.594     c3.493,0,5.962-4.016,5.962-6.747c0-2.719-0.91-8.818-6.872-8.818c0,0,3.368,2.332,3.368,6.884c0,4.528-2.719,6.599-4.403,6.599     C203.23-91.033,200.511-91.545,200.511-91.545z"/>
			<path style="fill:#207900;" d="M268.709-120.206c0,0-1.183-4.665,0.387-8.294c1.559-3.63,4.528-13.619-1.434-17.374     c0,0,0.785,4.665,0.66,8.42c-0.137,3.766-2.469,7.782-2.605,11.162C265.603-122.925,268.709-120.206,268.709-120.206"/>
			<path style="fill:none;stroke:#103800;stroke-width:0.034;stroke-miterlimit:10;" d="M268.709-120.206     c0,0-1.183-4.665,0.387-8.294c1.559-3.63,4.528-13.619-1.434-17.374c0,0,0.785,4.665,0.66,8.42     c-0.137,3.766-2.469,7.782-2.605,11.162C265.603-122.925,268.709-120.206,268.709-120.206z"/>
			<path style="fill:#207900;" d="M274.432-132.732c0,0-0.296-3.982-0.137-7.134c0.273-4.927,8.169-11.412,5.712-18.671     c0,0-1.172,4.278-2.719,7.259c-1.57,2.981-4.801,8.818-4.665,11.935C272.748-136.237,274.432-132.732,274.432-132.732"/>
			<path style="fill:none;stroke:#103800;stroke-width:0.034;stroke-miterlimit:10;" d="M274.432-132.732     c0,0-0.296-3.982-0.137-7.134c0.273-4.927,8.169-11.412,5.712-18.671c0,0-1.172,4.278-2.719,7.259     c-1.57,2.981-4.801,8.818-4.665,11.935C272.748-136.237,274.432-132.732,274.432-132.732z"/>
			<path style="fill:#207900;" d="M281.919-169.198c0,0,4.415-5.7,4.153-10.126c-0.25-4.403-3.095-9.307-1.82-13.084     c0,0-2.856,3.516-1.809,9.603S281.919-169.198,281.919-169.198"/>
			<path style="fill:none;stroke:#103800;stroke-width:0.034;stroke-miterlimit:10;" d="M281.919-169.198     c0,0,4.415-5.7,4.153-10.126c-0.25-4.403-3.095-9.307-1.82-13.084c0,0-2.856,3.516-1.809,9.603S281.919-169.198,281.919-169.198z     "/>
			<path style="fill:#207900;" d="M281.281-168.572c0,0,3.072-5.302,2.981-8.693c-0.125-5.552-3.493-11.514-4.665-15.155     c-1.172-3.63-1.684-10.115-1.684-10.115s-1.297,4.028-1.035,7.532c0.262,3.493,3.641,11.002,4.278,16.714     C281.793-172.577,281.281-168.572,281.281-168.572"/>
			<path style="fill:none;stroke:#103800;stroke-width:0.034;stroke-miterlimit:10;" d="M281.281-168.572     c0,0,3.072-5.302,2.981-8.693c-0.125-5.552-3.493-11.514-4.665-15.155c-1.172-3.63-1.684-10.115-1.684-10.115     s-1.297,4.028-1.035,7.532c0.262,3.493,3.641,11.002,4.278,16.714C281.793-172.577,281.281-168.572,281.281-168.572z"/>
			<path style="fill:#207900;" d="M124.416-170.245c0,0,0-6.349,0.262-8.954c0.262-2.571,5.837-11.15,6.61-15.406     c0.774-4.289-2.458-8.829-2.458-8.829s0.387,4.927,0,7.521s-6.349,11.651-6.224,16.327     C122.732-174.91,124.416-170.245,124.416-170.245"/>
			<path style="fill:none;stroke:#103800;stroke-width:0.034;stroke-miterlimit:10;" d="M124.416-170.245c0,0,0-6.349,0.262-8.954     c0.262-2.571,5.837-11.15,6.61-15.406c0.774-4.289-2.458-8.829-2.458-8.829s0.387,4.927,0,7.521s-6.349,11.651-6.224,16.327     C122.732-174.91,124.416-170.245,124.416-170.245z"/>
			<path style="fill:#207900;" d="M125.156-199.531c0,0,1.946,1.684,1.82,4.392c-0.137,2.731-1.57,6.758-2.856,10.115     c-1.297,3.391-1.82,8.567-1.172,10.377c0.649,1.82,1.422,4.415,1.422,4.415s-3.493-3.903-3.88-7.532     c-0.398-3.618,0.444-9.227,2.458-12.959C125.542-195.515,125.156-199.531,125.156-199.531"/>
			<path style="fill:none;stroke:#103800;stroke-width:0.034;stroke-miterlimit:10;" d="M125.156-199.531     c0,0,1.946,1.684,1.82,4.392c-0.137,2.731-1.57,6.758-2.856,10.115c-1.297,3.391-1.82,8.567-1.172,10.377     c0.649,1.82,1.422,4.415,1.422,4.415s-3.493-3.903-3.88-7.532c-0.398-3.618,0.444-9.227,2.458-12.959     C125.542-195.515,125.156-199.531,125.156-199.531z"/>
		</g>
	</g>
</g>
<g>
</g>
<g>
</g>
<g>
</g>
<g>
</g>
<g>
</g>
<g>
</g>
<g>
</g>
<g>
</g>
<g>
</g>
<g>
</g>
<g>
</g>
<g>
</g>
<g>
</g>
<g>
</g>
<g>
</g>
</svg>
