<?xml version="1.0" encoding="iso-8859-1"?>
<!-- Generator: Adobe Illustrator 19.0.0, SVG Export Plug-In . SVG Version: 6.00 Build 0)  -->
<svg xmlns="http://www.w3.org/2000/svg" xmlns:xlink="http://www.w3.org/1999/xlink" version="1.1" id="Capa_1" x="0px" y="0px" viewBox="0 0 512 512" style="enable-background:new 0 0 512 512;" xml:space="preserve">
<g transform="matrix(1.25 0 0 -1.25 0 45)">
	<g>
		<g>
			<path style="fill:#00785E;" d="M409.6-271.2c0-25.134-20.378-45.511-45.511-45.511H45.511C20.378-316.711,0-296.334,0-271.2     v204.8c0,25.134,20.378,45.511,45.511,45.511h318.578c25.134,0,45.511-20.378,45.511-45.511V-271.2z"/>
			<g>
				<g>
					<path style="fill:#FBD116;" d="M204.527-61.473c2.059-3.948,3.174-8.818,4.631-13.358h14.473       c-3.732-2.913-7.714-5.575-11.469-8.454c1.07-4.665,2.822-8.636,4.096-13.084c-0.774-0.307-1.866,0.717-2.731,1.354       c-2.503,1.855-5.837,4.358-8.442,6.269c-4.244-2.116-8.112-6.064-11.73-7.908c1.149,4.585,2.913,8.533,4.096,13.096       c-3.493,3.152-7.475,5.803-11.457,8.454c4.176,0.637,9.546,0.091,14.177,0.273C201.808-70.553,203.332-66.184,204.527-61.473"/>
					<path style="fill:#FBD116;" d="M142.62-100.192c2.799,1.661,5.302,3.607,7.908,5.461c-1.183,2.799-1.684,6.303-2.992,9       c2.503-0.853,5.211-3.891,7.908-5.461c2.81,1.65,5.336,3.573,7.908,5.461c-0.205-2.617-2.037-5.962-2.719-9       c2.094-2.446,4.995-4.073,7.623-6.007c-2.742-0.649-6.702-0.148-9.535,0c-1.411-2.765-2.389-5.973-3.277-9.273       c-1.434,2.662-2.196,6.007-3.004,9.273h-7.361C144.873-99.942,142.825-100.977,142.62-100.192"/>
					<path style="fill:#FBD116;" d="M264.533-100.75h-7.088c-1.172-2.924-1.911-6.269-3.004-9.273       c-1.24,2.947-2.196,6.178-3.288,9.273c-3.061-0.273-6.372-0.33-9.808-0.273c2.367,2.185,5.279,3.823,7.634,5.996       c-0.762,3.334-2.025,6.155-3.004,9.273c2.765-1.695,5.291-3.618,7.908-5.45c3.083,1.57,5.234,4.039,8.181,5.723       c-1.183-2.799-1.684-6.292-2.992-8.988c2.298-2.253,5.165-3.937,7.908-5.734C266.763-100.988,264.738-99.953,264.533-100.75"/>
					<path style="fill:#FBD116;" d="M128.182-117.372c1.331-2.571,1.343-6.463,2.173-9.546c3.425-0.216,6.485-0.796,9.819-1.092       c-2.753-1.616-5.473-3.254-8.442-4.631c0.171-3.459,1.07-6.201,1.627-9.273c-0.796-0.182-2.389,1.365-3.538,2.458       c-1.286,1.183-2.423,2.674-3.55,3.538c-3.061-1.399-5.666-3.243-8.715-4.642c1.365,2.822,2.48,5.882,4.085,8.465       c-1.923,2.708-4.562,4.71-7.088,6.815c2.856,0.489,6.497-0.58,9.546-0.819C125.656-123.403,126.987-120.456,128.182-117.372"/>
					<path style="fill:#FBD116;" d="M285.241-126.099c3.277,0.353,6.36,0.922,9.819,1.092c-2.321-2.344-4.938-4.335-7.111-6.827       c1.468-2.731,2.606-5.769,4.119-8.454c-2.606,0.603-5.746,2.992-8.476,4.369c-2.628-1.718-5.018-5.154-7.35-6.269       c0.478,3.152,1.388,5.882,1.638,9.262c-2.697,1.684-5.416,3.322-8.465,4.654c2.776,0.865,6.349,0.91,9.546,1.354       c1.206,2.697,1.229,6.588,2.196,9.546C282.658-120.137,283.978-123.095,285.241-126.099"/>
				</g>
				<g>
					<path style="fill:#FFFFFF;" d="M243.792-228.09c-17.727,0.91-28.991,8.294-39.265,16.646       c-9.603-8.829-21.322-15.565-38.719-16.646h-3.277h-47.98c0.046-0.216,0-0.535,0.262-0.535c1.183-1.82,2.378-3.618,3.823-5.177       c15.94-1.092,34.896-0.558,50.984-0.284c15.451,0.933,25.714,7.02,35.18,13.904c9.432-6.918,19.752-12.959,35.169-13.904       c16.384-0.273,35.339-0.808,50.984,0.284c1.388,1.65,2.651,3.356,3.823,5.177c0.08-0.034,0.216,0.046,0.296,0       c-2.002,1.229-8.169,0.535-11.469,0.535h-36.545H243.792z"/>
					<path style="fill:#FFFFFF;" d="M284.672-241.163c0.478-0.08,0.956,1.058,0,0.808c-53.35-0.353-108.021,0.728-160.336-0.546       c0.284,0,0.33-0.205,0.546-0.262c0.705-0.796,1.65-2.15,2.731-2.458c2.162-0.592,6.064,0,9.535,0h145.351       C283.056-242.63,284.103-242.153,284.672-241.163"/>
					<path style="fill:#FFFFFF;" d="M274.887-250.709c0.273-0.011,0.319,0.216,0.546,0.273c0.023,0.341,0.341,0.375,0.262,0.819       c-45.443-0.887-93.013,1.195-138.24,0c-0.774-0.023-3.095,0.774-3.277-0.819c0.273,0,0.33-0.228,0.546-0.273       c1.661-1.24,3.3-2.537,4.904-3.812c42.826-0.466,87.541-0.466,130.344,0C271.599-253.246,273.237-251.949,274.887-250.709"/>
					<path style="fill:#FFFFFF;" d="M262.372-259.708c0.717,0.523,0.637,0.375,0,0.535c-3.777,0.887-9.603,0-14.461,0H153.02       c-1.775,0-6.895,0.364-5.723-0.535c3.197-1.991,6.508-3.857,10.081-5.461c30.993-0.455,63.909-0.455,94.879,0       C255.852-263.566,259.174-261.711,262.372-259.708"/>
					<path style="fill:#FFFFFF;" d="M244.349-268.72h0.535c-0.011,0.466-0.102,0.501-0.535,0.557c-5.985,0.876-13.175,0-19.911,0       c-20.048,0-41.142,0.444-59.722-0.557h0.558c9.796-3.618,20.343-6.542,33.269-7.077c1.081-0.637,3.345-0.102,4.892-0.273h2.742       c1.536,0.171,3.8-0.364,4.892,0.273C223.937-275.205,234.553-272.372,244.349-268.72"/>
					<path style="fill:#FFFFFF;" d="M190.623-184.456c0.216-0.967,0.694-1.661,1.365-2.173       C191.784-185.662,191.283-184.979,190.623-184.456 M181.077-153.372c0.523-13.016,4.039-23.04,9.546-31.084       c-4.38,9.728-8.26,20.446-7.088,34.361c1.513,18.17,10.843,32.586,21.538,41.165c10.092-9.091,19.308-22.915,20.992-40.903       c1.399-14.962-3.152-26.829-8.454-36.534c5.939,7.612,10.422,19.012,10.911,32.996c0.455,0.466,0.455,2.81,0,3.277       c-0.353,9.546-2.48,17.34-5.723,23.996c1.718,3.447,4.506,5.86,5.45,10.081c4.312-6.838,7.111-15.246,7.908-25.623v-8.454       c-0.762-12.868-5.12-22.153-10.354-30.538c-0.239-0.034-0.842-0.899-0.284-0.819c0.558,0.99,1.616,1.468,2.196,2.458       c11.776,10.024,25.634,17.988,46.615,18.807h3.823h1.092c0.512-0.819-1.32-1.855-2.185-3.004       c-0.933-1.217-1.604-2.867-2.458-3.812c-22.824-0.444-37.74-8.818-49.618-20.161c8.977,6.178,21.288,13.141,35.715,14.438       c13.801,1.229,25.771-0.899,35.988-5.177c-2.901-7.828-7.009-14.438-12.265-19.911c-1.297-1.081-2.48-2.253-3.55-3.538       c-9.409-8.511-20.821-14.973-37.626-16.088h-6.542c0-0.273,0.33-0.216,0.546-0.273c1.126-0.694,3.095-0.546,4.892-0.558       c1.297-0.444,4.46-0.444,5.734,0c18.284,0.717,29.73,8.272,40.084,16.919c1.434-1.024,7.873-0.762,6.554-2.196       c-1.479-1.24-2.833-2.606-4.096-4.085c-9.637-8.442-21.345-14.814-38.446-15.815h-5.734       c-17.26,1.001-29.036,7.487-38.719,16.088c-0.922,0.978-1.604,2.196-2.992,2.731c-0.66-1.07-1.798-1.661-2.446-2.731       c-9.682-8.602-21.47-15.076-38.719-16.088h-5.723c-17.26,1.035-29.104,7.452-38.73,16.088       c-1.161,1.388-2.435,2.662-3.823,3.812c0.148,0.387-1.058,0.683-0.273,0.831c2.389,0.25,4.642,0.626,6.554,1.365       c10.661-8.431,21.902-16.27,40.357-16.919c1.263-0.444,4.449-0.444,5.723,0c1.798,0.011,3.789-0.137,4.904,0.558h0.535       c-1.627,0.626-4.437,0.091-6.531,0.273c-16.816,1.081-28.217,7.589-37.626,16.088c-1.07,1.286-2.264,2.458-3.55,3.538       c-5.234,5.495-9.409,12.049-12.265,19.911c10.16,4.289,22.016,6.315,35.715,5.177c14.325-1.217,26.67-7.987,35.453-14.177       c0.523-0.649,1.274-1.092,1.911-1.638c-0.102,0.91-0.831,1.172-1.365,1.638c-12.197,10.889-26.681,19.502-49.368,19.9       c-1.764,2.037-3.925,5.154-5.177,6.815h1.365h3.812c20.639-0.91,34.645-8.442,46.091-18.546c1.104-1.161,1.98-2.56,3.538-3.254       c0.205,1.183-0.535-0.228-0.546,0.535c-0.284,0.614-0.614,1.206-1.092,1.638c-4.949,8.215-9.079,17.26-9.819,29.719v8.454       c0.694,10.411,3.766,18.421,7.646,25.623c1.434-3.732,3.595-6.77,5.723-9.819c-2.731-5.985-4.779-12.652-5.45-20.708       c-0.626-0.387-0.102-1.911-0.273-2.742v-0.808C180.622-150.561,180.622-152.905,181.077-153.372"/>
				</g>
			</g>
		</g>
	</g>
</g>
<g>
</g>
<g>
</g>
<g>
</g>
<g>
</g>
<g>
</g>
<g>
</g>
<g>
</g>
<g>
</g>
<g>
</g>
<g>
</g>
<g>
</g>
<g>
</g>
<g>
</g>
<g>
</g>
<g>
</g>
</svg>
