<?xml version="1.0" encoding="iso-8859-1"?>
<!-- Generator: Adobe Illustrator 19.0.0, SVG Export Plug-In . SVG Version: 6.00 Build 0)  -->
<svg xmlns="http://www.w3.org/2000/svg" xmlns:xlink="http://www.w3.org/1999/xlink" version="1.1" id="Capa_1" x="0px" y="0px" viewBox="0 0 512 512" style="enable-background:new 0 0 512 512;" xml:space="preserve">
<g transform="matrix(1.25 0 0 -1.25 0 45)">
	<g>
		<g>
			<path style="fill:#C4272F;" d="M409.6-271.2c0-25.134-20.378-45.511-45.511-45.511H45.511C20.378-316.711,0-296.334,0-271.2     v204.8c0,25.134,20.378,45.511,45.511,45.511h318.578c25.134,0,45.511-20.378,45.511-45.511V-271.2z"/>
			<path style="fill:#005197;" d="M273.067-316.711H136.533v295.822h136.533V-316.711z"/>
			<g>
				<path style="fill:#F9CF01;" d="M32.506-293.956H14.632v143.03h17.874V-293.956L32.506-293.956z"/>
				<path style="fill:#F9CF01;" d="M94.652-186.686H41.87v8.943h52.782V-186.686z"/>
				<path style="fill:#F9CF01;" d="M121.902-293.956h-17.874v143.03h17.874V-293.956L121.902-293.956z"/>
				<path style="fill:#F9CF01;" d="M94.652-267.138H41.87v8.943h52.782V-267.138z"/>
				<path style="fill:#F9CF01;" d="M42.871-150.926h50.79l-25.395-17.761L42.871-150.926z"/>
				<path style="fill:#F9CF01;" d="M41.882-278.334h52.782l-26.396-18.455L41.882-278.334z"/>
				<path style="fill:#F9CF01;" d="M86.141-97.279c0-9.887-8.01-17.874-17.874-17.874c-9.876,0-17.886,7.987-17.886,17.874      s8.01,17.874,17.886,17.874C78.131-79.405,86.141-87.392,86.141-97.279"/>
				<path style="fill:#F9CF01;" d="M77.21-63.783c0-8.636-4.005-11.173-8.943-11.173s-8.932,2.537-8.932,11.173      c0,8.647,6.144,20.116,8.932,20.116C71.066-43.667,77.21-55.136,77.21-63.783"/>
				<path style="fill:#F9CF01;" d="M68.267-127.886c-14.825,0-27.739,6.747-35.089,16.805c3.083-16.623,17.59-29.195,35.089-29.195      s32.006,12.572,35.089,29.195C96.006-121.138,83.092-127.886,68.267-127.886"/>
				<path style="fill:#F9CF01;" d="M64.046-238.022c0,2.617,2.082,4.699,4.699,4.699c2.606,0,4.688-2.082,4.688-4.699      c0-2.583-2.082-4.71-4.688-4.71C66.128-242.733,64.046-240.605,64.046-238.022 M97.496-222.435      c0,12.459-7.817,23.017-18.762,27.193c3.402-2.924,6.599-5.086,6.599-12.095c0-11.059-6.588-17.021-17.067-17.021v-0.091      c-7.316-0.273-13.187-6.235-13.187-13.574s5.871-13.278,13.187-13.551v-0.091c0.102,0,0.205,0.023,0.319,0.034      c0.057-0.011,0.102-0.034,0.159-0.034c0.159,0,0.307,0.091,0.466,0.091C84.901-251.061,97.496-238.273,97.496-222.435"/>
				<path style="fill:#F9CF01;" d="M67.914-211.728c-2.628,0-4.745,2.15-4.745,4.745c0,2.606,2.116,4.767,4.745,4.767      s4.745-2.162,4.745-4.767C72.658-209.578,70.542-211.728,67.914-211.728 M68.267-193.285v0.068c-0.08,0-0.148-0.023-0.239-0.023      c-0.034,0-0.068,0.023-0.114,0.023c-0.125,0-0.228-0.068-0.353-0.068c-15.804-0.387-28.524-13.221-28.524-29.15      c0-12.47,7.805-23.029,18.762-27.204c-3.402,2.924-6.337,5.097-6.337,11.366c0,11.162,5.962,17.328,16.27,17.328l0.023,0.205      c0.057,0,0.102-0.034,0.159-0.034c7.6,0,13.778,6.212,13.778,13.79C81.692-199.509,75.696-193.49,68.267-193.285"/>
			</g>
		</g>
	</g>
</g>
<g>
</g>
<g>
</g>
<g>
</g>
<g>
</g>
<g>
</g>
<g>
</g>
<g>
</g>
<g>
</g>
<g>
</g>
<g>
</g>
<g>
</g>
<g>
</g>
<g>
</g>
<g>
</g>
<g>
</g>
</svg>
