<?xml version="1.0" encoding="iso-8859-1"?>
<!-- Generator: Adobe Illustrator 19.0.0, SVG Export Plug-In . SVG Version: 6.00 Build 0)  -->
<svg xmlns="http://www.w3.org/2000/svg" xmlns:xlink="http://www.w3.org/1999/xlink" version="1.1" id="Capa_1" x="0px" y="0px" viewBox="0 0 512 512" style="enable-background:new 0 0 512 512;" xml:space="preserve">
<g transform="matrix(1.25 0 0 -1.25 0 45)">
	<g>
		<g>
			<path style="fill:#003893;" d="M409.6-271.2c0-25.134-20.378-45.511-45.511-45.511H45.511C20.378-316.711,0-296.334,0-271.2     v204.8c0,25.134,20.378,45.511,45.511,45.511h318.578c25.134,0,45.511-20.378,45.511-45.511V-271.2z"/>
			<path style="fill:#F4900C;" d="M393.591-32.039L9.5-298.768c0.296-0.375,0.603-0.728,0.91-1.115L409.6-89.19v22.756     C409.6-52.622,403.308-40.39,393.591-32.039"/>
			<path style="fill:#EEEEEE;" d="M11.514-301.18L409.6-157.422v68.267L10.411-299.849C10.786-300.293,11.127-300.748,11.514-301.18     "/>
			<path style="fill:#FFFFFF;" d="M102.4-42.734l3.482-58.664l11.628,24.565l-5.029-26.704l18.648,19.763l-13.039-23.859     l23.848,13.039l-19.763-18.648l26.704,5.029l-24.553-11.628l58.664-3.482l-58.664-3.47l24.553-11.628l-26.704,5.018     l19.763-18.648l-23.848,13.039l13.039-23.848l-18.648,19.763l5.029-26.704l-11.628,24.553L102.4-203.9l-3.482,58.652     L87.29-169.801l5.029,26.704l-18.648-19.763l13.039,23.848l-23.848-13.039l19.763,18.648l-26.704-5.018l24.553,11.628     l-58.664,3.47l58.664,3.482l-24.553,11.628l26.704-5.029L62.862-94.594l23.848-13.039L73.671-83.774l18.648-19.763L87.29-76.833     l11.628-24.565L102.4-42.734z"/>
		</g>
	</g>
</g>
<g>
</g>
<g>
</g>
<g>
</g>
<g>
</g>
<g>
</g>
<g>
</g>
<g>
</g>
<g>
</g>
<g>
</g>
<g>
</g>
<g>
</g>
<g>
</g>
<g>
</g>
<g>
</g>
<g>
</g>
</svg>
