<?xml version="1.0" encoding="iso-8859-1"?>
<!-- Generator: Adobe Illustrator 19.0.0, SVG Export Plug-In . SVG Version: 6.00 Build 0)  -->
<svg xmlns="http://www.w3.org/2000/svg" xmlns:xlink="http://www.w3.org/1999/xlink" version="1.1" id="Capa_1" x="0px" y="0px" viewBox="0 0 512 512" style="enable-background:new 0 0 512 512;" xml:space="preserve">
<g transform="matrix(1.25 0 0 -1.25 0 45)">
	<g>
		<g>
			<path style="fill:#141414;" d="M204.8-131.822c10.263,0,19.547-4.187,26.249-10.934c-5.291,3.812-11.753,6.087-18.773,6.087     c-17.738,0-32.131-14.382-32.131-32.131s14.393-32.131,32.131-32.131c7.02,0,13.483,2.276,18.773,6.087     c-6.702-6.747-15.986-10.934-26.249-10.934c-20.423,0-36.978,16.555-36.978,36.978S184.377-131.822,204.8-131.822      M241.778-142.654l11.742-16.156l19.001,6.167L260.779-168.8l11.742-16.156l-19.001,6.167l-11.742-16.156v19.979l-19.001,6.167     l19.001,6.178C241.778-162.622,241.778-142.654,241.778-142.654z M0-237.067h409.6v136.533H0V-237.067z"/>
			<path style="fill:#E70013;" d="M364.089-20.889H45.511C20.378-20.889,0-41.266,0-66.4v-34.133h409.6V-66.4     C409.6-41.266,389.222-20.889,364.089-20.889"/>
			<path style="fill:#239E46;" d="M364.089-316.711H45.511C20.378-316.711,0-296.334,0-271.2v34.133h409.6V-271.2     C409.6-296.334,389.222-316.711,364.089-316.711"/>
			<g>
				<path style="fill:#FFFFFF;" d="M204.8-205.778c10.263,0,19.547,4.187,26.249,10.934c-5.291-3.812-11.753-6.087-18.773-6.087      c-17.738,0-32.131,14.382-32.131,32.131s14.393,32.131,32.131,32.131c7.02,0,13.483-2.276,18.773-6.087      c-6.702,6.747-15.986,10.934-26.249,10.934c-20.423,0-36.978-16.555-36.978-36.978S184.377-205.778,204.8-205.778"/>
				<path style="fill:#FFFFFF;" d="M241.778-174.978v-19.979l11.742,16.168l19.001-6.178l-11.742,16.156l11.742,16.168      l-19.001-6.178l-11.742,16.168v-19.979l-19.001-6.178L241.778-174.978z"/>
			</g>
		</g>
	</g>
</g>
<g>
</g>
<g>
</g>
<g>
</g>
<g>
</g>
<g>
</g>
<g>
</g>
<g>
</g>
<g>
</g>
<g>
</g>
<g>
</g>
<g>
</g>
<g>
</g>
<g>
</g>
<g>
</g>
<g>
</g>
</svg>
