<?xml version="1.0" encoding="iso-8859-1"?>
<!-- Generator: Adobe Illustrator 19.0.0, SVG Export Plug-In . SVG Version: 6.00 Build 0)  -->
<svg xmlns="http://www.w3.org/2000/svg" xmlns:xlink="http://www.w3.org/1999/xlink" version="1.1" id="Capa_1" x="0px" y="0px" viewBox="0 0 512 512" style="enable-background:new 0 0 512 512;" xml:space="preserve">
<g transform="matrix(1.25 0 0 -1.25 0 45)">
	<g>
		<g>
			<path style="fill:#009543;" d="M409.6-271.2c0-25.134-20.378-45.511-45.511-45.511H45.511C20.378-316.711,0-296.334,0-271.2     v204.8c0,25.134,20.378,45.511,45.511,45.511h318.578c25.134,0,45.511-20.378,45.511-45.511V-271.2z"/>
			<path style="fill:#EEEEEE;" d="M409.6-225.689H0v113.778h409.6V-225.689z"/>
			<path style="fill:#00209F;" d="M364.089-20.889H45.511C20.378-20.889,0-41.266,0-66.4v-45.511h409.6V-66.4     C409.6-41.266,389.222-20.889,364.089-20.889"/>
			<g>
				<path style="fill:#292F33;" d="M192.353-143.541c0,6.758,2.958,12.948,8.567,14.928v-12.755l-5.541-5.552h5.541v-8.272      c0-0.284,0.239-0.466,0.307-0.728l-3.925-5.211C194.97-156.933,192.353-149.958,192.353-143.541 M217.247-143.541      c0-6.303-2.526-13.164-4.824-17.397l-4.005,5.131c0.046,0.228,0.25,0.375,0.25,0.614v8.272h5.552l-5.552,5.552v12.755      C214.289-130.593,217.247-136.783,217.247-143.541 M241.198-189.94c-0.182,0.535-4.847-1.604-4.847-1.604l-21.003,26.874      c2.571,4.608,5.575,12.208,5.575,21.663c0,14.12-7.487,17.829-12.254,18.819v0.626c0,1.957-1.582,3.538-3.538,3.538h-0.671      c-1.946,0-3.538-1.582-3.538-3.538v-0.626c-4.756-0.99-12.242-4.699-12.242-18.819c0-9.648,3.129-17.385,5.734-21.959      l-20.014-26.578c0,0-4.085,2.139-4.267,1.604c-0.182-0.535-8.533-13.87-8.533-13.87s17.772-11.605,43.201-11.605      c22.756,0,44.066,11.605,44.066,11.605S241.368-190.475,241.198-189.94"/>
				<path style="fill:#53646D;" d="M236.624-195.47c0,0-16.179-5.985-31.824-5.985s-31.824,5.985-31.824,5.985l-3.903-7.384      c0,0,16.532-7.396,35.726-7.396c19.206,0,35.738,7.396,35.738,7.396L236.624-195.47z"/>
			</g>
		</g>
	</g>
</g>
<g>
</g>
<g>
</g>
<g>
</g>
<g>
</g>
<g>
</g>
<g>
</g>
<g>
</g>
<g>
</g>
<g>
</g>
<g>
</g>
<g>
</g>
<g>
</g>
<g>
</g>
<g>
</g>
<g>
</g>
</svg>
