<?xml version="1.0" encoding="iso-8859-1"?>
<!-- Generator: Adobe Illustrator 19.0.0, SVG Export Plug-In . SVG Version: 6.00 Build 0)  -->
<svg xmlns="http://www.w3.org/2000/svg" xmlns:xlink="http://www.w3.org/1999/xlink" version="1.1" id="Capa_1" x="0px" y="0px" viewBox="0 0 512 512" style="enable-background:new 0 0 512 512;" xml:space="preserve">
<path style="fill:#EEEEEE;" d="M507.635,106.248c-8.574-20.915-28.859-35.137-52.524-35.137H170.667H56.889  C25.472,71.111,0,96.583,0,128v112.597v0.344v0.831v29.287v0.344v36.467v30.762v0.192v35.974V384c0,7.752,1.557,15.059,4.365,21.752  c8.573,20.915,28.859,35.137,52.524,35.137h398.222c23.665,0,43.951-14.222,52.524-35.137c2.808-6.693,4.365-14,4.365-21.752v-9.203  v-35.974v-0.192v-30.762v-36.467v-0.344v-30.118v-0.344v-36.467v-30.954v-35.974v-0.271V128  C512,120.248,510.443,112.941,507.635,106.248z"/>
<path style="fill:#002868;" d="M170.667,204.174v-30.82v-36.409v-0.014v-30.805V71.111H56.889C25.472,71.111,0,96.583,0,128v112.941  h170.667V204.174z M114.887,201.927l-29.554-21.476L55.78,201.927l11.292-34.813l-29.554-21.545h36.523l11.292-34.745l11.292,34.745  h36.523l-29.554,21.545L114.887,201.927z"/>
<g>
	<path style="fill:#BF0A30;" d="M56.889,440.889h398.222c23.665,0,43.951-14.222,52.524-35.137H4.365   C12.938,426.667,33.224,440.889,56.889,440.889z"/>
	<rect y="338.824" style="fill:#BF0A30;" width="512" height="35.974"/>
	<rect x="170.667" y="137.203" style="fill:#BF0A30;" width="341.333" height="35.974"/>
	<path style="fill:#BF0A30;" d="M507.635,106.248c-8.574-20.915-28.859-35.137-52.524-35.137H170.667v35.137H507.635z"/>
	<rect x="170.667" y="204.131" style="fill:#BF0A30;" width="341.333" height="36.81"/>
	<rect y="271.059" style="fill:#BF0A30;" width="512" height="36.81"/>
</g>
<path style="fill:#FFFFFF;" d="M133.156,145.708H96.619l-11.278-34.745l-11.292,34.745H37.512l29.554,21.476l-11.292,34.745  l29.568-21.476l29.554,21.476l-11.292-34.745L133.156,145.708z"/>
<g>
</g>
<g>
</g>
<g>
</g>
<g>
</g>
<g>
</g>
<g>
</g>
<g>
</g>
<g>
</g>
<g>
</g>
<g>
</g>
<g>
</g>
<g>
</g>
<g>
</g>
<g>
</g>
<g>
</g>
</svg>
