<?xml version="1.0" encoding="iso-8859-1"?>
<!-- Generator: Adobe Illustrator 19.0.0, SVG Export Plug-In . SVG Version: 6.00 Build 0)  -->
<svg xmlns="http://www.w3.org/2000/svg" xmlns:xlink="http://www.w3.org/1999/xlink" version="1.1" id="Capa_1" x="0px" y="0px" viewBox="0 0 512 512" style="enable-background:new 0 0 512 512;" xml:space="preserve">
<g transform="matrix(1.25 0 0 -1.25 0 45)">
	<path style="fill:#8D2129;" d="M368.481-28.502H41.119c-19.337,0-35.075-15.737-35.075-35.075v-210.447   c0-19.337,15.737-35.075,35.075-35.075h327.362c19.337,0,35.074,15.737,35.074,35.075v210.447   C403.556-44.239,387.818-28.502,368.481-28.502z"/>
	<g>
		<path style="fill:#FF5B00;" d="M104.711-29.333H54.548v4H42.222c-20.399,0-36.978-16.093-36.978-35.867v-215.2    c0-19.774,16.578-35.867,36.978-35.867h12.326v3.467h50.163V-29.333z"/>
		<path style="fill:#005641;" d="M42.222-25.333c-20.399,0-36.978-16.093-36.978-35.867v-215.2    c0-19.774,16.578-35.867,36.978-35.867h12.326v286.933C54.548-25.333,42.222-25.333,42.222-25.333z"/>
	</g>
	<g>
		<path style="fill:#FFB700;" d="M134.886-67.105c9.603-1.069,13.517-6.042,15.291-11.378c0,0-0.762,10.911-0.398,20.047    c0.239,6.053-3.151,13.369-9.557,12.311c-6.394-1.069-13.517,0.228-13.517,0.228s1.434-4.141,0-8.056    C125.283-57.867,125.283-66.036,134.886-67.105z M386.228-45.897c0,0-7.123-1.297-13.517-0.228    c-6.406,1.058-9.797-6.258-9.557-12.311c0.364-9.137-0.398-20.047-0.398-20.047c1.775,5.336,5.689,10.309,15.291,11.378    c9.603,1.069,9.603,9.239,8.18,13.153C384.794-50.039,386.228-45.897,386.228-45.897z M126.705-283.642    c1.434-3.914,0-8.066,0-8.066s7.123,1.308,13.517,0.239c6.406-1.069,9.797,6.246,9.557,12.3    c-0.364,9.137,0.398,20.059,0.398,20.059c-1.775-5.336-5.689-10.309-15.291-11.378    C125.283-271.558,125.283-279.727,126.705-283.642z M378.047-270.489c-9.603,1.069-13.517,6.042-15.291,11.378    c0,0,0.762-10.923,0.398-20.059c-0.239-6.053,3.151-13.369,9.557-12.3c6.394,1.069,13.517-0.239,13.517-0.239    s-1.434,4.153,0,8.067C387.65-279.727,387.65-271.558,378.047-270.489z M168.292-168.8c0-5.211,6.884-6.394,6.884-6.394    s-1.9-2.139-0.478-3.322c-2.378-0.467-1.9-3.561,0.239-5.45c-2.378-1.661,0.945-4.027,0.945-4.027s-2.605-3.322,1.661-3.789    c0.467-2.605-0.239-2.844-3.789-2.844c-3.561,0,0-4.267,2.127-3.8c2.139,0.455,2.367-0.467,0.945-2.139    c-1.422-1.672-2.367-2.844-0.945-4.267c1.422-1.422,2.605-5.211-1.183-6.861c-0.717,1.422-4.506,2.844-4.267,0    c0.228-2.844,4.972-4.517,4.972-4.517l-3.311-4.017l4.972-0.25c0,0,0.478-5.689,2.605-4.972c2.139,0.705,2.412,4.027,2.412,4.027    l5.416,1.195l-3.561,4.017c0,0,5.222-0.467,5.928,2.605c0.717,3.084-2.844,5.689-4.734,1.195    c-2.844,1.672-3.084,6.156-1.422,7.828c1.661,1.661,1.422,2.594-0.717,4.267c-2.127,1.661-0.239,2.367,2.605,2.594    c2.844,0.239,3.084,2.139,0.239,3.095c-2.844,0.955-2.844,1.889-2.844,1.889s2.844,0.478,4.744,0.478    c1.889,0,2.844-3.084,2.844-5.689c0-2.617-1.183-7.828,2.127-8.056c-0.467,2.844,2.605,2.594,2.605,2.594s5.689-5.211,8.067-7.111    c2.367-1.9,5.211-5.439,13.505,4.517c6.644-3.8,11.15-4.267,11.15-4.267s1.889-8.066,4.017-13.995    c2.139-5.916-2.594-10.433-8.283-10.183c-5.689,0.239-9.011-0.25-11.389-4.517c-2.367-4.267,1.422-5.928,3.8-2.127    c1.422-2.389,4.972-3.8,9.011,0c3.55-4.984,8.056-0.239,8.056-0.239s3.55-3.072,5.916-2.639c2.367,0.433,3.8,4.539,3.322,6.906    s-0.228,6.394-0.228,6.394s3.55-0.228,7.816,3.561c4.267,3.789,2.139,3.55-0.705,4.506c-2.844,0.945-4.984,2.127-4.517,5.689    c0.467,3.55,5.689,9.239,5.689,9.239s7.111,0,16.361,6.406c9.239,6.394,21.094,5.222,21.094,5.222s-1.183-7.589,5.928-13.995    c4.62-4.153,5.928-10.9,6.394-17.544c0.467-6.644-4.017-7.35-7.339-7.578c-3.322-0.239-6.167-0.239-8.533-4.506    c-2.367-4.267,2.367-4.506,5.45-1.422c1.422-2.139,4.506-3.561,7.578,0.239c5.45-5.689,7.361,0.228,7.361,0.228    s3.072-4.972,6.156-2.81c3.072,2.173,1.9,6.849,0.955,8.738s-1.422,5.689,1.422,7.828c2.844,2.127,5.439,5.222,5.211,6.644    c-0.239,1.422-4.744,1.889-6.167,3.55c-1.422,1.672-1.889,4.984,1.9,7.828c8.533-4.506,12.561-9.489,13.278-14.222    c0.705-4.733,0.945-9.023-1.422-9.728c-2.367-0.717-10.433-2.367-12.095-6.406c-1.65-4.027,1.422-4.027,3.789-2.127    c2.367-2.844,5.928-2.139,7.828,0.478c1.9-2.844,5.211-3.8,8.533-0.478c7.589-4.267,8.294-0.945,5.689,2.367    c-2.617,3.311-4.267,7.361,2.127,13.05c6.406,5.689,1.661,5.916-1.422,8.044c-3.072,2.139-6.394,10.673,1.661,31.301    c8.056,20.616-4.506,30.094-4.506,30.094s9.728,4.744,8.056,14.461c-1.957,11.412-13.745,12.8-26.545,10.911    c-12.8-1.9-19.911-2.139-22.278,2.127c-2.367,4.267-4.744,3.084-7.111-0.945c-2.367,3.072-2.605,9,3.789,9.716    c-2.127,2.617-8.294,3.084-11.378-3.084c-4.972,3.561-4.027,9.239-0.228,11.855c3.8,2.605,5.689-2.139,5.689-2.139    s4.017,1.422,2.844,6.633c8.294-1.422,12.083-8.761,7.578-15.167c6.633,0.945,10.911,6.872,6.394,13.745    c7.828-2.844,9.728-8.294,4.039-14.927c7.816,0.239,8.294,7.111,8.294,7.111s1.889-6.394,10.422-7.35    c-3.084,3.072-2.844,7.828-2.844,7.828s8.066-7.828,12.572-10.433c4.494-2.605,14.927-4.267,13.983,4.027    c-0.945,8.294-8.533,4.984-8.294,0.478c-6.167,1.195-12.095,8.056-27.022,16.35c-14.939,8.306-36.273,5.45-41.779-4.027    c-5.518-9.478,3.141-18.956,3.141-18.956s-5.45-7.589,2.139-11.15c-0.467,8.067,5.211,7.237,10.183,4.039    c4.984-3.208,13.164-3.561,25.6-1.786c12.447,1.786,23.473,2.491,23.473-6.042s-13.153-9.956-22.756-9.956    s-43.031-3.197-44.806-2.139c-1.775,1.069-4.267,7.828-4.267,7.828s4.62-1.422,3.561,0c-1.069,1.422-3.208,11.378-3.208,11.378    l3.561-2.127c0,3.197,1.422,15.644-3.561,22.039c6.053,2.491,5.336,12.607,5.336,12.607s-2.491-3.72-6.042-4.426    c-3.561-0.717-4.62,4.972-10.309,4.38c-0.717-2.731-3.914-4.744-3.914-4.744s-2.844,7.111-9.239,3.914    c2.127-4.267-2.139-4.62-5.689-1.422c-3.561,3.197-9.603,0-9.603,0s2.127-6.394-4.631-8.18    c-6.747-1.775-13.505-2.127-13.505-2.127s2.253,6.394-4.62,7.35c-3.561,0.489-5.689-4.027-3.8-10.195    c1.9-6.167,12.333-13.745,12.333-13.745l0.467,4.027l4.278-4.027l1.172,4.027c0,0,2.844-5.211,6.406-9.25    c-11.15,0.717-21.094,6.644-23.233,7.35c-2.127,0.717-3.311-3.789,1.422-6.156c-1.9-0.478-4.027-5.928-4.027-9.25    c3.8,0.478,8.066,0.945,8.066,0.945s-1.422-2.367-1.661-4.267c3.311,0.955,5.928,2.378,6.872,2.844    c0.945,0.489,0.478-4.733,2.127-3.55c1.661,1.195,1.434,2.844,1.434,2.844s2.287-4.415,4.972-4.744    c1.843,5.507,5.689,0.478,3.311-1.422c-2.378-1.9-10.422-7.816-15.633-14.143c-5.211-6.315-4.506-22.118-4.506-22.118    l-15.405,15.405c0,0,3.072,0.945,3.55,5.45c0.478,4.506-6.167,4.984-6.167,4.984s0.239,10.661,0.239,24.166    c0,13.517-0.705,35.556,5.45,48.595c-5.928-2.355-15.644-10.422-17.294-33.656c-1.661-23.233-0.955-39.822-0.955-39.822    S168.292-163.589,168.292-168.8z"/>
		<path style="fill:#FFB700;" d="M364.089-20.889H45.511C20.378-20.889,0-41.267,0-66.4v-204.8    c0-25.133,20.378-45.511,45.511-45.511h318.578c25.133,0,45.511,20.378,45.511,45.511v204.8    C409.6-41.267,389.222-20.889,364.089-20.889z M11.378-271.2v204.8c0,18.819,15.315,34.133,34.133,34.133h55.467v-273.067H45.511    C26.693-305.333,11.378-290.018,11.378-271.2z M398.222-271.2c0-18.818-15.315-34.133-34.133-34.133H115.2v273.067h248.889    c18.818,0,34.133-15.315,34.133-34.133V-271.2z"/>
	</g>
</g>
<g>
</g>
<g>
</g>
<g>
</g>
<g>
</g>
<g>
</g>
<g>
</g>
<g>
</g>
<g>
</g>
<g>
</g>
<g>
</g>
<g>
</g>
<g>
</g>
<g>
</g>
<g>
</g>
<g>
</g>
</svg>
