<?xml version="1.0" encoding="iso-8859-1"?>
<!-- Generator: Adobe Illustrator 19.0.0, SVG Export Plug-In . SVG Version: 6.00 Build 0)  -->
<svg xmlns="http://www.w3.org/2000/svg" xmlns:xlink="http://www.w3.org/1999/xlink" version="1.1" id="Capa_1" x="0px" y="0px" viewBox="0 0 512 512" style="enable-background:new 0 0 512 512;" xml:space="preserve">
<g transform="matrix(1.25 0 0 -1.25 0 45)">
	<g>
		<g>
			<path style="fill:#CE1B26;" d="M409.6-271.2c0-25.134-20.378-45.511-45.511-45.511H45.511C20.378-316.711,0-296.334,0-271.2     v204.8c0,25.134,20.378,45.511,45.511,45.511h318.578c25.134,0,45.511-20.378,45.511-45.511V-271.2z"/>
			<path style="fill:#002B7F;" d="M364.089-20.889H45.511C20.378-20.889,0-41.266,0-66.4v-102.4h409.6v102.4     C409.6-41.266,389.222-20.889,364.089-20.889"/>
			<g>
				<path style="fill:#B28914;" d="M113.778-123.289H68.267v34.133h45.511V-123.289z"/>
				<path style="fill:#B28914;" d="M89.85-84.024l-1.081-36.227h-36.75c-4.528,8.784-8.26,16.259-8.26,26.374      c0,8.465,6.656,15.178,16.247,15.178C70.167-78.699,81.317-82.124,89.85-84.024"/>
			</g>
			<path style="fill:#FFD83D;" d="M89.042-82.42l-0.262-3.732c-7.122,1.081-17.226,5.063-26.647,5.063     c-8.693,0-15.44-3.482-15.44-12.254c0-8.647,3.664-16.509,8.522-24.496l-5.052-2.401c-4.528,8.784-8.26,16.259-8.26,26.362     c0,8.465,6.645,16.782,18.113,16.782C70.167-77.095,80.509-80.508,89.042-82.42"/>
			<path style="fill:#B28914;" d="M96.313-84.024l1.081-36.227h36.75c4.528,8.784,8.26,16.259,8.26,26.374     c0,8.465-6.656,15.178-16.247,15.178C115.996-78.699,104.846-82.124,96.313-84.024"/>
			<g>
				<path style="fill:#FFD83D;" d="M97.132-82.42l0.262-3.732c7.122,1.081,17.226,5.063,26.647,5.063      c8.693,0,15.44-3.482,15.44-12.254c0-8.647-3.664-16.509-8.522-24.496l5.052-2.401c4.528,8.784,8.26,16.259,8.26,26.362      c0,8.465-6.656,16.782-18.113,16.782C116.008-77.095,105.665-80.508,97.132-82.42"/>
				<path style="fill:#FFD83D;" d="M93.082-58.071l-2.981-5.575l2.981-5.598l2.992,5.598L93.082-58.071z M93.082-43.94l-2.981-5.598      l2.981-5.575l2.992,5.575L93.082-43.94z"/>
				<path style="fill:#FFD83D;" d="M94.322-56.592l4.699-2.981l4.71,2.981l-4.71,2.992L94.322-56.592z M82.432-56.592l4.71-2.981      l4.699,2.981L87.142-53.6L82.432-56.592z"/>
				<path style="fill:#FFD83D;" d="M93.082-54.453c1.252,0,2.264-1.001,2.264-2.253c0-1.263-1.013-2.264-2.264-2.264      c-1.24,0-2.264,1.001-2.264,2.264C90.817-55.455,91.841-54.453,93.082-54.453"/>
				<path style="fill:#FFD83D;" d="M93.082-65.035c3.345,0,6.064-2.708,6.064-6.064c0-3.334-2.719-6.042-6.064-6.042      c-3.345,0-6.053,2.708-6.053,6.042C87.029-67.743,89.737-65.035,93.082-65.035"/>
				<path style="fill:#FFD83D;" d="M93.082-102.809c-7.487,0-12.982-3.538-13.312-12.516c-1.832,3.22-9.569,13.346-16.794,11.992      c-4.278-0.808-8.078-6.758-7.43-13.585c-3.573,10.217-13.972,11.901-21.584,5.86c6.747-5.552,9.762-21.925,15.428-29.036h43.691      h43.691c5.678,7.111,8.693,23.484,15.44,29.036c-7.6,6.042-18.011,4.358-21.561-5.86c0.626,6.827-3.174,12.777-7.475,13.585      c-7.214,1.354-14.939-8.772-16.771-11.992C106.075-106.347,100.568-102.809,93.082-102.809"/>
			</g>
			<path d="M136.647-140.094c0-3.231-19.513-6.793-43.554-6.793c-24.03,0-43.543,3.561-43.543,6.793     c0,3.231,19.513,4.927,43.543,4.927C117.134-135.167,136.647-136.863,136.647-140.094"/>
			<path style="fill:none;stroke:#000000;stroke-width:0.076;stroke-linecap:round;stroke-linejoin:round;" d="M136.647-140.094     c0-3.231-19.513-6.793-43.554-6.793c-24.03,0-43.543,3.561-43.543,6.793c0,3.231,19.513,4.927,43.543,4.927     C117.134-135.167,136.647-136.863,136.647-140.094z"/>
			<g>
				<path style="fill:#FFD83D;" d="M87.78-82.135c0,0,6.656-0.967,10.593,0c0,0,1.536-13.619,2.879-18.671      c0,0-4.688,1.331-7.999,1.331c-3.3,0-8.329-1.331-8.329-1.331s0.944,6.133,1.65,10.229C87.29-86.493,87.78-82.135,87.78-82.135"/>
				<path style="fill:#FFD83D;" d="M37.683-100.738c-2.15,9.148-2.253,18.5,9.296,26.442c11.548,7.953,30.8,1.252,36.136-0.08      c5.336-1.331,5.439-7.134-1.092-5.507s-24.838,6.724-33.667-1.161s-7.122-13.699-5.769-18.364      C46.501-112.833,39.356-107.872,37.683-100.738"/>
				<path style="fill:#FFD83D;" d="M148.48-101.262c2.15,9.148,2.253,18.5-9.296,26.442c-11.548,7.953-30.8,1.252-36.136-0.08      c-5.336-1.331-5.439-7.134,1.092-5.507s24.838,6.724,33.667-1.161c8.829-7.885,7.066-13.676,5.769-18.364      C140.607-110.682,146.807-108.395,148.48-101.262"/>
			</g>
		</g>
	</g>
</g>
<g>
</g>
<g>
</g>
<g>
</g>
<g>
</g>
<g>
</g>
<g>
</g>
<g>
</g>
<g>
</g>
<g>
</g>
<g>
</g>
<g>
</g>
<g>
</g>
<g>
</g>
<g>
</g>
<g>
</g>
</svg>
