<?xml version="1.0" encoding="iso-8859-1"?>
<!-- Generator: Adobe Illustrator 19.0.0, SVG Export Plug-In . SVG Version: 6.00 Build 0)  -->
<svg xmlns="http://www.w3.org/2000/svg" xmlns:xlink="http://www.w3.org/1999/xlink" version="1.1" id="Capa_1" x="0px" y="0px" viewBox="0 0 512 512" style="enable-background:new 0 0 512 512;" xml:space="preserve">
<path style="fill:#66CCFF;" d="M455.11,71.111H56.884C25.542,71.111,0.122,96.463,0,127.777c0,66.557,0,189.903,0,256.452  c0.121,31.257,25.451,56.57,56.715,56.661h398.565C486.619,440.797,512,415.365,512,384.004V128  C512,96.583,486.528,71.111,455.11,71.111z"/>
<polygon style="fill:#FFFFFF;" points="166.098,367.477 255.997,145.068 255.999,145.073 256.003,145.064 345.903,367.473   367.346,394.074 379.249,408.834 256.003,104.387 132.74,408.841 "/>
<polygon points="255.997,145.068 166.098,367.477 255.997,256.002 345.897,367.477 255.999,145.073 "/>
<polygon style="fill:#FCD116;" points="367.346,394.074 345.897,367.477 345.897,367.477 255.997,256.002 166.098,367.477   166.098,367.477 132.74,408.841 132.732,408.851 379.262,408.851 379.249,408.834 "/>
<g>
</g>
<g>
</g>
<g>
</g>
<g>
</g>
<g>
</g>
<g>
</g>
<g>
</g>
<g>
</g>
<g>
</g>
<g>
</g>
<g>
</g>
<g>
</g>
<g>
</g>
<g>
</g>
<g>
</g>
</svg>
