<?xml version="1.0" encoding="iso-8859-1"?>
<!-- Generator: Adobe Illustrator 19.0.0, SVG Export Plug-In . SVG Version: 6.00 Build 0)  -->
<svg xmlns="http://www.w3.org/2000/svg" xmlns:xlink="http://www.w3.org/1999/xlink" version="1.1" id="Capa_1" x="0px" y="0px" viewBox="0 0 512 512" style="enable-background:new 0 0 512 512;" xml:space="preserve">
<g transform="matrix(1.25 0 0 -1.25 0 45)">
	<g>
		<g>
			<path style="fill:#ED1C23;" d="M409.6-271.2c0-25.134-20.378-45.511-45.511-45.511H45.511C20.378-316.711,0-296.334,0-271.2     v204.8c0,25.134,20.378,45.511,45.511,45.511h318.578c25.134,0,45.511-20.378,45.511-45.511V-271.2z"/>
			<path style="fill:#EEEEEE;" d="M409.6-225.689H0v113.778h409.6V-225.689z"/>
			<path style="fill:#008000;" d="M193.343-114.232c-2.082-2.31-6.997-5.53-8.112-7.726c-1.115-2.207-4.699-4.471-6.61-5.279     c-1.923-0.819-0.239-2.139,1.855-0.831c2.105,1.297,3.846,1.24,5.086,2.435c1.229,1.183,2.992,0.057,1.263-0.751     c-1.718-0.819-2.367-2.185-3.118-3.163c-0.762-0.99-1.126-1.479-2.867-1.513c-1.741-0.046-3.288-0.466-4.506-2.23     c-1.229-1.775-2.731-3.846-3.379-4.824c-0.66-0.979-0.159-1.741,1.456-0.546c1.627,1.206,3.436,2.207,4.244,0.865     c0.808-1.331,0.774-1.968-1.388-2.833c-4.608-1.843-5.939-2.935-6.77-4.79c-0.831-1.866-0.341-2.435-3.22-3.368     c-2.879-0.933-7.555-4.324-10.604-6.622c-3.049-2.298-1.308-2.412,1.024-2.298c3.573,0.171,8.169,2.594,10.513,1.582     c0.705-1.343,1.525-3.072,2.617-4.301c-3.766-5.302-4.392-7.361-8.26-7.441c-3.88-0.091-6.303-4.016-8.101-5.985     c-1.798-1.98-3.356-3.857-5.222-4.665c-1.627-0.717-2.002-1.297-0.728-1.946c1.263-0.66,2.389,0.91,3.561,0.364     c1.183-0.558,1.957-0.353,3.766,0.853c1.809,1.195,3.709,2.799,6.61,3.152c1.388-1.627,2.082-2.48,3.652-3.322     c-2.719-3.721-6.827-6.622-10.377-7.862c-3.561-1.229-4.107-2.606-6.656-5.86c-2.537-3.243-2.423-4.312-5.029-4.358     c-2.617-0.068-2.503-0.649-1.126-1.673c1.377-1.047,2.423-0.535,4.471-0.978c2.048-0.432,4.665-0.865,7.316,2.002     c2.651,2.867,9.136,7.885,14.655,7.396c2.617-0.239,4.471-0.774,1.343-3.755c-3.14-2.97-7.646-5.234-10.718-5.848     c-5.985-1.206-8.545-3.584-10.286-3.516c-1.741,0.057-3.368-1.138-0.717-2.719c2.651-1.604,3.527-1.968,6.508-0.637     c2.97,1.32,7.851,3.561,9.774,4.073c1.923,0.535,3.368,1.343,4.722,0.978c1.377-0.353,2.423,0.068,3.959,1.058     c1.525,1.001,3.743,1.149,5.643,2.935c2.207,2.071,4.54,0.284,6.019-0.933c1.479-1.229,4.392-6.098,1.764-9.455     c-2.64-3.345-5.564-6.895-6.497-8.658c-0.933-1.764-1.468-1.877-2.571-2.276c-3.55-1.343-7.168-3.55-8.226-4.449     c-1.047-0.887-0.649-1.183,0.808-1.434c1.456-0.262,1.65,0.046,2.981,1.126c1.331,1.092,2.947,2.765,6.235,2.662     c1.741-0.068,3.174,0.933,4.688,2.514c1.513,1.581,4.779,3.004,6.428,2.662c1.65-0.353,2.128,0.034,3.083,0.751     c0.944,0.694,1.718,1.001,3.197-0.228c1.479-1.229,2.731-1.001,4.255-0.102c1.536,0.91,3.186,0.558,3.607-0.41     c0.398-0.956,0.614-1.82,1.991-2.753c1.377-0.944,6.281-3.846,7.851-4.676c1.559-0.842,2.583,0.728,1.411,1.775     c-1.183,1.035-1.786,1.9-1.616,2.765c0.182,0.876,1.092,1.229,3.755,0.865c4.176-0.592,10.149-3.561,12.311-4.858     c2.173-1.32,4.119-2.435,5.871-2.401c1.741,0.046,2.298,0.444,0.728,1.866c-1.593,1.411-3.516,1.263-4.221,2.708     c-1.217,2.492-3.322,0.694-4.437,3.197c-0.785,1.786-1.866,1.991-3.231,1.866c-1.354-0.125-3.163,1.092-4.415,3.004     c-4.415,6.679-5.609,12.652-4.164,17.146c1.456,4.483,5.689,5.837,8.158,3.948c2.469-1.889,5.382-3.072,6.645-2.947     c1.263,0.125,2.332,0.137,3.971-0.785c1.673-0.944,4.506-1.547,7.953-0.114c3.447,1.422,4.665,0.296,6.861,0.239     c1.855-0.057,4.085-0.398,5.575-1.627c1.468-1.229,3.721-2.048,7.111-2.549c3.402-0.512,5.7,0.41,2.97,1.991     c-2.765,1.593-5.097,2.514-6.11,3.948c-0.99,1.422-2.458,1.684-3.891,1.65c-1.445-0.034-3.8,0.979-5.78,2.97     c-1.968,2.002-3.538,2.355-5.086,2.128c-1.547-0.228-3.3,0.216-4.38,1.536c1.49,1.775,3.083,5.097,4.506,6.098     c1.752,0.137,3.186-0.319,4.38-1.354c1.195-1.024,2.833-0.808,4.005-0.785c1.161,0.023,2.81-0.512,3.789-1.172     c0.99-0.66,2.537-0.614,3.982-0.011c1.422,0.614,1.115,1.377-0.637,2.401c-1.775,1.024-2.753,1.684-3.368,2.651     c-0.58,0.944-1.092,1.411-3.209,1.377c-2.128-0.057-3.14,0.99-4.813,2.799c-3.777,4.073-6.281,4.312-8.715,3.971     c-2.401-0.341-4.813-0.785-6.815,2.082c2.48,1.217,4.506-1.582,7.726,0.842c1.729,1.297,2.867,1.616,5.018,0.887     s4.654-0.489,5.313,0.011c0.683,0.501,1.547,1.297,2.606,1.411c1.047,0.125,0.922,1.536-0.626,1.343     c-2.992-0.353-3.527,1.479-6.406,0.933c-2.89-0.546-3.948-0.091-5.825,1.229c-1.877,1.308-3.447,2.435-8.943,1.547     c0.25,1.741,0.102,3.584,2.81,4.13c2.059-1.217,3.982-0.99,5.621-0.944c1.65,0.034,7.27,0.057,8.92-0.205     c1.673-0.25,2.025,0.535-0.432,1.843c-2.435,1.297-5.928,1.798-7.191,1.866c-1.263,0.08-1.877,0.933-2.685,2.56     c-0.808,1.627-3.243,2.924-6.838,2.947c-2.913,0.023-5.052,1.343-6.531,2.662c-1.49,1.331-2.867,2.367-4.608,2.617     c-1.752,0.25-3.334,1.479-2.583,2.947c0.728,1.468,3.63,2.105,5.7,0.796c2.048-1.308,3.311-1.377,4.551-0.671     c1.24,0.705,2.025,1.013,3.88,0.375c1.843-0.637,3.698-0.603,0.831,1.57c-4.13,3.095-8.181,1.855-9.569,3.561     c-1.399,1.718-2.537,1.013-3.493,0.603c-0.967-0.41-2.697,0.546-0.626,1.627c1.536,0.819,3.083,1.229,4.449,0.592     c1.365-0.66,3.015-0.421,4.05,0.08c1.058,0.512,2.094,1.502-1.104,2.105c-3.209,0.614-8.09,2.537-9.978,4.244     c-1.866,1.695-3.903,2.037-5.541,1.718c-1.638-0.33-2.992-0.558-5.837,1.229c-2.856,1.775-6.565,3.538-9.159,7.157     C195.186-110.227,194.947-112.457,193.343-114.232"/>
			<g>
				<path style="fill:#EEEEEE;" d="M183.751-134.86c-1.877,0.228-3.402-0.649-2.423-1.934c0.967-1.286,1.456-0.478,2.685,0.125      C185.23-136.055,186.368-135.167,183.751-134.86"/>
				<path style="fill:#EEEEEE;" d="M188.951-138.956c-1.718-0.831-3.379-1.82-3.914-3.573c-0.546-1.752-0.466-3.3,1.149-2.879      c2.458,0.637,2.617,3.55,4.415,3.88C190.009-140.674,189.838-139.514,188.951-138.956"/>
				<path style="fill:#EEEEEE;" d="M191.966-137.431c0.159-0.717,0.398-1.877,0.99-2.446c1.582,0.762,5.621,2.298,7.134,2.628      c0.125,1.081-0.182,1.809-0.489,2.378C197.427-135.065,194.253-135.85,191.966-137.431"/>
				<path style="fill:#EEEEEE;" d="M205.483-144.224c0.023-1.07,0.478-3.766,0.694-4.836c0.967-0.455,2.241-0.819,3.209-1.081      c0.66,1.274,0.808,3.106,0.785,4.267C208.407-144.747,206.825-143.519,205.483-144.224"/>
				<path style="fill:#EEEEEE;" d="M202.069-145.817c0.114-0.865,0.148-2.128,0.262-2.901c-1.263-0.023-3.288-0.74-4.528-1.161      c-1.252-0.41-2.753,1.877-0.546,2.799C199.464-146.17,200.909-145.931,202.069-145.817"/>
				<path style="fill:#EEEEEE;" d="M171.122-154.521c2.298,1.217,3.482,0.466,5.586,1.092c0.99-0.944,2.173-2.082,2.981-3.231      c-1.217-2.059-4.927-0.683-6.167-1.582C172.533-157.195,171.827-156.148,171.122-154.521"/>
				<path style="fill:#EEEEEE;" d="M180.429-152.188c0.603-1.252,1.217-2.298,1.707-2.867c1.752-0.159,2.401,0.819,3.152,2.002      s0.717,2.628-1.217,2.492S181.077-151.108,180.429-152.188"/>
				<path style="fill:#EEEEEE;" d="M165.33-174.489c0.501-1.24,1.968-1.695,2.378-2.662c1.627,1.001,2.401,0.933,3.766,0.66      c1.354-0.25,5.006,0.99,7.088,3.174c2.082,2.173,0.74,1.946-1.684,1.604c-2.412-0.341-4.233-0.774-5.894-0.421      C169.335-171.792,166.832-172.509,165.33-174.489"/>
				<path style="fill:#EEEEEE;" d="M186.698-164.34c-1.149-0.705-1.718-1.195-0.819-2.241c0.887-1.047,1.365-0.558,2.412,0.057      c1.058,0.603,1.525,1.479,0.933,2.241C188.621-163.521,187.847-163.634,186.698-164.34"/>
				<path style="fill:#EEEEEE;" d="M192.364-162.554c-1.161-0.023-1.07-0.751-0.91-1.32c0.159-0.58,0.307-0.944,1.252-0.922      c0.944,0.023,1.081,0.239,0.774,1.183C193.172-162.679,193.092-162.531,192.364-162.554"/>
				<path style="fill:#EEEEEE;" d="M195.868-163.555c0.034-1.32-0.193-1.24,1.115-1.434c1.32-0.182,1.752-0.102,1.798,1.126      c0.046,1.24,0.102,1.673-1.422,1.718C195.834-162.11,195.846-162.61,195.868-163.555"/>
				<path style="fill:#EEEEEE;" d="M201.273-164.602c-0.375-1.047-0.899-1.911,0.705-2.526c1.616-0.614,1.673-0.182,2.15,1.206      c0.478,1.388,0.535,2.048-0.705,2.389C202.183-163.202,201.751-163.282,201.273-164.602"/>
				<path style="fill:#EEEEEE;" d="M206.962-164.988c-0.057-0.58-0.535-2.196-0.74-2.708c0.66-0.273,1.536-0.614,2.207-1.035      c0.66-0.421,1.582,0.762,1.263,1.843C209.374-165.808,208.179-164.09,206.962-164.988"/>
				<path style="fill:#EEEEEE;" d="M213.823-147.626c-0.205-0.728-0.876-3.14-1.149-3.8c1.9-0.466,3.356-0.728,4.654-0.626      c1.308,0.102,3.413,0.512,4.437,0.319c1.013-0.193,1.57,0.831-0.125,2.105c-1.695,1.263-2.731,1.456-3.812,1.445      C216.747-148.218,214.892-146.875,213.823-147.626"/>
				<path style="fill:#EEEEEE;" d="M221.059-156.626c-1.286,0.205-2.014-0.842-1.115-1.547c0.887-0.717,2.037-0.398,2.162,0.262      C222.254-157.252,222.299-156.819,221.059-156.626"/>
				<path style="fill:#EEEEEE;" d="M223.972-156.284c0.08-0.649,0.25-1.809,0.262-2.321c0.967-0.922,1.968,0.046,3.004-0.876      c1.035-0.922,1.798,0.034,2.002,0.99c0.205,0.944,0.33,1.456-0.535,1.434C226.805-157.092,225.542-155.454,223.972-156.284"/>
				<path style="fill:#EEEEEE;" d="M203.366-133.87c0.228-0.501,0.831-1.65,0.842-2.23c0.887-0.558,2.935-1.172,3.493-0.148      c0.558,1.035,0.762,1.479-0.193,1.957C206.564-133.802,204.481-132.027,203.366-133.87"/>
				<path style="fill:#EEEEEE;" d="M211.172-135.713c-0.626-0.705-0.125-1.092,0.762-1.57c0.887-0.501,1.513,0.319,1.434,0.967      C213.276-135.657,212.093-134.678,211.172-135.713"/>
				<path style="fill:#EEEEEE;" d="M182.5-185.15c0.66-0.592,1.195-1.434,1.013-2.389c-0.171-0.978,0.421-1.354,1.104-1.638      c0.683-0.262,2.469-1.946,2.81-0.125c0.353,1.843-1.172,4.722-2.241,4.881c-1.058,0.182-1.547,0.171-2.037,0.74      C182.647-183.113,181.214-184.012,182.5-185.15"/>
				<path style="fill:#EEEEEE;" d="M242.176-177.47c-0.455-1.65-2.23-5.257-3.368-5.973c-1.752,0.842-4.961,1.547-5.268,2.503      c0.637,1.752,1.263,3.22,1.752,4.289C237.284-176.218,240.481-176.048,242.176-177.47"/>
				<path style="fill:#EEEEEE;" d="M231.265-174.99c-0.046-1.263-0.785-4.085-1.138-5.063c-2.025-0.239-6.884,0.717-8.522,0.102      c0.068,1.354,0.023,3.106,0.398,3.994C225.098-175.9,227.965-173.897,231.265-174.99"/>
			</g>
		</g>
	</g>
</g>
<g>
</g>
<g>
</g>
<g>
</g>
<g>
</g>
<g>
</g>
<g>
</g>
<g>
</g>
<g>
</g>
<g>
</g>
<g>
</g>
<g>
</g>
<g>
</g>
<g>
</g>
<g>
</g>
<g>
</g>
</svg>
