<?xml version="1.0" encoding="iso-8859-1"?>
<!-- Generator: Adobe Illustrator 19.0.0, SVG Export Plug-In . SVG Version: 6.00 Build 0)  -->
<svg xmlns="http://www.w3.org/2000/svg" xmlns:xlink="http://www.w3.org/1999/xlink" version="1.1" id="Capa_1" x="0px" y="0px" viewBox="0 0 512 512" style="enable-background:new 0 0 512 512;" xml:space="preserve">
<g transform="matrix(1.25 0 0 -1.25 0 45)">
	<g>
		<g>
			<g>
				<path style="fill:#CE1126;" d="M0-271.2c0-25.134,20.378-45.511,45.511-45.511h318.578c25.134,0,45.511,20.378,45.511,45.511      v34.133H0V-271.2z"/>
				<path style="fill:#CE1126;" d="M364.089-20.889H45.511C20.378-20.889,0-41.266,0-66.4v-34.133h409.6V-66.4      C409.6-41.266,389.222-20.889,364.089-20.889"/>
			</g>
			<path style="fill:#002868;" d="M204.8-111.911c31.414,0,56.889-25.475,56.889-56.889s-25.475-56.889-56.889-56.889     s-56.889,25.475-56.889,56.889S173.386-111.911,204.8-111.911 M0-237.067h409.6v136.533H0V-237.067z"/>
			<path style="fill:#FFFFFF;" d="M204.8-225.689c31.414,0,56.889,25.475,56.889,56.889s-25.475,56.889-56.889,56.889     s-56.889-25.475-56.889-56.889S173.386-225.689,204.8-225.689"/>
		</g>
	</g>
</g>
<g>
</g>
<g>
</g>
<g>
</g>
<g>
</g>
<g>
</g>
<g>
</g>
<g>
</g>
<g>
</g>
<g>
</g>
<g>
</g>
<g>
</g>
<g>
</g>
<g>
</g>
<g>
</g>
<g>
</g>
</svg>
