<?xml version="1.0" encoding="iso-8859-1"?>
<!-- Generator: Adobe Illustrator 19.0.0, SVG Export Plug-In . SVG Version: 6.00 Build 0)  -->
<svg xmlns="http://www.w3.org/2000/svg" xmlns:xlink="http://www.w3.org/1999/xlink" version="1.1" id="Capa_1" x="0px" y="0px" viewBox="0 0 512 512" style="enable-background:new 0 0 512 512;" xml:space="preserve">
<path style="fill:#00247D;" d="M455.112,71.113H56.894c-31.417,0-56.888,25.472-56.888,56.888v255.997  c0,31.417,25.472,56.888,56.888,56.888h398.218c31.417,0,56.888-25.472,56.888-56.888V128.001  C512,96.585,486.528,71.113,455.112,71.113z"/>
<path style="fill:#EEEEEE;" d="M270.225,256v-28.857l-100.977-70.698H94.881L237.059,256H270.225z"/>
<path style="fill:#CF1B2B;" d="M270.225,235.833l-113.364-79.388h-24.789l138.153,96.738L270.225,235.833L270.225,235.833z"/>
<path style="fill:#EEEEEE;" d="M115.199,156.446L0,238.45V256h47.388l142.192-99.554L115.199,156.446L115.199,156.446z"/>
<path style="fill:#CF1B2B;" d="M152.379,156.446L10.443,256h3.783h20.778l142.178-99.554L152.379,156.446L152.379,156.446z"/>
<path style="fill:#EEEEEE;" d="M237.072,71.113L94.894,170.668h74.367L270.223,99.97V71.113H237.072z"/>
<path style="fill:#CF1B2B;" d="M249.447,71.113l-142.164,99.554h24.789l138.153-96.738v-2.816H249.447z"/>
<path style="fill:#EEEEEE;" d="M9.432,96.649l132.795,92.949v-18.93h47.331L48.315,71.758C32.088,74.214,18.117,83.528,9.432,96.649  z"/>
<path style="fill:#CF1B2B;" d="M13.785,90.906l128.441,90.031v-10.268h10.155L24.589,81.185  C20.584,83.954,16.955,87.226,13.785,90.906z"/>
<path style="fill:#EEEEEE;" d="M270.225,128.001h-99.554V71.113H99.56v56.888H0.006v71.11H99.56V256h71.11v-56.888h99.554V128.001z"/>
<g>
	<path style="fill:#CF1B2B;" d="M156.449,256h-42.666V71.113h42.666V256z"/>
	<path style="fill:#CF1B2B;" d="M270.225,184.89H0.006v-42.666h270.219V184.89z"/>
</g>
<path style="fill:#F9D050;" d="M479.861,323.124c-3.968,0.569-5.632,6.243-7.339,9.671c0,0-3.968,3.413-10.226,2.844  c0,0,2.873-4.551,5.703-9.116c2.844-4.537,1.152-10.226-2.83-10.795c-3.968-0.583-4.551-2.859-9.671-7.395  c-5.12-4.551-14.222-5.12-15.929-1.138c-1.707,3.968-9.685,6.827-8.533,12.515c1.124,5.689,3.982,13.084,6.827,17.635  c0,0-13.454,8.533-24.277,12.515c-10.809,3.982-21.959,4.551-21.959,4.551s-8.064-0.569-18.858-4.551  c-10.823-3.982-21.12-12.515-21.12-12.515c2.844-4.551,5.689-11.947,6.841-17.635c1.124-5.689-6.841-8.547-8.547-12.515  c-1.707-3.982-10.809-3.413-15.929,1.138c-5.12,4.537-5.675,6.812-9.685,7.395c-3.968,0.569-5.689,6.258-2.844,10.795  c2.844,4.565,5.675,9.116,5.675,9.116c-6.272,0.569-10.254-2.844-10.254-2.844c-1.707-3.427-3.47-9.102-7.452-9.671  c-3.996-0.569-4.082,3.399-3.513,7.41c0.583,3.968,3.2,11.363,4.892,15.914c1.707,4.551,4.708,5.12,10.979,6.258  c6.258,1.138,15.673-3.968,15.673-3.968c22.201,21.603,54.143,21.034,54.143,21.034s35.057,0.569,57.244-21.034  c0,0,10.994,5.106,17.251,3.968s10.055-1.707,11.747-6.258c1.707-4.551,4.75-11.947,5.319-15.914  C483.772,326.523,483.857,322.555,479.861,323.124"/>
<g>
	<path style="fill:#DB1C1C;" d="M477.695,345.874c0,0,4.537-13.639,5.675-18.204c1.138-4.551-3.413-6.258-6.812-3.428   c-3.413,2.873-8.547,19.37-8.547,19.37s1.707-3.413,5.134-2.859C476.557,341.337,477.695,345.874,477.695,345.874"/>
	<path style="fill:#DB1C1C;" d="M450.376,324.832c0,0,6.258-7.395,6.827-11.961c0.569-4.537-5.689-10.24-10.24-9.657   c-4.551,0.569-7.964,3.982-6.827,7.95c1.138,3.982,5.12,11.961,5.12,11.961s0-1.138,2.29-1.138   C449.807,321.988,450.376,324.832,450.376,324.832"/>
	<path style="fill:#DB1C1C;" d="M311.836,345.874c0,0-4.551-13.639-5.703-18.204c-1.124-4.551,3.413-6.258,6.827-3.428   c3.413,2.873,8.547,19.37,8.547,19.37s-1.707-3.413-5.134-2.859C312.96,341.337,311.836,345.874,311.836,345.874"/>
	<path style="fill:#DB1C1C;" d="M339.141,324.832c0,0-6.258-7.395-6.827-11.961c-0.583-4.537,5.689-10.24,10.226-9.657   c4.565,0.569,7.979,3.982,6.841,7.95c-1.138,3.982-5.134,11.961-5.134,11.961s0-1.138-2.261-1.138   C339.71,321.988,339.141,324.832,339.141,324.832"/>
</g>
<path style="fill:#CF1B2B;" d="M394.904,225.249h-45.937v55.196c0,24.476,6.187,39.267,14.137,48.924  c11.079,13.454,33.123,21.077,33.123,21.077s23.893-7.623,34.972-21.077c7.964-9.657,17.322-24.448,17.322-48.924v-55.196H394.904z"/>
<path style="fill:#FFFFFF;" d="M430.528,332.208c7.964-9.685,17.991-27.292,17.991-51.768v-21.134  c-14.222-0.299-3.072-0.469-4.309-0.469c-7.964,0-7.979,7.381-15.36,7.381c-7.395,0-9.401-7.381-16.796-7.381  c-7.395,0-9.813,7.381-17.223,7.381c-6.243,0-11.435-7.381-17.138-7.381c-5.689,0-11.989,7.381-17.109,7.381  s-8.192-7.381-13.312-7.381c-0.313,0,1.692,0.028,1.692,0.085v21.518c0,24.476,6.187,42.083,14.137,51.768  c7.111,8.633,16.654,6.827,24.476,21.049h14.677C410.062,339.035,423.417,340.841,430.528,332.208"/>
<g>
	<path style="fill:#0B50A0;" d="M358.847,296.944c6.827,0,15.346-6.243,19.911-6.243c4.551,0,8.519,6.243,14.777,6.243   c6.272,0,14.222-6.243,18.218-6.243c3.982,0,10.226,6.243,16.483,6.243c6.258,0,8.533-6.243,14.208-6.243   c1.138,0,3.342,0.228,4.252,0.626c0.398-3.399,1.82-7.026,1.82-10.88v-4.636c-14.222-0.313-3.072-0.484-4.309-0.484   c-7.964,0-7.979,7.395-15.36,7.395c-7.395,0-9.401-7.395-16.796-7.395s-9.813,7.395-17.223,7.395   c-6.243,0-11.435-7.395-17.138-7.395c-5.689,0-11.989,7.395-17.109,7.395c-5.12,0-8.192-7.395-13.298-7.395   c-0.327,0,1.678,0.028,1.678,0.085v5.035c0,3.627-2.418,7.04-2.091,10.254C351.878,290.857,352.106,296.944,358.847,296.944"/>
	<path style="fill:#0B50A0;" d="M422.389,336.041c-3.271-2.19-5.675-5.518-10.624-5.518c-7.41,0-9.685,7.395-17.066,7.395   c-6.272,0-11.392-7.395-17.081-7.395c-3.527,0-7.267,2.844-10.837,5.006c11.819,9.586,28.117,14.919,28.117,14.919   S410.642,345.299,422.389,336.041"/>
	<path style="fill:#0B50A0;" d="M443.015,300.36c-7.964,0-7.367,7.395-14.748,7.395c-7.41,0-9.116-7.395-16.498-7.395   c-7.41,0-9.685,7.395-17.066,7.395c-6.272,0-11.392-7.395-17.095-7.395c-5.675,0-11.932,7.395-17.052,7.395   c-4.679,0-9.842-6.172-14.592-7.239c1.977,8.306,5.091,15.018,8.505,20.522c1.294,0.569,2.716,0.953,4.38,0.953   c6.827,0,15.346-6.258,19.911-6.258c4.551,0,8.519,6.258,14.777,6.258c6.272,0,14.222-6.258,18.218-6.258   c3.982,0,10.226,6.258,16.483,6.258c4.053,0,6.443-2.631,9.159-4.494c2.617-4.807,4.907-10.439,6.5-17.095   C443.612,300.375,443.313,300.36,443.015,300.36"/>
</g>
<g>
	<path style="fill:#059334;" d="M363.612,282.087l5.049-17.166l5.191,17.123l17.906-0.512l-14.691,10.24l6.002,16.853   l-14.265-10.809l-14.179,10.937l5.859-16.91l-14.763-10.112L363.612,282.087z"/>
	<path style="fill:#059334;" d="M415.962,282.087l5.049-17.166l5.205,17.123l17.891-0.512l-14.706,10.24l6.016,16.853   l-14.279-10.809l-14.165,10.937l5.859-16.91l-14.777-10.112L415.962,282.087z"/>
	<path style="fill:#059334;" d="M389.792,312.808l5.049-17.18l5.191,17.138l17.906-0.498l-14.706,10.226l6.016,16.853   l-14.265-10.795l-14.194,10.923l5.874-16.896l-14.777-10.126L389.792,312.808z"/>
</g>
<g>
	<path style="fill:#F9D050;" d="M353.654,228.112c3.556-2.916,6.827,1.707,7.41,4.551c0.569,2.844,3.982,6.827,7.381,6.827   c0,0,2.276-6.827,3.982-10.24c1.707-3.413,6.258-4.551,9.116-3.413c2.844,1.124,7.964,0.569,7.381,5.689   c-0.569,5.12-2.276,7.395-2.276,7.395s10.24,0.569,14.791,0c4.565-0.569,9.685-3.413,13.099-1.707   c3.413,1.707,8.533,2.276,10.24,1.138c1.707-1.138,2.844-4.551-1.138-3.996c-3.982,0.583-7.395,0.583-10.809,1.152   c-3.413,0.569-18.204,1.138-18.204-3.413c0-4.551,5.675-5.134,6.812-4.551c1.152,0.569,9.685-5.689,11.392-2.844   c1.707,2.844,1.707,6.258-3.413,6.258s-12.53-1.138-12.53,0.569s2.29,2.83,5.703,2.83c3.413,0,9.102-2.261,13.07-2.261   c3.996,0,9.685-4.551,13.084-1.707c3.428,2.844,6.272,6.827,3.428,8.533c-2.844,1.707-13.084,2.261-16.512,1.707   c0,0,3.996,2.276,7.41,2.844c3.413,0.569,10.24,1.707,9.685,5.12c-0.583,3.413,1.124,7.964-3.428,7.395   c-4.551-0.569-3.982-2.844-2.844-4.551c1.138-1.707-1.707-3.413-6.827-2.844s-11.378-2.276-11.378-2.276s-1.707,4.551,0.569,5.689   c0,0-6.841,2.844-10.809,3.413c-3.982,0.569-7.964,2.276-7.964,0c0-2.276,2.844-5.689,5.12-4.551   c2.276,1.138,6.243-0.569,7.395-0.569c1.138,0-3.996-3.413-1.152-4.551c2.859-1.138-2.261-1.707-5.106,0   c-2.844,1.707-19.911,6.258-25.614,8.533c-5.675,2.276-10.809,1.707-13.084,2.844c-2.276,1.138-6.812-1.707-4.551-4.551   c2.276-2.844,3.413-4.551,5.12-2.844c1.707,1.707,4.565,1.138,8.533,0c3.982-1.138-2.261-2.276-3.399-3.413   c-1.138-1.138-5.703-7.964-5.703-9.671S347.411,233.232,353.654,228.112"/>
	<path style="fill:#F9D050;" d="M379.266,186.007c-3.413-5.12-13.653-11.947-13.653-11.947l9.671,2.844c0,0-4.565-6.258-9.671-7.395   c1.124,0,10.24,1.138,13.07,3.413c0,0-7.964-9.116-11.947-10.809c0,0,9.685,2.844,13.099,6.258l-3.982-8.533   c0,0,7.381,3.413,9.657,7.964c0,0-2.276-9.102-6.827-13.653c0,0,5.12,2.276,7.41,5.689c0,0,1.707-1.707,5.12-0.569l2.276-6.258   l4.75,2.261l7.609-3.399v3.982l2.062-4.85l-7.026,3.129h3.413l4.551-3.129c0,0-1.707,5.547-2.276,10.681   c0,0,2.844-4.636,9.102-6.912c0,0-7.964,12.217-9.102,16.754c0,0,11.378-11.25,18.773-14.094c0,0-10.24,12.003-13.084,16.554   c0,0,8.533-7.353,16.483-9.628c0,0-10.226,10.823-11.932,13.099c0,0,5.689-2.276,13.084-1.707c0,0-17.066,9.685-21.049,13.084   C404.865,192.251,379.266,186.007,379.266,186.007"/>
</g>
<path style="fill:#FFFFFF;" d="M370.726,211.035c-6.243,1.138-7.964,4.551-7.395,7.979c0.569,3.399,4.565,6.258,8.533,4.537  c3.982-1.707,7.41-2.83,7.41-2.83s3.413,0.555,5.675,0c2.276-0.583,3.413-2.276,3.413-2.276s6.272,1.124,9.685,0  c0,0,6.243,2.83,11.378,0.569c0,0,12.515,5.675,18.204,3.399c5.675-2.276,1.038-9.884-1.707-10.795  c-5.134-1.721-17.635-3.428-27.321-3.996C388.931,207.053,370.726,211.035,370.726,211.035"/>
<g>
	<path style="fill:#00247D;" d="M425.918,211.611c-2.091-0.697-5.447-1.408-9.315-2.034l0.199,0.327c0,0,0.569,2.844,1.138,6.258   c0.398,2.276,0.526,4.821,1.764,6.243c2.93,0.612,5.874,0.825,7.922,0.014C433.314,220.145,428.663,212.521,425.918,211.611"/>
	<path style="fill:#00247D;" d="M392.585,207.724c1.749,2.048,2.83,7.41,5.276,10.766c0.057-0.014,0.128-0.028,0.185-0.057   c0,0,6.059,2.745,11.122,0.683c0.526-0.967-0.313-1.82-0.313-1.82l-3.669-9.159c-2.247-0.213-4.494-0.384-6.585-0.512   C396.837,207.525,394.761,207.567,392.585,207.724"/>
	<path style="fill:#00247D;" d="M382.681,220.139c1.764,0,3.044,0,3.897-0.1c0.711-0.441,1.223-0.924,1.508-1.252   c-0.085-0.896-0.868-2.404-1.991-4.907c-0.924-2.005-2.133-3.669-3.428-5.02c-5.603,0.853-10.411,1.849-11.619,2.105   C372.882,215.46,377.448,220.139,382.681,220.139"/>
</g>
<g>
	<path style="fill:#059334;" d="M352.529,188.286c0,0,1.707-6.272,9.102-6.272c7.381,0,3.982,4.565,12.515,5.134   c8.533,0.555,38.684,4.551,43.235,6.827c4.551,2.261,10.24,1.707,13.084,1.138c2.844-0.583,0.583,2.844-2.276,4.551   c-2.844,1.707-8.533,0.569-8.533,0.569s6.258,5.689,7.964,9.671c1.707,3.982,0,5.689-2.844,3.982   c-2.844-1.707-6.258,1.707-6.827-0.569c-0.569-2.276-6.258-10.24-6.258-10.24s-16.498-2.276-21.049,1.707   c-4.551,3.982-10.126,5.461-19.356,4.551c-5.675-0.569-9.088-3.413-7.95-6.827c1.138-3.413,3.968-4.551,3.968-4.551   s-0.569-6.827-2.83-5.12c-2.276,1.692-7.41,0.569-7.979-0.569C355.942,191.131,352.529,188.286,352.529,188.286"/>
	<path style="fill:#059334;" d="M370.726,186.007c2.446-1.465,14.222-6.827,23.338-6.258c9.088,0.569,14.791,2.844,21.034,6.258   c6.272,3.413,5.689,6.258,9.116,7.395c3.413,1.138,1.707,2.844,0,4.551c-1.707,1.707-7.41,11.378-25.614,10.809   c-18.204-0.569-19.911-5.689-22.755-7.964c-2.844-2.276-4.551-7.964-4.551-9.671C371.295,189.421,367.896,187.714,370.726,186.007"/>
</g>
<path style="fill:#00493D;" d="M404.863,203.077c6.172-1.692,14.549-3.925,18.602-9.984c-2.617-1.294-2.617-3.954-8.363-7.083  c-6.258-3.413-11.947-5.703-21.049-6.258c-6.428-0.412-14.208,2.148-19.072,4.21c-0.27,4.025-0.27,8.875-0.27,8.875  s5.12,2.844,9.102,6.258C387.796,202.508,398.605,204.784,404.863,203.077"/>
<g>
</g>
<g>
</g>
<g>
</g>
<g>
</g>
<g>
</g>
<g>
</g>
<g>
</g>
<g>
</g>
<g>
</g>
<g>
</g>
<g>
</g>
<g>
</g>
<g>
</g>
<g>
</g>
<g>
</g>
</svg>
