<?xml version="1.0" encoding="iso-8859-1"?>
<!-- Generator: Adobe Illustrator 19.0.0, SVG Export Plug-In . SVG Version: 6.00 Build 0)  -->
<svg xmlns="http://www.w3.org/2000/svg" xmlns:xlink="http://www.w3.org/1999/xlink" version="1.1" id="Capa_1" x="0px" y="0px" viewBox="0 0 512 512" style="enable-background:new 0 0 512 512;" xml:space="preserve">
<path style="fill:#FCD116;" d="M512,127.946c0-31.392-25.49-56.835-56.889-56.835h-41.73h-36.537L36.599,319.236L376.832,71.111  H56.889C25.472,71.111,0,96.583,0,128v217.926v0.001v26.652V384c0,31.417,25.472,56.889,56.889,56.889h31.245h0.01h36.543  l348.348-253.44l-348.341,253.44h330.417C486.528,440.889,512,415.417,512,384V159.097v-0.002v-26.651L284.59,297.925L512,132.437  V127.946z"/>
<path style="fill:#009E49;" d="M36.599,319.236L376.832,71.111H56.889C25.472,71.111,0,96.583,0,128v217.926L36.599,319.236z"/>
<path style="fill:#CE1126;" d="M455.111,440.889C486.528,440.889,512,415.417,512,384V159.096L124.694,440.889H455.111z"/>
<path style="fill:#141414;" d="M0,384c0,31.417,25.472,56.889,56.889,56.889h31.245L512,132.437v-4.492  c0-31.392-25.49-56.835-56.889-56.835h-41.73L0,372.579V384z"/>
<g>
	<path style="fill:#FFFFFF;" d="M356.797,229.316l11.221-34.745l36.494-0.057l-29.568-21.404l11.221-34.745l-29.497,21.518   l-29.568-21.404l11.349,34.702l-29.497,21.504l0,0l0,0l0,0l0,0l36.494-0.071L356.797,229.316z"/>
	<path style="fill:#FFFFFF;" d="M176.304,317.976l11.221-34.731l-29.497,21.504l-29.568-21.404l11.335,34.702l-29.483,21.504l0,0   l0,0l0,0l0,0l36.494-0.071l11.349,34.702l11.207-34.731l36.508-0.071L176.304,317.976z"/>
</g>
<g>
</g>
<g>
</g>
<g>
</g>
<g>
</g>
<g>
</g>
<g>
</g>
<g>
</g>
<g>
</g>
<g>
</g>
<g>
</g>
<g>
</g>
<g>
</g>
<g>
</g>
<g>
</g>
<g>
</g>
</svg>
