<?xml version="1.0" encoding="iso-8859-1"?>
<!-- Generator: Adobe Illustrator 19.0.0, SVG Export Plug-In . SVG Version: 6.00 Build 0)  -->
<svg xmlns="http://www.w3.org/2000/svg" xmlns:xlink="http://www.w3.org/1999/xlink" version="1.1" id="Capa_1" x="0px" y="0px" viewBox="0 0 512 512" style="enable-background:new 0 0 512 512;" xml:space="preserve">
<path style="fill:#3D8E33;" d="M455.111,71.111H56.889c-14.269,0-27.299,5.476-37.286,14.158l-0.134-0.097  C7.544,95.6,0,110.915,0,128v35.556V256v92.444V384c0,17.085,7.544,32.4,19.469,42.828L128,348.444L256,256l-128,92.863  L19.469,427.037c10.004,8.748,23.089,13.852,37.42,13.852h398.222C486.528,440.889,512,415.417,512,384v-35.137V256v-92.026V128  C512,96.583,486.528,71.111,455.111,71.111z M111.626,201.316l-0.464,1.448l0.462-1.45L111.626,201.316z M111.626,238.876  l-0.467,1.449l0.465-1.45L111.626,238.876z M111.626,276.435l-0.465,1.437L111.626,276.435L111.626,276.435z M108.369,323.978  l3.271-9.974l-3.254,9.961L108.369,323.978z M108.369,286.499l0.002-0.006l8.546-6.211L108.369,286.499z M108.369,249.017  l0.016-0.049l8.532-6.179L108.369,249.017z M108.369,211.534l0.029-0.091l8.518-6.147L108.369,211.534z M125.463,286.494  l-2.802-8.622l2.803,8.624L125.463,286.494z M125.448,248.968l-2.787-8.645l2.802,8.656L125.448,248.968z M125.435,211.443  l-2.775-8.68l2.804,8.701L125.435,211.443z M125.46,324.015l-3.267-10.012l3.271,10.015L125.46,324.015z M122.193,276.434  L122.193,276.434l8.548-6.212L122.193,276.434z M122.195,238.874l-0.002-0.005l8.548-6.294L122.195,238.874z M122.197,201.313  l-0.003-0.009l8.548-6.376L122.197,201.313z"/>
<path style="fill:#FFC61E;" d="M455.111,71.111H56.889c-14.332,0-27.416,5.522-37.42,14.27L128,163.974h384V128  C512,96.583,486.528,71.111,455.111,71.111z"/>
<polygon style="fill:#EEEEEE;" points="256,256 512,256 512,163.974 128,163.974 "/>
<polygon style="fill:#CE1126;" points="128,348.863 512,348.863 512,256 256,256 "/>
<path style="fill:#3A75C4;" d="M19.469,427.037c10.004,8.748,23.089,13.852,37.42,13.852h398.222  C486.528,440.889,512,415.417,512,384v-35.137H128L19.469,427.037z"/>
<g>
	<path style="fill:#FFFFFF;" d="M55.836,256c0-37.362,26.126-68.58,61.084-76.516c-5.632-1.28-11.449-2.02-17.451-2.02   c-43.378,0-78.535,35.157-78.535,78.535s35.157,78.535,78.535,78.535c6.002,0,11.819-0.74,17.451-2.02   C81.963,324.58,55.836,293.362,55.836,256z"/>
	<path style="fill:#FFFFFF;" d="M116.917,184.873l-3.271,10.055c-0.014,0-10.539,0-10.553,0l8.533,6.387l-3.257,10.148l8.548-6.168   l8.548,6.239l-3.271-10.23l8.548-6.376h-10.56h-0.007L116.917,184.873z"/>
	<polygon style="fill:#FFFFFF;" points="111.626,238.876 108.369,248.98 116.917,242.79 125.464,249.017 122.193,238.869    130.741,232.575 120.174,232.575 116.917,222.52 113.646,232.575 103.093,232.575  "/>
	<polygon style="fill:#FFFFFF;" points="120.174,270.222 116.917,260.167 113.646,270.222 103.093,270.222 111.626,276.435    108.369,286.495 116.917,280.283 125.464,286.499 122.193,276.434 130.741,270.222  "/>
	<polygon style="fill:#FFFFFF;" points="122.193,314.003 130.741,307.869 120.174,307.869 116.917,297.828 113.646,307.869    103.093,307.869 111.64,314.003 108.369,324.018 116.917,317.783 125.464,324.028  "/>
</g>
<g>
</g>
<g>
</g>
<g>
</g>
<g>
</g>
<g>
</g>
<g>
</g>
<g>
</g>
<g>
</g>
<g>
</g>
<g>
</g>
<g>
</g>
<g>
</g>
<g>
</g>
<g>
</g>
<g>
</g>
</svg>
