<?xml version="1.0" encoding="iso-8859-1"?>
<!-- Generator: Adobe Illustrator 19.0.0, SVG Export Plug-In . SVG Version: 6.00 Build 0)  -->
<svg xmlns="http://www.w3.org/2000/svg" xmlns:xlink="http://www.w3.org/1999/xlink" version="1.1" id="Capa_1" x="0px" y="0px" viewBox="0 0 512 512" style="enable-background:new 0 0 512 512;" xml:space="preserve">
<g transform="matrix(1.25 0 0 -1.25 0 45)">
	<g>
		<g>
			<path style="fill:#EEEEEE;" d="M409.6-271.2c0-25.134-20.378-45.511-45.511-45.511H45.511C20.378-316.711,0-296.334,0-271.2     v204.8c0,25.134,20.378,45.511,45.511,45.511h318.578c25.134,0,45.511-20.378,45.511-45.511V-271.2z"/>
			<path style="fill:#CE1126;" d="M364.089-20.889H45.511C20.378-20.889,0-41.267,0-66.4v-64.808v-17.749v-7.908     c4.574,2.423,9.626,4.597,18.614,4.597c20.696,0,20.696-11.378,41.381-11.378s20.685,11.378,41.37,11.378     s20.685-11.378,41.37-11.378c20.696,0,20.696,11.378,41.381,11.378s20.685-11.378,41.37-11.378     c20.696,0,20.696,11.378,41.29,11.378c20.776,0,20.776-11.378,41.415-11.378c20.73,0,20.73,11.378,41.404,11.378     c20.708,0,20.708-11.56,41.381-11.56c9,0,14.052,2.628,18.625,4.983v9.887v12.242l0,70.315     C409.6-41.267,389.222-20.889,364.089-20.889"/>
			<path style="fill:#FFAC33;" d="M237.545-165.808c3.152,4.289,7.543,4.267,12.789,1.536c-0.717,6.952-9.023,11.332-12.766,11.935     c1.525,5.109,6.428,7.68,12.265,6.918c-3.026,6.292-13.028,6.497-16.782,5.734c-0.284,5.359,3.482,9.466,9.193,10.786     c-4.927,4.858-14.416,1.559-17.692-0.444c-2.037,4.927,0.08,10.092,5.04,13.323c-6.281,2.856-14.097-3.538-16.486-6.554     c-3.607,3.914-3.322,9.512,0.228,14.256c-6.861,0.501-12.049-8.249-13.266-11.913c-4.71,2.423-6.349,7.748-4.631,13.449     c-6.599-1.923-8.511-11.935-8.431-15.792c-5.222,0.626-8.567,5.086-8.875,11.048c-5.552-4.119-3.982-14.177-2.594-17.772     c-5.131-1.24-9.774,1.809-12.06,7.282c-3.846-5.791,1.024-14.711,3.538-17.601c-4.415-2.935-9.785-1.707-13.79,2.674     c-1.661-6.781,5.916-13.483,9.25-15.337c-3.14-4.289-5.052-7.43-10.286-4.733c0.728-6.952,6.542-8.135,10.297-8.715     L237.545-165.808z"/>
			<g>
				<path style="fill:#FFF100;" d="M226.668-159.038l25.782,9.364l-27.352-0.137l21.049,17.783l-25.68-9.66l13.801,24.03      l-20.89-17.977l4.881,27.364l-13.574-24.155l-4.631,27.42l-4.631-27.42l-13.562,24.155l4.881-27.364l-20.878,17.977l13.79-24.03      l-25.68,9.66l21.06-17.783l-27.375,0.137l25.793-9.364H226.668z"/>
				<path style="fill:#FFF100;" d="M200.055-186.094c14.689,0,26.613,12.106,26.613,27.045s-11.924,27.034-26.613,27.034      c-14.7,0-26.613-12.095-26.613-27.034S185.355-186.094,200.055-186.094"/>
			</g>
			<path style="fill:none;stroke:#F15A29;stroke-width:0.06;" d="M200.055-186.094c14.689,0,26.613,12.106,26.613,27.045     s-11.924,27.034-26.613,27.034c-14.7,0-26.613-12.095-26.613-27.034S185.355-186.094,200.055-186.094z"/>
			<g>
				<path style="fill:#FFAC33;" d="M198.417-72.134c-2.128,2.879-4.79,5.939-7.987,7.384c-3.186,1.434-8.897,2.332-15.064,0.717      c-6.918-1.798-15.144-4.585-21.641-2.685c-1.24,0.341-2.128-0.91,0.364-2.344c2.48-1.456,8.772-1.809,15.064-1.001      c4.437,0.569,10.286,0.364,12.595-0.535c2.742-1.081,7.714-4.779,9.83-8.567L198.417-72.134z"/>
				<path style="fill:#FFAC33;" d="M212.412-87.79c1.923,0.762,6.292,1.126,8.055,0.831c2.321-0.387,5.53,0.774,6.588,1.24      c1.911,0.853-0.125,2.31-7.543,1.889C214.63-84.092,212.73-86.243,212.412-87.79"/>
			</g>
			<g>
				<path style="fill:#FCD116;" d="M207.542-91.147c4.494,1.718,8.704,7.578,16.327,7.384c7.259-0.182,11.059,2.162,4.779,3.789      c-6.292,1.616-11.093,0.99-15.349,0.171c-5.473-1.035-11.082,4.324-19.41,1.354c-3.356-1.195-7.896,0.182-10.024,2.253      c-2.401,2.332-5.632,2.606-7.976,0.228c-0.444-0.455-0.979-1.172-2.446-1.172c-2.526,0-6.554-0.046-6.61-4.278      c1.343,1.673,2.264,1.934,6.576,1.934c0.66,0,1.456-0.307,2.128-1.445c0.967-1.661,3.14-2.97,5.313-3.015      s3.083-1.513,4.517-3.061C189.542-91.511,198.849-94.48,207.542-91.147"/>
				<path style="fill:#FCD116;" d="M189.178-80.247c-0.228-2.287,3.857-4.562,5.143-5.052c1.695-0.626,3.186-0.171,3.55,1.445      c1.24-1.081,3.277-0.091,3.277,1.263c1.161-0.535,2.753,0.182,3.015,1.798c1.422-0.364,2.833,0.364,2.651,1.445      c1.604-0.626,2.844-0.137,3.118,0.944c1.104-0.41,2.788,0.273,3.152,1.445c1.092-0.455,2.731,0.182,3.163,1.252      c1.445-0.523,2.947-0.125,3.618,1.172c0.967-0.58,2.651,0.057,2.924,1.399c0.978-0.626,2.48-0.535,2.844,0.91      c1.24-0.865,2.742-0.193,2.662,1.252c0.569-0.262,1.752,0,1.855,0.91c2.298-0.102,5.222,0,5.222,1.707      c1.957-0.091,4.699,0.796,4.642,2.913c1.365,0.091,3.106,1.161,3.516,2.674c0.364,1.24-1.058,2.037-3.538,2.162      c-15.337,0.717-19.24-2.435-26.692-3.061c-6.804-0.58-11.082-2.64-14.541-6.667c-3.106-3.607-6.189-6.884-7.896-8.021      C189.85-79.041,189.224-79.803,189.178-80.247"/>
			</g>
			<path style="fill:#EEEEEE;" d="M227.556-191.556h-56.889v22.756h56.889V-191.556z"/>
			<g>
				<path style="fill:#00247D;" d="M408.758-279.54c-4.369-2.401-9.307-3.573-17.772-3.573c-20.685,0-20.685,11.207-41.37,11.207      c-20.696,0-20.696-11.378-42.03-11.378c-20.036,0-20.036,11.378-41.051,11.378c-20.355,0-20.355-11.378-41.04-11.378      c-20.696,0-20.696,11.378-41.381,11.378s-20.685-11.378-41.37-11.378c-20.696,0-20.696,11.378-41.381,11.378      c-20.685,0-20.685-11.378-41.37-11.378s-20.685,11.378-41.381,11.378c-8.67,0-13.653-2.025-18.102-4.358      c2.549-22.71,21.606-40.448,44.999-40.448h318.578C386.367-316.711,404.833-300.68,408.758-279.54"/>
				<path style="fill:#00247D;" d="M409.6-252.802v22.118c-4.574-2.583-9.626-4.255-18.625-4.255      c-20.673,0-20.673,11.457-41.358,11.457c-20.696,0-20.696-11.378-42.03-11.378c-20.036,0-20.036,11.378-41.051,11.378      c-20.355,0-20.355-11.378-41.051-11.378c-20.685,0-20.685,11.378-41.37,11.378c-20.685,0-20.685-11.378-41.381-11.378      c-20.685,0-20.685,11.378-41.37,11.378c-20.685,0-20.685-11.378-41.37-11.378s-20.685,11.378-41.381,11.378      c-8.988,0-14.04-2.162-18.614-4.597v-22.756c4.574,2.435,9.626,4.597,18.614,4.597c20.696,0,20.696-11.378,41.381-11.378      s20.685,11.378,41.37,11.378s20.685-11.378,41.37-11.378c20.696,0,20.696,11.378,41.381,11.378s20.685-11.378,41.37-11.378      c20.696,0,20.696,11.378,41.29,11.378c20.776,0,20.776-11.378,41.415-11.378c20.73,0,20.73,11.378,41.404,11.378      c27.056,0,26.431-11.275,41.381-11.275C399.974-257.513,405.026-255.157,409.6-252.802"/>
				<path style="fill:#00247D;" d="M409.6-204.367v22.118c-4.574-2.583-9.626-4.153-18.625-4.153      c-20.673,0-20.673,11.366-41.358,11.366c-20.696,0-20.696-11.389-42.03-11.389c-20.036,0-20.036,11.389-41.051,11.389      c-20.355,0-20.355-11.389-41.051-11.389c-20.685,0-20.685,11.389-41.37,11.389c-20.685,0-20.685-11.389-41.381-11.389      c-20.685,0-20.685,11.389-41.37,11.389c-20.685,0-20.685-11.389-41.37-11.389s-20.685,11.389-41.381,11.389      c-8.988,0-14.04-2.173-18.614-4.608v-22.756c4.574,2.435,9.626,4.597,18.614,4.597c20.696,0,20.696-11.378,41.381-11.378      s20.685,11.378,41.37,11.378s20.685-11.378,41.37-11.378c20.696,0,20.696,11.378,41.381,11.378s20.685-11.378,41.37-11.378      c20.696,0,20.696,11.378,41.29,11.378c20.776,0,20.776-11.378,41.415-11.378c20.73,0,20.73,11.378,41.404,11.378      c20.708,0,20.708-11.025,41.381-11.025C399.974-208.827,405.026-206.722,409.6-204.367"/>
			</g>
			<path style="fill:#EEEEEE;" d="M409.6-181.6v22.517c-4.574-2.594-9.626-4.892-18.625-4.892     c-20.673,0-20.673,12.095-41.358,12.095c-20.696,0-20.696-11.389-42.03-11.389c-20.036,0-20.036,11.389-41.051,11.389     c-20.355,0-20.355-11.389-41.051-11.389c-20.685,0-20.685,11.389-41.37,11.389c-20.685,0-20.685-11.389-41.381-11.389     c-20.685,0-20.685,11.389-41.37,11.389c-20.685,0-20.685-11.389-41.37-11.389s-20.685,11.389-41.381,11.389     c-8.988,0-14.04-2.173-18.614-4.597v-22.756c4.574,2.412,9.626,4.597,18.614,4.597c20.696,0,20.696-11.389,41.381-11.389     s20.685,11.389,41.37,11.389s20.685-11.389,41.37-11.389c20.696,0,20.696,11.389,41.381,11.389s20.685-11.389,41.37-11.389     c20.696,0,20.696,11.389,41.29,11.389c20.776,0,20.776-11.389,41.415-11.389c20.73,0,20.73,11.389,41.404,11.389     c20.708,0,20.708-11.23,41.381-11.23C399.974-185.867,405.026-183.955,409.6-181.6"/>
		</g>
	</g>
</g>
<g>
</g>
<g>
</g>
<g>
</g>
<g>
</g>
<g>
</g>
<g>
</g>
<g>
</g>
<g>
</g>
<g>
</g>
<g>
</g>
<g>
</g>
<g>
</g>
<g>
</g>
<g>
</g>
<g>
</g>
</svg>
