<?xml version="1.0" encoding="iso-8859-1"?>
<!-- Generator: Adobe Illustrator 19.0.0, SVG Export Plug-In . SVG Version: 6.00 Build 0)  -->
<svg xmlns="http://www.w3.org/2000/svg" xmlns:xlink="http://www.w3.org/1999/xlink" version="1.1" id="Capa_1" x="0px" y="0px" viewBox="0 0 512 512" style="enable-background:new 0 0 512 512;" xml:space="preserve">
<path style="fill:#CE1126;" d="M455.111,71.111H56.889c-14.389,0-27.52,5.563-37.538,14.374l-0.131-0.098  C7.437,95.812,0,111.034,0,128v64v64v64v64c0,16.966,7.437,32.189,19.219,42.612L162.735,320l85.872-63.791l0.282,0.209l-86.154,64  L19.219,426.821c10.034,8.878,23.219,14.067,37.67,14.067h398.222C486.528,440.889,512,415.417,512,384v-63.582v-128V128  C512,96.583,486.528,71.111,455.111,71.111z"/>
<path style="fill:#007A3D;" d="M19.219,426.821c10.034,8.878,23.219,14.067,37.67,14.067h398.222  C486.528,440.889,512,415.417,512,384v-63.582H162.735L19.219,426.821z"/>
<polygon style="fill:#EEEEEE;" points="248.889,256.418 162.735,320.418 512,320.418 512,192.418 162.735,192.418 "/>
<path style="fill:#141414;" d="M455.111,71.111H56.889c-14.451,0-27.635,5.608-37.67,14.486l143.516,106.821H512V128  C512,96.583,486.528,71.111,455.111,71.111z"/>
<path style="fill:#FFFFFF;" d="M94.248,275.023l15.019,13.881l-1.479-20.395l20.21-3.086l-16.868-11.563l10.183-17.735  l-19.556,5.988l-7.509-19.015l-7.509,19.015l-19.556-5.988l10.183,17.735l-16.868,11.563l20.21,3.086l-1.479,20.395L94.248,275.023z  "/>
<g>
</g>
<g>
</g>
<g>
</g>
<g>
</g>
<g>
</g>
<g>
</g>
<g>
</g>
<g>
</g>
<g>
</g>
<g>
</g>
<g>
</g>
<g>
</g>
<g>
</g>
<g>
</g>
<g>
</g>
</svg>
