<?xml version="1.0" encoding="iso-8859-1"?>
<!-- Generator: Adobe Illustrator 19.0.0, SVG Export Plug-In . SVG Version: 6.00 Build 0)  -->
<svg xmlns="http://www.w3.org/2000/svg" xmlns:xlink="http://www.w3.org/1999/xlink" version="1.1" id="Capa_1" x="0px" y="0px" viewBox="0 0 512 512" style="enable-background:new 0 0 512 512;" xml:space="preserve">
<g transform="matrix(1.25 0 0 -1.25 0 45)">
	<g>
		<g>
			<path style="fill:#EEEEEE;" d="M409.6-271.2c0-25.134-20.378-45.511-45.511-45.511H45.511C20.378-316.711,0-296.334,0-271.2     v204.8c0,25.134,20.378,45.511,45.511,45.511h318.578c25.134,0,45.511-20.378,45.511-45.511V-271.2z"/>
			<path style="fill:#D52048;" d="M36.25-21.845C22.96-24.598,11.969-33.245,5.678-44.828L173.921-168.8L5.678-292.772     c6.292-11.583,17.283-20.23,30.572-22.983l168.55,124.2l168.562-124.2c13.289,2.753,24.292,11.401,30.572,22.983L235.679-168.8     L403.934-44.828c-6.281,11.583-17.283,20.23-30.572,22.983L204.8-146.044L36.25-21.845z"/>
			<path style="fill:#FFCC4D;" d="M233.597-43.644c-1.911-0.74-2.89-4.153-2.89-4.153s-1.707,3.857-6.884,1.331     c0,0,2.822-2.81,2.219-5.188c-0.603-2.378-2.241-3.413-5.04-3.038c-3.277,0.444-3.868,4.221-3.868,4.221s2.014,0.375,2.241,2.082     c0.137,1.035-0.375,2.526-2.15,2.662c-1.354,0.114-2.674-0.74-2.674-2.367c0-1.195,1.49-2.219,1.49-2.219     s-1.195-2.56-3.868-2.674c-3.413-0.148-4.915,1.775-4.961,5.04c-0.08,4.676,5.928,4.745,5.928,4.745s-0.523,2.298-2.594,3.482     c-2.071,1.195-4.005-0.444-4.005-0.444s1.479,3.345,1.035,5.643c-0.375,1.968-1.866,3.925-2.401,4.585v0.228     c0,0-0.034-0.034-0.091-0.114c-0.068,0.08-0.102,0.114-0.102,0.114v-0.228c-0.535-0.66-2.014-2.617-2.401-4.585     c-0.444-2.298,1.035-5.643,1.035-5.643s-1.923,1.638-3.994,0.444c-2.082-1.183-2.606-3.482-2.606-3.482s6.007-0.068,5.939-4.745     c-0.057-3.265-1.559-5.188-4.972-5.04c-2.674,0.114-3.857,2.674-3.857,2.674s1.479,1.024,1.479,2.219     c0,1.627-1.32,2.48-2.662,2.367c-1.775-0.137-2.287-1.627-2.15-2.662c0.228-1.707,2.23-2.082,2.23-2.082     s-0.603-3.777-3.868-4.221c-2.799-0.375-4.437,0.66-5.04,3.038c-0.58,2.378,2.23,5.188,2.23,5.188     c-5.188,2.526-6.895-1.331-6.895-1.331s-0.967,3.413-2.89,4.153c-1.934,0.74-3.857,0.444-3.857,0.444s3.561-5.643,5.928-11.116     c2.378-5.484,3.265-11.127,3.265-11.127s4.062,2.833,10.672,4.449c5.12,1.24,11.651,1.331,12.516,1.343     c0.853-0.011,7.384-0.102,12.493-1.343c6.645-1.616,10.684-4.449,10.684-4.449s0.887,5.643,3.265,11.127     c2.378,5.473,5.939,11.116,5.939,11.116S235.531-42.905,233.597-43.644"/>
			<path style="fill:#DD2E44;" d="M228.238-65.49c0,0-5.427,3.561-11.116,4.824c-5.313,1.172-11.253,1.183-12.072,1.183     c-0.808,0-6.747-0.011-12.06-1.183c-5.712-1.263-11.116-4.824-11.116-4.824s-4.654-17.294-1.934-29.878     c5.382-24.872,22.994-35.112,25.02-36.227v-0.102c0,0,0.034,0.023,0.091,0.046c0.068-0.023,0.102-0.046,0.102-0.046v0.102     c2.014,1.115,19.638,11.355,25.02,36.227C232.903-82.784,228.238-65.49,228.238-65.49"/>
			<path style="fill:none;stroke:#231F20;stroke-width:0.005;stroke-miterlimit:10;" d="M228.238-65.49     c0,0-5.427,3.561-11.116,4.824c-5.313,1.172-11.253,1.183-12.072,1.183c-0.808,0-6.747-0.011-12.06-1.183     c-5.712-1.263-11.116-4.824-11.116-4.824s-4.654-17.294-1.934-29.878c5.382-24.872,22.994-35.112,25.02-36.227v-0.102     c0,0,0.034,0.023,0.091,0.046c0.068-0.023,0.102-0.046,0.102-0.046v0.102c2.014,1.115,19.638,11.355,25.02,36.227     C232.903-82.784,228.238-65.49,228.238-65.49z"/>
			<path style="fill:#FFCC4D;" d="M220.797-65.49c0,0-1.047-1.411-4.676-1.411s-2.002,0.478-4.892,0.478     c-2.901,0-4.153-0.728-4.153-1.627c0-0.887,1.035-1.445,4.904-1.445c3.846,0,5.268,0.967,8.374,0.967     c3.106,0,4.289-1.115,4.289-2.526c0-1.399-2.002-4.005-5.2-3.186c0,0,2.241-1.104,4.619-0.967     c2.355,0.148,4.358,0.603,4.517,0.08c0.148-0.523,1.104-3.254,0.978-4.745c-0.228-2.298-3.14-3.106-4.312-2.97     c-1.183,0.148-2.742-0.967-3.186-1.479l0.296,1.559l-1.206-0.444l0.671,1.923h-1.468c0,0,0.728,1.49,1.911,1.49     c1.195,0,3.868-0.307,4.016,0.512c0.137,0.808-0.751,1.923-2.435,1.855c-1.718-0.08-4.983-1.047-6.986-0.523     c0,0-0.66-0.956-0.068-1.707c0.58-0.74,1.468-1.627,1.024-2.15c-0.444-0.512-1.547-0.512-2.583-0.444     c-1.047,0.08-4.608-0.216-5.86-0.66c-1.263-0.444-2.446-1.115-2.446-1.115l0.592,1.707c0,0-1.183,0.375-1.775-0.148     c0,0,0.216,1.104,1.183,1.331l-1.115,0.296c0,0,0.455,1.331,2.082,1.183c1.627-0.137,2.367-0.512,2.89,0.08     s-1.263,1.775-1.263,1.775s-1.331-0.512-4.301-0.956c-2.97-0.455-4.892-0.296-4.892-0.296s-0.375-3.118-5.12-3.641     c-4.745-0.512-7.111,1.707-8.226,2.15c-1.104,0.444-2.674,0.08-2.674,0.08l0.751,1.411l-1.786-0.375c0,0-0.114,1.707,1.115,1.775     l-1.627,0.444c0,0,1.183,1.411,2.81,1.047c1.638-0.375,2.48-1.752,4.005-2.526c2.526-1.263,8.385-0.364,4.005,0.523     c-1.013,0.205-1.741,1.183-1.741,1.183s-2.788-0.592-4.938,2.742c-1.456,2.287-2.139,4.153-4.813,3.63     c0,0,1.252,1.627,2.674,1.115c0,0-0.819,1.035-2.082,0.967c0,0,0.592,1.479,2.378,0.956c0,0-0.967,0.899-1.855,0.819     c0,0,0.512,1.559,2.89,0.228c2.378-1.331,0.944-2.458,1.411-3.265c0.296-0.512,0.944-1.411,2.514-2.81     c2.674-2.378,3.937-2.97,3.118-0.558c-0.887,0.58-1.411,2.105-1.627,2.856c-0.228,0.74-1.49,2.514-1.115,2.958     c0.364,0.444,1.479-0.375,1.479-0.375s1.411,0.603,3.334,0.603c1.934,0,2.674-0.887,2.674-0.887s1.331,1.035,1.559,0.512     c0.228-0.512-0.74-1.331-1.183-2.23c-0.455-0.887,0.068-1.923,0.068-1.923s1.297-1.695,3.971-1.775     c2.662-0.08,6.633,0.364,8.044,0.66c1.399,0.307,3.846,0.785,5.484,0.489c1.638-0.307,6.235-0.182,6.087,1.001     c-0.159,1.183-1.274,1.547-3.561,1.263c-2.298-0.296-4.301-1.047-8.533-0.751c-4.233,0.296-4.654,2.446-4.38,3.493     c0.375,1.411,2.753,2.253,4.972,2.253c2.23,0,5.018-0.933,6.633-0.933C218.681-65.945,220.797-65.49,220.797-65.49"/>
			<path style="fill:#DD2E44;" d="M193.365-71.998c0,0,0.887-0.421,1.411-0.375c0.523,0.046,1.445,0.512,1.445,0.512     s-0.296-0.558-0.296-1.07s-0.114-1.047-1.001-1.07c-1.331-0.046-1.149,0.819-1.229,1.183     C193.627-72.453,193.365-71.998,193.365-71.998"/>
			<g>
				<path style="fill:#11429A;" d="M195.584-76.754c0-0.364-0.296-0.671-0.671-0.671h-0.148c-0.364,0-0.66,0.307-0.66,0.671v2.89      c0,0.364,0.296,0.66,0.66,0.66h0.148c0.375,0,0.671-0.296,0.671-0.66V-76.754z"/>
				<path style="fill:#11429A;" d="M183.865-76.412c-0.694-0.33-1.115-0.831-1.115-0.831l1.638-0.444      c-1.229-0.068-1.115-1.786-1.115-1.786l1.764,0.375L183.865-76.412z"/>
				<path style="fill:#11429A;" d="M221.582-80.008c-0.774-0.398-1.217-1.308-1.217-1.308h1.456l-0.66-1.923l1.195,0.444      l-0.284-1.559c0.205,0.262,0.705,0.66,1.286,0.99L221.582-80.008z"/>
				<path style="fill:#11429A;" d="M208.009-83.501l-1.217,3.664c-0.74-0.33-0.967-1.024-0.967-1.024l1.115-0.296      c-0.967-0.216-1.195-1.331-1.195-1.331c0.592,0.523,1.786,0.148,1.786,0.148l-0.592-1.707      C206.939-84.047,207.371-83.797,208.009-83.501"/>
				<path style="fill:#11429A;" d="M183.182-66.775c0.512,0.046,1.07-0.239,1.422-0.489l0.216,1.206      C183.512-65.808,183.182-66.775,183.182-66.775"/>
				<path style="fill:#11429A;" d="M185.048-79.098l-0.728-1.399c0,0,0.569,0.148,1.274,0.148L185.048-79.098z"/>
				<path style="fill:#11429A;" d="M184.331-69.108l0.262,1.604c-1.422,0.159-1.911-1.058-1.911-1.058      C183.398-68.516,183.967-68.835,184.331-69.108"/>
				<path style="fill:#11429A;" d="M182.044-70.633c0.819,0.159,1.445,0.091,1.968-0.137l0.228,1.343      C183.034-69.358,182.044-70.633,182.044-70.633"/>
			</g>
			<path style="fill:#FFCC4D;" d="M218.67-85.958c0,0-0.91-1.263-4.187-1.263c-3.265,0-1.798,0.432-4.392,0.432     s-3.732-0.66-3.732-1.468c0-0.785,0.933-1.286,4.403-1.286c3.447,0,4.722,0.865,7.509,0.865c2.799,0,3.868-1.013,3.868-2.264     c0-1.274-1.809-3.595-4.654-2.867c0,0,1.98-1.001,4.119-0.865c2.128,0.137,3.937,0.535,4.062,0.068     c0.137-0.466,0.978-2.924,0.865-4.267c-0.193-2.059-2.799-2.788-3.857-2.662c-1.07,0.137-2.469-0.865-2.867-1.331l0.262,1.399     l-1.07-0.387l0.603,1.718h-1.331c0,0,0.66,1.331,1.729,1.331c1.07,0,3.47-0.262,3.607,0.466c0.125,0.74-0.671,1.729-2.207,1.661     c-1.536-0.057-4.46-0.922-6.258-0.466c0,0-0.592-0.865-0.057-1.536c0.523-0.66,1.32-1.456,0.922-1.923s-1.399-0.466-2.321-0.398     c-0.933,0.068-4.13-0.205-5.257-0.603c-1.138-0.398-2.196-0.99-2.196-0.99l0.523,1.525c0,0-1.07,0.341-1.593-0.137     c0,0,0.205,1.001,1.07,1.206l-1.001,0.262c0,0,0.398,1.195,1.855,1.058c1.468-0.125,2.139-0.466,2.606,0.08     c0.455,0.535-1.138,1.593-1.138,1.593s-1.195-0.466-3.868-0.865c-2.651-0.41-4.38-0.262-4.38-0.262s-0.341-2.799-4.597-3.265     c-4.267-0.455-6.394,1.536-7.396,1.934c-0.99,0.398-2.389,0.057-2.389,0.057l0.66,1.274l-1.593-0.341c0,0-0.091,1.536,0.99,1.604     l-1.456,0.398c0,0,1.07,1.263,2.526,0.933c1.468-0.33,2.23-1.582,3.607-2.276c2.253-1.126,7.521-0.319,3.595,0.478     c-0.933,0.182-1.57,1.058-1.57,1.058s-2.492-0.523-4.426,2.469c-1.331,2.048-1.934,3.732-4.335,3.265     c0,0,1.138,1.456,2.401,1.001c0,0-0.728,0.922-1.866,0.865c0,0,0.535,1.331,2.128,0.865c0,0-0.865,0.785-1.661,0.717     c0,0,0.466,1.399,2.594,0.216c2.139-1.206,0.853-2.207,1.263-2.935c0.273-0.466,0.853-1.274,2.264-2.537     c2.401-2.128,3.538-2.651,2.799-0.489c-0.808,0.523-1.263,1.9-1.468,2.56c-0.193,0.671-1.331,2.264-0.99,2.662     c0.33,0.398,1.331-0.341,1.331-0.341s1.252,0.546,2.992,0.546c1.729,0,2.389-0.808,2.389-0.808s1.206,0.933,1.399,0.478     c0.205-0.478-0.66-1.206-1.058-2.002c-0.398-0.796,0.068-1.729,0.068-1.729s1.161-1.536,3.561-1.604     c2.389-0.057,5.951,0.341,7.214,0.603c1.274,0.262,3.47,0.694,4.927,0.432c1.479-0.273,5.598-0.171,5.461,0.899     s-1.138,1.399-3.197,1.138c-2.071-0.273-3.857-0.933-7.646-0.671c-3.8,0.273-4.176,2.185-3.925,3.129     c0.33,1.263,2.458,2.025,4.46,2.025c1.991,0,4.494-0.831,5.962-0.831C216.781-86.357,218.67-85.958,218.67-85.958"/>
			<path style="fill:#DD2E44;" d="M193.422-91.772c0,0,0.796-0.364,1.263-0.341c0.466,0.046,1.297,0.478,1.297,0.478     s-0.262-0.501-0.262-0.967s-0.102-0.944-0.899-0.967c-1.206-0.034-1.035,0.74-1.104,1.07     C193.661-92.171,193.422-91.772,193.422-91.772"/>
			<g>
				<path style="fill:#11429A;" d="M195.47-96.062c0-0.341-0.262-0.603-0.603-0.603h-0.125c-0.33,0-0.603,0.262-0.603,0.603v2.594      c0,0.33,0.273,0.592,0.603,0.592h0.125c0.341,0,0.603-0.262,0.603-0.592V-96.062z"/>
				<path style="fill:#11429A;" d="M184.923-95.732c-0.614-0.284-1.001-0.74-1.001-0.74l1.468-0.41      c-1.104-0.057-1.001-1.593-1.001-1.593l1.582,0.33L184.923-95.732z"/>
				<path style="fill:#11429A;" d="M218.783-98.94c-0.694-0.364-1.115-1.172-1.115-1.172h1.343l-0.58-1.729l1.058,0.398      l-0.262-1.399c0.182,0.228,0.626,0.592,1.161,0.876L218.783-98.94z"/>
				<path style="fill:#11429A;" d="M206.62-102.103l-1.092,3.288c-0.671-0.296-0.876-0.922-0.876-0.922l1.001-0.262      c-0.865-0.205-1.07-1.195-1.07-1.195c0.535,0.466,1.593,0.137,1.593,0.137l-0.523-1.536      C205.653-102.593,206.052-102.365,206.62-102.103"/>
				<path style="fill:#11429A;" d="M184.331-87.108c0.478,0.046,0.967-0.205,1.286-0.432l0.171,1.092      C184.616-86.231,184.331-87.108,184.331-87.108"/>
				<path style="fill:#11429A;" d="M185.981-98.144l-0.66-1.252c0,0,0.523,0.125,1.149,0.125L185.981-98.144z"/>
				<path style="fill:#11429A;" d="M185.344-89.178l0.239,1.434c-1.274,0.159-1.707-0.933-1.707-0.933      C184.513-88.644,185.025-88.939,185.344-89.178"/>
				<path style="fill:#11429A;" d="M183.296-90.544c0.728,0.137,1.297,0.091,1.764-0.125l0.205,1.217      C184.183-89.406,183.296-90.544,183.296-90.544"/>
			</g>
			<path style="fill:#FFCC4D;" d="M214.63-105.79c0,0-0.705-0.933-3.118-0.933c-2.423,0-1.331,0.319-3.265,0.319     c-1.923,0-2.765-0.501-2.765-1.081c0-0.614,0.683-0.978,3.254-0.978c2.571,0,3.527,0.649,5.598,0.649     c2.071,0,2.867-0.751,2.867-1.684c0-0.944-1.343-2.674-3.459-2.128c0,0,1.49-0.74,3.061-0.637     c1.582,0.091,2.935,0.398,3.015,0.046c0.091-0.353,0.74-2.173,0.649-3.163c-0.159-1.536-2.082-2.082-2.867-1.98     c-0.796,0.102-1.82-0.649-2.128-1.001l0.193,1.047l-0.796-0.296l0.466,1.286h-1.001c0,0,0.501,0.99,1.274,0.99     c0.796,0,2.594-0.205,2.685,0.341c0.091,0.558-0.489,1.297-1.65,1.24c-1.126-0.057-3.288-0.683-4.631-0.341     c0,0-0.455-0.649-0.057-1.138c0.398-0.501,0.99-1.092,0.694-1.445c-0.296-0.33-1.035-0.33-1.741-0.284     c-0.683,0.046-3.061-0.148-3.891-0.444c-0.853-0.307-1.638-0.751-1.638-0.751l0.398,1.149c0,0-0.796,0.228-1.195-0.102     c0,0,0.148,0.728,0.796,0.887l-0.74,0.193c0,0,0.284,0.887,1.377,0.796c1.092-0.102,1.582-0.353,1.934,0.046     c0.341,0.398-0.842,1.195-0.842,1.195s-0.887-0.353-2.867-0.649s-3.265-0.193-3.265-0.193s-0.25-2.082-3.413-2.423     c-3.163-0.353-4.745,1.126-5.495,1.422c-0.74,0.296-1.775,0.057-1.775,0.057l0.489,0.944l-1.183-0.25c0,0-0.068,1.138,0.74,1.183     l-1.081,0.296c0,0,0.785,0.944,1.866,0.694c1.092-0.25,1.661-1.172,2.674-1.684c1.684-0.842,5.598-0.239,2.674,0.341     c-0.671,0.137-1.161,0.796-1.161,0.796s-1.855-0.398-3.288,1.832c-0.978,1.525-1.434,2.765-3.22,2.423     c0,0,0.842,1.081,1.786,0.74c0,0-0.546,0.694-1.388,0.649c0,0,0.398,0.978,1.582,0.637c0,0-0.637,0.603-1.24,0.558     c0,0,0.353,1.024,1.934,0.137c1.593-0.887,0.637-1.638,0.944-2.185c0.193-0.341,0.626-0.933,1.684-1.866     c1.775-1.582,2.617-1.98,2.071-0.387c-0.592,0.41-0.944,1.422-1.081,1.911c-0.148,0.501-0.99,1.684-0.751,1.991     c0.25,0.296,0.99-0.25,0.99-0.25s0.944,0.398,2.23,0.398c1.286,0,1.786-0.603,1.786-0.603s0.887,0.705,1.035,0.353     c0.148-0.353-0.501-0.899-0.796-1.49s0.046-1.286,0.046-1.286s0.876-1.138,2.651-1.183c1.786-0.057,4.426,0.25,5.37,0.444     c0.944,0.193,2.571,0.512,3.652,0.319c1.104-0.193,4.164-0.125,4.062,0.671c-0.091,0.785-0.842,1.035-2.378,0.842     c-1.525-0.205-2.867-0.694-5.689-0.501c-2.81,0.205-3.095,1.627-2.913,2.332c0.25,0.933,1.832,1.513,3.311,1.513     s3.345-0.626,4.426-0.626C213.22-106.086,214.63-105.79,214.63-105.79"/>
			<path style="fill:#DD2E44;" d="M196.324-110.091c0,0,0.592-0.262,0.944-0.239c0.341,0.023,0.956,0.353,0.956,0.353     s-0.193-0.375-0.193-0.728c0-0.341-0.068-0.694-0.671-0.717c-0.887-0.034-0.762,0.535-0.808,0.796     C196.506-110.375,196.324-110.091,196.324-110.091"/>
			<g>
				<path style="fill:#11429A;" d="M197.803-113.311c0-0.239-0.193-0.444-0.444-0.444h-0.091c-0.25,0-0.455,0.205-0.455,0.444v1.923      c0,0.25,0.205,0.455,0.455,0.455h0.091c0.25,0,0.444-0.205,0.444-0.455V-113.311z"/>
				<path style="fill:#11429A;" d="M189.998-113.049c-0.455-0.216-0.74-0.558-0.74-0.558l1.081-0.296      c-0.808-0.046-0.74-1.183-0.74-1.183l1.172,0.25L189.998-113.049z"/>
				<path style="fill:#11429A;" d="M215.142-115.45c-0.501-0.262-0.808-0.876-0.808-0.876h1.001l-0.455-1.274l0.785,0.296      l-0.193-1.047c0.137,0.182,0.478,0.455,0.865,0.66L215.142-115.45z"/>
				<path style="fill:#11429A;" d="M206.052-117.793l-0.808,2.446c-0.501-0.228-0.649-0.683-0.649-0.683l0.74-0.205      c-0.649-0.148-0.796-0.876-0.796-0.876c0.398,0.33,1.195,0.091,1.195,0.091l-0.398-1.138      C205.335-118.158,205.631-117.998,206.052-117.793"/>
				<path style="fill:#11429A;" d="M189.542-106.62c0.353,0.034,0.717-0.171,0.956-0.33l0.137,0.808      C189.759-105.972,189.542-106.62,189.542-106.62"/>
				<path style="fill:#11429A;" d="M190.783-114.858l-0.489-0.922c0,0,0.387,0.091,0.853,0.102L190.783-114.858z"/>
				<path style="fill:#11429A;" d="M190.305-108.179l0.171,1.07c-0.944,0.114-1.274-0.705-1.274-0.705      C189.679-107.781,190.066-107.986,190.305-108.179"/>
				<path style="fill:#11429A;" d="M188.803-109.18c0.535,0.102,0.956,0.057,1.308-0.091l0.148,0.899      C189.463-108.338,188.803-109.18,188.803-109.18"/>
			</g>
		</g>
	</g>
</g>
<g>
</g>
<g>
</g>
<g>
</g>
<g>
</g>
<g>
</g>
<g>
</g>
<g>
</g>
<g>
</g>
<g>
</g>
<g>
</g>
<g>
</g>
<g>
</g>
<g>
</g>
<g>
</g>
<g>
</g>
</svg>
