<?xml version="1.0" encoding="iso-8859-1"?>
<!-- Generator: Adobe Illustrator 19.0.0, SVG Export Plug-In . SVG Version: 6.00 Build 0)  -->
<svg xmlns="http://www.w3.org/2000/svg" xmlns:xlink="http://www.w3.org/1999/xlink" version="1.1" id="Capa_1" x="0px" y="0px" viewBox="0 0 512 512" style="enable-background:new 0 0 512 512;" xml:space="preserve">
<path style="fill:#00247D;" d="M455.112,71.113H56.894c-31.417,0-56.888,25.472-56.888,56.888v255.997  c0,31.417,25.472,56.888,56.888,56.888h398.218c31.417,0,56.888-25.472,56.888-56.888V128.001  C512,96.585,486.528,71.113,455.112,71.113z"/>
<path style="fill:#EEEEEE;" d="M270.225,256v-28.857l-100.977-70.698H94.881L237.059,256H270.225z"/>
<path style="fill:#CF1B2B;" d="M270.225,235.833l-113.364-79.388h-24.789l138.153,96.738L270.225,235.833L270.225,235.833z"/>
<path style="fill:#EEEEEE;" d="M115.199,156.446L0,238.45V256h47.388l142.192-99.554L115.199,156.446L115.199,156.446z"/>
<path style="fill:#CF1B2B;" d="M152.379,156.446L10.443,256h3.783h20.778l142.178-99.554L152.379,156.446L152.379,156.446z"/>
<path style="fill:#EEEEEE;" d="M237.072,71.113L94.894,170.668h74.367L270.223,99.97V71.113H237.072z"/>
<path style="fill:#CF1B2B;" d="M249.447,71.113l-142.164,99.554h24.789l138.153-96.738v-2.816H249.447z"/>
<path style="fill:#EEEEEE;" d="M9.432,96.649l132.795,92.949v-18.93h47.331L48.315,71.758C32.088,74.214,18.117,83.528,9.432,96.649  z"/>
<path style="fill:#CF1B2B;" d="M13.785,90.906l128.441,90.031v-10.268h10.155L24.589,81.185  C20.584,83.954,16.955,87.226,13.785,90.906z"/>
<path style="fill:#EEEEEE;" d="M270.225,128.001h-99.554V71.113H99.56v56.888H0.006v71.11H99.56V256h71.11v-56.888h99.554V128.001z"/>
<g>
	<path style="fill:#CF1B2B;" d="M156.449,256h-42.666V71.113h42.666V256z"/>
	<path style="fill:#CF1B2B;" d="M270.225,184.89H0.006v-42.666h270.219V184.89z"/>
</g>
<g>
	<polygon style="fill:#EEEEEE;" points="270.225,73.932 269.388,74.517 269.388,100.556 270.225,99.97  "/>
	<path style="fill:#EEEEEE;" d="M436.993,171.155c-25.841,0-25.841,14.222-51.754,14.222c-25.799,0-25.799-14.222-51.768-14.222   c-25.742,0-25.742,14.222-51.612,14.222c-4.604,0-8.378-0.457-11.634-1.198v32.105c3.256,0.741,7.03,1.198,11.634,1.198   c25.87,0,25.87-14.222,51.313-14.222c26.268,0,26.268,14.222,51.313,14.222c26.666,0,26.666-14.222,52.536-14.222   c25.856,0,25.856,15.104,51.697,15.104c11.25,0,17.564-2.873,23.281-6.101v-32.901c-5.717,2.944-12.032,5.575-23.281,5.575   C462.877,184.937,462.877,171.155,436.993,171.155z"/>
	<path style="fill:#EEEEEE;" d="M270.225,73.931v21.268c3.258,0.742,7.034,1.2,11.64,1.2c25.856,0,25.856-14.222,51.299-14.222   c26.268,0,26.268,14.222,51.327,14.222c26.666,0,26.666-14.222,52.522-14.222c25.856,0,25.856,15.104,51.711,15.104   c5.319,0,9.486-0.683,13.056-1.692c4.821,6.912,7.979,14.962,9.33,23.651l0,0c-5.504,2.759-11.691,5.148-22.385,5.148   c-25.856,0-25.856-13.767-51.74-13.767c-25.827,0-25.827,14.222-51.754,14.222c-25.799,0-25.799-14.222-51.754-14.222   c-25.756,0-25.756,14.222-51.612,14.222c-4.607,0-8.383-0.458-11.64-1.2v32.093c3.256,0.741,7.03,1.198,11.634,1.198   c25.87,0,25.87-14.222,51.313-14.222c26.268,0,26.268,14.222,51.313,14.222c26.666,0,26.666-14.222,52.536-14.222   c25.856,0,25.856,15.104,51.697,15.104c11.25,0,17.564-2.873,23.281-6.101v-23.712c0-31.417-25.472-56.888-56.888-56.888H270.225   L270.225,73.931L270.225,73.931L270.225,73.931z"/>
	<path style="fill:#EEEEEE;" d="M436.993,352.793c-25.841,0-25.841,14.222-51.754,14.222c-25.799,0-25.799-14.222-51.768-14.222   c-25.742,0-25.742,14.222-51.612,14.222c-25.856,0-25.856-14.222-51.711-14.222s-25.856,14.222-51.726,14.222   c-25.856,0-25.856-14.222-51.711-14.222s-25.856,14.222-51.711,14.222s-25.856-14.222-51.726-14.222   c-11.235,0-17.55,2.702-23.267,5.746v25.46c0,31.417,25.472,56.888,56.888,56.888h398.218c31.417,0,56.888-25.472,56.888-56.888   v-23c-5.717,2.944-12.032,5.575-23.281,5.575C462.877,366.574,462.877,352.793,436.993,352.793z M510.938,394.423   c-2.389,12.971-9.273,24.22-18.858,32.483c-1.124,0.057-2.105,0.199-3.356,0.199c-25.841,0-25.841-13.781-51.74-13.781   c-25.827,0-25.827,14.222-51.74,14.222c-25.813,0-25.813-14.222-51.768-14.222c-25.756,0-25.756,14.222-51.612,14.222   s-25.856-14.222-51.726-14.222c-25.841,0-25.841,14.222-51.711,14.222c-25.856,0-25.856-14.222-51.711-14.222   s-25.856,14.222-51.711,14.222c-25.87,0-25.87-14.222-51.726-14.222c-5.731,0-10.169,0.711-13.923,1.806   c-4.764-7.253-7.694-15.73-8.704-24.803c5.547-2.916,11.79-5.433,22.627-5.433c25.856,0,25.856,14.222,51.726,14.222   c25.856,0,25.856-14.222,51.711-14.222s25.856,14.222,51.711,14.222c25.87,0,25.87-14.222,51.711-14.222   c25.87,0,25.87,14.222,51.726,14.222s25.856-14.222,51.299-14.222c26.268,0,26.268,14.222,51.327,14.222   c26.666,0,26.666-14.222,52.522-14.222c25.87,0,25.87,15.104,51.711,15.104C499.304,399.998,505.49,397.424,510.938,394.423z"/>
	<path style="fill:#EEEEEE;" d="M436.993,231.705c-25.841,0-25.841,14.222-51.754,14.222c-25.799,0-25.799-14.222-51.768-14.222   c-25.742,0-25.742,14.222-51.612,14.222c-4.604,0-8.378-0.457-11.634-1.198v8.455l-0.837-0.586v2.565h-33.524l1.195,0.837H47.388   l1.195-0.837H36.199L35.005,256H10.443l1.193-0.837H0.006V256v13.554c5.717-3.044,12.032-5.76,23.267-5.76   c25.87,0,25.87,14.236,51.726,14.236s25.856-14.236,51.711-14.236s25.856,14.236,51.711,14.236c25.87,0,25.87-14.236,51.726-14.236   s25.856,14.236,51.711,14.236c25.87,0,25.87-14.236,51.313-14.236c26.268,0,26.268,14.236,51.313,14.236   c26.666,0,26.666-14.236,52.536-14.236c25.856,0,25.856,15.118,51.697,15.118c11.25,0,17.564-2.873,23.281-6.101v-32.9   c-5.717,2.944-12.032,5.575-23.281,5.575C462.877,245.486,462.877,231.705,436.993,231.705z"/>
	<path style="fill:#EEEEEE;" d="M436.993,292.252c-25.841,0-25.841,14.222-51.754,14.222c-25.799,0-25.799-14.222-51.768-14.222   c-25.742,0-25.742,14.222-51.612,14.222c-25.856,0-25.856-14.222-51.711-14.222s-25.856,14.222-51.726,14.222   c-25.856,0-25.856-14.222-51.711-14.222s-25.856,14.222-51.711,14.222s-25.856-14.222-51.726-14.222   c-11.235,0-17.55,2.702-23.267,5.746v32.097c5.717-3.044,12.032-5.746,23.267-5.746c25.87,0,25.87,14.222,51.726,14.222   s25.856-14.222,51.711-14.222s25.856,14.222,51.711,14.222c25.87,0,25.87-14.222,51.726-14.222s25.856,14.222,51.711,14.222   c25.87,0,25.87-14.222,51.313-14.222c26.268,0,26.268,14.222,51.313,14.222c26.666,0,26.666-14.222,52.536-14.222   c25.856,0,25.856,15.104,51.697,15.104c11.25,0,17.564-2.873,23.281-6.101v-32.893c-5.717,2.944-12.032,5.575-23.281,5.575   C462.877,306.033,462.877,292.252,436.993,292.252z"/>
</g>
<g transform="matrix(1.25 0 0 -1.25 0 45)">
	<path style="fill:#C1694F;" d="M310.024-290.277c0-2.036-1.627-3.675-3.663-3.675s-3.686,1.638-3.686,3.675v180.461   c0,2.036,1.65,3.686,3.686,3.686c2.036,0,3.663-1.65,3.663-3.686V-290.277z"/>
	<path style="fill:#DD2E44;" d="M280.535-195.7c0,0,1.581,3.8,7.134,3.8c5.575,0,6.906-2.901,10.252-4.232   c3.345-1.343,7.578-2.014,7.578-2.014v-27.841h-29.855c0,0-1.115,10.467-2.901,15.587c-1.786,5.108-3.345,12.038,0.443,14.267   C276.985-193.925,280.535-195.7,280.535-195.7"/>
	<g>
		<path style="fill:#FFCC4D;" d="M305.379-188.455v-4.005c0,0-7.68,0.671-14.37,5.347c-4.073,2.844-12.698,6.36-19.376,0.66    c-4.346-3.663-4.005-13.039-1.32-16.703c2.651-3.675,5.336-12.038-0.353-6.36c-5.677,5.689-7.361,14.381-5.677,20.059    c1.672,5.677,5.336,11.355,14.029,11.355c8.704,0,14.381-4.677,18.387-7.02C300.179-187.146,305.732-187.784,305.379-188.455"/>
		<path style="fill:#FFCC4D;" d="M271.868-208.611l4.665,0.205l-1.331-7.111c0,0,4.677,3.55,4.904,2.674    c0.205-0.91,0.888-7.361,0.888-7.361l-6.018,1.343l3.561-5.143l-4.665-2.207c0,0-1.786,6.008-2.23,8.886    C271.175-214.413,271.868-208.611,271.868-208.611"/>
		<path style="fill:#FFCC4D;" d="M281.657-212.411l4.449,0.443c0,0-3.846,8.692,1.786,8.476c6.246-0.228,2.003-8.249,2.003-8.249    h4.687l0.66-6.463l-4.437,2.685v-3.8l4.881-4.687l-12.914-1.32l3.334,5.563l-0.216,4.005l-3.117-3.561L281.657-212.411z"/>
	</g>
	<path style="fill:#DD2E44;" d="M332.294-195.7c0,0-1.57,3.8-7.134,3.8c-5.563,0-6.895-2.901-10.24-4.232   c-3.345-1.343-7.578-2.014-7.578-2.014v-27.841h29.866c0,0,1.093,10.467,2.89,15.587c1.786,5.108,3.334,12.038-0.443,14.267   C335.844-193.925,332.294-195.7,332.294-195.7"/>
	<g>
		<path style="fill:#FFCC4D;" d="M307.444-188.455v-4.005c0,0,7.692,0.671,14.37,5.347c4.073,2.844,12.698,6.36,19.387,0.66    c4.346-3.663,3.994-13.039,1.32-16.703c-2.662-3.675-5.325-12.038,0.341-6.36c5.677,5.689,7.373,14.381,5.677,20.059    c-1.661,5.677-5.336,11.355-14.029,11.355c-8.704,0-14.381-4.677-18.375-7.02C312.667-187.146,307.115-187.784,307.444-188.455"/>
		<path style="fill:#FFCC4D;" d="M340.979-208.611l-4.677,0.205l1.331-7.111c0,0-4.677,3.55-4.904,2.674    c-0.205-0.91-0.888-7.361-0.888-7.361l6.008,1.343l-3.572-5.143l4.677-2.207c0,0,1.786,6.008,2.253,8.886    C341.639-214.413,340.979-208.611,340.979-208.611"/>
		<path style="fill:#FFCC4D;" d="M331.17-212.411l-4.46,0.443c0,0,3.857,8.692-1.786,8.476c-6.223-0.228-1.991-8.249-1.991-8.249    h-4.677l-0.683-6.463l4.46,2.685v-3.8l-4.892-4.687l12.925-1.32l-3.356,5.563l0.239,4.005l3.117-3.561L331.17-212.411z"/>
		<path style="fill:#FFCC4D;" d="M314.156-177.2c0-4.437-3.504-8.01-7.805-8.01c-4.301,0-7.794,3.572-7.794,8.01    c0,4.426,3.493,8.021,7.794,8.021S314.156-172.774,314.156-177.2"/>
	</g>
	<path id="SVGCleanerId_0" style="fill:#FFCC4D;" d="M313.368-165.182h-14.017v5.575h14.017V-165.182z"/>
	<path id="SVGCleanerId_1" style="fill:#FFCC4D;" d="M309.693-207.291h-6.668v51.461h6.668V-207.291z"/>
	<g>
		<path style="fill:#FFCC4D;" d="M300.823-205.056h10.467l-2.901-7.35l6.69,3.561v-9.785l-6.474,2.207l5.575-8.454h-14.484    l4.46,8.454l-6.451-1.548v8.692l6.018-2.901L300.823-205.056z"/>
		<path style="fill:#FFCC4D;" d="M306.378-221.533c13.824,0,22.505-1.138,32.313-4.677c0,0,0.671-5.814-0.671-8.704    c-1.32-2.901-31.857,2.014-31.857,2.014L306.378-221.533z"/>
		<path style="fill:#FFCC4D;" d="M306.779-221.533c-13.812,0-22.505-1.138-32.29-4.677c0,0-0.683-5.814,0.648-8.704    c1.343-2.901,31.846,2.014,31.846,2.014L306.779-221.533z"/>
	</g>
	<path style="fill:#EEEEEE;" d="M342.225-240.822c0-4.369-16.065-7.885-35.862-7.885c-19.809,0-35.885,3.515-35.885,7.885   c0,4.38,16.077,7.919,35.885,7.919C326.159-232.903,342.225-236.441,342.225-240.822"/>
	<path style="fill:#99AAB5;" d="M330.443-243.7c0-2.412-10.786-4.369-24.086-4.369c-13.312,0-24.109,1.957-24.109,4.369   c0,2.389,10.797,4.346,24.109,4.346C319.657-239.353,330.443-241.31,330.443-243.7"/>
	<path style="fill:#77B255;" d="M291.901-42.199l7.339-9.136c0,0,5.143,3.129,5.359,2.458c0.228-0.671-0.443-7.578-0.443-7.578   l3.572-0.888l-2.901-9.136c0,0,4.46,2.458,4.232,1.559c-0.228-0.888-1.331-8.692-1.331-8.692l1.786-1.103l-0.228-8.704   c0,0,1.798-3.106,1.798-2.434c0,0.66,1.775,11.355,1.775,11.355l2.458-2.003l0.865,5.563l2.014,9.58l2.23-3.561l4.677,15.827   l2.458-5.575l5.563,6.463l3.789,0.216l5.563,1.559l1.126-3.345h5.12c0,0-2.662-2.23-2.446-2.89   c0.216-0.671,4.892-3.117,4.221-3.345c-0.66-0.216-12.026,0.898-12.026,0.898l-6.451-6.463l4.005-1.343l-6.03-3.561l5.132-1.559   l-4.677-3.561l4.005,0.443l-6.463-4.904l6.463-1.343l-8.681-4.449l1.991-2.23l-8.67-5.12l-1.126-3.572l8.249,6.463   c0,0,6.69,4.46,10.012,6.463c3.345,2.003,6.03,5.791,11.605,7.35c5.575,1.559,16.258-0.228,16.258-0.228l-10.035-5.336l2.014-3.117   l-6.463-2.014l0.888-3.777l-10.695-1.57l0.216-4.005l-9.125-1.559l-1.115-3.789l-6.235-2.23l2.901-2.446   c0,0-5.359-1.786-4.677-2.003c0.671-0.228,7.805-0.899,7.805-0.899s-3.584-3.117-2.913-3.117c0.671,0,9.569-0.443,9.569-0.443   l-3.789-2.674l8.943-0.443l-4.039-3.117c0,0,7.361-0.671,7.361-1.343c0-0.66-3.117-4.005-3.117-4.005l6.451-0.671   c0,0-3.106-3.345-2.446-3.572c0.683-0.216,9.136-6.008,9.136-6.008l-10.024,1.331c0,0-2.446-3.334-2.685-2.662   c-0.205,0.66-2.651,4.677-2.651,4.677l-2.458-2.674l-2.662,5.336c0,0-3.129-1.775-2.913-1.103c0.216,0.672-3.572,4.904-3.572,4.904   l-0.888-2.014l-2.446,6.018l-2.219-3.129l-4.244,5.803l-1.559-2.446l-5.791,5.12c0,0-0.216-3.345,0-4.005   c0.228-0.671,4.244-3.572,4.244-3.572s-2.685-1.115-2.685-1.775c0-0.671,5.359-4.904,5.359-4.904l-2.458-1.786l5.791-4.904   c0,0-5.348-1.103-4.687-1.559c0.683-0.443,3.345-4.005,3.345-4.005l-2.23-5.347l-4.437,6.906l-2.458-0.671l-0.455,5.791   l-2.434,0.228l1.32,6.451l-2.662-0.433l-0.228,5.347l-1.115,5.336l-2.23,3.572c0,0-1.548-2.685-1.343-3.345   c0.239-0.671,2.025-4.904,2.025-4.904s-2.458-1.331-2.025-2.003c0.455-0.671,2.901-5.563,2.901-5.563s-5.348-1.115-4.677-1.115   c0.683,0,2.458-3.117,2.458-3.117l-2.901-1.115l-1.331-3.345c0,0-3.334,3.789-3.129,3.117c0.228-0.671-2.003-6.906-2.003-6.906   l-3.322,3.789l3.322,13.141l-4.016,1.115l-2.89-6.018c0,0-2.446,2.89-2.674,2.23c-0.228-0.66-2.685-5.12-2.685-5.12   s-2.867,4.904-2.651,4.232c0.216-0.671-3.356-7.805-3.356-7.805s-3.117,6.246-3.117,5.348c0-0.888-2.23-8.681-2.23-8.681   s-3.55,6.018-3.345,4.904c0.239-1.115-2.434-6.246-2.434-6.246l-0.683,5.575l-4.892-2.901l5.575,8.021l9.364,8.692l7.134,5.336   l-4.699,0.671c0,0,6.781,2.367,7.566,2.458c2.014,0.228-3.106,2.003-3.106,2.003l12.47,3.789c0,0-5.563,2.901-6.235,2.23   c-0.672-0.671-7.35-2.003-7.35-2.003l-0.898,5.12l-6.895-2.901c0,0-1.126,4.687-1.343,4.016c-0.228-0.671-5.575-3.561-5.575-3.561   l-2.662,2.89l-3.129-4.904l-3.572,2.685l-6.44-2.014l3.106,4.677l-3.561,2.014l7.35,4.677l1.559,3.117l10.035-0.671   c0,0-2.685,3.572-2.23,2.901c0.455-0.671,10.24-2.23,10.24-2.23l2.913,0.443l9.796-3.561l-8.021,6.463l-6.906,1.331l4.449,3.561   l-10.467,3.789l2.241,3.561l-13.836,3.572l8.488,2.23l-5.803,9.796l12.026-7.134l5.348,1.786l2.685-6.906l4.904-2.901l0.876-5.12   l2.458,1.115l2.219-6.008l2.913,0.888l1.548-4.232l4.244-0.228l-1.126,5.575l1.775,2.674l-4.892,4.005l4.244,2.003l-6.246,5.132   l5.336,0.671l-7.578,7.35l6.042-0.228l-6.042,6.906l4.915,1.115L291.901-42.199z"/>
</g>
<g transform="matrix(1.25 0 0 -1.25 0 45)">
	<path style="fill:#C1694F;" d="M310.024-290.277c0-2.036-1.627-3.675-3.663-3.675s-3.686,1.638-3.686,3.675v180.461   c0,2.036,1.65,3.686,3.686,3.686c2.036,0,3.663-1.65,3.663-3.686V-290.277z"/>
	<path style="fill:#DD2E44;" d="M280.535-195.7c0,0,1.581,3.8,7.134,3.8c5.575,0,6.906-2.901,10.252-4.232   c3.345-1.343,7.578-2.014,7.578-2.014v-27.841h-29.855c0,0-1.115,10.467-2.901,15.587c-1.786,5.108-3.345,12.038,0.443,14.267   C276.985-193.925,280.535-195.7,280.535-195.7"/>
	<g>
		<path style="fill:#FFCC4D;" d="M305.379-188.455v-4.005c0,0-7.68,0.671-14.37,5.347c-4.073,2.844-12.698,6.36-19.376,0.66    c-4.346-3.663-4.005-13.039-1.32-16.703c2.651-3.675,5.336-12.038-0.353-6.36c-5.677,5.689-7.361,14.381-5.677,20.059    c1.672,5.677,5.336,11.355,14.029,11.355c8.704,0,14.381-4.677,18.387-7.02C300.179-187.146,305.732-187.784,305.379-188.455"/>
		<path style="fill:#FFCC4D;" d="M271.868-208.611l4.665,0.205l-1.331-7.111c0,0,4.677,3.55,4.904,2.674    c0.205-0.91,0.888-7.361,0.888-7.361l-6.018,1.343l3.561-5.143l-4.665-2.207c0,0-1.786,6.008-2.23,8.886    C271.175-214.413,271.868-208.611,271.868-208.611"/>
		<path style="fill:#FFCC4D;" d="M281.657-212.411l4.449,0.443c0,0-3.846,8.692,1.786,8.476c6.246-0.228,2.003-8.249,2.003-8.249    h4.687l0.66-6.463l-4.437,2.685v-3.8l4.881-4.687l-12.914-1.32l3.334,5.563l-0.216,4.005l-3.117-3.561L281.657-212.411z"/>
	</g>
	<path style="fill:#DD2E44;" d="M332.294-195.7c0,0-1.57,3.8-7.134,3.8c-5.563,0-6.895-2.901-10.24-4.232   c-3.345-1.343-7.578-2.014-7.578-2.014v-27.841h29.866c0,0,1.093,10.467,2.89,15.587c1.786,5.108,3.334,12.038-0.443,14.267   C335.844-193.925,332.294-195.7,332.294-195.7"/>
	<g>
		<path style="fill:#FFCC4D;" d="M307.444-188.455v-4.005c0,0,7.692,0.671,14.37,5.347c4.073,2.844,12.698,6.36,19.387,0.66    c4.346-3.663,3.994-13.039,1.32-16.703c-2.662-3.675-5.325-12.038,0.341-6.36c5.677,5.689,7.373,14.381,5.677,20.059    c-1.661,5.677-5.336,11.355-14.029,11.355c-8.704,0-14.381-4.677-18.375-7.02C312.667-187.146,307.115-187.784,307.444-188.455"/>
		<path style="fill:#FFCC4D;" d="M340.979-208.611l-4.677,0.205l1.331-7.111c0,0-4.677,3.55-4.904,2.674    c-0.205-0.91-0.888-7.361-0.888-7.361l6.008,1.343l-3.572-5.143l4.677-2.207c0,0,1.786,6.008,2.253,8.886    C341.639-214.413,340.979-208.611,340.979-208.611"/>
		<path style="fill:#FFCC4D;" d="M331.17-212.411l-4.46,0.443c0,0,3.857,8.692-1.786,8.476c-6.223-0.228-1.991-8.249-1.991-8.249    h-4.677l-0.683-6.463l4.46,2.685v-3.8l-4.892-4.687l12.925-1.32l-3.356,5.563l0.239,4.005l3.117-3.561L331.17-212.411z"/>
		<path style="fill:#FFCC4D;" d="M314.156-177.2c0-4.437-3.504-8.01-7.805-8.01c-4.301,0-7.794,3.572-7.794,8.01    c0,4.426,3.493,8.021,7.794,8.021S314.156-172.774,314.156-177.2"/>
	</g>
	<g>
		<path id="SVGCleanerId_0_1_" style="fill:#FFCC4D;" d="M313.368-165.182h-14.017v5.575h14.017V-165.182z"/>
	</g>
	<g>
		<path id="SVGCleanerId_1_1_" style="fill:#FFCC4D;" d="M309.693-207.291h-6.668v51.461h6.668V-207.291z"/>
	</g>
	<g>
		<path style="fill:#FFCC4D;" d="M300.823-205.056h10.467l-2.901-7.35l6.69,3.561v-9.785l-6.474,2.207l5.575-8.454h-14.484    l4.46,8.454l-6.451-1.548v8.692l6.018-2.901L300.823-205.056z"/>
		<path style="fill:#FFCC4D;" d="M306.378-221.533c13.824,0,22.505-1.138,32.313-4.677c0,0,0.671-5.814-0.671-8.704    c-1.32-2.901-31.857,2.014-31.857,2.014L306.378-221.533z"/>
		<path style="fill:#FFCC4D;" d="M306.779-221.533c-13.812,0-22.505-1.138-32.29-4.677c0,0-0.683-5.814,0.648-8.704    c1.343-2.901,31.846,2.014,31.846,2.014L306.779-221.533z"/>
	</g>
	<path style="fill:#EEEEEE;" d="M342.225-240.822c0-4.369-16.065-7.885-35.862-7.885c-19.809,0-35.885,3.515-35.885,7.885   c0,4.38,16.077,7.919,35.885,7.919C326.159-232.903,342.225-236.441,342.225-240.822"/>
	<path style="fill:#99AAB5;" d="M330.443-243.7c0-2.412-10.786-4.369-24.086-4.369c-13.312,0-24.109,1.957-24.109,4.369   c0,2.389,10.797,4.346,24.109,4.346C319.657-239.353,330.443-241.31,330.443-243.7"/>
	<path style="fill:#77B255;" d="M291.901-42.199l7.339-9.136c0,0,5.143,3.129,5.359,2.458c0.228-0.671-0.443-7.578-0.443-7.578   l3.572-0.888l-2.901-9.136c0,0,4.46,2.458,4.232,1.559c-0.228-0.888-1.331-8.692-1.331-8.692l1.786-1.103l-0.228-8.704   c0,0,1.798-3.106,1.798-2.434c0,0.66,1.775,11.355,1.775,11.355l2.458-2.003l0.865,5.563l2.014,9.58l2.23-3.561l4.677,15.827   l2.458-5.575l5.563,6.463l3.789,0.216l5.563,1.559l1.126-3.345h5.12c0,0-2.662-2.23-2.446-2.89   c0.216-0.671,4.892-3.117,4.221-3.345c-0.66-0.216-12.026,0.898-12.026,0.898l-6.451-6.463l4.005-1.343l-6.03-3.561l5.132-1.559   l-4.677-3.561l4.005,0.443l-6.463-4.904l6.463-1.343l-8.681-4.449l1.991-2.23l-8.67-5.12l-1.126-3.572l8.249,6.463   c0,0,6.69,4.46,10.012,6.463c3.345,2.003,6.03,5.791,11.605,7.35c5.575,1.559,16.258-0.228,16.258-0.228l-10.035-5.336l2.014-3.117   l-6.463-2.014l0.888-3.777l-10.695-1.57l0.216-4.005l-9.125-1.559l-1.115-3.789l-6.235-2.23l2.901-2.446   c0,0-5.359-1.786-4.677-2.003c0.671-0.228,7.805-0.899,7.805-0.899s-3.584-3.117-2.913-3.117c0.671,0,9.569-0.443,9.569-0.443   l-3.789-2.674l8.943-0.443l-4.039-3.117c0,0,7.361-0.671,7.361-1.343c0-0.66-3.117-4.005-3.117-4.005l6.451-0.671   c0,0-3.106-3.345-2.446-3.572c0.683-0.216,9.136-6.008,9.136-6.008l-10.024,1.331c0,0-2.446-3.334-2.685-2.662   c-0.205,0.66-2.651,4.677-2.651,4.677l-2.458-2.674l-2.662,5.336c0,0-3.129-1.775-2.913-1.103c0.216,0.672-3.572,4.904-3.572,4.904   l-0.888-2.014l-2.446,6.018l-2.219-3.129l-4.244,5.803l-1.559-2.446l-5.791,5.12c0,0-0.216-3.345,0-4.005   c0.228-0.671,4.244-3.572,4.244-3.572s-2.685-1.115-2.685-1.775c0-0.671,5.359-4.904,5.359-4.904l-2.458-1.786l5.791-4.904   c0,0-5.348-1.103-4.687-1.559c0.683-0.443,3.345-4.005,3.345-4.005l-2.23-5.347l-4.437,6.906l-2.458-0.671l-0.455,5.791   l-2.434,0.228l1.32,6.451l-2.662-0.433l-0.228,5.347l-1.115,5.336l-2.23,3.572c0,0-1.548-2.685-1.343-3.345   c0.239-0.671,2.025-4.904,2.025-4.904s-2.458-1.331-2.025-2.003c0.455-0.671,2.901-5.563,2.901-5.563s-5.348-1.115-4.677-1.115   c0.683,0,2.458-3.117,2.458-3.117l-2.901-1.115l-1.331-3.345c0,0-3.334,3.789-3.129,3.117c0.228-0.671-2.003-6.906-2.003-6.906   l-3.322,3.789l3.322,13.141l-4.016,1.115l-2.89-6.018c0,0-2.446,2.89-2.674,2.23c-0.228-0.66-2.685-5.12-2.685-5.12   s-2.867,4.904-2.651,4.232c0.216-0.671-3.356-7.805-3.356-7.805s-3.117,6.246-3.117,5.348c0-0.888-2.23-8.681-2.23-8.681   s-3.55,6.018-3.345,4.904c0.239-1.115-2.434-6.246-2.434-6.246l-0.683,5.575l-4.892-2.901l5.575,8.021l9.364,8.692l7.134,5.336   l-4.699,0.671c0,0,6.781,2.367,7.566,2.458c2.014,0.228-3.106,2.003-3.106,2.003l12.47,3.789c0,0-5.563,2.901-6.235,2.23   c-0.672-0.671-7.35-2.003-7.35-2.003l-0.898,5.12l-6.895-2.901c0,0-1.126,4.687-1.343,4.016c-0.228-0.671-5.575-3.561-5.575-3.561   l-2.662,2.89l-3.129-4.904l-3.572,2.685l-6.44-2.014l3.106,4.677l-3.561,2.014l7.35,4.677l1.559,3.117l10.035-0.671   c0,0-2.685,3.572-2.23,2.901c0.455-0.671,10.24-2.23,10.24-2.23l2.913,0.443l9.796-3.561l-8.021,6.463l-6.906,1.331l4.449,3.561   l-10.467,3.789l2.241,3.561l-13.836,3.572l8.488,2.23l-5.803,9.796l12.026-7.134l5.348,1.786l2.685-6.906l4.904-2.901l0.876-5.12   l2.458,1.115l2.219-6.008l2.913,0.888l1.548-4.232l4.244-0.228l-1.126,5.575l1.775,2.674l-4.892,4.005l4.244,2.003l-6.246,5.132   l5.336,0.671l-7.578,7.35l6.042-0.228l-6.042,6.906l4.915,1.115L291.901-42.199z"/>
</g>
<g>
</g>
<g>
</g>
<g>
</g>
<g>
</g>
<g>
</g>
<g>
</g>
<g>
</g>
<g>
</g>
<g>
</g>
<g>
</g>
<g>
</g>
<g>
</g>
<g>
</g>
<g>
</g>
<g>
</g>
</svg>
