<?xml version="1.0" encoding="iso-8859-1"?>
<!-- Generator: Adobe Illustrator 19.0.0, SVG Export Plug-In . SVG Version: 6.00 Build 0)  -->
<svg xmlns="http://www.w3.org/2000/svg" xmlns:xlink="http://www.w3.org/1999/xlink" version="1.1" id="Capa_1" x="0px" y="0px" viewBox="0 0 512 512" style="enable-background:new 0 0 512 512;" xml:space="preserve">
<g transform="matrix(1.25 0 0 -1.25 0 45)">
	<g>
		<g>
			<path style="fill:#CF1B2B;" d="M409.6-271.2c0-25.134-20.378-45.511-45.511-45.511H45.511C20.378-316.711,0-296.334,0-271.2     v204.8c0,25.134,20.378,45.511,45.511,45.511h318.578c25.134,0,45.511-20.378,45.511-45.511V-271.2z"/>
			<path id="SVGCleanerId_0" style="fill:#F8DC15;" d="M216.405-152.587c0-8.693-7.043-15.735-15.735-15.735     s-15.735,7.043-15.735,15.735c0,8.693,7.043,15.735,15.735,15.735S216.405-143.894,216.405-152.587"/>
			<g transform="translate(0 -0.742)">
				<path id="SVGCleanerId_0_1_" style="fill:#F8DC15;" d="M216.405-161.029c0-8.693-7.043-15.735-15.735-15.735      s-15.735,7.043-15.735,15.735s7.043,15.735,15.735,15.735S216.405-152.336,216.405-161.029"/>
			</g>
			<path style="fill:#FFFFFF;" d="M112.162-101.785c4.631,2.321,15.132-17.567,23.427-17.078     c8.294,0.478,29.764,16.373,41.483,17.454c0,0,0,4.995,9.751,4.995c9.774,0,11.218-4.904,12.208-11.241     c0,0,7.794-12.186,11.218-21.458c3.425-9.273,3.425-15.622,3.425-15.622s-7.327-7.316-11.719-7.805     c-4.392-0.489-16.589,3.903-16.589,3.903s-2.435,18.5-3.413,24.132l-3.413,3.686c0,0-4.87-5.37-13.665-6.827     c-8.795-1.468-22.448-0.978-27.341-1.957c-4.881-0.979-4.38-7.316-8.784-6.827c-4.38,0.478-0.967,10.24-8.784,15.61     C112.162-115.45,106.303-104.709,112.162-101.785"/>
			<path style="fill:#F8DC15;" d="M132.301-133.415l4.278-3.721l5.473,1.411l-2.219-5.211l3.026-4.767l-5.632,0.501l-3.618-4.358     l-1.263,5.518l-5.257,2.094l4.87,2.89L132.301-133.415z"/>
			<path style="fill:#FFFFFF;" d="M198.212-261.984c-4.324,2.867,7.646,21.914,3.083,28.843c-4.574,6.94-29.07,17.579-35.863,27.182     c0,0-4.312-2.492-9.193,5.973c-4.881,8.442-1.388,12.163,3.607,16.179c0,0,6.667,12.846,12.993,20.446     c6.315,7.612,11.81,10.775,11.81,10.775s10.001-2.685,12.618-6.246c2.617-3.55,4.915-16.327,4.915-16.327     S187.381-186.504,183-190.179l-1.49-4.801c0,0,7.088-1.536,12.743-8.431c5.678-6.861,12.072-18.955,15.36-22.687     c3.288-3.732,8.533-0.125,10.32-4.198c1.775-4.016-8.397-5.951-9.136-15.394C210.045-255.135,203.662-265.579,198.212-261.984"/>
			<path style="fill:#F8DC15;" d="M215.563-228.715l1.081,5.575l-3.959,4.05l5.621,0.66l2.617,5.029l2.378-5.154l5.586-0.933     l-4.142-3.868l0.808-5.586l-4.927,2.765L215.563-228.715z"/>
			<path style="fill:#FFFFFF;" d="M293.387-108.1c-0.307-5.188-22.79-4.324-26.51-11.742c-3.721-7.441-0.705-33.974-5.598-44.669     c0,0,4.312-2.48-0.58-10.934c-4.881-8.454-9.842-7.27-15.815-4.961c0,0-14.45-0.66-24.212,1.024     c-9.739,1.673-15.223,4.836-15.223,4.836s-2.674,10.012-0.922,14.052c1.775,4.05,11.685,12.425,11.685,12.425     s17.237-7.157,22.608-9.114l4.915,1.104c0,0-2.241,6.918,0.91,15.258c3.106,8.351,10.377,19.934,11.969,24.644     c1.582,4.722-4.142,7.464-1.525,11.036c2.605,3.561,9.353-4.289,17.897-0.205C281.554-101.273,293.786-101.58,293.387-108.1"/>
			<path style="fill:#F8DC15;" d="M255.909-109.749l-5.359-1.855l-1.525-5.45l-3.391,4.528l-5.655-0.239l3.265,4.631l-1.98,5.302     l5.404-1.65l4.437,3.504l0.08-5.666L255.909-109.749z"/>
		</g>
	</g>
</g>
<g>
</g>
<g>
</g>
<g>
</g>
<g>
</g>
<g>
</g>
<g>
</g>
<g>
</g>
<g>
</g>
<g>
</g>
<g>
</g>
<g>
</g>
<g>
</g>
<g>
</g>
<g>
</g>
<g>
</g>
</svg>
