<?xml version="1.0" encoding="iso-8859-1"?>
<!-- Generator: Adobe Illustrator 19.0.0, SVG Export Plug-In . SVG Version: 6.00 Build 0)  -->
<svg xmlns="http://www.w3.org/2000/svg" xmlns:xlink="http://www.w3.org/1999/xlink" version="1.1" id="Capa_1" x="0px" y="0px" viewBox="0 0 512 512" style="enable-background:new 0 0 512 512;" xml:space="preserve">
<g transform="matrix(1.25 0 0 -1.25 0 45)">
	<g>
		<g>
			<path style="fill:#FFCC00;" d="M409.6-271.2c0-25.134-20.378-45.511-45.511-45.511H45.511C20.378-316.711,0-296.334,0-271.2     v204.8c0,25.134,20.378,45.511,45.511,45.511h318.578c25.134,0,45.511-20.378,45.511-45.511V-271.2z"/>
			<path style="fill:#EEEEEE;" d="M45.511-20.889C20.378-20.889,0-41.266,0-66.4v-204.8c0-25.134,20.378-45.511,45.511-45.511     h91.022v295.822H45.511z"/>
			<path style="fill:#0868A9;" d="M273.067-316.711H136.533v295.822h136.533V-316.711z"/>
			<g>
				<path style="fill:#C09B5A;" d="M239.161-149.458c-3.163,3.3-6.986,0-8.67,1.001c-1.65,1.001-3.823,1.752-3.652-1.752      c0.171-3.504,2.833-5.12,4.335-6.292c1.502-1.161,0.66-4.642,0.66-4.642s-2.492,2.844-3.493,4.676      c-1.001,1.832-1.832,3.504-3.664,3.504c-1.843,0-3.675-2.492-2.503-3.493c1.161-1.001,5.336-2.002,5.336-4.665      c0-2.674,1.661-5.336,1.661-5.336l-0.501-1.832c0,0-1.661,0.831-2.162,1.832c-0.501,1.001,0.501,4.164-1.832,4.164      c-2.344,0-3.004-5.166-1.502-5.996c1.502-0.831,5.825-5.666,5.825-5.666s1.832-3.493,4.665-5.166      c2.833-1.65,6.508-5.336,6.508-5.336s-4.836-3.493-5.166-5.666c-0.341-2.15,1.661-2.981,1.49-4.836      c-0.171-1.82-2.332-0.887-4.164-1.889c-1.843-0.99,0.034-3.55,0.034-3.55h5.006l2.469,4.608v3.345l5.268,1.172      c0,0-0.478-2.002,0.523-3.174c1.001-1.172,4.847-2.833,4.847-5.666s-1.49-2.924-3.163-3.083      c-1.661-0.182-2.492-2.116-2.492-2.116h6.508c0,0,1.82,4.267,2.833,6.258c0.99,2.014,0.33,3.391-0.842,3.903      c-1.161,0.501-2.321,3.095-1.991,5.268c0,0,2.321-1.866,4.995-1.365c2.662,0.501,4.995,2.742,5.166,5.564      c0.159,2.844,0,5.632-2.662,6.622c-2.674,0.99-2.162-1.866-1.172-2.685c1.001-0.842,1.001-4.517-0.33-5.348      c-1.343-0.842-3.493-1.843-4.176,0.489c-0.66,2.332-2.116,5.985-4.949,6.986c-2.833,1.001-6.702,7.339-6.531,11.833      C241.835-163.282,243.007-153.451,239.161-149.458"/>
				<path style="fill:#C09B5A;" d="M170.212-149.458c3.163,3.3,6.997,0,8.658,1.001c1.673,1.001,3.834,1.752,3.664-1.752      c-0.159-3.504-2.833-5.12-4.324-6.292c-1.502-1.161-0.671-4.642-0.671-4.642s2.503,2.844,3.504,4.676      c1.001,1.832,1.832,3.504,3.664,3.504s3.664-2.492,2.503-3.493c-1.172-1.001-5.336-2.002-5.336-4.665      c0-2.674-1.673-5.336-1.673-5.336l0.512-1.832c0,0,1.661,0.831,2.162,1.832c0.501,1.001-0.501,4.164,1.832,4.164      s3.004-5.166,1.502-5.996c-1.502-0.831-5.837-5.666-5.837-5.666s-1.832-3.493-4.665-5.166c-2.833-1.65-6.497-5.336-6.497-5.336      s4.836-3.493,5.166-5.666c0.33-2.15-1.661-2.981-1.502-4.836c0.171-1.82,2.332-0.887,4.176-1.889      c1.82-0.99,1.343-3.482,1.343-3.482h-5.018l-3.834,4.54v3.345l-5.188,1.172c0,0,0.432-2.002-0.569-3.174      c-1.001-1.172-4.87-2.833-4.87-5.666s1.479-2.924,3.152-3.083c1.673-0.182,2.48-2.116,2.48-2.116h-6.497      c0,0-1.832,4.267-2.833,6.258c-1.001,2.014-0.341,3.391,0.831,3.903c1.161,0.501,2.332,3.095,2.002,5.268      c0,0-2.332-1.866-4.995-1.365c-2.674,0.501-5.006,2.742-5.166,5.564c-0.171,2.844,0,5.632,2.651,6.622      c2.674,0.99,2.173-1.866,1.172-2.685c-0.99-0.842-0.99-4.517,0.33-5.348c1.331-0.842,3.504-1.843,4.176,0.489      c0.671,2.332,2.116,5.985,4.949,6.986c2.833,1.001,6.702,7.339,6.542,11.833C167.538-163.282,166.377-153.451,170.212-149.458"/>
			</g>
			<path style="fill:#8C8D8F;" d="M241.55-160.21c-2.423-0.41-6.315-0.102-9.159,0.08c-1.001,0.068-1.388-2.833-0.66-2.992     c2.23-0.523,8.112-0.865,9.956,0.205C242.369-162.519,242.642-160.039,241.55-160.21"/>
			<path d="M229.604-147.967c0,0-0.978-1.49-2.719-1.752c0,0-0.193,1.411,0.819,1.957     C228.727-147.216,229.604-147.967,229.604-147.967"/>
			<path d="M233.586-150.459c-1.456,0.296-2.583-0.58-1.172-1.081C233.836-152.041,234.496-150.641,233.586-150.459"/>
			<path d="M239.844-153.884c0,0-0.171-5.325-3.072-5.245c-2.924,0.08-1.764,4.574,0,6.497c0,0-2.105-5.348-0.182-5.507     C238.512-158.287,239.844-153.884,239.844-153.884"/>
			<path style="fill:#8C8D8F;" d="M167.868-160.21c2.423-0.41,6.315-0.102,9.17,0.08c1.001,0.068,1.377-2.833,0.66-2.992     c-2.23-0.523-8.112-0.865-9.956,0.205C167.049-162.519,166.787-160.039,167.868-160.21"/>
			<path d="M179.826-147.967c0,0,0.967-1.49,2.719-1.752c0,0,0.193,1.411-0.819,1.957     C180.713-147.216,179.826-147.967,179.826-147.967"/>
			<path d="M175.787-150.459c1.468,0.296,2.583-0.58,1.172-1.081C175.548-152.041,174.876-150.641,175.787-150.459"/>
			<path d="M169.54-153.884c0,0,0.171-5.325,3.083-5.245c2.913,0.08,1.752,4.574,0,6.497c0,0,2.094-5.348,0.171-5.507     C170.86-158.287,169.54-153.884,169.54-153.884"/>
			<path style="fill:#EBD11B;" d="M204.777-129.717v-28.342h-11.048c0,0-3.584,8.909-4.255,9.637     c-0.66,0.717-3.777,2.583-3.777,6.679c0,4.119,5.2,7.68,10.604,5.518c0,0,3.379,3.231,7.009,2.412l0.785,0.523l-0.068,3.573     H204.777z"/>
			<g>
				<path style="fill:#BE1827;" d="M202.695-139.798v-2.662l-1.855-2.071c0,0-1.798-0.159-2.617,0.455      c-0.831,0.626-1.547,2.116-1.547,2.116s1.9,1.286,3.004,1.604C200.795-140.048,202.695-139.798,202.695-139.798"/>
				<path style="fill:#BE1827;" d="M196.005-142.836c0,0-0.307-2.162-1.911-2.731c-1.593-0.569-3.186-0.307-3.186-0.307      s0.41,1.126,1.741,2.059C194.002-142.893,196.005-142.836,196.005-142.836"/>
			</g>
			<g>
				<path style="fill:#0868A9;" d="M199.191-137.477c1.661,0.398,3.504,0,3.504,0s-0.046-2.344-2.219-2.697      c-2.162-0.341-3.038,0.637-3.038,0.637S197.894-137.784,199.191-137.477"/>
				<path style="fill:#0868A9;" d="M188.928-141.96c-0.592,2.856,3.322,3.891,5.279,1.718c0,0,0.387-2.947-1.923-3.846      C189.986-144.998,189.156-143.086,188.928-141.96"/>
				<path style="fill:#0868A9;" d="M194.219-138c0.501,1.092,2.697,0.091,2.037-1.081C195.584-140.265,193.365-139.855,194.219-138"/>
				<path style="fill:#0868A9;" d="M194.674-140.777c1.035,1.081,2.583-1.07,1.308-1.65      C194.708-142.995,193.889-141.596,194.674-140.777"/>
			</g>
			<path style="fill:#EBD11B;" d="M204.777-129.717v-28.342h11.196c0,0,3.595,8.909,4.267,9.637c0.66,0.717,3.777,2.583,3.777,6.679     c0,4.119-5.2,7.68-10.615,5.518c0,0-3.368,3.231-6.997,2.412l-0.785,0.523l0.068,3.573H204.777z"/>
			<g>
				<path style="fill:#BE1827;" d="M206.734-139.798v-2.662l2.014-2.071c0,0,1.889-0.159,2.708,0.455      c0.831,0.626,1.593,2.116,1.593,2.116s-2.048,1.286-3.163,1.604C208.782-140.048,206.734-139.798,206.734-139.798"/>
				<path style="fill:#BE1827;" d="M213.72-142.836c0,0,0.307-2.162,1.9-2.731c1.604-0.569,3.197-0.307,3.197-0.307      s-0.41,1.126-1.752,2.059C215.734-142.893,213.72-142.836,213.72-142.836"/>
			</g>
			<g>
				<path style="fill:#0868A9;" d="M210.523-137.477c-1.65,0.398-3.493,0-3.493,0s0.034-2.344,2.207-2.697      c2.162-0.341,3.038,0.637,3.038,0.637S211.82-137.784,210.523-137.477"/>
				<path style="fill:#0868A9;" d="M220.797-141.96c0.592,2.856-3.322,3.891-5.279,1.718c0,0-0.387-2.947,1.923-3.846      C219.739-144.998,220.558-143.086,220.797-141.96"/>
				<path style="fill:#0868A9;" d="M215.495-138c-0.501,1.092-2.697,0.091-2.037-1.081C214.13-140.265,216.36-139.855,215.495-138"/>
				<path style="fill:#0868A9;" d="M215.017-140.777c-1.024,1.081-2.583-1.07-1.297-1.65      C214.995-142.995,215.814-141.596,215.017-140.777"/>
			</g>
			<path style="fill:#BE1827;" d="M193.764-156.512c0,2.116,4.904,3.834,10.957,3.834s10.957-1.718,10.957-3.834     c0-2.116-4.904-3.834-10.957-3.834S193.764-158.628,193.764-156.512"/>
			<path style="fill:#020202;" d="M204.777-155.716h-21.322v-34.862c0-13.733,21.333-13.733,21.333-13.733s21.106,0,21.106,13.733     v34.862H204.777z"/>
			<g transform="translate(17.998 18.943)">
				<path style="fill:#4C86C7;" d="M186.779-177.014v-43.713c0,0-18.898-0.171-18.898,11.162v32.552H186.779z"/>
				<path style="fill:#4C86C7;" d="M186.779-177.014v-43.713c0,0,18.898-0.171,18.898,11.162v32.552H186.779z"/>
			</g>
			<g transform="translate(17.998 21.789)">
				<path style="fill:#A5A7A9;" d="M186.779-147.479v8.545c0,0-7.475-0.205-12.379-0.762c-6.315-0.751-9.682-2.89-7.68-6.451      c0,0-2.105-2.002-4.892-2.56c-2.788-0.546-7.225,0-7.225,0s2.241-3.777,4.995-4.767c0,0-0.785-2.56-4.233-3.106      c0,0,7.225-1.229,12.447,0.99c5.222,2.219,8.101,4.107,8.875,4.892c0.785,0.774-2.059,2.549,0.057,2.776      C178.849-147.706,186.779-147.479,186.779-147.479"/>
				<path style="fill:#A5A7A9;" d="M186.779-147.479v8.545c0,0,7.339-0.205,12.242-0.762c6.315-0.751,9.614-2.89,7.612-6.451      c0,0,2.059-2.002,4.847-2.56c2.799-0.546,7.225,0,7.225,0s-2.253-3.777-5.006-4.767c0,0,0.774-2.56,4.221-3.106      c0,0-7.214-1.229-12.436,0.99c-5.222,2.219-8.112,4.107-8.886,4.892c-0.785,0.774,2.196,2.549,0.091,2.776      C194.573-147.706,186.779-147.479,186.779-147.479"/>
			</g>
			<g transform="translate(18.557 15.453)">
				<path id="SVGCleanerId_0" style="fill:#FFFFFF;" d="M211.137-197.779h-12.88l6.44,6.44L211.137-197.779z"/>
			</g>
			<g transform="translate(17.737 17.327)">
				<path id="SVGCleanerId_0_1_" style="fill:#FFFFFF;" d="M201.808-176.457h-12.88l6.44,6.44L201.808-176.457z"/>
			</g>
			<path style="fill:#FFFFFF;" d="M201.808-166.456h-12.88l6.44,6.451L201.808-166.456z"/>
			<g transform="translate(17.737 16.391)">
				<path id="SVGCleanerId_0_2_" style="fill:#FFFFFF;" d="M201.808-187.107h-12.88l6.44,6.44L201.808-187.107z"/>
			</g>
			<g transform="translate(19.318 17.327)">
				<path id="SVGCleanerId_0_3_" style="fill:#FFFFFF;" d="M219.796-176.457h-12.88l6.44,6.44L219.796-176.457z"/>
			</g>
			<path style="fill:#FFFFFF;" d="M219.796-166.456h-12.88l6.44,6.451L219.796-166.456z"/>
			<g transform="translate(19.318 16.391)">
				<path id="SVGCleanerId_0_4_" style="fill:#FFFFFF;" d="M219.796-187.107h-12.88l6.44,6.44L219.796-187.107z"/>
			</g>
		</g>
	</g>
</g>
<g>
</g>
<g>
</g>
<g>
</g>
<g>
</g>
<g>
</g>
<g>
</g>
<g>
</g>
<g>
</g>
<g>
</g>
<g>
</g>
<g>
</g>
<g>
</g>
<g>
</g>
<g>
</g>
<g>
</g>
</svg>
