<?xml version="1.0" encoding="iso-8859-1"?>
<!-- Generator: Adobe Illustrator 19.0.0, SVG Export Plug-In . SVG Version: 6.00 Build 0)  -->
<svg xmlns="http://www.w3.org/2000/svg" xmlns:xlink="http://www.w3.org/1999/xlink" version="1.1" id="Capa_1" x="0px" y="0px" viewBox="0 0 512 512" style="enable-background:new 0 0 512 512;" xml:space="preserve">
<g transform="matrix(1.25 0 0 -1.25 0 45)">
	<g>
		<g>
			<path style="fill:#D21C33;" d="M409.6-271.2c0-25.134-20.378-45.511-45.511-45.511H45.511C20.378-316.711,0-296.334,0-271.2     v204.8c0,25.134,20.378,45.511,45.511,45.511h318.578c25.134,0,45.511-20.378,45.511-45.511V-271.2z"/>
			<path style="fill:#00209F;" d="M364.089-20.889H45.511C20.378-20.889,0-41.266,0-66.4v-102.4h409.6v102.4     C409.6-41.266,389.222-20.889,364.089-20.889"/>
			<path style="fill:#FFFFFF;" d="M271.997-225.689H136.533v113.311h135.464V-225.689z"/>
			<path style="fill:#006A16;" d="M271.997-210.01c-17.055,8.658-40.152,14.074-67.14,14.074c-26.965,0-51.268-5.416-68.324-14.074     v-15.679h135.464V-210.01z"/>
			<path style="fill:#00209F;" d="M176.617-154.236l13.255-14.916l-1.661-9.353l-2.867,1.616l-2.571-9.762h-0.683l-1.217-5.143     l-22.505,1.9l0.535,16.065l5.427-1.559l0.66,14.985l7.885-5.359l0.41,9.091L176.617-154.236z"/>
			<g>
				<path style="fill:#D21C33;" d="M204.914-183.386v-22.778l-17.078,5.018l-4.335,6.372l-2.981,2.173l1.627,5.757l2.571,9.967      h3.925l0.967,8.408L204.914-183.386z"/>
				<path style="fill:#D21C33;" d="M155.785-173.078c2.037,2.435,5.837,0.808,5.962,0c0.137-0.819-1.49-0.683-2.981-2.037      s-1.081-5.552-3.664-5.018C152.531-179.586,155.785-173.078,155.785-173.078"/>
				<path style="fill:#D21C33;" d="M164.989-160.392c2.628,1.775,5.837-0.842,5.734-1.65c-0.091-0.831-1.616-0.25-3.425-1.138      s-2.583-5.029-4.915-3.8C160.063-165.739,164.989-160.392,164.989-160.392"/>
				<path style="fill:#D21C33;" d="M175.844-152.632c2.833,1.422,5.678-1.593,5.473-2.389c-0.205-0.796-2.196,0.614-4.096-0.023      c-1.911-0.649-2.674-5.302-4.813-3.777C170.268-157.297,175.844-152.632,175.844-152.632"/>
			</g>
			<g>
				<path style="fill:#F1B517;" d="M170.041-146.306l8.795-5.359l-0.956-2.571l23.734-26.294v-2.037l-24.667,27.659l-3.231,0.535      L170.041-146.306z"/>
				<path style="fill:#F1B517;" d="M157.412-154.236c0,0,8.818-3.391,8.818-3.8c0-0.41,1.616-3.118,1.616-3.118l32.142-26.032      l-0.944-1.217l-31.869,26.032l-4.608,2.025L157.412-154.236z"/>
				<path style="fill:#F1B517;" d="M148.025-167.548c0,0,10.172-1.422,10.308-1.832c0.125-0.41,0.819-2.708,0.819-2.708      l37.274-20.332l-1.627-0.956l-36.341,20.07l-4.198,0.273L148.025-167.548z"/>
				<path style="fill:#F1B517;" d="M156.877-186.913l38.309-4.676l-3.63-4.369l-5.678-0.569l4.233-5.7l-2.037-2.31l-5.7,6.235      c0,0-1.775-9.079-9.5-9.079s-10.16,7.726-10.16,10.297c0,2.583,0.671,3.925,0.671,3.925h-7.327L156.877-186.913z"/>
			</g>
			<path style="fill:#00209F;" d="M232.619-153.417l-13.858-16.407l0.58-9.489l3.561,2.435l2.571-9.762h0.683l1.217-5.143     l22.505,1.9l-0.546,16.054l-5.427-1.547l-0.66,14.985l-7.885-5.359l-0.41,9.079L232.619-153.417z"/>
			<g>
				<path style="fill:#D21C33;" d="M204.914-183.386v-22.778l16.338,5.018l3.971,6.372l2.799,2.173l-1.729,5.757l-2.662,9.967      l-3.038-2.253l-1.035,9.296L204.914-183.386z"/>
				<path style="fill:#D21C33;" d="M252.473-173.078c-2.048,2.435-5.848,0.808-5.973,0c-0.137-0.819,1.49-0.683,2.981-2.037      s1.092-5.552,3.664-5.018C255.716-179.586,252.473-173.078,252.473-173.078"/>
				<path style="fill:#D21C33;" d="M243.246-160.392c-2.617,1.775-5.825-0.842-5.734-1.65c0.102-0.831,1.627-0.25,3.436-1.138      s2.571-5.029,4.904-3.8C248.183-165.739,243.246-160.392,243.246-160.392"/>
				<path style="fill:#D21C33;" d="M232.402-152.632c-2.844,1.422-5.666-1.593-5.461-2.389c0.193-0.796,2.185,0.614,4.085-0.023      c1.911-0.649,2.674-5.302,4.824-3.777C237.989-157.297,232.402-152.632,232.402-152.632"/>
			</g>
			<g>
				<path style="fill:#F1B517;" d="M238.205-146.306l-8.784-5.359l1.695-2.571l-22.994-26.294v-2.037l23.927,27.659l2.856,0.535      L238.205-146.306z"/>
				<path style="fill:#F1B517;" d="M250.766-154.236c0,0-8.806-3.391-8.806-3.8c0-0.41-1.638-3.118-1.638-3.118l-32.131-26.032      l0.956-1.217l31.869,26.032l4.597,2.025L250.766-154.236z"/>
				<path style="fill:#F1B517;" d="M260.176-167.548c0,0-10.172-1.422-10.297-1.832c-0.148-0.41-0.819-2.708-0.819-2.708      l-37.285-20.332l1.627-0.956l36.329,20.07l4.21,0.273L260.176-167.548z"/>
				<path style="fill:#F1B517;" d="M251.335-186.913l-38.298-4.676l3.63-4.369l5.666-0.569l-4.244-5.7l2.059-2.31l5.7,6.235      c0,0,1.764-9.079,9.489-9.079s10.16,7.726,10.16,10.297c0,2.583-0.66,3.925-0.66,3.925h7.305L251.335-186.913z"/>
			</g>
			<path style="fill:#FFFFFF;" d="M260.096-215.927c0,0-6.713-0.239-13.756,1.286c-7.043,1.536-8.26,4.289-11.321,3.686     c-3.061-0.614-10.16-3.254-15.974-3.994c-5.825-0.74-14.188-0.978-14.188-0.978s-7.691,0.239-13.528,0.978     c-5.814,0.74-12.254,3.379-15.314,3.994c-3.072,0.603-4.289-2.15-11.344-3.686c-7.043-1.525-13.79-1.286-13.79-1.286l1.832-3.254     l-1.832-1.593c15.94-0.296,23.302,4.847,23.302,4.847c7.964-5.279,30.674-5.427,30.674-5.427s23.393,0.148,31.357,5.427     c0,0,7.691-5.143,23.632-4.847l-1.684,1.593L260.096-215.927z"/>
			<path style="fill:#F1B517;" d="M208.122-167.548c0-16.953-1.479-30.709-3.322-30.709c-1.832,0-3.322,13.756-3.322,30.709     c0,16.964,1.49,30.709,3.322,30.709C206.643-136.84,208.122-150.584,208.122-167.548"/>
			<path style="fill:#D21C33;" d="M211.376-209.419H198.36v13.028h13.016V-209.419z"/>
			<path style="fill:#FFFFFF;" d="M212.184-195.583c0-1.502-3.118-2.708-6.986-2.708c-3.857,0-6.975,1.206-6.975,2.708     s3.118,2.708,6.975,2.708C209.067-192.875,212.184-194.081,212.184-195.583"/>
			<path style="fill:#D21C33;" d="M212.184-208.599c0-1.502-3.118-2.708-6.986-2.708c-3.857,0-6.975,1.206-6.975,2.708     s3.118,2.708,6.975,2.708C209.067-205.892,212.184-207.098,212.184-208.599"/>
			<path style="fill:#006A16;" d="M233.404-131.185c-2.605,3.118-9.307,2.981-13.858,3.118c-4.54,0.137-6.827-1.49-4.801,0.683     c2.037,2.162,5.177,1.616,8.488,1.752c3.322,0.137,3.903,0.535,1.866,1.616c-2.025,1.092-5.609,2.423-10.342,1.206     c-4.665-1.195-7.589-4.096-10.069-4.597c-2.48,0.501-5.587,3.402-10.229,4.597c-4.756,1.217-8.42-0.114-10.456-1.206     c-2.037-1.081-1.49-1.479,1.832-1.616c3.311-0.137,6.428,0.41,8.465-1.752c2.037-2.173-0.273-0.546-4.813-0.683     s-11.253,0-13.87-3.118c-2.605-3.118,2.276-1.081,4.858-0.671c2.571,0.41,6.372,0.535,6.372,0.535s-6.372-1.889-8.135-4.335     c-1.764-2.435,0.535-4.608,3.789-2.708c3.265,1.9,8.272,4.471,10.991,4.745c0,0-7.054-2.935-10.172-5.473     c-3.118-2.526,0.148-2.264,2.503-2.264c2.378,0,4.813,0.956,6.838,2.446c2.048,1.49-1.343-2.981-1.889-5.825     c-0.535-2.844,3.664-2.173,4.415,0c0.74,2.173,3.174,6.508,3.174,6.508s-1.07-6.235-0.944-10.445     c0.137-4.198,1.525-4.471,2.606-2.571c1.092,1.889,4.847-1.126,4.847-1.126s3.413,3.015,4.483,1.126     c1.092-1.9,2.128-1.627,2.253,2.571c0.137,4.21-0.944,10.445-0.944,10.445s2.446-4.335,3.186-6.508     c0.751-2.173,4.949-2.844,4.403,0c-0.535,2.844-3.925,7.316-1.889,5.825s4.471-2.446,6.827-2.446     c2.378,0,5.643-0.262,2.526,2.264c-3.118,2.537-10.172,5.473-10.172,5.473c2.719-0.273,7.726-2.844,10.98-4.745     c3.265-1.9,5.564,0.273,3.8,2.708c-1.775,2.446-8.135,4.335-8.135,4.335s3.8-0.125,6.372-0.535     C231.14-132.266,236.009-134.303,233.404-131.185"/>
		</g>
	</g>
</g>
<g>
</g>
<g>
</g>
<g>
</g>
<g>
</g>
<g>
</g>
<g>
</g>
<g>
</g>
<g>
</g>
<g>
</g>
<g>
</g>
<g>
</g>
<g>
</g>
<g>
</g>
<g>
</g>
<g>
</g>
</svg>
