<?xml version="1.0" encoding="iso-8859-1"?>
<!-- Generator: Adobe Illustrator 19.0.0, SVG Export Plug-In . SVG Version: 6.00 Build 0)  -->
<svg xmlns="http://www.w3.org/2000/svg" xmlns:xlink="http://www.w3.org/1999/xlink" version="1.1" id="Capa_1" x="0px" y="0px" viewBox="0 0 512 512" style="enable-background:new 0 0 512 512;" xml:space="preserve">
<g>
	<rect y="199.111" style="fill:#0156A3;" width="512" height="113.778"/>
	<path style="fill:#0156A3;" d="M455.111,71.111H56.889C25.472,71.111,0,96.583,0,128v71.111h512V128   C512,96.583,486.528,71.111,455.111,71.111z"/>
	<path style="fill:#0156A3;" d="M0,384c0,31.417,25.472,56.889,56.889,56.889h398.222C486.528,440.889,512,415.417,512,384v-71.111   H0V384z"/>
</g>
<rect y="199.111" style="fill:#EEEEEE;" width="512" height="113.778"/>
<g>
	<path style="fill:#2657A7;" d="M259.764,252.583l-3.541-10.894l-3.541,10.894h-11.463l9.273,6.741l-3.541,10.894l9.273-6.727   l9.273,6.727l-3.541-10.894l9.273-6.741L259.764,252.583L259.764,252.583z"/>
	<path style="fill:#2657A7;" d="M335.603,287.861l-3.541,10.894l9.273-6.741l9.273,6.741l-3.541-10.894l9.273-6.741h-11.463   l-3.541-10.894l-3.541,10.894h-11.463L335.603,287.861z"/>
	<path style="fill:#2657A7;" d="M344.876,224.139l-3.541-10.894l-3.541,10.894H326.33l9.273,6.741l-3.541,10.894l9.273-6.727   l9.273,6.727l-3.541-10.894l9.273-6.741L344.876,224.139L344.876,224.139z"/>
	<path style="fill:#2657A7;" d="M164.153,287.861l-3.541,10.894l9.273-6.741l9.273,6.741l-3.541-10.894l9.273-6.741h-11.463   l-3.541-10.894l-3.541,10.894H154.88L164.153,287.861z"/>
	<path style="fill:#2657A7;" d="M173.423,224.139l-3.541-10.894l-3.541,10.894h-11.463l9.273,6.741l-3.541,10.894l9.273-6.727   l9.273,6.727l-3.541-10.894l9.273-6.741L173.423,224.139L173.423,224.139z"/>
</g>
<g>
</g>
<g>
</g>
<g>
</g>
<g>
</g>
<g>
</g>
<g>
</g>
<g>
</g>
<g>
</g>
<g>
</g>
<g>
</g>
<g>
</g>
<g>
</g>
<g>
</g>
<g>
</g>
<g>
</g>
</svg>
