<?xml version="1.0" encoding="iso-8859-1"?>
<!-- Generator: Adobe Illustrator 19.0.0, SVG Export Plug-In . SVG Version: 6.00 Build 0)  -->
<svg xmlns="http://www.w3.org/2000/svg" xmlns:xlink="http://www.w3.org/1999/xlink" version="1.1" id="Capa_1" x="0px" y="0px" viewBox="0 0 512 512" style="enable-background:new 0 0 512 512;" xml:space="preserve">
<g transform="matrix(1.25 0 0 -1.25 0 45)">
	<g>
		<g>
			<path style="fill:#FCD116;" d="M364.089-20.889H170.667V-168.8H409.6v102.4C409.6-41.266,389.222-20.889,364.089-20.889"/>
			<path style="fill:#009E49;" d="M170.667-316.711h193.422c25.134,0,45.511,20.378,45.511,45.511v102.4H170.667V-316.711z"/>
			<path style="fill:#CE1126;" d="M113.778-214.311l-28.979,21.06l-28.979-21.06l11.071,34.065l-28.979,21.06h35.817l11.071,34.065     l11.071-34.065h35.817l-28.979-21.06L113.778-214.311z M170.667-20.889H45.511C20.378-20.889,0-41.266,0-66.4v-102.4v-102.4     c0-25.134,20.378-45.511,45.511-45.511h125.156V-168.8V-20.889z"/>
			<path d="M95.869-159.186l-11.071,34.065l-11.071-34.065H37.911l28.979-21.06l-11.071-34.065l28.979,21.06l28.979-21.06     l-11.071,34.065l28.979,21.06H95.869z"/>
		</g>
	</g>
</g>
<g>
</g>
<g>
</g>
<g>
</g>
<g>
</g>
<g>
</g>
<g>
</g>
<g>
</g>
<g>
</g>
<g>
</g>
<g>
</g>
<g>
</g>
<g>
</g>
<g>
</g>
<g>
</g>
<g>
</g>
</svg>
