<?xml version="1.0" encoding="iso-8859-1"?>
<!-- Generator: Adobe Illustrator 19.0.0, SVG Export Plug-In . SVG Version: 6.00 Build 0)  -->
<svg xmlns="http://www.w3.org/2000/svg" xmlns:xlink="http://www.w3.org/1999/xlink" version="1.1" id="Capa_1" x="0px" y="0px" viewBox="0 0 512 512" style="enable-background:new 0 0 512 512;" xml:space="preserve">
<g transform="matrix(1.25 0 0 -1.25 0 45)">
	<g>
		<g>
			<path style="fill:#DD2E44;" d="M409.6-271.2c0-25.134-20.378-45.511-45.511-45.511H45.511C20.378-316.711,0-296.334,0-271.2     v204.8c0,25.134,20.378,45.511,45.511,45.511h318.578c25.134,0,45.511-20.378,45.511-45.511V-271.2z"/>
			<path style="fill:#00297B;" d="M398.222-271.2c0-18.853-15.28-34.133-34.133-34.133H45.511c-18.853,0-34.133,15.28-34.133,34.133     v204.8c0,18.853,15.28,34.133,34.133,34.133h318.578c18.853,0,34.133-15.28,34.133-34.133V-271.2z"/>
			<path style="fill:#DD2E44;" d="M199.327-266.933c30.401,25.259,64.046,54.556,64.046,95.96c0,41.415-33.644,70.713-64.046,95.972     c-30.413-25.259-64.057-54.556-64.057-95.972C135.27-212.377,168.914-241.675,199.327-266.933"/>
			<path style="fill:#017BDD;" d="M144.805-187.3c6.997-29.138,31.79-51.166,54.522-70.565     c22.744,19.399,47.548,41.426,54.522,70.565H144.805z"/>
			<path style="fill:#66AFEB;" d="M253.85-187.3c1.263,5.2,1.957,10.65,1.957,16.327c0,37.501-29.673,64.034-56.479,86.903     c-26.795-22.869-56.457-49.402-56.457-86.903c0-5.678,0.683-11.127,1.934-16.327H253.85z"/>
			<path style="fill:#9C8431;" d="M255.579-176.355c-0.284-3.766-0.865-7.407-1.729-10.945h-65.525     c0.808,2.185,1.946,5.552,2.913,8.09C209.681-181.748,238.717-181.065,255.579-176.355"/>
			<g>
				<path style="fill:#FFF100;" d="M169.961-230.502c-5.018,5.45-9.648,11.173-13.608,17.237      c10.308-0.466,30.447-2.617,38.446-9.557c1.946-1.684,1.946-2.526-0.478-2.196C189.463-224.346,176.492-227.066,169.961-230.502      "/>
				<path style="fill:#FFF100;" d="M247.91-203.502c-10.604-21.39-30.265-38.73-48.583-54.363      c-5.7,4.858-11.526,9.887-17.169,15.144c7.782,12.322,29.468,4.745,29.468,15.69c0,5.723-5.495,10.729-13.266,11.287      c-2.423,0.159-3.015,0.262-1.138,1.673c8.897,6.724,17.954-0.501,33.155,6.394C241.448-202.66,246.511-203.036,247.91-203.502"/>
			</g>
			<path style="fill:#029270;" d="M210.978-128.409c-0.205,0.25-0.444,0.956-0.523,1.126c0.478-0.421,2.594-0.967,3.356-1.092     c-0.319,0.205-0.887,1.047-1.092,1.217c0.603-0.25,2.867-1.047,3.356-0.808c-0.398,0.421-1.547,1.604-2.014,1.946     c0.842-0.296,2.856-1.434,3.391-1.434c-0.114,0.455-0.296,1.172-0.558,1.775c0.717-0.512,2.048-1.104,2.731-1.354     c-0.068,0.546-0.239,1.434-0.466,1.934c0.717-0.501,2.025-1.513,2.89-1.855c-0.216,0.341-0.148,1.434-0.558,1.946     c0.558-0.421,2.276-1.775,3.004-2.025c-0.421,0.501-0.489,1.513-0.819,1.934c0.489-0.421,2.105-1.183,2.844-1.684     c-0.182,0.341-0.489,1.104-0.831,1.604c0.489-0.501,2.674-1.775,3.322-2.276c-0.159,0.501-0.489,1.604-0.717,2.025     c0.956-0.341,3.47-1.855,4.289-2.196c-2.913,5.825-15.997,7.782-23.472,5.416c1.183,0.58,1.82,1.741,4.062,2.287     c-0.546,0.171-1.957,0.887-2.105,1.138c0.717-0.171,3.391,0.341,3.948,0.421c-0.489,0.421-1.377,1.092-1.775,1.513     c1.058-0.08,3.561,0.171,4.301,0.421c-0.421,0.171-1.32,0.512-1.798,0.762c0.728-0.091,2.435-0.25,3.152-0.091     c-0.466,0.421-1.286,1.434-1.934,1.855c1.047-0.25,3.152-0.25,4.528-0.08c-0.637,0.421-1.525,0.842-2.105,1.183     c0.66-0.091,3.402,0.671,4.13,0.842c-0.398,0.41-1.468,0.66-2.105,0.922c1.126,0.08,2.992,1.172,3.55,1.684     c-9.011-0.137-16.498-4.517-20.4-10.945c0.114,2.082-0.58,4.642-0.683,6.121c-0.353-0.432-0.922-1.172-1.126-1.411     c0.341,1.149,0.33,4.244,0.148,5.177c-0.205-0.603-0.762-1.513-1.013-1.98c0.091,1.104-0.216,4.187-0.558,5.393     c-0.25-0.626-0.887-1.502-1.149-1.98c0.205,1.399-0.683,4.995-1.115,6.372c0.011-0.66-0.603-2.276-0.796-2.685     c-0.023,1.252-1.035,5.279-1.513,6.133c0.205-0.671-0.159-2.446-0.182-3.072c-0.307,0.887-1.525,3.209-1.946,3.88     c0.148-0.478,0.011-1.388,0.011-1.877c-0.717,1.013-2.583,2.901-3.413,3.504c0.728-1.115,1.354-2.867,1.752-3.63     c-0.228,0.125-0.774,0.364-1.058,0.41c0.637-0.762,1.843-2.879,2.287-3.63c-0.398,0.125-1.229,0.193-1.638,0.193     c0.842-0.66,2.514-2.537,3.083-3.311c-0.364,0.159-1.49,0.091-1.786-0.046c0.74-0.387,2.435-1.946,2.935-2.651     c-0.387,0.273-1.354,0.512-1.741,0.478c0.853-0.887,2.105-2.469,2.662-3.072c-0.489,0.296-2.082,0.728-2.628,0.671     c0.66-0.649,2.628-2.742,3.14-3.447c-0.501,0.182-1.661,0.011-2.071,0.011c0.74-0.683,2.674-2.89,3.14-3.447     c-0.466,0.262-1.752,0.466-2.196,0.512c0.842-0.956,2.059-2.867,2.606-3.664c-0.444,0.023-1.399,0.159-1.764,0.319     c-4.221,6.975-11.844,11.275-17.135,11.674c0.728-0.341,3.231-1.946,4.039-2.776c-0.569,0-1.377,0.171-1.855,0.171     c0.887-0.762,2.742-1.855,3.47-2.196c-0.239,0-1.297,0-1.616-0.205c0.728-0.728,2.674-1.274,3.925-2.196     c-0.489,0-1.297-0.08-1.775-0.08c1.081-0.421,2.981-1.775,3.63-2.742c-0.319,0.046-1.206,0.137-1.661,0.171     c1.058-0.592,2.514-1.638,3.163-2.321c-0.398,0.137-1.331,0.137-1.695,0.137c0.637-0.512,2.628-1.388,3.231-2.15     c-0.33,0.046-1.456,0.125-1.775,0.125c0.683-0.546,2.594-2.025,3.652-3.152c-12.334,5.951-27.341,3.265-35.282-7.703     c0.967,0.33,4.369,2.355,5.495,2.697c-0.489-0.592-0.33-1.354-0.637-1.946c0.967,0.592,2.503,1.855,3.641,2.617     c-0.25-0.421-0.41-1.343-0.808-2.105c0.808,0.501,3.311,2.185,4.517,3.197c-0.159-0.762-0.478-1.434-0.728-1.946     c1.297,0.762,3.721,2.446,4.54,3.038c-0.398-0.751-0.728-1.604-1.138-2.105c1.138,0.421,3.721,2.105,5.257,2.947     c-0.239-0.592-0.398-1.434-0.808-1.934c1.217,0.671,3.152,1.263,4.449,1.172c-0.25-0.421-0.649-1.172-1.138-1.502     c1.217,0.41,2.958,0.728,4.892,0.478c-8.34-2.753-16.68-11.742-16.452-17.658c0.774,1.343,2.31,3.152,3.277,4.039     c-0.205-0.626-0.08-1.638-0.046-2.23c0.398,1.263,1.263,2.776,2.025,4.13c-0.125-0.762,0.125-1.729,0.284-2.23     c0.398,1.206,1.866,3.698,2.503,4.71c-0.205-0.717,0.046-2.071,0.205-2.776c0.603,1.263,1.866,3.197,2.879,4.335     c-0.25-0.762-0.205-2.059-0.171-2.526c0.649,1.138,2.264,3.152,3.243,4.21c-0.296-0.887-0.296-2.241-0.33-2.867     c0.774,1.217,2.958,3.493,4.21,4.585c-0.364-0.796-0.489-2.094-0.603-2.651c0.922,1.013,3.641,2.697,4.642,2.992     c-1.616-1.138-3.311-4.039-4.278-5.427c0.478,0.08,1.286,0.25,1.57,0.296c-0.887-0.592-2.628-2.742-3.038-3.493     c0.489,0.284,1.377,0.58,1.832,0.751c-0.694-0.717-2.23-3.026-2.674-4.073c0.523,0.284,1.456,0.501,1.9,0.66     c-0.933-0.842-2.344-3.868-2.833-5.086c0.364,0.455,1.695,1.217,2.059,1.388c-0.683-0.887-2.264-4.289-2.423-5.177     c0.25,0.592,1.502,1.604,1.866,2.025c-0.284-0.808-0.774-3.163-0.853-3.88c0.159,0.421,0.762,0.967,1.047,1.308     c-0.08-1.138,0.125-3.584,0.364-4.506c0.125,1.217,0.694,2.822,0.853,3.584c0.08-0.216,0.33-0.717,0.478-0.933     c0,0.933,0.375,3.118,0.489,3.914c0.205-0.33,0.728-0.876,1.013-1.138c-0.205,0.978-0.284,3.288-0.239,4.164     c0.159-0.33,0.967-0.967,1.252-1.047c-0.284,0.717-0.558,2.822-0.523,3.618c0.114-0.421,0.649-1.172,0.933-1.388     c-0.08,1.138-0.046,2.992-0.08,3.743c0.148-0.501,1.001-1.764,1.411-2.059c-0.091,0.842-0.25,3.493-0.205,4.289     c0.25-0.421,1.138-1.001,1.411-1.263c-0.114,0.922-0.193,3.63-0.193,4.301c0.159-0.466,0.922-1.388,1.217-1.684     c-0.046,1.172,0.193,3.243,0.273,4.119c0.284-0.296,0.899-0.967,1.058-1.308c0.148,1.775,1.217,3.63,2.583,5.313     c1.456-1.525,2.719-4.881,2.947-5.177c0.171,0.375,0.364,1.172,0.535,1.343c0.034-0.842,0.398-3.026,0.478-3.618     c0.171,0.421,0.649,1.308,0.819,1.434c0-1.013,0.114-2.697,0.239-3.459c0.159,0.421,0.558,1.092,0.808,1.274     c-0.205-0.853-0.114-3.118,0-3.971c0.159,0.341,0.694,1.058,0.967,1.32c-0.25-0.762,0.569-3.459,0.649-4.642     c0.08,0.432,0.66,1.104,0.887,1.513c0-0.922,0.319-3.618,0.398-4.961c0.171,0.546,0.74,1.343,1.024,1.684     c-0.205-1.217,0.398-3.538,0.842-4.585c0.08,0.592,0.33,1.559,0.569,1.934c0.398-0.808,1.49-3.072,1.536-4.335     c0.489,1.217,0.41,3.709-0.159,5.257c0.364-0.296,0.728-0.501,0.967-0.58c-0.273,1.092-1.126,3.197-1.57,3.573     c0.41-0.216,1.001-0.501,1.252-0.717c-0.284,1.263-1.217,3.368-1.729,4.255c0.478-0.125,1.161-0.25,1.604-0.501     c-0.444,0.922-1.991,3.061-2.674,3.652c0.41-0.125,1.434-0.466,1.786-0.592c-0.444,0.762-2.514,2.571-3.766,3.379     c0.66,0.08,1.775,0.08,2.31,0.08c-0.762,0.967-2.583,2.276-3.721,2.856c0.364-0.046,1.331-0.25,1.809-0.375     c-0.307,0.922-2.094,2.697-2.947,3.447c0.74-0.375,3.083-1.547,3.8-2.31c0.171,0.592,0.046,1.98-0.193,2.56     c0.717-0.455,2.469-2.094,2.788-2.731c0.171,0.592,0.171,1.604,0.125,1.98c1.855-1.308,3.026-2.867,3.516-3.709     c0.08,0.592,0.114,1.98-0.046,2.697c0.569-0.501,1.911-2.059,2.196-2.731c0.023,0.546,0.114,1.422-0.046,1.889     c0.398-0.501,1.49-2.697,1.65-3.152c0.137,0.455,0.421,1.934,0.284,2.355c0.444-0.637,1.934-2.856,2.162-3.618     c0.148,0.671,0.444,1.718,0.398,2.105c0.489-0.717,1.377-3.288,1.445-4.005c0.193,0.341,0.592,2.071,0.535,2.697     c0.398-0.751,1.57-3.823,1.82-4.46c0.148,0.466,0.398,1.855,0.353,2.23c0.284-0.466,1.627-3.789,1.673-4.335     c0.193,0.501,0.307,1.775,0.262,2.196c0.182-0.762,1.172-2.788,2.469-4.21C231.868-136.726,220.251-129.82,210.978-128.409"/>
			<g>
				<path style="fill:#7B4800;" d="M180.838-200.851c-0.068,18.944,0.034,25.509-0.512,25.509c-0.546,0-0.455-6.565-0.512-25.509"/>
				<path style="fill:#7B4800;" d="M176.606-204.594c11.89,0,15.849,2.628,15.61,5.257c-5.666,0-7.202-1.343-15.61-1.343      c-8.42,0-9.956,1.343-15.622,1.343C160.745-201.966,164.705-204.594,176.606-204.594"/>
				<path style="fill:#7B4800;" d="M176.606-207.837c5.541,0,10.024,0.455,9.66,2.355c-0.501-0.182-1.479-0.319-2.367-0.353      l-0.284,1.798c-0.102,0.489-1.434,0.353-1.354-0.137l0.239-1.798c-1.968-0.273-4.483-0.273-5.894-0.273      c-1.434,0-3.925,0-5.916,0.273l0.239,1.798c0.091,0.489-1.24,0.626-1.343,0.137l-0.284-1.798      c-0.887,0.034-1.866,0.171-2.367,0.353C166.571-207.382,171.065-207.837,176.606-207.837"/>
				<path style="fill:#7B4800;" d="M200.943-131.333c0.728-20.764-8.169-70.815,23.279-86.346c3.004-1.354,0.785-7.02-4.324-4.392      c-29.935,16.976-20.366,68.631-20.89,90.863L200.943-131.333z"/>
				<path style="fill:#7B4800;" d="M198.383-126.202c-2.901,0-2.901-4.551,0-4.551C201.296-130.753,201.296-126.202,198.383-126.202      "/>
			</g>
			<g transform="translate(17.788 21.681)">
				<path id="SVGCleanerId_0" style="fill:#7B4800;" d="M202.388-126.918c-2.913,0-2.913-4.551,0-4.551      C205.301-131.47,205.301-126.918,202.388-126.918"/>
			</g>
			<g transform="translate(17.449 21.425)">
				<path id="SVGCleanerId_0_1_" style="fill:#7B4800;" d="M198.531-129.831c-2.913,0-2.913-4.551,0-4.551      C201.444-134.382,201.444-129.831,198.531-129.831"/>
			</g>
			<g transform="translate(17.688 21.495)">
				<path id="SVGCleanerId_0_2_" style="fill:#7B4800;" d="M201.25-129.035c-2.913,0-2.913-4.551,0-4.551      C204.163-133.586,204.163-129.035,201.25-129.035"/>
			</g>
			<path style="fill:#FFFFFF;" d="M168.676-176.696c1.934-7.066-0.171-16.395-3.641-22.892c7.441,0.762,19.41,1.513,23.461,0     C184.934-190.167,176.765-178.63,168.676-176.696"/>
			<g>
				<path style="fill:#DD2E44;" d="M168.903-163.873c-0.546,1.536-1.559,2.48-2.924,2.48c-2.048,0-3.368-2.094-3.368-5.211      c0-3.118,1.354-5.291,3.413-5.257c1.729,0.011,2.879,1.24,3.004,3.277h-2.662v2.446h4.915v-7.953h-1.57      c0,0.523-0.08,1.263-0.228,1.752c-0.751-1.32-1.991-2.071-3.504-2.162c-3.163-0.193-5.814,3.277-5.814,7.908      s2.241,7.691,5.814,7.691c2.81,0,5.109-2.105,5.109-4.972H168.903z"/>
				<path style="fill:#DD2E44;" d="M187.233-171.94c1.877,0,2.367,1.411,2.367,2.731v10.308h2.628v-10.263      c0-2.537-1.161-5.359-4.995-5.359c-3.834,0-4.995,2.822-4.995,5.359v10.263h2.628v-10.308      C184.866-170.529,185.378-171.94,187.233-171.94"/>
				<path style="fill:#DD2E44;" d="M211.001-168.686c-0.466,0-1.65,0-1.65-0.011l1.718,6.349l1.707-6.349      C212.776-168.698,211.615-168.686,211.001-168.686v-2.606h2.503l0.842-3.174h2.56l-4.335,15.622h-3.026l-4.335-15.622h2.56      l0.853,3.174h2.378V-168.686z"/>
				<path style="fill:#DD2E44;" d="M231.265-174.5l-2.423,11.901V-174.5h-2.537v15.622h3.937l2.332-11.981l2.332,11.981h3.937      V-174.5h-2.537v11.901l-2.423-11.901H231.265z"/>
			</g>
		</g>
	</g>
</g>
<g>
</g>
<g>
</g>
<g>
</g>
<g>
</g>
<g>
</g>
<g>
</g>
<g>
</g>
<g>
</g>
<g>
</g>
<g>
</g>
<g>
</g>
<g>
</g>
<g>
</g>
<g>
</g>
<g>
</g>
</svg>
