<?xml version="1.0" encoding="iso-8859-1"?>
<!-- Generator: Adobe Illustrator 19.0.0, SVG Export Plug-In . SVG Version: 6.00 Build 0)  -->
<svg xmlns="http://www.w3.org/2000/svg" xmlns:xlink="http://www.w3.org/1999/xlink" version="1.1" id="Capa_1" x="0px" y="0px" viewBox="0 0 512 512" style="enable-background:new 0 0 512 512;" xml:space="preserve">
<g transform="matrix(1.25 0 0 -1.25 0 45)">
	<g>
		<g>
			<g>
				<path style="fill:#4997D0;" d="M364.089-20.889h-91.022v-295.822h91.022c25.134,0,45.511,20.378,45.511,45.511v204.8      C409.6-41.266,389.222-20.889,364.089-20.889"/>
				<path style="fill:#4997D0;" d="M45.511-20.889C20.378-20.889,0-41.266,0-66.4v-204.8c0-25.134,20.378-45.511,45.511-45.511      h91.022v295.822H45.511z"/>
			</g>
			<path style="fill:#EEEEEE;" d="M136.533-316.711h136.533v295.822H136.533V-316.711z"/>
			<g>
				<path style="fill:#437E24;" d="M194.901-208.952c-6.36,2.617-8.966,9.432-8.351,13.119c0.262,1.547,0.979,2.503,1.673-0.08      c0.819-3.14,3.163-2.367,5.006-8.34c0.956-3.049,1.798-3.652,5.769-5.461"/>
				<path style="fill:#437E24;" d="M193.65-209.453c-11.753,1.798-11.423-3.55-17.271-5.279c-1.673-0.501-2.219-1.434,0.512-1.684      c11.958-1.024,13.687,7.714,20.423,5.086"/>
				<path style="fill:#437E24;" d="M180.952-205.095c-3.493,1.707-9.614,3.857-13.312,2.697c-3.721-1.149-4.369-1.582-1.536-2.981      c9.762-4.892,13.596-0.193,17.806-1.138"/>
				<path style="fill:#437E24;" d="M176.617-202.478c-6.952,5.006-5.791,7.976-7.646,10.866c-1.866,2.901-1.616,3.618,0.967,1.855      c8.727-5.894,5.074-10.342,8.34-12.197"/>
				<path style="fill:#437E24;" d="M168.539-195.003c-6.44,8.67-0.978,10.775-1.434,12.993c-0.444,2.173,0.125,2.549,1.354-0.137      c3.209-7.145-2.378-9.648,1.604-13.687"/>
				<path style="fill:#437E24;" d="M159.63-182.078c-1.547,3.527-5.211,4.733-6.815,4.562c-1.604-0.205-3.652-0.455-4.813-0.068      s-1.161-1.354,2.059-2.708c3.197-1.343,10.399-4.176,12.015-6.929"/>
				<path style="fill:#437E24;" d="M156.376-165.057c0.182,3.925,0.774,6.303,3.209,8.488c2.446,2.173,3.675,2.458,2.708,0.58      c-2.071-3.982-0.842-6.679-5.211-12.402"/>
				<path style="fill:#437E24;" d="M157.025-157.308c-0.523,5.973-3.595,5.848-4.562,8.556c-0.956,2.697-1.582,0.432-1.229-2.116      c0.58-4.187,5.018-6.952,5.018-10.934"/>
				<path style="fill:#437E24;" d="M156.82-160.244c0.205,3.8-0.262,6.94-1.536,9.193c-1.297,2.253-0.967-0.58-2.128-3.083      c-1.308-2.833-0.831-8.932,3.22-13.687"/>
				<path style="fill:#437E24;" d="M158.697-149.378c0.319,7.908-2.901,7.839-3.857,11.253c-0.967,3.413-1.161,2.606-1.616-0.137      c-2.059-12.459,4.767-11.048,4.107-15.861"/>
				<path style="fill:#437E24;" d="M162.031-139.423c0.831,5.086-1.07,6.417,0.91,9.58c0.956,1.547,2.435,3.595,2.048,1.035      C164.591-131.378,164.921-135.429,162.031-139.423"/>
				<path style="fill:#437E24;" d="M158.891-147.512c0.831,6.235-3.584,11.412-0.387,16.714c1.661,2.765,2.537,3.015,2.355,0.774      c-0.307-3.994,3.63-8.294-1.456-16.202"/>
				<path style="fill:#437E24;" d="M190.248-206.836c8.624-2.31,15.588-5.598,17.897-8.431c-0.137-1.161-2.355-0.956-2.617-1.604      c-6.554,6.952-14.006,5.541-23.507,10.923c-31.994,18.148-29.321,46.034-20.184,66.469c1.183,2.674,2.492,5.268,2.753,8.158      c0.284,3.152,2.844,4.961,6.053,5.985c2.742,0.876,1.889-0.41,0.887-1.479c-1.968-2.128-0.489-4.892-5.962-8.556      c-1.354-0.887-1.877-2.15-2.708-4.107C146.796-177.14,166.969-200.578,190.248-206.836"/>
				<path style="fill:#437E24;" d="M159.516-148.092c0.842,2.435,3.072,7.782,6.428,8.67c3.345,0.899,6.428,2.458,7.976,6.94      c0.523,1.57,1.661,5.029-0.523,2.321c-2.173-2.708-6.36-0.444-10.661-9.057c-0.785-1.547-2.708-4.892-4.187-9.842"/>
				<path style="fill:#437E24;" d="M158.106-149.572c2.196,7.851,6.633,6.633,8.75,9.455c2.128,2.822,2.958,2.879,1.684-0.774      c-3.152-8.875-9.466-8.42-10.49-12.538"/>
				<path style="fill:#437E24;" d="M157.662-154.316c2.31,8.033,7.828,6.94,10.172,10.354c2.287,3.402,3.186,3.777,2.731-0.262      c-1.183-10.82-12.39-6.884-13.096-12.857"/>
				<path style="fill:#437E24;" d="M156.058-159.982c0.899,8.602,7.908,7.646,10.081,9.899c0.853,0.876,1.308-1.274-0.25-3.538      c-3.789-5.461-8.158-1.798-8.681-7.646"/>
				<path style="fill:#437E24;" d="M157.468-170.848c-0.91,8.681-6.428,11.31-7.714,14.529s-1.058-0.705-0.774-2.64      c1.729-11.503,6.235-7.578,7.452-14.006"/>
				<path style="fill:#437E24;" d="M156.501-173.738c-1.149,6.042,0.967,10.615,4.437,13.05c3.47,2.446,2.594,1.035,2.321-1.092      c-1.354-10.354-6.44-6.246-5.018-13.642"/>
				<path style="fill:#437E24;" d="M158.037-175.718c-1.741,5.973-6.098,8.42-9.307,8.613c-3.22,0.182-0.876-1.047-0.398-2.185      c2.833-6.69,7.782-3.925,9.591-9.125"/>
				<path style="fill:#437E24;" d="M164.409-189.291c-2.947,4.301-2.378,7.452-5.393,10.081c-3.026,2.651-5.336,2.913-6.884,4.517      c-1.536,1.593-1.707-0.319-0.262-3.22c3.3-6.554,8.044-5.985,10.729-10.672"/>
				<path style="fill:#437E24;" d="M162.668-186.652c-1.343,2.753-0.375,10.798,0.592,14.973c0.967,4.187,0.262,4.847-1.673,2.571      c-2.378-2.753-5.723-6.679,0.637-17.545"/>
				<path style="fill:#437E24;" d="M164.227-189.621c-6.235,7.521-10.615,4.551-13.699,6.36c-3.095,1.786-1.411-1.013-0.558-1.866      c8.795-8.818,10.069-1.923,15.03-6.884"/>
				<path style="fill:#437E24;" d="M163.635-188.711c-3.083,4.813-3.083,9.387-0.967,13.699c1.946,3.937,2.537,2.822,2.321-0.193      c-0.205-2.89,2.23-4.05,0.637-9.569c-0.512-1.82-0.887-5.541,1.411-7.964"/>
				<path style="fill:#437E24;" d="M171.008-197.37c-2.514,2.947-4.767,5.757-8.613,6.224c-3.857,0.444-5.222,1.013-3.22-1.422      c6.94-8.42,10.468-4.745,13.949-7.327"/>
				<path style="fill:#437E24;" d="M175.684-200.351c-3.072,1.889-9.296,3.368-13.71,2.435c-2.48-0.523-1.627-0.978,0.057-1.479      c3.311-1.001,4.301-4.324,11.48-3.8c1.411,0.102,2.89,0.546,5.427-0.865"/>
				<path style="fill:#437E24;" d="M178.677-202.933c-3.538,2.253-5.769,7.464-6.292,12.72c-0.284,2.867,0.478,4.255,1.729,1.161      c1.547-3.8,4.312-3.709,6.042-9.444c1.57-5.154,2.583-5.723,5.279-6.815"/>
				<path style="fill:#437E24;" d="M187.233-206.62c-4.767,2.56-7.145,6.61-7.714,11.378c-0.523,4.358,0.569,3.732,2.037,1.092      c1.411-2.526,4.073-2.15,5.769-7.669c0.558-1.786,1.843-4.619,5.484-5.723"/>
				<path style="fill:#437E24;" d="M191.909-208.178c-7.441,2.31-14.29,2.059-18.364-0.967c-2.048-1.513-1.49-2.082,0.262-1.798      c4.995,0.796,6.997-2.071,13.028,0.637c1.308,0.58,3.538,1.24,8.499-0.637"/>
				<path style="fill:#437E24;" d="M214.198-208.861c6.44,2.662,9.057,9.535,8.442,13.255c-0.25,1.57-0.978,2.537-1.695-0.057      c-0.842-3.186-3.174-2.412-5.063-8.454c-0.956-3.061-1.809-3.698-5.825-5.518"/>
				<path style="fill:#437E24;" d="M215.438-209.373c11.878,1.82,11.548-3.584,17.488-5.336c1.684-0.512,2.219-1.456-0.535-1.707      c-12.095-1.024-13.847,7.805-20.662,5.154"/>
				<path style="fill:#437E24;" d="M228.238-204.959c3.516,1.695,9.717,3.891,13.471,2.731c3.755-1.161,4.392-1.604,1.525-3.015      c-9.865-4.949-13.733-0.193-18-1.149"/>
				<path style="fill:#437E24;" d="M232.63-202.364c7.043,5.063,5.871,8.055,7.737,10.98c1.889,2.947,1.638,3.664-0.956,1.877      c-8.829-5.973-5.131-10.456-8.465-12.334"/>
				<path style="fill:#437E24;" d="M240.868-194.753c6.485,8.761,0.978,10.9,1.422,13.119c0.466,2.219-0.114,2.606-1.354-0.125      c-3.243-7.214,2.401-9.751-1.627-13.847"/>
				<path style="fill:#437E24;" d="M249.879-181.702c1.536,3.573,5.245,4.801,6.872,4.631c1.638-0.216,3.709-0.455,4.858-0.08      c1.206,0.387,1.206-1.354-2.059-2.731c-3.254-1.365-10.536-4.233-12.14-7.009"/>
				<path style="fill:#437E24;" d="M253.121-164.488c-0.228,3.971-0.774,6.372-3.243,8.579c-2.469,2.219-3.709,2.492-2.731,0.592      c2.059-4.028,0.819-6.758,5.245-12.538"/>
				<path style="fill:#437E24;" d="M252.473-156.74c0.535,6.042,3.664,5.928,4.619,8.658c0.978,2.719,1.604,0.432,1.252-2.15      c-0.603-4.233-5.074-7.031-5.074-11.048"/>
				<path style="fill:#437E24;" d="M252.7-159.607c-0.205,3.834,0.239,7.02,1.559,9.296c1.308,2.287,1.001-0.592,2.15-3.129      c1.308-2.856,0.842-9.023-3.243-13.835"/>
				<path style="fill:#437E24;" d="M250.766-148.616c-0.33,7.987,2.913,7.919,3.891,11.378c0.978,3.436,1.172,2.64,1.616-0.148      c2.094-12.595-4.801-11.173-4.153-16.043"/>
				<path style="fill:#437E24;" d="M247.41-138.546c-0.865,5.131,1.07,6.485-0.91,9.682c-1.001,1.559-2.492,3.641-2.116,1.035      C244.793-130.423,244.452-134.519,247.41-138.546"/>
				<path style="fill:#437E24;" d="M250.539-146.739c-0.842,6.303,3.618,11.526,0.375,16.896c-1.684,2.799-2.571,3.049-2.401,0.785      c0.341-4.039-3.641-8.385,1.49-16.384"/>
				<path style="fill:#437E24;" d="M218.852-206.722c-8.693-2.332-16.168-6.042-18.523-8.897c0.125-1.172,2.822-0.592,3.083-1.252      c6.633,7.031,14.131,5.609,23.768,11.036c32.336,18.364,29.628,46.558,20.4,67.231c-1.195,2.708-2.526,5.325-2.799,8.238      c-0.262,3.186-2.867,5.006-6.087,6.053c-2.776,0.899-1.934-0.421-0.91-1.502c2.002-2.139,0.489-4.938,6.042-8.636      c1.354-0.91,1.889-2.185,2.719-4.153C262.804-176.685,242.404-200.396,218.852-206.722"/>
				<path style="fill:#437E24;" d="M249.924-147.319c-0.842,2.469-3.106,7.862-6.508,8.772c-3.356,0.91-6.474,2.469-8.044,7.009      c-0.535,1.582-1.695,5.086,0.535,2.344c2.196-2.731,6.44-0.444,10.775-9.159c0.796-1.559,2.731-4.938,4.221-9.944"/>
				<path style="fill:#437E24;" d="M251.335-148.821c-2.219,7.93-6.713,6.713-8.841,9.557c-2.162,2.856-3.004,2.901-1.695-0.774      c3.186-8.966,9.557-8.522,10.581-12.675"/>
				<path style="fill:#437E24;" d="M251.79-153.622c-2.332,8.124-7.908,7.02-10.263,10.468c-2.332,3.447-3.243,3.834-2.799-0.273      c1.217-10.923,12.55-6.94,13.266-12.993"/>
				<path style="fill:#437E24;" d="M253.429-159.345c-0.887,8.704-7.976,7.737-10.194,10.012c-0.876,0.887-1.32-1.286,0.262-3.584      c3.823-5.518,8.249-1.809,8.772-7.726"/>
				<path style="fill:#437E24;" d="M252.018-170.325c0.887,8.761,6.485,11.435,7.805,14.689c1.286,3.254,1.058-0.717,0.774-2.662      c-1.752-11.628-6.315-7.669-7.532-14.177"/>
				<path style="fill:#437E24;" d="M253.042-173.26c1.161,6.11-0.978,10.729-4.494,13.198c-3.482,2.469-2.617,1.047-2.332-1.104      c1.365-10.468,6.497-6.315,5.074-13.79"/>
				<path style="fill:#437E24;" d="M251.449-175.274c1.752,6.042,6.201,8.522,9.444,8.715c3.243,0.193,0.865-1.058,0.398-2.207      c-2.867-6.758-7.885-3.959-9.705-9.227"/>
				<path style="fill:#437E24;" d="M245.009-188.973c2.958,4.358,2.401,7.532,5.45,10.206c3.038,2.662,5.393,2.924,6.952,4.54      c1.559,1.627,1.729-0.307,0.262-3.243c-3.334-6.633-8.135-6.053-10.866-10.798"/>
				<path style="fill:#437E24;" d="M246.773-186.322c1.331,2.799,0.375,10.923-0.603,15.144c-0.979,4.233-0.284,4.892,1.695,2.606      c2.401-2.788,5.78-6.758-0.649-17.749"/>
				<path style="fill:#437E24;" d="M245.191-189.314c6.315,7.612,10.729,4.619,13.847,6.428c3.106,1.832,1.422-1.024,0.58-1.866      c-8.92-8.909-10.206-1.946-15.223-6.952"/>
				<path style="fill:#437E24;" d="M245.771-188.393c3.129,4.87,3.129,9.478,1.001,13.835c-1.98,3.994-2.56,2.844-2.378-0.193      c0.216-2.924-2.241-4.085-0.649-9.682c0.535-1.832,0.91-5.598-1.399-8.055"/>
				<path style="fill:#437E24;" d="M238.364-197.153c2.537,2.992,4.801,5.825,8.715,6.303c3.88,0.444,5.268,1.035,3.265-1.434      c-7.043-8.499-10.627-4.813-14.131-7.43"/>
				<path style="fill:#437E24;" d="M233.586-200.18c3.083,1.923,9.398,3.413,13.847,2.469c2.503-0.523,1.661-0.979-0.046-1.49      c-3.334-1.024-4.335-4.38-11.628-3.846c-1.399,0.102-2.879,0.546-5.461-0.865"/>
				<path style="fill:#437E24;" d="M230.593-202.706c3.55,2.264,5.825,7.555,6.36,12.857c0.284,2.901-0.512,4.324-1.764,1.183      c-1.547-3.846-4.358-3.777-6.133-9.557c-1.547-5.2-2.571-5.791-5.336-6.872"/>
				<path style="fill:#437E24;" d="M221.901-206.517c4.824,2.606,7.225,6.679,7.817,11.514c0.512,4.415-0.569,3.777-2.059,1.104      c-1.422-2.549-4.13-2.185-5.848-7.76c-0.558-1.809-1.843-4.676-5.53-5.791"/>
				<path style="fill:#437E24;" d="M217.202-208.076c7.532,2.332,14.461,2.071,18.557-0.978c2.082-1.536,1.536-2.105-0.25-1.832      c-5.04,0.808-7.088-2.082-13.175,0.671c-1.308,0.569-3.573,1.229-8.59-0.671"/>
			</g>
			<path style="fill:#B1B6BA;" d="M188.814-173.601c0,0-8.681-7.805-9.751-8.863c-1.058-1.058-2.128-5.678-2.128-5.678l2.844-1.775     l12.595,12.948L188.814-173.601z"/>
			<g>
				<path style="fill:#6C301E;" d="M176.765-187.972l2.662-2.116c0,0-2.298-2.31-2.662-4.619c-0.353-2.31-6.565-9.387-7.805-11.162      c-1.229-1.786-2.844-1.411-3.55,0c-0.694,1.411-2.287,2.48-2.469,3.538s3.903,4.79,5.848,6.918      c1.946,2.128,4.073,3.004,5.143,4.244C174.99-189.917,176.765-187.972,176.765-187.972"/>
				<path style="fill:#6C301E;" d="M189.36-175.547l-5.382-6.019l1.445-1.434l5.177,5.848L189.36-175.547z"/>
			</g>
			<path style="fill:#B1B6BA;" d="M164.523-123.061l17.192-17.909l4.255,2.128l-1.32,1.934l-2.935-0.694L164.523-123.061z"/>
			<path style="fill:#FAB81B;" d="M185.981-197.518l2.128-3.573l1.934,1.798c0,0,1.57-2.844,0-3.368c-1.582-0.546-2.753,0-2.753,0     l-5.382-4.403c0,0-2.128,1.286-3.903,0c0,0,0.364,2.617,1.422,2.617s4.938,5.143,4.938,5.143s-2.048,0.569-1.638,1.786     C183.148-196.3,185.981-197.518,185.981-197.518"/>
			<g>
				<path style="fill:#B1B6BA;" d="M185.981-198.951c0,0,31.539,31.38,44.681,32.563c0,0-9.933-6.042-16.145-11.002      c-6.212-4.972-26.408-23.689-26.408-23.689L185.981-198.951z"/>
				<path style="fill:#B1B6BA;" d="M221.787-173.601c0,0,8.693-7.805,9.728-8.863c1.07-1.058,2.139-5.678,2.139-5.678l-2.822-1.775      l-12.595,12.948L221.787-173.601z"/>
			</g>
			<g>
				<path style="fill:#6C301E;" d="M233.836-187.972l-2.662-2.116c0,0,2.31-2.31,2.662-4.619c0.353-2.31,6.576-9.387,7.805-11.162      c1.24-1.786,2.844-1.411,3.55,0c0.717,1.411,2.287,2.48,2.469,3.538c0.193,1.058-3.914,4.79-5.848,6.918      c-1.934,2.128-4.062,3.004-5.131,4.244C235.611-189.917,233.836-187.972,233.836-187.972"/>
				<path style="fill:#6C301E;" d="M221.23-175.547l5.382-6.019l-1.422-1.434l-5.177,5.848L221.23-175.547z"/>
			</g>
			<g>
				<path style="fill:#B1B6BA;" d="M213.732-149.048l-2.002-5.655l17.135,17.101l-2.64,0.478L213.732-149.048z"/>
				<path style="fill:#B1B6BA;" d="M246.056-123.061l-17.203-17.909l-4.244,2.128l4.244,1.24L246.056-123.061z"/>
			</g>
			<path style="fill:#FAB81B;" d="M224.609-197.518l-2.116-3.573l-1.923,1.798c0,0-1.582-2.844,0-3.368c1.547-0.546,2.753,0,2.753,0     l5.37-4.403c0,0,2.139,1.286,3.891,0c0,0-0.353,2.617-1.422,2.617s-4.927,5.143-4.927,5.143s2.037,0.569,1.616,1.786     C227.453-196.3,224.609-197.518,224.609-197.518"/>
			<path style="fill:#B1B6BA;" d="M224.609-198.951c0,0-31.551,31.38-44.669,32.563c0,0,9.944-6.042,16.145-11.002     c6.212-4.972,26.408-23.689,26.408-23.689L224.609-198.951z"/>
			<path style="fill:#F9F0AA;" d="M186.22-136.533c5.154,0.296,20.025-0.182,25.532,0c5.484,0.171,4.244-2.662,4.597-4.267     c0.353-1.582-2.992-3.356-2.992-3.356s3.527-2.128,8.146-14.541c4.597-12.413,3.538-18.079-2.662-18.443     c-6.201-0.353-22.153-1.411-27.489-1.411c-5.313,0-6.201,1.946-6.201,4.79c0,2.833,4.255,7.088,8.511,4.676     c0,0,0,1.889-2.469,8.977c-2.48,7.088-7.805,14.711-8.34,18.079C182.318-138.66,183.558-136.692,186.22-136.533"/>
			<path style="fill:#437E24;" d="M201.819-124.302c-2.128,1.957,0.831,4.085,2.992,3.903c2.139-0.182,3.209-1.411,0.91-3.903     c0,0,6.212-3.368,11.162-7.976c4.949-4.608,15.155-17.044,16.134-30.492c1.24-17.374-8.34-26.419-11.89-32.609     c-3.538-6.212-11.514-21.823-11.514-21.823s-0.171,7.987,10.286,22.528c0,0-8.146-14.541-20.73-17.203     c0,0,15.747,11.105,20.173,19.979c4.426,8.852,10.9,22.175,9.853,31.391c-1.07,9.227-2.742,17.055-14.962,23.097     c0,0-7.748,0.432-11.173,3.186C197.564-129.786,201.819-124.302,201.819-124.302"/>
			<g>
				<path style="fill:#E2CF81;" d="M213.356-144.11c0-0.535,2.298-3.413,1.991-3.413h-27.09c-0.296,0-1.82,1.866-1.82,2.412      l-2.059,2.412c1.604-0.626,3.584,0,3.88,0h27.079C215.643-142.699,213.356-143.575,213.356-144.11"/>
				<path style="fill:#E2CF81;" d="M193.65-175.547c0-0.535-1.138-2.287-0.831-2.287h27.09c0.284,0,2.788,1.877,2.788,2.412      l1.092,2.412c-1.616-0.626-3.595,0-3.88,0h-27.09C192.523-173.01,193.65-175.012,193.65-175.547"/>
			</g>
		</g>
	</g>
</g>
<g>
</g>
<g>
</g>
<g>
</g>
<g>
</g>
<g>
</g>
<g>
</g>
<g>
</g>
<g>
</g>
<g>
</g>
<g>
</g>
<g>
</g>
<g>
</g>
<g>
</g>
<g>
</g>
<g>
</g>
</svg>
