<?xml version="1.0" encoding="iso-8859-1"?>
<!-- Generator: Adobe Illustrator 19.0.0, SVG Export Plug-In . SVG Version: 6.00 Build 0)  -->
<svg xmlns="http://www.w3.org/2000/svg" xmlns:xlink="http://www.w3.org/1999/xlink" version="1.1" id="Capa_1" x="0px" y="0px" viewBox="0 0 512 512" style="enable-background:new 0 0 512 512;" xml:space="preserve">
<path style="fill:#00247D;" d="M455.112,71.113H56.894c-31.417,0-56.888,25.472-56.888,56.888v255.997  c0,31.417,25.472,56.888,56.888,56.888h398.218c31.417,0,56.888-25.472,56.888-56.888V128.001  C512,96.585,486.528,71.113,455.112,71.113z"/>
<path style="fill:#EEEEEE;" d="M270.225,256v-28.857l-100.977-70.698H94.881L237.059,256H270.225z"/>
<path style="fill:#CF1B2B;" d="M270.225,235.833l-113.364-79.388h-24.789l138.153,96.738L270.225,235.833L270.225,235.833z"/>
<path style="fill:#EEEEEE;" d="M115.199,156.446L0,238.45V256h47.388l142.192-99.554L115.199,156.446L115.199,156.446z"/>
<path style="fill:#CF1B2B;" d="M152.379,156.446L10.443,256h3.783h20.778l142.178-99.554L152.379,156.446L152.379,156.446z"/>
<path style="fill:#EEEEEE;" d="M237.072,71.113L94.894,170.668h74.367L270.223,99.97V71.113H237.072z"/>
<path style="fill:#CF1B2B;" d="M249.447,71.113l-142.164,99.554h24.789l138.153-96.738v-2.816H249.447z"/>
<path style="fill:#EEEEEE;" d="M9.432,96.649l132.795,92.949v-18.93h47.331L48.315,71.758C32.088,74.214,18.117,83.528,9.432,96.649  z"/>
<path style="fill:#CF1B2B;" d="M13.785,90.906l128.441,90.031v-10.268h10.155L24.589,81.185  C20.584,83.954,16.955,87.226,13.785,90.906z"/>
<path style="fill:#EEEEEE;" d="M270.225,128.001h-99.554V71.113H99.56v56.888H0.006v71.11H99.56V256h71.11v-56.888h99.554V128.001z"/>
<g>
	<path style="fill:#CF1B2B;" d="M156.449,256h-42.666V71.113h42.666V256z"/>
	<path style="fill:#CF1B2B;" d="M270.225,184.89H0.006v-42.666h270.219V184.89z"/>
</g>
<g>
	<path style="fill:#CDAD57;" d="M379.113,142.224c-1.92-1.479-4.892-3.328-9.116-5.774c-4.21-2.446-5.106-7.552-3.1-11.335   c1.991-3.783,6.741-5.106,5.589-1.55c-1.152,3.556-2.404,7.907,0,8.291c2.404,0.37,1.735-4.736,3.968-4.523   c2.219,0.228-2.233,8.22,0,8.448c2.219,0.228,1.55-7.111,3.996-6.229c2.446,0.896,1.991,7.339,0,7.779   c-2.005,0.455,0.213,3.342,1.664,4.892C383.551,143.774,381.119,143.76,379.113,142.224"/>
	<path style="fill:#CDAD57;" d="M390.473,142.224c1.92-1.479,4.892-3.328,9.116-5.774c4.21-2.446,5.106-7.552,3.1-11.335   c-1.991-3.783-6.741-5.106-5.589-1.55c1.152,3.556,2.404,7.907,0,8.291c-2.404,0.37-1.735-4.736-3.968-4.523   c-2.219,0.228,2.233,8.22,0,8.448c-2.219,0.228-1.55-7.111-3.996-6.229c-2.446,0.896-1.991,7.339,0,7.779   c2.005,0.455-0.213,3.342-1.664,4.892C386.037,143.774,388.468,143.76,390.473,142.224"/>
</g>
<path style="fill:#923F00;" d="M382.821,154.668c1.294-4.949-0.299-9.771-4.153-8.291c-3.84,1.479-7.424-0.896-6.812-2.076  c0.583-1.18,5.049-4.736,10.965-4.736c5.916,0,13.611,3.257,13.027,4.736c-0.583,1.479-7.111,2.816-7.111,2.816  s0.896,5.774,11.861,5.774c10.951,0,20.138,2.66,18.062,16c-2.062,13.326-2.66,15.118-4.437,14.521  c-1.778-0.597-2.062-5.035-1.18-8.889c0.896-3.854-1.479-9.187-2.674-5.333c-1.18,3.854-3.57,11.264-6.514,11.847  c-2.972,0.597,1.166-11.264,0.882-13.923c-0.299-2.674-7.111-2.076-7.41,2.076c-0.284,4.139,0.54,10.965-1.948,12.743  c-2.489,1.778-2.788-4.153-2.489-8.306c0.299-4.139-2.66-10.652-2.958-5.035c-0.299,5.632-0.597,12.743-3.271,13.625  c-2.659,0.896,0-6.812-0.882-11.548C384.883,165.932,381.342,160.286,382.821,154.668"/>
<g>
	<path style="fill:#FFFFFF;" d="M391.334,222.001c-3.783,3.556-18.005,11.548-23.552-1.55c13.326,5.333,21.205-6.229,21.205-6.229   L391.334,222.001z"/>
	<path style="fill:#FFFFFF;" d="M371.779,190.446c-5.902-18.218-19.114-19.783-19.114-19.783s-0.668,5.788,2.233,9.899   c-9.529-0.882-18.901-5.219-18.901-5.219c-2.66,7.552,13.34,15.545,23.111,15.104c-4.665,4.665-0.213,8.675,4.224,9.458   c-2.219-5.461,4.892-9.102,6.443-4.836C371.338,199.334,371.779,190.446,371.779,190.446"/>
</g>
<path style="fill:#1500FF;" d="M374.209,221.82c-11.989,1.294-20.508-17.109-20.466-22.57c7.139,2.091,12.928,6.969,12.928,6.969  s1.892-16.227,3.385-20.224c5.945,4.452,7.495,16.896,5.504,22.67c6.528,0.327,7.779,5.774,5.774,9.785  C378.22,213.998,374.934,218.222,374.209,221.82"/>
<g>
	<path style="fill:#FFFFFF;" d="M408.821,222.001c3.783,3.556,18.005,11.548,23.552-1.55c-13.326,5.333-21.205-6.229-21.205-6.229   L408.821,222.001z"/>
	<path style="fill:#FFFFFF;" d="M428.376,190.446c5.902-18.218,19.114-19.783,19.114-19.783s0.668,5.788-2.233,9.899   c9.529-0.882,18.901-5.219,18.901-5.219c2.66,7.552-13.34,15.545-23.111,15.104c4.665,4.665,0.213,8.675-4.224,9.458   c2.219-5.461-4.892-9.102-6.443-4.836C428.817,199.334,428.376,190.446,428.376,190.446"/>
</g>
<path style="fill:#1500FF;" d="M425.945,221.82c11.989,1.294,20.508-17.109,20.466-22.57c-7.154,2.091-12.928,6.969-12.928,6.969  s-1.892-16.227-3.385-20.224c-5.945,4.452-7.495,16.896-5.504,22.67c-6.528,0.327-7.779,5.774-5.774,9.785  C421.934,213.998,425.219,218.222,425.945,221.82"/>
<path style="fill:#656263;" d="M401.112,247.556c-18.446,0-24.889-8.448-23.111-14.222c1.778-5.774,8.007-2.66,9.998-4.224  c2.005-1.55,2.005-11.776-2.66-16.441s-7.566-9.557-5.561-12.003c-2.66-4.437,1.522-6.443,2.759-11.548  c1.237-5.12,2.56-9.884,4.508-10.453s2.958,4.224,3.627,3.342c0.668-0.896,1.408-4.892,4.708-5.12  c3.285-0.213,2.844,3.342,3.954,4.224c1.109,0.896,2.005-4.124,5.106-4.224c3.115-0.114,4.011,4.224,5.333,4.452  c1.337,0.213,1.778-3.2,4.452-2.674c2.66,0.54,1.778,7.339,3.556,10.226c1.778,2.887,5.547,8.448,3.328,11.776  c3.115,2.219-0.213,6.229-3.996,9.116c-3.783,2.887-8.22,9.998-5.561,17.991c2.446,5.333,11.776-0.213,14.009,3.115  C427.779,234.231,426.883,247.556,401.112,247.556"/>
<path style="fill:#FFFFFF;" d="M377.724,197.557c0-5.333,14.279-7.111,22.272-7.111c8.007,0,22.67,1.849,22.67,7.111  s-11.164,0-22.471,0S377.724,202.662,377.724,197.557"/>
<g>
	<path style="fill:#1500FF;" d="M392.362,190.905c-2.503,0.284-5.02,0.725-7.267,1.323c-0.725,2.404-0.313,5.02,0.996,7.011   c2.148-0.356,4.565-0.782,7.139-1.124C391.737,196.338,391.139,193.749,392.362,190.905"/>
	<path style="fill:#1500FF;" d="M399.335,190.46v7.139c0.299-0.014,0.569-0.043,0.868-0.043c2.731,0,5.433,0.313,8.007,0.711   c0.796-0.882,1.351-1.906,1.351-3.1c0-1.692-1.038-3.115-2.418-4.324c-2.588-0.27-5.091-0.398-7.139-0.398   C399.79,190.446,399.548,190.46,399.335,190.46"/>
	<path style="fill:#1500FF;" d="M413.127,199.091c5.575,0.996,9.543,1.593,9.543-1.536c0-2.759-4.053-4.565-9.045-5.66   c0.825,1.01,1.493,2.119,1.493,3.271C415.118,196.815,414.179,198.067,413.127,199.091"/>
</g>
<path style="fill:#ADB0B2;" d="M379.196,203.174c0.583-2.503,21.006,11.491,21.006,11.491s21.603-15.075,21.817-13.027  c0.199,2.048-21.817,16.81-21.817,16.81S378.613,205.677,379.196,203.174"/>
<path style="fill:#6A4C2D;" d="M379.557,262.223c-9.771,9.33-48.895,43.107-51.114,50.218c-2.219,7.111,2.446,8.889,9.33,4.224  c-2.432,5.561,0.668,7.779,2.233,8.007c1.55,0.213,7.993-2.005,10.667-7.779c2.887,4.665,10.226,5.333,11.548,4.437  c1.337-0.882,2.005-2.446,2.005-2.446s1.28,6.699,3.755,5.803c2.46-0.91,4.665-4.466,6.229-4.238c1.564,0.213-0.1,3.328,3.513,3.1  c3.612-0.213,5.092-1.778,7.012-3.769c1.934-2.005,5.049,0.882,6.599,0.441s3.115-9.998,5.561-16.882  C399.34,296.441,379.557,262.223,379.557,262.223"/>
<path style="fill:#FFFFFF;" d="M415.112,296.888c6.528,1.479,13.781-0.299,17.266,1.778c3.484,2.062,6.144,3.854,11.179,4.153  c5.049,0.284,14.521-4.139,16.597,0s4.736,10.069,7.41,10.951c2.66,0.896,12.729,4.153,2.66,4.736c-10.069,0.597-32.583,0-32.583,0  l2.66,3.556l-19.698,1.195c0,0-11.577-10.083-11.051-17.194S415.112,296.888,415.112,296.888"/>
<path style="fill:#00713D;" d="M391.334,296.888c-8.035,4.864-4.295,10.951-4.295,10.951s1.294,8.306,1.948,7.424  c0.654-0.896,4.252-3.868,4.252-3.868s-0.626,6.627-0.526,6.371c0.1-0.27,4.38,0.014,4.38,0.014s1.579,5.817,2.233,6.983  c0.668,1.166,4.38-2.702,4.38-2.702s3.556,2.29,5.12,2.93c1.55,0.626,2.148-4.11,2.148-4.11s4.21,5.376,6.912,3.883  c2.716-1.508,6.115-5.945,6.115-5.945l-5.049-4.452c0,0,0.882-1.152,0-3.399c-0.868-2.233-4.139-3.129-4.139-3.129  s3.271-2.361,0.896-3.84C413.336,302.506,404.589,288.896,391.334,296.888"/>
<path style="fill:#FFFFFF;" d="M402.029,245.333c-7.267-4.437-19.356-3.783-26.922-3.783v31.559c0,7.779,3.399,27.776,26.922,36.664  c23.523-8.889,26.922-28.885,26.922-36.664V241.55C421.385,241.55,409.297,240.896,402.029,245.333"/>
<path style="fill:#1E5AA6;" d="M423.141,247.339l6.499-8.448l-7.623-9.899l-6.599,8.562l-6.599-8.562l-6.713,8.718l-6.727-8.718  l-6.414,8.32l-6.414-8.32l-7.637,9.899l6.499,8.448l-6.499,8.434l6.3,8.178l-6.3,8.178l6.073,7.879l-6.073,7.893l7.637,9.913  l6.414-8.334l4.764,6.172l-5.973,7.751l7.623,9.899l6.727-8.732l6.713,8.732l7.623-9.899l-5.973-7.751l4.949-6.414l6.599,8.576  l7.623-9.913l-6.073-7.893l6.073-7.879l-6.286-8.178l6.286-8.178L423.141,247.339z M388.965,286.336l-4.864-6.329l4.864-6.315  l4.85,6.315L388.965,286.336z M388.965,270.549l-5.091-6.599l5.091-6.599l5.077,6.599L388.965,270.549z M388.965,254.208  l-5.291-6.869l5.291-6.883l5.291,6.883L388.965,254.208z M402.106,302.236l-5.077-6.585l5.077-6.585l5.063,6.585L402.106,302.236z   M402.106,286.734l-5.177-6.727l5.177-6.713l5.163,6.713L402.106,286.734z M402.106,270.962l-5.39-7.011l5.39-6.997l5.376,6.997  L402.106,270.962z M402.106,254.606l-5.603-7.267l5.603-7.282l5.589,7.282L402.106,254.606z M415.418,286.563l-5.035-6.556  l5.035-6.556l5.049,6.556L415.418,286.563z M415.418,270.791l-5.262-6.841l5.262-6.841l5.262,6.841L415.418,270.791z   M415.418,254.45l-5.475-7.111l5.475-7.111l5.476,7.111L415.418,254.45z"/>
<path style="fill:#016C00;" d="M402.099,301.75l22.755-63.971c0,0-19.74,1.152-22.841,4.309c-3.1-3.157-22.826-4.309-22.826-4.309  l22.741,63.971v0.484l0.085-0.228l0.085,0.228V301.75z"/>
<path style="fill:#8B9497;" d="M340.224,250.889c0.512-14.208,2.887-21.333,2.66-26.894c-0.213-5.547,4.679-5.547,8.448-6.656  c3.783-1.124,5.561,1.991,8.675,2.219c3.1,0.213,4.878,0.668,3.996,4.437c-0.896,3.783-3.783,8.661-4.452,9.998  c-0.668,1.337,3.783,9.785,7.339,16.896c3.556,7.111,8.661,16.227,4.892,30.449c-3.783,14.222-6.002,19.328-7.566,20.437  c-1.55,1.109-0.356-9.33-1.735-14.222c-1.365-4.892-3.143-6.002-3.143-6.002s-6.002,5.675-8.22,12.843  c-2.233,7.168-0.455,12.387,3.769,15.331c4.224,2.944,13.781,4.722,15.331,5.603c1.564,0.896-3.1,2.887-9.557,2.446  c-6.443-0.441-21.689-5.859-27.392-11.932c-5.717-6.059-13.511-16-9.045-26.951c2.446-6.002,7.111-8.007,8.661-9.998  C334.45,266.889,340.068,255.156,340.224,250.889"/>
<path style="fill:#FFFFFF;" d="M448.446,221.883c4.85-0.668,16.882,30.336,18.218,43.676c1.337,13.326,1.109,37.333-6.883,38.215  c-8.007,0.896-15.189-2.219-17.706-15.559c-2.517-13.326-0.597-23.552,0-32.213C442.672,247.326,441.335,222.878,448.446,221.883"/>
<path d="M446.418,221.883c0.341-5.689,5.803-7.666,12.245-6.556c6.443,1.124,6.002,11.122,5.788,15.786  c-0.228,4.665,10.112,3.556,10.155,28.657c0.057,25.116-7.054,39.338-5.049,42.894c2.005,3.556,11.107,8.22,6.002,9.116  c-5.12,0.882-11.563-4.452-16-6.002c-4.451-1.564,0.384-7.779,2.19-15.331c1.806-7.566,0.924-15.815-2.859-14.791  c-3.783,1.01,1.55,19.342-4.665,18.73c-6.229-0.612-9.557-14.35-8.889-26.922c0.668-12.572,3.115-13.468,6.67-17.465  s1.323-5.774-2.446-9.998c-3.783-4.224-2.446-7.552,1.55-9.785C455.108,227.998,445.949,229.534,446.418,221.883"/>
<path style="fill:#FFFFFF;" d="M440.806,243.334c-5.333,0.441-10.809,2.005-10.809,4.224c0,2.219-0.213,9.557,0,10.439  c0.228,0.896,7.552-3.769,10.809-3.556V243.334z"/>
<path style="fill:#F66B01;" d="M448.446,221.883c1.308-6.869-11.107-0.327-11.776,1.451  C436.001,225.111,447.109,228.88,448.446,221.883"/>
<path style="fill:#F8F001;" d="M452.223,218.445c0.668-1.991,15.559-4.437,18.005-4.224c2.432,0.228,2.304-0.313,1.636,0.811  c-0.242,0.398-7.324,1.365-7.424,2.062c-0.185,1.237,6.258,0.455,7.339,1.351c0.725,0.597-7.168,0.526-5.831,1.508  c1.778,1.323,8.491,4.352,6.528,3.598C469.062,222.271,451.128,221.688,452.223,218.445"/>
<path style="fill:#F66B01;" d="M449.848,301.986c-3.314,0.612-13.625-0.156-10.069,1.934c3.556,2.076,4.665,2.304,4.665,2.304  s-6.386,2.332-3.641,3.499c2.759,1.166,9.059,0.441,13.241,0.356c4.181-0.071,7.253-2.432,5.518-4.295  C457.827,303.906,454.811,301.09,449.848,301.986"/>
<path style="fill:#C11600;" d="M356.321,356.665c7.993,1.55,18.446,4.892,18.446,4.892l-1.337,14.435c0,0-3.328-4.878-20.892-7.993  C350.547,362.226,356.321,356.665,356.321,356.665"/>
<path style="fill:#FFBC00;" d="M403.681,329.556c-19.826,0-32.91,7.779-32.91,7.779s-7.111-11.036-14.009-12.288  c-6.883-1.266-10.88,2.958-8.22,8.291c2.674,5.333,6.229,5.106,11.335,10.667c-8.22,5.547-14.891,16.668-14.891,16.668l7.552,7.324  c0,0,4.224-7.111,13.113-14.45c7.779,8.903,7.779,22.457,7.779,22.457s2.332-9.557,5.945-12.672  c-0.171-8.661-2.617-15.118-2.617-15.118s11.619-7.111,26.922-7.111V329.556L403.681,329.556z"/>
<g>
	<path style="fill:#C11600;" d="M358.987,332.444c0,0,0.228,4.665-6.002,9.998c-6.215,5.333-13.326,4.892-12.885-1.109   c6.002-1.55,4.437-13.454,9.429-14.99C348.989,331.334,350.995,334.662,358.987,332.444"/>
	<path style="fill:#C11600;" d="M451.043,356.665c-7.993,1.55-18.446,4.892-18.446,4.892l1.337,14.435c0,0,3.328-4.878,20.892-7.993   C456.817,362.226,451.043,356.665,451.043,356.665"/>
</g>
<path style="fill:#FFBC00;" d="M403.681,329.556c19.811,0,32.91,7.779,32.91,7.779s7.111-11.036,14.009-12.288  c6.883-1.266,10.88,2.958,8.22,8.291c-2.674,5.333-6.229,5.106-11.335,10.667c8.22,5.547,14.891,16.668,14.891,16.668l-7.552,7.324  c0,0-4.224-7.111-13.113-14.45c-7.779,8.903-7.779,22.457-7.779,22.457s-2.332-9.557-5.945-12.672  c0.171-8.661,2.617-15.118,2.617-15.118s-11.619-7.111-26.922-7.111V329.556L403.681,329.556z"/>
<path style="fill:#C11600;" d="M448.376,332.444c0,0-0.228,4.665,6.002,9.998c6.215,5.333,13.326,4.892,12.885-1.109  c-6.002-1.55-4.437-13.454-9.429-14.99C458.374,331.334,456.369,334.662,448.376,332.444"/>
<g>
</g>
<g>
</g>
<g>
</g>
<g>
</g>
<g>
</g>
<g>
</g>
<g>
</g>
<g>
</g>
<g>
</g>
<g>
</g>
<g>
</g>
<g>
</g>
<g>
</g>
<g>
</g>
<g>
</g>
</svg>
