<?xml version="1.0" encoding="iso-8859-1"?>
<!-- Generator: Adobe Illustrator 19.0.0, SVG Export Plug-In . SVG Version: 6.00 Build 0)  -->
<svg xmlns="http://www.w3.org/2000/svg" xmlns:xlink="http://www.w3.org/1999/xlink" version="1.1" id="Capa_1" x="0px" y="0px" viewBox="0 0 512 512" style="enable-background:new 0 0 512 512;" xml:space="preserve">
<path style="fill:#EEEEEE;" d="M455.111,71.111H56.889c-10.942,0-21.158,3.096-29.832,8.451C10.824,89.582,0,107.525,0,128v56.889  v142.222V384c0,20.475,10.824,38.418,27.057,48.438c8.675,5.354,18.89,8.451,29.832,8.451h398.222  C486.528,440.889,512,415.417,512,384v-56.889V184.889V128C512,96.583,486.528,71.111,455.111,71.111z"/>
<path style="fill:#E32118;" d="M27.057,432.438c8.675,5.354,18.89,8.451,29.832,8.451h398.222C486.528,440.889,512,415.417,512,384  v-56.889H104.297L27.057,432.438z"/>
<path style="fill:#3E9A00;" d="M455.111,71.111H56.889c-10.942,0-21.158,3.096-29.832,8.451l77.24,105.327H512V128  C512,96.583,486.528,71.111,455.111,71.111z"/>
<path style="fill:#0173CE;" d="M156.444,256l-52.148-71.111L27.057,79.562C10.824,89.582,0,107.525,0,128v56.889v142.222V384  c0,20.475,10.824,38.418,27.057,48.438l77.24-105.327L156.444,256z"/>
<path d="M262.305,213.333h-34.076v67.556c0,13.781,7.765,16,11.776,16h13.113c8.22,0,9.188,6.812,9.188,6.812  s0.967-6.812,9.188-6.812h13.113c4.011,0,11.776-2.219,11.776-16v-67.556H262.305z"/>
<path style="fill:#FFFFFF;" d="M262.305,297.667c-1.892-2.005-4.821-3.627-9.188-3.627h-13.113c-2.688,0-8.932-1.28-8.932-13.156  v-64.711h62.464v64.711c0,11.876-6.244,13.156-8.932,13.156h-13.113C267.127,294.04,264.197,295.662,262.305,297.667"/>
<path d="M212.222,266c0,0,3.541,6.244,7.993,10.439c8.235,7.78-4.992,14.009-4.992,14.009s-4.11-2.674-5.447-5.788  C208.439,281.559,213.104,272.215,212.222,266"/>
<path style="fill:#FFFFFF;" d="M215.445,287.07c-1.209-0.981-2.546-2.332-3.058-3.527c-0.213-0.796,0.583-3.883,1.095-5.945  c0.299-1.109,0.583-2.276,0.853-3.456c1.166,1.479,2.503,3.029,3.925,4.366c2.034,1.92,1.835,3.129,1.778,3.527  C219.754,283.912,217.351,285.889,215.445,287.07"/>
<path d="M216.208,280.612c0,0,0.014,11.036,10.908,15.374c13.412,5.348,22.656,3.129,23.765,3.57c1.124,0.441,0,11.335,0,11.335  s-14.82,2.446-27.961-3.783c-13.141-6.215-12.473-11.122-11.79-12.459s1.564-2.29,2.204-5.76  C213.932,285.661,216.208,280.612,216.208,280.612"/>
<path style="fill:#FFFFFF;" d="M243.678,308.514c-5.077,0-12.615-0.683-19.541-3.968c-9.5-4.508-10.667-7.964-10.453-8.661  c0.939-1.636,1.735-3.015,2.332-5.888c1.82,3.257,4.864,6.571,10.041,8.633c6.428,2.56,12.985,3.854,19.484,3.854  c1.166,0,2.176-0.028,3.001-0.071c0.014,1.508-0.1,3.726-0.284,5.916C247.105,308.429,245.541,308.514,243.678,308.514"/>
<path d="M312.389,266c0,0-3.541,6.244-7.993,10.439c-8.235,7.78,4.992,14.009,4.992,14.009s4.11-2.674,5.447-5.788  C316.172,281.559,311.507,272.215,312.389,266"/>
<path style="fill:#FFFFFF;" d="M309.167,287.07c1.209-0.981,2.546-2.332,3.058-3.527c0.213-0.796-0.569-3.883-1.095-5.945  c-0.299-1.109-0.583-2.276-0.853-3.456c-1.166,1.479-2.503,3.029-3.925,4.366c-2.034,1.92-1.835,3.129-1.778,3.527  C304.858,283.912,307.261,285.889,309.167,287.07"/>
<path d="M308.404,280.612c0,0-0.014,11.036-10.908,15.374c-13.412,5.348-22.656,3.129-23.78,3.57c-1.109,0.441,0,11.335,0,11.335  s14.848,2.446,27.975-3.783c13.141-6.215,12.473-11.122,11.79-12.459c-0.683-1.337-1.564-2.29-2.204-5.76  C310.679,285.661,308.404,280.612,308.404,280.612"/>
<path style="fill:#FFFFFF;" d="M280.93,308.514c5.077,0,12.615-0.683,19.541-3.968c9.5-4.508,10.667-7.964,10.453-8.661  c-0.939-1.636-1.735-3.015-2.332-5.888c-1.82,3.257-4.864,6.571-10.041,8.633c-6.428,2.56-12.985,3.854-19.484,3.854  c-1.166,0-2.176-0.028-3.001-0.071c-0.014,1.508,0.1,3.726,0.284,5.916C277.502,308.429,279.067,308.514,280.93,308.514"/>
<path d="M280.389,303.709c0,0-0.171,4.807-18.076,4.807c-17.92,0-18.091-4.807-18.091-4.807s-0.668,7.652,0,10.738  s5.333,4.892,18.091,4.892c12.743,0,17.408-1.806,18.076-4.892S280.389,303.709,280.389,303.709"/>
<path style="fill:#FFFFFF;" d="M262.305,316.485c-14.322,0-15.246-2.375-15.303-2.645c-0.213-0.953-0.256-2.688-0.228-4.537  c3.115,1.18,7.979,2.062,15.531,2.062c7.552,0,12.416-0.882,15.531-2.062c0.028,1.849-0.014,3.584-0.228,4.537  C277.552,314.11,276.627,316.485,262.305,316.485"/>
<g>
	<path style="fill:#FFD701;" d="M253.931,191.653l2.404,4.167h4.821l-2.418,4.181l2.418,4.167h-4.821l-2.404,4.181l-2.418-4.181   h-4.821l2.404-4.167l-2.404-4.181h4.821L253.931,191.653z"/>
	<path style="fill:#FFD701;" d="M234.875,193.861l3.271,3.527l4.708-1.081l-1.422,4.608l3.285,3.527l-4.693,1.081l-1.394,4.608   l-3.3-3.527l-4.693,1.081l1.408-4.608l-3.285-3.527l4.693-1.081L234.875,193.861z"/>
	<path style="fill:#FFD701;" d="M216.973,200l3.883,2.844l4.409-1.948l-0.526,4.793l3.897,2.844l-4.395,1.948l-0.512,4.779   l-3.897-2.83l-4.395,1.948l0.498-4.793l-3.897-2.83l4.409-1.963L216.973,200z"/>
	<path style="fill:#FFD701;" d="M271.905,191.653l-2.404,4.167h-4.821l2.418,4.181l-2.418,4.167h4.821l2.404,4.181l2.418-4.181   h4.821l-2.404-4.167l2.404-4.181h-4.821L271.905,191.653z"/>
	<path style="fill:#FFD701;" d="M290.958,193.861l-3.271,3.527l-4.708-1.081l1.422,4.608l-3.285,3.527l4.693,1.081l1.394,4.608   l3.3-3.527l4.693,1.081l-1.408-4.608l3.285-3.527l-4.693-1.081L290.958,193.861z"/>
	<path style="fill:#FFD701;" d="M308.861,200l-3.883,2.844l-4.409-1.948l0.526,4.793l-3.897,2.844l4.395,1.948l0.512,4.779   l3.897-2.83l4.395,1.948l-0.498-4.793l3.897-2.83l-4.409-1.963L308.861,200z"/>
</g>
<path style="fill:#A36629;" d="M262.305,293.333c-8.533,0-9.856-3.115-6.969-9.771c2.887-6.67,4.437-15.716,4.437-26.638  c0-10.923-3.883-13.369-8.391-17.593c-4.494-4.224,2.318-2.66,5.461,0c3.157,2.674,4.309,5.106,4.309,5.106v-10.212l3.527,1.109  v7.78c0,0,5.12-4.452,8.548-4.892c3.442-0.441,5.433,2.219,0.996,3.556c-4.452,1.337-9.543,3.627-9.543,15.147  c0,11.52,1.764,23.524,3.982,27.748C270.896,288.896,270.839,293.333,262.305,293.333"/>
<path style="fill:#009A3B;" d="M252.444,249.556c-4.523,2.375-7.723-2.887-7.723-2.887s-4.11,2.887-7.979,0.882  c-3.854-1.991-3.243-3.769,0-5.547c3.257-1.778,7.182-2.219,7.182-2.219s1.024-4.892,2.773-8.235  c1.749-3.328,4.693-4.665,4.693-4.665s3.584-7.78,9.756-8.22c6.187-0.441,6.187,6.002,6.187,6.002s3.826,0,4.58,2.219  c3.413-3.556,9.415-3.1,10.752-1.55c1.337,1.55,0,4.892,0,4.892s5.276-1.564,6.414,0.213c1.138,1.778,0,4.068,0,4.068  s4.252,0.825,2.247,5.49c-1.991,4.665-8.22,3.342-8.22,3.342s-2.517,2.66-5.262,2.432c-2.731-0.213-3.627-3.996-3.627-3.996  s-4.238,1.109-6.884-2.66c-2.66,3.996-7.552,1.778-8.22,0.213C258.446,244.45,257.109,247.109,252.444,249.556"/>
<g>
</g>
<g>
</g>
<g>
</g>
<g>
</g>
<g>
</g>
<g>
</g>
<g>
</g>
<g>
</g>
<g>
</g>
<g>
</g>
<g>
</g>
<g>
</g>
<g>
</g>
<g>
</g>
<g>
</g>
</svg>
