<?xml version="1.0" encoding="iso-8859-1"?>
<!-- Generator: Adobe Illustrator 19.0.0, SVG Export Plug-In . SVG Version: 6.00 Build 0)  -->
<svg xmlns="http://www.w3.org/2000/svg" xmlns:xlink="http://www.w3.org/1999/xlink" version="1.1" id="Capa_1" x="0px" y="0px" viewBox="0 0 512 512" style="enable-background:new 0 0 512 512;" xml:space="preserve">
<path style="fill:#141414;" d="M455.111,71.111H56.889C25.472,71.111,0,96.583,0,128v71.111V384  c0,31.417,25.472,56.889,56.889,56.889h398.222C486.528,440.889,512,415.417,512,384V199.111V128  C512,96.583,486.528,71.111,455.111,71.111z"/>
<path style="fill:#002488;" d="M455.111,71.111H56.889C25.472,71.111,0,96.583,0,128v71.111h512V128  C512,96.583,486.528,71.111,455.111,71.111z"/>
<path style="fill:#008000;" d="M412.444,405.042c0,0-119.396-62.82-177.18-81.778c-57.771-18.958-73.188-4.153-76.444,2.958  c6.229-16.882,12.743-21.02,12.743-21.02s-22.812,5.916-22.514,20.139c-4.75-12.743,11.25-28.444,32.284-28.743  c-18.958-2.66-51.854,0.299-57.771,18.958c0.284-19.243,33.778-24.59,47.403-23.993c-34.076-10.667-62.521-10.368-64.597,3.854  c-2.361-6.215,4.153-11.335,4.153-11.335s-13.34-1.124-19.854,4.807c-0.299-5.333,21.632-10.652,32.299-9.472  c-18.674-7.41-33.18-8.619-36.736-0.171c-1.195-9.913,33.479-12.572,49.479-9.017c-37.333-13.639-51.257-18.972-65.195-4.452  c0-10.069,12.146-13.924,20.75-13.028c-7.41-7.708-13.042-12.757-20.75-13.042c4.452-1.778,13.938,1.778,13.938,1.778  s-10.681-11.264-18.076-14.82c13.028,2.076,37.333,27.264,39.111,29.34s12.146,4.437,12.146,4.437s-33.778-27.548-34.958-36.437  c13.924,6.812,41.173,36.736,41.173,36.736s6.827,3.854,7.111,0.896c0.299-2.972-40.889-29.938-40.292-45.34  c8.292,11.563,20.153,24.59,20.153,24.59s-8.59-11.264-7.708-21.632c8.292,14.82,20.736,32.896,32,39.111  c-18.517-18.176-20.452-28.729-18.958-32.583c10.069,18.361,26.368,36.736,29.028,37.916c2.674,1.195,4.153,0.896,4.153,0.896  s-11.548-12.146-13.326-19.854C144,250.376,149.632,263.417,151.41,264c1.778,0.597,3.854-0.583,3.854-0.583  s-17.195-17.792-17.195-26.382c8.306,6.528,19.257,24.604,20.75,27.264c1.479,2.674,8.292,7.41,9.188,5.333  c0.882-2.076-24.604-25.188-17.195-29.042c11.861,9.785,18.674,24.007,19.854,24.306c1.18,0.299,6.514,2.361,5.632,0.583  c-0.896-1.778-16.711-21.774-12.743-32.882c0.868,11.776,13.042,34.361,34.076,39.41c21.035,5.035,83.556,47.104,125.326,59.548  c41.785,12.444,117.035,29.042,117.035,29.042l-2.361,3.556c0,0-110.521-29.042-110.521-28.146c0,0.882,3.271,3.854,3.271,3.854  s106.084,27.847,105.771,28.729c-0.299,0.896-2.375,5.049-2.375,5.049L326.229,340.16h-3.271c0,0,107.264,36.153,107.264,37.035  c0,0.896-2.062,4.736-2.062,4.736L317.34,340.16l3.556,4.153c0,0,105.785,40.277,105.486,41.472  c-0.313,1.195-2.972,4.153-2.972,4.153l-100.736-41.188l-5.931-1.479l104.889,45.326l-3.257,3.854l-97.479-43.25h-3.271  l98.674,48.882L412.444,405.042z"/>
<g>
	<path style="fill:#FCDD09;" d="M253.182,208.597c0,0-14.521,9.771,0.811,42.667c15.346,32.882,29.668,2.759,11.79-11.847   C251.261,227.556,251.247,215.424,253.182,208.597"/>
	<path style="fill:#FCDD09;" d="M260.521,424.265c0,0,14.535-9.771-0.811-42.667c-15.346-32.882-29.682-2.745-11.79,11.861   C262.441,405.307,262.455,417.438,260.521,424.265"/>
	<path style="fill:#FCDD09;" d="M275.486,210.158c0,0-16.228,6.571-7.993,41.913c8.235,35.342,28.459,8.818,13.966-9.173   C269.698,228.305,272.201,216.43,275.486,210.158"/>
	<path style="fill:#FCDD09;" d="M238.208,422.709c0,0,16.242-6.571,8.007-41.913c-8.235-35.356-28.473-8.818-13.98,9.173   C243.996,404.547,241.508,416.437,238.208,422.709"/>
	<path style="fill:#FCDD09;" d="M296.944,216.265c0,0-17.237,3.086-16.455,39.367c0.796,36.281,26.055,14.492,15.573-6.101   C287.543,232.834,292.436,221.726,296.944,216.265"/>
	<path style="fill:#FCDD09;" d="M216.757,416.612c0,0,17.237-3.1,16.455-39.381c-0.782-36.281-26.055-14.478-15.573,6.116   C226.158,400.014,221.279,411.136,216.757,416.612"/>
	<path style="fill:#FCDD09;" d="M316.805,226.731c0,0-17.493-0.54-24.249,35.115c-6.727,35.655,22.5,19.57,16.498-2.745   C304.176,240.996,311.258,231.154,316.805,226.731"/>
	<path style="fill:#FCDD09;" d="M196.895,406.138c0,0,17.508,0.54,24.249-35.115c6.741-35.669-22.5-19.57-16.512,2.759   C209.524,391.845,202.456,401.715,196.895,406.138"/>
	<path style="fill:#FCDD09;" d="M334.403,241.42c0,0-16.981-4.224-31.118,29.184c-14.108,33.451,17.849,23.893,16.697,0.811   C319.057,252.698,328.06,244.563,334.403,241.42"/>
	<path style="fill:#FCDD09;" d="M179.298,391.444c0,0,16.996,4.238,31.118-29.198c14.123-33.422-17.849-23.865-16.711-0.796   C194.658,380.137,185.655,388.301,179.298,391.444"/>
	<path style="fill:#FCDD09;" d="M348.819,260.007c0,0-15.687-7.808-36.708,21.76c-21.035,29.596,12.26,27.179,16.128,4.395   C331.369,267.686,341.936,261.713,348.819,260.007"/>
	<path style="fill:#FCDD09;" d="M164.89,372.861c0,0,15.673,7.808,36.693-21.76c21.035-29.582-12.245-27.164-16.142-4.409   C182.341,365.152,171.773,371.182,164.89,372.861"/>
	<path style="fill:#FCDD09;" d="M358.098,279.14c0,0-13.838-10.724-40.263,14.137c-26.411,24.903,6.699,29.056,14.962,7.495   C339.481,283.25,351.015,279.452,358.098,279.14"/>
	<path style="fill:#FCDD09;" d="M155.604,353.723c0,0,13.838,10.738,40.249-14.137c26.425-24.889-6.67-29.042-14.962-7.481   C174.221,349.584,162.701,353.438,155.604,353.723"/>
	<path style="fill:#FCDD09;" d="M363.82,302.333c0,0-11.122-13.497-42.382,4.935c-31.26,18.475,0.128,29.81,12.942,10.596   C344.763,302.247,356.851,301.095,363.82,302.333"/>
	<path style="fill:#FCDD09;" d="M149.883,330.528c0,0,11.122,13.511,42.368-4.949c31.26-18.46-0.114-29.781-12.942-10.581   C168.955,330.585,156.866,331.794,149.883,330.528"/>
	<path style="fill:#FCDD09;" d="M364.5,323.68c0,0-8.249-15.417-42.524-3.513c-34.276,11.975-5.746,29.269,10.596,12.942   C345.84,319.84,357.901,321.092,364.5,323.68"/>
	<path style="fill:#FCDD09;" d="M149.201,309.181c0,0,8.249,15.431,42.524,3.499c34.276-11.947,5.746-29.241-10.61-12.928   C167.889,312.993,155.786,311.798,149.201,309.181"/>
	<path style="fill:#FCDD09;" d="M360.543,346.236c0,0-4.807-16.811-40.818-12.402c-36.039,4.452-11.79,27.392,7.623,14.891   C343.106,338.556,354.64,342.325,360.543,346.236"/>
	<path style="fill:#FCDD09;" d="M153.159,286.625c0,0,4.793,16.825,40.818,12.388c36.025-4.423,11.79-27.364-7.637-14.876   C170.624,294.29,159.047,290.564,153.159,286.625"/>
	<path style="fill:#FCDD09;" d="M351.444,368.318c0,0-0.981-17.465-37.077-21.092c-36.153-3.57-17.55,24.135,4.153,16.213   C336.126,356.983,346.551,363.198,351.444,368.318"/>
	<path style="fill:#FCDD09;" d="M162.257,264.542c0,0,0.981,17.479,37.092,21.063c36.124,3.598,17.522-24.092-4.181-16.185   C177.603,275.863,167.135,269.69,162.257,264.542"/>
	<path style="fill:#FCDD09;" d="M339.611,385.653c0,0,2.418-17.323-32.299-27.861c-34.788-10.51-21.888,20.267,0.939,16.711   C326.782,371.573,335.799,379.68,339.611,385.653"/>
	<path style="fill:#FCDD09;" d="M174.09,247.207c0,0-2.418,17.337,32.313,27.847c34.745,10.524,21.86-20.238-0.953-16.683   C186.961,261.287,177.887,253.195,174.09,247.207"/>
	<path style="fill:#FCDD09;" d="M322.931,401.723c0,0,6.059-16.398-25.628-34.105c-31.716-17.707-25.685,15.118-2.631,16.526   C313.403,385.239,320.485,395.081,322.931,401.723"/>
	<path style="fill:#FCDD09;" d="M190.779,231.132c0,0-6.059,16.427,25.628,34.105c31.687,17.707,25.671-15.104,2.617-16.498   C200.35,247.644,193.196,237.802,190.779,231.132"/>
	<path style="fill:#FCDD09;" d="M304.111,413.417c0,0,9.273-14.82-18.105-38.628c-27.449-23.794-28.26,9.557-5.973,15.644   C298.152,395.341,303.073,406.434,304.111,413.417"/>
	<path style="fill:#FCDD09;" d="M209.597,219.43c0,0-9.287,14.848,18.119,38.628c27.406,23.808,28.217-9.543,5.931-15.616   C215.585,237.535,210.607,226.456,209.597,219.43"/>
	<path style="fill:#FCDD09;" d="M282.722,421.167c0,0,12.174-12.544-9.614-41.557c-21.831-29.028-29.625,3.413-9.102,14.023   C280.688,402.237,283.163,414.127,282.722,421.167"/>
	<path style="fill:#FCDD09;" d="M230.979,211.684c0,0-12.188,12.558,9.628,41.572c21.788,29.013,29.582-3.428,9.074-14.037   C233.041,230.642,230.495,218.752,230.979,211.684"/>
	<path style="fill:#FCDD09;" d="M329.211,316.375c0,40.206-32.597,72.804-72.804,72.804s-72.804-32.597-72.804-72.804   s32.597-72.804,72.804-72.804S329.211,276.169,329.211,316.375"/>
	<path style="fill:#FCDD09;" d="M88.875,162.375c0,0,0.612-21.035-13.028-32.299c-13.625-11.264-22.229,0.882-21.632,7.708   c0.597,6.812,6.485,15.701,17.323,18.958c-6.656-13.028,2.375-13.284,5.504-11.548c4.423,2.432,6.812,8.889,6.812,17.18H88.875z"/>
	<path style="fill:#FCDD09;" d="M95.112,89.188c-14.82,7.708-14.222,30.521-9.486,42.069c4.75,11.563,5.931,31.118,5.931,31.118   h3.556h3.556c0,0,1.18-19.556,5.931-31.118C109.334,119.708,109.931,96.896,95.112,89.188"/>
	<path style="fill:#FCDD09;" d="M101.348,162.375c0,0-0.612-21.035,13.028-32.299c13.625-11.264,22.229,0.882,21.632,7.708   c-0.597,6.812-6.485,15.701-17.323,18.958c6.656-13.028-2.375-13.284-5.504-11.548c-4.423,2.432-6.812,8.889-6.812,17.18H101.348z"/>
	<path style="fill:#FCDD09;" d="M95.112,165.041l-12.473,1.038l12.473,1.038l12.473-1.038L95.112,165.041z"/>
	<path style="fill:#FCDD09;" d="M111.333,180.445c-7.78-4.224-9.984-10.667-9.984-10.667h-6.244h-6.229   c0,0-2.204,6.443-9.984,10.667c6.884,1.109,13.995-2.446,13.995-2.446s-4.011,9.785,2.219,19.328   c6.244-9.543,2.233-19.328,2.233-19.328S104.45,181.554,111.333,180.445"/>
	<path style="fill:#FCDD09;" d="M249.763,162.375c0,0,0.612-21.035-13.028-32.299c-13.625-11.264-22.229,0.882-21.632,7.708   c0.597,6.812,6.485,15.701,17.323,18.958c-6.656-13.028,2.375-13.284,5.504-11.548c4.423,2.432,6.812,8.889,6.812,17.18H249.763z"/>
	<path style="fill:#FCDD09;" d="M256,89.188c-14.82,7.708-14.222,30.521-9.486,42.069c4.75,11.563,5.931,31.118,5.931,31.118H256   h3.556c0,0,1.18-19.556,5.931-31.118C270.222,119.708,270.82,96.896,256,89.188"/>
	<path style="fill:#FCDD09;" d="M262.237,162.375c0,0-0.612-21.035,13.028-32.299c13.625-11.264,22.229,0.882,21.618,7.708   c-0.583,6.812-6.471,15.701-17.308,18.958c6.642-13.028-2.375-13.284-5.504-11.548c-4.423,2.432-6.812,8.889-6.812,17.18H262.237z"/>
	<path style="fill:#FCDD09;" d="M256,165.041l-12.473,1.038L256,167.118l12.473-1.038L256,165.041z"/>
	<path style="fill:#FCDD09;" d="M272.222,180.445c-7.78-4.224-9.984-10.667-9.984-10.667h-6.244h-6.229   c0,0-2.204,6.443-9.984,10.667c6.884,1.109,13.995-2.446,13.995-2.446s-4.011,9.785,2.219,19.328   c6.244-9.543,2.233-19.328,2.233-19.328S265.338,181.554,272.222,180.445"/>
	<path style="fill:#FCDD09;" d="M411.763,162.375c0,0,0.612-21.035-13.013-32.299c-13.639-11.264-22.244,0.882-21.646,7.708   c0.597,6.812,6.485,15.701,17.308,18.958c-6.642-13.028,2.389-13.284,5.518-11.548c4.423,2.432,6.812,8.889,6.812,17.18H411.763z"/>
	<path style="fill:#FCDD09;" d="M418,89.188c-14.82,7.708-14.222,30.521-9.472,42.069c4.736,11.563,5.916,31.118,5.916,31.118H418   h3.556c0,0,1.18-19.556,5.916-31.118C432.223,119.708,432.82,96.896,418,89.188"/>
	<path style="fill:#FCDD09;" d="M424.236,162.375c0,0-0.612-21.035,13.028-32.299c13.625-11.264,22.229,0.882,21.618,7.708   c-0.583,6.812-6.471,15.701-17.308,18.958c6.642-13.028-2.375-13.284-5.504-11.548c-4.423,2.432-6.827,8.889-6.827,17.18H424.236z"/>
	<path style="fill:#FCDD09;" d="M418,165.041l-12.473,1.038L418,167.118l12.473-1.038L418,165.041z"/>
	<path style="fill:#FCDD09;" d="M434.223,180.445c-7.78-4.224-9.984-10.667-9.984-10.667h-6.244h-6.229   c0,0-2.204,6.443-9.984,10.667c6.884,1.109,13.995-2.446,13.995-2.446s-4.011,9.785,2.219,19.328   c6.244-9.543,2.233-19.328,2.233-19.328S427.339,181.554,434.223,180.445"/>
</g>
<g>
</g>
<g>
</g>
<g>
</g>
<g>
</g>
<g>
</g>
<g>
</g>
<g>
</g>
<g>
</g>
<g>
</g>
<g>
</g>
<g>
</g>
<g>
</g>
<g>
</g>
<g>
</g>
<g>
</g>
</svg>
