<?xml version="1.0" encoding="iso-8859-1"?>
<!-- Generator: Adobe Illustrator 19.0.0, SVG Export Plug-In . SVG Version: 6.00 Build 0)  -->
<svg xmlns="http://www.w3.org/2000/svg" xmlns:xlink="http://www.w3.org/1999/xlink" version="1.1" id="Capa_1" x="0px" y="0px" viewBox="0 0 512 512" style="enable-background:new 0 0 512 512;" xml:space="preserve">
<path style="fill:#EEEEEE;" d="M455.111,71.111H56.889C25.472,71.111,0,96.583,0,128v113.778V256v128  c0,31.417,25.472,56.889,56.889,56.889h398.222C486.528,440.889,512,415.417,512,384V256v-14.222V128  C512,96.583,486.528,71.111,455.111,71.111z"/>
<path style="fill:#D00C33;" d="M0,384c0,31.417,25.472,56.889,56.889,56.889h398.222C486.528,440.889,512,415.417,512,384V256H0V384  z"/>
<path style="fill:#EEEEEE;" d="M305.778,256c0,62.834-50.944,113.778-113.778,113.778S78.222,318.834,78.222,256  S129.166,142.222,192,142.222S305.778,193.166,305.778,256"/>
<path style="fill:#D00C33;" d="M192,142.222c-62.834,0-113.778,50.944-113.778,113.778h227.556  C305.778,193.166,254.834,142.222,192,142.222"/>
<g>
</g>
<g>
</g>
<g>
</g>
<g>
</g>
<g>
</g>
<g>
</g>
<g>
</g>
<g>
</g>
<g>
</g>
<g>
</g>
<g>
</g>
<g>
</g>
<g>
</g>
<g>
</g>
<g>
</g>
</svg>
