<?xml version="1.0" encoding="iso-8859-1"?>
<!-- Generator: Adobe Illustrator 19.0.0, SVG Export Plug-In . SVG Version: 6.00 Build 0)  -->
<svg xmlns="http://www.w3.org/2000/svg" xmlns:xlink="http://www.w3.org/1999/xlink" version="1.1" id="Capa_1" x="0px" y="0px" viewBox="0 0 512 512" style="enable-background:new 0 0 512 512;" xml:space="preserve">
<g transform="matrix(1.25 0 0 -1.25 0 45)">
	<g>
		<g>
			<path style="fill:#DA1C0B;" d="M409.6-271.2c0-25.134-20.378-45.511-45.511-45.511H45.511C20.378-316.711,0-296.334,0-271.2     v56.889h409.6V-271.2z"/>
			<path style="fill:#EEEEEE;" d="M364.089-20.889H45.511C20.378-20.889,0-41.266,0-66.4v-159.289h409.6V-66.4     C409.6-41.266,389.222-20.889,364.089-20.889"/>
			<g>
				<path style="fill:#DA1C0B;" d="M164.42-81.908v-8.852h-8.852v8.852h-17.715v-8.852h-8.863v8.852h-8.852v-8.852v-8.863l0,0h8.852      v-44.282h35.43v44.282h0.011h8.852l0,17.715H164.42z"/>
				<path style="fill:#DA1C0B;" d="M173.409-126.19v-8.852h-8.863v8.852h-8.852v-8.852h-17.715v8.852h-8.863v-8.852h-8.852v8.852      h-8.852v-8.852v-8.863v0.011v-0.011h8.852v-48.401l-8.852-4.733l0,0v-8.852h8.852h53.146h8.852v8.852l-8.852,4.733v48.401h8.852      v8.863v8.852H173.409z"/>
			</g>
			<path d="M155.568-135.042h-17.715v17.715h17.715V-135.042z"/>
			<path d="M155.568-117.338c0-4.892-3.959-8.852-8.852-8.852c-4.892,0-8.863,3.959-8.863,8.852c0,4.892,3.971,8.852,8.863,8.852     C151.609-108.486,155.568-112.446,155.568-117.338"/>
			<path id="SVGCleanerId_0" d="M155.568-173.124c0,7.066-1.786,12.8-8.852,12.8c-7.066,0-8.863-5.734-8.863-12.8v-15.076h17.715     V-173.124z"/>
			<g>
				<path style="fill:#DA1C0B;" d="M283.42-81.908v-8.852h-8.852v8.852h-17.715v-8.852h-8.852v8.852h-8.875v-8.852v-8.863h0.011      h8.863v-44.282h35.419v44.282h8.863v17.715H283.42z"/>
				<path style="fill:#DA1C0B;" d="M292.284-126.19v-8.852h-8.863v8.852h-8.863v-8.852h-17.704v8.852h-8.863v-8.852h-8.863v8.852      h-8.841v-8.852v-8.863v0.011v-0.011h8.841v-48.401l-8.841-4.733v-8.852h8.841h53.157h8.841v8.852l-8.841,4.733v48.401h8.841      v8.863v8.852H292.284z"/>
			</g>
			<path d="M274.569-135.042h-17.715v17.715h17.715V-135.042z"/>
			<path d="M274.546-117.338c0-4.892-3.971-8.852-8.852-8.852c-4.892,0-8.863,3.959-8.863,8.852c0,4.892,3.971,8.852,8.863,8.852     C270.575-108.486,274.546-112.446,274.546-117.338"/>
			<g transform="translate(10.459)">
				<path id="SVGCleanerId_0_1_" d="M274.569-173.124c0,7.066-1.786,12.8-8.852,12.8c-7.066,0-8.863-5.734-8.863-12.8v-15.076      h17.715V-173.124z"/>
			</g>
			<g>
				<path style="fill:#DA1C0B;" d="M227.556-55.022V-66.4h-11.378v11.378h-22.756V-66.4h-11.378v11.378h-11.378V-66.4v-11.378h0.011      h11.366v-56.889h45.511v56.889h0.011h11.366v22.756H227.556z"/>
				<path style="fill:#DA1C0B;" d="M238.933-111.911v-11.378h-11.378v11.378h-11.378v-11.378h-22.756v11.378h-11.378v-11.378      h-11.378v11.378h-11.378v-102.4h91.022v102.4H238.933z"/>
			</g>
			<path d="M216.178-123.278h-22.756v22.756h22.756V-123.278z"/>
			<path d="M216.178-100.533c0-6.281-5.097-11.378-11.378-11.378s-11.378,5.097-11.378,11.378c0,6.281,5.097,11.378,11.378,11.378     S216.178-94.253,216.178-100.533"/>
			<path d="M221.23-172.191c0,9.079-7.35,16.441-16.43,16.441s-16.441-7.361-16.441-16.441v-24.656h32.87V-172.191z"/>
			<path style="fill:#FFF100;" d="M206.62-229.66v-1.525l12.277-12.254l-12.277-12.265v-53.68h-3.959v6.007H189.11v8.044h3.959     v-4.119h9.591v11.947h-9.591v-4.039h-3.959v7.987h13.551v27.876l-12.288,12.242l12.288,12.208v1.57H206.62z"/>
			<path style="fill:#DA1C0B;" d="M204.663-251.949l8.511,8.511l-8.511,8.522l-8.511-8.522L204.663-251.949z"/>
			<g>
				<path style="fill:#FFF100;" d="M207.724-229.66c0-2.378-1.263-4.289-2.81-4.289c-1.559,0-2.833,1.911-2.833,4.289v15.349      c0,2.355,1.274,4.267,2.833,4.267c1.547,0,2.81-1.911,2.81-4.267V-229.66z M206.473-206.586h-3.345      c-2.765,0-5.006-3.402-5.006-7.612v-15.223c0-4.198,2.241-7.6,5.006-7.6h3.345c2.765,0,5.018,3.402,5.018,7.6v15.223      C211.49-209.988,209.237-206.586,206.473-206.586"/>
				<path style="fill:#FFF100;" d="M219.887-194.571c-1.217,0.683-2.844,0.66-3.618-0.034L204.8-204.947l-11.469,10.342      c-0.774,0.694-2.389,0.717-3.618,0.034c-1.229-0.671-1.593-1.775-0.819-2.48l14.017-12.607c0.444-0.387,1.138-0.512,1.889-0.466      c0.751-0.046,1.445,0.08,1.889,0.466l14.017,12.607C221.491-196.346,221.116-195.242,219.887-194.571"/>
			</g>
		</g>
	</g>
</g>
<g>
</g>
<g>
</g>
<g>
</g>
<g>
</g>
<g>
</g>
<g>
</g>
<g>
</g>
<g>
</g>
<g>
</g>
<g>
</g>
<g>
</g>
<g>
</g>
<g>
</g>
<g>
</g>
<g>
</g>
</svg>
