<?xml version="1.0" encoding="iso-8859-1"?>
<!-- Generator: Adobe Illustrator 19.0.0, SVG Export Plug-In . SVG Version: 6.00 Build 0)  -->
<svg xmlns="http://www.w3.org/2000/svg" xmlns:xlink="http://www.w3.org/1999/xlink" version="1.1" id="Capa_1" x="0px" y="0px" viewBox="0 0 512 512" style="enable-background:new 0 0 512 512;" xml:space="preserve">
<path style="fill:#EEEEEE;" d="M455.111,71.111H56.889C25.472,71.111,0,96.583,0,128v256c0,31.417,25.472,56.889,56.889,56.889  h398.222C486.528,440.889,512,415.417,512,384V128C512,96.583,486.528,71.111,455.111,71.111z"/>
<path style="fill:#E8112D;" d="M298.667,440.889h-85.333V298.667H0v-85.333h213.333V71.111h85.333v142.222H512v85.333H298.667  V440.889z"/>
<g>
	<path style="fill:#F9DD16;" d="M270.222,135.111l14.222-14.222h-14.222h-28.444h-14.222l14.222,14.222v241.778l-14.222,14.222   h14.222h28.444h14.222l-14.222-14.222V135.111z"/>
	<path style="fill:#F9DD16;" d="M391.111,241.778H120.889l-14.222-14.222v56.889l14.222-14.222h270.222l14.222,14.222v-56.889   L391.111,241.778z"/>
</g>
<g>
</g>
<g>
</g>
<g>
</g>
<g>
</g>
<g>
</g>
<g>
</g>
<g>
</g>
<g>
</g>
<g>
</g>
<g>
</g>
<g>
</g>
<g>
</g>
<g>
</g>
<g>
</g>
<g>
</g>
</svg>
