<?xml version="1.0" encoding="iso-8859-1"?>
<!-- Generator: Adobe Illustrator 19.0.0, SVG Export Plug-In . SVG Version: 6.00 Build 0)  -->
<svg xmlns="http://www.w3.org/2000/svg" xmlns:xlink="http://www.w3.org/1999/xlink" version="1.1" id="Capa_1" x="0px" y="0px" viewBox="0 0 512 512" style="enable-background:new 0 0 512 512;" xml:space="preserve">
<g transform="matrix(1.25 0 0 -1.25 0 45)">
	<g>
		<g>
			<path style="fill:#078930;" d="M364.089-20.889H45.511c-11.446,0-21.788-4.369-29.787-11.355l168.914-121.993h9.421     l10.741,33.064l10.741-33.064h34.77l-28.126-20.434l2.833-8.738l168.858-121.947c9.557,8.34,15.724,20.469,15.724,34.156v204.8     C409.6-41.266,389.222-20.889,364.089-20.889"/>
			<path style="fill:#FCDD09;" d="M232.926-207.735L204.8-187.3l-28.126-20.434l10.741,33.064l-28.126,20.434h25.35L15.724-32.244     C6.167-40.584,0-52.713,0-66.4v-204.8c0-25.134,20.378-45.511,45.511-45.511h318.578c11.446,0,21.788,4.38,29.787,11.355     L225.018-183.398L232.926-207.735z"/>
			<path style="fill:#DA121A;" d="M187.415-174.671l-10.741-33.064L204.8-187.3l28.126-20.434l-7.908,24.337l-2.833,8.727     l28.126,20.434h-34.77L204.8-121.173l-10.741-33.064h-9.432h-25.338L187.415-174.671z"/>
		</g>
	</g>
</g>
<g>
</g>
<g>
</g>
<g>
</g>
<g>
</g>
<g>
</g>
<g>
</g>
<g>
</g>
<g>
</g>
<g>
</g>
<g>
</g>
<g>
</g>
<g>
</g>
<g>
</g>
<g>
</g>
<g>
</g>
</svg>
