<?xml version="1.0" encoding="iso-8859-1"?>
<!-- Generator: Adobe Illustrator 19.0.0, SVG Export Plug-In . SVG Version: 6.00 Build 0)  -->
<svg xmlns="http://www.w3.org/2000/svg" xmlns:xlink="http://www.w3.org/1999/xlink" version="1.1" id="Capa_1" x="0px" y="0px" viewBox="0 0 512 512" style="enable-background:new 0 0 512 512;" xml:space="preserve">
<path style="fill:#CE1126;" d="M455.111,71.111H56.889C25.472,71.111,0,96.583,0,128v256c0,31.417,25.472,56.889,56.889,56.889  h398.222C486.528,440.889,512,415.417,512,384V128C512,96.583,486.528,71.111,455.111,71.111z"/>
<g transform="translate(3.5 27.5)">
	<path style="fill:#007A5E;" d="M46.278,93.389h412.444v270.222H46.278V93.389z"/>
	<path style="fill:#FCD116;" d="M46.278,93.389h412.444L46.278,363.611h412.444L46.278,93.389z"/>
</g>
<path style="fill:#CE1126;" d="M305.778,256c0,27.492-22.286,49.778-49.778,49.778S206.222,283.492,206.222,256  s22.286-49.778,49.778-49.778S305.778,228.508,305.778,256"/>
<g>
	<path style="fill:#FCD116;" d="M256,210.465l10.226,31.46h33.081l-26.766,19.442l10.226,31.474L256,273.384l-26.766,19.456   l10.226-31.474l-26.766-19.442h33.081L256,210.465z"/>
	<path style="fill:#FCD116;" d="M256,73.7l5.49,16.896h17.764l-14.364,10.439l5.49,16.896L256,107.492l-14.379,10.439l5.49-16.896   l-14.364-10.439h17.764L256,73.7z"/>
	<path style="fill:#FCD116;" d="M370.064,73.7l5.49,16.896h17.764l-14.364,10.439l5.49,16.896l-14.379-10.439l-14.379,10.439   l5.49-16.896l-14.364-10.439h17.764L370.064,73.7z"/>
	<path style="fill:#FCD116;" d="M141.936,73.7l5.49,16.896h17.764l-14.364,10.439l5.49,16.896l-14.379-10.439l-14.379,10.439   l5.49-16.896l-14.364-10.439h17.764L141.936,73.7z"/>
	<path style="fill:#FCD116;" d="M256,393.701l5.49,16.896h17.764l-14.364,10.439l5.49,16.896L256,427.493l-14.379,10.439   l5.49-16.896l-14.364-10.439h17.764L256,393.701z"/>
	<path style="fill:#FCD116;" d="M370.064,393.701l5.49,16.896h17.764l-14.364,10.439l5.49,16.896l-14.379-10.439l-14.379,10.439   l5.49-16.896l-14.364-10.439h17.764L370.064,393.701z"/>
	<path style="fill:#FCD116;" d="M141.936,393.701l5.49,16.896h17.764l-14.364,10.439l5.49,16.896l-14.379-10.439l-14.379,10.439   l5.49-16.896l-14.364-10.439h17.764L141.936,393.701z"/>
</g>
<path style="fill:#CE1126;" d="M87.01,271.173c4.324,4.48,9.173,8.235,13.682,10.126c0.071-4.964-0.811-10.638-2.332-16.327  c-3.812-3.57-8.121-6.599-12.345-8.206C85.403,261.289,85.844,266.338,87.01,271.173"/>
<path style="fill:#FCD116;" d="M108.695,278.231c11.42-41.472-29.298-38.94-39.865-52.196c7.282,15.189-18.901,51.442,24.732,59.932  c-2.887-3.925-5.205-9.23-6.556-14.791c-1.166-4.85-1.607-9.884-0.996-14.407c4.224,1.607,8.533,4.636,12.359,8.206  C102.822,269.143,106.591,274.035,108.695,278.231"/>
<g>
</g>
<g>
</g>
<g>
</g>
<g>
</g>
<g>
</g>
<g>
</g>
<g>
</g>
<g>
</g>
<g>
</g>
<g>
</g>
<g>
</g>
<g>
</g>
<g>
</g>
<g>
</g>
<g>
</g>
</svg>
