<?xml version="1.0" encoding="iso-8859-1"?>
<!-- Generator: Adobe Illustrator 19.0.0, SVG Export Plug-In . SVG Version: 6.00 Build 0)  -->
<svg xmlns="http://www.w3.org/2000/svg" xmlns:xlink="http://www.w3.org/1999/xlink" version="1.1" id="Capa_1" x="0px" y="0px" viewBox="0 0 512 512" style="enable-background:new 0 0 512 512;" xml:space="preserve">
<g transform="matrix(1.25 0 0 -1.25 0 45)">
	<g>
		<g>
			<g>
				<path style="fill:#EEEEEE;" d="M107.452-20.889H45.511C20.366-20.889,0-41.266,0-66.4v-62.578h107.452V-20.889z"/>
				<path style="fill:#EEEEEE;" d="M409.6-128.978V-66.4c0,25.134-20.378,45.511-45.511,45.511H187.733v-108.089H409.6z"/>
			</g>
			<g>
				<path style="fill:#0065BD;" d="M409.6-146.044v17.067H187.733v108.089h-17.067v-125.156H409.6z"/>
				<path style="fill:#0065BD;" d="M125.156-20.889h-17.704v-108.089H0v-17.067h125.156V-20.889z"/>
			</g>
			<g>
				<path style="fill:#EEEEEE;" d="M0-208.622v-22.994v-28.911V-271.2c0-25.134,20.378-45.511,45.511-45.511h61.941v56.183v28.911      v22.994H0z"/>
				<path style="fill:#EEEEEE;" d="M187.733-208.622v-108.089h176.356c25.134,0,45.511,20.378,45.511,45.511v62.578H187.733z"/>
			</g>
			<path style="fill:#ED2939;" d="M170.667-146.044v125.156h-45.511v-125.156H0v-45.511h125.156v-125.156h45.511v125.156H409.6     v45.511H170.667z"/>
			<g>
				<path style="fill:#0065BD;" d="M170.667-191.556v-125.156h17.067v108.089H409.6v17.067H170.667z"/>
				<path style="fill:#0065BD;" d="M125.156-191.556H0v-17.067h107.452v-108.089h17.704V-191.556z"/>
			</g>
		</g>
	</g>
</g>
<g>
</g>
<g>
</g>
<g>
</g>
<g>
</g>
<g>
</g>
<g>
</g>
<g>
</g>
<g>
</g>
<g>
</g>
<g>
</g>
<g>
</g>
<g>
</g>
<g>
</g>
<g>
</g>
<g>
</g>
</svg>
