<?xml version="1.0" encoding="iso-8859-1"?>
<!-- Generator: Adobe Illustrator 19.0.0, SVG Export Plug-In . SVG Version: 6.00 Build 0)  -->
<svg xmlns="http://www.w3.org/2000/svg" xmlns:xlink="http://www.w3.org/1999/xlink" version="1.1" id="Capa_1" x="0px" y="0px" viewBox="0 0 512 512" style="enable-background:new 0 0 512 512;" xml:space="preserve">
<path style="fill:#75B2DD;" d="M455.111,71.111H56.889C25.548,71.111,0,96.462,0,127.774v256.452  c0,31.256,25.458,56.663,56.722,56.663h398.557C486.618,440.889,512,415.361,512,384V128C512,96.583,486.528,71.111,455.111,71.111z  "/>
<g>
	<path style="fill:#FFFFFF;" d="M260.267,108.089l-8.306,25.557h-26.866l21.732,15.787l-8.292,25.543l21.732-15.787l21.732,15.787   l-8.292-25.543l21.732-15.787h-26.866L260.267,108.089z"/>
	<path style="fill:#FFFFFF;" d="M382.625,247.698v-26.866l-15.787,21.732l-25.557-8.306l15.787,21.746l-15.787,21.732l25.557-8.306   l15.787,21.732v-26.866l25.557-8.292L382.625,247.698z"/>
	<path style="fill:#FFFFFF;" d="M273.699,362.569l8.306-25.557l-21.746,15.801l-21.732-15.801l8.306,25.557l-21.732,15.787h26.866   l8.292,25.557l8.306-25.557h26.866L273.699,362.569z"/>
	<path style="fill:#FFFFFF;" d="M153.698,242.568l-15.787-21.732v26.866l-25.557,8.306l25.557,8.292v26.866l15.787-21.732   l25.557,8.306l-15.801-21.732l15.801-21.746L153.698,242.568z"/>
</g>
<g>
</g>
<g>
</g>
<g>
</g>
<g>
</g>
<g>
</g>
<g>
</g>
<g>
</g>
<g>
</g>
<g>
</g>
<g>
</g>
<g>
</g>
<g>
</g>
<g>
</g>
<g>
</g>
<g>
</g>
</svg>
