<?xml version="1.0" encoding="iso-8859-1"?>
<!-- Generator: Adobe Illustrator 19.0.0, SVG Export Plug-In . SVG Version: 6.00 Build 0)  -->
<svg xmlns="http://www.w3.org/2000/svg" xmlns:xlink="http://www.w3.org/1999/xlink" version="1.1" id="Capa_1" x="0px" y="0px" viewBox="0 0 512 512" style="enable-background:new 0 0 512 512;" xml:space="preserve">
<path style="fill:#00247D;" d="M455.112,71.113H56.894c-31.417,0-56.888,25.472-56.888,56.888v255.997  c0,31.417,25.472,56.888,56.888,56.888h398.218c31.417,0,56.888-25.472,56.888-56.888V128.001  C512,96.585,486.528,71.113,455.112,71.113z"/>
<path style="fill:#EEEEEE;" d="M270.225,256v-28.857l-100.977-70.698H94.881L237.059,256H270.225z"/>
<path style="fill:#CF1B2B;" d="M270.225,235.833l-113.364-79.388h-24.789l138.153,96.738L270.225,235.833L270.225,235.833z"/>
<path style="fill:#EEEEEE;" d="M115.199,156.446L0,238.45V256h47.388l142.192-99.554L115.199,156.446L115.199,156.446z"/>
<path style="fill:#CF1B2B;" d="M152.379,156.446L10.443,256h3.783h20.778l142.178-99.554L152.379,156.446L152.379,156.446z"/>
<path style="fill:#EEEEEE;" d="M237.072,71.113L94.894,170.668h74.367L270.223,99.97V71.113H237.072z"/>
<path style="fill:#CF1B2B;" d="M249.447,71.113l-142.164,99.554h24.789l138.153-96.738v-2.816H249.447z"/>
<path style="fill:#EEEEEE;" d="M9.432,96.649l132.795,92.949v-18.93h47.331L48.315,71.758C32.088,74.214,18.117,83.528,9.432,96.649  z"/>
<path style="fill:#CF1B2B;" d="M13.785,90.906l128.441,90.031v-10.268h10.155L24.589,81.185  C20.584,83.954,16.955,87.226,13.785,90.906z"/>
<path style="fill:#EEEEEE;" d="M270.225,128.001h-99.554V71.113H99.56v56.888H0.006v71.11H99.56V256h71.11v-56.888h99.554V128.001z"/>
<g>
	<path style="fill:#CF1B2B;" d="M156.449,256h-42.666V71.113h42.666V256z"/>
	<path style="fill:#CF1B2B;" d="M270.225,184.89H0.006v-42.666h270.219V184.89z"/>
</g>
<path style="fill:#BA6747;" d="M331.073,322.222c3.926-7.339,6.656-14.663,9.841-16.881c3.2-2.233,21.12-0.455,24.604,3.556  c3.484,3.997,1.707,24.661-5.176,36.21c-6.898,11.563-19.726,16-24.533,15.118c-4.807-0.896-7.921-9.557-8.803-12.672  c-0.896-3.114,2.048-4.224,8.803-2.219c6.755,2.006,16.754-15.118,16.526-21.333c-5.775-4.224-10.837-0.896-13.084,4.224  C337.003,333.33,331.073,322.222,331.073,322.222"/>
<path style="fill:#D7A896;" d="M322.112,337.111c0.939,4.139,4.807,13.966,8.96,19.428c-2.019-12.117,7.04-8.32,6.372-3.428  c3.114,0.882-0.825-6.883-1.636-11.335c-0.81-4.437-0.142-13.113-7.481-12.658C321.002,329.558,321.429,334.137,322.112,337.111"/>
<path style="fill:#BA6747;" d="M463.819,322.222c-3.926-7.339-6.656-14.663-9.841-16.881c-3.2-2.233-21.12-0.455-24.604,3.556  c-3.484,3.997-1.707,24.661,5.176,36.21c6.898,11.563,19.726,16,24.533,15.118c4.807-0.896,7.807-9.557,8.69-12.672  c0.896-3.114-2.048-4.224-8.803-2.219c-6.741,2.006-16.64-15.118-16.412-21.333c5.775-4.224,10.837-0.896,13.084,4.224  C457.889,333.33,463.819,322.222,463.819,322.222"/>
<path style="fill:#E9CFC6;" d="M468.045,333.558c1.038-4.437-4.224-11.335-7.552-17.963c-13.567,25.486-49.351,28.814-63.047,28.856  c-13.696-0.043-49.465-3.37-63.032-28.856c-3.342,6.628-8.604,13.526-7.566,17.963c1.052,4.437,33.237,27.548,70.385,27.748v0.028  c0.056,0,0.142-0.015,0.213-0.015c0.071,0,0.157,0.015,0.228,0.015v-0.028C434.808,361.106,467.007,337.995,468.045,333.558"/>
<path style="fill:#D7A896;" d="M472.778,337.111c-0.939,4.139-4.807,13.966-8.96,19.428c2.019-12.117-7.04-8.32-6.372-3.428  c-3.114,0.882,0.825-6.883,1.636-11.335c0.81-4.437,0.142-13.113,7.481-12.658C473.888,329.558,473.461,334.137,472.778,337.111"/>
<path style="fill:#FFFFFF;" d="M397.625,151.411h-66.659v92.443c0,81.18,66.659,98.957,66.659,98.957s66.659-17.778,66.659-98.957  v-92.443H397.625z"/>
<path style="fill:#0072C4;" d="M397.612,337.111c-7.353-2.204-61.922-21.063-61.922-93.154v-86.94h123.859v86.94  C459.549,315.379,404.48,334.949,397.612,337.111"/>
<path style="fill:#FFFFFF;" d="M371.113,237.333c1.55-6.215,2.659-14.89-1.11-16.228c-3.784-1.323-10.468-5.333-12.686-12.444  c-2.204-7.111-1.095-23.552-3.086-24.661c-2.006-1.11-8.007,1.55-11.563-2.887c-3.556-4.452-1.336-6.002,1.11-7.552  c2.446-1.564,9.33-5.12,8.889-6.443c-0.441-1.336,0.441-3.456,4.65-4.892c7.794-2.674,14.023,4.224,16.455,6.883  c2.446,2.674,8.889,6.229,11.79,6.443c2.887,0.228,37.774,0.668,41.77,1.11c3.997,0.455,14.222,3.114,13.34,15.332  c-0.896,12.231-2.616,24.007-4.309,26.225c-1.692,2.233-2.802,2.887-2.802,2.887s1.778,9.785,1.55,11.563s-3.328,2.446-3.556-0.668  s-1.336-10.439-1.336-10.439l-6.001-1.11c0,0,0.228,10.667-1.778,13.767c-1.991,3.114-7.111,1.11-5.775-1.11  c1.336-2.219,2.006-4.224,2.006-6.883c0-2.674-0.668-6.67-2.006-7.111c-1.336-0.441-7.993,2.219-12.886,2.219  c-4.892,0-15.786-3.114-17.778-1.336c-2.006,1.778-4.665,10.895-6.002,16c-1.336,5.12-3.556,2.006-3.328-0.441  c0.213-2.446,1.11-10.667-0.228-9.33s-0.896,7.552-1.778,9.557C373.773,237.775,371.113,237.333,371.113,237.333"/>
<path style="fill:#015121;" d="M355.335,226.224c0,0,2.887,16.569,13.781,23.779c10.88,7.197,56.576,5.333,64.441-0.228  c7.865-5.547,15.104-19.114,15.104-19.114s-6.443,0-8.661-2.432c-6.443,3.556-10.225,1.991-11.548-0.228  c-5.12,5.105-4.679,2.006-5.333,0.441c-4.452,5.12-10.895,2.006-12.899,0.228c-4.437,2.887-11.108,1.11-12.444-0.668  c-5.105,4.437-12.658,3.328-14.222,1.336c-3.328,5.547-8.221,3.555-10.88,1.778c-3.784,3.555-5.333-0.455-6.67-2.887  C362.886,233.563,357.781,229.779,355.335,226.224"/>
<g>
	<path style="fill:#FFFFFF;" d="M333.115,247.112c0,0,6.883,0.882,12.216-3.997c5.333-4.892,14.45-7.339,21.12,0   c6.67,7.324,14.222,7.111,19.997,1.11c5.775-6.001,14.45-8.846,22.67-0.655c8.221,8.206,15.332,4.693,20.224,0   c4.878-4.679,15.104-7.751,21.774,0c6.67,7.766,11.335,3.541,11.335,3.541l-2.887,20.437c0,0-2.006,0.455-8.221-4.878   c-6.229-5.333-14.89-7.339-21.12-0.668c-6.215,6.67-15.559,6.883-22.215,0.441c-6.67-6.443-14.45-5.775-20.224-0.668   c-5.775,5.12-15.786,7.552-23.779,0c-8.007-7.552-14.89-3.769-18.887,0.228c-4.01,3.997-9.415,5.561-9.415,5.561L333.115,247.112z"/>
	<path style="fill:#FFFFFF;" d="M339.96,283.597c1.763-0.597,3.655-1.564,5.376-3.157c5.333-4.878,14.45-7.324,21.105,0   c6.67,7.339,14.222,7.111,20.01,1.123c5.775-6.001,14.435-8.861,22.656-0.64c8.221,8.192,15.332,4.679,20.224,0   c4.892-4.693,15.118-7.766,21.774,0c1.336,1.536,2.588,2.603,3.741,3.328c1.152,4.423-5.105,14.478-5.959,13.923   c-5.902-3.868-13.227-4.679-18.659,1.166c-6.229,6.656-15.559,6.883-22.229,0.441c-6.67-6.443-14.435-5.775-20.224-0.668   c-5.775,5.105-15.772,7.552-23.779,0c-6.912-6.542-13.013-4.579-17.109-1.351C346.246,298.259,336.277,284.862,339.96,283.597"/>
	<path style="fill:#FFFFFF;" d="M357.321,312.737c3.172,0.199,6.357,1.55,9.13,4.594c6.656,7.339,14.222,7.111,19.997,1.11   s14.435-8.846,22.67-0.64c8.221,8.206,15.332,4.693,20.21,0c1.778-1.707,4.267-3.2,7.04-4.039   c-9.159,13.141-35.256,26.481-38.74,26.468C394.098,340.214,365.783,327.784,357.321,312.737"/>
</g>
<path d="M351.335,172.005c1.11-2.446,4.864-1.778,5.988,0C358.446,173.783,350.226,174.451,351.335,172.005"/>
<g>
	<path style="fill:#DD8B59;" d="M339.14,280.446c-1.351,1.636,17.081,9.699,17.081,9.699s1.636,8.747,3.114,7.637   c1.465-1.11,7.779,0.099,7.779,0.099s1.508,26.126,30.663,26.126c29.155,0,36.992-27.918,36.992-27.918s10.524,0.114,11.761,0.754   c1.237,0.64-2.532-3.456-0.981-6.699c1.564-3.256,5.333-7.04,3.114-7.921c-2.219-0.896-25.77,5.561-25.77,5.561   s0.441,21.105-25.117,21.105c-25.557,0-22.215-13.781-22.215-13.781S341.217,277.9,339.14,280.446"/>
	<path style="fill:#DD8B59;" d="M376.672,303.251c0,0.683-0.541,1.224-1.224,1.224c-0.683,0-1.224-0.541-1.224-1.224v-56.248   c0-0.683,0.541-1.224,1.224-1.224c0.683,0,1.224,0.541,1.224,1.224V303.251z"/>
	<path style="fill:#DD8B59;" d="M397.779,310.115c0,0.554-0.441,0.996-0.996,0.996c-0.554,0-1.01-0.441-1.01-0.996v-67.113   c0-0.554,0.455-0.996,1.01-0.996s0.996,0.441,0.996,0.996V310.115z"/>
	<path style="fill:#DD8B59;" d="M419.779,306.445c0,0.612-0.498,1.11-1.11,1.11s-1.11-0.498-1.11-1.11v-59.548   c0-0.612,0.498-1.123,1.11-1.123s1.11,0.512,1.11,1.123V306.445z"/>
</g>
<g>
	<path style="fill:#FECF3D;" d="M367.998,256.001c0,0,2.006,3.997,8.661,2.219c6.67-1.778,6.898-7.324,6.898-7.324L367.998,256.001z   "/>
	<path style="fill:#FECF3D;" d="M404.668,247.112l-15.104,3.783c0,0,1.55,4.921,7.21,3.797   C402.449,253.555,404.668,247.112,404.668,247.112"/>
	<path style="fill:#FECF3D;" d="M411.332,254.223c0,0,3.556,4.224,8.447,2.659c4.878-1.55,7.993-7.324,7.993-7.324L411.332,254.223z   "/>
	<path style="fill:#FECF3D;" d="M385.778,258.682l-19.058,5.234c0,0-1.834,3.413-1.166,6.969c0.668,3.556,2.446,6.898,2.446,6.898   s1.778-4.452,6.229-5.333c4.437-0.896,7.552,2.674,7.552,2.674S380.076,266.959,385.778,258.682"/>
	<path style="fill:#FECF3D;" d="M389.558,258.682c0,0-3.883,2.204-3.783,8.889c0.056,3.655,3.783,8.249,3.783,8.249   s2.006-3.598,6.215-4.935c4.224-1.323,8.889,2.446,8.889,2.446s-1.75-5.39-1.11-9.557c0.64-4.167,3.556-9.059,3.556-9.059   L389.558,258.682z"/>
	<path style="fill:#FECF3D;" d="M410.005,262.003c0,0-1.336,2.901-1.336,6.229s2.674,9.543,2.674,9.543s1.323-4.665,6.215-5.775   c4.892-1.11,7.552,2.219,7.552,2.219s-1.636-3.286-0.924-8.092c0.711-4.793,5.603-8.889,5.603-8.889L410.005,262.003z"/>
	<path style="fill:#FECF3D;" d="M382.445,276.666l-16.654,3.114c0,0,1.991,5.333,8.32,4.665   C380.439,283.777,382.445,276.666,382.445,276.666"/>
	<path style="fill:#FECF3D;" d="M405.557,275.818c0,0-16,0.868-16,1.963c0,1.081,1.55,5.105,6.883,4.21   C401.773,281.109,405.557,275.818,405.557,275.818"/>
	<path style="fill:#FECF3D;" d="M426.223,276.666l-15.772,3.527c0,0,2.219,4.025,7.879,2.916   C424.005,282,426.223,276.666,426.223,276.666"/>
</g>
<g>
	<path style="fill:#FF0100;" d="M374.224,247l-11.776,3.883l11.776,1.265V247z"/>
	<path style="fill:#FF0100;" d="M396.653,243.202l-11.776,3.883l11.776,1.265V243.202z"/>
	<path style="fill:#FF0100;" d="M418.89,245.779l-11.776,3.883l11.776,1.265V245.779z"/>
</g>
<g>
</g>
<g>
</g>
<g>
</g>
<g>
</g>
<g>
</g>
<g>
</g>
<g>
</g>
<g>
</g>
<g>
</g>
<g>
</g>
<g>
</g>
<g>
</g>
<g>
</g>
<g>
</g>
<g>
</g>
</svg>
