<?xml version="1.0" encoding="iso-8859-1"?>
<!-- Generator: Adobe Illustrator 19.0.0, SVG Export Plug-In . SVG Version: 6.00 Build 0)  -->
<svg xmlns="http://www.w3.org/2000/svg" xmlns:xlink="http://www.w3.org/1999/xlink" version="1.1" id="Capa_1" x="0px" y="0px" viewBox="0 0 512 512" style="enable-background:new 0 0 512 512;" xml:space="preserve">
<path style="fill:#68BFE5;" d="M455.112,71.113H56.894c-31.417,0-56.888,25.472-56.888,56.888v255.997  c0,31.417,25.472,56.888,56.888,56.888h398.218c31.417,0,56.888-25.472,56.888-56.888V128.001  C512,96.585,486.528,71.113,455.112,71.113z"/>
<path style="fill:#00247D;" d="M270.225,71.113H56.894c-31.417,0-56.888,25.472-56.888,56.888V256h270.219V71.113z"/>
<path style="fill:#EEEEEE;" d="M270.225,256v-28.857l-100.977-70.698H94.881L237.059,256H270.225z"/>
<path style="fill:#CF1B2B;" d="M270.225,235.833l-113.364-79.388h-24.789l138.153,96.738L270.225,235.833L270.225,235.833z"/>
<path style="fill:#EEEEEE;" d="M115.199,156.446L0,238.45V256h47.388l142.192-99.554L115.199,156.446L115.199,156.446z"/>
<path style="fill:#CF1B2B;" d="M152.379,156.446L10.443,256h3.783h20.778l142.178-99.554L152.379,156.446L152.379,156.446z"/>
<path style="fill:#EEEEEE;" d="M237.072,71.113L94.894,170.668h74.367L270.223,99.97V71.113H237.072z"/>
<path style="fill:#CF1B2B;" d="M249.447,71.113l-142.164,99.554h24.789l138.153-96.738v-2.816H249.447z"/>
<path style="fill:#EEEEEE;" d="M9.432,96.649l132.795,92.949v-18.93h47.331L48.315,71.758C32.088,74.214,18.117,83.528,9.432,96.649  z"/>
<path style="fill:#CF1B2B;" d="M13.785,90.906l128.441,90.031v-10.268h10.155L24.589,81.185  C20.584,83.954,16.955,87.226,13.785,90.906z"/>
<path style="fill:#EEEEEE;" d="M270.225,128.001h-99.554V71.113H99.56v56.888H0.006v71.11H99.56V256h71.11v-56.888h99.554V128.001z"/>
<g>
	<path style="fill:#CF1B2B;" d="M156.449,256h-42.666V71.113h42.666V256z"/>
	<path style="fill:#CF1B2B;" d="M270.225,184.89H0.006v-42.666h270.219V184.89z"/>
</g>
<g transform="matrix(1.25 0 0 -1.25 0 45)">
	<path d="M314.556-96.268H259.09v-93.866c0-31.755,55.466-49.538,55.466-49.538s55.466,17.783,55.466,49.538v93.866L314.556-96.268   L314.556-96.268z"/>
	<path style="fill:#FFFFFF;" d="M314.556-237.278c-6.315,2.173-53.191,19.273-53.191,47.149v91.578h106.381v-91.578   C367.746-218.005,320.871-235.105,314.556-237.278"/>
	<g>
		<path style="fill:#D21034;" d="M367.741-98.544H261.36v-34.941h106.381V-98.544z"/>
		<path style="fill:#D21034;" d="M306.968-234.367c3.607-1.502,6.371-2.491,7.589-2.913c1.183,0.41,3.846,1.365,7.339,2.81v104.299    h-14.927L306.968-234.367L306.968-234.367z"/>
		<path style="fill:#D21034;" d="M367.741-187.05H261.36v14.927h106.381V-187.05z"/>
	</g>
	<path style="fill:#FFFFFF;" d="M275.154-119.79c0-3.129-2.924-5.666-6.508-5.666c-3.607,0-6.508,2.537-6.508,5.666   c0,3.129,2.901,5.666,6.508,5.666C272.23-114.123,275.154-116.661,275.154-119.79"/>
	<path style="fill:#FFD101;" d="M269.869-115.29c-3.709-0.648-5.506,1.605-4.801,3.732c0.717,2.139,4.267,4.084,7.646,4.449   c3.379,0.353,6.576-3.027,9.238-3.208c2.674-0.171,4.096,1.308,4.631,3.231c0.535,1.934,4.267,6.337,1.957,7.441   c3.015,0,3.015-3.197,3.015-3.197s3.379,3.379,5.871,3.197c1.422-2.491,0-6.042,0-6.042s3.55,1.422,6.042-0.182   c-4.801-0.705-5.506-3.55-5.506-3.55s0.888-2.321-0.353-3.561c-1.252-1.24,9.773-3.55,15.815-1.775   c6.042,1.775,17.601,5.859,25.065,5.859c7.464,0,9.068-2.844,10.843-0.353c1.786,2.491-2.127,5.154-8.533,4.62   c-6.394-0.524-17.237-7.942-21.504-2.992c-1.069,0-1.605-1.274-1.605-1.274s-2.662,0.898-5.336,2.321   c-2.662,1.422-2.127-3.379-0.705-4.096c-4.449,0.182-4.301,3.049-4.301,3.049s-5.473,4.062-1.922,7.088   c0.262-5.518,5.154-3.914,7.828-2.844c2.662,1.069,6.042,0.171,7.635-1.252c1.605-1.422,6.223-2.662,12.095,0.717   c5.859,3.379,21.686,4.62,21.868-2.491c0.171-7.111-7.828-7.646-7.828-7.646s0.888-4.267,5.871-3.368   c4.972,0.888,8.18,2.31,9.602-1.605c1.422-3.914,4.62-4.084,3.55-7.293c-1.069-3.197-4.62-4.687-9.421-3.857   c-4.801,0.842-5.336,2.799-1.422,3.504c3.914,0.717,4.62,3.732,3.197,4.449c-1.422,0.705-4.084-2.139-7.646-0.717   c-3.55,1.422-8.169,4.267-8.169,4.267s0.171-1.957-3.027-3.015c-3.197-1.069-0.535-2.321,0.353-4.267   c0.888-1.957-3.197-3.55-7.464-4.449c-4.267-0.888-7.464-3.197-11.56,1.775c-4.084,4.984,1.069,6.406,3.208,4.801   c2.127-1.605,4.267-4.449,6.042-3.027s-1.252,2.321-1.605,4.984c-0.353,2.663,0.182,5.859,0.182,5.859s-5.689-8.886-17.783-10.661   c-12.083-1.775-14.222-1.775-14.222-1.775l-3.55,2.491l-4.267-2.844l-0.182,3.197c0,0-6.758-5.302-10.308-6.121   c-3.561-0.819-13.267,1.502-13.483,4.165c-0.205,2.662,0.865,3.914,4.062,4.972c3.197,1.069,3.732-0.705,5.336-2.127   c1.593-1.422,3.368-3.379,5.689-1.422c2.31,1.957,3.55,2.662,3.55,2.662l0.717,3.379l-3.379,0.182l1.24,3.903   c0,0-2.491-0.524-4.267,1.069c-1.775,1.605-1.957,3.197-3.55,2.674C272.713-112.798,273.954-114.584,269.869-115.29"/>
	<g>
		<path style="fill:#964B36;" d="M278.402-166.846c-3.027-1.24-7.646,8.716-4.972,11.56    C276.093-152.442,281.429-165.606,278.402-166.846"/>
		<path style="fill:#964B36;" d="M284.268-165.601c-2.833-0.25-1.775,13.505,0,13.505    C286.042-152.095,288.182-165.248,284.268-165.601"/>
		<path style="fill:#964B36;" d="M289.246-167.773c-3.539,0.648,1.775,8.931,3.197,8.931    C293.865-158.842,293.331-168.524,289.246-167.773"/>
		<path style="fill:#964B36;" d="M345.423-170.045c-6.929-0.193-3.027,1.217-2.31,3.095c0.705,1.877,0.284,15.929,0.284,15.929    h3.982c0,0-1.252-12.105,0-14.586C348.619-168.088,351.817-169.863,345.423-170.045"/>
		<path style="fill:#964B36;" d="M359.112-194.578c1.65,1.843-2.491,4.801-5.336,4.801c-2.844,0-6.064-1.605-8.454-8.351    c-2.389-6.758,2.674-4.801,3.97-1.069c1.286,3.732,2.355,5.859,4.312,6.042C355.562-192.974,356.268-197.775,359.112-194.578"/>
		<path style="fill:#964B36;" d="M331.91-218.223c-3.653,0.262-6.758-9.238-6.758-9.238S341.513-218.928,331.91-218.223"/>
	</g>
	<g>
		<path style="fill:#00A651;" d="M275.154-158.845c0.888-2.833-8.135,0.455-8.306-4.482c-3.743,0.569,1.593,7.862,4.972,6.792    c-0.705,3.914-5.757,5.506-6.258-0.888c-5.655,4.972,1.548,9.773,4.79,7.646c-1.729,6.042-5.04,5.939-5.45,2.31    c-4.278,3.55,0.034,9.238,3.743,6.576s3.97-5.506,3.97-5.506s2.583,9.193,9.159,6.201    C273.834-143.565,272.264-149.607,275.154-158.845"/>
		<path style="fill:#00A651;" d="M284.487-154.889c-2.355,2.264-3.777,4.756-3.777,4.756s2.515-6.758-1.41-9.602    c0.171,6.223-4.096,8.363-1.786,10.843c2.31,2.491,6.223,0,6.223,0s0.922,1.456-3.084,4.984c-4.006,3.527-6.872,3.379-7.054,6.394    c4.005-2.378,10.16-2.401,10.888-9.068c0.842,8.01,4.449,8.18,6.11,8.363c1.672,0.171,5.575-0.717,6.997,0.705    c0-2.844-3.197-1.957-5.325-2.844c2.844-1.957,3.015-8.26,3.015-8.26s-4.084,7.202-5.859,6.668    c-1.786-0.535-2.958-5.871-2.958-5.871s6.497,0.193,4.13-8.533c-1.001,4.801-2.071,5.336-3.311,5.336    S284.487-154.889,284.487-154.889"/>
		<path style="fill:#00A651;" d="M290.601-160.916c0.239,3.322,1.843,9.011,3.618,9.455c0.591,3.641,2.491,8.795,6.406,9.683    c3.914,0.888,4.801-3.197,3.914-5.506c-2.321,3.379-5.518,4.267-6.223-3.732c3.379,0.888,5.325-1.786,4.437-5.336    c-3.197,3.732-5.506,4.175-6.929,1.467c3.732-1.467,3.8-4.665,1.9-7.339c-0.831,4.631-3.3,4.267-4.608,0    C291.796-166.481,290.601-160.916,290.601-160.916"/>
		<path style="fill:#00A651;" d="M344.685-154.889c-4.062,0-9.398-4.198-9.75-10.718c-4.267,6.406,0.955,13.517,6.428,16.008    c-9.637-0.182-13.186-4.449-14.438-7.999c-1.24,9.421,10.74,13.153,14.438,11.548c-2.344,4.096-11.593,3.743-16.213,0.364    c0,7.816,13.824,9.694,19.535,2.629c-0.694,5.723,1.627,7.145,1.627,7.145v-7.646c0,0,12.857,12.095,19.933-2.491    c-11.4,5.871-16.964-0.171-16.964-0.171s11.821,2.844,10.206-10.843c-3.755,8.351-11.583,7.464-11.583,7.464    s9.068-4.108,5.518-14.234C349.862-154.046,344.685-154.889,344.685-154.889"/>
	</g>
	<path style="fill:#FFF202;" d="M336.001-199.377c-0.535,5.336,6.223,8.351,6.223,8.351s11.378-6.929,12.971-8.351   c1.605-1.422-0.967-7.373-5.905-8.931C344.352-209.867,336.001-199.377,336.001-199.377"/>
	<path style="fill:#00A651;" d="M332.871-218.355c-2.674,1.684-4.38,11.15,0,12.049c-1.661,5.689,1.889,8.533,3.129,8.886   c1.252,0.353,5.848-1.741,9.33-5.051c3.47-3.311,6.497-4.108,6.758-5.393c0.273-1.286-2.173-5.199-6.371-5.552   C347.025-217.331,337.024-220.972,332.871-218.355"/>
	<path d="M273.604-196.188c0,0,2.662,1.081,4.267,2.674c1.605,1.605,3.732,1.605,5.506-1.331c1.786-2.936,3.095-6.668,3.095-6.668   s-0.603,5.336,4.904,8.18c5.518,2.844,6.349,3.55,6.349,3.55l-1.9-7.6c0,0,6.576,4.051,7.646,6.36   c1.422-9.068-5.336-15.553-9.602-17.294c2.31-3.857,1.252-7.066,1.252-7.066l7.816-6.394l-8.533-2.662l-3.8,8.169   c0,0-9.864-0.353-11.298,7.111c-1.434,7.475,1.969,11.469,0,11.776C277.336-197.065,273.604-196.188,273.604-196.188"/>
	<path style="fill:#FFFFFF;" d="M291.313-215.099l-0.762-0.034c-1.672,0-9,0.319-10.126,6.189c-0.751,3.903-0.114,6.792,0.319,8.704   c0.33,1.467,0.535,2.434-0.012,3.231l-0.273,0.41l-0.979,0.341c-0.728,0.114-1.684,0.319-2.617,0.512   c0.626,0.398,1.274,0.888,1.809,1.434c0.341,0.33,0.865,0.74,1.457,0.74c0.74,0,1.548-0.66,2.276-1.855   c1.695-2.81,2.981-6.428,2.992-6.463l2.207,0.5c-0.023,0.193-0.41,4.608,4.301,7.042c1.786,0.922,3.084,1.627,4.039,2.162   l-1.9-7.623l2.378,1.467c0.808,0.5,3.925,2.446,6.087,4.437c-0.228-7.259-6.064-12.129-9.068-13.357l-1.229-0.489l0.683-1.149   c1.991-3.322,1.172-6.008,1.138-6.121l-0.228-0.751l6.77-5.552l-5.563-1.741L291.313-215.099z"/>
	<path style="fill:#00A651;" d="M275.964-194.956c-1.297,3.049-1.297,3.049-3.345,3.937c-0.091-1.957,0-3.208,0-3.208   s-1.149,3.743-2.936,3.208c-1.058-4.267,2.753-5.165,2.753-5.165s-1.684-0.546-1.502-3.561c3.015-1.229,2.662,1.434,2.662,1.434   s-0.626-2.731,1.559-4.301C276.624-200.269,275.964-194.956,275.964-194.956"/>
</g>
<g>
</g>
<g>
</g>
<g>
</g>
<g>
</g>
<g>
</g>
<g>
</g>
<g>
</g>
<g>
</g>
<g>
</g>
<g>
</g>
<g>
</g>
<g>
</g>
<g>
</g>
<g>
</g>
<g>
</g>
</svg>
