<?xml version="1.0" encoding="iso-8859-1"?>
<!-- Generator: Adobe Illustrator 19.0.0, SVG Export Plug-In . SVG Version: 6.00 Build 0)  -->
<svg xmlns="http://www.w3.org/2000/svg" xmlns:xlink="http://www.w3.org/1999/xlink" version="1.1" id="Capa_1" x="0px" y="0px" viewBox="0 0 395.636 395.636" style="enable-background:new 0 0 395.636 395.636;" xml:space="preserve">
<g transform="matrix(1.25 0 0 -1.25 0 45)">
	<path style="fill:#DA121A;" d="M281.341-7.96H35.168C15.747-7.96,0-23.706,0-43.127v-158.255c0-19.421,15.747-35.168,35.168-35.168   h246.174c19.421,0,35.168,15.747,35.168,35.168v158.255C316.509-23.706,300.763-7.96,281.341-7.96z"/>
	<g>
		<path style="fill:#088930;" d="M281.341-7.96H35.168C15.747-7.96,0-23.706,0-43.127v-35.168h316.509v35.168    C316.509-23.706,300.763-7.96,281.341-7.96z"/>
		<path style="fill:#FCDD0A;" d="M316.509-201.382v35.168H0v-35.168c0-19.421,15.747-35.168,35.168-35.168h246.174    C300.763-236.549,316.509-220.803,316.509-201.382z"/>
	</g>
	<g>
		<path style="fill:#0F47AF;" d="M237.382-122.255c0-43.705-35.422-79.127-79.127-79.127s-79.127,35.422-79.127,79.127    s35.422,79.127,79.127,79.127S237.382-78.55,237.382-122.255"/>
		<g>
			<polygon style="fill:#FCDD0A;" points="145.753,-141.638 150.975,-138.432 117.768,-112.945 107.596,-112.945 131.606,-130.448      116.494,-179.102 124.731,-173.075 137.647,-134.336    "/>
			<polygon style="fill:#FCDD0A;" points="162.716,-145.165 172.624,-138.483 171.235,-132.539 136.384,-157.368 133.254,-167.039      157.194,-149.719 198.78,-179.128 195.589,-169.421    "/>
			<polygon style="fill:#FCDD0A;" points="177.331,-113.309 171.238,-112.791 184.101,-153.524 192.321,-159.485 183.424,-131.149      223.154,-101.502 213.334,-101.22 180.803,-124.493    "/>
			<polygon style="fill:#FCDD0A;" points="157.068,-101.218 154.686,-106.863 194.672,-107.196 202.883,-101.218 173.483,-100.77      157.13,-52.538 154.009,-62.27 165.676,-100.69    "/>
			<polygon style="fill:#FCDD0A;" points="140.338,-106.182 136.152,-118.245 140.777,-122.254 154.123,-81.731 150.976,-72.002      141.63,-100.533 89.704,-100.533 98.287,-106.359    "/>
			<polygon style="fill:#FCDD0A;" points="155.216,-156 159.741,-156 159.741,-156    "/>
			<polygon style="fill:#FCDD0A;" points="194.55,-131.667 193.424,-135.14 223.739,-145.294 224.864,-141.813    "/>
			<polygon style="fill:#FCDD0A;" points="200.541,-66.849 197.578,-64.695 178.438,-91.264 181.402,-93.409    "/>
			<polygon style="fill:#FCDD0A;" points="137.376,-91.253 118.263,-64.692 115.3,-66.846 134.422,-93.406    "/>
			<polygon style="fill:#FCDD0A;" points="121.351,-131.663 90.975,-141.817 92.11,-145.299 122.486,-135.153    "/>
		</g>
	</g>
</g>
<g>
</g>
<g>
</g>
<g>
</g>
<g>
</g>
<g>
</g>
<g>
</g>
<g>
</g>
<g>
</g>
<g>
</g>
<g>
</g>
<g>
</g>
<g>
</g>
<g>
</g>
<g>
</g>
<g>
</g>
</svg>
