<?xml version="1.0" encoding="iso-8859-1"?>
<!-- Generator: Adobe Illustrator 19.0.0, SVG Export Plug-In . SVG Version: 6.00 Build 0)  -->
<svg xmlns="http://www.w3.org/2000/svg" xmlns:xlink="http://www.w3.org/1999/xlink" version="1.1" id="Capa_1" x="0px" y="0px" viewBox="0 0 512 512" style="enable-background:new 0 0 512 512;" xml:space="preserve">
<path style="fill:#EEEEEE;" d="M455.111,71.111H56.889c-15.997,0-30.44,6.824-40.776,17.456l-0.101-0.11  C6.106,98.695,0,112.631,0,128v64v64v64v64c0,15.369,6.106,29.305,16.012,39.543L111.59,320l58.884-63.791l0.192,0.209l-59.077,64  L16.012,423.752c10.343,10.69,24.829,17.137,40.877,17.137h398.222C486.528,440.889,512,415.417,512,384v-63.582v-128V128  C512,96.583,486.528,71.111,455.111,71.111z"/>
<path style="fill:#007A3D;" d="M16.012,423.752c10.343,10.69,24.829,17.137,40.877,17.137h398.222  C486.528,440.889,512,415.417,512,384v-63.582H111.59L16.012,423.752z"/>
<path style="fill:#141414;" d="M455.111,71.111H56.889c-16.048,0-30.534,6.865-40.877,17.555l95.578,103.752H512V128  C512,96.583,486.528,71.111,455.111,71.111z"/>
<g>
	<path style="fill:#C4111B;" d="M170.667,256l-59.077-64L16.012,88.457C6.106,98.695,0,112.631,0,128v64v64v64v64   c0,15.369,6.106,29.305,16.012,39.543L111.59,320L170.667,256z"/>
	<path style="fill:#C4111B;" d="M254.49,256.474c0-24.064,17.252-44.103,40.064-48.427c-3.001-0.569-6.087-0.882-9.244-0.882   c-27.236,0-49.308,22.073-49.308,49.308s22.073,49.308,49.308,49.308c3.157,0,6.244-0.313,9.244-0.882   C271.741,300.577,254.49,280.538,254.49,256.474"/>
	<path style="fill:#C4111B;" d="M272.069,286.328l21.02-15.033l20.864,15.26l-7.794-24.633l20.949-15.132l-25.842-0.199   l-7.908-24.604l-8.178,24.519l-25.842-0.085l20.793,15.36L272.069,286.328z"/>
</g>
<g>
</g>
<g>
</g>
<g>
</g>
<g>
</g>
<g>
</g>
<g>
</g>
<g>
</g>
<g>
</g>
<g>
</g>
<g>
</g>
<g>
</g>
<g>
</g>
<g>
</g>
<g>
</g>
<g>
</g>
</svg>
