<?xml version="1.0" encoding="iso-8859-1"?>
<!-- Generator: Adobe Illustrator 19.0.0, SVG Export Plug-In . SVG Version: 6.00 Build 0)  -->
<svg xmlns="http://www.w3.org/2000/svg" xmlns:xlink="http://www.w3.org/1999/xlink" version="1.1" id="Capa_1" x="0px" y="0px" viewBox="0 0 512 512" style="enable-background:new 0 0 512 512;" xml:space="preserve">
<g transform="matrix(1.25 0 0 -1.25 0 45)">
	<g>
		<g>
			<path style="fill:#002D62;" d="M409.6-271.2c0-25.134-20.378-45.511-45.511-45.511H45.511C20.378-316.711,0-296.334,0-271.2     v204.8c0,25.134,20.378,45.511,45.511,45.511h318.578c25.134,0,45.511-20.378,45.511-45.511V-271.2z"/>
			<path style="fill:#DD2E44;" d="M364.089-20.889H227.556v-125.156H409.6V-66.4C409.6-41.266,389.222-20.889,364.089-20.889"/>
			<path style="fill:#CE1225;" d="M45.511-316.711h136.533v125.156H0V-271.2C0-296.334,20.378-316.711,45.511-316.711"/>
			<path style="fill:#EEEEEE;" d="M409.6-134.667H238.933v113.778h-68.267v-113.778H0v-68.267h170.667v-113.778h68.267v113.778     H409.6V-134.667z"/>
			<g>
				<path style="fill:#002D62;" d="M205.028-145.362h-21.811l3.812-3.675v-18.83h18V-145.362z"/>
				<path style="fill:#002D62;" d="M205.028-190.19c2.901,3.163,4.881,3.038,13.084,3.038c4.38,0,4.892,2.97,4.892,8.772v10.468      h-17.977V-190.19z"/>
			</g>
			<g>
				<path style="fill:#CE1225;" d="M205.028-190.19c-2.901,3.163-4.881,3.038-13.096,3.038c-4.392,0-4.904,2.97-4.904,8.772v10.468      h18V-190.19z"/>
				<path style="fill:#CE1225;" d="M205.028-145.362h21.788l-3.812-3.675v-18.83h-17.977V-145.362z"/>
			</g>
			<g>
				<path style="fill:#FFFFFF;" d="M208.156-187.881v42.462h-6.224v-42.496c1.058-0.364,2.185-1.217,3.118-2.287      C205.847-189.234,207.167-188.245,208.156-187.881"/>
				<path style="fill:#FFFFFF;" d="M187.051-170.973h35.965v6.224h-35.965V-170.973z"/>
			</g>
			<path style="fill:#002D62;" d="M205.028-163.748l11.81,12.595v-3.812l2.196,1.843v-21.06c0-7.817-12.322-7.043-14.006-3.436     c-1.695-3.607-14.017-4.38-14.017,3.436v21.06l2.196-1.843v3.812L205.028-163.748z"/>
			<path style="fill:#FFFFFF;" d="M205.028-177.254c-5.666-3.049-9.341-0.649-9.341,2.253v3.618c-2.196,0-4.676,1.126-4.676,1.843     v3.106c0-0.91,3.686-1.764,4.676-1.764v10.9l2.048-1.638v2.844l3.118-3.186v-2.241l-2.059,1.752v-9.216     c2.128,0,3.789-1.274,6.235-1.274c2.435,0,4.096,1.274,6.224,1.274v9.216l-2.048-1.752v2.241l3.106,3.186v-2.844l2.059,1.638     v-10.9c0.99,0,4.665,0.853,4.665,1.764v-3.106c0-0.717-2.48-1.843-4.665-1.843v-3.618     C214.369-177.902,210.682-180.303,205.028-177.254v3.174c3.038-1.764,6.224-2.185,6.224-0.284v2.276     c-2.128,0-3.789-1.274-6.224-1.274c-2.446,0-4.107,1.274-6.235,1.274v-2.276c0-1.9,3.197-1.479,6.235,0.284V-177.254z"/>
			<g>
				<path style="fill:#CE1225;" d="M209.226-159.288v-2.23l2.048,1.741v-9.216c-2.128,0-3.777-1.263-6.224-1.263      c-2.446,0-4.107,1.263-6.235,1.263v9.216l2.071-1.741v2.23l4.164-4.471L209.226-159.288z"/>
				<path style="fill:#CE1225;" d="M191.033-169.551v-4.631c0-7.817,12.322-7.031,14.017-3.425      c1.684-3.607,14.006-4.392,14.006,3.425v4.631c0-0.694-2.48-1.832-4.665-1.832v-3.618c0-2.89-3.686-5.291-9.341-2.253      c-5.666-3.038-9.341-0.637-9.341,2.253v3.618C193.513-171.383,191.033-170.245,191.033-169.551"/>
			</g>
			<path style="fill:#002D62;" d="M209.795-137.875c0.205,0.569,0.432,1.388,0.637,2.128c-1.616,0.205-3.561,0.341-5.382,0.341     c-1.809,0-3.766-0.137-5.382-0.341c0.205-0.74,0.421-1.559,0.637-2.128c0.137-0.432-0.705-1.49-3.743-1.308     c-2.594,0.148-6.406-0.102-9.717-0.671c0.558-0.853,0.762-1.024,0.694-1.684c-0.068-0.74-1.809-1.434-4.858-1.866     c-3.038-0.421-4.21-3.561-5.257-8.09c-1.195,0.501-3.095,0.99-4.267,1.161c0.683,2.935,3.038,9.591,5.985,10.274     c-0.717,1.593-0.546,2.389,2.196,3.664c2.97,1.388,7.999,2.23,13.54,2.435c-0.341,1.343,0,1.889,1.752,2.628     c1.49,0.637,3.857,1.126,8.42,1.126s6.94-0.489,8.42-1.126c1.752-0.74,2.094-1.286,1.752-2.628     c5.53-0.205,10.559-1.047,13.528-2.435c2.742-1.274,2.913-2.071,2.196-3.664c2.935-0.683,5.302-7.339,5.985-10.274     c-1.161-0.171-3.072-0.66-4.244-1.161c-1.047,4.528-2.241,7.669-5.279,8.09c-3.038,0.432-4.79,1.126-4.858,1.866     c-0.08,0.66,0.148,0.831,0.705,1.684c-3.3,0.569-7.122,0.819-9.705,0.671C210.5-139.366,209.658-138.308,209.795-137.875"/>
			<g>
				<path style="fill:#996B38;" d="M205.028-164.818l14.484,12.39l0.319-0.364l-14.802-12.663V-164.818z"/>
				<path style="fill:#996B38;" d="M205.028-163.43l12.231,13.278l0.353-0.353l-12.584-13.653V-163.43z"/>
				<path style="fill:#996B38;" d="M205.028-161.609l9.717,13.414l0.387-0.284l-10.103-13.972V-161.609z"/>
				<path style="fill:#996B38;" d="M205.028-164.818l-14.484,12.39l-0.319-0.364l14.802-12.663V-164.818z"/>
				<path style="fill:#996B38;" d="M205.028-163.43l-12.231,13.278l-0.364-0.353l12.595-13.653V-163.43z"/>
				<path style="fill:#996B38;" d="M205.028-161.609l-9.728,13.414l-0.398-0.284l10.126-13.972V-161.609z"/>
			</g>
			<g>
				<path style="fill:#FFCE46;" d="M219.295-152.234l2.082,1.092l-1.388-1.9C219.876-153.133,219.193-152.314,219.295-152.234"/>
				<path style="fill:#FFCE46;" d="M216.974-150.015l1.957,1.331l-1.172-2.037C217.657-150.846,216.883-150.106,216.974-150.015"/>
				<path style="fill:#FFCE46;" d="M214.505-148.058l1.786,1.559l-0.933-2.185C215.268-148.809,214.426-148.172,214.505-148.058"/>
				<path style="fill:#FFCE46;" d="M190.794-152.234l-2.094,1.092l1.399-1.9C190.225-153.133,190.896-152.314,190.794-152.234"/>
				<path style="fill:#FFCE46;" d="M193.058-150.015l-1.934,1.331l1.161-2.037C192.387-150.846,193.149-150.106,193.058-150.015"/>
				<path style="fill:#FFCE46;" d="M195.584-148.058l-1.775,1.559l0.91-2.185C194.822-148.809,195.664-148.172,195.584-148.058"/>
			</g>
			<path style="fill:#FFFFFF;" d="M201.535-161.655c0.569,0.466,2.173,1.24,3.118,0.74c0.728,0.842,2.458,1.57,3.402,1.081     l2.002-6.189c-0.558-0.387-1.684-0.193-2.378-0.626c-0.205-0.114-0.74-0.421-0.842-0.649c-0.341,0.148-1.115,0.068-1.65-0.114     c-0.501-0.148-0.853-0.671-1.445-0.751L201.535-161.655"/>
			<path style="fill:none;stroke:#000000;stroke-width:0.007;stroke-linecap:round;stroke-linejoin:round;" d="M201.535-161.655     c0.569,0.466,2.173,1.24,3.118,0.74c0.728,0.842,2.458,1.57,3.402,1.081l2.002-6.189c-0.558-0.387-1.684-0.193-2.378-0.626     c-0.205-0.114-0.74-0.421-0.842-0.649c-0.341,0.148-1.115,0.068-1.65-0.114c-0.501-0.148-0.853-0.671-1.445-0.751     L201.535-161.655"/>
			<g>
				<path style="fill:#549334;" d="M224.222-194.741c1.855,0.011,4.312-0.489,5.086-0.774c-0.785,0.626-1.968,1.229-3.243,1.695      c1.707-0.273,2.128-0.558,3.265-0.842c0.796-0.228,0.91-0.307,0.944-1.445c0.011-0.762,0.011-1.752,0.478-0.159      c0.432,1.434,0.592,1.638-0.159,2.116c-0.819,0.558-1.843,1.07-2.97,1.536c2.185-0.569,3.948-1.286,5.018-1.968      c-0.535,0.819-1.388,1.82-2.685,2.606c1.274-0.296,2.981-0.99,4.176-1.627c-0.569,0.762-1.57,2.025-2.776,2.594      c1.934-0.41,4.005-1.047,5.109-1.673c-1.07,1.422-2.31,2.674-3.914,3.163c2.15-0.262,4.187-0.91,5.109-1.468      c-1.263,1.206-2.56,2.458-3.846,2.89c1.764-0.228,3.402-0.694,4.358-1.126c-1.206,1.206-3.22,2.219-5.12,2.503      c1.343-0.023,3.038-0.148,4.483-0.444c-1.206,0.774-3.277,1.297-4.187,1.229c2.196,0.501,4.665,0.432,7.361-0.455      c-1.126,0.717-3.106,1.513-5.04,1.946c1.07,0.057,2.628,0.319,3.63,0.171c-1.081,0.364-3.743,0.899-4.938,0.831      c2.162,0.637,4.312,1.047,5.609,1.297c-2.264,0.137-4.813,0-7.077-0.375c2.503,2.128,4.324,2.128,5.951,2.401      c1.616,0.284,2.833,0.637,1.149,0.808c-1.092,0.102-1.98,0.193-2.742,0.216c1.764,0.523,3.994,1.661,4.733,2.048      c0.74,0.387,2.537,1.707,0.592,0.819s-4.733-1.024-7.248-1.308c-1.081-0.125-1.866-0.33-2.617-0.74      c1.365,0.785,2.901,1.616,4.506,2.401c1.593,0.774,1.252,1.035,2.651-0.569c0.671-0.774,0.626,0-0.25,2.025      c-0.705,1.57-1.32,0.842-2.844,0.239c-0.569-0.228-1.308-0.546-2.139-1.001c0.887,1.058,3.959,4.608,4.471,5.211      c0.535,0.603,1.354-0.102,2.401-0.774c1.001-0.683,0.649-0.034-0.307,1.07c-0.967,1.081-1.422,1.263-2.048,0.728      c-0.626-0.535-3.709-2.48-5.416-4.107c3.14,2.981,6.781,6.326,7.612,7.27c-1.798-0.967-3.413-2.048-4.858-3.163      c0.501,0.717,1.411,2.025,1.889,2.583c-0.717-0.489-1.729-1.013-2.298-1.547c0.842,1.502,1.729,2.879,1.855,3.118      c0.193,0.387,0.398,0.478,0.694,0.512c0.284,0.023,0.671,0.057,1.582,0.137c0.91,0.068,0.558,0.262,0.159,0.364      c-2.526,0.66-2.423,0.375-2.992-0.159c-0.41-0.421-0.967-1.07-1.536-1.832c0.626,1.98,2.537,3.8,2.844,4.369      c-1.968-1.092-3.015-1.957-3.732-2.844c0.91,1.456,3.732,3.686,4.597,4.585c-0.876-0.364-2.731-1.286-3.22-1.855      c0.466,0.831,0.922,1.695,1.331,2.594c-1.547-0.99-2.674-2.298-3.561-3.8c0.091,0.364,0.239,0.91,0.387,1.354      c0.501,0.967,1.866,2.298,2.571,3.083c0.717,0.774,0.876,0.99,2.89-0.284c-0.307,0.865-0.694,1.49-1.035,1.98      c-0.58,0.876-0.853,0.501-1.65-0.171c-0.444-0.353-0.865-0.853-1.65-1.547c0.865,2.23,1.877,4.619,2.412,6.178      c-1.445-1.411-2.571-3.356-3.482-5.518c0.068,1.559,0.922,4.733,0.785,6.372c-0.694-0.853-1.411-2.31-1.764-4.005      c-0.046,1.718-0.057,3.846-0.489,5.063c0.125-1.058-0.967-3.482-1.252-5.177c-0.683,1.616-1.434,3.174-1.866,4.255      c0.034-0.853,0.262-2.788,0.637-5.097c-0.569,1.775-2.64,3.607-2.708,5.029c-0.057-2.048,1.422-5.53,1.582-6.519      c0.023-0.319,0.148-0.796,0.262-1.343c-0.705,1.138-2.389,3.186-2.833,4.528c0-0.842,0.33-2.31,0.478-3.243      c-0.887,0.819-1.502,0.341-3.004-2.492c0.489,0.159,1.047,0.785,1.479,1.07c0.421,0.284,0.819,0.592,1.274-0.148      c0.569-0.933,2.094-3.061,2.935-5.803c-0.25,0.796-1.661,2.628-2.173,3.436c0.114-0.387,0.375-1.661,0.535-2.401      c-0.671,1.855-1.388,3.174-1.9,3.925c-0.046-0.922,0.637-3.516,0.751-4.619c-0.41,0.956-0.853,1.786-1.206,2.492      c0.273-0.74,0.649-3.334,0.603-4.654c-0.58,1.047-1.172,1.9-1.616,2.537c0.364-1.07,0.683-3.197,0.74-4.403      c-0.205,0.41-0.375,0.717-0.512,0.922c-0.717,1.149-1.172-0.91-1.593-1.968c-0.432-1.058-0.193-0.922,0.296-0.182      c0.728,1.126,0.637,0.978,1.07-0.25c0.284-0.728,1.035-2.469,1.661-4.733c-0.614,0.99-1.468,2.332-1.923,3.311      c-0.466,1.001-0.501,0.944,0-1.035c0.319-1.286,1.115-3.675,0.796-6.224c-0.455,1.604-1.047,3.55-1.695,5.291      c0.091-1.092,0.216-3.197,0.216-4.085c-0.273,0.523-0.58,0.933-0.944,1.252c0.466-1.49,0.58-4.073,0.58-5.689      c-0.25,1.024-0.603,1.98-0.956,2.605c-0.034-1.161,0.296-3.925,0.58-5.188c-0.25,0.978-0.614,1.934-1.024,2.697      c0.228-1.32,0.319-3.482-0.068-4.892c-0.068,0.717-0.284,1.388-0.546,2.139c-0.114-0.649-0.262-2.571-0.74-3.413      c0.262,1.229,0.284,2.355,0.182,3.049c-0.364-1.331-0.831-2.56-1.365-3.573c0.171,0.614,0.41,1.82,0.478,2.992      c-0.148-0.74-0.649-1.343-0.933-1.98c0.137,1.047,0.171,1.923,0.125,2.344c-0.535-1.786-1.297-3.049-2.321-4.449      c0.546,1.434,0.683,2.958,0.683,3.88c-0.91-1.604-0.978-2.298-2.435-4.21c0.762,1.593,0.626,2.935,0.466,3.698      c-0.114-0.41-0.614-1.593-1.343-2.867c-0.137,0.899,0.068,3.163,0.353,3.8c-0.626-0.421-1.479-1.638-1.479-2.549      c-0.228,0.922-0.592,1.741-1.138,2.332c0.489-3.163,0.319-5.905-1.593-7.179c-4.233-2.776-7.805-8.932-12.993-11.218      c0.364-0.216,1.206-0.922,1.638-1.422c4.949,2.185,8.283,7.111,12.117,9.865c1.82,0.979,5.996-1.217,10.604-0.023      c1.775,0.455,5.234-0.569,6.77-1.195C228.113-196.016,226.714-195.231,224.222-194.741"/>
				<path style="fill:#549334;" d="M188.587-191.556c0.853,0.148,3.186,0.125,5.04-0.182c-1.229,0.466-0.444,3.391-1.934,4.483      c1.525-0.705,2.173-0.455,2.981-0.592c0.08-0.023,0.171-0.046,0.284-0.08c-0.068,0.375,0.046,1.24,0.353,1.695      c0.205-0.785,1.07-0.944,1.798-1.513c0.114-0.08,0.239-0.193,0.375-0.319c0.023,0.922,1.354,2.116,1.513,2.731      c0.273-0.819,1.035-1.399,1.297-2.56c0.705-2.97-1.627-3.607-0.774-5.734c4.233-2.776,7.999-8.317,13.164-10.604      c-0.364-0.216-1.206-0.922-1.627-1.422c-6.861,3.026-11.287,11.833-17.567,12.265c-0.148-0.068-0.319-0.125-0.478-0.193      c-1.559-0.751-3.004-1.32-4.392-1.024c-1.377,0.273-2.617-0.148-3.755-0.671C186.618-192.614,187.517-191.84,188.587-191.556      c-0.899-0.353-2.662-0.626-3.959-0.08c-0.774-1.877-2.583-2.412-4.21-2.617c-1.627-0.228-2.833-0.887-3.334-1.786      c-0.171,0.831-0.102,2.264,0.114,2.674c-0.705,0.091-1.559,0.114-2.594-0.057c0.967,0.375,1.843,3.118,4.21,3.447      c-0.432,0.296-0.831,0.637-1.149,1.104c0.558-0.319,1.058,0.034,2.082,0.319c0.512,0.137,1.32,0.25,2.082,0.216      c-0.808,0.558-1.411,1.582-1.559,2.321c-0.728-2.207-3.14-2.799-4.563-2.901c-1.695-0.102-2.514-0.66-2.833-1.126      c0,1.047,0.341,1.9,0.74,2.469c-0.717-0.068-1.354-0.091-1.729-0.239c0.307,1.638,1.104,2.606,1.946,3.14      c-1.035,0.25-2.469,2.059-2.537,3.356c0.808-0.944,4.176,0.034,5.814-1.798c-1.035,0.887-1.582,2.002-1.684,3.265      c0.387-0.501,1.183-0.523,1.98-0.967c-1.104,4.005-3.88,3.118-5.518,4.38c-2.082,1.638-1.24,4.471-2.901,5.814      c0.74,0,1.331-0.046,1.832-0.171c-0.364,0.865-0.341,2.583-0.319,3.607c0.398-1.274,1.809-1.104,2.697-2.344      c0.148,0.353,0.228,0.705,0.171,1.035c0.637-0.774,1.24-1.422,1.604-2.128c-0.102,1.331,0.432,2.128,0.842,2.492      c-0.034-0.478,0.114-1.65,0.649-2.708c0.523-1.058,0.74-2.264,0.341-4.21c-0.364-1.843,0.387-3.265,1.331-4.619      c0.102,0.808-0.011,3.174-0.262,3.914c-0.25,0.74-0.364,1.98-0.114,3.356c0.148-0.558,0.819-1.377,1.536-2.082      c0.171-0.182,0.307-0.421,0.387-0.705c0.228,0.501,0.387,0.899,0.558,1.32c0.216,0.637-2.731,1.707-2.56,5.029      c-1.98,1.104-3.766,2.571-4.267,5.222c0.228-0.216,0.614-0.387,1.092-0.569c-1.092,1.616-1.377,3.675-0.99,4.699      c0.25-0.842,1.115-1.07,2.048-1.729c0.239,1.764-1.638,3.049-1.582,4.745c0.068,2.685,1.479,2.719,1.968,4.392      c0.387-0.626,0.671-1.195,0.876-1.786c0.319,1.126,1.684,1.957,1.707,2.81c0.717-1.024,1.229-2.173,0.842-3.334      c0.922,0.262,1.98,0.068,2.571-0.353c-1.741-0.319-1.627-2.401-2.765-2.924c-1.138-0.535-3.265-2.037-2.731-4.289      c0.717-0.774,1.365-2.014,1.741-4.142c0.341-0.341,0.649-0.74,0.865-1.217c0.296,0.478,0.546,1.047,0.762,1.673      c-0.102,0.887-1.286,1.877-1.593,2.731c-0.432,1.149,0.592,2.901,0.182,4.46c0.558-0.216,1.513-0.569,2.185-1.411      c0.523,1.217,1.536,1.991,1.57,4.062c0.421-0.808,0.762-1.695,1.001-2.571c0.626,0.853,1.752,1.832,3.061,2.219      c-0.819-1.411-0.535-2.799-0.569-3.971c-0.034-1.149-0.068-3.106-1.764-4.415c-1.695-1.32-2.139-1.684-2.503-4.983      c0.717,1.559,2.446,2.765,2.503,3.607c0.353-1.49,0.637-2.628,0.592-3.63c0.569,0.671,1.593,1.047,2.799,1.104      c-0.842-0.978-1.49-4.836-3.755-5.291c-2.253-0.466-3.163-2.753-3.777-3.686c-0.785-1.161-0.967-2.071-0.193-3.618      c-0.034,1.24,0.228,2.583,0.614,3.368c0.751,1.513,2.367,2.128,2.48,3.186c0.205-1.115,0.319-2.002,0.284-2.742      c1.138,2.298,3.538,1.638,4.21,2.31c-0.466-0.592-0.956-1.445-1.172-2.685c-0.216-1.229-1.161-2.401-2.514-3.038      c-1.047-0.501-1.957-0.58-2.503-1.661c-0.137-0.626,0.41-1.172,0.41-2.128c0.057,0.353,0.159,0.671,0.319,0.91      c0.649,0.933,1.07,1.638,1.07,2.162c1.411-1.411,1.729-2.799,1.274-4.278c-0.455-1.49-0.796-2.708,0.125-3.88      c0.546-0.466,1.183-0.819,1.775-0.99c0.74,0.751-0.137,1.661-0.979,2.537c-0.853,0.876-0.785,2.958-0.08,3.812      c0.717,0.887,1.32,1.786,1.286,2.549c0.523-0.455,1.092-1.286,1.263-1.741c0.273,0.683,0.671,1.286,1.206,1.604      c0.114-1.24,0.922-1.809,0.922-3.152c0.364,0.808,0.956,1.513,1.775,1.775c-0.182-0.671,0.432-1.718,0.535-2.367      c0.068-0.512,0-1.092-0.25-1.729c-0.25-0.671-0.694-1.354-1.741-1.877c-0.319-0.159-0.831-0.33-1.354-0.558      c1.217,0.159,3.413-0.25,3.903-1.138C191.488-190.452,189.542-191.169,188.587-191.556"/>
			</g>
			<g>
				<path style="fill:#CE1225;" d="M200.499-199.281c-0.933-0.114-1.991-0.273-2.708-0.626c0.114-0.466,0.353-2.173,0.353-2.549      c0.523,0.353,1.65,0.728,2.355,0.796V-199.281z"/>
				<path style="fill:#CE1225;" d="M204.117-199.383c-2.344,0.865-3.846,0.489-3.846-0.228v-2.139c0-0.364,0.819-0.819,3.846-0.091      V-199.383z"/>
				<path style="fill:#CE1225;" d="M209.658-199.281c0.933-0.114,2.003-0.273,2.708-0.626c-0.102-0.466-0.341-2.173-0.341-2.549      c-0.523,0.353-1.661,0.728-2.367,0.796V-199.281z"/>
				<path style="fill:#CE1225;" d="M206.052-199.383c2.355,0.865,3.846,0.489,3.846-0.228v-2.139c0-0.364-0.819-0.819-3.846-0.091      V-199.383z"/>
				<path style="fill:#CE1225;" d="M205.028-199.065c1.183,0,1.479-0.341,1.479-1.502c0-1.183-0.296-1.536-1.479-1.536      c-1.195,0-1.49,0.353-1.49,1.536C203.537-199.406,203.833-199.065,205.028-199.065"/>
				<path style="fill:#CE1225;" d="M205.028-197.074c6.451,0,11.639-0.387,15.77-1.274c-0.501-0.387-0.944-0.899-1.274-1.161      c-0.375-0.319-0.239-1.195,0.614-1.968c0.853-0.728,2.913-1.377,4.972-0.478c0.398,0.182,0.796,0.364,1.195,0.523      c-0.58-0.489-1.058-1.126-0.808-1.741c1.229-2.719,5.916,0.853,8.704-2.583c0.751,0.956,2.617,2.947,3.402,3.698      c-1.593,1.923-3.812,1.604-5.643,1.456c0.66,1.104,0.74,1.946-0.728,2.992c-0.592,0.432-2.651,0.364-4.54-0.489      c0.341,0.887,0.284,2.344-2.64,3.63c-4.449,2.002-12.015,2.412-19.024,2.412c-7.009,0-14.586-0.41-19.046-2.412      c-2.924-1.286-2.992-2.742-2.628-3.63c-1.9,0.853-3.948,0.922-4.563,0.489c-1.456-1.047-1.365-1.889-0.705-2.992      c-1.843,0.148-4.073,0.466-5.655-1.456c0.774-0.751,2.662-2.742,3.402-3.698c2.788,3.436,7.487-0.137,8.693,2.583      c0.273,0.614-0.205,1.252-0.774,1.741c0.375-0.159,0.774-0.341,1.172-0.523c2.048-0.899,4.142-0.25,4.983,0.478      c0.865,0.774,1.001,1.65,0.614,1.968c-0.341,0.262-0.762,0.774-1.286,1.161C193.377-197.461,198.565-197.074,205.028-197.074"/>
			</g>
		</g>
	</g>
</g>
<g>
</g>
<g>
</g>
<g>
</g>
<g>
</g>
<g>
</g>
<g>
</g>
<g>
</g>
<g>
</g>
<g>
</g>
<g>
</g>
<g>
</g>
<g>
</g>
<g>
</g>
<g>
</g>
<g>
</g>
</svg>
