<?xml version="1.0" encoding="iso-8859-1"?>
<!-- Generator: Adobe Illustrator 19.0.0, SVG Export Plug-In . SVG Version: 6.00 Build 0)  -->
<svg xmlns="http://www.w3.org/2000/svg" xmlns:xlink="http://www.w3.org/1999/xlink" version="1.1" id="Capa_1" x="0px" y="0px" viewBox="0 0 512 512" style="enable-background:new 0 0 512 512;" xml:space="preserve">
<g transform="matrix(1.25 0 0 -1.25 0 45)">
	<g>
		<g>
			<path style="fill:#006B3F;" d="M409.6-271.2c0-25.134-20.378-45.511-45.511-45.511H45.511C20.378-316.711,0-296.334,0-271.2     v204.8c0,25.134,20.378,45.511,45.511,45.511h318.578c25.134,0,45.511-20.378,45.511-45.511V-271.2z"/>
			<path style="fill:#EEEEEE;" d="M409.6-134.667H238.933v113.778h-68.267v-113.778H0v-68.267h170.667v-113.778h68.267v113.778     H409.6V-134.667z"/>
			<g>
				<path style="fill:#FCD116;" d="M193.422-316.711h-22.756v295.822h22.756V-316.711z"/>
				<path style="fill:#FCD116;" d="M409.6-157.422H0v22.756h409.6V-157.422z"/>
			</g>
			<g>
				<path style="fill:#141414;" d="M216.178-316.711h-22.756v295.822h22.756V-316.711z"/>
				<path style="fill:#141414;" d="M409.6-180.178H0v22.756h409.6V-180.178z"/>
			</g>
			<path style="fill:#DD2E44;" d="M273.055-168.8c0-37.706-30.572-68.267-68.267-68.267c-37.706,0-68.267,30.561-68.267,68.267     c0,37.695,30.561,68.255,68.267,68.255C242.483-100.545,273.055-131.105,273.055-168.8"/>
			<g>
				<path style="fill:#006000;" d="M204.8-107.815l-1.923-5.962h-6.315l5.131-3.709l-1.968-5.951l5.074,3.698l5.063-3.698      l-1.946,6.007l5.109,3.63h-6.281L204.8-107.815z"/>
				<path style="fill:#006000;" d="M169.756-119.193l1.946-5.951l-5.097-3.709l6.315,0.011l1.911-5.973l1.923,5.973l6.281-0.011      l-5.097,3.721l1.991,5.928l-5.086-3.686L169.756-119.193z"/>
				<path style="fill:#006000;" d="M148.139-149.014l5.074-3.664l-1.946-5.996l5.12,3.721l5.052-3.709l-1.957,5.962l5.086,3.686      h-6.303l-1.889,5.973l-1.934-5.973H148.139z"/>
				<path style="fill:#006000;" d="M148.139-185.867l6.269,0.023l1.946-5.996l1.946,6.019l6.269-0.023l-5.086,3.664l1.957,5.973      l-5.109-3.698l-5.04,3.721l1.946-5.973L148.139-185.867z"/>
				<path style="fill:#006000;" d="M169.756-215.665l5.052,3.686l5.109-3.709l-1.968,6.019l5.097,3.675l-6.281-0.023l-1.934,5.973      l-1.957-5.996l-6.246,0.046l5.074-3.698L169.756-215.665z"/>
				<path style="fill:#006000;" d="M204.8-227.043l1.923,5.951h6.303l-5.12,3.721l1.957,5.951l-5.063-3.709l-5.063,3.709      l1.934-5.996l-5.097-3.652h6.281L204.8-227.043z"/>
				<path style="fill:#006000;" d="M239.844-215.665l-1.957,5.951l5.097,3.721l-6.315-0.023l-1.911,5.973l-1.923-5.973l-6.281,0.023      l5.097-3.721l-1.991-5.951l5.097,3.709L239.844-215.665z"/>
				<path style="fill:#006000;" d="M261.495-185.844l-5.074,3.664l1.946,5.996l-5.12-3.721l-5.04,3.709l1.946-5.962l-5.074-3.686      h6.292l1.889-5.973l1.946,5.973H261.495z"/>
				<path style="fill:#006000;" d="M261.484-149.003l-6.258-0.011l-1.946,5.996l-1.946-6.019l-6.269,0.023l5.086-3.675l-1.957-5.973      l5.109,3.709l5.04-3.721l-1.946,5.973L261.484-149.003z"/>
				<path style="fill:#006000;" d="M239.844-119.193l-5.052-3.698l-5.109,3.709l1.957-6.007l-5.086-3.664l6.281,0.011l1.934-5.973      l1.957,5.996l6.246-0.057l-5.074,3.698L239.844-119.193z"/>
			</g>
			<g>
				<path style="fill:#FFFFFF;" d="M193.297-136.726c0-1.104,0-2.981,2.708-3.322c1.684,0.614,1.104,4.346,0.592,5.37      C195.413-134.758,193.741-136.066,193.297-136.726"/>
				<path style="fill:#FFFFFF;" d="M196.597-135.702c-1.832-0.956-4.176-2.708-3.959-5.564c-3.22,2.264-3.425,8.852,0.148,9.808      C194.105-131.39,196.813-133.21,196.597-135.702"/>
			</g>
			<path style="fill:#7D76B6;" d="M195.129-142.199c1.673-1.456,4.87-1.195,6.417-0.319c2.776-1.604,5.769-1.82,9.648-0.58     c0.74-0.228,2.697-0.512,3.436-0.228c0.444,0.444,0.876,0.74,1.32,1.035c-0.876,0.728-1.752,2.037-2.196,3.356     c0,0,0.728,0.887,1.024,1.32c-0.728,0.728-2.196,1.9-2.924,2.344c0.444,0.432,0.876,1.752,0.876,1.752     c-1.468,0.444-2.924,1.468-3.516,2.048l0.148,0.887c-2.389,0.137-2.287,3.072-7.452,3.948c-3.516,0.592-8.784-0.876-9.079-4.836     c1.957-1.9,4.927-4.437,3.22-8.579c-0.444-0.592-1.263-1.365-1.752-1.616C194.583-142.005,194.788-142.051,195.129-142.199"/>
			<g>
				<path style="fill:#00693F;" d="M209.374-185.264c1.263-5.359,4.574-15.406,5.461-17.647c0.876-2.241,2.139-6.815,4.972-7.623      c1.263-0.66,3.026-0.171,2.241,5.666c0.876,0.205,1.07,2.446,0.876,4.005c-0.193,1.559-0.683,7.418-0.785,12.083      C222.049-184.08,209.271-176.764,209.374-185.264"/>
				<path style="fill:#00693F;" d="M197.473-174.921c-0.489-3.516,0.387-10.354,2.048-12.971l7.703-1.752      c0.785,0.489,1.661,1.638,1.946,2.617c1.855,0.603,3.322,2.071,3.8,4.892C210.739-176.776,202.741-169.653,197.473-174.921"/>
			</g>
			<path style="fill:#7D76B6;" d="M214.585-143.314c0.148-1.161,0.876-2.344,1.752-3.072c-0.569-0.444-0.876-1.024-1.024-1.456     c-3.22-2.788-10.672-22.096-10.82-26.34c-0.512-2.264-1.536-5.848-2.423-7.396c-4.961,4.46-10.081,12.811-9.227,16.566     c-0.296,0.046-0.74,0.091-1.229,0.239c0.102,0.341,0.296,2.048,0.353,3.072c-0.307,0-0.842,0-1.286,0.148     c0.102,0.637,0.307,2.492,0.307,3.322c-0.489,0.137-1.081,0.626-1.513,1.115c0.33,0.876,1.206,2.583,1.65,3.618     c-0.728,0.091-1.263,0.819-1.502,1.263c0.626,0.387,1.468,1.513,1.798,2.196c-0.535,0.432-1.172,1.07-1.263,1.365     c0.683,0.637,2.685,2.822,3.561,4.039c-0.546,0-0.728,0.057-1.172,0.159c0.728,0.284,1.559,1.365,2.537,2.287     c1.684-1.468,4.87-1.195,6.417-0.319c2.776-1.604,5.769-1.832,9.648-0.58C211.888-143.314,213.857-143.598,214.585-143.314"/>
			<path style="fill:#00693F;" d="M225.712-196.425c0.58,20.628-2.935,39.504-8.34,46.376c-5.416,6.884-15.349,5.348-18.136-0.58     c-1.183-2.492-1.343-8.431-0.159-10.98c2.059-4.392,9.956-18.284,15.371-23.552C219.853-190.429,223.653-193.934,225.712-196.425     "/>
			<g>
				<path style="fill:#FFD420;" d="M217.543-191.556c-1.559-0.182-3.413,0.205-4.881,0.887c-1.468,0.694-2.731,1.354-4.289,1.354      c-1.559,0-10.047,0.603-11.412,1.092c-1.365,0.489-5.177,1.161-6.724,1.07c-1.559-0.091-4.005-1.183-4.983-1.183      s-1.456-0.774-1.456-1.559c0-0.774,0.193-2.241,1.354-3.015c2.059,0.091,4.983,0.284,5.37,0.683      c2.833-0.774,6.633-1.57,8.977-1.661c2.344-0.091,6.531-0.284,8.101-0.205c1.559,0.114,1.843,0.603,3.903-0.08      c2.037-0.694,4.779-2.162,6.042-2.537c1.263-0.398,2.048,0.865,2.332,2.241C220.171-193.114,219.193-191.442,217.543-191.556"/>
				<path style="fill:#FFD420;" d="M217.543-196.664c1.263-0.398,2.048,0.865,2.332,2.241c0.296,1.354-0.683,3.026-2.332,2.913      C216.326-191.749,214.744-194.798,217.543-196.664"/>
			</g>
			<g>
				<path style="fill:#FFFFFF;" d="M201.079-187.107c-1.661,1.354-4.54,0.068-4.972-3.22c-0.387-3.026,1.172-5.177,3.413-5.074      C199.031-193.751,199.418-187.801,201.079-187.107"/>
				<path style="fill:#FFFFFF;" d="M203.617-187.107c-1.57,1.263-3.584,0.023-4.494-1.183c-1.263-1.638-1.172-4.767-0.387-6.326      c0.785-1.559,3.129-0.978,3.618-0.205C202.047-193.262,202.354-188.085,203.617-187.107"/>
				<path style="fill:#FFFFFF;" d="M206.734-188.313c-1.104,1.843-4.142,1.286-5.12-0.068c-0.967-1.377-1.172-4.289,0-5.757      c1.172-1.468,2.446-1.263,3.504-0.489C204.834-193.274,205.278-189.781,206.734-188.313"/>
				<path style="fill:#FFFFFF;" d="M208.498-189.155c-1.081,1.843-3.095,1.047-3.914-0.114c-1.161-1.638-1.058-5.439,1.468-6.042      c1.286-0.284,2.241,0.774,2.64,1.263c-0.978,0.114-1.946,1.183-1.946,2.048C206.746-191.112,206.837-189.36,208.498-189.155"/>
			</g>
			<path style="fill:#FFD420;" d="M199.805-130.002c-2.628,0-2.56-3.948,0-3.948C202.377-133.95,202.433-130.002,199.805-130.002"/>
			<path d="M199.805-131.481c-0.66,0-0.637-0.979,0-0.979C200.454-132.459,200.476-131.481,199.805-131.481"/>
		</g>
	</g>
</g>
<g>
</g>
<g>
</g>
<g>
</g>
<g>
</g>
<g>
</g>
<g>
</g>
<g>
</g>
<g>
</g>
<g>
</g>
<g>
</g>
<g>
</g>
<g>
</g>
<g>
</g>
<g>
</g>
<g>
</g>
</svg>
