<?xml version="1.0" encoding="iso-8859-1"?>
<!-- Generator: Adobe Illustrator 19.0.0, SVG Export Plug-In . SVG Version: 6.00 Build 0)  -->
<svg xmlns="http://www.w3.org/2000/svg" xmlns:xlink="http://www.w3.org/1999/xlink" version="1.1" id="Capa_1" x="0px" y="0px" viewBox="0 0 512 512" style="enable-background:new 0 0 512 512;" xml:space="preserve">
<g transform="matrix(1.25 0 0 -1.25 0 45)">
	<g>
		<g>
			<path style="fill:#6AB2E7;" d="M364.089-20.889H45.511c-11.56,0-22.073-4.346-30.106-11.446L199.111-168.8H409.6v102.4     C409.6-41.266,389.222-20.889,364.089-20.889"/>
			<path style="fill:#12AD2B;" d="M364.089-316.711H45.511c-11.56,0-22.073,4.346-30.106,11.446L199.111-168.8H409.6v-102.4     C409.6-296.334,389.222-316.711,364.089-316.711"/>
			<path style="fill:#EEEEEE;" d="M15.735-304.992l183.376,136.226L15.406-32.301C5.985-40.641,0-52.792,0-66.366v-102.4v-96.711     C0-282.316,6.121-296.004,15.735-304.992"/>
			<path style="fill:#D7141A;" d="M73.956-128.978l9.398-28.934h30.424l-24.61-17.874l9.398-28.934l-24.61,17.874l-24.61-17.874     l9.398,28.934l-24.61,17.874h30.424L73.956-128.978z"/>
		</g>
	</g>
</g>
<g>
</g>
<g>
</g>
<g>
</g>
<g>
</g>
<g>
</g>
<g>
</g>
<g>
</g>
<g>
</g>
<g>
</g>
<g>
</g>
<g>
</g>
<g>
</g>
<g>
</g>
<g>
</g>
<g>
</g>
</svg>
