<?xml version="1.0" encoding="iso-8859-1"?>
<!-- Generator: Adobe Illustrator 19.0.0, SVG Export Plug-In . SVG Version: 6.00 Build 0)  -->
<svg xmlns="http://www.w3.org/2000/svg" xmlns:xlink="http://www.w3.org/1999/xlink" version="1.1" id="Capa_1" x="0px" y="0px" viewBox="0 0 512.001 512.001" style="enable-background:new 0 0 512.001 512.001;" xml:space="preserve">
<g transform="matrix(1.25 0 0 -1.25 0 45)">
	<g>
		<g>
			<path style="fill:#00247D;" d="M364.089-20.891H45.515c-25.133,0-45.511-20.378-45.511-45.511v-204.798     c0-25.133,20.378-45.511,45.511-45.511h318.574c25.133,0,45.511,20.378,45.511,45.511v204.798     C409.599-41.268,389.223-20.891,364.089-20.891z"/>
			<g>
				<g>
					<g>
						<path style="fill:#EEEEEE;" d="M216.179-168.801v23.085l-80.781,56.559H75.905l113.742-79.644H216.179z"/>
						<path style="fill:#CF1B2B;" d="M216.179-152.667l-90.691,63.51h-19.831l110.522-77.391V-152.667z"/>
						<path style="fill:#EEEEEE;" d="M92.159-89.157L0-154.76v-14.04h37.91l113.754,79.644L92.159-89.157L92.159-89.157z"/>
						<path style="fill:#CF1B2B;" d="M121.904-89.157L8.355-168.801h3.026h16.623l113.742,79.644H121.904z"/>
						<path style="fill:#EEEEEE;" d="M189.658-20.891L75.916-100.535h59.493l80.77,56.559v23.085H189.658z"/>
						<path style="fill:#CF1B2B;" d="M199.558-20.891L85.827-100.535h19.831L216.18-23.144v2.253H199.558z"/>
					</g>
					<path style="fill:#EEEEEE;" d="M7.545-41.319l106.235-74.36v15.144h37.865L38.651-21.407       C25.67-23.371,14.494-30.822,7.545-41.319z"/>
					<path style="fill:#CF1B2B;" d="M11.028-36.725l102.753-72.024v8.214h8.123L19.671-28.948       C16.467-31.164,13.564-33.781,11.028-36.725z"/>
				</g>
				<g>
					<path style="fill:#EEEEEE;" d="M216.179-66.402h-79.644v45.511H79.648v-45.511H0.004v-56.888h79.644v-45.511h56.888v45.511       h79.644V-66.402z"/>
					<g>
						<path style="fill:#CF1B2B;" d="M125.158-168.801H91.025v147.909h34.133V-168.801z"/>
						<path style="fill:#CF1B2B;" d="M216.179-111.912H0.004v34.133h216.175V-111.912z"/>
					</g>
				</g>
			</g>
		</g>
		<g>
			<polygon style="fill:#EEEEEE;" points="216.179,-23.145 215.51,-23.614 215.51,-44.445 216.179,-43.976    "/>
			<path style="fill:#EEEEEE;" d="M349.594-100.925c-20.673,0-20.673-11.378-41.403-11.378c-20.639,0-20.639,11.378-41.415,11.378     c-20.594,0-20.594-11.378-41.289-11.378c-3.683,0-6.702,0.366-9.307,0.958v-25.684c2.605-0.593,5.624-0.958,9.307-0.958     c20.696,0,20.696,11.378,41.051,11.378c21.014,0,21.014-11.378,41.051-11.378c21.333,0,21.333,11.378,42.029,11.378     c20.685,0,20.685-12.083,41.358-12.083c9,0,14.051,2.298,18.625,4.881v26.321c-4.574-2.355-9.626-4.46-18.625-4.46     C370.301-111.95,370.301-100.925,349.594-100.925z"/>
			<path style="fill:#EEEEEE;" d="M216.179-23.145v-17.014c2.606-0.594,5.627-0.96,9.313-0.96c20.685,0,20.685,11.378,41.039,11.378     c21.014,0,21.014-11.378,41.062-11.378c21.333,0,21.333,11.378,42.018,11.378c20.685,0,20.685-12.083,41.369-12.083     c4.255,0,7.589,0.546,10.445,1.354c3.857-5.53,6.383-11.969,7.464-18.921l0,0c-4.403-2.207-9.352-4.119-17.908-4.119     c-20.685,0-20.685,11.014-41.392,11.014c-20.662,0-20.662-11.378-41.403-11.378c-20.639,0-20.639,11.378-41.403,11.378     c-20.605,0-20.605-11.378-41.289-11.378c-3.686,0-6.706,0.366-9.313,0.96v-25.675c2.605-0.593,5.624-0.958,9.307-0.958     c20.696,0,20.696,11.378,41.051,11.378c21.014,0,21.014-11.378,41.051-11.378c21.333,0,21.333,11.378,42.029,11.378     c20.685,0,20.685-12.083,41.358-12.083c9,0,14.051,2.298,18.625,4.881v18.97c0,25.133-20.378,45.511-45.511,45.511H216.181     v-2.254H216.179z"/>
			<path style="fill:#EEEEEE;" d="M349.594-246.235c-20.673,0-20.673-11.378-41.403-11.378c-20.639,0-20.639,11.378-41.415,11.378     c-20.594,0-20.594-11.378-41.289-11.378c-20.685,0-20.685,11.378-41.369,11.378s-20.685-11.378-41.38-11.378     c-20.685,0-20.685,11.378-41.369,11.378s-20.685-11.378-41.369-11.378s-20.685,11.378-41.38,11.378     c-8.988,0-14.04-2.162-18.614-4.596v-20.369c0-25.133,20.378-45.511,45.511-45.511h318.574c25.133,0,45.511,20.378,45.511,45.511     v18.4c-4.574-2.355-9.626-4.46-18.625-4.46C370.301-257.259,370.301-246.235,349.594-246.235z M408.75-279.539     c-1.912-10.376-7.418-19.376-15.087-25.986c-0.898-0.045-1.684-0.159-2.685-0.159c-20.673,0-20.673,11.025-41.392,11.025     c-20.662,0-20.662-11.378-41.392-11.378c-20.65,0-20.65,11.378-41.415,11.378c-20.605,0-20.605-11.378-41.289-11.378     c-20.685,0-20.685,11.378-41.38,11.378c-20.673,0-20.673-11.378-41.369-11.378c-20.685,0-20.685,11.378-41.369,11.378     s-20.685-11.378-41.369-11.378c-20.696,0-20.696,11.378-41.38,11.378c-4.585,0-8.135-0.569-11.138-1.445     c-3.812,5.803-6.156,12.584-6.963,19.842c4.437,2.332,9.432,4.346,18.102,4.346c20.685,0,20.685-11.378,41.38-11.378     c20.685,0,20.685,11.378,41.369,11.378s20.685-11.378,41.369-11.378c20.696,0,20.696,11.378,41.369,11.378     c20.696,0,20.696-11.378,41.38-11.378s20.685,11.378,41.039,11.378c21.014,0,21.014-11.378,41.062-11.378     c21.333,0,21.333,11.378,42.018,11.378c20.696,0,20.696-12.083,41.369-12.083C399.443-283.999,404.393-281.94,408.75-279.539z"/>
			<path style="fill:#EEEEEE;" d="M349.594-149.364c-20.673,0-20.673-11.378-41.403-11.378c-20.639,0-20.639,11.378-41.415,11.378     c-20.594,0-20.594-11.378-41.289-11.378c-3.683,0-6.702,0.366-9.307,0.958v-6.765l-0.669,0.468v-2.052h-26.819l0.956-0.669H37.91     l0.956,0.669h-9.907l-0.956-0.669H8.355l0.955,0.669H0.004v-0.669v-10.843c4.574,2.434,9.626,4.608,18.614,4.608     c20.696,0,20.696-11.389,41.38-11.389s20.685,11.389,41.369,11.389s20.685-11.389,41.369-11.389     c20.696,0,20.696,11.389,41.38,11.389s20.685-11.389,41.369-11.389c20.696,0,20.696,11.389,41.051,11.389     c21.014,0,21.014-11.389,41.051-11.389c21.333,0,21.333,11.389,42.029,11.389c20.685,0,20.685-12.095,41.358-12.095     c9,0,14.051,2.298,18.625,4.881v26.32c-4.574-2.355-9.626-4.46-18.625-4.46C370.301-160.389,370.301-149.364,349.594-149.364z"/>
			<path style="fill:#EEEEEE;" d="M349.594-197.802c-20.673,0-20.673-11.378-41.403-11.378c-20.639,0-20.639,11.378-41.415,11.378     c-20.594,0-20.594-11.378-41.289-11.378c-20.685,0-20.685,11.378-41.369,11.378s-20.685-11.378-41.38-11.378     c-20.685,0-20.685,11.378-41.369,11.378S80.683-209.18,59.999-209.18s-20.685,11.378-41.38,11.378     c-8.988,0-14.04-2.162-18.614-4.596v-25.677c4.574,2.434,9.626,4.596,18.614,4.596c20.696,0,20.696-11.378,41.38-11.378     s20.685,11.378,41.369,11.378s20.685-11.378,41.369-11.378c20.696,0,20.696,11.378,41.38,11.378s20.685-11.378,41.369-11.378     c20.696,0,20.696,11.378,41.051,11.378c21.014,0,21.014-11.378,41.051-11.378c21.333,0,21.333,11.378,42.029,11.378     c20.685,0,20.685-12.083,41.358-12.083c9,0,14.051,2.298,18.625,4.881v26.314c-4.574-2.355-9.626-4.46-18.625-4.46     C370.301-208.827,370.301-197.802,349.594-197.802z"/>
		</g>
	</g>
	<g>
		<path style="fill:#C1694F;" d="M310.024-290.277c0-2.036-1.627-3.675-3.663-3.675s-3.686,1.638-3.686,3.675v180.461    c0,2.036,1.65,3.686,3.686,3.686c2.036,0,3.663-1.65,3.663-3.686V-290.277z"/>
		<path style="fill:#DD2E44;" d="M280.535-195.7c0,0,1.581,3.8,7.134,3.8c5.575,0,6.906-2.901,10.252-4.232    c3.345-1.343,7.578-2.014,7.578-2.014v-27.841h-29.855c0,0-1.115,10.467-2.901,15.587c-1.786,5.108-3.345,12.038,0.443,14.267    C276.985-193.925,280.535-195.7,280.535-195.7"/>
		<g>
			<path style="fill:#FFCC4D;" d="M305.379-188.455v-4.005c0,0-7.68,0.671-14.37,5.347c-4.073,2.844-12.698,6.36-19.376,0.66     c-4.346-3.663-4.005-13.039-1.32-16.703c2.651-3.675,5.336-12.038-0.353-6.36c-5.677,5.689-7.361,14.381-5.677,20.059     c1.672,5.677,5.336,11.355,14.029,11.355c8.704,0,14.381-4.677,18.387-7.02C300.179-187.146,305.732-187.784,305.379-188.455"/>
			<path style="fill:#FFCC4D;" d="M271.868-208.611l4.665,0.205l-1.331-7.111c0,0,4.677,3.55,4.904,2.674     c0.205-0.91,0.888-7.361,0.888-7.361l-6.018,1.343l3.561-5.143l-4.665-2.207c0,0-1.786,6.008-2.23,8.886     C271.175-214.413,271.868-208.611,271.868-208.611"/>
			<path style="fill:#FFCC4D;" d="M281.657-212.411l4.449,0.443c0,0-3.846,8.692,1.786,8.476c6.246-0.228,2.003-8.249,2.003-8.249     h4.687l0.66-6.463l-4.437,2.685v-3.8l4.881-4.687l-12.914-1.32l3.334,5.563l-0.216,4.005l-3.117-3.561L281.657-212.411z"/>
		</g>
		<path style="fill:#DD2E44;" d="M332.294-195.7c0,0-1.57,3.8-7.134,3.8c-5.563,0-6.895-2.901-10.24-4.232    c-3.345-1.343-7.578-2.014-7.578-2.014v-27.841h29.866c0,0,1.093,10.467,2.89,15.587c1.786,5.108,3.334,12.038-0.443,14.267    C335.844-193.925,332.294-195.7,332.294-195.7"/>
		<g>
			<path style="fill:#FFCC4D;" d="M307.444-188.455v-4.005c0,0,7.692,0.671,14.37,5.347c4.073,2.844,12.698,6.36,19.387,0.66     c4.346-3.663,3.994-13.039,1.32-16.703c-2.662-3.675-5.325-12.038,0.341-6.36c5.677,5.689,7.373,14.381,5.677,20.059     c-1.661,5.677-5.336,11.355-14.029,11.355c-8.704,0-14.381-4.677-18.375-7.02C312.667-187.146,307.115-187.784,307.444-188.455"/>
			<path style="fill:#FFCC4D;" d="M340.979-208.611l-4.677,0.205l1.331-7.111c0,0-4.677,3.55-4.904,2.674     c-0.205-0.91-0.888-7.361-0.888-7.361l6.008,1.343l-3.572-5.143l4.677-2.207c0,0,1.786,6.008,2.253,8.886     C341.639-214.413,340.979-208.611,340.979-208.611"/>
			<path style="fill:#FFCC4D;" d="M331.17-212.411l-4.46,0.443c0,0,3.857,8.692-1.786,8.476c-6.223-0.228-1.991-8.249-1.991-8.249     h-4.677l-0.683-6.463l4.46,2.685v-3.8l-4.892-4.687l12.925-1.32l-3.356,5.563l0.239,4.005l3.117-3.561L331.17-212.411z"/>
			<path style="fill:#FFCC4D;" d="M314.156-177.2c0-4.437-3.504-8.01-7.805-8.01c-4.301,0-7.794,3.572-7.794,8.01     c0,4.426,3.493,8.021,7.794,8.021S314.156-172.774,314.156-177.2"/>
			<path style="fill:#FFCC4D;" d="M313.368-165.182h-14.017v5.575h14.017V-165.182z"/>
			<path style="fill:#FFCC4D;" d="M309.693-207.291h-6.668v51.461h6.668V-207.291z"/>
			<path style="fill:#FFCC4D;" d="M300.823-205.056h10.467l-2.901-7.35l6.69,3.561v-9.785l-6.474,2.207l5.575-8.454h-14.484     l4.46,8.454l-6.451-1.548v8.692l6.018-2.901L300.823-205.056z"/>
			<path style="fill:#FFCC4D;" d="M306.378-221.533c13.824,0,22.505-1.138,32.313-4.677c0,0,0.671-5.814-0.671-8.704     c-1.32-2.901-31.857,2.014-31.857,2.014L306.378-221.533z"/>
			<path style="fill:#FFCC4D;" d="M306.779-221.533c-13.812,0-22.505-1.138-32.29-4.677c0,0-0.683-5.814,0.648-8.704     c1.343-2.901,31.846,2.014,31.846,2.014L306.779-221.533z"/>
		</g>
		<path style="fill:#EEEEEE;" d="M342.225-240.822c0-4.369-16.065-7.885-35.862-7.885c-19.809,0-35.885,3.515-35.885,7.885    c0,4.38,16.077,7.919,35.885,7.919C326.159-232.903,342.225-236.442,342.225-240.822"/>
		<path style="fill:#99AAB5;" d="M330.443-243.7c0-2.412-10.786-4.369-24.086-4.369c-13.312,0-24.109,1.957-24.109,4.369    c0,2.389,10.797,4.346,24.109,4.346C319.657-239.353,330.443-241.311,330.443-243.7"/>
		<path style="fill:#77B255;" d="M291.901-42.199l7.339-9.136c0,0,5.143,3.129,5.359,2.458c0.228-0.671-0.443-7.578-0.443-7.578    l3.572-0.888l-2.901-9.136c0,0,4.46,2.458,4.232,1.559c-0.228-0.888-1.331-8.692-1.331-8.692l1.786-1.103l-0.228-8.704    c0,0,1.798-3.106,1.798-2.434c0,0.66,1.775,11.355,1.775,11.355l2.458-2.003l0.865,5.563l2.014,9.58l2.23-3.561l4.677,15.827    l2.458-5.575l5.563,6.463l3.789,0.216l5.563,1.559l1.126-3.345h5.12c0,0-2.662-2.23-2.446-2.89    c0.216-0.671,4.892-3.117,4.221-3.345c-0.66-0.216-12.026,0.898-12.026,0.898l-6.451-6.463l4.005-1.343l-6.03-3.561l5.132-1.559    L330.45-71.6l4.005,0.443l-6.463-4.904l6.463-1.343l-8.681-4.449l1.991-2.23l-8.67-5.12l-1.126-3.572l8.249,6.463    c0,0,6.69,4.46,10.012,6.463c3.345,2.003,6.03,5.791,11.605,7.35c5.575,1.559,16.258-0.228,16.258-0.228l-10.035-5.336    l2.014-3.117l-6.463-2.014l0.888-3.777l-10.695-1.57l0.216-4.005l-9.125-1.559l-1.115-3.789l-6.235-2.23l2.901-2.446    c0,0-5.359-1.786-4.677-2.003c0.671-0.228,7.805-0.899,7.805-0.899s-3.584-3.117-2.913-3.117c0.671,0,9.569-0.443,9.569-0.443    l-3.789-2.674l8.943-0.443l-4.039-3.117c0,0,7.361-0.671,7.361-1.343c0-0.66-3.117-4.005-3.117-4.005l6.451-0.671    c0,0-3.106-3.345-2.446-3.572c0.683-0.216,9.136-6.008,9.136-6.008l-10.024,1.331c0,0-2.446-3.334-2.685-2.662    c-0.205,0.66-2.651,4.677-2.651,4.677l-2.458-2.674l-2.662,5.336c0,0-3.129-1.775-2.913-1.103    c0.216,0.672-3.572,4.904-3.572,4.904l-0.888-2.014l-2.446,6.018l-2.219-3.129l-4.244,5.803l-1.559-2.446l-5.791,5.12    c0,0-0.216-3.345,0-4.005c0.228-0.671,4.244-3.572,4.244-3.572s-2.685-1.115-2.685-1.775c0-0.671,5.359-4.904,5.359-4.904    l-2.458-1.786l5.791-4.904c0,0-5.348-1.103-4.687-1.559c0.683-0.443,3.345-4.005,3.345-4.005l-2.23-5.348l-4.437,6.906    l-2.458-0.671l-0.455,5.791l-2.434,0.228l1.32,6.451l-2.662-0.433l-0.228,5.347l-1.115,5.336l-2.23,3.572    c0,0-1.548-2.685-1.343-3.345c0.239-0.671,2.025-4.904,2.025-4.904s-2.458-1.331-2.025-2.003c0.455-0.671,2.901-5.563,2.901-5.563    s-5.348-1.115-4.677-1.115c0.683,0,2.458-3.117,2.458-3.117l-2.901-1.115l-1.331-3.345c0,0-3.334,3.789-3.129,3.117    c0.228-0.671-2.003-6.906-2.003-6.906l-3.322,3.789l3.322,13.141l-4.016,1.115l-2.89-6.018c0,0-2.446,2.89-2.674,2.23    c-0.228-0.66-2.685-5.12-2.685-5.12s-2.867,4.904-2.651,4.232c0.216-0.671-3.356-7.805-3.356-7.805s-3.117,6.246-3.117,5.347    c0-0.888-2.23-8.681-2.23-8.681s-3.55,6.018-3.345,4.904c0.239-1.115-2.434-6.246-2.434-6.246l-0.683,5.575l-4.892-2.901    l5.575,8.021l9.364,8.692l7.134,5.336l-4.699,0.671c0,0,6.781,2.367,7.566,2.458c2.014,0.228-3.106,2.003-3.106,2.003l12.47,3.789    c0,0-5.563,2.901-6.235,2.23c-0.672-0.671-7.35-2.003-7.35-2.003l-0.898,5.12l-6.895-2.901c0,0-1.126,4.687-1.343,4.016    c-0.228-0.671-5.575-3.561-5.575-3.561l-2.662,2.89l-3.129-4.904l-3.572,2.685l-6.44-2.014l3.106,4.677l-3.561,2.014l7.35,4.677    l1.559,3.117l10.035-0.671c0,0-2.685,3.572-2.23,2.901c0.455-0.671,10.24-2.23,10.24-2.23l2.913,0.443l9.796-3.561l-8.021,6.463    l-6.906,1.331l4.449,3.561l-10.467,3.789l2.241,3.561l-13.836,3.572l8.488,2.23l-5.803,9.796l12.026-7.134l5.348,1.786    l2.685-6.906l4.904-2.901l0.876-5.12l2.458,1.115l2.219-6.008l2.913,0.888l1.548-4.232l4.244-0.228l-1.126,5.575l1.775,2.674    l-4.892,4.005l4.244,2.003l-6.246,5.132l5.336,0.671l-7.578,7.35l6.042-0.228l-6.042,6.906l4.915,1.115L291.901-42.199z"/>
	</g>
</g>
<g>
</g>
<g>
</g>
<g>
</g>
<g>
</g>
<g>
</g>
<g>
</g>
<g>
</g>
<g>
</g>
<g>
</g>
<g>
</g>
<g>
</g>
<g>
</g>
<g>
</g>
<g>
</g>
<g>
</g>
</svg>
