<?xml version="1.0" encoding="iso-8859-1"?>
<!-- Generator: Adobe Illustrator 19.0.0, SVG Export Plug-In . SVG Version: 6.00 Build 0)  -->
<svg xmlns="http://www.w3.org/2000/svg" xmlns:xlink="http://www.w3.org/1999/xlink" version="1.1" id="Capa_1" x="0px" y="0px" viewBox="0 0 512 512" style="enable-background:new 0 0 512 512;" xml:space="preserve">
<g transform="matrix(1.25 0 0 -1.25 0 45)">
	<g>
		<g>
			<path style="fill:#EEEEEE;" d="M409.6-271.2c0-25.134-20.378-45.511-45.511-45.511H45.511C20.378-316.711,0-296.334,0-271.2     v204.8c0,25.134,20.378,45.511,45.511,45.511h318.578c25.134,0,45.511-20.378,45.511-45.511V-271.2z"/>
		</g>
	</g>
	<g>
		<g>
			<path style="fill:#F4900C;" d="M293.387-90.612c-0.262-1.047-0.535-2.105-0.796-3.152c-0.205-0.762-0.649-1.229-1.468-1.274     c-3.789-0.193-6.337-2.879-9.284-4.722c-0.944-0.592-1.308-1.707-1.684-2.731c-0.296-0.785-0.705-1.525-1.547-1.741     c-3.049-0.796-4.983-2.992-6.793-5.359c-0.387-0.489-0.785-0.785-1.422-0.876c-1.013-0.137-1.911-0.649-2.844-1.081     c-1.434-0.694-3.015-1.263-4.312-2.116c-3.163-2.059-6.11-4.471-8.112-7.76c-0.375-0.614-0.523-1.377-0.705-2.094     c-0.341-1.343-1.308-1.968-2.549-2.162c-0.922-0.159-1.889-0.159-2.822,0.034c-2.185,0.444-3.641-0.819-5.131-2.048     c-0.114-0.102-0.25-0.307-0.239-0.455c0.08-1.286-0.808-1.991-1.57-2.844c-0.842-0.978-0.978-2.276-1.172-3.527     c-0.649-3.846,0.523-7.054,3.277-9.728c1.411-1.365,2.833-2.697,3.254-4.756c0.114-0.523,0.546-0.887,0.967-1.206     c0.705-0.523,1.434-1.024,2.116-1.559c0.364-0.273,0.933-0.558,0.99-0.91c0.262-1.786,1.866-2.537,2.776-3.823     c0.535-0.762,0.74-1.661,0.535-2.606c-0.091-0.387-0.137-0.728,0.455-1.047c-0.387,0-0.558-0.057-0.626,0.011     c-1.161,0.979-2.765,0.899-3.994,1.695c-0.478,0.296-1.07,0.284-1.627,0.319c-1.502,0.102-3.004,0.603-4.483-0.398     c-0.637-0.444-1.57-0.228-2.378-0.171c-0.535,0.034-0.819-0.137-0.683-0.717c0.25-0.933-0.114-1.536-0.944-1.991     c-0.956-0.523-1.866-0.569-2.753,0.046c-0.91,0.603-1.729,1.308-2.628,1.911c-0.99,0.649-2.071,0.978-3.265,1.001     c-1.752,0.046-3.504,0.239-5.245-0.046c-2.844-0.444-5.598-2.401-5.666-6.121c-0.034-1.616-0.057-3.231-0.068-4.847     c-0.011-0.546-0.148-0.933-0.705-1.252c-0.99-0.58-1.468-1.581-1.764-2.64c-0.171-0.592-0.341-0.842-1.058-0.66     c-2.81,0.74-4.437,0.137-6.087-2.253c-0.466-0.683-1.024-1.013-1.832-1.183c-2.253-0.455-4.483-0.978-6.019-2.901     c-0.171-0.228-0.432-0.205-0.66-0.25c-1.047-0.239-2.048-0.546-2.765-1.399c-0.262-0.284-0.523-0.284-0.842-0.284     c-0.466,0.023-0.978-0.068-1.252-0.398c-0.603-0.785-1.274-0.785-2.116-0.489c-0.774,0.239-1.593,0.102-2.401,0     c-0.262-0.023-0.535-0.114-0.728-0.364c-0.979-1.217-2.81-1.798-4.346-1.354c-2.947,0.853-5.882,1.024-8.715-0.375     c-1.024-0.489-2.094-0.91-3.106-1.399c-2.378-1.138-4.244-3.004-5.109-5.575c-0.501-1.49,0.046-2.89,0.899-4.176     c0.375-0.557,0.91-1.047,1.104-1.786c-2.23,0.205-4.403,0.41-6.588,0.558c-0.387,0.023-0.546,0.091-0.466,0.535     c0.205,1.263,0.228,2.514-0.523,3.641c-1.172,1.786-2.355,3.538-4.244,4.608c-1.013,0.569-2.173,0.489-3.277,0.193     c-1.001-0.239-1.968-0.466-2.97,0c-0.603,0.296-1.172,0-1.638-0.421c-1.149-1.024-2.446-1.468-3.971-1.172     c-0.284,0.046-0.558,0.023-0.796-0.159c-0.899-0.717-1.832-0.557-2.765-0.114c-1.593,0.74-3.243,1.286-4.904,1.843     c-0.762,0.25-1.377,0.649-1.855,1.297c-0.91,1.24-2.071,1.934-3.698,1.752c-0.683-0.068-1.445-0.068-1.923,0.705     c-0.216,0.364-0.694,0.205-1.081,0.159c-0.99-0.114-2.059,0.137-2.526,0.956c-1.001,1.752-2.697,2.492-4.301,3.379     c-0.705,0.398-0.876,0.91-1.138,1.65c-0.774,2.173-1.07,4.46-1.741,6.656c-0.262,0.819-0.967,1.172-1.673,1.49     c-1.183,0.535-2.31,1.092-2.264,2.651c0,0.102-0.068,0.205-0.125,0.296c-0.614,0.967-1.593,1.809-0.546,3.152     c0.262,0.341-0.284,1.035-0.58,1.513c-0.41,0.66-0.535,1.32-0.341,2.094c0.341,1.308,0.25,2.64-0.011,3.959     c-0.08,0.387-0.25,0.717-0.523,1.013c-0.887,0.91-1.456,2.048-1.991,3.186c-0.728,1.57-0.125,3.026,0.478,4.437     c0.284,0.637,0.774,0.319,0.91-0.102c0.717-2.276,2.97-3.106,4.506-4.517c1.297-1.195,3.493-1.047,5.291-0.205     c1.308,0.614,2.344,1.684,3.607,2.321c2.298,1.161,3.3,3.118,3.914,5.404c0.421,1.593,1.559,2.697,2.651,3.834     c0.102,0.102,0.239,0.262,0.33,0.25c1.354-0.341,2.276,0.66,3.345,1.126c3.14,1.354,6.178,1.07,9.296-0.091     c2.435-0.91,4.71-2.116,7.043-3.254c1.274-0.626,2.401-0.614,3.664,0.08c3.345,1.832,5.37,4.46,5.666,8.363     c0.205,2.628,0.307,5.245,0.41,7.873c0.057,1.923-0.592,3.721-0.751,5.598c-0.137,1.616-0.137,1.661,1.286,1.001     c2.97-1.365,6.144-2.094,9.227-3.083c1.331-0.421,2.64-0.193,3.937,0.171c1.058,0.296,2.037,0.273,3.038-0.25     c0.853-0.455,1.764-0.421,2.617,0.08c1.001,0.592,1.9,0.523,2.788-0.273c0.899-0.819,1.968-1.115,3.209-0.922     c2.025,0.33,4.005-0.137,6.019-0.33c2.731-0.25,5.473-1.013,8.272-0.364c1.172,0.284,2.435-0.148,3.664,0.091     c2.708,0.535,5.53,0.569,8.033,1.934c0.523,0.273,1.081,0.296,1.638,0.216c2.992-0.398,5.507,0.535,7.657,2.628     c0.535,0.535,1.161,1.001,1.798,1.445c1.047,0.751,1.991,1.263,3.516,0.853c1.866-0.512,3.891,0.046,5.803,0.489     c4.619,1.07,8.761,3.277,12.88,5.518c2.196,1.195,4.233,2.742,6.781,3.254c0.762,0.148,1.32,0.751,1.832,1.354     c0.933,1.138,1.9,2.253,2.776,3.425c0.375,0.512,0.785,0.705,1.411,0.637c1.911-0.193,3.664,0.284,5.313,1.286     c0.558,0.341,1.149,0.705,1.786,0.842c1.991,0.41,3.413,1.627,4.528,3.197c1.013,1.422,2.321,2.15,4.062,2.185     c0.899,0.023,1.764,0.159,2.002,1.297c0.068,0.387,0.466,0.569,0.808,0.546c3.607-0.239,6.485,1.718,9.535,3.152     c0.58,0.273,1.126,0.558,1.695,0.831C293.296-90.498,293.342-90.555,293.387-90.612"/>
			<g>
				<path style="fill:#5C913B;" d="M147.615-215.995c0.148-0.694-0.091-0.819-0.831-0.603c-4.039,1.138-7.623,2.958-10.138,6.474      c-0.831,1.126-1.365,2.423-1.684,3.8c-0.148,0.66-0.023,1.013,0.774,0.819c4.676-1.161,8.408-3.686,11.036-7.76      C147.285-214.061,147.593-214.971,147.615-215.995"/>
				<path style="fill:#5C913B;" d="M243.974-216.78c-0.239,1.263,0.091,2.423,0.728,3.447c2.617,4.13,6.394,6.645,11.116,7.839      c0.831,0.205,0.853-0.239,0.717-0.842c-0.58-2.685-2.082-4.801-4.164-6.508C249.913-214.846,247.08-216.075,243.974-216.78"/>
				<path style="fill:#5C913B;" d="M254.783-219.397c-0.08-0.444-0.353-0.774-0.671-1.047c-3.345-3.061-7.179-4.756-11.81-4.312      c-1.149,0.114-2.196,0.603-3.163,1.297c-0.512,0.353-0.478,0.592-0.011,0.99c1.684,1.445,3.63,2.367,5.746,2.913      c2.901,0.762,5.848,0.956,8.829,0.466C254.089-219.135,254.453-219.192,254.783-219.397"/>
				<path style="fill:#5C913B;" d="M141.528-218.839c3.14-0.046,6.645-0.694,9.762-2.776c0.569-0.375,1.513-0.796,1.456-1.354      c-0.068-0.649-1.024-0.956-1.707-1.252c-1.911-0.842-3.868-0.819-5.86-0.353c-2.97,0.717-5.666,1.98-7.839,4.198      c-0.262,0.273-0.66,0.58-0.523,0.956c0.125,0.296,0.614,0.273,0.944,0.341C138.843-218.862,139.924-218.839,141.528-218.839"/>
				<path style="fill:#5C913B;" d="M153.941-214.47c0-1.07-0.137-2.094-0.501-3.083c-0.228-0.58-0.478-0.671-0.99-0.296      c-1.616,1.206-2.583,2.844-3.243,4.688c-1.092,3.049-1.604,6.155-0.819,9.353c0.273,1.115,0.398,1.138,1.183,0.319      C152.485-206.586,153.668-210.34,153.941-214.47"/>
				<path style="fill:#5C913B;" d="M237.568-214.084c0.319,3.846,1.479,7.578,4.358,10.604c0.831,0.887,0.99,0.865,1.206-0.319      c0.899-4.688,0.046-9.023-2.844-12.868c-0.444-0.592-1.115-1.479-1.752-1.308c-0.751,0.205-0.717,1.308-0.842,2.094      C237.579-215.369,237.614-214.834,237.568-214.084"/>
				<path style="fill:#5C913B;" d="M212.218-221.183c0.364-6.269-2.606-10.775-6.872-14.825      C203.981-231.093,206.393-223.538,212.218-221.183"/>
				<path style="fill:#5C913B;" d="M186.254-236.156c-4.119,4.005-7.145,8.226-6.986,14.063c0.023,0.865,0.307,0.887,0.967,0.489      c3.982-2.378,5.78-6.019,6.224-10.468C186.584-233.335,186.573-234.62,186.254-236.156"/>
				<path style="fill:#5C913B;" d="M227.521-214.425c0.762-2.196,0.671-4.403,0.228-6.622c-0.535-2.731-1.616-5.2-3.698-7.157      c-1.024-0.956-1.183-0.933-1.718,0.398c-0.671,1.673-0.603,3.379-0.182,5.074c0.762,3.015,2.287,5.621,4.551,7.748      c0.148,0.159,0.307,0.296,0.478,0.421C227.26-214.516,227.351-214.493,227.521-214.425"/>
				<path style="fill:#5C913B;" d="M163.92-214.334c3.789-2.537,6.451-8.693,5.552-12.516c-0.171-0.751-0.319-1.775-0.967-1.968      c-0.603-0.182-1.195,0.705-1.65,1.263C163.669-223.686,162.862-219.306,163.92-214.334"/>
				<path style="fill:#5C913B;" d="M227.897-230.604c3.709-0.228,6.906-1.559,9.375-4.449c0.808-0.933,0.751-1.013-0.466-1.354      c-3.072-0.842-5.939-0.068-8.704,1.229c-1.536,0.728-2.935,1.638-4.176,2.799c-0.512,0.466-0.501,0.751,0.182,1.024      C225.314-230.889,226.566-230.581,227.897-230.604"/>
				<path style="fill:#5C913B;" d="M163.669-230.627c1.206,0.023,2.367-0.205,3.482-0.649c1.058-0.421,1.104-0.546,0.262-1.263      c-2.355-2.071-5.074-3.447-8.169-4.016c-1.536-0.296-3.049-0.273-4.562,0.171c-1.183,0.33-1.217,0.398-0.41,1.354      c1.866,2.253,4.324,3.493,7.111,4.164C162.133-230.695,162.907-230.627,163.669-230.627"/>
				<path style="fill:#5C913B;" d="M229.49-240.025c-4.369-2.116-10.741-1.98-13.87,2.89c-0.432,0.705-0.33,0.933,0.432,1.115      C221.241-234.825,225.61-236.361,229.49-240.025"/>
				<path style="fill:#5C913B;" d="M162.054-240.07c2.378,2.537,5.234,3.891,8.556,4.358c1.582,0.216,3.14,0.137,4.688-0.273      c1.092-0.262,1.115-0.33,0.501-1.24c-2.15-3.152-5.234-4.289-8.909-4.062C165.251-241.208,163.647-240.89,162.054-240.07"/>
				<path style="fill:#5C913B;" d="M177.971-229.58c-0.046-1.001-0.216-1.798-0.512-2.606c-0.25-0.637-0.523-0.705-1.047-0.262      c-1.9,1.582-3.163,3.595-4.073,5.871c-0.933,2.31-1.673,4.665-1.252,7.214c0.057,0.319,0.057,0.762,0.319,0.853      c0.375,0.148,0.58-0.296,0.808-0.512c2.503-2.469,4.619-5.154,5.495-8.647c0.102-0.398,0.148-0.796,0.205-1.217      C177.948-229.182,177.96-229.444,177.971-229.58"/>
				<path style="fill:#5C913B;" d="M213.561-229.626c-0.011,1.661,0.501,3.22,1.252,4.71c1.161,2.287,2.788,4.244,4.631,6.042      c0.546,0.512,0.785,0.558,0.956-0.262c0.375-1.775,0.057-3.493-0.421-5.177c-0.865-3.026-2.219-5.78-4.631-7.93      c-0.876-0.785-0.967-0.74-1.377,0.353C213.675-231.162,213.572-230.399,213.561-229.626"/>
				<path style="fill:#5C913B;" d="M221.093-245.532c-2.264-0.159-4.562-0.239-6.827,0.398c-3.083,0.887-5.018,3.072-6.417,5.848      c-0.205,0.398-0.228,0.637,0.353,0.637c5.359-0.011,9.614-2.219,12.823-6.44c0.068-0.068,0.091-0.182,0.137-0.284      C221.161-245.395,221.138-245.441,221.093-245.532"/>
				<path style="fill:#5C913B;" d="M170.223-245.623c0.694,1.422,1.604,2.287,2.583,3.083c2.935,2.423,6.258,3.914,10.149,3.891      c0.66,0,1.001-0.046,0.58-0.819c-1.968-3.914-5.063-6.064-9.489-6.133C172.84-245.646,171.622-245.623,170.223-245.623"/>
				<path style="fill:#5C913B;" d="M231.606-223.641c-1.502,2.219-1.616,4.574-1.035,6.997c0.603,2.606,1.923,4.847,3.675,6.849      c0.489,0.558,0.728,0.466,1.035-0.114c0.831-1.513,0.933-3.106,0.683-4.779C235.44-218.111,233.95-221.024,231.606-223.641"/>
				<path style="fill:#5C913B;" d="M156.706-209.362c3.538-3.072,6.292-10.092,3.254-14.154      C156.001-220.501,154.146-212.411,156.706-209.362"/>
				<path style="fill:#5C913B;" d="M150.994-230.559c-1.604,0.046-3.482,0.228-5.131,1.286c-1.047,0.671-1.035,0.762-0.125,1.536      c2.048,1.798,4.471,2.025,7.009,1.65c1.934-0.296,3.812-0.853,5.712-1.343c0.637-0.171,0.626-0.398,0.262-0.842      c-0.853-0.956-2.002-1.377-3.186-1.729C154.158-230.399,152.735-230.559,150.994-230.559"/>
				<path style="fill:#5C913B;" d="M240.185-230.559c-2.037,0.046-3.925,0.262-5.7,1.115c-0.205,0.08-0.387,0.171-0.569,0.284      c-0.569,0.33-1.365,0.717-1.331,1.354c0.034,0.58,0.944,0.489,1.479,0.626c2.469,0.649,4.915,1.399,7.509,1.195      c1.593-0.125,2.97-0.728,4.176-1.752c0.91-0.774,0.922-0.865-0.114-1.536C243.94-230.354,242.028-230.513,240.185-230.559"/>
				<path style="fill:#5C913B;" d="M205.141-243.381c-2.844,0.694-5.712,1.377-8.556,2.094c-0.569,0.125-1.081,0.125-1.638,0      c-2.856-0.74-5.712-1.399-8.59-2.048c1.798,1.422,3.846,2.332,6.269,3.061c-3.163,1.092-6.087,2.116-9.273,3.231      c1.138,0.171,1.877-0.182,2.628-0.387c2.992-0.774,5.996-1.422,9.011-1.991c1.297-0.25,2.514,0.171,3.732,0.421      c3.63,0.705,7.225,1.638,10.832,2.549c-3.413-1.422-6.929-2.526-10.65-3.8C201.273-241.003,203.332-241.868,205.141-243.381"/>
			</g>
			<path style="fill:#EC8001;" d="M293.251-90.453c0.091,0.057,0.193,0.125,0.239-0.023c0.023-0.023-0.068-0.091-0.102-0.137     C293.342-90.555,293.296-90.498,293.251-90.453"/>
		</g>
	</g>
</g>
<g>
</g>
<g>
</g>
<g>
</g>
<g>
</g>
<g>
</g>
<g>
</g>
<g>
</g>
<g>
</g>
<g>
</g>
<g>
</g>
<g>
</g>
<g>
</g>
<g>
</g>
<g>
</g>
<g>
</g>
</svg>
