<?xml version="1.0" encoding="iso-8859-1"?>
<!-- Generator: Adobe Illustrator 19.0.0, SVG Export Plug-In . SVG Version: 6.00 Build 0)  -->
<svg xmlns="http://www.w3.org/2000/svg" xmlns:xlink="http://www.w3.org/1999/xlink" version="1.1" id="Capa_1" x="0px" y="0px" viewBox="0 0 512 512" style="enable-background:new 0 0 512 512;" xml:space="preserve">
<g transform="matrix(1.25 0 0 -1.25 0 45)">
	<g>
		<g>
			<path style="fill:#0021AD;" d="M409.6-271.2c0-25.134-20.378-45.511-45.511-45.511H45.511C20.378-316.711,0-296.334,0-271.2     v204.8c0,25.134,20.378,45.511,45.511,45.511h318.578c25.134,0,45.511-20.378,45.511-45.511V-271.2z"/>
			<path style="fill:#1B8A42;" d="M393.876-305.356c9.557,8.34,15.724,20.48,15.724,34.156v204.8     c0,25.134-20.378,45.511-45.511,45.511H45.511c-11.457,0-21.788-4.369-29.787-11.355L393.876-305.356z"/>
			<g>
				<path style="fill:#FFFFFF;" d="M96.939-217.292l1.934-6.645h6.679l-5.279-4.062l1.946-6.451l-5.279,4.073l-5.279-3.891      l1.934,6.269l-5.279,4.062h6.508L96.939-217.292z"/>
				<path style="fill:#FFFFFF;" d="M79.508-143.291l-7.726-7.134l0.774,10.479l-10.399,1.593l8.67,5.939l-5.234,9.114l10.058-3.072      l3.857,9.774l3.857-9.774l10.058,3.072l-5.234-9.114l8.658-5.939l-10.388-1.593l0.774-10.479L79.508-143.291z"/>
				<path style="fill:#FFFFFF;" d="M38.286-203.73l-7.726-7.134l0.774,10.479l-10.399,1.593l8.67,5.928l-5.234,9.125l10.058-3.083      l3.857,9.785l3.857-9.785l10.058,3.083l-5.234-9.125l8.658-5.928l-10.388-1.593l0.774-10.479L38.286-203.73z"/>
				<path style="fill:#FFFFFF;" d="M119.194-198.746l-7.726-7.134l0.774,10.479l-10.399,1.593l8.67,5.939l-5.234,9.114l10.058-3.072      l3.857,9.773l3.857-9.773l10.058,3.072l-5.234-9.114l8.658-5.928l-10.388-1.604l0.774-10.479L119.194-198.746z"/>
				<path style="fill:#FFFFFF;" d="M78.837-286.822l-7.726-7.134l0.774,10.49l-10.399,1.582l8.67,5.951l-5.234,9.114l10.058-3.072      l3.857,9.785l3.857-9.785l10.058,3.072l-5.234-9.114l8.658-5.928l-10.388-1.604l0.774-10.49L78.837-286.822z"/>
			</g>
			<path style="fill:#FFC639;" d="M164.261-168.8c0,22.391,18.148,40.539,40.539,40.539s40.55-18.148,40.55-40.539     s-18.159-40.55-40.55-40.55S164.261-191.191,164.261-168.8"/>
			<path style="fill:#1B8A42;" d="M180.474-150.129c0,0,12.345-11.446,18.694-11.935c10.354-0.796,20.218,7.828,20.218,14.188     l9.728,4.119v-12.743l9.284-6.36l-17.385-15.918v-19.103l-10.388,2.514l-0.751,13.278c0,0-0.455,5.029-6.827,5.029     c-6.372,0-11.355,0.41-12.675,3.857c-0.364,0.944-17.226-2.389-17.226-2.389l10.911,15.212l-3.584,3.88V-150.129z"/>
			<path style="fill:#FFC639;" d="M336.976-38.16c2.64,2.071,27.409-22.403,30.356-27.125c2.947-4.71,1.775-22.403,4.722-30.367     c2.947-7.953,5.586-9.728,8.545-7.953c2.947,1.764,13.278,0,14.746-3.834c0,0-8.26-5.018-8.852-8.556     c0,0-26.226-9.136-41.267-16.794c-15.041-7.669-11.139-3.732-23.586-9.148c-18.284-7.953-34.793-4.119-46.876-2.355     c-12.095,1.764-8.567,4.426,0,3.243c8.545-1.183,34.179,1.479,40.971,3.834c6.781,2.344,20.048,12.971,25.657,15.622     c5.598,2.651,12.675,12.379,6.485,18.273c-6.201,5.905-24.769,14.154-32.142,22.118c-7.384,7.964-7.373,9.136,4.13,7.373     c11.503-1.775,21.606-7.851,27.113-13.358c5.905-5.894,11.15,1.65,7.612,11.093s-8.476,8.454-11.73,17.01     C339.615-50.539,334.313-40.22,336.976-38.16"/>
		</g>
	</g>
</g>
<g>
</g>
<g>
</g>
<g>
</g>
<g>
</g>
<g>
</g>
<g>
</g>
<g>
</g>
<g>
</g>
<g>
</g>
<g>
</g>
<g>
</g>
<g>
</g>
<g>
</g>
<g>
</g>
<g>
</g>
</svg>
