<?xml version="1.0" encoding="iso-8859-1"?>
<!-- Generator: Adobe Illustrator 19.0.0, SVG Export Plug-In . SVG Version: 6.00 Build 0)  -->
<svg xmlns="http://www.w3.org/2000/svg" xmlns:xlink="http://www.w3.org/1999/xlink" version="1.1" id="Capa_1" x="0px" y="0px" viewBox="0 0 512 512" style="enable-background:new 0 0 512 512;" xml:space="preserve">
<g transform="matrix(1.25 0 0 -1.25 0 45)">
	<g>
		<g>
			<path style="fill:#002B7F;" d="M0-271.2c0-25.134,20.378-45.511,45.511-45.511h318.578c25.134,0,45.511,20.378,45.511,45.511     v22.756H0V-271.2z"/>
			<path style="fill:#F9E814;" d="M0-248.444h409.6v45.511H0V-248.444z"/>
			<path style="fill:#002B7F;" d="M108.851-136.453l-17.829,12.959l-17.84-12.959l6.815,20.969l-17.84,12.948h22.05l6.815,20.969     l6.804-20.969h22.05l-17.84-12.948L108.851-136.453z M45.511-75.093l-13.38-9.717l5.109,15.724l-13.38,9.717h16.543l5.109,15.724     l5.109-15.724h16.532l-13.38-9.717l5.109-15.724C58.88-84.809,45.511-75.093,45.511-75.093z M364.089-20.889H45.511     C20.378-20.889,0-41.266,0-66.4v-136.533h409.6V-66.4C409.6-41.266,389.222-20.889,364.089-20.889"/>
			<g>
				<path style="fill:#FFFFFF;" d="M97.838-102.536l-6.815,20.969l-6.804-20.969h-22.05l17.84-12.959l-6.815-20.958l17.829,12.948      l17.84-12.948l-6.815,20.958l17.829,12.959H97.838z"/>
				<path style="fill:#FFFFFF;" d="M67.152-59.369H50.62l-5.109,15.724l-5.109-15.724H23.871l13.369-9.717l-5.109-15.724      l13.38,9.717l13.369-9.717l-5.109,15.724L67.152-59.369z"/>
			</g>
		</g>
	</g>
</g>
<g>
</g>
<g>
</g>
<g>
</g>
<g>
</g>
<g>
</g>
<g>
</g>
<g>
</g>
<g>
</g>
<g>
</g>
<g>
</g>
<g>
</g>
<g>
</g>
<g>
</g>
<g>
</g>
<g>
</g>
</svg>
