<?xml version="1.0" encoding="iso-8859-1"?>
<!-- Generator: Adobe Illustrator 19.0.0, SVG Export Plug-In . SVG Version: 6.00 Build 0)  -->
<svg xmlns="http://www.w3.org/2000/svg" xmlns:xlink="http://www.w3.org/1999/xlink" version="1.1" id="Capa_1" x="0px" y="0px" viewBox="0 0 512 512" style="enable-background:new 0 0 512 512;" xml:space="preserve">
<path style="fill:#003893;" d="M455.111,71.111H56.889C25.472,71.111,0,96.583,0,128v142.222v28.444v42.667v28.444V384  c0,31.417,25.472,56.889,56.889,56.889h398.222C486.528,440.889,512,415.417,512,384v-14.222v-28.444v-42.667v-28.444V128  C512,96.583,486.528,71.111,455.111,71.111z"/>
<g>
	<rect y="270.222" style="fill:#EEEEEE;" width="512" height="28.444"/>
	<rect y="341.333" style="fill:#EEEEEE;" width="512" height="28.444"/>
</g>
<rect y="298.667" style="fill:#CF2027;" width="512" height="42.667"/>
<g>
	<path style="fill:#F7D116;" d="M204.05,226.184l10.866-7.893H201.49l-4.153-12.772l-4.153,12.772h-13.44l10.866,7.893   l-4.139,12.772l10.866-7.893l10.866,7.893L204.05,226.184z"/>
	<path style="fill:#F7D116;" d="M291.97,290.059l10.866-7.893H289.41l-4.153-12.772l-4.153,12.772h-13.44l10.866,7.893   l-4.139,12.772l10.866-7.893l10.866,7.893L291.97,290.059z"/>
	<path style="fill:#F7D116;" d="M116.129,290.059l10.866-7.893h-13.426l-4.153-12.772l-4.153,12.772h-13.44l10.866,7.893   l-4.139,12.772l10.866-7.893l10.866,7.893L116.129,290.059z"/>
	<path style="fill:#F7D116;" d="M116.129,347.193l10.866-7.893h-13.426l-4.153-12.772l-4.153,12.772h-13.44l10.866,7.893   l-4.139,12.772l10.866-7.893l10.866,7.893L116.129,347.193z"/>
	<path style="fill:#F7D116;" d="M291.97,347.193l10.866-7.893H289.41l-4.153-12.772l-4.153,12.772h-13.44l10.866,7.893   l-4.139,12.772l10.866-7.893l10.866,7.893L291.97,347.193z"/>
	<path style="fill:#F7D116;" d="M201.485,403.176l-4.153-12.772l-4.153,12.772h-13.426l10.866,7.893l-4.153,12.772l10.866-7.893   l10.866,7.893l-4.153-12.772l10.88-7.893H201.485z"/>
	<path style="fill:#F7D116;" d="M258.389,393.415l10.866-7.893h-13.426l-4.153-12.772l-4.153,12.772h-13.44l10.866,7.893   l-4.139,12.772l10.866-7.893l10.866,7.893L258.389,393.415z"/>
	<path style="fill:#F7D116;" d="M258.389,244.027l10.866-7.893h-13.426l-4.153-12.772l-4.153,12.772h-13.44l10.866,7.893   l-4.139,12.772l10.866-7.893l10.866,7.893L258.389,244.027z"/>
	<path style="fill:#F7D116;" d="M136.279,393.415l-10.866-7.893h13.426l4.153-12.772l4.153,12.772h13.44l-10.866,7.893l4.139,12.772   l-10.866-7.893l-10.866,7.893L136.279,393.415z"/>
	<path style="fill:#F7D116;" d="M136.279,244.027l-10.866-7.893h13.426l4.153-12.772l4.153,12.772h13.44l-10.866,7.893l4.139,12.772   l-10.866-7.893l-10.866,7.893L136.279,244.027z"/>
</g>
<g>
</g>
<g>
</g>
<g>
</g>
<g>
</g>
<g>
</g>
<g>
</g>
<g>
</g>
<g>
</g>
<g>
</g>
<g>
</g>
<g>
</g>
<g>
</g>
<g>
</g>
<g>
</g>
<g>
</g>
</svg>
