<?xml version="1.0" encoding="iso-8859-1"?>
<!-- Generator: Adobe Illustrator 19.0.0, SVG Export Plug-In . SVG Version: 6.00 Build 0)  -->
<svg xmlns="http://www.w3.org/2000/svg" xmlns:xlink="http://www.w3.org/1999/xlink" version="1.1" id="Capa_1" x="0px" y="0px" viewBox="0 0 511.999 511.999" style="enable-background:new 0 0 511.999 511.999;" xml:space="preserve">
<g transform="matrix(1.25 0 0 -1.25 0 45)">
	<g>
		<path style="fill:#00247D;" d="M364.089-20.89H45.515c-25.133,0-45.511-20.378-45.511-45.511v-204.798    c0-25.133,20.378-45.511,45.511-45.511h318.574c25.133,0,45.511,20.378,45.511,45.511v204.798    C409.599-41.267,389.223-20.89,364.089-20.89z"/>
		<g>
			<g>
				<g>
					<path style="fill:#EEEEEE;" d="M216.179-168.8v23.085l-80.781,56.559H75.905L189.647-168.8H216.179z"/>
					<path style="fill:#CF1B2B;" d="M216.179-152.666l-90.691,63.51h-19.831l110.522-77.391V-152.666z"/>
					<path style="fill:#EEEEEE;" d="M92.159-89.156L0-154.759v-14.04h37.91l113.754,79.644L92.159-89.156L92.159-89.156z"/>
					<path style="fill:#CF1B2B;" d="M121.904-89.156L8.355-168.8h3.026h16.623l113.742,79.644H121.904z"/>
					<path style="fill:#EEEEEE;" d="M189.658-20.89L75.916-100.534h59.493l80.77,56.559v23.085H189.658z"/>
					<path style="fill:#CF1B2B;" d="M199.558-20.89L85.827-100.534h19.831L216.18-23.143v2.253H199.558z"/>
				</g>
				<path style="fill:#EEEEEE;" d="M7.545-41.318l106.235-74.36v15.144h37.865L38.651-21.406      C25.67-23.37,14.494-30.822,7.545-41.318z"/>
				<path style="fill:#CF1B2B;" d="M11.028-36.724l102.753-72.024v8.214h8.123L19.671-28.947      C16.467-31.163,13.564-33.78,11.028-36.724z"/>
			</g>
			<g>
				<path style="fill:#EEEEEE;" d="M216.179-66.401h-79.644v45.511H79.648v-45.511H0.004v-56.888h79.644V-168.8h56.888v45.511      h79.644V-66.401z"/>
				<g>
					<path style="fill:#CF1B2B;" d="M125.158-168.8H91.025V-20.89h34.133V-168.8z"/>
					<path style="fill:#CF1B2B;" d="M216.179-111.911H0.004v34.133h216.175V-111.911z"/>
				</g>
			</g>
		</g>
	</g>
	<g>
		<path style="fill:#FFFFFF;" d="M316.339-98.061l9.238,6.713h-11.423l-3.527,10.854L307.1-91.348h-11.423l9.238-6.713    l-3.527-10.866l9.238,6.713l9.238-6.713L316.339-98.061z"/>
		<path style="fill:#FFFFFF;" d="M345.486-106.495l11.173,2.367l-10.433,4.653l1.195,11.355l-7.646-8.488l-10.422,4.653l5.701-9.899    l-7.646-8.476l11.173,2.367l5.711-9.887L345.486-106.495z"/>
		<path style="fill:#FFFFFF;" d="M368.817-126.541l11.173-2.355l-7.657,8.476l5.689,9.899l-10.422-4.665l-7.657,8.465l1.217-11.355    l-10.422-4.665l11.173-2.344l1.217-11.355L368.817-126.541z"/>
		<path style="fill:#FFFFFF;" d="M381.832-153.846l9.273-6.668l-3.584,10.843l9.204,6.77l-11.423-0.069l-3.584,10.843l-3.47-10.877    l-11.423-0.057l9.273-6.668l-3.47-10.877L381.832-153.846z"/>
		<path style="fill:#FFFFFF;" d="M382.746-184.451l5.723-9.876l1.183,11.355l11.162,2.389l-10.445,4.631l1.183,11.355l-7.635-8.499    l-10.433,4.631l5.723-9.876l-7.623-8.499L382.746-184.451z"/>
		<path style="fill:#FFFFFF;" d="M370.941-212.281l1.183-11.355l5.723,9.887l11.162-2.378l-7.635,8.488l5.711,9.887l-10.433-4.642    l-7.635,8.488l1.183-11.355l-10.433-4.642L370.941-212.281z"/>
		<path style="fill:#FFFFFF;" d="M348.89-233.677l-3.482-10.877l9.204,6.747l9.273-6.668l-3.572,10.843l9.204,6.747l-11.412-0.045    l-3.572,10.843l-3.493-10.866l-11.412-0.045L348.89-233.677z"/>
		<path style="fill:#FFFFFF;" d="M320.209-243.674l-7.611-8.511l11.162,2.412l5.746-9.864l1.149,11.355l11.162,2.424l-10.445,4.596    l1.149,11.366l-7.611-8.511l-10.445,4.596L320.209-243.674z"/>
		<path style="fill:#FFFFFF;" d="M275.774-106.495l-11.173,2.367l10.433,4.653l-1.195,11.355l7.646-8.488l10.422,4.653l-5.701-9.899    l7.646-8.476l-11.173,2.367l-5.711-9.887L275.774-106.495z"/>
		<path style="fill:#FFFFFF;" d="M252.445-126.541l-11.173-2.355l7.657,8.476l-5.689,9.899l10.422-4.665l7.657,8.465l-1.217-11.355    l10.422-4.665l-11.173-2.344l-1.217-11.355L252.445-126.541z"/>
		<path style="fill:#FFFFFF;" d="M239.423-153.846l-9.273-6.668l3.584,10.843l-9.204,6.77l11.423-0.069l3.584,10.843l3.47-10.877    l11.423-0.057l-9.273-6.668l3.47-10.877L239.423-153.846z"/>
		<path style="fill:#FFFFFF;" d="M238.513-184.451l-5.723-9.876l-1.183,11.355l-11.162,2.389l10.445,4.631l-1.183,11.355    l7.635-8.499l10.433,4.631l-5.723-9.876l7.623-8.499L238.513-184.451z"/>
		<path style="fill:#FFFFFF;" d="M250.317-212.281l-1.183-11.355l-5.723,9.887l-11.162-2.378l7.635,8.488l-5.711,9.887l10.433-4.642    l7.635,8.488l-1.183-11.355l10.433-4.642L250.317-212.281z"/>
		<path style="fill:#FFFFFF;" d="M272.369-233.677l3.482-10.877l-9.204,6.747l-9.273-6.668l3.572,10.843l-9.204,6.747l11.412-0.045    l3.572,10.843l3.493-10.866l11.412-0.045L272.369-233.677z"/>
		<path style="fill:#FFFFFF;" d="M301.047-243.674l7.611-8.511l-11.162,2.412l-5.746-9.864l-1.149,11.355l-11.162,2.424    l10.445,4.596l-1.149,11.366l7.611-8.511l10.445,4.596L301.047-243.674z"/>
	</g>
</g>
<g>
</g>
<g>
</g>
<g>
</g>
<g>
</g>
<g>
</g>
<g>
</g>
<g>
</g>
<g>
</g>
<g>
</g>
<g>
</g>
<g>
</g>
<g>
</g>
<g>
</g>
<g>
</g>
<g>
</g>
</svg>
