<?xml version="1.0" encoding="iso-8859-1"?>
<!-- Generator: Adobe Illustrator 19.0.0, SVG Export Plug-In . SVG Version: 6.00 Build 0)  -->
<svg xmlns="http://www.w3.org/2000/svg" xmlns:xlink="http://www.w3.org/1999/xlink" version="1.1" id="Capa_1" x="0px" y="0px" viewBox="0 0 512 512" style="enable-background:new 0 0 512 512;" xml:space="preserve">
<path style="fill:#FBDE4A;" d="M495.337,87.775c-10.295-10.295-24.517-16.663-40.225-16.663h-85.333H56.889  C25.472,71.111,0,96.583,0,128v256c0,15.708,6.368,29.93,16.663,40.225c10.295,10.295,24.517,16.663,40.225,16.663h85.333h312.889  C486.528,440.889,512,415.417,512,384V128C512,112.292,505.632,98.07,495.337,87.775z"/>
<path style="fill:#009543;" d="M56.889,71.111C25.472,71.111,0,96.583,0,128v256c0,15.708,6.368,29.93,16.663,40.225L369.778,71.111  H56.889z"/>
<path style="fill:#DC241F;" d="M142.222,440.889h312.889C486.528,440.889,512,415.417,512,384V128  c0-15.708-6.368-29.93-16.663-40.225L142.222,440.889z"/>
<g>
</g>
<g>
</g>
<g>
</g>
<g>
</g>
<g>
</g>
<g>
</g>
<g>
</g>
<g>
</g>
<g>
</g>
<g>
</g>
<g>
</g>
<g>
</g>
<g>
</g>
<g>
</g>
<g>
</g>
</svg>
