<?xml version="1.0" encoding="iso-8859-1"?>
<!-- Generator: Adobe Illustrator 19.0.0, SVG Export Plug-In . SVG Version: 6.00 Build 0)  -->
<svg xmlns="http://www.w3.org/2000/svg" xmlns:xlink="http://www.w3.org/1999/xlink" version="1.1" id="Capa_1" x="0px" y="0px" viewBox="0 0 512 512" style="enable-background:new 0 0 512 512;" xml:space="preserve">
<path style="fill:#D21034;" d="M455.111,71.111H298.667h-85.333H56.889C25.472,71.111,0,96.583,0,128v35.137h213.333v0.418v0.418H0  V256v92.863V384c0,31.417,25.472,56.889,56.889,56.889h156.444h85.333h156.444C486.528,440.889,512,415.417,512,384v-35.137V256  v-92.026V128C512,96.583,486.528,71.111,455.111,71.111z M72.44,126.632l-9.618,29.784l-0.009,0.007l9.623-29.792L72.44,126.632z   M113.438,156.333l-9.591-29.701l0,0l9.626,29.727L113.438,156.333z"/>
<g>
	<path style="fill:#003082;" d="M455.111,71.111H298.667v92.863H512V128C512,96.583,486.528,71.111,455.111,71.111z"/>
	<path style="fill:#003082;" d="M213.333,163.137V71.111H56.889C25.472,71.111,0,96.583,0,128v35.137H213.333z M78.472,107.922   l9.671-29.781l9.671,29.781h31.317l-25.33,18.572l9.671,29.866l-25.33-18.362l-25.33,18.424l9.671-29.939l-25.33-18.561H78.472z"/>
</g>
<g>
	<rect x="298.667" y="163.974" style="fill:#EEEEEE;" width="213.333" height="92.026"/>
	<rect y="163.974" style="fill:#EEEEEE;" width="213.333" height="92.026"/>
</g>
<g>
	<rect y="256" style="fill:#289728;" width="213.333" height="92.863"/>
	<rect x="298.667" y="256" style="fill:#289728;" width="213.333" height="92.863"/>
</g>
<g>
	<path style="fill:#FFCE00;" d="M298.667,440.889h156.444C486.528,440.889,512,415.417,512,384v-35.137H298.667V440.889z"/>
	<path style="fill:#FFCE00;" d="M0,348.863V384c0,31.417,25.472,56.889,56.889,56.889h156.444v-92.026H0z"/>
	<path style="fill:#FFCE00;" d="M129.133,108.261H97.815L88.144,78.48l-9.671,29.781H47.156l25.33,18.404l-9.671,29.781   l25.33-18.404l25.33,18.404l-9.671-29.781L129.133,108.261z"/>
</g>
<g>
</g>
<g>
</g>
<g>
</g>
<g>
</g>
<g>
</g>
<g>
</g>
<g>
</g>
<g>
</g>
<g>
</g>
<g>
</g>
<g>
</g>
<g>
</g>
<g>
</g>
<g>
</g>
<g>
</g>
</svg>
