<?xml version="1.0" encoding="iso-8859-1"?>
<!-- Generator: Adobe Illustrator 19.0.0, SVG Export Plug-In . SVG Version: 6.00 Build 0)  -->
<svg xmlns="http://www.w3.org/2000/svg" xmlns:xlink="http://www.w3.org/1999/xlink" version="1.1" id="Capa_1" x="0px" y="0px" viewBox="0 0 512.043 512.043" style="enable-background:new 0 0 512.043 512.043;" xml:space="preserve">
<g transform="matrix(1.25 0 0 -1.25 0 45)">
	<g>
		<g>
			<g>
				<path style="fill:#007FFF;" d="M45.511-316.728h318.578c25.134,0,45.511,20.378,45.511,45.511v179.2L36.58-315.829      C39.47-316.398,42.45-316.728,45.511-316.728"/>
				<path style="fill:#007FFF;" d="M109.568-146.289l-34.816,26.624l-34.816-26.624l13.312,43.008L18.432-76.657H61.44      l13.312,43.008l13.312-43.008h43.008l-34.816-26.624L109.568-146.289z M364.089-20.906H45.511C20.378-20.906,0-41.284,0-66.417      v-179.2L373.02-21.805C370.131-21.236,367.15-20.906,364.089-20.906"/>
			</g>
			<g>
				<path style="fill:#F7D618;" d="M88.064-76.657L74.752-33.649L61.44-76.657H18.432l34.816-26.624l-13.312-43.008l34.816,26.624      l34.816-26.624l-13.312,43.008l34.816,26.624H88.064z"/>
				<path style="fill:#F7D618;" d="M36.58-315.829L409.6-92.017v15.36L21.311-309.628C25.919-312.541,31.039-314.726,36.58-315.829"/>
				<path style="fill:#F7D618;" d="M373.02-21.805L0-245.617v-15.36L388.289-28.006C383.681-25.093,378.561-22.908,373.02-21.805"/>
			</g>
			<path style="fill:#CE1021;" d="M388.324-28.006L0.034-260.977v-10.24c0-16.213,8.545-30.356,21.311-38.411L409.634-76.657v10.24     C409.634-50.204,401.089-36.061,388.324-28.006"/>
		</g>
	</g>
</g>
<g>
</g>
<g>
</g>
<g>
</g>
<g>
</g>
<g>
</g>
<g>
</g>
<g>
</g>
<g>
</g>
<g>
</g>
<g>
</g>
<g>
</g>
<g>
</g>
<g>
</g>
<g>
</g>
<g>
</g>
</svg>
