<?xml version="1.0" encoding="iso-8859-1"?>
<!-- Generator: Adobe Illustrator 19.0.0, SVG Export Plug-In . SVG Version: 6.00 Build 0)  -->
<svg xmlns="http://www.w3.org/2000/svg" xmlns:xlink="http://www.w3.org/1999/xlink" version="1.1" id="Capa_1" x="0px" y="0px" viewBox="0 0 512 512" style="enable-background:new 0 0 512 512;" xml:space="preserve">
<g transform="matrix(1.25 0 0 -1.25 0 45)">
	<g>
		<g>
			<path style="fill:#008000;" d="M409.6-271.2c0-25.134-20.378-45.511-45.511-45.511H45.511C20.378-316.711,0-296.334,0-271.2     v204.8c0,25.134,20.378,45.511,45.511,45.511h318.578c25.134,0,45.511-20.378,45.511-45.511V-271.2z"/>
			<g>
				<path style="fill:#FFE000;" d="M347.352-187.698l1.934-6.633h6.679l-5.279-4.062l1.946-6.463l-5.279,4.073l-5.279-3.88      l1.934,6.269l-5.279,4.062h6.508L347.352-187.698z"/>
				<path style="fill:#FFE000;" d="M329.933-113.697l-7.726-7.134l0.774,10.479l-10.399,1.593l8.67,5.939l-5.234,9.114l10.058-3.072      l3.857,9.774l3.857-9.774l10.058,3.072l-5.234-9.114l8.67-5.939l-10.399-1.593l0.774-10.479L329.933-113.697z"/>
			</g>
			<path id="SVGCleanerId_0" style="fill:#FFE000;" d="M288.711-174.148l-7.726-7.134l0.774,10.479l-10.399,1.593l8.67,5.939     l-5.234,9.114l10.058-3.072l3.857,9.773l3.857-9.773l10.058,3.072l-5.234-9.114l8.658-5.939l-10.388-1.593l0.774-10.479     L288.711-174.148z"/>
			<g transform="translate(7.11 0.439)">
				<path id="SVGCleanerId_0_1_" style="fill:#FFE000;" d="M369.607-169.153l-7.725-7.134l0.774,10.479l-10.399,1.593l8.67,5.939      l-5.234,9.114l10.058-3.072l3.857,9.774l3.857-9.774l10.058,3.072l-5.234-9.114l8.659-5.939l-10.388-1.593l0.774-10.479      L369.607-169.153z"/>
			</g>
			<g>
				<path style="fill:#FFE000;" d="M329.262-257.217l-7.725-7.134l0.774,10.49l-10.399,1.582l8.67,5.951l-5.234,9.114l10.058-3.083      l3.857,9.785l3.857-9.785l10.058,3.083l-5.234-9.114l8.659-5.939l-10.388-1.593l0.774-10.49L329.262-257.217z"/>
				<path style="fill:#FFE000;" d="M231.708-213.628c-24.747,0-44.828,20.093-44.828,44.84c0,24.769,20.082,44.828,44.828,44.828      c9.421,0,18.136-2.935,25.35-7.908c-10.308,11.833-25.441,19.342-42.371,19.342c-31.073,0-56.252-25.19-56.252-56.274      c0-31.061,25.179-56.263,56.252-56.263c16.93,0,32.074,7.509,42.394,19.342C249.867-210.682,241.129-213.628,231.708-213.628"/>
				<path style="fill:#FFE000;" d="M136.226-100.533c0-31.96-25.896-57.867-57.856-57.867c-31.972,0-57.867,25.907-57.867,57.867      S46.399-42.666,78.37-42.666C110.33-42.666,136.226-68.573,136.226-100.533"/>
			</g>
			<path style="fill:#802000;" d="M81.283-146.044H68.38c0,0,4.233,4.005,6.451,7.623c2.207,3.63,11.059,22.892,10.069,40.482     c-1.001,17.567,2.025,14.643,3.026,4.142c1.013-10.479,0-31.994-1.809-38.252c-1.809-6.235-3.823-10.217-1.206-11.036     c2.617-0.808,3.425-2.958,3.425-2.958H81.283z"/>
			<path style="fill:#008000;" d="M58.903-65.49h7.862l16.134-15.337l-5.45,9.887l4.961,3.083l1.49,12.242l13.505,1.206     l-1.809-6.861l7.054-3.63l-7.862-11.48l17.135,1.616l-3.22-10.092h9.273l3.834-12.698l-22.585,1.82l11.287-8.476v-12.902     l-23.791,22.38l-2.002-9.478l-1.411-9.466l-5.222-1.57l-1.24,7.214l-5.439-9.079h-7.259l7.054,25.589L34.918-98.36l9.671,11.696     l19.149,3.834l-16.93,8.863l24.997-4.426L46-65.49H58.903z"/>
		</g>
	</g>
</g>
<g>
</g>
<g>
</g>
<g>
</g>
<g>
</g>
<g>
</g>
<g>
</g>
<g>
</g>
<g>
</g>
<g>
</g>
<g>
</g>
<g>
</g>
<g>
</g>
<g>
</g>
<g>
</g>
<g>
</g>
</svg>
