<?xml version="1.0" encoding="iso-8859-1"?>
<!-- Generator: Adobe Illustrator 19.0.0, SVG Export Plug-In . SVG Version: 6.00 Build 0)  -->
<svg xmlns="http://www.w3.org/2000/svg" xmlns:xlink="http://www.w3.org/1999/xlink" version="1.1" id="Capa_1" x="0px" y="0px" viewBox="0 0 512 512" style="enable-background:new 0 0 512 512;" xml:space="preserve">
<g transform="matrix(1.25 0 0 -1.25 0 45)">
	<g>
		<g>
			<path style="fill:#CE1B26;" d="M409.6-271.2c0-25.134-20.378-45.511-45.511-45.511H45.511C20.378-316.711,0-296.334,0-271.2     v204.8c0,25.134,20.378,45.511,45.511,45.511h318.578c25.134,0,45.511-20.378,45.511-45.511V-271.2z"/>
			<path style="fill:#003E87;" d="M6.315-43.644C2.412-50.357,0-58.071,0-66.4v-204.8c0-8.329,2.412-16.031,6.315-22.756h396.982     c3.903,6.724,6.303,14.427,6.303,22.756v204.8c0,8.329-2.401,16.043-6.303,22.756H6.315z"/>
			<path style="fill:#FFFFFF;" d="M91.022-168.8c0,62.839,50.938,113.778,113.778,113.778S318.578-105.961,318.578-168.8     S267.639-282.589,204.8-282.589S91.022-231.639,91.022-168.8"/>
			<path style="fill:#730900;" d="M102.4-168.8c0,56.559,45.841,102.4,102.4,102.4s102.4-45.841,102.4-102.4     c0-56.548-45.841-102.411-102.4-102.411S102.4-225.348,102.4-168.8"/>
			<path style="fill:#FFFFFF;" d="M105.324-168.8c0,54.943,44.533,99.476,99.476,99.476c54.932,0,99.476-44.533,99.476-99.476     s-44.544-99.487-99.476-99.487C149.857-268.287,105.324-223.743,105.324-168.8"/>
			<g>
				<path style="fill:#007F00;" d="M204.8-263.736c-3.209,0-5.803-3.334-5.803-7.464c0-4.142,2.594-7.464,5.803-7.464      c3.209,0,5.803,3.322,5.803,7.464C210.603-267.07,208.009-263.736,204.8-263.736 M210.603-66.4c0-4.13-2.594-7.464-5.803-7.464      c-3.209,0-5.803,3.334-5.803,7.464s2.594,7.475,5.803,7.475C208.009-58.925,210.603-62.27,210.603-66.4"/>
				<path style="fill:#007F00;" d="M229.376-77.095c3.095-0.831,6.463,1.707,7.532,5.7c1.07,3.994-0.569,7.885-3.664,8.727      c-3.106,0.819-6.474-1.741-7.532-5.712C224.643-72.385,226.27-76.276,229.376-77.095 M172.692-266.217      c1.07,3.994,4.449,6.542,7.543,5.723c3.095-0.831,4.745-4.733,3.664-8.727c-1.058-3.982-4.437-6.542-7.532-5.723      C173.272-274.101,171.634-270.21,172.692-266.217"/>
				<path style="fill:#007F00;" d="M252.245-86.539c2.776-1.604,6.69-0.011,8.761,3.561c2.059,3.584,1.479,7.771-1.297,9.375      c-2.776,1.593-6.69,0.011-8.75-3.573C248.889-80.747,249.469-84.934,252.245-86.539 M148.56-254.543      c2.059,3.584,5.985,5.177,8.761,3.584c2.765-1.616,3.345-5.803,1.286-9.375c-2.071-3.584-5.985-5.188-8.761-3.584      C147.069-262.303,146.489-258.116,148.56-254.543"/>
				<path style="fill:#007F00;" d="M271.929-101.671c2.264-2.264,6.451-1.729,9.375,1.183c2.924,2.924,3.447,7.111,1.183,9.387      c-2.264,2.264-6.463,1.741-9.375-1.195C270.188-95.209,269.665-99.407,271.929-101.671 M128.284-237.101      c2.924,2.924,7.122,3.447,9.387,1.183c2.264-2.264,1.729-6.463-1.183-9.387c-2.924-2.924-7.111-3.459-9.387-1.195      C124.837-244.223,125.372-240.025,128.284-237.101"/>
				<path style="fill:#007F00;" d="M287.061-121.355c1.604-2.765,5.78-3.356,9.353-1.286c3.584,2.059,5.177,5.985,3.584,8.75      c-1.616,2.776-5.803,3.368-9.387,1.297C287.039-114.653,285.446-118.578,287.061-121.355 M113.254-214.994      c3.573,2.059,7.771,1.479,9.375-1.297c1.593-2.765,0-6.69-3.573-8.75c-3.584-2.071-7.771-1.49-9.375,1.286      C108.078-220.978,109.682-217.053,113.254-214.994"/>
				<path style="fill:#007F00;" d="M296.505-144.224c0.819-3.106,4.71-4.745,8.715-3.675c3.982,1.07,6.531,4.437,5.712,7.543      c-0.842,3.083-4.733,4.733-8.715,3.664C298.212-137.761,295.674-141.141,296.505-144.224 M104.38-189.701      c3.994,1.07,7.896-0.569,8.715-3.664c0.831-3.106-1.718-6.474-5.712-7.543c-3.994-1.07-7.885,0.569-8.715,3.675      C97.838-194.138,100.398-190.77,104.38-189.701"/>
				<path style="fill:#007F00;" d="M299.736-168.8c0-3.209,3.334-5.803,7.464-5.803c4.142,0,7.464,2.594,7.464,5.803      c0,3.209-3.322,5.803-7.464,5.803C303.07-162.997,299.736-165.591,299.736-168.8 M102.4-162.997c4.13,0,7.475-2.594,7.475-5.803      c0-3.209-3.345-5.803-7.475-5.803c-4.13,0-7.475,2.594-7.475,5.803C94.925-165.591,98.27-162.997,102.4-162.997"/>
				<path style="fill:#007F00;" d="M296.505-193.376c-0.831-3.095,1.707-6.463,5.7-7.532c3.994-1.07,7.885,0.569,8.727,3.664      c0.819,3.106-1.741,6.474-5.712,7.532C301.215-188.643,297.324-190.27,296.505-193.376 M107.383-136.692      c3.994-1.07,6.542-4.449,5.723-7.543c-0.831-3.095-4.733-4.745-8.727-3.664c-3.982,1.058-6.542,4.437-5.723,7.532      C99.499-137.272,103.39-135.634,107.383-136.692"/>
				<path style="fill:#007F00;" d="M287.061-216.268c-1.604-2.765-0.011-6.69,3.561-8.761c3.584-2.059,7.771-1.468,9.375,1.297      c1.593,2.776,0.011,6.702-3.573,8.761C292.853-212.9,288.666-213.492,287.061-216.268 M119.057-112.571      c3.584-2.059,5.177-5.985,3.584-8.761c-1.616-2.765-5.803-3.345-9.375-1.274c-3.584,2.059-5.188,5.973-3.584,8.75      C111.297-111.081,115.484-110.5,119.057-112.571"/>
				<path style="fill:#007F00;" d="M271.929-235.929c-2.264-2.264-1.729-6.44,1.183-9.375c2.924-2.913,7.111-3.447,9.387-1.183      c2.264,2.264,1.741,6.474-1.195,9.375C278.391-234.177,274.193-233.665,271.929-235.929 M136.499-92.284      c2.924-2.913,3.447-7.111,1.183-9.387c-2.264-2.264-6.463-1.729-9.387,1.183c-2.924,2.924-3.459,7.122-1.195,9.387      C129.377-88.837,133.575-89.36,136.499-92.284"/>
				<path style="fill:#007F00;" d="M252.245-251.016c-2.765-1.604-3.356-5.791-1.286-9.364c2.059-3.584,5.985-5.166,8.75-3.573      c2.776,1.604,3.368,5.791,1.297,9.375C258.947-251.004,255.022-249.412,252.245-251.016 M158.606-77.22      c2.059-3.573,1.479-7.76-1.297-9.364c-2.765-1.604-6.69,0-8.75,3.573c-2.071,3.573-1.49,7.76,1.286,9.364      C152.622-72.043,156.547-73.636,158.606-77.22"/>
				<path style="fill:#007F00;" d="M229.376-260.505c-3.106-0.831-4.745-4.722-3.675-8.727c1.07-3.971,4.437-6.531,7.543-5.7      c3.083,0.842,4.733,4.733,3.664,8.715C235.839-262.223,232.459-259.674,229.376-260.505 M183.899-68.391      c1.07-3.982-0.569-7.885-3.664-8.715c-3.106-0.831-6.474,1.729-7.543,5.723c-1.07,3.982,0.569,7.885,3.675,8.715      C179.462-61.849,182.83-64.398,183.899-68.391"/>
			</g>
			<g>
				<path style="fill:#B34B00;" d="M170.212-102.786l11.287-19.263h12.368l5.541-4.449l3.413-11.787l-12.242,5.37l11.423-9.353      l-2.753-9.375h9.409v16.646l15.36,9.409l-2.537,1.889l-12.743-7.111l-1.479,10.399l-2.298,2.469l7.828,9.66l-4.05,1.638      l-5.905-8.761l-0.831,7.122l0.831,8.795c0,0-3.937,3.129-3.584,2.094c0.375-1.024,0-7.737,0-7.737l-7.396,7.953l-3.425-1.365      l7.43-6.588l-8.636-6.44l-10.479,2.879l2.014,10.684h-2.15l-1.855-10.069l-1.855,8.59l-2.685-4.745"/>
				<path style="fill:#B34B00;" d="M212.366-101.705h-2.469v9.25h2.469V-101.705z"/>
				<path style="fill:#B34B00;" d="M225.929-99.236h-3.083v4.927h3.083V-99.236z"/>
			</g>
			<path style="fill:#FFFFFF;" d="M183.865-113.72c0.375-0.922,2.037-5.461,2.037-5.461l11.89-1.229l5.04-5.177l-1.98,5.939     l-3.061,6.872L183.865-113.72z"/>
			<g>
				<path style="fill:#289400;" d="M170.45-92.66c7.157,4.301,11.822-2.879,11.822-2.879s2.958,9.045,11.799,9.66      c8.829,0.614,8.75-3.288,8.75-3.288s1.968,5.678,13.767,3.356c11.81-2.321,11.446-6.235,9.466-7.873      c-1.98-1.65-19.854-0.626-19.854-0.626s1.843-3.493,2.048-4.927c0.205-1.445,6.576,2.674,16.634,0c0,0,4.949,8.636,12.55,4.107      c7.612-4.517,12.584-13.153,10.706-15.61c-1.866-2.469-15.428-0.831-16.976,0.819c0,0-2.753-4.528-9.136-3.698      c-6.383,0.819-17.067,7.6-17.067,7.6l-2.139,3.288c0,0-4.949,3.914-10.968,4.119c-6.007,0.193-10.183,0-10.183,0      s-4.05-4.733-8.772-5.348c-4.733-0.626-9.648-0.41-9.648-0.41S162.247-97.598,170.45-92.66"/>
				<path style="fill:#289400;" d="M178.756-105.813c11.822,1.855,19.627,0,20.446-5.757c0.819-5.757-8.818-4.722-10.775-4.927      c-1.968-0.216-13.266-4.119-16.964-3.914c-3.698,0.205-11.31,3.914-5.757,9.25C171.258-105.813,178.756-105.813,178.756-105.813      "/>
				<path style="fill:#289400;" d="M224.017-116.292c11.628-2.708,17.112-9.045,14.438-11.719c-2.674-2.662-9.523-2.264-15.758,0      c-6.235,2.264-14.882,0.626-16.816,4.938C203.935-118.761,210.83-113.208,224.017-116.292"/>
				<path style="fill:#289400;" d="M220.069-131.094c8.829-1.456,9.148-9.239,7.714-10.684c-1.445-1.434-15.007,0.41-18.091,4.107      C206.609-133.973,211.331-129.66,220.069-131.094"/>
				<path style="fill:#289400;" d="M187.233-127.18c11.014,4.164,15.735-0.626,15.599-4.938c-0.125-4.312-9.364-4.107-12.971-5.746      c-3.595-1.661-10.172-3.709-12.425-1.24C175.161-136.635,178.54-130.468,187.233-127.18"/>
			</g>
			<path style="fill:#ADADAD;" d="M179.678-240.89c-3.072-3.026-7.703-9.33,2.241-11.264c9.956-1.934,6.076,7.839,3.982,9.466     C183.797-241.049,179.678-240.89,179.678-240.89"/>
			<path style="fill:#6699FF;" d="M184.627-243.711c0.205-0.603,1.434-3.493,0-5.131c-1.445-1.65-3.903-2.89-6.167-2.674     c0,0,9.66-1.638,11.708-2.685c2.059-1.001,3.903,2.071,2.879,6.383S184.627-243.711,184.627-243.711"/>
			<path style="fill:#EEEEEE;" d="M204.914-239.172v-10.49c0,0-8.431-0.193-18.079,3.493c-9.66,3.709-11.514,5.552-11.514,5.552     s-8.226-2.469-12.129-2.469c-3.903,0-5.131,1.445-6.576,3.914c-1.434,2.469-3.903,7.373-4.107,8.818s4.528,6.588,9.865,6.588     s12.538-4.312,12.538-4.312s3.288,3.288,8.636,0.421c5.336-2.89,8.42-3.709,8.01-9.045c0,0,2.913-1.49,5.757-2.264     C201.83-240.218,204.914-239.172,204.914-239.172"/>
			<g>
				<path style="fill:#ADADAD;" d="M175.878-228.761c3.937-2.662,12.151-6.417,15.735-7.953c0,0,1.274,3.459-1.911,5.461      c-3.174,2.025-7.782,3.846-10.024,4.733C177.425-225.632,175.878-228.761,175.878-228.761"/>
				<path style="fill:#ADADAD;" d="M177.425-240.89c-5.541,4.972-9.034,6.849-13.153,7.669c-4.107,0.819-8.92-0.694-8.772-3.846      c0.137-3.152,4.085-6.44,7.748-6.019C166.901-242.687,177.425-240.89,177.425-240.89"/>
			</g>
			<g>
				<path style="fill:#6699FF;" d="M177.425-229.933c0,0,0.205,3.891,2.879,2.264c2.674-1.661,1.855-4.619,1.855-4.619      L177.425-229.933z"/>
				<path style="fill:#6699FF;" d="M173.739-239.604c0,0-6.986,5.131-10.069,5.131c-3.095,0-6.167-0.193-5.973-2.549      c0.216-2.378,4.324-3.402,6.588-3.8C166.537-241.254,173.739-239.604,173.739-239.604"/>
			</g>
			<path style="fill:#ADADAD;" d="M230.241-240.89c3.083-3.026,7.714-9.33-2.23-11.264c-9.967-1.934-6.076,7.839-3.994,9.466     C226.133-241.049,230.241-240.89,230.241-240.89"/>
			<path style="fill:#6699FF;" d="M225.314-243.711c-0.216-0.603-1.445-3.493,0-5.131c1.434-1.65,3.903-2.89,6.155-2.674     c0,0-9.66-1.638-11.708-2.685c-2.059-1.001-3.903,2.071-2.867,6.383C217.919-243.506,225.314-243.711,225.314-243.711"/>
			<path style="fill:#EEEEEE;" d="M204.914-239.172v-10.49c0,0,8.42-0.193,18.079,3.493c9.66,3.709,11.514,5.552,11.514,5.552     s8.215-2.469,12.117-2.469c3.903,0,5.131,1.445,6.576,3.914c1.434,2.469,3.914,7.373,4.107,8.818     c0.205,1.445-4.517,6.588-9.865,6.588c-5.336,0-12.527-4.312-12.527-4.312s-3.288,3.288-8.636,0.421     c-5.348-2.89-8.42-3.709-8.01-9.045c0,0-2.913-1.49-5.757-2.264C207.997-240.218,204.914-239.172,204.914-239.172"/>
			<g>
				<path style="fill:#ADADAD;" d="M234.052-228.761c-3.959-2.662-12.151-6.417-15.735-7.953c0,0-1.274,3.459,1.9,5.461      c3.174,2.025,7.794,3.846,10.024,4.733C232.493-225.632,234.052-228.761,234.052-228.761"/>
				<path style="fill:#ADADAD;" d="M232.505-240.89c5.541,4.972,9.034,6.849,13.153,7.669c4.107,0.819,8.909-0.694,8.772-3.846      c-0.148-3.152-4.085-6.44-7.748-6.019C243.018-242.687,232.505-240.89,232.505-240.89"/>
			</g>
			<g>
				<path style="fill:#6699FF;" d="M232.505-229.933c0,0-0.205,3.891-2.867,2.264c-2.685-1.661-1.855-4.619-1.855-4.619      L232.505-229.933z"/>
				<path style="fill:#6699FF;" d="M236.203-239.604c0,0,6.986,5.131,10.069,5.131c3.083,0,6.167-0.193,5.962-2.549      c-0.205-2.378-4.324-3.402-6.576-3.8C243.393-241.254,236.203-239.604,236.203-239.604"/>
			</g>
			<g>
				<path style="fill:#D3D3D3;" d="M170.894-228.715c4.801-1.866,12.538-10.263,0-4.938      C158.345-228.294,163.487-225.825,170.894-228.715"/>
				<path style="fill:#D3D3D3;" d="M187.506-238.58c5.45-1.49,14.586-3.072,19.729-3.072c5.131,0,8.42-5.348,2.048-4.733      c-6.372,0.626-19.524,2.002-24.041,3.868C180.725-240.628,183.023-237.34,187.506-238.58"/>
				<path style="fill:#D3D3D3;" d="M219.967-239.172c5.746,3.072,16.646,9.842,20.343,10.684c3.698,0.831,8.226,0.41,7.817-1.445      c-0.421-1.866-2.685-2.856-6.167-3.288c-3.504-0.421-14.802-9.865-21.993-10.889      C212.787-245.145,219.967-239.172,219.967-239.172"/>
			</g>
			<path style="fill:#289400;" d="M148.48-206.085c11.344,2.264,62.475,3.686,77.062,1.843     c14.598-1.843,46.455-10.684,42.337-15.826c-4.107-5.131-21.777-4.733-31.846-3.083c-10.069,1.65-13.983-7.202-31.039-7.396     c-17.055-0.205-25.691,5.348-32.882,8.021c-7.191,2.662-17.465,1.217-23.632-0.626     C142.313-224.995,121.97-211.444,148.48-206.085"/>
			<path d="M204.914-226.872v77.687h-30.208v-38.844c0-14.177,10.684-25.691,15.098-29.798c4.426-4.085,15.11-10.069,15.11-10.069"/>
			<path d="M204.914-226.872v77.687h30.197v-38.844c0-14.177-10.672-25.691-15.098-29.798c-4.415-4.085-15.098-10.069-15.098-10.069     "/>
			<path style="fill:#9ED7FF;" d="M204.914-151.642h-27.125v-36.42c0-12.732,9.591-24.314,13.562-28.001     c3.971-3.686,13.562-9.045,13.562-9.045s9.591,5.359,13.551,9.045c3.971,3.686,13.574,15.269,13.574,28.001v36.42H204.914z"/>
			<path style="fill:#006AC8;" d="M187.233-211.444h35.476c1.388,1.752,2.844,3.823,4.198,6.155h-43.873     C184.377-207.621,185.845-209.692,187.233-211.444"/>
			<path style="fill:#5AC800;" d="M187.233-211.444c1.604-2.025,3.095-3.618,4.176-4.619c0.728-0.694,1.65-1.399,2.674-2.162h21.777     c1.024,0.762,1.946,1.468,2.674,2.162c1.07,1.001,2.571,2.594,4.176,4.619H187.233z"/>
			<path style="fill:#FFD801;" d="M204.914-225.12c0,0,6.383,3.573,10.889,6.884h-21.788     C198.519-221.547,204.914-225.12,204.914-225.12"/>
			<path style="fill:#FFFFFF;" d="M180.053-199.11l24.917,22.198v25.27h-27.125v-36.42     C177.846-191.908,178.722-195.663,180.053-199.11"/>
			<path style="fill:#FFD83C;" d="M229.831-199.11c1.343,3.447,2.219,7.202,2.219,11.048v36.42h-27.113v-25.27L229.831-199.11z"/>
			<path style="fill:#B34B00;" d="M201.421-172.521l-0.125,0.114c-0.353,0.364-0.944,0.364-1.308,0l-0.774-0.774l-5.37,5.382     c0.626,0.853,0.705,1.9,0.114,2.48l-10.9,10.706c-0.66,0.66-1.911,0.455-2.788-0.444c-0.876-0.887-1.058-2.139-0.398-2.788     l10.9-10.718c0.455-0.444,1.183-0.489,1.877-0.182l5.495-5.507l-1.126-1.126c-0.364-0.364-0.364-0.956,0-1.32l0.125-0.114     c0.353-0.353,0.944-0.353,1.308,0l2.97,2.981C201.785-173.465,201.785-172.885,201.421-172.521"/>
			<path style="fill:#782121;" d="M183.979-178.13c-0.421-0.558-1.217-0.671-1.775-0.239s-0.649,1.217-0.228,1.775l11.662,15.235     c0.421,0.558,1.217,0.66,1.764,0.239c0.558-0.432,0.66-1.217,0.239-1.775L183.979-178.13z"/>
			<path style="fill:#D3D3D3;" d="M198.383-163.578l-6.827,4.335l3.254,5.12l6.827-4.335L198.383-163.578z"/>
			<path style="fill:#782121;" d="M227.556-176.264c0.466-0.512,1.274-0.558,1.786-0.08c0.512,0.466,0.558,1.263,0.08,1.775     l-12.937,14.177c-0.478,0.523-1.274,0.558-1.786,0.08c-0.512-0.466-0.558-1.263-0.08-1.775L227.556-176.264z"/>
			<g>
				<path style="fill:#FFFFFF;" d="M211.445-165.694l5.86,5.564l-4.176,4.392l-5.86-5.552L211.445-165.694z"/>
				<path style="fill:#FFFFFF;" d="M228.807-159.709l-15.314-14.689l-3.834,4.016l15.303,14.689L228.807-159.709z"/>
			</g>
			<path style="fill:#B34B00;" d="M189.85-198.359c0,0,8.306-3.823,15.417-4.005c7.1-0.171,8.886,1.001,8.886,1.001l-2.037-3.925     h-17.317L189.85-198.359z"/>
			<path style="fill:#FFFFFF;" d="M192.592-197.825l4.358-3.129h14.086h2.037l-2.196,10.661l-13.926-0.66L192.592-197.825z"/>
			<path style="fill:#892614;" d="M161.803-120.353c4.779,2.31,13.87,7.396,15.258,8.169c1.388,0.762,3.698-2.002,1.547-2.935     c-2.162-0.922-13.562-7.703-16.805-9.239C158.572-125.906,161.803-120.353,161.803-120.353"/>
			<g>
				<path style="fill:#FBD44D;" d="M145.158-210.42c-0.614-4.506-3.288-9.045,1.855-10.468c5.131-1.445,6.098,3.334,4.699,7.623      C150.3-208.975,145.158-210.42,145.158-210.42"/>
				<path style="fill:#FBD44D;" d="M163.044-210.181c-0.819-1.889-3.288-6.019,1.65-5.484c4.927,0.523,8.01,0.489,11.093,0      c3.083-0.512,4.938,2.844,1.638,2.708c-3.277-0.137-5.757,1.07-6.997,4.13C169.199-205.778,163.044-210.181,163.044-210.181"/>
				<path style="fill:#FBD44D;" d="M150.972-153.383l-1.468,7.964c0,0-4.153-4.255-5.586-6.303      c-1.434-2.059-4.289,0.922-5.951,2.264c-1.638,1.331-3.493,5.439-3.903,8.92c-0.41,3.493-4.528,5.552-3.083,8.01      c1.434,2.469,2.674,3.709,5.143,3.709c2.458,0,3.072-3.288,3.072-3.288s4.756-0.614,2.879-2.879      c-4.619-5.609-0.956-6.565-0.956-6.565l2.799,3.482c0,0-1.035,6.565,0,7.805c1.035,1.24,7.202,3.493,9.25,3.698      c2.071,0.205,4.528,2.059,3.607,3.288s-2.981,3.493-2.981,6.167s-0.933,8.431,5.074,7.6c6.019-0.819,8.078-4.722,6.428-8.01      c-1.638-3.288-2.458-4.312-1.843-6.167c0.614-1.855,0.796-4.119,4.813-4.324c4.016-0.193,4.79-1.479,5.404-4.983      c0.614-3.493,0.671-5.279,0.466-8.158c-0.205-2.879,0.023-3.903,0.023-3.903s3.675,0.717,6.349,0.307      c2.674-0.41,8.215-3.812,8.215-3.812h-9.648h-3.698l-1.035-4.324c0,0-1.445-1.65-2.059-1.434      c-0.614,0.216-4.016,5.552-4.016,5.552l-1.525-5.552L150.972-153.383z"/>
			</g>
			<path style="fill:#D3D3D3;" d="M149.879-152.882c-2.253-4.927-4.312-15.61-3.903-21.356c0.41-5.757,1.547-11.719-0.057-17.044     c-1.582-5.359-3.846-20.56-3.846-20.56l5.757-3.914l6.372,4.119l1.024,24.041l3.641,11.901l3.55-8.613l-1.434-26.715     l10.479,0.205c0,0-0.831,24.667-1.035,28.558c-0.193,3.903-1.661,15.826-2.162,19.524c-0.501,3.698-1.525,8.42-1.525,8.42     L149.879-152.882z"/>
			<path style="fill:#9B5F00;" d="M150.3-151.847c0,0,4.233-1.161,8.579-1.035c4.54,0.137,9.193,1.559,9.296,1.035     c0.216-1.035,0-4.528,0-4.528s-3.8,0.831-8.886,0c-5.074-0.819-7.134-0.614-8.988,0C148.457-155.761,150.3-151.847,150.3-151.847     "/>
			<path d="M160.313-106.222c4.528,0,6.497-3.493,6.292-7.191c-0.193-3.698-1.32-4.733-1.32-4.733s0.74,4.005-1.627,2.059v3.903     c0,0-5.143-0.41-6.884,0c-1.752,0.41-2.776,0.819-2.776,0.819l-0.717-2.776c0,0-2.367,2.776-0.102,5.45     c2.253,2.674,6.076,2.469,6.076,2.469"/>
			<path style="fill:#892614;" d="M125.611-139.775c2.094,3.083,5.86,5.393,5.86,5.393s0.614-0.774,2.776,0     c2.162,0.774,2.002,1.388,3.243,1.843c1.229,0.466,1.07,1.855,1.07,1.855s7.248,2.935,10.331,4.324     c3.072,1.377,6.622,3.538,6.622,3.538l1.388-1.081c0,0,0-2.31-1.229-3.083c-1.24-0.762-10.479-5.393-11.253-6.007     c-0.774-0.614-2.469-1.24-2.469-1.24s-0.762,1.547-1.536,0.922c-0.774-0.603-1.24-2.298-1.24-2.298s-3.083-1.388-4.927-2.628     c-1.855-1.229-4.005-5.552-6.019-6.474C126.236-145.635,124.837-140.947,125.611-139.775"/>
			<path style="fill:#D3D3D3;" d="M169.927-115.12c1.126,1.081,5.279,3.994,6.292,2.458c1.001-1.536,2.537-10.012,7.475-9.239     c0,0-2.924-2.617-5.393-3.846c-2.469-1.24-6.838-1.547-6.838-1.547s-0.057,4.005,0,6.315     C171.52-118.658,169.927-115.12,169.927-115.12"/>
			<path style="fill:#B34B00;" d="M217.771-104.174c1.695,0.774,18.421-8.169,21.231-9.398c2.81-1.24,4.517-6.167,7.293-7.248     c2.765-1.081,0.455-2.924-1.24-2.002c-1.695,0.922-5.393,0.614-8.636,1.695c-3.243,1.081-20.548,10.308-21.015,11.696     C214.949-108.054,217.771-104.174,217.771-104.174"/>
			<g>
				<path style="fill:#892614;" d="M264.306-210.42c0.614-4.506,3.288-9.045-1.855-10.468c-5.131-1.445-6.087,3.334-4.676,7.623      C259.163-208.975,264.306-210.42,264.306-210.42"/>
				<path style="fill:#892614;" d="M246.374-210.181c0.819-1.889,3.277-6.019-1.65-5.484c-4.927,0.523-8.01,0.489-11.093,0      c-3.083-0.512-4.927,2.844-1.638,2.708c3.277-0.137,5.769,1.07,6.997,4.13C240.219-205.778,246.374-210.181,246.374-210.181"/>
				<path style="fill:#892614;" d="M258.446-153.383l1.468,7.964c0,0,3.3-3.311,4.745-5.37c1.434-2.048,4.79-2.276,6.417-0.933      c1.661,1.331,3.868,7.703,4.278,11.184c0.398,3.493,4.301,2.879,2.856,5.348c-1.434,2.469-2.958,4.05-5.427,4.05      c-2.469,0-2.56-0.967-2.56-0.967s-3.14-0.831-1.911-3.504c1.229-2.662-0.364-6.246-0.364-6.246l-2.446,2.094      c0,0-0.774,7.862-1.809,9.091c-1.047,1.229-5.393,3.903-7.441,4.107c-2.059,0.205-4.528,2.059-3.607,3.288      c0.933,1.229,2.981,3.493,2.981,6.167s0.944,8.431-5.074,7.6c-6.03-0.819-8.078-4.722-6.428-8.01      c1.638-3.288,1.377-4.528,0.774-6.372c-0.626-1.843,0.273-3.914-3.743-4.119c-4.016-0.193-5.359-2.31-5.985-5.803      c-0.614-3.493-0.091-4.46,0.114-7.339c0.205-2.879-0.023-3.903-0.023-3.903s-3.675,0.717-6.349,0.307      c-2.674-0.41-8.215-3.812-8.215-3.812h9.648h3.698l1.035-4.324c0,0,1.434-1.65,2.059-1.434c0.626,0.216,4.016,5.552,4.016,5.552      l1.525-5.552L258.446-153.383z"/>
			</g>
			<path style="fill:#D3D3D3;" d="M259.539-152.882c2.253-4.927,4.312-15.61,3.903-21.356c-0.41-5.757-1.547-11.719,0.057-17.044     c1.581-5.359,3.846-20.56,3.846-20.56l-5.746-3.914l-6.383,4.119l-1.024,24.041l-3.641,11.901l-3.55-8.613l1.445-26.715     l-10.49,0.205c0,0,0.819,24.667,1.024,28.558c0.216,3.903,1.673,15.826,2.173,19.524c0.512,3.698,1.536,8.42,1.536,8.42     L259.539-152.882z"/>
			<path style="fill:#9B5F00;" d="M259.106-151.847c0,0-4.221-1.161-8.567-1.035c-4.528,0.137-9.205,1.559-9.307,1.035     c-0.205-1.035,0-4.528,0-4.528s3.823,0.831,8.897,0c5.074-0.819,7.134-0.614,8.977,0     C260.961-155.761,259.106-151.847,259.106-151.847"/>
			<path d="M249.105-106.222c-4.506,0-6.497-3.493-6.292-7.191c0.205-3.698,1.274-4.733,1.274-4.733s-0.899,4.005,1.57,2.059v3.903     c0,0,5.188-0.41,6.94,0s2.81,0.819,2.81,0.819l0.717-2.776c0,0,2.367,2.776,0.114,5.45c-2.264,2.674-6.064,2.469-6.064,2.469"/>
			<g>
				<path style="fill:#B34B00;" d="M252.7-122.834l16.885-9.068c0,0-2.241,0.011-2.196-1.934c0.057-1.946-13.824,6.531-13.824,6.531      L252.7-122.834z"/>
				<path style="fill:#B34B00;" d="M276.321-136.385l5.245-1.695c0,0,0.626,1.695,2.15,0.853c1.547-0.853-0.762-7.714-1.843-7.6      c-1.07,0.125-2.31,1.809-2.469,3.197c-0.148,1.388-4.767,3.243-4.767,3.243L276.321-136.385z"/>
			</g>
		</g>
	</g>
</g>
<g>
</g>
<g>
</g>
<g>
</g>
<g>
</g>
<g>
</g>
<g>
</g>
<g>
</g>
<g>
</g>
<g>
</g>
<g>
</g>
<g>
</g>
<g>
</g>
<g>
</g>
<g>
</g>
<g>
</g>
</svg>
