<?xml version="1.0" encoding="iso-8859-1"?>
<!-- Generator: Adobe Illustrator 19.0.0, SVG Export Plug-In . SVG Version: 6.00 Build 0)  -->
<svg xmlns="http://www.w3.org/2000/svg" xmlns:xlink="http://www.w3.org/1999/xlink" version="1.1" id="Capa_1" x="0px" y="0px" viewBox="0 0 511.998 511.998" style="enable-background:new 0 0 511.998 511.998;" xml:space="preserve">
<g transform="matrix(1.25 0 0 -1.25 0 45)">
	<path style="fill:#FFD521;" d="M409.546-64.25c-0.011,0.226-0.028,0.45-0.042,0.675c-0.03,0.491-0.066,0.981-0.111,1.468   c-0.023,0.254-0.05,0.507-0.079,0.76c-0.052,0.471-0.112,0.939-0.178,1.405c-0.033,0.238-0.065,0.475-0.103,0.712   c-0.088,0.556-0.188,1.109-0.296,1.659c-0.026,0.133-0.048,0.269-0.074,0.402c-0.139,0.673-0.294,1.339-0.462,2.001   c-0.052,0.206-0.111,0.408-0.167,0.612c-0.124,0.462-0.253,0.921-0.391,1.377c-0.075,0.248-0.154,0.494-0.233,0.74   c-0.134,0.416-0.274,0.828-0.419,1.238c-0.087,0.245-0.173,0.49-0.264,0.734c-0.165,0.44-0.338,0.875-0.515,1.308   c-0.081,0.197-0.157,0.397-0.24,0.592c-0.259,0.606-0.529,1.206-0.812,1.798c-0.09,0.187-0.187,0.371-0.279,0.556   c-0.207,0.417-0.417,0.832-0.637,1.242c-0.127,0.238-0.259,0.474-0.392,0.709c-0.198,0.356-0.402,0.709-0.609,1.059   c-0.142,0.238-0.284,0.477-0.431,0.713c-0.221,0.356-0.448,0.709-0.678,1.058c-0.139,0.212-0.275,0.425-0.417,0.634   c-0.363,0.532-0.735,1.058-1.119,1.574l-0.208-0.142c0.024,0.105,0.052,0.209,0.076,0.315   c-8.306,11.026-21.507,18.159-36.375,18.159H45.511C20.378-20.888,0-41.266,0-66.4v-204.8c0-12.678,5.189-24.141,13.554-32.393   l0.002,0.133c0.077,0.008,0.152,0.017,0.229,0.025l-0.229-0.156l-0.002-0.001c0.001-0.001,0.002-0.001,0.002-0.002   c2.568-2.533,5.435-4.764,8.543-6.633l0,0c0.62-0.373,1.25-0.732,1.889-1.076c0.018-0.01,0.037-0.018,0.055-0.028   c0.622-0.333,1.251-0.653,1.889-0.959c0.043-0.02,0.087-0.038,0.13-0.059c0.615-0.291,1.236-0.572,1.866-0.837   c0.076-0.032,0.155-0.059,0.232-0.091c0.6-0.248,1.204-0.487,1.815-0.709c0.115-0.042,0.232-0.077,0.346-0.117   c0.578-0.205,1.159-0.404,1.748-0.586c0.164-0.05,0.332-0.092,0.497-0.141c0.545-0.161,1.091-0.321,1.645-0.463   c0.212-0.054,0.428-0.097,0.641-0.148c0.513-0.123,1.025-0.248,1.544-0.353c0.269-0.054,0.543-0.095,0.814-0.146   c0.468-0.086,0.936-0.177,1.41-0.25c0.34-0.052,0.685-0.086,1.028-0.131c0.412-0.053,0.821-0.114,1.235-0.156   c0.438-0.044,0.883-0.069,1.324-0.1c0.325-0.023,0.647-0.057,0.973-0.074c0.772-0.039,1.549-0.059,2.331-0.059h318.578   c25.133,0,45.511,20.378,45.511,45.511v204.8C409.6-65.678,409.579-64.962,409.546-64.25z"/>
	<path style="fill:#FF4E11;" d="M409.504-63.574c-0.03,0.491-0.066,0.981-0.111,1.468c-0.023,0.254-0.05,0.507-0.079,0.76   c-0.052,0.471-0.112,0.939-0.178,1.405c-0.033,0.238-0.065,0.475-0.103,0.712c-0.088,0.556-0.188,1.109-0.296,1.659   c-0.026,0.133-0.048,0.269-0.074,0.402c-0.139,0.673-0.294,1.339-0.462,2.001c-0.052,0.206-0.111,0.408-0.167,0.612   c-0.124,0.462-0.253,0.921-0.391,1.377c-0.075,0.248-0.154,0.494-0.233,0.74c-0.134,0.416-0.274,0.828-0.419,1.238   c-0.087,0.245-0.173,0.49-0.264,0.734c-0.165,0.44-0.338,0.875-0.515,1.308c-0.081,0.197-0.157,0.397-0.24,0.592   c-0.259,0.606-0.529,1.206-0.812,1.798c-0.09,0.187-0.187,0.371-0.279,0.556c-0.207,0.417-0.417,0.832-0.637,1.242   c-0.127,0.238-0.259,0.474-0.392,0.709c-0.198,0.356-0.402,0.709-0.609,1.059c-0.142,0.238-0.284,0.477-0.431,0.713   c-0.221,0.356-0.448,0.709-0.678,1.058c-0.139,0.212-0.275,0.425-0.417,0.634c-0.363,0.532-0.735,1.058-1.119,1.574L13.555-303.592   l-0.002-0.001c0.001-0.001,0.002-0.001,0.002-0.002c2.568-2.533,5.435-4.764,8.543-6.633l0,0c0.62-0.373,1.25-0.732,1.889-1.076   c0.018-0.01,0.037-0.018,0.055-0.028c0.622-0.333,1.251-0.653,1.889-0.959c0.043-0.02,0.087-0.038,0.13-0.059   c0.615-0.291,1.236-0.572,1.866-0.837c0.076-0.032,0.155-0.059,0.232-0.091c0.6-0.248,1.204-0.487,1.815-0.709   c0.115-0.042,0.232-0.077,0.346-0.117c0.578-0.205,1.159-0.404,1.748-0.586c0.164-0.05,0.332-0.092,0.497-0.141   c0.545-0.161,1.091-0.321,1.645-0.463c0.212-0.054,0.428-0.097,0.641-0.148c0.513-0.123,1.025-0.248,1.544-0.353   c0.269-0.054,0.543-0.095,0.814-0.146c0.468-0.086,0.936-0.177,1.41-0.25c0.34-0.052,0.685-0.086,1.028-0.131   c0.412-0.053,0.821-0.114,1.235-0.156c0.438-0.044,0.883-0.069,1.324-0.1c0.325-0.023,0.647-0.057,0.973-0.074   c0.772-0.039,1.549-0.059,2.331-0.059h318.578c25.133,0,45.511,20.378,45.511,45.511v204.8c0,0.721-0.021,1.437-0.054,2.15   C409.535-64.024,409.518-63.799,409.504-63.574z"/>
	<g>
		<path style="fill:#FFFFFF;" d="M92.406-270.454c0,0,0.354,0.53,0.932,1.278C92.951-269.551,92.633-269.972,92.406-270.454z"/>
		<path style="fill:#FFFFFF;" d="M363.231-83.206c-4.108-0.273-6.303-3.272-8.761-3.272h-4.392c0,0,3.561,4.922,5.484,6.287    c1.912,1.365,9.034,1.903,10.695,3.28c1.627,1.365,1.912,3.285,1.912,3.285c-3.572-2.469-11.788-1.094-15.337-1.925    c-3.55-0.819-6.587-4.655-6.587-4.655s4.108,8.225,5.211,11.787c1.093,3.561,1.093,9.591,5.473,12.879    c4.38,3.288,1.65,7.406,1.65,7.406s-1.103-2.742-4.108-5.211c-3.015-2.469-6.042-2.196-5.757-6.861    c0.273-4.653,0.546-4.653-1.65-6.849c-2.184-2.184-2.184-1.638-5.758-7.668c-3.561-6.03-5.211,0.273-12.879-2.469    c-7.68-2.742-11.252,4.938-17.272,4.108c-6.018-0.819-20.287,1.923-26.033,3.846c-5.768,1.912-2.742,4.38-16.737,10.957    c-13.96,6.587-22.756,0.273-17.26,0.557c2.653,0.132,6.723-0.896,10.216-1.99c-4.319,0.255-7.747-1.583-7.747-1.583    s7.668-2.184,13.972-7.668c6.303-5.484,0-4.938-8.226,0c-8.215,4.938-16.987,6.03-24.394,5.199    c-7.407-0.819-5.484-3.288-1.365-3.003c4.108,0.273,13.426-2.469,20.844-5.211c7.384-2.742-0.557-3.3-0.557-3.3    c-16.179,9.603-23.302,1.923-18.921,3.572c4.403,1.65,9.318-2.196,16.998-6.303c7.68-4.119-10.957-1.65-10.957-1.65    s-8.499,3.561-16.737,4.38c-8.215,0.831-14.518-7.123-11.788-10.957c2.742-3.834,7.953-1.638,7.953-1.638    c-5.905,1.707-4.119,6.03-0.273,7.123c3.834,1.093,18.648-2.742,22.756-4.392c4.108-1.638,5.757-7.953-5.473-2.731    c-11.252,5.199-7.134-0.831-7.134-0.831c-10.968,0.831,4.927-6.303-1.923-4.392c-6.861,1.934-14.803-0.808-21.379-0.808    s-9.045-7.134-9.045-7.134s3.834,2.184,8.635,3.846c4.79,1.638,18.216-1.661,18.216-1.661c-5.473-5.473-5.211-15.622-5.211-15.622    c-5.746-1.365-11.23-11.788-11.23-11.788c2.196,3.572,9.864,4.665,9.864,4.665s1.365-3.015-2.184-7.407    c-3.572-4.38-2.469-9.864-2.469-9.864s1.638,4.38,3.846,6.577c2.173,2.196,7.668,1.923,7.668,1.923    c-2.469-5.757,6.849-9.318,6.849-9.318c-2.742-4.927,2.481-10.422,1.65-10.149c-0.819,0.273-9.603-2.731-9.603-2.731    s12.083-0.284,5.757-1.934c-6.303-1.638-17.818,4.938-17.818,4.938l-13.426,6.042c0,0,5.757-5.496-0.819-4.665    c-6.587,0.819-13.164-2.469-18.921,1.365c-5.757,3.846-15.348,6.042-13.426,2.469c1.912-3.561,4.653-7.123,4.653-7.123    c-10.411,2.196-5.211-7.123-12.879-6.315c-7.68,0.831-1.377-6.565-8.773-4.369c-7.396,2.184-14.529-6.042-14.529-6.042    c2.469,1.377,10.411-0.819,10.411-0.819c-3.003-1.093-1.638-6.838-1.638-6.838c-7.123-1.9-5.211-12.629-5.211-12.629    c-6.03,0-7.123-4.096-9.592-6.838c-2.458-2.753-8.226-2.753-8.226-2.753c3.92-3.044,11.635-1.077,14.651-0.136    c-2.459-1.85-2.034-9.183-2.034-9.183c-4.938-0.819-0.557-8.226-1.65-7.396c-1.103,0.819-3.834-1.103-6.577-3.288    c-2.742-2.207-6.303-2.753-6.303-2.753c1.912-2.458,6.303-2.742,6.303-2.742s-3.3-6.303-7.407-7.68    c-4.108-1.354-15.622-4.096-18.637-4.369c-3.015-0.284-9.592,0-15.622,1.638c-6.03,1.65-12.345,0-17.272,0.557    c-4.938,0.546-7.953-4.392-7.953-4.392s4.108,1.365,7.668,0.546c3.572-0.819,4.665-4.108,8.499-2.469    c3.846,1.65,11.799-2.196,11.799-2.196s-2.742-1.638-6.587-3.015c-3.823-1.365-9.045-2.993-13.426-3.834    c-4.38-0.819-9.592-7.134-6.03-4.108c3.561,3.015,5.746,0.546,10.683,1.377c4.171,0.69,8.122,0.992,9.264,1.07    c-0.9-0.09-3.425-0.559-5.418-2.993c-2.469-3.027-9.318-5.768-13.164-5.768c-3.834,0-10.138-1.923-13.699-6.577    c-3.572-4.665-7.953-5.484-7.953-5.484s2.742-3.015,6.849,0c4.119,3.015,4.938,4.38,10.968,5.484    c6.03,1.103,12.333,3.288,12.333,3.288c-3.288-2.742-5.199-6.03-10.683-6.838c-5.484-0.842-13.983-7.407-17.272-10.695    c-3.288-3.288-9.045-5.768-9.045-5.768c5.473-3.288,8.215,0.831,13.972,4.119c5.768,3.288,8.783,1.093,15.633,3.015    c6.849,1.923,6.03,7.668,8.215,7.953c2.196,0.262,7.953,0,9.603,2.742c1.638,2.731,0.546,4.915,4.653,4.915    c4.108,0,5.757,1.923,5.757,1.923c-1.65-3.55-5.757-6.577-5.757-6.577c4.938-1.365,8.773,3.288,13.71,6.315    c4.938,3.015,8.226,3.015,8.226,3.015s-3.015-5.211-6.303-5.757c-2.304-0.381-4.864-3.304-6.202-5.036    c3.35,3.258,12.072,2.907,15.521,5.855c3.834,3.288,9.045,8.773,12.333,10.695c3.288,1.923,6.577,6.03,12.333,11.241    c5.709,5.167,15.718,4.126,15.887,4.908c-0.044-0.784-0.265-7.649-0.265-7.649l-9.592-0.831l6.03-4.38    c-3.846,1.65-9.318-6.03-9.318-6.03l9.489,1.103l2.025-5.507c3.015,6.326,5.211,4.949,5.211,4.949    c3.288-3.834,3.561-12.607,3.561-12.607s-4.392,1.093-9.318-4.665c-4.938-5.757,4.108-16.714,4.108-16.714s-1.638-2.469,0-7.134    c1.65-4.653,10.138-9.592,18.637-6.849c8.499,2.742,7.68,14.245,7.68,14.245s3.015,3.027,2.469,9.057    c-0.546,6.03-3.288,9.307-3.288,9.307s5.199,1.923,8.499-1.638c3.277-3.561,4.108-11.776,4.108-11.776s3.288,15.337-1.65,19.172    c-4.927,3.834-16.987,3.572-16.987,3.572c-0.273,6.303-5.768,9.876-7.134,13.983c-1.365,4.119,0.819,14.257,0.819,14.257    l6.861-0.557c0,0-0.546-2.458,4.38-6.03c4.938-3.55,12.879-1.093,12.879-1.093s9.057-0.819,13.437,7.123    c4.38,7.953-3.834,14.257-3.834,14.257c-1.365,12.618-20.013,5.484-20.013,5.484c1.923,8.499,10.149,8.499,10.149,8.499    s-9.603,4.938-15.076,3.015c-5.484-1.923-3.572-15.633-7.953-15.087c-4.392,0.546-4.938,13.995-1.377,24.417    c3.561,10.411,21.652,10.957,38.935,4.096c17.26-6.838,41.665-8.215,41.665-8.215c-0.819-3.288-5.199-8.226-5.199-8.226    l-7.68,3.015l4.653-5.757c-1.65-4.119-6.03-7.123-6.03-7.123c4.653-3.288,9.864,3.288,9.864,3.288l1.923-7.964l4.665,6.587    c0,0,9.58-6.849,17.534-9.864c7.942-3.015,23.313-5.757,23.313-5.757s-5.211-2.469,0.262-11.241    c5.496-8.761,18.091-11.23,18.091-11.23s9.603-4.392,18.353,3.288c8.795,7.68,1.661,21.652,1.661,21.652    c0,16.156-17.272,11.093-17.272,11.093c3.561,6.986,11.924,11.662,11.924,11.662c-13.574,7.953-19.32-7.692-29.468-10.98    c-10.138-3.288-27.967,6.315-28.774,6.315c-0.831,0,0.535,1.65,0.808,5.211c0.284,3.561,8.499,10.411,12.618,18.91    s3.015,22.483,3.015,22.483c5.484,5.473,12.891,1.365,12.891,1.365c-0.273-5.757-3.846-8.226-3.846-8.226    c4.119-0.273,6.03,3.572,6.03,3.572c-1.912-6.042,4.392-13.164,4.392-13.164l1.912,9.318l5.758-6.577l-3.55,12.06    c10.945,0,22.459,7.953,22.459,7.953s5.496-7.953,16.453-7.953c10.957,0,21.925,11.776,21.925,16.998    c0,5.211-9.864,12.607-9.864,12.607s3.834,8.773-10.683,8.773c-14.529,0-18.91-17.692-18.91-17.692s-6.053,2.617-14.267,0.433    c-8.215-2.196-21.652,4.653-29.867,8.761c-8.237,4.108-19.752,15.348-19.752,15.348c0,3.846,2.15,9.876,2.15,9.876    s11.833-0.831,8.271-2.196c-3.561-1.365-12.879-4.119-5.473-4.653c7.384-0.546,14.518,2.458,12.322,0    c-2.196-2.469-10.411-8.237-7.123-8.237c3.288,0,7.68,4.119,9.876,4.665c2.184,0.546,6.018-0.819,11.514-0.819    c1.477,0,3.034,0.842,4.521,2.067c5.645-2.732,13.957-10.687,17.939-14.678c4.938-4.927,7.953,1.65,10.149,4.653    c1.265,1.737-2.201,5.02-5.943,7.965c0.622,0.764,1.265,1.536,1.836,2.188c0.291,0.335,0.671,0.626,1.096,0.888    c2.192-0.787,4.352-1.58,6.417-2.321c0.028-4.749-0.118-11.185-0.118-11.185c3.009,2.146,3.162,6.469,3.217,10.092    c4.35-1.502,8.082-2.607,10.51-2.691c7.942-0.273,13.141,2.469,20.537,3.3c7.407,0.819,7.942-6.042,7.942-6.042    s3.027,2.196-1.365,6.577c-4.369,4.392-10.138,4.119-10.138,4.119c0,6.303-7.611,6.03-7.611,6.03    c6.36-3.561-0.057-7.396-0.057-7.396c0.819,3.561-7.134,5.734-7.134,5.734s5.211-2.446,1.934-5.461    c-2.068-1.897-4.844-1.943-8.41-1.382c0.41,1.887,1.175,4.856,2.362,7.407c1.934,4.108-1.365,8.226-1.365,8.226l3.561,6.577    c0,0,11.799,1.923,15.076,3.561c3.3,1.65,6.577,3.027,14.791,2.742c8.237-0.273,10.161,4.388,10.161,4.388    C377.772-85.956,367.35-82.933,363.231-83.206z M308.686-101.039c2.753,1.912,4.392,0.273,4.392,0.273l2.162-4.938l2.765,6.03    l3.834-3.003l-2.184-3.846l8.226,1.093l-0.819-2.731c0,0-2.93-2.645-5.804-4.961c-5.659,1.762-12.311,4.276-17.021,6.813    C305.173-104.786,306.867-102.315,308.686-101.039z M318.005-115.568c-0.837-0.559-1.423-1.295-1.836-2.081    c-2.093,1.566-4.033,2.923-5.014,3.726c-0.942,0.771-2.153,1.499-3.524,2.174c3.484-0.891,7.227-2.12,10.943-3.426    C318.378-115.313,318.186-115.447,318.005-115.568z M325.794-114.431c0.898,0.165,1.528,0.228,1.528,0.228    c0.015-0.181,0.028-0.392,0.04-0.622C326.867-114.707,326.341-114.575,325.794-114.431z M330.8-115.534    c0.738,3.131,3.395,4.903,3.395,4.903c-0.11-2.13,0.196-4.091,0.61-5.698C333.555-116.09,332.223-115.812,330.8-115.534z"/>
	</g>
</g>
<g>
</g>
<g>
</g>
<g>
</g>
<g>
</g>
<g>
</g>
<g>
</g>
<g>
</g>
<g>
</g>
<g>
</g>
<g>
</g>
<g>
</g>
<g>
</g>
<g>
</g>
<g>
</g>
<g>
</g>
</svg>
