<?xml version="1.0" encoding="iso-8859-1"?>
<!-- Generator: Adobe Illustrator 19.0.0, SVG Export Plug-In . SVG Version: 6.00 Build 0)  -->
<svg xmlns="http://www.w3.org/2000/svg" xmlns:xlink="http://www.w3.org/1999/xlink" version="1.1" id="Capa_1" x="0px" y="0px" viewBox="0 0 512 512" style="enable-background:new 0 0 512 512;" xml:space="preserve">
<g transform="matrix(1.25 0 0 -1.25 0 45)">
	<g>
		<g>
			<path style="fill:#00ABC9;" d="M15.519-305.203c8.021-7.088,18.443-11.526,29.992-11.526h318.578     c25.134,0,45.511,20.378,45.511,45.511v51.2H130.196L15.519-305.203z"/>
			<path style="fill:#FAE042;" d="M199.111-168.783l-68.927-51.2H409.6v102.4H130.185L199.111-168.783z"/>
			<path style="fill:#00ABC9;" d="M364.089-20.872H45.511c-11.548,0-21.97-4.437-29.992-11.526l114.665-85.185H409.6v51.2     C409.6-41.249,389.222-20.872,364.089-20.872"/>
			<path style="fill:#141414;" d="M199.111-168.783l-68.927,51.2L15.519-32.398C6.076-40.737,0-52.798,0-66.383v-51.2v-51.2v-51.2     v-51.2c0-13.585,6.076-25.646,15.519-33.985l114.665,85.185L199.111-168.783z"/>
		</g>
	</g>
</g>
<g>
</g>
<g>
</g>
<g>
</g>
<g>
</g>
<g>
</g>
<g>
</g>
<g>
</g>
<g>
</g>
<g>
</g>
<g>
</g>
<g>
</g>
<g>
</g>
<g>
</g>
<g>
</g>
<g>
</g>
</svg>
