<?xml version="1.0" encoding="iso-8859-1"?>
<!-- Generator: Adobe Illustrator 19.0.0, SVG Export Plug-In . SVG Version: 6.00 Build 0)  -->
<svg xmlns="http://www.w3.org/2000/svg" xmlns:xlink="http://www.w3.org/1999/xlink" version="1.1" id="Capa_1" x="0px" y="0px" viewBox="0 0 512 512" style="enable-background:new 0 0 512 512;" xml:space="preserve">
<path style="fill:#012A87;" d="M492.531,85.172c-10.004-8.748-23.089-14.061-37.42-14.061H188.444H56.889  C25.472,71.111,0,96.583,0,128v97.18V384c0,17.085,7.544,32.4,19.469,42.828c10.004,8.748,23.089,14.061,37.42,14.061h398.222  C486.528,440.889,512,415.417,512,384V128C512,110.915,504.456,95.6,492.531,85.172z"/>
<path style="fill:#EEEDED;" d="M455.111,71.111H188.444L0,225.18V384c0,17.085,7.544,32.4,19.469,42.828L492.531,85.172  C482.527,76.424,469.443,71.111,455.111,71.111z"/>
<path style="fill:#F9D90F;" d="M56.889,71.111C25.472,71.111,0,96.583,0,128v97.18L188.444,71.111H56.889z"/>
<path d="M156.444,285.131c-37.973,0-68.864-30.891-68.864-68.864c0-37.988,30.891-68.878,68.864-68.878s68.864,30.891,68.864,68.878  C225.308,254.241,194.418,285.131,156.444,285.131 M234.852,226.052l16.967-9.785l-16.967-9.799  c-4.437-35.769-32.853-64.185-68.622-68.622l-9.785-16.953l-9.785,16.953c-35.769,4.437-64.185,32.853-68.622,68.622l-16.967,9.799  l16.967,9.785c4.437,35.769,32.853,64.185,68.622,68.622l9.785,16.953l9.785-16.953  C201.998,290.237,230.414,261.821,234.852,226.052"/>
<path style="fill:#DC171D;" d="M183.664,216.26l13.611-23.58h-27.221l-13.611-23.566l-13.611,23.566h-27.221l13.611,23.58  l-13.611,23.566h27.221l13.611,23.58l13.611-23.58h27.221L183.664,216.26z"/>
<g>
</g>
<g>
</g>
<g>
</g>
<g>
</g>
<g>
</g>
<g>
</g>
<g>
</g>
<g>
</g>
<g>
</g>
<g>
</g>
<g>
</g>
<g>
</g>
<g>
</g>
<g>
</g>
<g>
</g>
</svg>
