<?xml version="1.0" encoding="iso-8859-1"?>
<!-- Generator: Adobe Illustrator 19.0.0, SVG Export Plug-In . SVG Version: 6.00 Build 0)  -->
<svg xmlns="http://www.w3.org/2000/svg" xmlns:xlink="http://www.w3.org/1999/xlink" version="1.1" id="Capa_1" x="0px" y="0px" viewBox="0 0 512 512" style="enable-background:new 0 0 512 512;" xml:space="preserve">
<g transform="matrix(1.25 0 0 -1.25 0 45)">
	<g>
		<g>
			<path style="fill:#F7E017;" d="M409.6-271.2c0-25.134-20.378-45.511-45.511-45.511H45.511C20.378-316.711,0-296.334,0-271.2     v204.8c0,25.134,20.378,45.511,45.511,45.511h318.578c25.134,0,45.511-20.378,45.511-45.511V-271.2z"/>
			<path style="fill:#141414;" d="M409.6-271.2L0-180.178v56.889l409.6-91.022V-271.2z"/>
			<path style="fill:#EEEEEE;" d="M409.6-214.311L0-123.289V-66.4l409.6-91.022V-214.311z"/>
			<g>
				<path style="fill:#CF1B26;" d="M245.715-133.984c5.04-7.828,7.953-17.146,7.953-27.147c0-27.773-22.494-50.278-50.267-50.278      c-27.762,0-50.267,22.505-50.267,50.278c0,10.001,2.924,19.319,7.942,27.147c-9.535-10.297-15.371-24.075-15.371-39.219      c0-31.858,25.828-57.697,57.697-57.697s57.697,25.839,57.697,57.697C261.097-158.059,255.26-144.281,245.715-133.984"/>
				<path style="fill:#CF1B26;" d="M111.286-140.424c6.11-1.343,7.464-3.675,7.157-8.624c0,0,3.106-0.603,5.268-3.698      c2.173-3.083,4.176-6.178,7.896-7.407c3.709-1.24,6.645-3.709,6.645-11.127v-27.534c0,0-0.683-2.799,0.865-6.497      c1.547-3.721,0.66-8.977-10.775-8.977c-11.457,0-11.526,4.961-9.978,8.658c1.547,3.709,3.345,6.815,3.345,6.815v23.666      c0,0-2.241,3.243-5.325,5.404c-3.095,2.173-9.626,9.899-10.547,17.328C104.892-144.986,103.162-138.649,111.286-140.424"/>
				<path style="fill:#CF1B26;" d="M295.367-140.424c-6.11-1.343-7.464-3.675-7.157-8.624c0,0-3.106-0.603-5.279-3.698      c-2.162-3.083-3.038-6.178-6.758-7.407c-3.709-1.24-5.518-3.709-5.518-11.127v-27.534c0,0-0.444-2.799-2.002-6.497      c-1.536-3.721-1.217-8.977,10.229-8.977s12.368,4.961,10.82,8.658c-1.547,3.709-2.492,6.815-2.492,6.815v23.666      c0,0,1.104,3.243,4.187,5.404c3.106,2.173,9.057,9.899,9.99,17.328S303.479-138.649,295.367-140.424"/>
				<path style="fill:#CF1B26;" d="M266.65-245.463c0,0,3.698,7.418-0.319,8.966c-4.028,1.547-12.072,0-12.072,0      s6.702,8.499,0.307,12.072c-6.394,3.561-10.786-5.257-16.384-9.284c-5.586-4.016-11.218-6.246-18.045-8.511      c-6.804-2.264-15.679-3.243-15.679-3.243s-9.956,0.978-16.759,3.243c-6.815,2.264-13.528,4.494-19.126,8.511      c-5.586,4.028-9.978,12.846-16.373,9.284c-6.383-3.573,0.319-12.072,0.319-12.072s-8.033,1.547-12.049,0      c-4.028-1.547-0.307-8.966-0.307-8.966c-8.966-1.24-5.837-6.815-5.837-6.815s2.23,2.879,11.514,2.879s13.119-9.068,19.308-9.068      c6.189,0,6.144,5.882,6.144,5.882c11.457-9.591,33.166-9.591,33.166-9.591s20.639,0,32.085,9.591c0,0-0.58-5.882,5.609-5.882      c6.19,0,9.751,9.068,19.046,9.068c9.273,0,11.378-2.879,11.378-2.879S275.627-246.704,266.65-245.463"/>
				<path style="fill:#CF1B26;" d="M242.062-125.189c-6.804,1.855-14.086,10.513-23.677,10.513c-9.591,0-13.938-7.43-13.938-7.43      s-5.313,7.43-14.905,7.43c-9.591,0-17.863-8.658-24.667-10.513c-6.804-1.866-13.301,0-13.301,0c1.559-7.122,9.5-8.738,9.5-8.738      c0.842-4.415,7.498-4.563,7.498-4.563c0.899-5.268,10.547-1.638,10.547-1.638s-0.603-5.177,4.358-4.551      c4.949,0.614,13.323,9.273,13.323,9.273s-2.401-2.469-2.094-4.722c0.319-2.253,4.153-2.082,4.153-2.082      c-3.402-3.402,2.742-7.418,2.742-7.418l2.844,2.162l1.877-2.162c0,0,5.643,4.016,2.241,7.418c0,0,3.595-0.171,3.914,2.082      c0.307,2.253-2.219,4.722-2.219,4.722s8.317-8.658,13.266-9.273c4.961-0.626,4.324,4.551,4.324,4.551s9.637-3.63,10.547,1.638      c0,0,6.645,0.148,7.475,4.563c0,0,7.953,1.616,9.5,8.738C255.374-125.189,248.878-127.055,242.062-125.189"/>
				<path style="fill:#CF1B26;" d="M193.65-97.348c0,1.377,4.358,2.48,9.739,2.48c5.382,0,9.751-1.104,9.751-2.48      c0-1.365-4.369-2.469-9.751-2.469C198.007-99.817,193.65-98.713,193.65-97.348"/>
				<path style="fill:#CF1B26;" d="M214.835-102.297c-0.307,2.173-1.616,2.48-1.616,2.48s-5.109-1.32-9.819-1.32      c-4.722,0-9.751,1.32-9.751,1.32s-1.24-0.307-1.547-2.48c-0.307-2.162-2.469-8.818-2.469-8.818l4.016,4.415l3.402-4.415      l3.402,4.415l2.947-4.415l3.015,4.415l3.447-4.415l3.413,4.415l4.028-4.415C217.304-111.115,215.142-104.459,214.835-102.297"/>
				<path style="fill:#CF1B26;" d="M204.447-75.844v-12.06l8.294-3.561l-3.209,4.949l6.519,3.095L204.447-75.844z"/>
				<path style="fill:#CF1B26;" d="M205.722-124.108h-5.109v12.993h5.109V-124.108z"/>
				<path style="fill:#CF1B26;" d="M209.704-203.002c0,0,3.345,4.631,2.651,8.124c-0.694,3.482-3.937,8.977-4.858,12.493      c-0.933,3.516,2.241,6.77,2.241,6.77l-2.469,0.455c0,0,3.322,3.015,2.469,6.269c-0.842,3.254-2.469,7.418-2.924,11.139      c-0.466,3.709,2.924,8.124,2.924,8.124l-4.403-2.56l-2.389,2.56l-2.332-2.56l-4.324,2.56c0,0,3.402-4.415,2.935-8.124      c-0.455-3.721-2.082-7.885-2.935-11.139s2.48-6.269,2.48-6.269l-2.48-0.455c0,0,3.174-3.254,2.241-6.77      c-0.922-3.516-4.176-9.011-4.87-12.493c-0.694-3.493,2.628-8.124,2.628-8.124l-6.656,1.388c3.641-7.418,7.885-8.34,13.312-8.34      c5.416,0,9.739,0.922,13.369,8.34L209.704-203.002z"/>
			</g>
		</g>
	</g>
</g>
<g>
</g>
<g>
</g>
<g>
</g>
<g>
</g>
<g>
</g>
<g>
</g>
<g>
</g>
<g>
</g>
<g>
</g>
<g>
</g>
<g>
</g>
<g>
</g>
<g>
</g>
<g>
</g>
<g>
</g>
</svg>
