<?xml version="1.0" encoding="iso-8859-1"?>
<!-- Generator: Adobe Illustrator 19.0.0, SVG Export Plug-In . SVG Version: 6.00 Build 0)  -->
<svg xmlns="http://www.w3.org/2000/svg" xmlns:xlink="http://www.w3.org/1999/xlink" version="1.1" id="Capa_1" x="0px" y="0px" viewBox="0 0 512 512" style="enable-background:new 0 0 512 512;" xml:space="preserve">
<path style="fill:#CF1B2B;" d="M455.112,71.113H56.894c-31.417,0-56.888,25.472-56.888,56.888v255.997  c0,31.417,25.472,56.888,56.888,56.888h398.218c31.417,0,56.888-25.472,56.888-56.888V128.001  C512,96.585,486.528,71.113,455.112,71.113z"/>
<path style="fill:#00247D;" d="M269.881,254.821V71.113H56.894c-31.417,0-56.888,25.472-56.888,56.888v126.82H269.881z"/>
<path style="fill:#EEEEEE;" d="M270.225,256v-28.857l-100.977-70.698H94.881L237.059,256H270.225z"/>
<path style="fill:#CF1B2B;" d="M270.225,235.833l-113.364-79.388h-24.789l138.153,96.738L270.225,235.833L270.225,235.833z"/>
<path style="fill:#EEEEEE;" d="M115.199,156.446L0,238.45V256h47.388l142.192-99.554L115.199,156.446L115.199,156.446z"/>
<path style="fill:#CF1B2B;" d="M152.379,156.446L10.443,256h3.783h20.778l142.178-99.554L152.379,156.446L152.379,156.446z"/>
<path style="fill:#EEEEEE;" d="M237.072,71.113L94.894,170.668h74.367L270.223,99.97V71.113H237.072z"/>
<path style="fill:#CF1B2B;" d="M249.447,71.113l-142.164,99.554h24.789l138.153-96.738v-2.816H249.447z"/>
<path style="fill:#EEEEEE;" d="M9.432,96.649l132.795,92.949v-18.93h47.331L48.315,71.758C32.088,74.214,18.117,83.528,9.432,96.649  z"/>
<path style="fill:#CF1B2B;" d="M13.785,90.906l128.441,90.031v-10.268h10.155L24.589,81.185  C20.584,83.954,16.955,87.226,13.785,90.906z"/>
<path style="fill:#EEEEEE;" d="M270.225,128.001h-99.554V71.113H99.56v56.888H0.006v71.11H99.56V256h71.11v-56.888h99.554V128.001z"/>
<g>
	<path style="fill:#CF1B2B;" d="M156.449,256h-42.666V71.113h42.666V256z"/>
	<path style="fill:#CF1B2B;" d="M270.225,184.89H0.006v-42.666h270.219V184.89z"/>
</g>
<path d="M321.183,178.994V295.33v12.615c0,9.087,2.062,21.546,18.659,29.255c14.136,6.557,35.171,14.123,44.757,20.167  c5.348,3.37,13.625,9.074,13.625,9.074s8.277-5.703,13.625-9.074c9.585-6.044,29.141-13.61,43.263-20.167  c16.597-7.708,18.659-20.167,18.659-29.255V295.33V178.994H321.183z"/>
<path style="fill:#FFFFFF;" d="M328.655,186.403v107.676v11.79c0,8.519,1.963,20.181,17.478,27.406  c13.212,6.144,30.364,13.212,39.339,18.887c5.006,3.157,12.757,8.49,12.757,8.49s7.751-5.333,12.743-8.49  c8.975-5.674,26.183-12.743,39.41-18.887c15.502-7.225,17.465-18.887,17.465-27.406v-11.79V186.403H328.655z"/>
<path style="fill:#2E8F22;" d="M328.655,306.43c0.099,8.447,2.276,19.797,17.465,26.851c13.212,6.13,30.379,13.198,39.352,18.887  c5.006,3.157,12.757,8.49,12.757,8.49s7.751-5.333,12.743-8.49c8.975-5.689,26.197-12.757,39.423-18.887  c15.175-7.055,17.351-18.403,17.45-26.851H328.655z"/>
<path style="fill:#CF1B2B;" d="M453.153,289.792c-0.996-5.547,0-14.123-1.508-16.654c-1.522-2.517-15.63-7.552-25.727-6.557  c-10.069,1.01-3.03-12.601,4.039-16.127c7.068-3.541,13.625-6.57,14.62-10.595c1.024-4.039-2.517-7.055-8.561-6.059  c-6.059,1.024-9.585,1.024-13.127,4.551c-3.527,3.527-4.025-0.498-5.547-4.551c-1.493-4.025,1.01-5.532,1.522-9.572  c0.498-4.039-0.512-15.132-3.541-19.669c-3.015-4.536-1.465-7.552-6.499-10.083c-5.063-2.532-10.553-4.551-10.553-4.551  s-5.547,2.019-10.61,4.551c-5.034,2.532-3.527,5.547-6.528,10.083c-3.03,4.536-4.053,15.63-3.556,19.669  c0.526,4.039,3.015,5.547,1.522,9.572c-1.522,4.053-2.019,8.078-5.547,4.551c-3.541-3.527-7.068-3.527-13.127-4.551  c-6.03-0.996-9.572,2.019-8.561,6.059c0.996,4.025,7.552,7.055,14.62,10.595c7.068,3.527,14.108,17.138,4.039,16.127  c-10.098-0.996-24.206,4.039-25.714,6.557c-1.522,2.532-0.512,11.108-1.522,16.654c-1.01,5.547-3.527,10.083-1.01,9.074  c2.532-1.01,14.123-5.034,19.683-9.074c5.532-4.039,12.089,16.142,9.585,21.176c-2.545,5.049-3.03,8.576-7.068,6.557  c-4.053-2.006-10.083,1.01-12.103,5.063c-2.019,4.025,2.517,6.542,7.566,10.069c5.034,3.541,11.093-3.527,13.61-7.055  c2.517-3.556,24.718-14.634,24.718-14.634s22.144,11.079,24.661,14.634c2.532,3.527,8.561,10.595,13.61,7.055  c5.034-3.527,9.572-6.044,7.538-10.069c-2.006-4.053-8.064-7.068-12.089-5.063c-4.053,2.019-4.551-1.508-7.083-6.557  c-2.504-5.034,4.039-25.216,9.585-21.176c5.547,4.039,17.152,8.064,19.669,9.074C456.68,299.876,454.163,295.338,453.153,289.792"/>
<path style="fill:#FFE000;" d="M438.987,261.549c0,0,1.522,3.527,3.527,3.527c2.019,0,5.561-4.536,2.532-8.064  c-3.015-3.541-5.561-5.049-4.025-8.064c1.493-3.03-2.532-8.078-2.532-8.078c-2.019,3.015-7.566,7.566-17.152,1.508  c-9.585-6.044-17.152-7.055-18.659-3.527h-4.366h-0.17h-4.381c-1.493-3.527-9.059-2.517-18.646,3.527  c-9.585,6.059-15.146,1.508-17.152-1.508c0,0-4.025,5.049-2.532,8.078c1.522,3.015-1.01,4.523-4.025,8.064  c-3.03,3.527,0.512,8.064,2.532,8.064c2.006,0,3.527-3.527,3.527-3.527s6.542,5.547,6.044,13.113  c-0.512,7.566-10.595,14.621-10.595,14.621c3.03,3.527,3.03,8.576,6.059,17.65c3.015,9.087,13.61,6.557,13.61,6.557  c0.512,5.547,10.098,11.108,13.61,11.108c3.541,0,4.536,3.015,4.536,3.015s-4.025,2.532-2.006,4.551  c1.892,1.877,8.661-0.668,9.501-0.981c0.825,0.313,7.609,2.859,9.501,0.981c2.006-2.019-2.019-4.551-2.019-4.551  s0.996-3.015,4.551-3.015c3.513,0,13.084-5.561,13.61-11.108c0,0,10.595,2.532,13.61-6.557c3.03-9.074,3.03-14.123,6.044-17.65  c0,0-10.083-7.055-10.595-14.621C432.445,267.095,438.987,261.549,438.987,261.549"/>
<path style="fill:#64B4D1;" d="M445.124,257.513c-3.03-3.541-5.547-5.049-4.039-8.064c1.522-3.03-2.019-5.049-2.019-5.049  c-2.006,3.03-10.439,7.339-17.635,3.03c-7.566-4.551-9.585-3.541-11.606-4.551c0,0,1.224,3.513-1.522,4.551  c-4.025,1.522-5.547-2.034-5.547-2.034h-4.536h-4.523c0,0-1.536,3.556-5.561,2.034c-2.745-1.038-1.508-4.551-1.508-4.551  c-2.034,1.01-4.039,0-11.619,4.551c-7.197,4.309-15.616,0-17.635-3.03c0,0-3.541,2.019-2.019,5.049  c1.508,3.015-1.01,4.523-4.039,8.064c-3.03,3.527,1.522,0.498,3.527,0.498c2.019,0,7.068,3.541,7.068,3.541s5.547,4.025,5.049,13.61  c-0.398,7.566-11.606,15.118-11.606,15.118c3.015,3.556,3.726,9.686,5.547,15.146c0.128,0.384,0.299,0.711,0.498,0.996  c3.03,6.57,8.576,4.039,8.576,4.039s-0.996-3.527,2.006-4.039c3.03-0.498,4.053,2.532,4.053,2.532s3.527-1.01,4.536,2.019  c0.996,3.03-3.527,4.039-3.527,4.039c-0.498,0.996,2.517,5.547,13.013,7.893c2.019,1.437,3.114,4.21,3.114,4.21v4.523h5.049h5.063  v-4.523c0,0,1.095-2.773,3.101-4.21c10.51-2.347,13.526-6.898,13.013-7.893c0,0-4.523-1.01-3.527-4.039  c1.024-3.03,4.551-2.019,4.551-2.019s1.01-3.03,4.039-2.532c3.015,0.512,2.006,4.039,2.006,4.039s5.547,2.532,8.576-4.039  c0.213-0.284,0.37-0.612,0.498-0.996c1.821-5.461,2.532-11.591,5.547-15.146c0,0-11.193-7.552-11.606-15.118  c-0.498-9.585,5.049-13.61,5.049-13.61s5.049-3.541,7.068-3.541C443.616,258.011,448.154,261.04,445.124,257.513"/>
<path style="fill:#CCCCCC;" d="M429.487,275.164c-0.071-1.336-0.015-2.56,0.114-3.669c-4.793,0.284-9.486-2.247-11.207-4.409  c-2.019-2.517-4.536-2.517-9.074,0c-4.536,2.532-4.536,9.572-4.536,9.572v1.038l27.733,18.133l7.993-4.779  c0.185-0.27,0.37-0.526,0.584-0.782C441.091,290.267,429.885,282.73,429.487,275.164"/>
<path style="fill:#E4CB5E;" d="M364.951,254.487l3.527,37.318l16.127,12.103l16.654-13.625l-3.527-10.595l-2.019-13.61l-6.059-4.025  l-5.049-10.083l-6.542-0.512l-3.527,2.517c0,0-3.03-2.006-3.03-1.508c0,0.498-2.532,3.03-2.532,3.03L364.951,254.487z"/>
<path d="M393.168,256.001l6.073-1.508l8.561,15.132l8.576-1.01l1.508,4.025l-23.197,7.566v-6.059l1.024-2.006L393.168,256.001z"/>
<path d="M377.044,261.042l2.517,36.323l2.532-1.536c0,0-3.527-29.739-3.03-29.241s7.566,25.714,7.566,25.714l3.03,1.024  l-8.576-31.274l13.61,23.694l2.517-6.044l-14.108-19.157l-4.039-5.049L377.044,261.042z"/>
<path style="fill:#9F5A2B;" d="M394.182,276.666l22.712-5.034l10.083,15.132l-4.053,11.591c0,0-17.152,8.576-17.635,9.087  c-0.512,0.498-16.654-1.508-16.654-1.508L394.182,276.666z"/>
<path style="fill:#CCCCCC;" d="M420.417,308.954c0,0,1.01-3.03,4.039-2.532c3.015,0.498,2.019,4.025,2.019,4.025  s5.547,2.545,8.561-4.025c0.213-0.284,0.384-0.625,0.512-0.996c1.806-5.461,2.517-11.591,5.532-15.146c0,0-0.27-0.17-0.754-0.541  c-2.659,1.095-4.779,2.56-4.779,2.56s0-4.523-5.049-5.547c-5.034-1.01-10.083,6.557-10.083,6.557c-2.034-6.03-10.098,0-13.625,5.547  c-3.513,5.561-12.103,4.039-12.103,4.039l-1.522-3.03c0,0,0.526-5.034-3.513-7.566c-4.039-2.517-10.098,3.527-10.098,3.527  c1.522-6.557-5.547-5.547-7.04-4.523c-1.522,0.996-4.039-2.532-7.566-3.527c-2.646-0.754-5.006,4.963-6.243,9.799  c0.726,2.532,1.336,5.262,2.204,7.85c0.114,0.37,0.284,0.711,0.498,0.996c3.03,6.57,8.561,4.025,8.561,4.025  s-0.996-3.527,2.019-4.025c3.03-0.498,4.039,2.532,4.039,2.532s3.527-1.01,4.536,2.019c1.01,3.015-3.527,4.039-3.527,4.039  c-0.498,0.996,2.517,5.532,13.013,7.879c2.019,1.45,3.114,4.21,3.114,4.21v4.536h5.049h5.064v-4.536c0,0,1.095-2.759,3.114-4.21  c10.496-2.347,13.511-6.883,13.013-7.879c0,0-4.536-1.024-3.527-4.039C416.89,307.944,420.417,308.954,420.417,308.954"/>
<path style="fill:#FFFFFF;" d="M404.778,200.022l-5.049,2.517l1.01,2.019l5.034-1.024L404.778,200.022z M391.154,200.022  l5.049,2.517l-1.01,2.019l-5.034-1.024C390.158,203.535,391.154,200.022,391.154,200.022z"/>
<path d="M408.82,206.574l0.996-3.527l-4.523,4.536l-2.019,2.532l-2.532-2.532l-2.517,2.532l-2.517-2.532l-2.545,2.532l-2.006-2.532  l-4.536-4.536l1.01,3.527l-5.049,3.541l4.551-2.019l2.517,1.01l2.517,2.517l3.541-1.01l2.517,3.03l2.517-3.03l3.541,1.01  l2.504-2.517l2.532-1.01l4.536,2.019L408.82,206.574z"/>
<g>
</g>
<g>
</g>
<g>
</g>
<g>
</g>
<g>
</g>
<g>
</g>
<g>
</g>
<g>
</g>
<g>
</g>
<g>
</g>
<g>
</g>
<g>
</g>
<g>
</g>
<g>
</g>
<g>
</g>
</svg>
