<?xml version="1.0" encoding="iso-8859-1"?>
<!-- Generator: Adobe Illustrator 19.0.0, SVG Export Plug-In . SVG Version: 6.00 Build 0)  -->
<svg xmlns="http://www.w3.org/2000/svg" xmlns:xlink="http://www.w3.org/1999/xlink" version="1.1" id="Capa_1" x="0px" y="0px" viewBox="0 0 512 512" style="enable-background:new 0 0 512 512;" xml:space="preserve">
<g transform="matrix(1.25 0 0 -1.25 0 45)">
	<g>
		<g>
			<path style="fill:#EEEEEE;" d="M409.6-271.2c0-25.134-20.378-45.511-45.511-45.511H45.511C20.378-316.711,0-296.334,0-271.2     v204.8c0,25.134,20.378,45.511,45.511,45.511h318.578c25.134,0,45.511-20.378,45.511-45.511V-271.2z"/>
			<g>
				<path style="fill:#CE1A24;" d="M118.226-205.823c0,0-3.834-11.548-2.879-23.086c0.967-11.548,27.887-10.581,33.667-9.626      c5.757,0.967,9.614,0.967,5.757-3.857c-3.834-4.79-8.647-12.481-7.68-21.151c0.956-8.636-11.548-2.879-15.383,5.791      c-3.857,8.636-7.714,8.636-14.438,12.481c-6.736,3.846-13.255,13.551-17.317,19.251      C95.141-219.306,92.262-214.482,118.226-205.823"/>
				<path style="fill:#CE1A24;" d="M291.362-205.823c0,0,3.857-11.548,2.89-23.086c-0.944-11.548-27.898-10.581-33.667-9.626      c-5.78,0.967-9.614,0.967-5.78-3.857c3.868-4.79,8.67-12.481,7.714-21.151c-0.967-8.636,11.537-2.879,15.371,5.791      c3.868,8.636,7.703,8.636,14.438,12.481c6.747,3.846,13.244,13.551,17.317,19.251      C314.448-219.306,317.338-214.482,291.362-205.823"/>
			</g>
			<path style="fill:#F6E4BE;" d="M307.769-224.096c-10.593-4.824-32.552-7.999-41.381-8.67     c-11.662-0.899-13.449-3.846-13.449-6.736s12.493-4.801,19.228-3.834c6.736,0.944,14.438-0.967,2.89-7.703     c-11.548-6.724-26.931-16.361-41.37-20.196c-14.427-3.857-28.854-2.89-28.854-2.89s-14.427-0.967-28.865,2.89     c-14.416,3.834-29.81,13.471-41.347,20.196c-11.548,6.736-3.857,8.647,2.879,7.703c6.736-0.967,19.24,0.944,19.24,3.834     s-1.798,5.837-13.471,6.736c-8.806,0.671-30.788,3.846-41.358,8.67c-4.46,2.025-5.78,5.757-5.78,5.757s0-1.934,0.967-7.691     c0.967-5.769,5.78-9.614,6.736-15.394c0.967-5.757,0.967-8.658,5.769-9.614c4.813-0.967,15.394-1.934,15.394-1.934     s0-8.636-1.923-13.46c-1.923-4.801,4.813-13.471,30.777-23.086c25.975-9.637,37.524-8.67,50.984-8.67     c13.471,0,25.008-0.967,50.984,8.67c25.987,9.614,32.7,18.284,30.788,23.086c-1.923,4.824-1.923,13.46-1.923,13.46     s10.57,0.967,15.371,1.934c4.836,0.956,4.836,3.857,5.78,9.614c0.967,5.78,5.769,9.626,6.736,15.394     c0.956,5.757,0.956,7.691,0.956,7.691S312.229-222.071,307.769-224.096"/>
			<path style="fill:#BCAD96;" d="M162.475-275.091c10.672-3.573,54.989-12.857,81.761-0.967c8.658,3.88,11.537-7.669,3.846-10.581     c-6.042-2.253-29.821-5.757-40.402-5.757c-10.581,0-39.617,3.356-48.094,6.724C154.772-283.727,156.706-273.146,162.475-275.091"/>
			<path style="fill:#666666;" d="M266.354-83.66H143.235v-17.306h123.119V-83.66z"/>
			<g transform="translate(18 11.532)">
				<path style="fill:#CE1A24;" d="M186.8-253.923v147.194h-61.565v-73.114c0-36.568,23.086-50.995,34.623-59.631      C171.406-248.132,186.8-253.923,186.8-253.923"/>
				<path style="fill:#CE1A24;" d="M186.8-253.923v147.194h61.554v-73.114c0-36.568-23.085-50.995-34.634-59.631      C202.194-248.132,186.8-253.923,186.8-253.923"/>
			</g>
			<g>
				<path style="fill:#1353B4;" d="M144.759-183.705c5.325-25.475,23.347-36.932,33.098-44.248      c11.548-8.647,26.943-14.438,26.943-14.438s15.383,5.791,26.92,14.438c9.796,7.316,27.785,18.773,33.121,44.248H144.759z"/>
				<path style="fill:#1353B4;" d="M266.354-140.412H143.235v45.215h123.119V-140.412L266.354-140.412z"/>
			</g>
			<g transform="translate(18 29.372)">
				<path style="fill:#EACE23;" d="M186.8-68.784v-47.138c0,0-14.427,0-29.821-1.923c-15.394-1.923-31.744-6.724-31.744-6.724      l-14.427,31.733l-2.879-0.956l-4.813,12.504l9.614,2.879l1.923-5.769l3.846,0.967l-0.956,5.769l9.614,1.923l1.047-6.087      l3.766,1.035v6.986l9.614,0.956l0.808-6.019l6.895,1.206v-3.846h1.923v4.813h4.813v-3.857h2.879v4.813h4.813v-3.846l3.857,0.956      v8.67l9.603,0.956v-5.769h4.813v5.769L186.8-68.784z"/>
				<path style="fill:#EACE23;" d="M186.8-68.784v-47.138c0,0,14.427,0,29.821-1.923c15.394-1.923,31.733-6.724,31.733-6.724      l14.438,31.733l2.89-0.956l4.801,12.504l-9.614,2.879l-1.934-5.769l-3.834,0.967l0.956,5.769l-9.614,1.923l-1.058-6.087      l-3.766,1.035l0.011,6.986l-9.614,0.956l-0.819-6.019l-6.884,1.206v-3.846h-1.923v4.813h-4.801v-3.857h-2.901v4.813h-4.801      v-3.846l-3.846,0.956v8.67l-9.614,0.956v-5.769h-4.813v5.769H186.8z"/>
			</g>
			<g>
				<path style="fill:#5E520D;" d="M204.8-54.795c-2.128,0-3.846-1.718-3.846-3.834v-9.626h7.691v9.626      C208.646-56.513,206.928-54.795,204.8-54.795"/>
				<path style="fill:#5E520D;" d="M146.523-60.791c-2.059-0.535-3.3-2.628-2.753-4.699l2.423-9.296l7.441,1.923l-2.423,9.307      C150.676-61.496,148.582-60.256,146.523-60.791"/>
				<path style="fill:#5E520D;" d="M263.054-60.791c2.071-0.535,3.288-2.628,2.765-4.699l-2.435-9.296l-7.441,1.923l2.423,9.307      C258.901-61.496,260.995-60.256,263.054-60.791"/>
			</g>
			<g>
				<path style="fill:#EACE23;" d="M168.255-111.57c0,0,0.956,1.923,0,4.813c-0.865,2.583-4.813,4.813-4.813,4.813      s-3.948-2.23-4.813-4.813c-0.967-2.89,0-4.813,0-4.813c-4.813,1.923-6.736-2.89-6.736-5.769c0-2.89,3.857-4.813,3.857-4.813      s0,3.857,1.911,3.857c1.934,0,1.934-3.857,1.934-3.857c-3.846,0,0-2.89,0-2.89l-2.89-4.801l3.846,0.967      c-0.956-2.89,2.89-5.78,2.89-5.78s3.846,2.89,2.879,5.78l3.857-0.967l-2.89,4.801c0,0,3.846,2.89,0,2.89      c0,0,0,3.857,1.923,3.857c1.923,0,1.923-3.857,1.923-3.857s3.846,1.923,3.846,4.813      C174.979-114.46,173.056-109.647,168.255-111.57"/>
				<path style="fill:#EACE23;" d="M250.994-111.57c0,0,0.956,1.923,0,4.813c-0.853,2.583-4.813,4.813-4.813,4.813      s-3.937-2.23-4.813-4.813c-0.967-2.89,0-4.813,0-4.813c-4.813,1.923-6.724-2.89-6.724-5.769c0-2.89,3.834-4.813,3.834-4.813      s0,3.857,1.923,3.857c1.923,0,1.923-3.857,1.923-3.857c-3.846,0,0-2.89,0-2.89l-2.879-4.801l3.834,0.967      c-0.956-2.89,2.901-5.78,2.901-5.78s3.846,2.89,2.879,5.78l3.857-0.967l-2.89,4.801c0,0,3.846,2.89,0,2.89      c0,0,0,3.857,1.923,3.857c1.923,0,1.923-3.857,1.923-3.857s3.857,1.923,3.857,4.813      C257.729-114.46,255.795-109.647,250.994-111.57"/>
				<path style="fill:#EACE23;" d="M209.613-111.57c0,0,0.956,1.923,0,4.813c-0.865,2.583-4.813,4.813-4.813,4.813      s-3.948-2.23-4.813-4.813c-0.956-2.89,0-4.813,0-4.813c-4.813,1.923-6.724-2.89-6.724-5.769c0-2.89,3.846-4.813,3.846-4.813      s0,3.857,1.923,3.857c1.923,0,1.923-3.857,1.923-3.857c-3.846,0,0-2.89,0-2.89l-2.89-4.801l3.857,0.967      c-0.967-2.89,2.879-5.78,2.879-5.78s3.846,2.89,2.89,5.78l3.846-0.967l-2.89,4.801c0,0,3.846,2.89,0,2.89      c0,0,0,3.857,1.923,3.857c1.923,0,1.923-3.857,1.923-3.857s3.857,1.923,3.857,4.813      C216.348-114.46,214.426-109.647,209.613-111.57"/>
			</g>
			<path style="fill:#FFFFFF;" d="M215.381-162.542l4.801,6.736l-13.46-3.857l3.846,12.516l-5.769-3.846l-5.769,3.846l3.846-12.516     l-13.471,3.857l4.813-6.736l-4.813-5.769l13.471,4.801l-4.813-13.449l6.736,3.834l6.736-3.834l-4.813,13.449l13.46-4.801     L215.381-162.542z"/>
			<g>
				<path style="fill:#EACE23;" d="M215.381-214.482c0,0-2.89,0-2.89-2.89c0-2.901,2.89-3.846,2.89-3.846s-1.934-2.879-4.813-2.879      c-2.89,0-3.846,2.879-3.846,2.879s3.846,0.944,3.846,2.879s-2.89,2.89-2.89,2.89s0,4.813-2.879,4.813      c-2.89,0-2.89-4.813-2.89-4.813s-2.879-0.956-2.879-2.89s3.846-2.879,3.846-2.879s-0.967-2.879-3.846-2.879      c-2.89,0-4.813,2.879-4.813,2.879s2.879,0.944,2.879,3.846c0,2.89-2.879,2.89-2.879,2.89c0,3.846-3.846,1.934-3.846,1.934      l2.879-20.207H204.8h11.537l2.879,20.207C219.216-212.548,215.381-210.636,215.381-214.482"/>
				<path style="fill:#EACE23;" d="M193.252-189.451c0,0-2.879,0-2.879-2.913c0-2.879,2.879-3.846,2.879-3.846      s-1.923-2.879-4.801-2.879c-2.89,0-3.857,2.879-3.857,2.879s3.857,0.967,3.857,2.879c0,1.946-2.89,2.913-2.89,2.913      s0,4.79-2.89,4.79c-2.879,0-2.879-4.79-2.879-4.79s-2.89-0.967-2.89-2.913c0-1.911,3.846-2.879,3.846-2.879      s-0.956-2.879-3.846-2.879c-2.879,0-4.813,2.879-4.813,2.879s2.89,0.967,2.89,3.846c0,2.913-2.89,2.913-2.89,2.913      c0,3.823-3.846,1.911-3.846,1.911l2.89-20.207h11.537h11.548l2.879,20.207C197.097-187.539,193.252-185.628,193.252-189.451"/>
				<path style="fill:#EACE23;" d="M237.5-189.451c0,0-2.879,0-2.879-2.913c0-2.879,2.879-3.846,2.879-3.846      s-1.911-2.879-4.813-2.879c-2.879,0-3.846,2.879-3.846,2.879s3.846,0.967,3.846,2.879c0,1.946-2.879,2.913-2.879,2.913      s0,4.79-2.89,4.79c-2.879,0-2.879-4.79-2.879-4.79s-2.89-0.967-2.89-2.913c0-1.911,3.846-2.879,3.846-2.879      s-0.956-2.879-3.846-2.879c-2.879,0-4.801,2.879-4.801,2.879s2.879,0.967,2.879,3.846c0,2.913-2.879,2.913-2.879,2.913      c0,3.823-3.857,1.911-3.857,1.911l2.89-20.207h11.537h11.548l2.89,20.207C241.357-187.539,237.5-185.628,237.5-189.451"/>
			</g>
		</g>
	</g>
</g>
<g>
</g>
<g>
</g>
<g>
</g>
<g>
</g>
<g>
</g>
<g>
</g>
<g>
</g>
<g>
</g>
<g>
</g>
<g>
</g>
<g>
</g>
<g>
</g>
<g>
</g>
<g>
</g>
<g>
</g>
</svg>
