<?xml version="1.0" encoding="iso-8859-1"?>
<!-- Generator: Adobe Illustrator 19.0.0, SVG Export Plug-In . SVG Version: 6.00 Build 0)  -->
<svg xmlns="http://www.w3.org/2000/svg" xmlns:xlink="http://www.w3.org/1999/xlink" version="1.1" id="Capa_1" x="0px" y="0px" viewBox="0 0 512 512" style="enable-background:new 0 0 512 512;" xml:space="preserve">
<g>
	<path style="fill:#EEEEEE;" d="M340.803,291.819c4.978-11.364,7.794-23.893,7.794-37.092c0-4.385-0.318-8.692-0.919-12.909   c-1.069-7.529-3.048-14.765-5.809-21.609l126.587-91.781l37.033-26.847c-7.037-13.391-19.25-23.631-33.985-28.06L317.177,185.414   c-16.284-14.35-37.604-23.125-61.028-23.125c-19,0-36.612,5.786-51.285,15.633c14.668-9.853,32.288-15.639,51.287-15.639   c23.41,0,44.729,8.775,61.028,23.125L471.502,73.52c-5.192-1.56-10.691-2.409-16.391-2.409H56.889   c-5.909,0-11.608,0.903-16.966,2.575l82.563,59.861l-82.569-59.86c-14.635,4.57-26.717,14.898-33.627,28.325   C2.278,109.805,0,118.634,0,128v256c0,9.602,2.389,18.642,6.59,26.575c7.086,13.382,19.351,23.591,34.127,27.967l87.15-63.187   l-87.15,63.191c5.042,1.493,10.371,2.342,15.891,2.342h398.784c5.312,0,10.446-0.793,15.319-2.18l-116.887-84.739l-38.698-28.053   l38.698,28.051l116.886,84.738c14.873-4.234,27.266-14.354,34.478-27.697l-71.233-51.645L340.803,291.819z"/>
	<path style="fill:#EEEEEE;" d="M505.492,101.58l-37.035,26.847L341.87,220.209c2.761,6.843,4.739,14.08,5.809,21.609   c0.6,4.216,0.919,8.524,0.919,12.909c0,13.198-2.816,25.728-7.794,37.092l93.152,67.545l71.235,51.645   c4.319-7.99,6.809-17.129,6.809-26.841V127.833C512,118.356,509.617,109.43,505.492,101.58z"/>
</g>
<path style="fill:#CE1126;" d="M204.865,177.922c14.668-9.854,32.288-15.639,51.287-15.639c23.41,0,44.729,8.775,61.028,23.125  L471.502,73.52c-5.192-1.56-10.691-2.409-16.391-2.409H56.889c-5.909,0-11.608,0.903-16.966,2.575l82.563,59.861l72.153,52.307  C197.855,182.982,201.273,180.332,204.865,177.922z"/>
<g>
	<path style="fill:#1EB53A;" d="M512,127.833c0-9.476-2.383-18.402-6.508-26.252l-37.035,26.847L341.87,220.209   c2.761,6.843,4.739,14.08,5.808,21.609c0.6,4.216,0.919,8.524,0.919,12.909c0,13.198-2.816,25.728-7.794,37.092l93.152,67.545   l71.235,51.645c4.319-7.99,6.809-17.129,6.809-26.841L512,127.833L512,127.833z"/>
	<path style="fill:#1EB53A;" d="M171.213,291.224c-0.497-1.16-0.966-2.334-1.418-3.517c-2.68-6.998-4.535-14.405-5.443-22.104   c-0.422-3.566-0.648-7.192-0.648-10.871c0-3.394,0.196-6.741,0.562-10.038c0.883-7.984,2.8-15.654,5.577-22.909   c0.12-0.315,0.237-0.632,0.361-0.945L6.289,102.013C2.278,109.805,0,118.634,0,128v256c0,9.602,2.389,18.642,6.59,26.575   l121.091-87.788L171.213,291.224z"/>
</g>
<g>
	<path style="fill:#CE1126;" d="M315.128,325.916c-16.014,13.268-36.55,21.261-58.978,21.261c-9.322,0-18.317-1.39-26.796-3.965   c-12.131-3.679-23.206-9.784-32.664-17.743l-68.821,49.887l-87.151,63.19c5.042,1.493,10.371,2.342,15.891,2.342h398.784   c5.312,0,10.446-0.793,15.319-2.18l-116.886-84.739L315.128,325.916z"/>
	<path style="fill:#CE1126;" d="M267.212,217.123l5.532-9.572H261.68l-5.532-9.586l-5.518,9.586h-11.065l5.532,9.572l-5.532,9.572   h11.065l5.518,9.586l5.532-9.586h11.065L267.212,217.123z"/>
</g>
<path style="fill:#1EB53A;" d="M256.151,236.28l-5.532-9.572h-11.051l5.518-9.586l-5.518-9.572h11.051l5.532-9.586l5.532,9.586  h11.051l-5.518,9.572l5.518,9.586h-11.051L256.151,236.28z M275.821,224.93l-4.508-7.808l4.508-7.794l3.072-5.333h-6.158h-9.003  l-4.508-7.808l-3.072-5.333l-3.072,5.333l-4.508,7.808h-9.003h-6.158l3.072,5.333l4.508,7.794l-4.508,7.808l-3.072,5.333h6.158  h9.003l4.508,7.794l3.072,5.333l3.086-5.333l4.494-7.794h9.003h6.158L275.821,224.93z"/>
<path style="fill:#CE1126;" d="M313.295,291.241l-5.532-9.572l5.532-9.586h-11.065l-5.518-9.572l-5.532,9.572h-11.065l5.532,9.586  l-5.532,9.572h11.065l5.532,9.586l5.518-9.586H313.295z"/>
<path style="fill:#1EB53A;" d="M291.174,291.241h-11.065l5.532-9.572l-5.532-9.586h11.065l5.532-9.572l5.532,9.572h11.051  l-5.532,9.586l5.532,9.572h-11.051l-5.532,9.586L291.174,291.241z M316.376,289.463l-4.508-7.794l4.508-7.808l3.072-5.333h-6.158  h-9.003l-4.508-7.794l-3.072-5.333l-3.086,5.333l-4.494,7.794h-9.017h-6.158l3.086,5.333l4.508,7.808l-4.508,7.794l-3.086,5.333  h6.158h9.017l4.494,7.808l3.086,5.333l3.072-5.333l4.508-7.808h9.003h6.158C319.448,294.797,316.376,289.463,316.376,289.463z"/>
<path style="fill:#CE1126;" d="M226.66,281.665l5.532-9.572h-11.065l-5.532-9.586l-5.518,9.586h-11.065l5.532,9.572l-5.532,9.572  h11.065l5.518,9.586l5.532-9.586h11.065L226.66,281.665z"/>
<path style="fill:#1EB53A;" d="M215.601,300.821l-5.532-9.586h-11.051l5.518-9.572l-5.518-9.572h11.051l5.532-9.586l5.532,9.586  h11.051l-5.518,9.572l5.518,9.572h-11.051L215.601,300.821z M230.761,281.664l4.508-7.794l3.072-5.333h-6.158h-9.003l-4.508-7.808  l-3.072-5.333l-3.072,5.333l-4.508,7.808h-9.003h-6.158l3.072,5.333l4.508,7.794l-4.508,7.794l-3.072,5.333h6.158h9.003l4.494,7.808  l3.086,5.333l3.086-5.333l4.494-7.808h9.003h6.172l-3.086-5.333L230.761,281.664z"/>
<g>
</g>
<g>
</g>
<g>
</g>
<g>
</g>
<g>
</g>
<g>
</g>
<g>
</g>
<g>
</g>
<g>
</g>
<g>
</g>
<g>
</g>
<g>
</g>
<g>
</g>
<g>
</g>
<g>
</g>
</svg>
