<?xml version="1.0" encoding="iso-8859-1"?>
<!-- Generator: Adobe Illustrator 19.0.0, SVG Export Plug-In . SVG Version: 6.00 Build 0)  -->
<svg xmlns="http://www.w3.org/2000/svg" xmlns:xlink="http://www.w3.org/1999/xlink" version="1.1" id="Capa_1" x="0px" y="0px" viewBox="0 0 512 512" style="enable-background:new 0 0 512 512;" xml:space="preserve">
<path style="fill:#CE1126;" d="M455.111,71.111H113.778H56.889C25.472,71.111,0,96.583,0,128v256  c0,31.398,25.443,56.889,56.835,56.889h56.943l86.484-36.81l0,0h0.002l-86.485,36.81h341.333C486.528,440.889,512,415.417,512,384  V128C512,96.583,486.528,71.111,455.111,71.111z M199.778,182.169l0.484,0.21l-86.484,36.81L199.778,182.169z M200.261,329.621  l-0.484,0.21l-86-37.02L200.261,329.621z"/>
<path style="fill:#EEEEEE;" d="M113.779,367.268h-0.002l86.484-37.229l-86.484-37.229h0.002h-0.002L200.261,256l-86.484-36.81h0.002  h-0.002l86.484-37.229l-86.484-37.229h0.002h-0.002l86.484-36.81l-86.484-36.81H56.889C25.472,71.111,0,96.583,0,128v256  c0,31.398,25.443,56.889,56.835,56.889h56.943l86.484-36.81l-86.484-36.81H113.779z"/>
<g>
</g>
<g>
</g>
<g>
</g>
<g>
</g>
<g>
</g>
<g>
</g>
<g>
</g>
<g>
</g>
<g>
</g>
<g>
</g>
<g>
</g>
<g>
</g>
<g>
</g>
<g>
</g>
<g>
</g>
</svg>
