<?xml version="1.0" encoding="iso-8859-1"?>
<!-- Generator: Adobe Illustrator 19.0.0, SVG Export Plug-In . SVG Version: 6.00 Build 0)  -->
<svg xmlns="http://www.w3.org/2000/svg" xmlns:xlink="http://www.w3.org/1999/xlink" version="1.1" id="Capa_1" x="0px" y="0px" viewBox="0 0 512 512" style="enable-background:new 0 0 512 512;" xml:space="preserve">
<g transform="matrix(1.25 0 0 -1.25 0 45)">
	<g>
		<g>
			<path style="fill:#009E49;" d="M223.027-179.507l11.264-34.679L204.8-192.75l-29.503-21.436l11.264,34.679l-14.746,10.718H0     v-102.4C0-296.322,20.378-316.7,45.511-316.7h318.578c25.134,0,45.511,20.378,45.511,45.511v102.4H237.773L223.027-179.507z"/>
			<path style="fill:#EF2B2D;" d="M364.089-20.9H45.511C20.378-20.9,0-41.278,0-66.411v-102.4h171.816l-14.746,10.718h36.466     l11.264,34.679l11.264-34.679h36.466l-14.746-10.718H409.6v102.4C409.6-41.278,389.222-20.9,364.089-20.9"/>
			<path style="fill:#FCD116;" d="M175.309-214.209l29.503,21.436l29.491-21.436l-11.264,34.679l14.746,10.718l14.746,10.706     h-36.454l-11.264,34.679l-11.275-34.679h-36.454l14.746-10.706l14.746-10.718L175.309-214.209z"/>
		</g>
	</g>
</g>
<g>
</g>
<g>
</g>
<g>
</g>
<g>
</g>
<g>
</g>
<g>
</g>
<g>
</g>
<g>
</g>
<g>
</g>
<g>
</g>
<g>
</g>
<g>
</g>
<g>
</g>
<g>
</g>
<g>
</g>
</svg>
