<?xml version="1.0" encoding="iso-8859-1"?>
<!-- Generator: Adobe Illustrator 19.0.0, SVG Export Plug-In . SVG Version: 6.00 Build 0)  -->
<svg xmlns="http://www.w3.org/2000/svg" xmlns:xlink="http://www.w3.org/1999/xlink" version="1.1" id="Capa_1" x="0px" y="0px" viewBox="0 0 512 512" style="enable-background:new 0 0 512 512;" xml:space="preserve">
<g transform="matrix(1.25 0 0 -1.25 0 45)">
	<g>
		<g>
			<g>
				<path style="fill:#00267F;" d="M409.6-271.2c0-25.134-20.378-45.511-45.511-45.511H45.511C20.378-316.711,0-296.334,0-271.2      v204.8c0,25.134,20.378,45.511,45.511,45.511h318.578c25.134,0,45.511-20.378,45.511-45.511V-271.2z"/>
				<path style="fill:#00267F;" d="M45.511-20.889C20.378-20.889,0-41.266,0-66.4v-204.8c0-25.134,20.378-45.511,45.511-45.511      h91.022v295.822H45.511z"/>
			</g>
			<path style="fill:#FFC726;" d="M273.067-316.711H136.533v295.822h136.533V-316.711z"/>
			<path d="M259.755-117.782c-15.997,0-28.444-11.73-32.529-16.35c4.79,1.058,5.86-2.674,5.154-4.983     c-5.052-16.805-9.318-36.58-10.593-47.218h-10.274v58.994l12.402,2.571l-15.542,3.118l-3.22,15.667l-3.22-15.667l-15.565-3.118     l12.516-2.594v-58.971H188.12c-1.274,10.638-5.541,30.413-10.604,47.218c-0.705,2.31,0.364,6.042,5.165,4.983     c-4.096,4.619-16.543,16.35-32.54,16.35c6.986-10.308,25.543-39.049,27.967-72.852v-7.077h20.776v-27.466h12.629v27.466h19.979     v2.628C232.459-159.345,252.473-128.534,259.755-117.782"/>
		</g>
	</g>
</g>
<g>
</g>
<g>
</g>
<g>
</g>
<g>
</g>
<g>
</g>
<g>
</g>
<g>
</g>
<g>
</g>
<g>
</g>
<g>
</g>
<g>
</g>
<g>
</g>
<g>
</g>
<g>
</g>
<g>
</g>
</svg>
