<?xml version="1.0" encoding="iso-8859-1"?>
<!-- Generator: Adobe Illustrator 19.0.0, SVG Export Plug-In . SVG Version: 6.00 Build 0)  -->
<svg xmlns="http://www.w3.org/2000/svg" xmlns:xlink="http://www.w3.org/1999/xlink" version="1.1" id="Capa_1" x="0px" y="0px" viewBox="0 0 512 512" style="enable-background:new 0 0 512 512;" xml:space="preserve">
<g transform="matrix(1.25 0 0 -1.25 0 45)">
	<g>
		<g>
			<path style="fill:#2D3189;" d="M364.089-20.889H104.414l-7.566-5.507l4.142-12.777l-10.866,7.908l-10.877-7.908l4.153,12.777     l-7.566,5.507H45.511C20.378-20.889,0-41.266,0-66.4v-204.8c0-25.134,20.378-45.511,45.511-45.511h224.427l1.195,3.686     l-10.866,7.908h13.437l4.153,12.766l4.153-12.766h13.437l-10.877-7.908l1.206-3.686h78.313c25.134,0,45.511,20.378,45.511,45.511     v204.8C409.6-41.266,389.222-20.889,364.089-20.889"/>
			<g>
				<path style="fill:#E1E8ED;" d="M79.246-39.173l10.877,7.908l10.866-7.908l-4.153,12.777l7.578,5.507H75.822l7.578-5.507      L79.246-39.173z"/>
				<path style="fill:#E1E8ED;" d="M295.447-305.106H282.01l-4.153,12.777l-4.153-12.777h-13.437l10.866-7.908l-1.195-3.686h15.838      l-1.195,3.686L295.447-305.106z"/>
			</g>
			<path id="SVGCleanerId_0" style="fill:#E1E8ED;" d="M113.766-41.596l4.153-12.777h13.437l-10.866-7.896l4.142-12.777     l-10.866,7.896l-10.877-7.896l4.153,12.777l-10.866,7.896h13.437L113.766-41.596z"/>
			<g transform="translate(2.07 -3.149)">
				<path id="SVGCleanerId_0_1_" style="fill:#E1E8ED;" d="M137.318-77.425l4.153-12.777h13.437l-10.866-7.896l4.142-12.777      l-10.866,7.896l-10.877-7.896l4.153,12.777l-10.866,7.896h13.437L137.318-77.425z"/>
			</g>
			<g>
				<path style="fill:#E1E8ED;" d="M160.654-113.197l4.153-12.777h13.437l-10.866-7.908l4.153-12.777l-10.877,7.908l-10.877-7.908      l4.153,12.777l-10.866,7.908h13.437L160.654-113.197z"/>
				<path style="fill:#E1E8ED;" d="M184.127-149.037l4.153-12.777h13.437l-10.866-7.896l4.153-12.777l-10.877,7.896l-10.877-7.896      l4.153,12.777l-10.866,7.896h13.437L184.127-149.037z"/>
				<path style="fill:#E1E8ED;" d="M207.576-184.865l4.153-12.789h13.437l-10.866-7.885l4.153-12.789l-10.877,7.908l-10.866-7.908      l4.142,12.789l-10.866,7.885h13.437L207.576-184.865z"/>
				<path style="fill:#E1E8ED;" d="M231.037-220.683l4.153-12.777h13.437l-10.866-7.908l4.153-12.766l-10.877,7.896l-10.866-7.896      l4.142,12.766l-10.866,7.908h13.437L231.037-220.683z"/>
				<path style="fill:#E1E8ED;" d="M254.396-256.511l4.153-12.789h13.437l-10.866-7.896l4.153-12.777l-10.877,7.896l-10.877-7.896      l4.153,12.777l-10.866,7.896h13.437L254.396-256.511z"/>
			</g>
			<path style="fill:#FBD116;" d="M318.578-316.711v295.822H125.156L318.578-316.711z"/>
		</g>
	</g>
</g>
<g>
</g>
<g>
</g>
<g>
</g>
<g>
</g>
<g>
</g>
<g>
</g>
<g>
</g>
<g>
</g>
<g>
</g>
<g>
</g>
<g>
</g>
<g>
</g>
<g>
</g>
<g>
</g>
<g>
</g>
</svg>
