<?xml version="1.0" encoding="iso-8859-1"?>
<!-- Generator: Adobe Illustrator 19.0.0, SVG Export Plug-In . SVG Version: 6.00 Build 0)  -->
<svg xmlns="http://www.w3.org/2000/svg" xmlns:xlink="http://www.w3.org/1999/xlink" version="1.1" id="Capa_1" x="0px" y="0px" viewBox="0 0 512 512" style="enable-background:new 0 0 512 512;" xml:space="preserve">
<g transform="matrix(1.25 0 0 -1.25 0 45)">
	<g>
		<path style="fill:#FFCE00;" d="M182.044-20.889v-102.4v-22.756H409.6v22.756H204.8v102.4H182.044z"/>
		<path style="fill:#FFCE00;" d="M182.044-191.556v-22.756v-102.4H204.8v102.4h5.689H409.6v22.756H182.044z"/>
		<path style="fill:#FFCE00;" d="M0-191.556v-22.756h125.156v-102.4h22.756v102.4v22.756H0z"/>
		<path style="fill:#FFCE00;" d="M125.156-20.889v-102.4H0v-22.756h147.911v22.756v102.4H125.156z"/>
	</g>
	<path style="fill:#D21034;" d="M147.911-20.889v-125.156H0v-45.5h147.911V-316.7h34.145v125.156H409.6v45.5H182.056v125.156   H147.911z"/>
	<g>
		<g>
			<path style="fill:#0053A5;" d="M204.8-214.311v-102.4h159.289c25.134,0,45.511,20.378,45.511,45.511v56.889H204.8z"/>
			<path style="fill:#0053A5;" d="M0-214.311V-271.2c0-25.134,20.378-45.511,45.511-45.511h79.644v102.4H0z"/>
			<path style="fill:#0053A5;" d="M125.156-20.889H45.511C20.378-20.889,0-41.266,0-66.4v-56.889h125.156V-20.889z"/>
			<path style="fill:#0053A5;" d="M364.089-20.889H204.8v-102.4h204.8V-66.4C409.6-41.266,389.222-20.889,364.089-20.889"/>
		</g>
	</g>
</g>
<g>
</g>
<g>
</g>
<g>
</g>
<g>
</g>
<g>
</g>
<g>
</g>
<g>
</g>
<g>
</g>
<g>
</g>
<g>
</g>
<g>
</g>
<g>
</g>
<g>
</g>
<g>
</g>
<g>
</g>
</svg>
