<?xml version="1.0" encoding="iso-8859-1"?>
<!-- Generator: Adobe Illustrator 19.0.0, SVG Export Plug-In . SVG Version: 6.00 Build 0)  -->
<svg xmlns="http://www.w3.org/2000/svg" xmlns:xlink="http://www.w3.org/1999/xlink" version="1.1" id="Capa_1" x="0px" y="0px" viewBox="0 0 512 512" style="enable-background:new 0 0 512 512;" xml:space="preserve">
<g transform="matrix(1.25 0 0 -1.25 0 45)">
	<g>
		<g>
			<g>
				<path style="fill:#4189DD;" d="M71.407-92.296l-10.729-34.782L49.948-92.296L15.167-81.567l34.782,10.729l10.729,34.782      l10.729-34.782l34.782-10.729L71.407-92.296z M364.089-20.889H45.511C20.378-20.889,0-41.266,0-66.4v-148.537h409.6V-66.4      C409.6-41.266,389.222-20.889,364.089-20.889"/>
				<path style="fill:#4189DD;" d="M45.511-316.711h318.578c21.299,0,39.037,14.689,43.998,34.452H1.513      C6.474-302.022,24.212-316.711,45.511-316.711"/>
				<path style="fill:#4189DD;" d="M0-259.822h409.6v22.437H0V-259.822z"/>
			</g>
			<path style="fill:#FFFFFF;" d="M68.949-89.838l-8.26-26.795l-8.272,26.795l-26.795,8.26l26.795,8.272l8.272,26.795l8.26-26.795     l26.795-8.272L68.949-89.838z M60.689-36.067L49.96-70.849L15.178-81.578L49.96-92.296l10.729-34.793l10.718,34.793L106.2-81.578     L71.407-70.849C71.407-70.849,60.689-36.067,60.689-36.067z"/>
			<path style="fill:#D21034;" d="M60.678-46.512l-8.26-26.795l-26.795-8.26l26.795-8.272l8.26-26.795l8.26,26.795l26.806,8.272     l-26.806,8.26L60.678-46.512z"/>
			<g>
				<path style="fill:#F9D616;" d="M0-237.385h409.6v22.437H0V-237.385z"/>
				<path style="fill:#F9D616;" d="M0-271.2c0-3.834,0.614-7.498,1.513-11.059h406.574c0.899,3.561,1.513,7.225,1.513,11.059v11.378      H0V-271.2z"/>
			</g>
		</g>
	</g>
</g>
<g>
</g>
<g>
</g>
<g>
</g>
<g>
</g>
<g>
</g>
<g>
</g>
<g>
</g>
<g>
</g>
<g>
</g>
<g>
</g>
<g>
</g>
<g>
</g>
<g>
</g>
<g>
</g>
<g>
</g>
</svg>
