<?xml version="1.0" encoding="iso-8859-1"?>
<!-- Generator: Adobe Illustrator 19.0.0, SVG Export Plug-In . SVG Version: 6.00 Build 0)  -->
<svg xmlns="http://www.w3.org/2000/svg" xmlns:xlink="http://www.w3.org/1999/xlink" version="1.1" id="Capa_1" x="0px" y="0px" viewBox="0 0 512.057 512.057" style="enable-background:new 0 0 512.057 512.057;" xml:space="preserve">
<g transform="matrix(1.25 0 0 -1.25 0 45)">
	<g>
		<g>
			<path style="fill:#00247D;" d="M409.646-271.223c0-25.134-20.378-45.511-45.511-45.511H45.557     c-25.134,0-45.511,20.378-45.511,45.511v204.8c0,25.134,20.378,45.511,45.511,45.511h318.578     c25.134,0,45.511-20.378,45.511-45.511V-271.223z"/>
			<path style="fill:#BD1721;" d="M388.938-28.353L0-168.436v-0.455L388.949-309.27c12.425,8.112,20.651,22.107,20.651,38.047v204.8     C409.6-50.46,401.362-36.476,388.938-28.353"/>
			<path style="fill:#EEEEEE;" d="M401.34-297.312c5.188,7.396,8.294,16.373,8.294,26.089v204.8c0,9.739-3.118,18.716-8.329,26.123     L44.919-168.663L401.34-297.312z"/>
			<g>
				<path style="fill:#D89500;" d="M250.357-186.31c0,0,8.727-1.377,12.39,0c3.675,1.377,8.26,2.753,8.26,2.753l6.884-7.327      l2.753,6.872l5.052-1.377l-0.466-2.298c0,0,4.142-1.377,4.142-1.832s-0.455-4.142-0.455-4.142l12.846-3.209l2.298,5.052      c0,0,8.249-7.339,11.48-7.794c3.197-0.466,12.834,0,14.677-1.377c1.832-1.388,5.962-4.13,5.962-4.13s32.586-7.35,32.586-7.817      c0-0.455-0.455-3.197-3.209-2.742c-2.753,0.455-44.976,8.727-50.495,10.559c-5.507,1.832-13.756-1.832-13.756-1.832v5.04      l-14.234,4.13l-1.377-3.675h-3.675l-1.377-3.209l-5.04,1.377l0.91,6.884c0,0-4.119,0.455-5.962-0.922      c-1.843-1.377-4.585-2.753-4.585-2.753s-2.753,5.04-6.884,7.805C254.942-189.519,250.357-186.31,250.357-186.31"/>
				<path style="fill:#D89500;" d="M297.119-210.636c0,0,61.497-5.04,65.183-5.495c3.664-0.466,3.664-3.686,0-4.142      c-3.686-0.466-65.183,4.597-65.183,4.597s-2.753-2.765-2.753-3.686c0-0.91,24.314-1.377,24.314-1.377l-2.287-2.287      c0,0,9.637-0.455,13.312,0.455c3.664,0.922,4.13,3.664,4.597,2.753c0.455-0.922-2.765-4.585-1.843-4.585      c0.91,0,11.014,0.922,11.014,0.922l-7.339-3.675l11.014-4.13c0,0-5.507-1.377-7.805-1.377c-2.287,0-5.973,0.922-5.973,0.922      s3.686-5.052,6.44-5.973c0,0-9.182,2.298-10.57,3.675c-1.365,1.377,2.753-6.884-5.495,0.455c-8.26,7.35-8.26,3.675-8.26,3.675      l2.742-4.597c0,0-6.872,0-11.469,2.765c-4.597,2.753-10.092,4.13-14.222,5.507c-4.142,1.377-7.805,2.753-11.014,4.585      c-3.209,1.832-10.103,5.973-8.727,10.092c1.377,4.13,6.884,2.753,6.884,2.753s3.675,0.922,6.428,0.466      c2.753-0.466,4.597,3.209,7.35,1.832S297.119-210.636,297.119-210.636"/>
			</g>
			<path style="fill:#FFFFFF;" d="M360.971-139.491c5.495-1.377,15.599,0.455,20.184,1.377c4.597,0.922,7.805,2.298,9.637,0.455     c1.843-1.832,1.388-2.753,1.388-2.753s2.742-1.377,2.742-2.753v-1.377c0,0,1.843-3.209,0-4.585c0,0,1.843-5.052-1.377-5.973     c0,0,2.298-4.119-1.365-4.585l-1.388-4.585l-30.288,5.052L360.971-139.491z"/>
			<path style="fill:none;stroke:#66757F;stroke-width:0.15;stroke-miterlimit:10;" d="M360.971-139.491     c5.495-1.377,15.599,0.455,20.184,1.377c4.597,0.922,7.805,2.298,9.637,0.455c1.843-1.832,1.388-2.753,1.388-2.753     s2.742-1.377,2.742-2.753v-1.377c0,0,1.843-3.209,0-4.585c0,0,1.843-5.052-1.377-5.973c0,0,2.298-4.119-1.365-4.585l-1.388-4.585     l-30.288,5.052L360.971-139.491z"/>
			<path style="fill:#FFC220;" d="M328.374-189.519c-0.182-0.421-3.664-9.182-5.507-10.559c-1.843-1.377-5.973-4.585-7.805-5.04     c-1.832-0.466-1.832-2.298-1.832-2.298s-4.13-2.298-5.507-3.209c-1.388-0.933-2.765-0.933,0.922-1.388     c3.664-0.455,4.585-0.922,4.585-0.922s-2.753-2.742-1.832-4.13c0.91-1.365,4.631-1.616,9.171-2.742     c3.675-0.922,7.35,0.455,7.35,1.832s-0.922,5.04-0.922,4.585c0-0.455,2.753,1.377,5.507,2.765     c2.753,1.377,4.13,4.585,3.209,6.884c-0.922,2.287,0,5.962,2.298,10.092s-0.455,9.17-2.753,9.637     C332.959-183.557,329.284-187.221,328.374-189.519"/>
			<path style="fill:#9C3900;" d="M292.58-150.971c4.13,2.753,7.805,8.26,7.805,8.26s-1.388,1.832-6.428-0.455     c-5.04-2.298-11.48-5.052-14.234-1.843c-4.21,4.938,1.946,11.15,6.895,12.857c14.689,5.04-5.973,10.547,11.469,18.352     c7.316,3.277,21.572,5.507,24.326,6.884s6.884,6.428,6.884,5.962c0-0.455,0.466-3.664,0.466-3.664s10.092,2.753,13.301,4.13     c3.22,1.377,5.973,5.04,5.973,5.04l0.91-3.209c0,0,8.272,0.922,11.48,3.209c3.209,2.298,5.507,0.466,5.507,0.466     s9.182,2.298,12.846,4.13c3.675,1.832,8.727,2.753,7.805-0.455c-0.91-3.209-6.428-19.285-8.727-22.494     c-2.287-3.209-1.832-8.26-4.585-10.559c-2.753-2.287-21.572-12.846-21.572-12.846s9.182-0.466,12.857-1.843     c3.664-1.377,1.832-5.962,1.832-5.962s0.922-1.832,0.922-3.664c0-1.843-2.298-2.298-2.298-2.298s2.298-0.922,1.832-2.753     c-0.455-1.843-4.585-1.843-3.664-1.843s4.585-3.664,4.13-5.04c-0.466-1.377-7.805,1.832-11.025,0.91c0,0,0.478-2.287,3.22-3.664     c2.753-1.377,2.753-2.298,0.466-3.675c-2.298-1.377-4.608-3.209-2.298-3.209c2.298,0,3.209-1.377,1.832-2.298     s5.507,0,1.377-3.209c-4.119-3.22-5.052-3.22-5.052-3.22s4.142-5.04,2.298-5.507c-1.843-0.455-7.805,2.765-7.805,2.765     s1.377-4.597,3.675-5.985c0,0-5.052-3.197-7.794,0.466c0,0,0.455-5.052,1.832-6.428c0,0-2.753-0.455-5.052,1.377     c0,0-1.843-3.664-0.922-5.962l-4.585,7.35l-6.428,1.82l-3.675-6.417c0,0-2.298,4.597-1.832,8.727     c0.455,4.119,0,10.092-0.466,12.39c-0.455,2.298-5.951,8.715-10.536,9.637c-4.608,0.91-13.323,0.91-13.323,0.91l-10.559,12.857"/>
			<path style="fill:#FFC220;" d="M269.164-176.673c0,0,9.648-3.209,12.857,3.22c3.209,6.417-7.805,8.715-11.935,6.417     c-4.119-2.298-7.339-6.417-6.872-9.637c0.455-3.209,4.585-4.597,4.585-4.597L269.164-176.673z"/>
			<path style="fill:#FFFFFF;" d="M268.254-167.913l2.298-5.507h11.469c0,0,10.559,8.715,18.819,9.182     c8.26,0.455,14.222,4.585,5.052,5.052c0,0,12.379,5.495-0.922,4.585c0,0,8.715,5.962-2.765,3.675c0,0,10.103,6.884-3.209,3.664     l1.377,5.052c0,0-5.495-6.428-9.171-8.26c-3.675-1.843-15.144-7.35-17.909-8.26c-2.742-0.922-2.287-2.298-2.742-4.597     C270.086-165.614,268.254-167.913,268.254-167.913"/>
			<path style="fill:none;stroke:#66757F;stroke-width:0.15;stroke-miterlimit:10;" d="M268.254-167.913l2.298-5.507h11.469     c0,0,10.559,8.715,18.819,9.182c8.26,0.455,14.222,4.585,5.052,5.052c0,0,12.379,5.495-0.922,4.585c0,0,8.715,5.962-2.765,3.675     c0,0,10.103,6.884-3.209,3.664l1.377,5.052c0,0-5.495-6.428-9.171-8.26c-3.675-1.843-15.144-7.35-17.909-8.26     c-2.742-0.922-2.287-2.298-2.742-4.597C270.086-165.614,268.254-167.913,268.254-167.913z"/>
			<path d="M279.063-163.35c0.432-0.876-0.239-2.116-1.525-2.753c-1.274-0.637-2.674-0.444-3.117,0.432     c-0.432,0.887,0.239,2.116,1.525,2.753C277.22-162.269,278.619-162.463,279.063-163.35"/>
		</g>
	</g>
</g>
<g>
</g>
<g>
</g>
<g>
</g>
<g>
</g>
<g>
</g>
<g>
</g>
<g>
</g>
<g>
</g>
<g>
</g>
<g>
</g>
<g>
</g>
<g>
</g>
<g>
</g>
<g>
</g>
<g>
</g>
</svg>
