<?xml version="1.0" encoding="iso-8859-1"?>
<!-- Generator: Adobe Illustrator 19.0.0, SVG Export Plug-In . SVG Version: 6.00 Build 0)  -->
<svg xmlns="http://www.w3.org/2000/svg" xmlns:xlink="http://www.w3.org/1999/xlink" version="1.1" id="Capa_1" x="0px" y="0px" viewBox="0 0 512 512" style="enable-background:new 0 0 512 512;" xml:space="preserve">
<g transform="matrix(1.25 0 0 -1.25 0 45)">
	<g>
		<g>
			<path style="fill:#265FB5;" d="M409.6-271.2c0-25.134-20.378-45.511-45.511-45.511H45.511C20.378-316.711,0-296.334,0-271.2     v204.8c0,25.134,20.378,45.511,45.511,45.511h318.578c25.134,0,45.511-20.378,45.511-45.511V-271.2z"/>
			<path style="fill:#FFFFFF;" d="M313.253-179.381c-0.58,5.973,9.114,20.799,1.331,19.729c-9.523-1.297-16.964,5.257-20.184,5.109     c10.308,14.575,2.651,18.284,0.353,27.728c-4.051,16.589,8.886,24.713-14.222,28.274c-15.03,2.31-25.395,0.74-29.924,17.909     c-6.633-4.654-14.507-5.814-21.97-2.549c-4.779,2.082-6.269,6.053-10.775,7.976c-3.402,1.445-10.524,1.434-14.336,2.037     c-10.502,1.661-15.918-3.004-25.338-1.445c0.899-1.377,1.035-3.129,1.661-4.585c-5.803-0.205-9.341-4.096-9.967-9.523     c-8.499,0.853-10.661-10.217-9.705-17.203c-0.296-0.08-0.592-0.182-0.887-0.262l0.353-0.364     c-1.786-18.489-9.307-27.739-28.251-30.64c-12.47-1.911-23.552,6.383-34.327,13.05c-2.355,1.456-6.497,4.642-8.715,7.111     c-3.186,3.527-5.439,8.499-8.533,11.014c-1.422,1.161-4.437,2.139-4.028-0.228c-1.957-12.265,7.009-27.546,17.317-33.451     c-14.131-6.519,3.584-10.422,6.121-12.641c0.046-0.046,6.133-8.42,6.178-8.727c0.967-5.985-3.152-5.302-3.584-10.092     c-0.455-4.961-0.444-8.954,1.217-13.904c-0.125-0.114-0.239-0.239-0.353-0.353c0.068-3.982-2.958-2.56-6.861-1.673     c0.535-12.083,12.038-13.13,13.972-15.497c6.201-7.612,4.062-18.682,11.287-25.771c17.795-17.431,38.081-7.145,58.22-10.058     c11.31-1.65,21.003-11.139,31.255-0.432c12.049-13.198-9.273-28.843-4.062-33.291c1.49-1.286,3.061-1.809,4.665-1.9     c-0.296-0.819-0.762-1.547-0.978-2.401c14.484-1.365,29.73-4.824,43.258,2.298c-0.023-2.173,1.434-4.813,1.513-5.973     c3.322,3.971,5.916,3.755,10.149,5.86c5.291,2.651,14.632,5.814,18.136,11.105c4.187,6.292-2.389,15.007,10.798,12.311     c1.013,4.551,1.445,4.073,3.857,7.1c-3.629,9.102,7.157,15.246,10.399,21.754c0.649,1.32,0.705,7.418,1.559,9.717     c1.65,4.38,6.326,6.815,7.623,12.299C319.863-189.872,314.095-188.131,313.253-179.381"/>
		</g>
	</g>
</g>
<g>
</g>
<g>
</g>
<g>
</g>
<g>
</g>
<g>
</g>
<g>
</g>
<g>
</g>
<g>
</g>
<g>
</g>
<g>
</g>
<g>
</g>
<g>
</g>
<g>
</g>
<g>
</g>
<g>
</g>
</svg>
