<?xml version="1.0" encoding="iso-8859-1"?>
<!-- Generator: Adobe Illustrator 19.0.0, SVG Export Plug-In . SVG Version: 6.00 Build 0)  -->
<svg xmlns="http://www.w3.org/2000/svg" xmlns:xlink="http://www.w3.org/1999/xlink" version="1.1" id="Capa_1" x="0px" y="0px" viewBox="0 0 512 512" style="enable-background:new 0 0 512 512;" xml:space="preserve">
<path style="fill:#00247D;" d="M455.112,71.113H56.894c-31.417,0-56.888,25.472-56.888,56.888v255.997  c0,31.417,25.472,56.888,56.888,56.888h398.218c31.417,0,56.888-25.472,56.888-56.888V128.001  C512,96.585,486.528,71.113,455.112,71.113z"/>
<path style="fill:#EEEEEE;" d="M270.225,256v-28.857l-100.977-70.698H94.881L237.059,256H270.225z"/>
<path style="fill:#CF1B2B;" d="M270.225,235.833l-113.364-79.388h-24.789l138.153,96.738L270.225,235.833L270.225,235.833z"/>
<path style="fill:#EEEEEE;" d="M115.199,156.446L0,238.45V256h47.388l142.192-99.554L115.199,156.446L115.199,156.446z"/>
<path style="fill:#CF1B2B;" d="M152.379,156.446L10.443,256h3.783h20.778l142.178-99.554L152.379,156.446L152.379,156.446z"/>
<path style="fill:#EEEEEE;" d="M237.072,71.113L94.894,170.668h74.367L270.223,99.97V71.113H237.072z"/>
<path style="fill:#CF1B2B;" d="M249.447,71.113l-142.164,99.554h24.789l138.153-96.738v-2.816H249.447z"/>
<path style="fill:#EEEEEE;" d="M9.432,96.649l132.795,92.949v-18.93h47.331L48.315,71.758C32.088,74.214,18.117,83.528,9.432,96.649  z"/>
<path style="fill:#CF1B2B;" d="M13.785,90.906l128.441,90.031v-10.268h10.155L24.589,81.185  C20.584,83.954,16.955,87.226,13.785,90.906z"/>
<path style="fill:#EEEEEE;" d="M270.225,128.001h-99.554V71.113H99.56v56.888H0.006v71.11H99.56V256h71.11v-56.888h99.554V128.001z"/>
<g>
	<path style="fill:#CF1B2B;" d="M156.449,256h-42.666V71.113h42.666V256z"/>
	<path style="fill:#CF1B2B;" d="M270.225,184.89H0.006v-42.666h270.219V184.89z"/>
</g>
<path style="fill:#CCCC32;" d="M482.667,175.271c0,0-20.878,7.253-44.259,7.253c-23.367,0-40.945-12.146-40.945-12.146  s-17.536,12.146-40.917,12.146c-23.395,0-45.439-7.253-45.439-7.253c-2.19,58.609,1.422,120.29,22.897,152.603  c23.097,34.759,63.459,56.12,63.459,56.12s39.168-21.362,62.264-56.12C481.217,295.562,484.858,233.881,482.667,175.271"/>
<path style="fill:#FFFFFF;" d="M475.25,182.21c0,0-16.711,6.243-38.883,6.243c-22.229,0-38.912-11.107-38.912-11.107  s-16.654,11.107-38.84,11.107c-22.215,0-38.855-6.243-38.855-6.243c-2.091,55.48,0,112.368,21.504,142.192  c21.518,29.852,56.191,50.659,56.191,50.659s34.759-20.807,56.262-50.659C475.208,294.579,477.327,237.69,475.25,182.21"/>
<path style="fill:#FF9900;" d="M378.029,190.536c0,0,0.697,9.714,4.85,13.17c0,0,10.411-2.076,18.73,1.394  c6.585,2.745,18.745,7.623,24.974,5.547c6.243-2.076,11.79-4.153,13.198-2.773c1.38,1.38-6.955,3.47-8.348,4.85  c-1.394,1.394-6.229,2.788-3.456,6.94c2.788,4.167,7.637,7.623,6.243,11.79c0,0-6.243-4.85-9.017-9.003  c-2.788-4.167-9.017-7.637-19.442-6.258c-10.396,1.394-18.702,6.94-20.096,13.184c-1.394,6.243,6.243,5.547,12.473,6.94  c0,0-9.017,3.47-13.867,3.47c0,0-4.153,7.623-8.32,14.563c-4.153,6.94-4.864,11.107-6.94,10.411  c-2.076-0.697-2.788-10.411-1.38-15.957c0,0-4.85-2.788-4.167-16.654c0.597-11.847,9.003-22.898,9.003-22.898s-0.668-4.153,0-9.003  C373.179,195.386,378.029,190.536,378.029,190.536"/>
<path style="fill:#FFFFFF;" d="M370.4,239.427c0,1.351-1.081,2.432-2.432,2.432c-1.351,0-2.432-1.081-2.432-2.432  c0-1.337,1.081-2.418,2.432-2.418C369.319,237.009,370.4,238.09,370.4,239.427"/>
<path style="fill:#FF9900;" d="M355.9,309.013c0,0,7.097-6.684,7.139-12.089c0,0-8.178-6.741-10.766-15.402  c-2.034-6.827-5.931-19.314-11.477-22.841c-5.575-3.527-10.681-6.514-10.51-8.462c0.213-1.948,7.083,3.172,9.045,3.385  c1.948,0.185,6.087,3.086,7.566-1.707c1.479-4.779,1.081-10.738,5.191-12.288c0,0,0.185,7.907-1.28,12.686  c-1.479,4.779-0.213,11.804,7.424,19.001c7.666,7.182,17.223,10.126,22.94,7.239c5.732-2.873,0.37-8.334-2.517-14.051  c0,0,8.391,4.793,11.463,8.576c0,0,8.562-1.621,16.54-2.788c8.021-1.152,11.676-3.243,12.444-1.195  c0.782,2.048-6.3,8.732-11.491,11.179c0,0,0.939,5.49-10.254,13.724c-9.571,7.054-23.438,7.509-23.438,7.509  s-2.773,3.157-6.997,5.689C362.727,309.71,355.9,309.013,355.9,309.013"/>
<path style="fill:#FFFFFF;" d="M398.614,284c1.038-0.839,2.588-0.683,3.413,0.356c0.868,1.038,0.697,2.574-0.341,3.428  c-1.038,0.839-2.56,0.668-3.399-0.356C397.42,286.389,397.59,284.853,398.614,284"/>
<path style="fill:#FF9900;" d="M466.223,267.806c0,0-9.059-3.641-13.98-1.422c0,0-2.688,10.254-9.443,16.227  c-5.362,4.75-15.061,13.511-15.943,20.025c-0.839,6.528-1.408,12.43-3.257,13.07c-1.849,0.64-0.085-7.751-0.725-9.614  c-0.64-1.835,0.242-6.827-4.722-6.144c-4.949,0.668-10.211,3.513-13.326,0.455c0,0,7.111-3.499,12.046-4.181  c4.949-0.654,10.809-4.764,14.122-14.706c3.314-9.984,1.963-19.897-3.044-23.865c-4.992-3.982-7.723,3.186-11.719,8.206  c0,0,0.839-9.657,2.958-14.023c0,0-5.02-7.083-9.443-13.852c-4.409-6.784-7.851-9.23-6.315-10.795  c1.522-1.564,10.581,2.062,14.947,5.746c0,0,4.636-3.157,16.796,3.527c10.411,5.746,16.611,18.147,16.611,18.147  s4.068,1.195,8.135,3.954C463.976,261.307,466.223,267.806,466.223,267.806"/>
<path style="fill:#FFFFFF;" d="M425.598,239.523c-1.209-0.583-1.721-2.034-1.124-3.257c0.583-1.195,2.02-1.692,3.243-1.109  c1.195,0.583,1.707,2.034,1.109,3.243C428.244,239.608,426.779,240.12,425.598,239.523"/>
<path style="fill:#99CCFF;" d="M338.071,319.568c1.01,1.678,2.076,3.299,3.2,4.835c21.504,29.852,56.191,50.645,56.191,50.645  s34.744-20.793,56.262-50.645c1.109-1.536,2.162-3.157,3.172-4.835H338.071z"/>
<g>
</g>
<g>
</g>
<g>
</g>
<g>
</g>
<g>
</g>
<g>
</g>
<g>
</g>
<g>
</g>
<g>
</g>
<g>
</g>
<g>
</g>
<g>
</g>
<g>
</g>
<g>
</g>
<g>
</g>
</svg>
