<?xml version="1.0" encoding="iso-8859-1"?>
<!-- Generator: Adobe Illustrator 19.0.0, SVG Export Plug-In . SVG Version: 6.00 Build 0)  -->
<svg xmlns="http://www.w3.org/2000/svg" xmlns:xlink="http://www.w3.org/1999/xlink" version="1.1" id="Capa_1" x="0px" y="0px" viewBox="0 0 512.043 512.043" style="enable-background:new 0 0 512.043 512.043;" xml:space="preserve">
<g transform="matrix(1.25 0 0 -1.25 0 45)">
	<path style="fill:#FFFFFF;" d="M126.066-202.95l78.768-113.778l78.768,113.778H126.066z"/>
	<g>
		<g>
			<path style="fill:#141414;" d="M116.952-134.684l-1.195,0.25l45.375,9.409l-38.593,27.5l45.249-10.115l-25.953,41.415     l38.229-28.103l-9.341,49.015l25.395-41.825l8.681,49.163l8.693-49.163l25.384,41.825l-9.341-49.015l38.229,28.103     l-25.941-41.415l45.249,10.115l-38.605-27.5l45.375-9.409l-1.183-0.25h38.172l67.766,97.883     c-8.34,9.717-20.696,15.895-34.509,15.895H45.511c-13.813,0-26.158-6.178-34.509-15.895l67.766-97.883H116.952z"/>
			<path style="fill:#FCD116;" d="M293.842-134.456l-45.375,9.409l38.593,27.511l-45.238-10.126l25.941,41.415L229.535-94.35     l9.341,49.015l-25.395-41.813L204.8-37.995l-8.681-49.152l-25.395,41.813l9.341-49.015l-38.229,28.103l25.941-41.415     l-45.238,10.126l38.593-27.511l-45.375-9.409l1.195-0.25h175.696L293.842-134.456z"/>
			<path style="fill:#0072C6;" d="M116.952-134.684H78.768l47.263-68.267h157.537l47.263,68.267h-38.172H116.952z"/>
			<g>
				<path style="fill:#CE1126;" d="M330.866-134.684l-47.263-68.267l-78.768-113.778h159.289c25.134,0,45.511,20.378,45.511,45.511      v204.8c0,11.321-4.164,21.652-11.002,29.616L330.866-134.684z"/>
				<path style="fill:#CE1126;" d="M78.768-134.684L11.002-36.801C4.164-44.765,0-55.096,0-66.417v-204.8      c0-25.134,20.378-45.511,45.511-45.511H204.8L126.032-202.95L78.768-134.684z"/>
			</g>
		</g>
	</g>
</g>
<g>
</g>
<g>
</g>
<g>
</g>
<g>
</g>
<g>
</g>
<g>
</g>
<g>
</g>
<g>
</g>
<g>
</g>
<g>
</g>
<g>
</g>
<g>
</g>
<g>
</g>
<g>
</g>
<g>
</g>
</svg>
