<?xml version="1.0" encoding="iso-8859-1"?>
<!-- Generator: Adobe Illustrator 19.0.0, SVG Export Plug-In . SVG Version: 6.00 Build 0)  -->
<svg xmlns="http://www.w3.org/2000/svg" xmlns:xlink="http://www.w3.org/1999/xlink" version="1.1" id="Capa_1" x="0px" y="0px" viewBox="0 0 512 512" style="enable-background:new 0 0 512 512;" xml:space="preserve">
<g transform="matrix(1.25 0 0 -1.25 0 45)">
	<g>
		<g>
			<path style="fill:#141414;" d="M409.6-271.2c0-25.134-20.378-45.511-45.511-45.511H45.511C20.378-316.711,0-296.334,0-271.2     v204.8c0,25.134,20.378,45.511,45.511,45.511h318.578c25.134,0,45.511-20.378,45.511-45.511V-271.2z"/>
			<path style="fill:#019900;" d="M364.089-20.889c25.134,0,45.511-20.378,45.511-45.511v-204.8     c0-25.134-20.378-45.511-45.511-45.511h-91.022v295.822H364.089z"/>
			<path style="fill:#BF1700;" d="M273.067-316.711H136.533v295.822h136.533V-316.711z"/>
			<path style="fill:#FF8B88;" d="M247.66-123.63l-13.073-15.258c7.703-7.657,12.481-18.25,12.481-29.969     c0-23.347-18.921-42.268-42.268-42.268c-23.336,0-42.257,18.921-42.257,42.268c0,11.719,4.779,22.312,12.481,29.969     L161.94-123.63c-11.981-11.366-19.502-27.398-19.502-45.227c0-34.441,27.921-62.362,62.362-62.362     c34.452,0,62.373,27.921,62.373,62.362C267.173-151.028,259.652-134.997,247.66-123.63"/>
			<path style="fill:#FF5B57;" d="M204.493-105.084c21.686,0,39.697-13.38,39.697-13.38l-8.806-9.591c0,0-14.586,9.057-30.583,9.057     s-30.583-11.059-30.583-11.059l-7.771,9.91C166.446-120.149,182.238-105.084,204.493-105.084"/>
			<g>
				<path style="fill:#FFFFFF;" d="M214.357-144.565c0-5.279-4.278-9.557-9.557-9.557c-5.291,0-9.569,4.278-9.569,9.557      c0,5.279,4.278,9.557,9.569,9.557C210.079-135.008,214.357-139.286,214.357-144.565"/>
				<path style="fill:#FFFFFF;" d="M217.202-154.134l-4.801,5.166h-7.6h-7.634l-4.801-5.166l-10.536-1.308l3.277-4.904H204.8h19.672      l3.277,4.904L217.202-154.134z"/>
				<path style="fill:#FFFFFF;" d="M190.566-153.247c0-1.32-1.07-2.389-2.389-2.389s-2.378,1.07-2.378,2.389v16.316      c0,1.308,1.058,2.378,2.378,2.378s2.389-1.07,2.389-2.378V-153.247z"/>
				<path style="fill:#FFFFFF;" d="M190.248-167.15h-5.074v7.487h5.074V-167.15z"/>
				<path style="fill:#FFFFFF;" d="M190.248-178.528h-5.074v7.487h5.074V-178.528z"/>
				<path style="fill:#FFFFFF;" d="M190.248-192.227h-5.074v9.796h5.074V-192.227z"/>
				<path style="fill:#FFFFFF;" d="M182.5-192.363h14.757v3.868h-11.173L182.5-192.363z"/>
				<path style="fill:#FFFFFF;" d="M219.261-153.247c0-1.32,1.07-2.389,2.389-2.389c1.308,0,2.378,1.07,2.378,2.389v16.316      c0,1.308-1.07,2.378-2.378,2.378c-1.32,0-2.389-1.07-2.389-2.378V-153.247z"/>
				<path style="fill:#FFFFFF;" d="M219.591-167.15h5.074v7.487h-5.074V-167.15z"/>
				<path style="fill:#FFFFFF;" d="M219.591-178.528h5.074v7.487h-5.074V-178.528z"/>
				<path style="fill:#FFFFFF;" d="M219.591-192.227h5.074v9.796h-5.074V-192.227z"/>
				<path style="fill:#FFFFFF;" d="M227.282-192.363h-14.757v3.868h11.184L227.282-192.363z"/>
				<path style="fill:#FFFFFF;" d="M193.764-169.824l9.99-0.535l13.164-18.239l-4.369,0.102l-6.167,3.072l-13.13,0.137      L193.764-169.824z"/>
				<path style="fill:#FFFFFF;" d="M141.119-171.417c-0.171,0.728,5.473-5.12,9.956-5.302c4.483-0.171,13.107-0.353,14.302-3.914      c1.195-3.55,2.185-7.191,2.185-7.191s-2.64,2.173-6.44,2.822c-3.789,0.637-11.708,2.31-14.689,3.868      C143.462-179.563,141.801-174.295,141.119-171.417"/>
				<path style="fill:#FFFFFF;" d="M151.666-204.117c0,0,5.166-0.762,10.035,1.502c4.881,2.264,14.757,6.292,20.844-1.946      c0,0-4.904,1.65-9.193-0.887c-4.278-2.549-10.729-5.302-15.588-4.107C152.895-208.349,151.666-204.117,151.666-204.117"/>
				<path style="fill:#FFFFFF;" d="M149.276-155.943c0.603,1.32,3.072-0.296,4.062,0.603s-0.137,4.085,1.32,4.449      c1.445,0.364,5.2-7.077,7.054-11.799c1.855-4.733,0.58-10.615-1.092-11.856c-1.673-1.229-0.421,0-0.421,0      s-0.466,4.836-3.083,7.76C154.499-163.862,149.276-155.943,149.276-155.943"/>
				<path style="fill:#FFFFFF;" d="M268.436-171.417c0.171,0.728-5.484-5.12-9.956-5.302c-4.483-0.171-13.107-0.353-14.302-3.914      c-1.195-3.55-2.185-7.191-2.185-7.191s2.64,2.173,6.428,2.822c3.8,0.637,11.719,2.31,14.689,3.868      C266.092-179.563,267.753-174.295,268.436-171.417"/>
				<path style="fill:#FFFFFF;" d="M258.162-204.117c0,0-5.154-0.762-10.035,1.502c-4.881,2.264-14.757,6.292-20.833-1.946      c0,0,4.904,1.65,9.182-0.887c4.289-2.549,10.729-5.302,15.599-4.107C256.944-208.349,258.162-204.117,258.162-204.117"/>
				<path style="fill:#FFFFFF;" d="M260.289-155.943c-0.603,1.32-3.072-0.296-4.05,0.603c-0.99,0.899,0.125,4.085-1.331,4.449      c-1.445,0.364-5.2-7.077-7.054-11.799c-1.855-4.733-0.58-10.615,1.104-11.856c1.661-1.229,0.421,0,0.421,0      s0.455,4.836,3.072,7.76S260.289-155.943,260.289-155.943"/>
				<path style="fill:#FFFFFF;" d="M180.44-198.883l-0.057,4.392h47.172l0.182-4.494L180.44-198.883z"/>
				<path style="fill:#FFFFFF;" d="M169.404-164.624l5.473,5.495l12.026-17.579l-1.058-0.603l-8.92,11.207l-2.253-3.095      L169.404-164.624z"/>
				<path style="fill:#FFFFFF;" d="M240.299-164.624l-5.484,5.495l-12.026-17.579l1.07-0.603l8.92,11.207l2.241-3.095      L240.299-164.624z"/>
				<path style="fill:#FFFFFF;" d="M238.831-224.21c0.614,1.934-8.727,8.693-11.856,10.115s-8.795-2.162-12.629-2.856      c-3.846-0.705-9.546-0.353-9.546-0.353s-4.096-0.353-7.93,0.353c-3.834,0.694-7.896,4.278-11.025,2.856      c-3.14-1.422-12.516-8.181-11.901-10.115c0.614-1.934,9.011-4.688,9.011-4.688l-0.41-3.277l13.665-0.387l2.014,2.549      l6.576,1.331l8.215-1.331l2.822-2.549l14.086,0.387l-0.205,3.277C229.717-228.897,238.217-226.144,238.831-224.21"/>
			</g>
		</g>
	</g>
</g>
<g>
</g>
<g>
</g>
<g>
</g>
<g>
</g>
<g>
</g>
<g>
</g>
<g>
</g>
<g>
</g>
<g>
</g>
<g>
</g>
<g>
</g>
<g>
</g>
<g>
</g>
<g>
</g>
<g>
</g>
</svg>
