<?xml version="1.0" encoding="iso-8859-1"?>
<!-- Generator: Adobe Illustrator 19.0.0, SVG Export Plug-In . SVG Version: 6.00 Build 0)  -->
<svg xmlns="http://www.w3.org/2000/svg" xmlns:xlink="http://www.w3.org/1999/xlink" version="1.1" id="Capa_1" x="0px" y="0px" viewBox="0 0 512 512" style="enable-background:new 0 0 512 512;" xml:space="preserve">
<g transform="matrix(1.25 0 0 -1.25 0 45)">
	<g>
		<g>
			<path style="fill:#00247D;" d="M364.089-20.889h-147.91v-2.253l-0.002-0.002v-20.831l-64.522-45.181h0.007l-8.133-5.694     l72.649-50.865v-6.952v-13.881v-2.253h-26.533l-75.866,53.122L37.906-168.8H28H11.377H8.35H0v-102.4     c0-25.133,20.378-45.511,45.511-45.511h318.578c25.133,0,45.511,20.378,45.511,45.511v204.8     C409.6-41.267,389.222-20.889,364.089-20.889z"/>
			<path style="fill:#00247D;" d="M75.911-100.533l8.119,5.685l-8.13,5.692h16.254h0.005l97.495,68.267H45.511     C20.378-20.889,0-41.267,0-66.4v-88.357l76.172,54.223h-0.261V-100.533z"/>
		</g>
		<polygon style="fill:#CF1B2B;" points="128.656,-105.262 216.178,-166.547 216.178,-152.666 138.572,-98.32   "/>
		<polygon style="fill:#EEEEEE;" points="105.679,-100.533 125.494,-100.533 28,-168.8 37.906,-168.8 113.779,-115.678     189.645,-168.8 216.178,-168.8 216.178,-166.547 128.656,-105.262 138.572,-98.32 216.178,-152.666 216.178,-145.715     143.528,-94.85 151.661,-89.156 151.654,-89.156 216.177,-43.974 216.177,-23.143 105.655,-100.533 85.824,-100.533     199.556,-20.889 189.655,-20.889 92.16,-89.156 92.155,-89.156 75.901,-89.156 84.031,-94.848 75.911,-100.533 76.172,-100.533     0,-154.757 0,-168.8 8.35,-168.8   "/>
		<g>
			<polygon style="fill:#CF1B2B;" points="125.494,-100.533 105.679,-100.533 8.35,-168.8 11.377,-168.8 28,-168.8    "/>
			<polygon style="fill:#CF1B2B;" points="85.824,-100.533 105.655,-100.533 216.177,-23.143 216.179,-23.142 216.179,-20.889      216.178,-20.889 216.177,-20.889 199.556,-20.889    "/>
		</g>
	</g>
	<g>
		<g>
			<path style="fill:#EEEEEE;" d="M19.667-28.946l102.235-71.587h29.742L38.647-21.405C31.674-22.46,25.225-25.103,19.667-28.946z"/>
			<path style="fill:#EEEEEE;" d="M7.541-41.317l106.237-74.36v6.929L11.024-36.723C9.77-38.178,8.605-39.71,7.541-41.317z"/>
		</g>
		<path style="fill:#CF1B2B;" d="M11.024-36.723l102.754-72.025v8.215h8.124L19.667-28.946    C16.462-31.161,13.56-33.779,11.024-36.723z"/>
	</g>
	<g>
		<g>
			<polygon style="fill:#EEEEEE;" points="125.156,-168.8 136.533,-168.8 136.533,-123.289 216.178,-123.289 216.178,-111.911      125.156,-111.911    "/>
			<polygon style="fill:#EEEEEE;" points="216.178,-77.778 216.178,-66.4 136.533,-66.4 136.533,-20.889 125.156,-20.889      125.156,-77.778    "/>
			<polygon style="fill:#EEEEEE;" points="79.644,-168.8 91.022,-168.8 91.022,-111.911 0,-111.911 0,-123.289 79.644,-123.289         "/>
			<polygon style="fill:#EEEEEE;" points="91.022,-20.889 79.644,-20.889 79.644,-66.4 0,-66.4 0,-77.778 91.022,-77.778    "/>
		</g>
		<polygon style="fill:#CF1B2B;" points="91.022,-168.8 125.156,-168.8 125.156,-111.911 216.178,-111.911 216.178,-77.778     125.156,-77.778 125.156,-20.889 91.022,-20.889 91.022,-77.778 0,-77.778 0,-111.911 91.022,-111.911   "/>
		<g>
			<path style="fill:#288548;" d="M323.155-130.543c0.632-0.011,1.215-0.062,1.702-0.144l-1.564,4.013     c-0.046-0.001-0.092-0.002-0.138-0.002V-130.543z"/>
			<path style="fill:#288548;" d="M323.155-136.606c0.547,0.057,1.078,0.093,1.556,0.093c0.806,0,1.664-0.051,2.463-0.121     l-1.847,4.741c-0.558-0.139-1.321-0.226-2.172-0.241L323.155-136.606L323.155-136.606z"/>
			<path style="fill:#288548;" d="M330.411-146.357c0.469-0.938,0.932-1.541,1.305-1.934l-1.821,4.673l-0.676-1.518     C329.678-145.378,330.109-145.757,330.411-146.357z"/>
			<path style="fill:#288548;" d="M319.531-131.333c0,0.284,0.62,0.53,1.553,0.671v4.068c-0.419,0.042-0.769,0.098-1.033,0.164     c-0.02-0.317-1.087-0.593-2.595-0.707v-3.324c0.934-0.185,1.555-0.505,1.555-0.87c0-0.372-0.621-0.695-1.555-0.881v-6.546     l0.52,1.211c0,0,1.416,0.353,3.108,0.647v4.888C320.151-131.873,319.531-131.624,319.531-131.333z"/>
			<path style="fill:#288548;" d="M308.144-123.052v-4.288c1.23-0.178,2.066-0.506,2.066-0.893c0-0.38-0.836-0.71-2.066-0.89v-3.282     c2.381-0.11,4.145-0.511,4.145-1.005c0-0.484-1.764-0.892-4.145-1.004v-6.968c2.316-0.079,5.611,0.063,7.256,0.148     c-0.007,0.055-0.015,0.11-0.015,0.168v8.695c-1.732,0.042-3.098,0.486-3.098,1.039c0,0.542,1.367,0.986,3.098,1.027v3.12     c-2.036,0.05-3.624,0.376-3.624,0.764c0,0.398,1.588,0.716,3.624,0.764v5.095c0,0.626,0.466,1.138,1.035,1.138     c0.58,0,1.035-0.512,1.035-1.138v-5.141c0.929-0.069,1.679-0.2,2.132-0.365c0.161,0.145,0.715,0.269,1.496,0.345v2.673     c0,0.356,0.194,0.656,0.47,0.843l-7.195,18.468l-7.134-18.299C307.737-122.101,308.144-122.524,308.144-123.052z"/>
			<path style="fill:#288548;" d="M306.062-134.434c-1.426,0.039-2.673,0.185-3.516,0.393l-1.706-4.376     c2.072-1.267,4.264-2.517,5.222-2.761V-134.434z"/>
			<path style="fill:#288548;" d="M306.062-129.269c-0.575,0-1.123,0.031-1.622,0.085l-1.356-3.477     c0.799,0.145,1.831,0.243,2.978,0.275V-129.269z"/>
			<path style="fill:#288548;" d="M306.062-125.023l-0.857-2.199c0.277,0.015,0.563,0.023,0.857,0.023V-125.023z"/>
			<path style="fill:#288548;" d="M299.349-146.869c0,0,2.059,1.035,4.654-1.559c1.614-1.614,4.042-1.211,4.877,0.08     c-1.487,0.643-2.83,1.519-3.329,2.516c-0.861,1.75-3.927,3.844-5.499,5.394l-3.113-7.985l0.954-2.446     C298.964-150.549,300.889-149.574,299.349-146.869z"/>
			<path style="fill:#288548;" d="M308.351-153.252l0.13-0.205c0.177,0.769,0.643,1.469,1.359,1.921l0.444,0.284     c1.124,0.717,2.531,0.606,3.537-0.16c0.067,0.104,0.145,0.197,0.223,0.292c-1.641,0.667-2.834,1.862-3.306,1.145     c-0.626-0.935-2.015-1.87-3.698-2.123C307.562-152.342,308.024-152.728,308.351-153.252z"/>
			<path style="fill:#288548;" d="M327.136-153.077c0.489,0.677,1.244,1.141,2.103,1.259c-0.266,0.468-0.398,0.808-0.398,0.808     s-0.748-1.005-2.08-1.441l0.305-0.487C327.094-152.983,327.11-153.032,327.136-153.077z"/>
			<path style="fill:#288548;" d="M321.124-150.585c-0.36,0.353-0.555,0.61-0.555,0.61s-0.172-0.087-0.449-0.219     c0.317-0.12,0.603-0.294,0.86-0.504C321.028-150.661,321.073-150.62,321.124-150.585z"/>
			<path style="fill:#288548;" d="M303.63-152.57l0.444,0.284c0.204,0.13,0.42,0.227,0.639,0.304     c-0.405,0.104-0.813,0.253-1.222,0.458c0,0-0.892-1.416-2.252-2.593h1.155C302.622-153.501,303.034-152.949,303.63-152.57z"/>
		</g>
		<g>
			<path style="fill:#FFFFFF;" d="M298.301-167.059l-0.889,0.162c-1.78-1.533-5.199-3.782-9.981-3.782     c-1.7,0-3.163,0.378-4.421,0.944c-0.145-0.341-0.236-0.437-0.236-0.437s-2.583,1.035-4.142,3.118     c-0.433,0.575-0.783,1.354-1.055,2.208c-0.332,0.535-0.501,0.891-0.501,0.891s-0.512-3.618,0.523-6.212     c1.035-2.583,5.689-5.689,10.354-5.689c4.654,0,8.283,2.071,8.283,2.071c-1.035-1.559-0.512-4.654-0.512-4.654     c1.536,0.501,3.618,2.583,3.618,2.583c-1.047-2.583,2.071-5.7,2.071-5.7c0,1.963,1.369,3.774,2.622,5.024     c-0.012,0.05-0.023,0.11-0.035,0.155C303.49-174.295,298.301-167.059,298.301-167.059z"/>
			<path style="fill:#FFFFFF;" d="M303.308-157.859l-0.634,1c-0.542,0.856-0.604,1.866-0.28,2.743h-1.155     c-0.964-0.834-2.16-1.548-3.449-1.548c-0.027,0-0.053,0.003-0.08,0.003c-0.272-0.461-0.439-0.99-0.439-1.561     c0-1.707,1.399-3.095,3.106-3.095h0.111C301.193-159.57,302.129-158.705,303.308-157.859z"/>
			<path style="fill:#FFFFFF;" d="M320.979-150.698c-0.257,0.211-0.543,0.384-0.86,0.504c-0.902-0.426-2.96-1.329-4.204-1.329     c-0.671,0-1.298,0.17-1.871,0.402c-0.078-0.095-0.156-0.188-0.223-0.292c0.287-0.219,0.547-0.483,0.752-0.807l1.104-1.752     c0.079-0.124,0.135-0.255,0.195-0.385c0.85-0.285,1.731-0.807,2.623-1.518c0.548,0.406,1.143,0.769,1.771,1.106     C319.413-153.416,319.75-151.662,320.979-150.698z"/>
		</g>
		<g>
			<path style="fill:#6488BD;" d="M308.482-153.457l-0.13,0.205c-0.328,0.525-0.79,0.911-1.31,1.154     c-0.733-0.11-1.521-0.091-2.328,0.117c-0.219-0.077-0.435-0.173-0.639-0.304l-0.444-0.284c-0.596-0.38-1.008-0.931-1.235-1.546     c-0.325-0.877-0.262-1.887,0.28-2.743l0.634-1c1.402,1.005,3.151,1.977,5.271,2.684     C308.384-154.612,308.353-154.017,308.482-153.457z"/>
			<path style="fill:#6488BD;" d="M320.267-154.769c0.43,0.23,0.871,0.451,1.333,0.657l4.903-2.221l0.051,1.557     c0.021,0.634,0.235,1.218,0.582,1.698c-0.026,0.046-0.042,0.094-0.07,0.139l-0.305,0.487c-0.578-0.189-1.265-0.273-2.051-0.118     c-1.677,0.34-2.919,1.33-3.586,1.984c-0.051-0.035-0.097-0.075-0.145-0.113C319.75-151.662,319.413-153.416,320.267-154.769z"/>
		</g>
		<g>
			<path style="fill:#297F47;" d="M314.574-152.219c-0.205,0.324-0.465,0.588-0.752,0.807c-1.006,0.766-2.413,0.877-3.537,0.16     l-0.444-0.284c-0.716-0.451-1.182-1.152-1.359-1.921c-0.129-0.56-0.098-1.155,0.097-1.718c1.688,0.563,3.606,0.96,5.776,1.064     c0.49,0.022,0.999-0.071,1.517-0.245c-0.06,0.13-0.116,0.261-0.195,0.385L314.574-152.219z"/>
			<path style="fill:#297F47;" d="M329.239-151.819c-0.859-0.118-1.614-0.582-2.103-1.259c-0.347-0.481-0.561-1.064-0.582-1.698     l-0.051-1.557l0.798-0.361c0,0,0.174-1.213,0.916-3.033c0.387-0.192,0.815-0.313,1.273-0.328l0.523-0.023     c1.707-0.057,3.14,1.286,3.197,3.004l0.068,2.071c0.005,0.116-0.013,0.227-0.021,0.341     C331.134-154.578,329.837-152.87,329.239-151.819z"/>
		</g>
		<path style="fill:#689F9E;" d="M313.233-185.178c3.414,3.503,11.261,9.68,14.064,8.274c3.118-1.536,2.594-4.654-0.523-7.748    c-0.191-0.193-0.415-0.367-0.665-0.526h1.687c2.09,2.814,4.033,7.377,3.649,9.324c-0.025,0.124-0.078,0.298-0.145,0.496    c-3.197,4.24-5.035,8.811-5.035,8.811c0-4.654,3.63-10.354,3.63-10.354c-3.118,0.523-7.248,3.629-8.806,7.771    c-1.559,4.141-1.559,8.806-1.559,8.806c-2.583-1.559-5.177-6.736-5.177-6.736c-0.395,5.872,1.29,9.072,4.144,11.185    c-0.892,0.711-1.773,1.234-2.623,1.518c-0.519,0.174-1.027,0.267-1.517,0.245c-2.17-0.105-4.089-0.501-5.776-1.064    c-2.12-0.707-3.869-1.679-5.271-2.684c-1.18-0.845-2.116-1.71-2.819-2.457c-1.128-1.198-1.664-2.089-1.664-2.089h3.106    l-0.523-2.059l-6.736,0.512l-2.059-2.071l4.799-0.873l0.889-0.162c0,0,5.188-7.236,5.7-9.318c0.012-0.046,0.023-0.105,0.035-0.155    c0.381-1.652,0.787-5.654,2.22-8.646L313.233-185.178L313.233-185.178z"/>
		<path style="fill:#481918;" d="M327.297-176.904c-2.802,1.406-10.65-4.771-14.064-8.274h1.123h11.753    c0.25,0.158,0.473,0.333,0.665,0.526C329.891-181.558,330.414-178.44,327.297-176.904z"/>
		<g>
			<path style="fill:#FFFFFF;" d="M295.028-245.364c-0.149,0.146-0.298,0.295-0.447,0.448     C294.731-245.068,294.88-245.218,295.028-245.364z"/>
			<path style="fill:#FFFFFF;" d="M292.814-242.972c-0.248,0.294-0.495,0.598-0.742,0.911     C292.319-242.375,292.566-242.678,292.814-242.972z"/>
			<path style="fill:#FFFFFF;" d="M334.932-244.072c-0.031-0.034-0.062-0.067-0.094-0.101     C334.87-244.139,334.901-244.106,334.932-244.072z"/>
			<path style="fill:#FFFFFF;" d="M294.391-244.722c-0.234,0.243-0.469,0.494-0.704,0.752     C293.922-244.228,294.157-244.48,294.391-244.722z"/>
			<path style="fill:#FFFFFF;" d="M288.492-236.513c-0.198,0.379-0.394,0.767-0.585,1.165     C288.098-235.745,288.293-236.134,288.492-236.513z"/>
			<path style="fill:#FFFFFF;" d="M289.111-237.642c-0.114,0.2-0.227,0.404-0.339,0.61     C288.884-237.238,288.997-237.441,289.111-237.642z"/>
			<path style="fill:#FFFFFF;" d="M293.56-243.829c-0.216,0.24-0.431,0.486-0.647,0.74     C293.129-243.343,293.345-243.589,293.56-243.829z"/>
			<path style="fill:#FFFFFF;" d="M285.443-228.903c-0.187,0.642-0.364,1.304-0.53,1.983     C285.08-227.598,285.255-228.262,285.443-228.903z"/>
			<path style="fill:#FFFFFF;" d="M287.764-235.044c-0.196,0.418-0.39,0.842-0.577,1.281     C287.375-234.2,287.568-234.627,287.764-235.044z"/>
			<path style="fill:#FFFFFF;" d="M335.72-243.18c-0.117-0.137-0.233-0.272-0.35-0.404     C335.487-243.452,335.603-243.316,335.72-243.18z"/>
			<path style="fill:#FFFFFF;" d="M337.474-240.947c-0.141-0.194-0.281-0.391-0.422-0.578c0.219,0.29,0.436,0.587,0.652,0.893     c-0.026-0.037-0.052-0.071-0.078-0.107C337.575-240.81,337.524-240.877,337.474-240.947z"/>
			<path style="fill:#FFFFFF;" d="M336.877-241.751c0.043,0.057,0.087,0.112,0.13,0.169l-0.003,0.003     C336.962-241.636,336.92-241.695,336.877-241.751z"/>
			<path style="fill:#FFFFFF;" d="M314.879-238.501c3.618,0,6.724-4.141,10.866-4.141c3.172,0,5.738,2.731,8.625,4.012l-7.366,8.243     c-0.599-0.208-1.192-0.341-1.783-0.341c-3.618,0-6.724,3.618-10.342,3.618c-3.629,0-6.736-3.618-10.354-3.618     c-0.843,0-1.687,0.257-2.549,0.643l-7.369-8.246c3.213-1.081,5.953-4.31,9.394-4.31     C308.143-242.643,311.249-238.501,314.879-238.501z"/>
			<path style="fill:#FFFFFF;" d="M314.355-216.234l-0.034-0.038c0.021,0.002,0.043,0.002,0.065,0.005L314.355-216.234z"/>
			<path style="fill:#FFFFFF;" d="M338.888-226.194l3.901-4.216c-0.382-1.156-0.796-2.251-1.236-3.287     c1.169,2.737,2.153,5.883,2.837,9.498c-0.272-1.439-0.591-2.805-0.952-4.095C342.031-227.339,340.562-226.49,338.888-226.194z"/>
			<path style="fill:#FFFFFF;" d="M291.704-241.582c0.103-0.136,0.207-0.27,0.311-0.403c-0.103,0.132-0.205,0.272-0.307,0.407     L291.704-241.582z"/>
			<path style="fill:#FFFFFF;" d="M337.657-203.809c-5.177,0-8.818-4.665-12.436-4.665c-1.281,0-2.498,0.458-3.696,1.046     l9.859-10.656c1.83,1.175,3.658,2.362,5.75,2.362c2.503,0,5.564-2.253,7.942-3.709c-0.163-1.615-0.384-3.148-0.655-4.605     c0.629,3.385,0.996,7.174,0.996,11.426v2.632c-0.399,1.053-0.752,2.153-1.024,3.264     C342.355-205.273,340.264-203.809,337.657-203.809z"/>
			<path style="fill:#FFFFFF;" d="M339.262-238.229c-0.136-0.23-0.274-0.452-0.413-0.675     C338.988-238.681,339.126-238.458,339.262-238.229z"/>
			<path style="fill:#FFFFFF;" d="M341.524-233.762c-0.188-0.439-0.381-0.865-0.578-1.283     C341.143-234.627,341.336-234.2,341.524-233.762z"/>
			<path style="fill:#FFFFFF;" d="M336.706-241.973c-0.21-0.27-0.421-0.532-0.632-0.788     C336.286-242.506,336.496-242.242,336.706-241.973z"/>
			<path style="fill:#FFFFFF;" d="M338.356-239.673c-0.106-0.161-0.212-0.321-0.32-0.477     C338.143-239.993,338.25-239.834,338.356-239.673z"/>
			<path style="fill:#FFFFFF;" d="M339.939-237.032c-0.112-0.206-0.225-0.409-0.339-0.61     C339.714-237.441,339.827-237.238,339.939-237.032z"/>
			<path style="fill:#FFFFFF;" d="M340.804-235.348c-0.191-0.398-0.387-0.786-0.585-1.165     C340.418-236.134,340.613-235.745,340.804-235.348z"/>
			<path style="fill:#FFFFFF;" d="M295.491-245.811c-0.024,0.023-0.047,0.044-0.071,0.067     C295.443-245.766,295.467-245.788,295.491-245.811z"/>
			<path style="fill:#FFFFFF;" d="M291.35-241.106c0.103-0.141,0.206-0.282,0.309-0.42c-0.073,0.096-0.144,0.199-0.217,0.297     C291.412-241.187,291.381-241.148,291.35-241.106z"/>
			<path style="fill:#FFFFFF;" d="M291.008-240.632c0.07-0.099,0.141-0.196,0.211-0.293c-0.02,0.028-0.04,0.059-0.061,0.087     C291.108-240.769,291.058-240.703,291.008-240.632z"/>
			<path style="fill:#FFFFFF;" d="M292.613-215.722c1.843,0,3.483-0.922,5.1-1.945l8.823,9.536c-0.656-0.212-1.324-0.343-2.01-0.343     c-3.63,0-7.259,4.665-12.425,4.665c-3.173,0-5.559-2.139-8.01-3.786c-0.232-0.811-0.503-1.609-0.797-2.384v-2.631     c0-5.46,0.603-10.16,1.594-14.213c-0.509,2.094-0.913,4.363-1.185,6.823C286.161-218.68,289.757-215.722,292.613-215.722z"/>
			<path style="fill:#FFFFFF;" d="M289.449-238.229c0.099-0.166,0.199-0.326,0.298-0.488l0,0     C289.648-238.555,289.547-238.395,289.449-238.229z"/>
			<path style="fill:#FFFFFF;" d="M289.48-226.566c-1.451-0.534-2.755-1.434-4.035-2.343c0.505-1.722,1.084-3.313,1.714-4.789     c-0.44,1.036-0.854,2.13-1.236,3.286L289.48-226.566z"/>
			<path style="fill:#FFFFFF;" d="M292.613-193.456c4.142,0,7.259-4.665,11.389-4.665c4.142,0,7.248,4.142,10.877,4.142     c3.618,0,6.724-4.142,10.866-4.142s7.248,4.665,11.389,4.665c2.507,0,5.597-2.285,7.983-3.737c0.095,0.219,0.196,0.434,0.3,0.65     v11.365h-17.621h-1.687h-11.753h-1.123h-6.976h-22.963v-11.368c0.181-0.376,0.348-0.757,0.501-1.142     C286.253-196.336,289.795-193.456,292.613-193.456z"/>
			<path style="fill:#FFFFFF;" d="M289.799-238.802c0.021-0.034,0.041-0.068,0.062-0.101c-0.02,0.031-0.039,0.064-0.058,0.096     C289.802-238.806,289.8-238.804,289.799-238.802z"/>
			<path style="fill:#FFFFFF;" d="M290.423-239.774c-0.022,0.034-0.045,0.067-0.067,0.101c0.106-0.161,0.213-0.32,0.32-0.477     c-0.028,0.041-0.056,0.084-0.084,0.125C290.535-239.942,290.479-239.858,290.423-239.774z"/>
		</g>
		<g>
			<path style="fill:#3AB1D6;" d="M334.37-238.631c-2.888-1.281-5.454-4.012-8.625-4.012c-4.142,0-7.248,4.141-10.866,4.141     c-3.629,0-6.736-4.141-10.877-4.141c-3.441,0-6.181,3.23-9.394,4.31l-2.901-3.246c0.102-0.135,0.204-0.275,0.307-0.407     c0.02-0.025,0.039-0.051,0.058-0.076c0.246-0.314,0.494-0.617,0.742-0.911c0.033-0.039,0.066-0.077,0.099-0.116     c0.216-0.254,0.431-0.5,0.647-0.74c0.042-0.047,0.084-0.095,0.126-0.141c0.235-0.259,0.47-0.51,0.704-0.752     c0.064-0.066,0.127-0.128,0.191-0.193c0.15-0.153,0.299-0.302,0.447-0.448c0.131-0.129,0.261-0.255,0.391-0.38     c0.024-0.023,0.048-0.045,0.071-0.067c0.164-0.156,0.328-0.314,0.49-0.462c5.7-5.177,18.375-9.83,18.375-9.83     s12.675,4.654,18.375,9.83c0.69,0.627,1.397,1.33,2.108,2.1c0.031,0.034,0.062,0.066,0.094,0.101     c0.146,0.16,0.292,0.322,0.438,0.488c0.117,0.132,0.233,0.268,0.35,0.404c0.118,0.139,0.236,0.276,0.355,0.419     c0.211,0.256,0.422,0.518,0.632,0.788c0.057,0.073,0.114,0.147,0.171,0.222c0.043,0.056,0.085,0.116,0.128,0.172L334.37-238.631z     "/>
			<path style="fill:#3AB1D6;" d="M289.747-238.717L289.747-238.717c-0.001,0-0.001-0.001-0.002-0.001     c0.018-0.029,0.036-0.055,0.054-0.084c0.001-0.002,0.003-0.004,0.004-0.006C289.784-238.777,289.766-238.747,289.747-238.717z"/>
			<path style="fill:#3AB1D6;" d="M290.423-239.774c0.056-0.085,0.112-0.168,0.169-0.252     C290.535-239.942,290.479-239.858,290.423-239.774z"/>
			<path style="fill:#3AB1D6;" d="M291.158-240.839c0.02-0.028,0.04-0.059,0.061-0.087c0.044-0.061,0.087-0.12,0.131-0.18     c0.031-0.042,0.062-0.081,0.093-0.123C291.348-241.1,291.253-240.97,291.158-240.839z"/>
			<path style="fill:#3AB1D6;" d="M337.474-240.947c0.05,0.07,0.101,0.136,0.151,0.207     C337.575-240.81,337.524-240.877,337.474-240.947z"/>
			<path style="fill:#3AB1D6;" d="M337.134-215.722c-2.092,0-3.92-1.187-5.75-2.362l7.504-8.11c1.674-0.295,3.144-1.144,4.549-2.1     c0.361,1.29,0.68,2.655,0.952,4.095c0.01,0.055,0.021,0.109,0.031,0.164c0.27,1.457,0.492,2.99,0.655,4.605     C342.698-217.975,339.637-215.722,337.134-215.722z"/>
			<path style="fill:#3AB1D6;" d="M314.879-227.111c3.618,0,6.724-3.618,10.342-3.618c0.591,0,1.184,0.133,1.783,0.341     l-12.618,14.12c-0.021-0.002-0.043-0.002-0.065-0.005l-12.345-13.814c0.862-0.385,1.706-0.643,2.549-0.643     C308.143-230.729,311.249-227.111,314.879-227.111z"/>
			<path style="fill:#3AB1D6;" d="M297.713-217.667c-1.617,1.023-3.257,1.945-5.1,1.945c-2.856,0-6.451-2.958-8.909-4.278     c0.271-2.46,0.676-4.728,1.185-6.823c0.008-0.033,0.016-0.065,0.024-0.098c0.166-0.679,0.343-1.34,0.53-1.983     c0.001-0.002,0.001-0.004,0.001-0.006l0,0c1.28,0.909,2.584,1.809,4.035,2.343L297.713-217.667z"/>
			<path style="fill:#3AB1D6;" d="M325.745-198.121c-4.142,0-7.248,4.142-10.866,4.142c-3.629,0-6.736-4.142-10.877-4.142     c-4.13,0-7.248,4.665-11.389,4.665c-2.818,0-6.36-2.881-8.818-4.233c0.658-1.658,1.055-3.392,1.055-5.089     c0-1.576-0.302-3.219-0.759-4.818c2.451,1.647,4.836,3.786,8.01,3.786c5.166,0,8.795-4.665,12.425-4.665     c0.686,0,1.354,0.131,2.01,0.343l7.82,8.452l7.169-7.749c1.198-0.588,2.415-1.046,3.696-1.046c3.618,0,7.259,4.665,12.436,4.665     c2.607,0,4.698-1.463,6.736-2.905c-0.323,1.317-0.53,2.649-0.53,3.937c0,1.867,0.474,3.779,1.254,5.585     c-2.386,1.453-5.476,3.737-7.983,3.737C332.992-193.456,329.886-198.121,325.745-198.121z"/>
		</g>
		<path style="fill:#288548;" d="M338.888-226.194l-7.504,8.11l-9.859,10.656l-7.169,7.749l-7.82-8.452l-8.823-9.536l-8.233-8.899    l-3.557-3.845c0.382-1.156,0.796-2.25,1.236-3.286c0.009-0.022,0.019-0.043,0.029-0.065c0.187-0.439,0.381-0.863,0.577-1.281    c0.048-0.101,0.095-0.204,0.143-0.304c0.191-0.398,0.387-0.786,0.585-1.165c0.092-0.176,0.186-0.346,0.28-0.519    c0.112-0.206,0.225-0.409,0.339-0.61c0.112-0.198,0.224-0.395,0.338-0.587c0.099-0.166,0.199-0.326,0.299-0.488    c0.019-0.03,0.037-0.061,0.056-0.091c0.02-0.032,0.039-0.064,0.058-0.096c0.163-0.262,0.328-0.518,0.494-0.77    c0.022-0.034,0.045-0.067,0.067-0.101c0.056-0.084,0.112-0.168,0.169-0.252c0.028-0.041,0.056-0.084,0.084-0.125    c0.111-0.162,0.221-0.325,0.333-0.482c0.05-0.07,0.101-0.137,0.151-0.206c0.095-0.131,0.189-0.261,0.285-0.39    c0.072-0.098,0.144-0.201,0.217-0.297c0.014-0.019,0.028-0.04,0.043-0.058l0.001,0.001l0.003,0.004l2.901,3.246l7.369,8.246    l12.345,13.814l0.034,0.038l0.03-0.034l12.618-14.12l7.366-8.243l2.635-2.948l0.003-0.003l0.001-0.001    c0.014,0.019,0.028,0.04,0.043,0.058c0.142,0.187,0.282,0.385,0.422,0.578c0.05,0.069,0.101,0.137,0.151,0.207    c0.026,0.036,0.052,0.071,0.078,0.107c0.112,0.158,0.222,0.32,0.333,0.482c0.107,0.157,0.213,0.316,0.32,0.477    c0.166,0.252,0.33,0.508,0.494,0.77c0.138,0.222,0.276,0.445,0.413,0.675c0.114,0.192,0.226,0.39,0.338,0.587    c0.114,0.2,0.227,0.404,0.339,0.61c0.094,0.172,0.188,0.343,0.28,0.519c0.198,0.379,0.394,0.767,0.585,1.165    c0.048,0.1,0.095,0.202,0.142,0.303c0.197,0.419,0.39,0.844,0.578,1.283c0.009,0.022,0.019,0.043,0.028,0.064    c0.44,1.036,0.855,2.13,1.236,3.287L338.888-226.194z"/>
		<g>
			<path style="fill:#74948F;" d="M264.695-238.965c0.211-0.029,0.38-0.047,0.478-0.047c0.228,0,0.975,0.206,1.824,0.387l1.94,2.762     c-0.444-0.01-0.845-0.027-1.17-0.047c-1.104-0.064-2.209-0.309-3.303-0.687l0.71-1.9L264.695-238.965z"/>
			<path style="fill:#74948F;" d="M287.66-249.049c-0.317,0.492-0.707,0.99-1.128,1.479h-0.001     C286.953-248.06,287.343-248.558,287.66-249.049z"/>
			<path style="fill:#74948F;" d="M293.131-255.064c0-0.225-0.091-0.443-0.224-0.666c0.141,0.218,0.232,0.439,0.232,0.659     c0,2.065-4.635,4.139-4.662,4.152c0-0.001,0.001-0.002,0.001-0.003C288.478-250.923,293.131-253.005,293.131-255.064z"/>
			<path style="fill:#74948F;" d="M284.786-258.756c-0.048,0.004-0.086,0.013-0.131,0.018     C284.7-258.743,284.738-258.752,284.786-258.756z"/>
			<path style="fill:#74948F;" d="M248.145-252.899c1.689,0.112,3.1-0.097,4.091-0.097c1.547,0,3.618,2.071,2.059,2.583     c-0.537,0.183-0.499,0.747-0.102,1.422c-0.539,0.443-1.144,1.01-1.776,1.721C251.129-249.585,249.637-251.575,248.145-252.899z"/>
			<path style="fill:#74948F;" d="M263.102-243.154c-4.141,1.035-4.654,2.583-1.035,4.654c0,0,1.624-0.322,2.557-0.455l-1.014,2.034     c-1.414-0.578-2.802-1.362-4.143-2.25c-0.079-0.645-0.487-2.637-0.498-2.955c-0.052-1.461-0.243-2.689-0.509-3.736     c0.167,0.045,0.334,0.086,0.501,0.115C262.067-245.236,267.243-244.189,263.102-243.154z"/>
			<path style="fill:#74948F;" d="M278.765-239.515c0.001,0.002,0.002,0.003,0.003,0.005c-0.762,0.756-1.649,1.516-2.636,2.167     c-0.008,0.001-0.017,0.002-0.026,0.004C277.102-237.992,277.997-238.755,278.765-239.515z"/>
			<path style="fill:#74948F;" d="M281.219-256.099c-3.095,1.035-5.177-1.035-8.272-1.559c-3.118-0.512-8.294-0.512-11.389,0     c-3.118,0.523-0.523,1.035,0.512,1.559c1.035,0.523,5.177,0,7.248-0.523c2.071-0.512,7.248,0.523,8.806,1.047     c1.547,0.512,7.248-0.523,7.248,0.512c0,1.035-10.365,1.035-9.853,1.559c0.523,0.501,6.224,0.501,8.294,0.501     c2.059,0,3.618-0.501,3.095,1.047c-0.512,1.547-2.571,2.071-1.536,2.594c0.784,0.392-0.241,1.696-1.698,2.516     c-0.295,0.125-0.567,0.254-0.81,0.382c-0.201,0.078-0.405,0.147-0.61,0.197c-0.295,0.075-0.545,0.138-0.769,0.194     c-0.34-1.262-0.653-5.365-2.327-5.365c-2.082,0-3.118,2.583-2.594,4.142c0.261,0.793,0.255,1.581,0.188,2.166     c-2.174,0.102-3.747-1.02-3.293-0.101c0.11,0.22,0.246,0.437,0.395,0.651c-0.627-0.18-1.248-0.445-1.74-0.83     c-0.481-0.488-0.727-0.851-0.727-0.851c0.169,0.337,0.425,0.615,0.727,0.851c0.517,0.525,1.306,1.195,2.379,1.732     c0.095,0.048,0.177,0.088,0.267,0.134c0.4,0.37,0.838,0.688,1.281,0.907c1.035,0.512,1.035,1.547-1.559,3.106     c-1.436,0.864-1.259,1.889-0.292,2.541c-1.268,0.274-2.289,0.565-2.289,0.565l-2.887-1.927c0.33-0.002,0.617-0.043,0.822-0.146     c1.024-0.512,0.523-2.071,2.059-2.583c1.559-0.523,2.082-1.035,1.047-2.594c-1.047-1.559-2.082-3.095-2.082-3.095     s-5.689-1.035-7.76-2.082c-2.071-1.035-6.212-2.594-1.547-3.106c4.654-0.512,11.389-2.583,10.342-3.106     c-1.035-0.512-7.248,0-9.307,0c-2.082,0-6.212-1.035-7.259-1.035c-1.035,0-4.13-0.523-2.571-1.559     c1.536-1.024-2.082,0.523-4.153,1.035c-1.434,0.364-4.128,1.231-4.586,2.073c-0.025,0.005-0.051,0.007-0.076,0.013     c-0.723,0.179-1.23,0.409-1.586,0.673c-0.389-0.582-0.879-1.038-1.517-1.199c-1.487-0.37-2.981,1.409-3.7,2.429     c-0.461-0.619-0.653-1.265-0.437-1.912c1.024-3.106,8.283-1.035,11.389-2.071c3.106-1.035,5.689-3.106,7.76-3.106     c2.082,0,5.177,0.523,7.771,0c2.583-0.523,8.795,1.035,10.866,2.071c1.73,0.865,5.98-0.072,8.548-0.709     C282.914-257.578,282.822-256.634,281.219-256.099z M269.831-251.95c-1.559,0.501-4.142,3.095-4.142,3.095     c2.082,0.523,7.259-0.512,6.736-1.559C271.902-251.449,271.39-252.473,269.831-251.95z"/>
			<path style="fill:#74948F;" d="M289.615-257.804c-0.18-0.067-0.362-0.13-0.546-0.191     C289.253-257.934,289.435-257.871,289.615-257.804z"/>
			<path style="fill:#74948F;" d="M288.811-258.083c-0.264-0.084-0.53-0.162-0.793-0.232     C288.282-258.245,288.547-258.167,288.811-258.083z"/>
			<path style="fill:#74948F;" d="M292.863-255.809c-0.691-0.535-1.46-1.08-2.261-1.583     C291.612-256.926,292.452-256.381,292.863-255.809z"/>
			<path style="fill:#74948F;" d="M285.352-258.762c-0.051-0.002-0.097-0.001-0.146-0.001     C285.255-258.763,285.301-258.764,285.352-258.762z"/>
			<path style="fill:#74948F;" d="M287.637-258.408c-0.133-0.032-0.267-0.066-0.398-0.094     C287.37-258.474,287.504-258.44,287.637-258.408z"/>
			<path style="fill:#74948F;" d="M290.356-257.504c-0.128-0.055-0.258-0.109-0.39-0.162     C290.098-257.613,290.228-257.56,290.356-257.504z"/>
			<path style="fill:#74948F;" d="M286.761-258.595c-0.086-0.016-0.173-0.032-0.257-0.046     C286.588-258.627,286.674-258.61,286.761-258.595z"/>
			<path style="fill:#74948F;" d="M286.011-258.708c-0.064-0.007-0.126-0.014-0.188-0.02     C285.885-258.722,285.947-258.716,286.011-258.708z"/>
		</g>
		<g>
			<path style="fill:#CFDCD9;" d="M254.296-250.413c1.559-0.512-0.512-2.583-2.059-2.583c-0.99,0-2.401,0.208-4.091,0.097     c-1.437-1.275-2.872-1.927-4.124-1.654c0.458-0.842,3.152-1.708,4.586-2.073c2.071-0.512,5.689-2.059,4.153-1.035     c-1.559,1.035,1.536,1.559,2.571,1.559c1.047,0,5.177,1.035,7.259,1.035c2.059,0,8.272-0.512,9.307,0     c1.047,0.523-5.689,2.594-10.342,3.106c-4.665,0.512-0.523,2.071,1.547,3.106c2.071,1.047,7.76,2.082,7.76,2.082     s1.035,1.536,2.082,3.095c1.035,1.559,0.512,2.071-1.047,2.594c-1.536,0.512-1.035,2.071-2.059,2.583     c-0.204,0.103-0.491,0.144-0.822,0.146l-1.767-1.179l-0.523,0.523l0.271,0.385c-0.849-0.182-1.595-0.387-1.824-0.387     c-0.098,0-0.267,0.018-0.478,0.047l-0.044-0.043l-0.027,0.054c-0.933,0.133-2.557,0.455-2.557,0.455     c-3.618-2.071-3.106-3.618,1.035-4.654c4.142-1.035-1.035-2.082-4.141-2.594c-0.167-0.028-0.334-0.069-0.501-0.115     c-0.55-2.167-1.426-3.55-2.085-4.547c0,0-0.906,0.372-2.18,1.419C253.796-249.666,253.759-250.23,254.296-250.413z"/>
			<path style="fill:#CFDCD9;" d="M265.689-248.855c0,0,2.583-2.594,4.142-3.095c1.559-0.523,2.071,0.501,2.594,1.536     C272.948-249.367,267.771-248.332,265.689-248.855z"/>
		</g>
		<g>
			<path style="fill:#3C4544;" d="M276.752-245.133c-0.065,0.564-0.188,0.94-0.188,0.94s-1.356-0.002-2.71-0.39     c-0.149-0.214-0.285-0.432-0.395-0.651C273.005-246.153,274.578-245.03,276.752-245.133z"/>
			<path style="fill:#3C4544;" d="M282.864-246.466c-0.565,0.296-0.976,0.575-1.123,0.726c-0.098,0.096-0.178-0.044-0.256-0.335     c0.224-0.056,0.474-0.119,0.769-0.194C282.459-246.319,282.663-246.388,282.864-246.466z"/>
			<path style="fill:#3C4544;" d="M283.674-246.848c1.457-0.82,2.481-2.124,1.698-2.516c-1.035-0.523,1.024-1.047,1.536-2.594     c0.523-1.547-1.035-1.047-3.095-1.047c-2.071,0-7.771,0-8.294-0.501c-0.512-0.523,9.853-0.523,9.853-1.559     c0-1.035-5.7,0-7.248-0.512c-1.559-0.523-6.736-1.559-8.806-1.047c-2.071,0.523-6.212,1.047-7.248,0.523     c-1.035-0.523-3.63-1.035-0.512-1.559c3.095-0.512,8.272-0.512,11.389,0c3.095,0.523,5.177,2.594,8.272,1.559     c1.604-0.535,1.695-1.478,1.82-2.263v-0.001c0.501-0.125,0.944-0.239,1.297-0.33c0.092-0.023,0.209-0.031,0.318-0.044     c0.045-0.005,0.083-0.014,0.131-0.018c0.129-0.01,0.273-0.01,0.421-0.008c0.049,0.001,0.095,0,0.146,0.001     c0.15,0.006,0.307,0.018,0.471,0.034c0.062,0.006,0.124,0.012,0.188,0.02c0.161,0.019,0.323,0.041,0.493,0.068     c0.085,0.014,0.171,0.03,0.257,0.046c0.158,0.029,0.315,0.057,0.478,0.093c0.131,0.028,0.265,0.062,0.398,0.094     c0.127,0.031,0.252,0.058,0.381,0.093c0.264,0.071,0.529,0.148,0.793,0.232c0.087,0.028,0.172,0.059,0.258,0.088     c0.183,0.061,0.366,0.124,0.546,0.191c0.119,0.044,0.234,0.091,0.351,0.138c0.132,0.053,0.262,0.106,0.39,0.162     c0.067,0.029,0.139,0.055,0.204,0.085c0.014,0.009,0.027,0.019,0.042,0.028c0.801,0.503,1.57,1.048,2.261,1.583     c0.002,0.002,0.005,0.003,0.007,0.005c0.016,0.025,0.023,0.049,0.038,0.073c0.133,0.224,0.224,0.441,0.224,0.666     c0,2.059-4.654,4.142-4.654,4.142c0,0.001-0.001,0.002-0.001,0.003c-0.099,0.582-0.397,1.219-0.817,1.87     c-0.317,0.492-0.707,0.99-1.129,1.479C285.524-247.511,284.513-247.204,283.674-246.848z"/>
			<path style="fill:#3C4544;" d="M274.483-239.533c2.594-1.559,2.594-2.594,1.559-3.106c-0.443-0.219-0.881-0.537-1.281-0.907     c1.885,0.943,2.839,1.425,2.839,1.425s0.478,1.421,1.165,2.607c-0.767,0.76-1.663,1.523-2.659,2.176     c-0.639,0.089-1.304,0.215-1.914,0.347C273.224-237.644,273.047-238.67,274.483-239.533z"/>
		</g>
		<g>
			<path style="fill:#288548;" d="M266.726-239.01l0.523-0.523l1.767,1.179l2.887,1.927c0,0,1.021-0.291,2.289-0.565     c0.61-0.132,1.274-0.258,1.914-0.347c0.009-0.001,0.017-0.002,0.026-0.004c0.526-0.072,1.034-0.12,1.472-0.12     c2.059,0,3.106,0.512,3.618,2.583c0.523,2.082-4.654,0-5.7-0.512c-1.035-0.523-1.547,1.035-0.512,1.547     c1.035,0.523,6.212,0.523,7.248,2.082c1.035,1.536-2.594,3.095-2.594,3.095s1.559,3.117,0,4.141     c-1.536,1.035-3.095-3.095-3.095-3.095s-0.523,2.071-2.082,2.583c-1.536,0.512-1.536-5.188-1.536-5.188s-1.559,2.082-2.594,1.559     c-1.035-0.512,0-5.177,0-5.177l-1.419-2.019l-1.94-2.762L266.726-239.01z"/>
			<path style="fill:#288548;" d="M260.509-237.461l2.082,2.583l1.018-2.042l1.014-2.034l0.027-0.054l0.044,0.043l0.479,0.469     l-0.71,1.9l-0.838,2.242c0,0,2.583,0,3.618,1.035s-0.523,2.059-2.594,2.059c-1.798,0-2.425,0.4-2.896,1.88     c0.359,0.206,0.421,0.417-0.165,0.591c-0.011,0.043-0.023,0.078-0.034,0.122l-0.131-0.079c-0.114,0.027-0.241,0.054-0.392,0.079     c-1.639,0.277-1.974-0.469-1.777-1.382l-0.294-0.176c0,0,0.122,0.025,0.317,0.068c0.202-0.785,0.765-1.667,1.23-2.128     c0.876-0.867-0.438-1.01-1.491-1.64c0.154-0.838,0.287-1.731,0.372-2.655C259.952-237.087,260.509-237.461,260.509-237.461z"/>
			<path style="fill:#288548;" d="M240.843-255.065c0.638,0.161,1.127,0.617,1.517,1.199c-1.677,1.245,0.22,3.307,1.074,5.016     c0.057,0.114,0.116,0.24,0.176,0.369c-0.688,1.114-2.074,2.385-2.767,2.735c-1.035,0.512-1.559-1.559-1.559-1.559     s-1.547,3.117-3.095,3.117c-1.559,0-2.082-4.142-2.082-4.142s-3.095-1.035-3.618-2.082c0,0,1.035-2.071,3.106-2.071     s3.106,0.523,3.106,0.523s0.165-0.284,0.442-0.677C237.861-253.656,239.356-255.435,240.843-255.065z"/>
			<path style="fill:#288548;" d="M271.387-246.263c0,0,0.246,0.363,0.727,0.851C271.813-245.649,271.556-245.926,271.387-246.263z"/>
			<path style="fill:#288548;" d="M277.6-242.122c0,0-0.954-0.482-2.839-1.425c-0.091-0.045-0.172-0.086-0.267-0.134     c-1.073-0.536-1.862-1.207-2.379-1.732c0.491,0.384,1.113,0.65,1.74,0.83c1.354,0.388,2.71,0.39,2.71,0.39     s0.123-0.376,0.188-0.94c0.067-0.585,0.073-1.373-0.188-2.166c-0.523-1.559,0.512-4.142,2.594-4.142     c1.674,0,1.987,4.103,2.327,5.365c0.078,0.291,0.158,0.431,0.256,0.335c0.147-0.151,0.558-0.43,1.123-0.726     c0.243-0.128,0.515-0.257,0.81-0.382c0.839-0.356,1.85-0.663,2.857-0.722h0.001c0.669-0.039,1.336,0.028,1.945,0.271     c2.583,1.035,2.583,4.141,0.512,5.689c-2.082,1.559-6.736,1.047-6.736,1.047s0,2.059-1.547,2.583     c-0.691,0.229-1.383-0.573-1.938-1.53c-0.001-0.002-0.002-0.003-0.003-0.005C278.077-240.7,277.6-242.122,277.6-242.122z"/>
		</g>
		<g>
			<path style="fill:#D1BEA7;" d="M277.963-189.913c0.039-0.03,0.079-0.06,0.118-0.09     C278.042-189.973,278.003-189.943,277.963-189.913z"/>
			<path style="fill:#D1BEA7;" d="M272.948-198.636c-2.594,1.559-9.33,4.153-7.259,12.425c0.216,0.865,1.775,1.024,3.618,0.66     c0.202-0.04,0.402-0.102,0.602-0.166c0.235,0.411,0.502,0.87,0.808,1.361c-0.233-0.193-0.36-0.299-0.36-0.299l-0.523,3.618     c0,0,1.035,2.071,3.106,4.141c2.071,2.071,2.071,5.177,2.071,6.724v2.594c0,0-1.559,3.106-6.736,1.035s-6.212-5.689-6.724-8.283     c-0.45-2.222,0.632-4.453-1.359-6.677c2.254-0.735,4.159-2.369,4.459-4.183c0.523-3.118,1.035-10.354,0.523-13.471     c-0.12-0.709-0.184-1.53-0.225-2.401c0.148-0.125,0.301-0.241,0.458-0.35c1.258-0.497,2.882-0.683,4.521-0.287     c0.799,0.402,1.632,1.04,2.489,2.004c0,0,0.058-0.291,0.129-0.793c0.499,0.36,0.981,0.787,1.428,1.31c0,0,1.906-2.862,2.73-5.349     C276.102-202.443,274.786-199.75,272.948-198.636z M268.8-168.089c2.071,1.035,3.618,0.512,2.071-1.047     C269.323-170.672,266.718-169.136,268.8-168.089z"/>
			<path style="fill:#D1BEA7;" d="M277.067-207.561c-0.085-2.209-0.476-6.231,0.501-8.559c-0.488,1.605-0.489,5.132-0.489,8.166     C277.078-207.827,277.072-207.694,277.067-207.561z"/>
			<path style="fill:#D1BEA7;" d="M277.639-188.872c0.722,0.606,2.015,1.775,3.073,3.18c0.093,0.124,0.184,0.238,0.273,0.344     C279.847-186.204,278.567-187.452,277.639-188.872z"/>
		</g>
		<path style="fill:#937A61;" d="M275.008-188.294c0.756-0.25,1.525-0.648,2.284-1.148c0.109,0.192,0.224,0.382,0.346,0.569    c0.928,1.42,2.208,2.668,3.346,3.524c0.991,0.747,1.872,1.199,2.303,1.199c1.047,0,2.594-0.512,2.594-0.512h9.318    c0,0-2.594,8.283-11.389,8.283c-7.229,0-11.033-4.676-13.093-7.979c-0.306-0.491-0.574-0.95-0.808-1.361    C271.697-186.294,273.38-187.741,275.008-188.294z"/>
		<g>
			<path style="fill:#AF987E;" d="M284.85-202.777c0,1.697-0.397,3.43-1.055,5.089c-0.153,0.386-0.32,0.766-0.501,1.142     c-1.264,2.628-3.164,4.971-5.213,6.543c-0.039,0.03-0.078,0.061-0.118,0.09c-0.223,0.167-0.446,0.324-0.671,0.472     c-0.76,0.499-1.529,0.898-2.284,1.148c-1.627,0.553-3.311,1.999-5.099,2.576c-0.2,0.064-0.399,0.126-0.602,0.166     c-1.843,0.364-3.402,0.205-3.618-0.66c-2.071-8.272,4.665-10.866,7.259-12.425c1.837-1.114,3.154-3.807,3.758-6.388     c0.207-0.883,0.329-1.749,0.36-2.538c0.005-0.132,0.012-0.266,0.012-0.393c0-3.034,0.001-6.561,0.489-8.166     c0.012-0.038,0.022-0.081,0.034-0.117c0.523-1.547,1.559-3.106,2.059-1.547c0.323,0.956,2.225,4.088,3.633,7.805     c0.293,0.774,0.565,1.573,0.797,2.384C284.548-205.996,284.85-204.354,284.85-202.777z"/>
			<path style="fill:#AF987E;" d="M255.858-237.973c-0.594-3.162-1.866-6.469-3.44-9.296c0.632-0.711,1.236-1.278,1.776-1.721     c1.274-1.047,2.18-1.419,2.18-1.419c0.66,0.997,1.535,2.38,2.085,4.547c0.266,1.047,0.457,2.275,0.509,3.736     c0.01,0.319,0.418,2.311,0.498,2.955c0.009,0.069,0.014,0.128,0.014,0.162c0.02,0.82-0.018,1.635-0.09,2.429     c-0.085,0.924-0.218,1.817-0.372,2.655c-0.363,1.974-0.832,3.635-1.011,4.625c-0.966-1.114-1.682-1.929-1.987-2.275     C256.151-234.025,256.145-236.443,255.858-237.973z"/>
		</g>
		<path style="fill:#D1BEA7;" d="M242.359-253.866c0.356-0.264,0.863-0.494,1.586-0.673c0.025-0.006,0.051-0.007,0.076-0.013    c1.252-0.274,2.688,0.379,4.124,1.654c1.492,1.323,2.984,3.314,4.273,5.629c1.574,2.827,2.846,6.134,3.44,9.296    c0.287,1.531,0.294,3.948,0.162,6.399c-0.106-0.121-0.168-0.19-0.168-0.19l-1.09,6.196c-1.268-1.515-2.818-3.186-4.594-5.161    c-1.42-1.576-3.079-3.438-4.758-5.239c-0.416-1.02-0.599-1.9-0.418-2.527c0.978-3.429-0.359-7.769-1.382-9.985    c-0.06-0.129-0.119-0.255-0.176-0.369C242.579-250.559,240.682-252.621,242.359-253.866z"/>
		<path style="fill:#BA8F69;" d="M269.929-202.195c-1.72-0.865-3.271-0.575-4.521,0.287c-0.158,0.109-0.31,0.225-0.458,0.35    c-0.139-2.933-0.012-6.465-0.81-8.465c-1.035-2.594-5.177-5.177-5.7-8.806c-0.31-2.244-1.622-4.285-3.677-6.74l1.09-6.196    c0,0,0.062,0.07,0.168,0.19c0.305,0.346,1.021,1.161,1.987,2.275c3.579,4.128,10.586,12.365,12.864,16.16    c2.507,4.188,1.975,10.05,1.677,12.155c-0.071,0.503-0.129,0.793-0.129,0.793C271.561-201.155,270.728-201.793,269.929-202.195z"/>
		<path style="fill:#BB6C3F;" d="M254.762-225.569c2.055,2.454,3.368,4.495,3.677,6.74c0.523,3.63,4.665,6.212,5.7,8.806    c0.798,2,0.671,5.532,0.81,8.465c0.041,0.871,0.105,1.692,0.225,2.401c0.512,3.117,0,10.354-0.523,13.471    c-0.3,1.814-2.205,3.448-4.459,4.183c-1.592,0.519-3.357,0.592-4.859-0.053c0,0-11.389-9.83-17.601-25.873    c-6.212-16.065-3.618-34.691-1.547-35.726c1.441-0.72,5.386,3.069,9.225,7.185c1.679,1.801,3.339,3.664,4.758,5.239    C251.944-228.755,253.494-227.084,254.762-225.569z"/>
		<path style="fill:#020202;" d="M270.871-169.136c1.547,1.559,0,2.082-2.071,1.047    C266.718-169.136,269.323-170.672,270.871-169.136z"/>
		<g>
			<path style="fill:#74948F;" d="M338.109-257.392c-0.801,0.503-1.57,1.048-2.261,1.583     C336.259-256.381,337.099-256.926,338.109-257.392z"/>
			<path style="fill:#74948F;" d="M342.888-258.728c-0.062,0.006-0.124,0.012-0.188,0.02     C342.764-258.716,342.826-258.722,342.888-258.728z"/>
			<path style="fill:#74948F;" d="M374.415-250.413c-1.559-0.512,0.501-2.583,2.059-2.583c0.992,0,2.4,0.208,4.092,0.096     c-1.492,1.323-2.984,3.314-4.273,5.63c-0.632-0.711-1.237-1.278-1.776-1.721C374.915-249.666,374.952-250.23,374.415-250.413z"/>
			<path style="fill:#74948F;" d="M343.505-258.763c-0.049,0.001-0.095,0-0.146,0.001     C343.41-258.764,343.456-258.763,343.505-258.763z"/>
			<path style="fill:#74948F;" d="M339.642-257.995c-0.183,0.061-0.366,0.124-0.546,0.191     C339.276-257.871,339.458-257.934,339.642-257.995z"/>
			<path style="fill:#74948F;" d="M340.233-250.923c0,0.001,0.001,0.002,0.001,0.003c-0.028-0.012-4.662-2.087-4.662-4.152     c0-0.221,0.091-0.441,0.232-0.659c-0.133,0.223-0.224,0.44-0.224,0.666C335.58-253.005,340.233-250.923,340.233-250.923z"/>
			<path style="fill:#74948F;" d="M387.868-255.065c-0.638,0.161-1.128,0.617-1.517,1.199c-0.356-0.264-0.863-0.494-1.586-0.673     c-0.025-0.006-0.051-0.007-0.076-0.013c-0.458-0.842-3.152-1.708-4.586-2.073c-2.071-0.512-5.689-2.059-4.153-1.035     c1.559,1.035-1.536,1.559-2.571,1.559c-1.047,0-5.177,1.035-7.259,1.035c-2.071,0-8.272-0.512-9.307,0     c-1.047,0.523,5.689,2.594,10.342,3.106c4.665,0.512,0.523,2.071-1.547,3.106c-2.071,1.047-7.76,2.082-7.76,2.082     s-1.035,1.536-2.082,3.095c-1.035,1.559-0.512,2.071,1.047,2.594c1.536,0.512,1.035,2.071,2.059,2.583     c0.204,0.103,0.491,0.144,0.822,0.146l-2.887,1.927c0,0-1.021-0.291-2.289-0.565c0.968-0.652,1.143-1.677-0.303-2.541     c-2.583-1.559-2.583-2.594-1.547-3.106c0.443-0.219,0.881-0.537,1.281-0.907c0.091-0.045,0.172-0.086,0.267-0.134     c1.073-0.536,1.862-1.207,2.379-1.732c0.302-0.236,0.559-0.514,0.727-0.851c0,0-0.246,0.363-0.727,0.851     c-0.491,0.384-1.113,0.65-1.74,0.83c0.149-0.214,0.285-0.432,0.395-0.651c0.455-0.919-1.119,0.203-3.293,0.101     c-0.067-0.585-0.073-1.373,0.188-2.166c0.523-1.559-0.512-4.142-2.594-4.142c-1.674,0-1.987,4.103-2.327,5.365     c-0.224-0.056-0.474-0.119-0.769-0.194c-0.205-0.05-0.408-0.119-0.61-0.197c-0.243-0.128-0.515-0.257-0.81-0.382     c-1.457-0.82-2.481-2.124-1.698-2.516c1.035-0.523-1.024-1.047-1.536-2.594c-0.523-1.547,1.035-1.047,3.095-1.047     c2.071,0,7.771,0,8.294-0.501c0.512-0.523-9.853-0.523-9.853-1.559c0-1.035,5.7,0,7.248-0.512     c1.559-0.523,6.736-1.559,8.806-1.047c2.071,0.523,6.212,1.047,7.248,0.523c1.035-0.523,3.63-1.035,0.512-1.559     c-3.095-0.512-8.272-0.512-11.389,0c-3.095,0.523-5.177,2.594-8.272,1.559c-1.604-0.535-1.695-1.478-1.82-2.263     c2.568,0.637,6.818,1.574,8.548,0.709c2.071-1.035,8.283-2.594,10.866-2.071c2.594,0.523,5.689,0,7.771,0     c2.071,0,4.654,2.071,7.76,3.106c3.106,1.035,10.365-1.035,11.389,2.071c0.216,0.647,0.024,1.293-0.437,1.912     C390.85-253.656,389.355-255.435,387.868-255.065z M363.023-248.855c0,0-2.594-2.594-4.142-3.095     c-1.559-0.523-2.071,0.501-2.594,1.536C355.764-249.367,360.941-248.332,363.023-248.855z"/>
			<path style="fill:#74948F;" d="M363.538-239.012c0.096,0,0.265,0.018,0.477,0.047l-0.478,0.468l0.71,1.9     c-1.094,0.378-2.198,0.622-3.303,0.687c-0.324,0.02-0.726,0.037-1.17,0.047l1.94-2.762     C362.563-238.807,363.31-239.012,363.538-239.012z"/>
			<path style="fill:#74948F;" d="M342.208-258.64c-0.085,0.014-0.171,0.03-0.257,0.046     C342.037-258.61,342.123-258.627,342.208-258.64z"/>
			<path style="fill:#74948F;" d="M340.693-258.315c-0.264,0.071-0.529,0.148-0.793,0.232     C340.164-258.167,340.429-258.245,340.693-258.315z"/>
			<path style="fill:#74948F;" d="M338.745-257.666c-0.132,0.053-0.262,0.106-0.39,0.162     C338.483-257.56,338.613-257.613,338.745-257.666z"/>
			<path style="fill:#74948F;" d="M365.609-243.154c-4.142-1.035,1.035-2.082,4.13-2.594c0.171-0.029,0.342-0.07,0.513-0.117     c-0.266,1.048-0.458,2.276-0.51,3.738c-0.01,0.318-0.408,2.307-0.495,2.954c-1.342,0.888-2.732,1.674-4.146,2.252l-1.014-2.033     c0.931,0.133,2.557,0.454,2.557,0.454C370.263-240.571,369.739-242.118,365.609-243.154z"/>
			<path style="fill:#74948F;" d="M342.179-247.57c-0.422-0.49-0.811-0.988-1.128-1.479     C341.368-248.558,341.758-248.06,342.179-247.57C342.18-247.57,342.179-247.57,342.179-247.57z"/>
			<path style="fill:#74948F;" d="M352.606-237.339c-0.009-0.001-0.017-0.002-0.026-0.004c-0.987-0.651-1.874-1.411-2.636-2.167     c0.001-0.002,0.002-0.003,0.003-0.005C350.714-238.755,351.609-237.992,352.606-237.339z"/>
			<path style="fill:#74948F;" d="M344.056-258.737c-0.045-0.005-0.083-0.014-0.131-0.018     C343.973-258.752,344.011-258.743,344.056-258.737z"/>
			<path style="fill:#74948F;" d="M341.472-258.502c-0.131,0.028-0.265,0.062-0.398,0.094     C341.207-258.44,341.341-258.474,341.472-258.502z"/>
		</g>
		<g>
			<path style="fill:#CFDCD9;" d="M380.566-252.9c-1.691,0.112-3.1-0.096-4.092-0.096c-1.559,0-3.618,2.071-2.059,2.583     c0.537,0.183,0.499,0.747,0.101,1.422c-1.274-1.047-2.18-1.418-2.18-1.418c-0.659,0.997-1.534,2.379-2.085,4.545     c-0.17,0.046-0.342,0.088-0.513,0.117c-3.095,0.512-8.272,1.559-4.13,2.594c4.13,1.035,4.654,2.583,1.035,4.654     c0,0-1.626-0.321-2.557-0.454l-0.027-0.054l-0.045,0.044c-0.212-0.029-0.381-0.047-0.477-0.047c-0.228,0-0.975,0.206-1.824,0.387     l0.271-0.385l-0.523-0.523l-1.767,1.179c-0.33-0.002-0.617-0.043-0.822-0.146c-1.024-0.512-0.523-2.071-2.059-2.583     c-1.559-0.523-2.082-1.035-1.047-2.594c1.047-1.559,2.082-3.095,2.082-3.095s5.689-1.035,7.76-2.082     c2.071-1.035,6.212-2.594,1.547-3.106c-4.654-0.512-11.389-2.583-10.342-3.106c1.035-0.512,7.236,0,9.307,0     c2.082,0,6.212-1.035,7.259-1.035c1.035,0,4.13-0.523,2.571-1.559c-1.536-1.024,2.082,0.523,4.153,1.035     c1.434,0.364,4.128,1.231,4.586,2.073C383.438-254.826,382.003-254.174,380.566-252.9z"/>
			<path style="fill:#CFDCD9;" d="M358.881-251.95c1.547,0.501,4.142,3.095,4.142,3.095c-2.082,0.523-7.259-0.512-6.736-1.559     C356.811-251.449,357.323-252.473,358.881-251.95z"/>
		</g>
		<g>
			<path style="fill:#3C4544;" d="M349.946-239.515c0.688-1.185,1.165-2.607,1.165-2.607s0.954-0.482,2.839-1.425     c-0.4,0.37-0.838,0.688-1.281,0.907c-1.035,0.512-1.035,1.547,1.547,3.106c1.446,0.864,1.27,1.889,0.303,2.541     c-0.61-0.132-1.274-0.258-1.914-0.347C351.609-237.992,350.714-238.755,349.946-239.515z"/>
			<path style="fill:#3C4544;" d="M347.492-256.099c3.095,1.035,5.177-1.035,8.272-1.559c3.118-0.512,8.294-0.512,11.389,0     c3.118,0.523,0.523,1.035-0.512,1.559c-1.035,0.523-5.177,0-7.248-0.523c-2.071-0.512-7.248,0.523-8.806,1.047     c-1.547,0.512-7.248-0.523-7.248,0.512c0,1.035,10.365,1.035,9.853,1.559c-0.523,0.501-6.224,0.501-8.294,0.501     c-2.059,0-3.618-0.501-3.095,1.047c0.512,1.547,2.571,2.071,1.536,2.594c-0.784,0.392,0.241,1.696,1.698,2.516     c-0.839-0.356-1.85-0.663-2.857-0.722c-0.422-0.49-0.812-0.988-1.129-1.479c-0.42-0.651-0.718-1.287-0.817-1.87     c0-0.001-0.001-0.002-0.001-0.003c0,0-4.654-2.082-4.654-4.142c0-0.225,0.091-0.442,0.224-0.666     c0.015-0.025,0.022-0.049,0.038-0.074c0.002-0.002,0.005-0.003,0.007-0.005c0.691-0.535,1.46-1.08,2.261-1.583     c0.014-0.009,0.027-0.019,0.042-0.028c0.066-0.03,0.137-0.056,0.204-0.085c0.128-0.055,0.258-0.109,0.39-0.162     c0.117-0.047,0.232-0.094,0.351-0.138c0.18-0.067,0.362-0.13,0.546-0.191c0.087-0.029,0.171-0.06,0.258-0.088     c0.264-0.084,0.53-0.162,0.793-0.232c0.129-0.034,0.253-0.062,0.381-0.093c0.133-0.032,0.267-0.066,0.398-0.094     c0.163-0.035,0.32-0.064,0.478-0.093c0.086-0.016,0.173-0.032,0.257-0.046c0.17-0.028,0.332-0.049,0.493-0.068     c0.064-0.007,0.126-0.014,0.188-0.02c0.164-0.016,0.321-0.028,0.471-0.034c0.051-0.002,0.097-0.001,0.146-0.001     c0.147-0.002,0.291-0.002,0.421,0.008c0.048,0.004,0.086,0.013,0.131,0.018c0.109,0.013,0.227,0.021,0.318,0.044     c0.353,0.091,0.796,0.205,1.297,0.33v0.001C345.797-257.578,345.888-256.634,347.492-256.099z"/>
			<path style="fill:#3C4544;" d="M346.97-245.74c-0.147-0.151-0.558-0.43-1.123-0.726c0.201,0.078,0.405,0.147,0.61,0.197     c0.295,0.075,0.545,0.138,0.769,0.194C347.148-245.784,347.068-245.644,346.97-245.74z"/>
			<path style="fill:#3C4544;" d="M351.959-245.133c2.174,0.102,3.747-1.02,3.293-0.101c-0.11,0.22-0.246,0.437-0.395,0.651     c-1.354,0.388-2.71,0.39-2.71,0.39S352.024-244.568,351.959-245.133z"/>
		</g>
		<g>
			<path style="fill:#288548;" d="M354.519-236.992c1.268,0.274,2.289,0.565,2.289,0.565l2.887-1.927l1.767-1.179l0.523,0.523     l-0.271,0.385l-1.94,2.762l-1.419,2.019c0,0,1.035,4.665,0,5.177c-1.035,0.523-2.583-1.559-2.583-1.559s0,5.7-1.547,5.188     c-1.559-0.512-2.082-2.583-2.082-2.583s-1.559,4.13-3.095,3.095c-1.559-1.024,0-4.141,0-4.141s-3.629-1.559-2.594-3.095     c1.035-1.559,6.212-1.559,7.248-2.082c1.035-0.512,0.523-2.071-0.512-1.547c-1.047,0.512-6.224,2.594-5.7,0.512     c0.512-2.071,1.559-2.583,3.618-2.583c0.438,0,0.946,0.047,1.472,0.12c0.009,0.001,0.017,0.002,0.026,0.004     C353.245-237.25,353.909-237.124,354.519-236.992z"/>
			<path style="fill:#288548;" d="M364.016-238.965l0.045-0.044l0.027,0.054l1.014,2.033l1.018,2.042l2.082-2.583     c0,0,0.557,0.374,1.119,0.882c0.085,0.924,0.218,1.817,0.372,2.655c-1.053,0.63-2.367,0.773-1.491,1.64     c0.465,0.46,1.028,1.342,1.23,2.128c0.195-0.044,0.317-0.068,0.317-0.068l-0.294,0.176c0.197,0.914-0.138,1.659-1.777,1.382     c-0.152-0.025-0.278-0.052-0.392-0.079l-0.132,0.079c-0.011-0.045-0.023-0.079-0.034-0.123c-0.578-0.173-0.517-0.383-0.163-0.588     c-0.471-1.483-1.098-1.883-2.897-1.883c-2.071,0-3.629-1.024-2.594-2.059s3.618-1.035,3.618-1.035l-0.838-2.242l-0.71-1.9     L364.016-238.965z"/>
			<path style="fill:#288548;" d="M394.604-248.33c0,0-0.523,4.142-2.082,4.142c-1.547,0-3.095-3.117-3.095-3.117     s-0.523,2.071-1.559,1.559c-0.693-0.35-2.079-1.621-2.767-2.735c0.06-0.129,0.119-0.255,0.176-0.369     c0.854-1.708,2.751-3.77,1.074-5.016c0.389-0.582,0.879-1.038,1.517-1.199c1.487-0.37,2.981,1.409,3.7,2.429     c0.277,0.393,0.442,0.677,0.442,0.677s1.035-0.523,3.106-0.523c2.071,0,3.106,2.071,3.106,2.071     C397.699-249.365,394.604-248.33,394.604-248.33z"/>
			<path style="fill:#288548;" d="M356.596-245.412c0.481-0.488,0.727-0.851,0.727-0.851     C357.155-245.926,356.898-245.649,356.596-245.412z"/>
			<path style="fill:#288548;" d="M345.037-246.848c0.295,0.125,0.566,0.254,0.81,0.382c0.565,0.296,0.976,0.575,1.123,0.726     c0.098,0.096,0.178-0.044,0.256-0.335c0.34-1.262,0.653-5.365,2.327-5.365c2.082,0,3.118,2.583,2.594,4.142     c-0.261,0.793-0.255,1.581-0.188,2.166c0.065,0.564,0.188,0.94,0.188,0.94s1.356-0.002,2.71-0.39     c0.627-0.18,1.248-0.445,1.74-0.83c-0.517,0.525-1.306,1.195-2.379,1.732c-0.095,0.048-0.177,0.088-0.267,0.134     c-1.885,0.943-2.839,1.425-2.839,1.425s-0.477,1.421-1.165,2.607c-0.001,0.002-0.002,0.003-0.003,0.005     c-0.556,0.957-1.248,1.758-1.938,1.53c-1.547-0.523-1.547-2.583-1.547-2.583s-4.654,0.512-6.736-1.047     c-2.071-1.547-2.071-4.654,0.512-5.689c0.609-0.243,1.275-0.311,1.945-0.271h0.001     C343.187-247.511,344.198-247.204,345.037-246.848z"/>
		</g>
		<g>
			<path style="fill:#D1BEA7;" d="M347.727-185.348c0.09-0.106,0.18-0.22,0.273-0.344c1.058-1.406,2.351-2.574,3.073-3.18     C350.144-187.452,348.864-186.204,347.727-185.348z"/>
			<path style="fill:#D1BEA7;" d="M351.146-216.115c0.971,2.324,0.584,6.328,0.499,8.538c-0.005-0.127-0.011-0.255-0.011-0.378     C351.634-210.984,351.632-214.507,351.146-216.115z"/>
			<path style="fill:#D1BEA7;" d="M350.671-189.969c0.017,0.013,0.033,0.026,0.05,0.038     C350.704-189.944,350.687-189.957,350.671-189.969z"/>
			<path style="fill:#D1BEA7;" d="M358.782-202.195c1.632-0.394,3.252-0.212,4.511,0.28c0.161,0.111,0.317,0.229,0.468,0.357     c-0.042,0.871-0.105,1.692-0.225,2.401c-0.512,3.117,0,10.354,0.523,13.471c0.307,1.813,2.209,3.447,4.46,4.182     c-1.992,2.225-0.909,4.456-1.36,6.678c-0.512,2.594-1.547,6.212-6.724,8.283s-6.736-1.035-6.736-1.035v-2.594     c0-1.547,0-4.654,2.071-6.724c2.071-2.071,3.106-4.141,3.106-4.141l-0.523-3.618c0,0-0.127,0.106-0.36,0.299     c0.306-0.491,0.574-0.95,0.808-1.361c0.2,0.064,0.4,0.126,0.603,0.167c1.843,0.364,3.391,0.205,3.618-0.66     c2.071-8.272-4.665-10.866-7.259-12.425c-1.835-1.112-3.15-3.8-3.755-6.377c0.826,2.484,2.727,5.338,2.727,5.338     c0.447-0.523,0.929-0.95,1.428-1.31c0.071,0.503,0.129,0.793,0.129,0.793C357.15-201.155,357.983-201.793,358.782-202.195z      M357.84-169.136c-1.547,1.559,0,2.082,2.071,1.047C361.993-169.136,359.388-170.672,357.84-169.136z"/>
		</g>
		<path style="fill:#937A61;" d="M353.704-188.294c1.627,0.553,3.31,1.999,5.098,2.576c-0.235,0.411-0.502,0.87-0.808,1.361    c-2.06,3.303-5.864,7.979-13.093,7.979c-8.795,0-11.389-8.283-11.389-8.283h9.318c0,0,1.547,0.512,2.594,0.512    c0.431,0,1.312-0.452,2.303-1.199c1.137-0.857,2.418-2.104,3.346-3.524c0.122-0.187,0.237-0.376,0.346-0.568    C352.178-188.941,352.947-188.543,353.704-188.294z"/>
		<g>
			<path style="fill:#AF987E;" d="M355.764-198.636c2.594,1.559,9.33,4.153,7.259,12.425c-0.228,0.865-1.775,1.024-3.618,0.66     c-0.203-0.04-0.403-0.102-0.603-0.167c-1.787-0.577-3.471-2.023-5.098-2.576c-0.757-0.249-1.527-0.648-2.286-1.146     c-0.234-0.154-0.466-0.317-0.698-0.491c-0.017-0.013-0.033-0.026-0.05-0.038c-2.066-1.572-3.983-3.929-5.254-6.574     c-0.103-0.215-0.205-0.431-0.3-0.65c-0.781-1.806-1.254-3.718-1.254-5.585c0-1.288,0.208-2.62,0.53-3.937     c0.272-1.111,0.626-2.211,1.024-3.264c1.407-3.718,3.306-6.851,3.623-7.806c0.512-1.559,1.547,0,2.071,1.547     c0.013,0.038,0.024,0.083,0.036,0.123c0.486,1.607,0.487,5.13,0.487,8.16c0,0.122,0.007,0.251,0.011,0.378     c0.03,0.796,0.154,1.672,0.363,2.564C352.614-202.436,353.929-199.748,355.764-198.636z"/>
			<path style="fill:#AF987E;" d="M369.231-239.009c0.001-0.035,0.008-0.094,0.017-0.164c0.086-0.647,0.484-2.635,0.495-2.954     c0.052-1.462,0.243-2.691,0.51-3.738c0.55-2.165,1.425-3.548,2.085-4.545c0,0,0.906,0.372,2.18,1.418     c0.54,0.443,1.144,1.01,1.776,1.721c-1.574,2.827-2.845,6.134-3.44,9.296c-0.287,1.531-0.294,3.948-0.162,6.399     c-0.305,0.346-1.021,1.161-1.987,2.275c-0.179-0.99-0.648-2.651-1.011-4.625c-0.154-0.838-0.287-1.731-0.372-2.655     C369.248-237.374,369.21-238.189,369.231-239.009z"/>
		</g>
		<path style="fill:#D1BEA7;" d="M373.949-225.569l-1.09-6.196c0,0-0.062,0.07-0.168,0.19c-0.131-2.451-0.125-4.868,0.162-6.399    c0.594-3.162,1.866-6.469,3.44-9.296c1.289-2.316,2.781-4.306,4.273-5.63c1.436-1.274,2.871-1.927,4.124-1.653    c0.025,0.005,0.051,0.007,0.076,0.013c0.723,0.179,1.23,0.409,1.586,0.673c1.677,1.245-0.22,3.307-1.074,5.016    c-0.057,0.114-0.116,0.24-0.176,0.369c-1.024,2.216-2.361,6.556-1.382,9.985c0.181,0.627-0.001,1.507-0.418,2.527    c-1.679,1.801-3.339,3.664-4.758,5.239C376.767-228.755,375.217-227.084,373.949-225.569z"/>
		<path style="fill:#BA8F69;" d="M372.859-231.765l1.09,6.196c-2.055,2.454-3.368,4.495-3.677,6.74    c-0.523,3.63-4.665,6.212-5.689,8.806c-0.807,2-0.682,5.533-0.822,8.465c-0.151-0.128-0.307-0.246-0.468-0.357    c-1.248-0.857-2.796-1.144-4.511-0.28c-0.799,0.402-1.632,1.04-2.489,2.003c0,0-0.058-0.291-0.129-0.793    c-0.298-2.105-0.831-7.966,1.677-12.155c2.277-3.796,9.284-12.032,12.864-16.16c0.966-1.114,1.682-1.929,1.987-2.275    C372.797-231.695,372.859-231.765,372.859-231.765z"/>
		<path style="fill:#BB6C3F;" d="M364.059-185.686c-0.523-3.118-1.035-10.354-0.523-13.471c0.12-0.709,0.184-1.529,0.225-2.401    c0.14-2.933,0.015-6.465,0.822-8.465c1.024-2.594,5.166-5.177,5.689-8.806c0.31-2.244,1.622-4.285,3.677-6.74    c1.268-1.515,2.818-3.186,4.594-5.161c1.42-1.576,3.079-3.438,4.758-5.239c3.839-4.116,7.785-7.906,9.225-7.185    c2.071,1.035,4.665,19.661-1.547,35.726c-6.212,16.043-17.601,25.873-17.601,25.873c-1.503,0.646-3.267,0.571-4.858,0.052    C366.268-182.239,364.366-183.873,364.059-185.686z"/>
		<path style="fill:#020202;" d="M359.911-168.089c-2.071,1.035-3.618,0.512-2.071-1.047    C359.388-170.672,361.993-169.136,359.911-168.089z"/>
		<g>
			<path style="fill:#FFFFFF;" d="M279.663-143.244c1.209,2.012,3.651,2.769,4.688,3.009c-0.007,0.032-0.011,0.07-0.019,0.101     c-0.417,1.652-2.142,3.293-2.824,3.891c-2.268,0.697-5.4,0.04-9.082-0.264c-6.212-0.523-8.283,4.654-8.283,4.654     s-2.082-1.035-1.559-3.106c0.512-2.071,4.654-3.106,1.035-3.106c-5.689,0-5.177-4.142-5.177-4.142s2.924,1.24,5.7,1.559     c4.654,0.512,5.177,0,10.342,0c-3.095-1.559-18.113-8.283-18.113-8.283c3.629-4.141,9.842-1.559,14.495,1.547     c4.654,3.106,3.618,0.523,2.583-1.547c-1.024-2.082-5.177-10.354-5.177-10.354s3.345,0.228,4.665,1.547     c3.106,3.106,3.629,7.76,3.629,7.76c0.818-1.356,2.343-1.997,3.609-2.303c0.338,0.568,0.688,1.112,1.042,1.61     C280.112-148.485,278.646-144.963,279.663-143.244z"/>
			<path style="fill:#FFFFFF;" d="M343.786-173.849c-0.272-0.282-0.441-0.451-0.441-0.451s11.389,1.547,9.842,11.901     c-0.54,3.615-1.84,6.851-3.235,9.797c-0.743-0.185-1.569-0.214-2.459,0.041c0,0,0.772,0.531,1.589,1.746     c-2.333,4.691-4.557,8.635-3.654,12.231c0,0-1.472-0.403-2.803-1.483c-0.806-0.868-1.461-1.925-1.881-2.687     c-2.032-6.711,4.526-12.171,5.708-13.943c2.071-3.118,3.106-6.736,3.106-6.736s-5.689,4.653-8.806,0c0,0,3.63,0.523,5.177-1.035     c1.47-1.47,2.472-3.384,1.276-5.343C346.639-171.558,345.429-172.974,343.786-173.849z"/>
			<path style="fill:#FFFFFF;" d="M374.409-148.418c4.142,0,6.724,1.024,6.724,4.142c0,3.095-5.177,5.177-5.177,5.177     s1.559-3.618,1.047-5.7C376.479-146.871,374.409-148.418,374.409-148.418z"/>
		</g>
		<g>
			<path style="fill:#905F41;" d="M305.551-145.832c0.499-0.997,1.841-1.874,3.329-2.516c0.501,0.774,0.429,1.868-0.736,3.038     c0,0,2.594,1.559,4.654-0.523c2.082-2.071,5.7-2.594,4.141,1.559c0,0,3.63,1.035,5.188-2.082     c1.547-3.095,7.236-2.571,4.654,1.559c0,0,1.307,0.26,2.438-0.337l0.676,1.518l1.552,3.487l-1.035,3.095     c0,0-1.476,0.248-3.238,0.402c-0.799,0.07-1.657,0.121-2.463,0.121c-0.478,0-1.009-0.036-1.556-0.093v4.471     c-0.086-0.002-0.168-0.006-0.256-0.006c-0.671,0-1.291,0.047-1.815,0.127v-4.888c-1.693-0.294-3.108-0.647-3.108-0.647     l-0.52-1.211v6.546c-0.523-0.104-1.143-0.166-1.812-0.166c-0.088,0-0.172,0.006-0.258,0.008v-8.695     c0-0.058,0.008-0.113,0.015-0.168c-1.645-0.085-4.94-0.227-7.256-0.148v6.968c-0.419-0.02-0.854-0.031-1.305-0.031     c-0.264,0-0.523,0.005-0.777,0.012v-6.744c-0.958,0.244-3.15,1.493-5.222,2.761c-2.384,1.458-4.607,2.939-4.607,2.939     c-3.618,1.559,2.071-2.583,3.106-4.141c0.165-0.248,0.415-0.525,0.713-0.818C301.625-141.987,304.691-144.081,305.551-145.832z"/>
			<path style="fill:#905F41;" d="M317.456-125.705v5.141c0,0.626-0.455,1.138-1.035,1.138c-0.569,0-1.035-0.512-1.035-1.138v-5.095     c0.175,0.004,0.348,0.01,0.529,0.01C316.46-125.649,316.979-125.669,317.456-125.705z"/>
			<path style="fill:#905F41;" d="M317.456-130.463v3.324c-0.477-0.036-0.996-0.058-1.542-0.058c-0.181,0-0.354,0.006-0.529,0.01     v-3.12c0.087,0.002,0.17,0.008,0.258,0.008C316.313-130.298,316.933-130.36,317.456-130.463z"/>
			<path style="fill:#905F41;" d="M306.069-127.198c0.76,0,1.463-0.054,2.075-0.142v4.288c0,0.528-0.407,0.951-0.919,1.012     c-0.04,0.005-0.075,0.024-0.116,0.024c-0.58,0-1.047-0.467-1.047-1.035v-1.971v-2.176     C306.065-127.198,306.067-127.198,306.069-127.198z"/>
			<path style="fill:#905F41;" d="M306.069-129.269c-0.002,0-0.004,0-0.007,0v-3.118c0.254,0.007,0.513,0.012,0.777,0.012     c0.451,0,0.886-0.011,1.305-0.031v3.282C307.532-129.214,306.829-129.269,306.069-129.269z"/>
			<path style="fill:#905F41;" d="M321.084-123.052v-2.673c0.524,0.051,1.144,0.081,1.815,0.081c0.088,0,0.17-0.003,0.256-0.004     v2.596c0,0.569-0.467,1.035-1.035,1.035c-0.213,0-0.4-0.081-0.566-0.193C321.278-122.396,321.084-122.696,321.084-123.052z"/>
			<path style="fill:#905F41;" d="M322.899-130.537c0.088,0,0.17-0.004,0.256-0.006v3.867c-0.086-0.001-0.168-0.004-0.256-0.004     c-0.671,0-1.291,0.032-1.815,0.085v-4.068C321.608-130.583,322.228-130.537,322.899-130.537z"/>
		</g>
		<g>
			<path style="fill:#FFFFFF;" d="M306.069-129.269c0.76,0,1.463,0.055,2.075,0.145c1.23,0.18,2.066,0.511,2.066,0.89     c0,0.387-0.836,0.715-2.066,0.893c-0.612,0.088-1.315,0.142-2.075,0.142c-0.002,0-0.004,0-0.007,0     c-0.294,0-0.58-0.008-0.857-0.023c-1.865-0.098-3.277-0.508-3.277-1.012c0-0.424,1.04-0.791,2.512-0.951     c0.499-0.054,1.047-0.084,1.622-0.085C306.065-129.269,306.067-129.269,306.069-129.269z"/>
			<path style="fill:#FFFFFF;" d="M306.839-134.446c0.451,0,0.886,0.012,1.305,0.031c2.381,0.112,4.145,0.52,4.145,1.004     c0,0.494-1.764,0.895-4.145,1.005c-0.419,0.019-0.854,0.031-1.305,0.031c-0.264,0-0.523-0.005-0.777-0.012     c-1.147-0.031-2.179-0.129-2.978-0.275c-1.028-0.187-1.672-0.451-1.672-0.749c0-0.237,0.426-0.455,1.134-0.63     c0.843-0.208,2.089-0.354,3.516-0.393C306.317-134.441,306.575-134.446,306.839-134.446z"/>
			<path style="fill:#FFFFFF;" d="M321.084-125.725c-0.782-0.076-1.336-0.199-1.496-0.345c-0.453,0.166-1.203,0.296-2.132,0.365     c-0.477,0.035-0.996,0.056-1.542,0.056c-0.181,0-0.354-0.006-0.529-0.01c-2.036-0.048-3.624-0.366-3.624-0.764     c0-0.388,1.588-0.714,3.624-0.764c0.175-0.004,0.348-0.01,0.529-0.01c0.546,0,1.064,0.021,1.542,0.058     c1.508,0.115,2.575,0.391,2.595,0.707c0.264-0.066,0.615-0.122,1.033-0.164c0.524-0.053,1.144-0.085,1.815-0.085     c0.088,0,0.17,0.003,0.256,0.004c0.046,0.001,0.092,0.001,0.138,0.002c1.668,0.031,2.974,0.253,2.974,0.517     c0,0.271-1.378,0.488-3.112,0.508c-0.086,0.001-0.168,0.004-0.256,0.004C322.228-125.644,321.608-125.674,321.084-125.725z"/>
			<path style="fill:#FFFFFF;" d="M319.011-131.333c0,0.365-0.621,0.685-1.555,0.87c-0.523,0.103-1.143,0.165-1.812,0.165     c-0.088,0-0.172-0.006-0.258-0.008c-1.732-0.042-3.098-0.486-3.098-1.027c0-0.553,1.367-0.997,3.098-1.039     c0.087-0.002,0.17-0.008,0.258-0.008c0.67,0,1.289,0.062,1.812,0.166C318.39-132.028,319.011-131.705,319.011-131.333z"/>
			<path style="fill:#FFFFFF;" d="M322.899-130.537c-0.671,0-1.291-0.047-1.815-0.126c-0.933-0.141-1.553-0.386-1.553-0.671     c0-0.291,0.62-0.54,1.553-0.681c0.524-0.08,1.144-0.127,1.815-0.127c0.088,0,0.17,0.005,0.256,0.006     c0.851,0.015,1.614,0.102,2.172,0.241c0.579,0.144,0.94,0.34,0.94,0.561c0,0.269-0.56,0.503-1.41,0.646     c-0.487,0.082-1.07,0.133-1.702,0.144C323.069-130.541,322.987-130.537,322.899-130.537z"/>
		</g>
		<path style="fill:#8FD2E2;" d="M301.239-154.116c1.36,1.177,2.252,2.593,2.252,2.593c0.409-0.206,0.817-0.354,1.222-0.458    c0.807-0.208,1.595-0.227,2.328-0.117c1.683,0.253,3.072,1.187,3.698,2.123c0.472,0.717,1.665-0.478,3.306-1.145    c0.573-0.233,1.199-0.402,1.871-0.402c1.244,0,3.302,0.903,4.204,1.329c0.278,0.131,0.449,0.219,0.449,0.219    s0.195-0.257,0.555-0.61c0.667-0.654,1.909-1.645,3.586-1.984c0.786-0.155,1.472-0.071,2.051,0.118    c1.331,0.436,2.08,1.441,2.08,1.441s0.132-0.34,0.398-0.808c0.598-1.051,1.895-2.76,4.018-2.844    c0.247-0.01,0.502-0.005,0.772,0.034c3.63,0.512,4.665,3.106,2.583,5.7c-2.071,2.571-4.13,0-4.13,0s-0.315,0.162-0.766,0.637    c-0.373,0.393-0.836,0.997-1.305,1.934c-0.302,0.6-0.732,0.979-1.191,1.222c-1.132,0.597-2.438,0.337-2.438,0.337    c2.583-4.13-3.106-4.654-4.654-1.559c-1.559,3.117-5.188,2.082-5.188,2.082c1.559-4.153-2.059-3.63-4.141-1.559    c-2.059,2.082-4.654,0.523-4.654,0.523c1.165-1.169,1.237-2.263,0.736-3.038c-0.835-1.291-3.263-1.694-4.877-0.08    c-2.594,2.594-4.654,1.559-4.654,1.559c1.539-2.705-0.386-3.679-1.456-4c-0.362-0.108-0.626-0.142-0.626-0.142    s-1.035,2.583-2.594,3.106c-1.536,0.512-3.095-0.523-3.095-3.106c0-2.764,3.042-4.619,6.132-4.651c0.027,0,0.053-0.003,0.08-0.003    C299.079-155.664,300.275-154.95,301.239-154.116z"/>
		<g>
			<path style="fill:#288548;" d="M282.774-170.172c0,0,0.092,0.096,0.236,0.437c0.198,0.467,0.496,1.397,0.799,3.193     c0.523,3.106,6.212,4.665,6.212,4.665s-4.142,1.559-6.736-0.523c-1.263-1.024,0.523,2.082,1.559,4.654     c1.035,2.605,3.106,5.7,3.106,5.7c3.106,1.035,2.594,6.212,2.594,6.212c-1.559-2.059-2.594-1.559-2.594-1.559     s2.071,3.118,1.035,7.259c-1.035,4.13-7.76,4.13-7.76,4.13s0.109-0.088,0.282-0.24c0.682-0.598,2.406-2.239,2.824-3.891     c0.008-0.031,0.012-0.069,0.019-0.101c0.459-2.13-0.573-7.197-2.613-9.741c-0.173-0.217-0.346-0.453-0.519-0.696     c-0.354-0.499-0.704-1.042-1.042-1.61c-1.466-2.464-2.714-5.337-3.104-6.489c-0.37-1.117-0.202-3.857,0.504-6.075     c0.272-0.854,0.621-1.632,1.055-2.208C280.191-169.137,282.774-170.172,282.774-170.172z"/>
			<path style="fill:#288548;" d="M258.293-150.736c0.218-0.103,0.439-0.197,0.669-0.273     C258.962-151.01,258.71-150.912,258.293-150.736z"/>
			<path style="fill:#288548;" d="M249.643-144.274c0-2.608,6.518-5.565,8.65-6.462c-2.73,1.289-4.508,4.495-4.508,5.939     c0,1.547,2.071,4.142,2.071,4.142C253.785-140.656,249.643-141.179,249.643-144.274z"/>
			<path style="fill:#288548;" d="M344.898-138.59c2.594,0.523,4.654-1.547,6.212-3.618c1.559-2.071,0-4.153-1.035-6.724     c-0.305-0.763-0.653-1.377-0.993-1.884c-0.817-1.215-1.589-1.746-1.589-1.746c0.89-0.255,1.717-0.226,2.459-0.041     c2.277,0.568,3.753,2.623,3.753,2.623s0-4.654,2.059-6.724c2.082-2.071,6.736-3.106,6.736-3.106s-2.594,2.583-4.142,6.212     c-1.547,3.618-1.547,7.236-1.547,7.236s5.177-3.618,8.283-5.166c3.106-1.547,5.689-1.547,7.236-0.523     c1.559,1.035,6.736,4.153,6.736,4.153c-5.177-1.559-8.283,0-12.425,1.536c-4.142,1.559-11.389,5.7-11.389,5.7     s7.248-0.512,9.842-0.512c2.583,0,7.76-1.547,7.76-1.547s-1.559,2.059-3.106,3.618c-1.547,1.559-4.142,1.035-4.142,1.035     s2.071,2.071,1.547,3.618c-0.512,1.559-3.618,2.071-3.618,2.071s0.523-3.106-1.035-4.654c-1.559-1.559-9.83,0-15.531,0.523     c-5.689,0.512-6.736-7.248-6.736-7.248s0.186,0.413,0.51,1c0.42,0.761,1.075,1.818,1.881,2.687     C343.296-139.344,344.071-138.754,344.898-138.59z"/>
			<path style="fill:#288548;" d="M327.3-156.694l-0.798,0.361l-4.903,2.221c-0.462-0.207-0.904-0.427-1.333-0.657     c-0.628-0.337-1.223-0.7-1.771-1.106c-2.854-2.113-4.539-5.313-4.144-11.185c0,0,2.594,5.177,5.177,6.736     c0,0,0-4.665,1.559-8.806c1.559-4.142,5.689-7.248,8.806-7.771c0,0-3.63,5.7-3.63,10.354c0,0,1.839-4.571,5.035-8.811     c0.965-1.279,2.048-2.53,3.248-3.614l0.523,3.629c0,0-2.082,2.071-2.594,4.665c0,0,3.106-4.142,7.248-4.142     c1.52,0,2.898,0.35,4.062,0.97c1.643,0.875,2.853,2.291,3.417,4.036c0.125,0.387,0.222,0.789,0.281,1.206     c0,0-2.059-1.035-5.689-1.559c-3.629-0.512-7.76,1.559-10.877,5.7c-1.313,1.751-2.159,3.406-2.702,4.738     C327.474-157.908,327.3-156.694,327.3-156.694z"/>
		</g>
	</g>
</g>
<g>
</g>
<g>
</g>
<g>
</g>
<g>
</g>
<g>
</g>
<g>
</g>
<g>
</g>
<g>
</g>
<g>
</g>
<g>
</g>
<g>
</g>
<g>
</g>
<g>
</g>
<g>
</g>
<g>
</g>
</svg>
